solid STL generated by MeshLab
  facet normal  4.241784e-02 -1.149342e-02 -9.990339e-01
    outer loop
      vertex   2.068200e+01 -3.950600e+01  7.620010e-01
      vertex   2.170600e+01 -3.190201e+01  7.179985e-01
      vertex   2.204800e+01 -3.950599e+01  8.199997e-01
    endloop
  endfacet
  facet normal  1.740199e-01  1.738966e-02  9.845886e-01
    outer loop
      vertex   1.892801e+01 -3.952600e+01  1.703999e+00
      vertex   2.028201e+01 -4.707400e+01  1.598000e+00
      vertex   2.064600e+01 -3.950600e+01  1.400002e+00
    endloop
  endfacet
  facet normal  4.332308e-01  8.619884e-03  9.012418e-01
    outer loop
      vertex   2.297800e+01 -3.191601e+01  9.339981e-01
      vertex   2.302200e+01 -3.872799e+01  9.780006e-01
      vertex   2.311200e+01 -3.697799e+01  9.179993e-01
    endloop
  endfacet
  facet normal  3.568352e-02 -1.012004e-02 -9.993119e-01
    outer loop
      vertex   1.773600e+01 -3.192200e+01  5.800018e-01
      vertex   2.068200e+01 -3.950600e+01  7.620010e-01
      vertex   1.899600e+01 -3.952600e+01  7.019997e-01
    endloop
  endfacet
  facet normal  1.937699e-01  1.120616e-02  9.809830e-01
    outer loop
      vertex   2.216800e+01 -4.614600e+01  1.214001e+00
      vertex   2.145400e+01 -4.710600e+01  1.366001e+00
      vertex   2.239600e+01 -4.711200e+01  1.180000e+00
    endloop
  endfacet
  facet normal  1.880815e-01  1.560263e-02  9.820295e-01
    outer loop
      vertex   2.145400e+01 -4.710600e+01  1.366001e+00
      vertex   2.216800e+01 -4.614600e+01  1.214001e+00
      vertex   2.064600e+01 -3.950600e+01  1.400002e+00
    endloop
  endfacet
  facet normal  4.061775e-01 -1.157132e-02 -9.137208e-01
    outer loop
      vertex   2.297800e+01 -3.189001e+01  7.939987e-01
      vertex   2.311200e+01 -3.697799e+01  9.179993e-01
      vertex   2.302200e+01 -3.871600e+01  9.000015e-01
    endloop
  endfacet
  facet normal  1.612126e-01  1.246182e-02  9.868410e-01
    outer loop
      vertex   1.755000e+01 -3.192200e+01  1.810001e+00
      vertex   2.064600e+01 -3.950600e+01  1.400002e+00
      vertex   1.983800e+01 -3.190401e+01  1.436001e+00
    endloop
  endfacet
  facet normal  1.750814e-01  8.692199e-03  9.845155e-01
    outer loop
      vertex   2.261800e+01 -3.191400e+01  9.980011e-01
      vertex   2.274800e+01 -3.951600e+01  1.042000e+00
      vertex   2.297800e+01 -3.191601e+01  9.339981e-01
    endloop
  endfacet
  facet normal  6.557143e-02 -1.043264e-02 -9.977934e-01
    outer loop
      vertex   2.204800e+01 -3.950599e+01  8.199997e-01
      vertex   2.274800e+01 -3.950599e+01  8.660011e-01
      vertex   2.239000e+01 -4.711200e+01  9.220009e-01
    endloop
  endfacet
  facet normal  3.716675e-01  1.148456e-02  9.282948e-01
    outer loop
      vertex   2.274800e+01 -3.951600e+01  1.042000e+00
      vertex   2.287800e+01 -4.711799e+01  1.084000e+00
      vertex   2.300800e+01 -4.712200e+01  1.032001e+00
    endloop
  endfacet
  facet normal  5.606360e-02 -8.412567e-03 -9.983918e-01
    outer loop
      vertex   2.239000e+01 -4.711200e+01  9.220009e-01
      vertex   2.116401e+01 -4.436400e+01  8.300018e-01
      vertex   2.068200e+01 -3.950600e+01  7.620010e-01
    endloop
  endfacet
  facet normal  5.425512e-02 -9.222496e-03 -9.984846e-01
    outer loop
      vertex   2.116401e+01 -4.436400e+01  8.300018e-01
      vertex   2.239000e+01 -4.711200e+01  9.220009e-01
      vertex   2.143400e+01 -4.710600e+01  8.699989e-01
    endloop
  endfacet
  facet normal  1.644755e-01  1.029724e-02  9.863274e-01
    outer loop
      vertex   2.204000e+01 -3.951000e+01  1.160000e+00
      vertex   2.239600e+01 -4.711200e+01  1.180000e+00
      vertex   2.274800e+01 -3.951600e+01  1.042000e+00
    endloop
  endfacet
  facet normal  2.297051e-01  1.331731e-02  9.731691e-01
    outer loop
      vertex   2.239600e+01 -4.711200e+01  1.180000e+00
      vertex   2.204000e+01 -3.951000e+01  1.160000e+00
      vertex   2.235600e+01 -4.627600e+01  1.178001e+00
    endloop
  endfacet
  facet normal  5.177776e-01  1.100272e-02  8.554445e-01
    outer loop
      vertex   2.297800e+01 -3.191601e+01  9.339981e-01
      vertex   2.311200e+01 -3.697799e+01  9.179993e-01
      vertex   2.310000e+01 -3.190401e+01  8.600006e-01
    endloop
  endfacet
  facet normal  1.500376e-01  8.287838e-03  9.886456e-01
    outer loop
      vertex   2.168200e+01 -3.190800e+01  1.139999e+00
      vertex   2.274800e+01 -3.951600e+01  1.042000e+00
      vertex   2.261800e+01 -3.191400e+01  9.980011e-01
    endloop
  endfacet
  facet normal  1.635328e-01 -1.426454e-02 -9.864348e-01
    outer loop
      vertex   2.274800e+01 -3.950599e+01  8.660011e-01
      vertex   2.297800e+01 -3.189001e+01  7.939987e-01
      vertex   2.302200e+01 -3.871600e+01  9.000015e-01
    endloop
  endfacet
  facet normal  1.585066e-01  1.217212e-02  9.872829e-01
    outer loop
      vertex   1.983800e+01 -3.190401e+01  1.436001e+00
      vertex   2.064600e+01 -3.950600e+01  1.400002e+00
      vertex   2.168200e+01 -3.190800e+01  1.139999e+00
    endloop
  endfacet
  facet normal -5.060785e-01 -2.132939e-02 -8.622237e-01
    outer loop
      vertex   2.284401e+01 -4.712000e+01  9.980011e-01
      vertex   2.274800e+01 -3.950599e+01  8.660011e-01
      vertex   2.287800e+01 -4.711799e+01  9.780006e-01
    endloop
  endfacet
  facet normal  1.648244e-01 -1.501898e-02 -9.862086e-01
    outer loop
      vertex   2.274800e+01 -3.950599e+01  8.660011e-01
      vertex   2.284401e+01 -4.712000e+01  9.980011e-01
      vertex   2.239000e+01 -4.711200e+01  9.220009e-01
    endloop
  endfacet
  facet normal  4.612620e-01 -1.469902e-02 -8.871422e-01
    outer loop
      vertex   2.300800e+01 -4.712200e+01  1.032001e+00
      vertex   2.302200e+01 -3.871600e+01  9.000015e-01
      vertex   2.311200e+01 -3.697799e+01  9.179993e-01
    endloop
  endfacet
  facet normal  3.681162e-01 -7.697957e-03 -9.297479e-01
    outer loop
      vertex   2.292200e+01 -4.712799e+01  9.980011e-01
      vertex   2.274800e+01 -3.950599e+01  8.660011e-01
      vertex   2.300800e+01 -4.712200e+01  1.032001e+00
    endloop
  endfacet
  facet normal  4.126010e-01 -6.355836e-03 -9.108897e-01
    outer loop
      vertex   2.274800e+01 -3.950599e+01  8.660011e-01
      vertex   2.292200e+01 -4.712799e+01  9.980011e-01
      vertex   2.287800e+01 -4.711799e+01  9.780006e-01
    endloop
  endfacet
  facet normal  1.677477e-01 -1.575790e-02 -9.857040e-01
    outer loop
      vertex   2.274800e+01 -3.950599e+01  8.660011e-01
      vertex   2.302200e+01 -3.871600e+01  9.000015e-01
      vertex   2.300800e+01 -4.712200e+01  1.032001e+00
    endloop
  endfacet
  facet normal  2.112295e-01  5.935638e-03  9.774184e-01
    outer loop
      vertex   2.274800e+01 -3.951600e+01  1.042000e+00
      vertex   2.300800e+01 -4.712200e+01  1.032001e+00
      vertex   2.302200e+01 -3.872799e+01  9.780006e-01
    endloop
  endfacet
  facet normal  3.956546e-02 -1.402489e-02 -9.991186e-01
    outer loop
      vertex   2.170600e+01 -3.190201e+01  7.179985e-01
      vertex   2.261800e+01 -3.189400e+01  7.540016e-01
      vertex   2.274800e+01 -3.950599e+01  8.660011e-01
    endloop
  endfacet
  facet normal  3.606268e-02 -1.063909e-02 -9.992929e-01
    outer loop
      vertex   1.993200e+01 -3.190401e+01  6.539993e-01
      vertex   2.170600e+01 -3.190201e+01  7.179985e-01
      vertex   2.068200e+01 -3.950600e+01  7.620010e-01
    endloop
  endfacet
  facet normal  6.557143e-02 -1.043541e-02 -9.977933e-01
    outer loop
      vertex   2.170600e+01 -3.190201e+01  7.179985e-01
      vertex   2.274800e+01 -3.950599e+01  8.660011e-01
      vertex   2.204800e+01 -3.950599e+01  8.199997e-01
    endloop
  endfacet
  facet normal  1.105538e-01 -1.273411e-02 -9.937886e-01
    outer loop
      vertex   2.261800e+01 -3.189400e+01  7.540016e-01
      vertex   2.297800e+01 -3.189001e+01  7.939987e-01
      vertex   2.274800e+01 -3.950599e+01  8.660011e-01
    endloop
  endfacet
  facet normal  9.645256e-02  7.148388e-03  9.953120e-01
    outer loop
      vertex   2.274800e+01 -3.951600e+01  1.042000e+00
      vertex   2.256800e+01 -4.711200e+01  1.113998e+00
      vertex   2.287800e+01 -4.711799e+01  1.084000e+00
    endloop
  endfacet
  facet normal  3.582588e-01  3.597843e-04  9.336223e-01
    outer loop
      vertex   2.256800e+01 -4.711200e+01  1.113998e+00
      vertex   2.274800e+01 -3.951600e+01  1.042000e+00
      vertex   2.239600e+01 -4.711200e+01  1.180000e+00
    endloop
  endfacet
  facet normal  4.884264e-01  4.798945e-03  8.725919e-01
    outer loop
      vertex   2.300800e+01 -4.712200e+01  1.032001e+00
      vertex   2.311200e+01 -3.697799e+01  9.179993e-01
      vertex   2.302200e+01 -3.872799e+01  9.780006e-01
    endloop
  endfacet
  facet normal  1.644757e-01  1.034071e-02  9.863269e-01
    outer loop
      vertex   2.168200e+01 -3.190800e+01  1.139999e+00
      vertex   2.204000e+01 -3.951000e+01  1.160000e+00
      vertex   2.274800e+01 -3.951600e+01  1.042000e+00
    endloop
  endfacet
  facet normal  2.065197e-01  7.654042e-03  9.784124e-01
    outer loop
      vertex   2.274800e+01 -3.951600e+01  1.042000e+00
      vertex   2.302200e+01 -3.872799e+01  9.780006e-01
      vertex   2.297800e+01 -3.191601e+01  9.339981e-01
    endloop
  endfacet
  facet normal  1.740138e-01  1.780976e-02  9.845821e-01
    outer loop
      vertex   1.755000e+01 -3.192200e+01  1.810001e+00
      vertex   1.892801e+01 -3.952600e+01  1.703999e+00
      vertex   2.064600e+01 -3.950600e+01  1.400002e+00
    endloop
  endfacet
  facet normal  1.951185e-01  1.635698e-02  9.806433e-01
    outer loop
      vertex   2.064600e+01 -3.950600e+01  1.400002e+00
      vertex   2.028800e+01 -4.710600e+01  1.598000e+00
      vertex   2.145400e+01 -4.710600e+01  1.366001e+00
    endloop
  endfacet
  facet normal  1.104705e-01  2.068358e-02  9.936641e-01
    outer loop
      vertex   2.028800e+01 -4.710600e+01  1.598000e+00
      vertex   2.064600e+01 -3.950600e+01  1.400002e+00
      vertex   2.028201e+01 -4.707400e+01  1.598000e+00
    endloop
  endfacet
  facet normal  1.958668e-01  1.171595e-02  9.805605e-01
    outer loop
      vertex   2.235600e+01 -4.627600e+01  1.178001e+00
      vertex   2.216800e+01 -4.614600e+01  1.214001e+00
      vertex   2.239600e+01 -4.711200e+01  1.180000e+00
    endloop
  endfacet
  facet normal  1.958946e-01  1.175786e-02  9.805545e-01
    outer loop
      vertex   2.216800e+01 -4.614600e+01  1.214001e+00
      vertex   2.235600e+01 -4.627600e+01  1.178001e+00
      vertex   2.204000e+01 -3.951000e+01  1.160000e+00
    endloop
  endfacet
  facet normal  1.696921e-01  1.129215e-02  9.854324e-01
    outer loop
      vertex   2.216800e+01 -4.614600e+01  1.214001e+00
      vertex   2.204000e+01 -3.951000e+01  1.160000e+00
      vertex   2.064600e+01 -3.950600e+01  1.400002e+00
    endloop
  endfacet
  facet normal  3.376435e-02 -1.086695e-02 -9.993708e-01
    outer loop
      vertex   1.773600e+01 -3.192200e+01  5.800018e-01
      vertex   1.993200e+01 -3.190401e+01  6.539993e-01
      vertex   2.068200e+01 -3.950600e+01  7.620010e-01
    endloop
  endfacet
  facet normal  1.696914e-01  1.058400e-02  9.854404e-01
    outer loop
      vertex   2.064600e+01 -3.950600e+01  1.400002e+00
      vertex   2.204000e+01 -3.951000e+01  1.160000e+00
      vertex   2.168200e+01 -3.190800e+01  1.139999e+00
    endloop
  endfacet
  facet normal  4.241784e-02 -1.149036e-02 -9.990339e-01
    outer loop
      vertex   2.068200e+01 -3.950600e+01  7.620010e-01
      vertex   2.204800e+01 -3.950599e+01  8.199997e-01
      vertex   2.239000e+01 -4.711200e+01  9.220009e-01
    endloop
  endfacet
  facet normal  4.750175e-01 -8.934817e-03 -8.799310e-01
    outer loop
      vertex   2.297800e+01 -3.189001e+01  7.939987e-01
      vertex   2.310000e+01 -3.190401e+01  8.600006e-01
      vertex   2.311200e+01 -3.697799e+01  9.179993e-01
    endloop
  endfacet
  facet normal  3.568224e-02 -1.000894e-02 -9.993130e-01
    outer loop
      vertex   1.899600e+01 -3.952600e+01  7.019997e-01
      vertex   2.068200e+01 -3.950600e+01  7.620010e-01
      vertex   2.024001e+01 -4.707200e+01  8.219986e-01
    endloop
  endfacet
  facet normal  4.030131e-02 -1.060589e-02 -9.991313e-01
    outer loop
      vertex   2.024400e+01 -4.710600e+01  8.219986e-01
      vertex   2.116401e+01 -4.436400e+01  8.300018e-01
      vertex   2.143400e+01 -4.710600e+01  8.699989e-01
    endloop
  endfacet
  facet normal  3.887976e-02 -1.012875e-02 -9.991926e-01
    outer loop
      vertex   2.116401e+01 -4.436400e+01  8.300018e-01
      vertex   2.024400e+01 -4.710600e+01  8.219986e-01
      vertex   2.068200e+01 -3.950600e+01  7.620010e-01
    endloop
  endfacet
  facet normal -4.506810e-02 -5.288959e-03 -9.989699e-01
    outer loop
      vertex   2.068200e+01 -3.950600e+01  7.620010e-01
      vertex   2.024400e+01 -4.710600e+01  8.219986e-01
      vertex   2.024001e+01 -4.707200e+01  8.219986e-01
    endloop
  endfacet
endsolid vcg
