solid STL generated by MeshLab
  facet normal  4.036870e-02  1.129927e-02 -9.991210e-01
    outer loop
      vertex   2.116400e+01  4.458000e+01  8.320007e-01
      vertex   2.024800e+01  4.732200e+01  8.260002e-01
      vertex   2.143600e+01  4.732200e+01  8.740005e-01
    endloop
  endfacet
  facet normal  3.645055e-02  9.989997e-03 -9.992855e-01
    outer loop
      vertex   2.024800e+01  4.732200e+01  8.260002e-01
      vertex   2.116400e+01  4.458000e+01  8.320007e-01
      vertex   2.068600e+01  3.972200e+01  7.659988e-01
    endloop
  endfacet
  facet normal  2.031099e-01  1.943443e-02 -9.789631e-01
    outer loop
      vertex   2.024800e+01  4.732200e+01  8.260002e-01
      vertex   2.068600e+01  3.972200e+01  7.659988e-01
      vertex   2.024200e+01  4.728400e+01  8.240013e-01
    endloop
  endfacet
  facet normal  1.584936e-01 -1.247187e-02  9.872813e-01
    outer loop
      vertex   1.984000e+01  3.212000e+01  1.436001e+00
      vertex   2.168400e+01  3.212200e+01  1.139999e+00
      vertex   2.065000e+01  3.972200e+01  1.402000e+00
    endloop
  endfacet
  facet normal  4.095864e-02  1.155937e-02 -9.990939e-01
    outer loop
      vertex   2.068600e+01  3.972200e+01  7.659988e-01
      vertex   2.205199e+01  3.972200e+01  8.219986e-01
      vertex   2.171000e+01  3.211800e+01  7.200012e-01
    endloop
  endfacet
  facet normal  3.769887e-01 -1.156661e-02  9.261456e-01
    outer loop
      vertex   2.275200e+01  3.973000e+01  1.043999e+00
      vertex   2.300999e+01  4.733800e+01  1.034000e+00
      vertex   2.288200e+01  4.733001e+01  1.085999e+00
    endloop
  endfacet
  facet normal  3.686431e-02  9.914033e-03 -9.992711e-01
    outer loop
      vertex   1.773800e+01  3.213800e+01  5.820007e-01
      vertex   1.900000e+01  3.974200e+01  7.039986e-01
      vertex   2.068600e+01  3.972200e+01  7.659988e-01
    endloop
  endfacet
  facet normal  2.127319e-01 -5.929652e-03  9.770926e-01
    outer loop
      vertex   2.275200e+01  3.973000e+01  1.043999e+00
      vertex   2.302399e+01  3.894201e+01  9.799995e-01
      vertex   2.300999e+01  4.733800e+01  1.034000e+00
    endloop
  endfacet
  facet normal  1.650447e-01  1.430724e-02 -9.861823e-01
    outer loop
      vertex   2.275200e+01  3.972200e+01  8.680000e-01
      vertex   2.302399e+01  3.892801e+01  9.020004e-01
      vertex   2.298200e+01  3.210600e+01  7.960014e-01
    endloop
  endfacet
  facet normal  6.557027e-02  1.043501e-02 -9.977934e-01
    outer loop
      vertex   2.171000e+01  3.211800e+01  7.200012e-01
      vertex   2.205199e+01  3.972200e+01  8.219986e-01
      vertex   2.275200e+01  3.972200e+01  8.680000e-01
    endloop
  endfacet
  facet normal  1.736249e-01 -1.767541e-02  9.846532e-01
    outer loop
      vertex   1.892800e+01  3.974200e+01  1.706001e+00
      vertex   2.065000e+01  3.972200e+01  1.402000e+00
      vertex   2.028600e+01  4.728800e+01  1.602001e+00
    endloop
  endfacet
  facet normal  1.691634e-01  1.574899e-02 -9.854622e-01
    outer loop
      vertex   2.275200e+01  3.972200e+01  8.680000e-01
      vertex   2.300999e+01  4.733800e+01  1.034000e+00
      vertex   2.302399e+01  3.892801e+01  9.020004e-01
    endloop
  endfacet
  facet normal  5.177967e-01 -1.100690e-02  8.554328e-01
    outer loop
      vertex   2.298200e+01  3.213200e+01  9.360008e-01
      vertex   2.310400e+01  3.212000e+01  8.619995e-01
      vertex   2.311600e+01  3.719201e+01  9.199982e-01
    endloop
  endfacet
  facet normal  4.280741e-01 -8.478213e-03  9.037039e-01
    outer loop
      vertex   2.298200e+01  3.213200e+01  9.360008e-01
      vertex   2.311600e+01  3.719201e+01  9.199982e-01
      vertex   2.302399e+01  3.894201e+01  9.799995e-01
    endloop
  endfacet
  facet normal  1.945190e-01 -1.060424e-02  9.808415e-01
    outer loop
      vertex   2.145800e+01  4.732200e+01  1.368000e+00
      vertex   2.217200e+01  4.636000e+01  1.216000e+00
      vertex   2.239600e+01  4.732400e+01  1.181999e+00
    endloop
  endfacet
  facet normal  1.880442e-01 -1.559877e-02  9.820367e-01
    outer loop
      vertex   2.217200e+01  4.636000e+01  1.216000e+00
      vertex   2.145800e+01  4.732200e+01  1.368000e+00
      vertex   2.065000e+01  3.972200e+01  1.402000e+00
    endloop
  endfacet
  facet normal  4.526465e-01  1.474718e-02 -8.915681e-01
    outer loop
      vertex   2.300999e+01  4.733800e+01  1.034000e+00
      vertex   2.311600e+01  3.719201e+01  9.199982e-01
      vertex   2.302399e+01  3.892801e+01  9.020004e-01
    endloop
  endfacet
  facet normal  1.636038e-01 -1.025680e-02  9.864728e-01
    outer loop
      vertex   2.239600e+01  4.732400e+01  1.181999e+00
      vertex   2.204000e+01  3.972200e+01  1.161999e+00
      vertex   2.275200e+01  3.973000e+01  1.043999e+00
    endloop
  endfacet
  facet normal  1.817381e-01 -5.923714e-03 -9.833292e-01
    outer loop
      vertex   2.204000e+01  3.972200e+01  1.161999e+00
      vertex   2.239600e+01  4.732400e+01  1.181999e+00
      vertex   2.235800e+01  4.649000e+01  1.180000e+00
    endloop
  endfacet
  facet normal  5.220588e-02  1.011683e-02 -9.985851e-01
    outer loop
      vertex   2.239199e+01  4.732400e+01  9.239998e-01
      vertex   2.116400e+01  4.458000e+01  8.320007e-01
      vertex   2.143600e+01  4.732200e+01  8.740005e-01
    endloop
  endfacet
  facet normal  5.702285e-02  7.952972e-03 -9.983412e-01
    outer loop
      vertex   2.116400e+01  4.458000e+01  8.320007e-01
      vertex   2.239199e+01  4.732400e+01  9.239998e-01
      vertex   2.068600e+01  3.972200e+01  7.659988e-01
    endloop
  endfacet
  facet normal  1.459045e-01 -7.999013e-03  9.892663e-01
    outer loop
      vertex   2.168400e+01  3.212200e+01  1.139999e+00
      vertex   2.262000e+01  3.212800e+01  1.001999e+00
      vertex   2.275200e+01  3.973000e+01  1.043999e+00
    endloop
  endfacet
  facet normal  3.679953e-01  7.800281e-03 -9.297949e-01
    outer loop
      vertex   2.275200e+01  3.972200e+01  8.680000e-01
      vertex   2.292400e+01  4.734200e+01  1.000000e+00
      vertex   2.300999e+01  4.733800e+01  1.034000e+00
    endloop
  endfacet
  facet normal  4.285449e-01  5.978063e-03 -9.035007e-01
    outer loop
      vertex   2.292400e+01  4.734200e+01  1.000000e+00
      vertex   2.275200e+01  3.972200e+01  8.680000e-01
      vertex   2.288200e+01  4.733001e+01  9.799995e-01
    endloop
  endfacet
  facet normal  3.598401e-02  1.089066e-02 -9.992930e-01
    outer loop
      vertex   1.993200e+01  3.212000e+01  6.559982e-01
      vertex   2.068600e+01  3.972200e+01  7.659988e-01
      vertex   2.171000e+01  3.211800e+01  7.200012e-01
    endloop
  endfacet
  facet normal  1.794441e-01 -8.550809e-03  9.837310e-01
    outer loop
      vertex   2.262000e+01  3.212800e+01  1.001999e+00
      vertex   2.298200e+01  3.213200e+01  9.360008e-01
      vertex   2.275200e+01  3.973000e+01  1.043999e+00
    endloop
  endfacet
  facet normal  1.027700e-01 -7.254802e-03  9.946787e-01
    outer loop
      vertex   2.257199e+01  4.732600e+01  1.118000e+00
      vertex   2.275200e+01  3.973000e+01  1.043999e+00
      vertex   2.288200e+01  4.733001e+01  1.085999e+00
    endloop
  endfacet
  facet normal  3.417670e-01 -1.056206e-03  9.397840e-01
    outer loop
      vertex   2.275200e+01  3.973000e+01  1.043999e+00
      vertex   2.257199e+01  4.732600e+01  1.118000e+00
      vertex   2.239600e+01  4.732400e+01  1.181999e+00
    endloop
  endfacet
  facet normal  4.011120e-01  1.176301e-02 -9.159535e-01
    outer loop
      vertex   2.298200e+01  3.210600e+01  7.960014e-01
      vertex   2.302399e+01  3.892801e+01  9.020004e-01
      vertex   2.311600e+01  3.719201e+01  9.199982e-01
    endloop
  endfacet
  facet normal  1.098921e-01  1.271426e-02 -9.938622e-01
    outer loop
      vertex   2.262000e+01  3.210801e+01  7.560005e-01
      vertex   2.275200e+01  3.972200e+01  8.680000e-01
      vertex   2.298200e+01  3.210600e+01  7.960014e-01
    endloop
  endfacet
  facet normal  1.636062e-01 -1.051924e-02  9.864696e-01
    outer loop
      vertex   2.168400e+01  3.212200e+01  1.139999e+00
      vertex   2.275200e+01  3.973000e+01  1.043999e+00
      vertex   2.204000e+01  3.972200e+01  1.161999e+00
    endloop
  endfacet
  facet normal  4.095863e-02  1.157364e-02 -9.990938e-01
    outer loop
      vertex   2.068600e+01  3.972200e+01  7.659988e-01
      vertex   2.239199e+01  4.732400e+01  9.239998e-01
      vertex   2.205199e+01  3.972200e+01  8.219986e-01
    endloop
  endfacet
  facet normal  3.967835e-02  1.400878e-02 -9.991143e-01
    outer loop
      vertex   2.171000e+01  3.211800e+01  7.200012e-01
      vertex   2.275200e+01  3.972200e+01  8.680000e-01
      vertex   2.262000e+01  3.210801e+01  7.560005e-01
    endloop
  endfacet
  facet normal  1.951177e-01 -1.635703e-02  9.806434e-01
    outer loop
      vertex   2.029200e+01  4.732200e+01  1.599998e+00
      vertex   2.065000e+01  3.972200e+01  1.402000e+00
      vertex   2.145800e+01  4.732200e+01  1.368000e+00
    endloop
  endfacet
  facet normal  3.552010e-01 -7.620857e-03  9.347588e-01
    outer loop
      vertex   2.065000e+01  3.972200e+01  1.402000e+00
      vertex   2.029200e+01  4.732200e+01  1.599998e+00
      vertex   2.028600e+01  4.728800e+01  1.602001e+00
    endloop
  endfacet
  facet normal  6.557027e-02  1.045543e-02 -9.977932e-01
    outer loop
      vertex   2.205199e+01  3.972200e+01  8.219986e-01
      vertex   2.239199e+01  4.732400e+01  9.239998e-01
      vertex   2.275200e+01  3.972200e+01  8.680000e-01
    endloop
  endfacet
  facet normal  4.749963e-01  8.938465e-03 -8.799424e-01
    outer loop
      vertex   2.298200e+01  3.210600e+01  7.960014e-01
      vertex   2.311600e+01  3.719201e+01  9.199982e-01
      vertex   2.310400e+01  3.212000e+01  8.619995e-01
    endloop
  endfacet
  facet normal  1.701348e-01 -1.082185e-02  9.853613e-01
    outer loop
      vertex   2.065000e+01  3.972200e+01  1.402000e+00
      vertex   2.168400e+01  3.212200e+01  1.139999e+00
      vertex   2.204000e+01  3.972200e+01  1.161999e+00
    endloop
  endfacet
  facet normal  1.620483e-01 -1.285323e-02  9.866991e-01
    outer loop
      vertex   1.755200e+01  3.213800e+01  1.812000e+00
      vertex   1.984000e+01  3.212000e+01  1.436001e+00
      vertex   2.065000e+01  3.972200e+01  1.402000e+00
    endloop
  endfacet
  facet normal -5.041169e-01  2.132385e-02 -8.633721e-01
    outer loop
      vertex   2.275200e+01  3.972200e+01  8.680000e-01
      vertex   2.284800e+01  4.733600e+01  1.000000e+00
      vertex   2.288200e+01  4.733001e+01  9.799995e-01
    endloop
  endfacet
  facet normal  1.639929e-01  1.503214e-02 -9.863470e-01
    outer loop
      vertex   2.284800e+01  4.733600e+01  1.000000e+00
      vertex   2.275200e+01  3.972200e+01  8.680000e-01
      vertex   2.239199e+01  4.732400e+01  9.239998e-01
    endloop
  endfacet
  facet normal  1.976551e-01 -1.135536e-02  9.802058e-01
    outer loop
      vertex   2.217200e+01  4.636000e+01  1.216000e+00
      vertex   2.235800e+01  4.649000e+01  1.180000e+00
      vertex   2.239600e+01  4.732400e+01  1.181999e+00
    endloop
  endfacet
  facet normal  1.980278e-01 -1.191132e-02  9.801240e-01
    outer loop
      vertex   2.235800e+01  4.649000e+01  1.180000e+00
      vertex   2.217200e+01  4.636000e+01  1.216000e+00
      vertex   2.204000e+01  3.972200e+01  1.161999e+00
    endloop
  endfacet
  facet normal  1.701338e-01 -1.139918e-02  9.853551e-01
    outer loop
      vertex   2.204000e+01  3.972200e+01  1.161999e+00
      vertex   2.217200e+01  4.636000e+01  1.216000e+00
      vertex   2.065000e+01  3.972200e+01  1.402000e+00
    endloop
  endfacet
  facet normal  3.379703e-02  1.110865e-02 -9.993671e-01
    outer loop
      vertex   1.773800e+01  3.213800e+01  5.820007e-01
      vertex   2.068600e+01  3.972200e+01  7.659988e-01
      vertex   1.993200e+01  3.212000e+01  6.559982e-01
    endloop
  endfacet
  facet normal  3.686333e-02  9.829097e-03 -9.992720e-01
    outer loop
      vertex   1.900000e+01  3.974200e+01  7.039986e-01
      vertex   2.024200e+01  4.728400e+01  8.240013e-01
      vertex   2.068600e+01  3.972200e+01  7.659988e-01
    endloop
  endfacet
  facet normal  1.736247e-01 -1.769269e-02  9.846530e-01
    outer loop
      vertex   1.755200e+01  3.213800e+01  1.812000e+00
      vertex   2.065000e+01  3.972200e+01  1.402000e+00
      vertex   1.892800e+01  3.974200e+01  1.706001e+00
    endloop
  endfacet
  facet normal  4.799915e-01 -4.841913e-03  8.772598e-01
    outer loop
      vertex   2.300999e+01  4.733800e+01  1.034000e+00
      vertex   2.302399e+01  3.894201e+01  9.799995e-01
      vertex   2.311600e+01  3.719201e+01  9.199982e-01
    endloop
  endfacet
  facet normal  2.081165e-01 -7.602462e-03  9.780745e-01
    outer loop
      vertex   2.275200e+01  3.973000e+01  1.043999e+00
      vertex   2.298200e+01  3.213200e+01  9.360008e-01
      vertex   2.302399e+01  3.894201e+01  9.799995e-01
    endloop
  endfacet
endsolid vcg
