solid STL generated by MeshLab
  facet normal  1.213958e-01  1.241251e-02  9.925265e-01
    outer loop
      vertex   1.943400e+01 -1.103000e+01  1.231998e+00
      vertex   1.954400e+01 -2.058200e+01  1.338001e+00
      vertex   2.120000e+01 -1.103000e+01  1.015999e+00
    endloop
  endfacet
  facet normal  3.087196e-02 -8.830668e-03 -9.994843e-01
    outer loop
      vertex   1.960400e+01 -2.063600e+01  5.260010e-01
      vertex   1.761600e+01 -2.396399e+01  4.939995e-01
      vertex   1.764600e+01 -2.069000e+01  4.659996e-01
    endloop
  endfacet
  facet normal  3.402010e-02 -1.071239e-02 -9.993637e-01
    outer loop
      vertex   1.761600e+01 -2.396399e+01  4.939995e-01
      vertex   1.960400e+01 -2.063600e+01  5.260010e-01
      vertex   1.742000e+01 -3.018401e+01  5.540009e-01
    endloop
  endfacet
  facet normal  1.455051e-02 -1.010349e-02 -9.998431e-01
    outer loop
      vertex   1.761600e+01 -2.396399e+01  4.939995e-01
      vertex   1.742000e+01 -3.018401e+01  5.540009e-01
      vertex   1.756600e+01 -2.403600e+01  4.939995e-01
    endloop
  endfacet
  facet normal -1.161070e-02 -8.444940e-03 -9.998969e-01
    outer loop
      vertex   1.756800e+01 -2.389800e+01  4.939995e-01
      vertex   1.764600e+01 -2.069000e+01  4.659996e-01
      vertex   1.761600e+01 -2.396399e+01  4.939995e-01
    endloop
  endfacet
  facet normal  1.433943e-01  1.677898e-02  9.895234e-01
    outer loop
      vertex   1.729600e+01 -2.059600e+01  1.664001e+00
      vertex   1.954400e+01 -2.058200e+01  1.338001e+00
      vertex   1.733600e+01 -1.103000e+01  1.495998e+00
    endloop
  endfacet
  facet normal  0.000000e+00  0.000000e+00 -1.000000e+00
    outer loop
      vertex   1.752800e+01 -1.721600e+01  4.280014e-01
      vertex   1.753000e+01 -1.721201e+01  4.280014e-01
      vertex   1.756200e+01 -1.716800e+01  4.280014e-01
    endloop
  endfacet
  facet normal -4.075299e-03 -1.087265e-02 -9.999326e-01
    outer loop
      vertex   1.752800e+01 -1.696600e+01  4.160004e-01
      vertex   1.751200e+01 -1.696000e+01  4.160004e-01
      vertex   1.741600e+01 -1.122200e+01  3.540001e-01
    endloop
  endfacet
  facet normal  9.325374e-02 -8.928137e-03 -9.956024e-01
    outer loop
      vertex   1.754800e+01 -1.698000e+01  4.179993e-01
      vertex   1.752800e+01 -1.696600e+01  4.160004e-01
      vertex   1.741600e+01 -1.122200e+01  3.540001e-01
    endloop
  endfacet
  facet normal  1.610514e-01  7.100949e-03  9.869205e-01
    outer loop
      vertex   2.243800e+01 -2.058200e+01  9.420013e-01
      vertex   2.297000e+01 -3.014600e+01  9.239998e-01
      vertex   2.291600e+01 -2.058200e+01  8.639984e-01
    endloop
  endfacet
  facet normal  1.400494e-01  9.096889e-03  9.901028e-01
    outer loop
      vertex   1.954400e+01 -2.058200e+01  1.338001e+00
      vertex   2.139600e+01 -2.057800e+01  1.076000e+00
      vertex   2.120000e+01 -1.103000e+01  1.015999e+00
    endloop
  endfacet
  facet normal  1.111882e-01 -8.621512e-03 -9.937620e-01
    outer loop
      vertex   2.230200e+01 -1.103000e+01  5.359993e-01
      vertex   2.287400e+01 -1.103000e+01  5.999985e-01
      vertex   2.243800e+01 -2.057200e+01  6.339989e-01
    endloop
  endfacet
  facet normal  3.560274e-02 -1.056371e-02 -9.993102e-01
    outer loop
      vertex   1.960400e+01 -2.063600e+01  5.260010e-01
      vertex   2.121200e+01 -1.105400e+01  4.819984e-01
      vertex   2.141400e+01 -2.058999e+01  5.900002e-01
    endloop
  endfacet
  facet normal  1.614119e-01  1.276659e-02  9.868045e-01
    outer loop
      vertex   1.954400e+01 -2.058200e+01  1.338001e+00
      vertex   1.845400e+01 -3.014400e+01  1.639999e+00
      vertex   1.966400e+01 -3.013801e+01  1.442001e+00
    endloop
  endfacet
  facet normal  1.577636e-01  1.320092e-02  9.873887e-01
    outer loop
      vertex   1.845400e+01 -3.014400e+01  1.639999e+00
      vertex   1.954400e+01 -2.058200e+01  1.338001e+00
      vertex   1.725400e+01 -3.016400e+01  1.832001e+00
    endloop
  endfacet
  facet normal  1.122900e-01 -8.731025e-03 -9.936371e-01
    outer loop
      vertex   2.243800e+01 -2.057200e+01  6.339989e-01
      vertex   2.291600e+01 -2.057001e+01  6.879997e-01
      vertex   2.297000e+01 -3.011799e+01  7.779999e-01
    endloop
  endfacet
  facet normal  1.135944e-01  7.026081e-03  9.935024e-01
    outer loop
      vertex   2.120000e+01 -1.103000e+01  1.015999e+00
      vertex   2.243800e+01 -2.058200e+01  9.420013e-01
      vertex   2.230200e+01 -1.103000e+01  8.899994e-01
    endloop
  endfacet
  facet normal  3.429801e-02 -1.062228e-02 -9.993552e-01
    outer loop
      vertex   1.857800e+01 -3.015800e+01  5.919991e-01
      vertex   1.960400e+01 -2.063600e+01  5.260010e-01
      vertex   1.974600e+01 -3.015000e+01  6.320000e-01
    endloop
  endfacet
  facet normal  3.302949e-02 -1.048590e-02 -9.993994e-01
    outer loop
      vertex   1.960400e+01 -2.063600e+01  5.260010e-01
      vertex   1.857800e+01 -3.015800e+01  5.919991e-01
      vertex   1.742000e+01 -3.018401e+01  5.540009e-01
    endloop
  endfacet
  facet normal  1.660830e-01  7.382404e-03  9.860842e-01
    outer loop
      vertex   2.243800e+01 -2.058200e+01  9.420013e-01
      vertex   2.278000e+01 -3.014600e+01  9.560013e-01
      vertex   2.297000e+01 -3.014600e+01  9.239998e-01
    endloop
  endfacet
  facet normal  1.780417e-01  7.806973e-03  9.839920e-01
    outer loop
      vertex   2.278000e+01 -3.014600e+01  9.560013e-01
      vertex   2.243800e+01 -2.058200e+01  9.420013e-01
      vertex   2.259200e+01 -3.014400e+01  9.900017e-01
    endloop
  endfacet
  facet normal  1.696767e-02 -1.237048e-02 -9.997795e-01
    outer loop
      vertex   1.761600e+01 -1.708999e+01  4.300003e-01
      vertex   1.755800e+01 -1.700800e+01  4.280014e-01
      vertex   1.741600e+01 -1.122200e+01  3.540001e-01
    endloop
  endfacet
  facet normal  2.680702e-02 -1.203238e-02 -9.995682e-01
    outer loop
      vertex   1.960400e+01 -2.063600e+01  5.260010e-01
      vertex   1.761600e+01 -1.708999e+01  4.300003e-01
      vertex   1.741600e+01 -1.122200e+01  3.540001e-01
    endloop
  endfacet
  facet normal  2.333731e-02 -1.397928e-02 -9.996299e-01
    outer loop
      vertex   1.761000e+01 -1.710001e+01  4.300003e-01
      vertex   1.761600e+01 -1.708999e+01  4.300003e-01
      vertex   1.960400e+01 -2.063600e+01  5.260010e-01
    endloop
  endfacet
  facet normal  1.399918e-02 -9.885840e-03 -9.998531e-01
    outer loop
      vertex   1.758600e+01 -1.713400e+01  4.300003e-01
      vertex   1.761000e+01 -1.710001e+01  4.300003e-01
      vertex   1.764600e+01 -2.069000e+01  4.659996e-01
    endloop
  endfacet
  facet normal -4.807350e-02 -1.092239e-02 -9.987841e-01
    outer loop
      vertex   1.757600e+01 -1.708999e+01  4.300003e-01
      vertex   1.758600e+01 -1.713400e+01  4.300003e-01
      vertex   1.764600e+01 -2.069000e+01  4.659996e-01
    endloop
  endfacet
  facet normal  7.167026e-02 -8.580124e-03 -9.973915e-01
    outer loop
      vertex   1.755800e+01 -1.700800e+01  4.280014e-01
      vertex   1.757600e+01 -1.708999e+01  4.300003e-01
      vertex   1.764600e+01 -2.069000e+01  4.659996e-01
    endloop
  endfacet
  facet normal  3.089601e-02 -9.712615e-03 -9.994754e-01
    outer loop
      vertex   1.960400e+01 -2.063600e+01  5.260010e-01
      vertex   1.764600e+01 -2.069000e+01  4.659996e-01
      vertex   1.761000e+01 -1.710001e+01  4.300003e-01
    endloop
  endfacet
  facet normal  9.864420e-01  2.527611e-02  1.621524e-01
    outer loop
      vertex   1.764600e+01 -2.069000e+01  4.659996e-01
      vertex   1.756200e+01 -1.716800e+01  4.280014e-01
      vertex   1.756000e+01 -1.708999e+01  4.280014e-01
    endloop
  endfacet
  facet normal  9.984117e-01  2.438657e-02  5.078871e-02
    outer loop
      vertex   1.764600e+01 -2.069000e+01  4.659996e-01
      vertex   1.756000e+01 -1.708999e+01  4.280014e-01
      vertex   1.755800e+01 -1.700800e+01  4.280014e-01
    endloop
  endfacet
  facet normal  7.193857e-01  8.771770e-03 -6.945554e-01
    outer loop
      vertex   1.741600e+01 -1.122200e+01  3.540001e-01
      vertex   1.755800e+01 -1.700800e+01  4.280014e-01
      vertex   1.754800e+01 -1.698000e+01  4.179993e-01
    endloop
  endfacet
  facet normal  1.122898e-01 -8.671404e-03 -9.936376e-01
    outer loop
      vertex   2.243800e+01 -2.057200e+01  6.339989e-01
      vertex   2.287400e+01 -1.103000e+01  5.999985e-01
      vertex   2.291600e+01 -2.057001e+01  6.879997e-01
    endloop
  endfacet
  facet normal  3.157916e-02 -1.092093e-02 -9.994416e-01
    outer loop
      vertex   1.741600e+01 -1.122200e+01  3.540001e-01
      vertex   1.947400e+01 -1.112801e+01  4.179993e-01
      vertex   1.960400e+01 -2.063600e+01  5.260010e-01
    endloop
  endfacet
  facet normal  4.140973e-02 -1.000120e-02 -9.990922e-01
    outer loop
      vertex   2.210800e+01 -3.013000e+01  7.159996e-01
      vertex   2.243800e+01 -2.057200e+01  6.339989e-01
      vertex   2.259200e+01 -3.012401e+01  7.360001e-01
    endloop
  endfacet
  facet normal  4.175415e-02 -1.001297e-02 -9.990777e-01
    outer loop
      vertex   2.243800e+01 -2.057200e+01  6.339989e-01
      vertex   2.210800e+01 -3.013000e+01  7.159996e-01
      vertex   2.162800e+01 -3.013600e+01  6.959991e-01
    endloop
  endfacet
  facet normal  3.725733e-02 -1.084108e-02 -9.992468e-01
    outer loop
      vertex   1.947400e+01 -1.112801e+01  4.179993e-01
      vertex   2.121200e+01 -1.105400e+01  4.819984e-01
      vertex   1.960400e+01 -2.063600e+01  5.260010e-01
    endloop
  endfacet
  facet normal  1.151013e-01 -8.569520e-03 -9.933168e-01
    outer loop
      vertex   2.278000e+01 -3.012000e+01  7.560005e-01
      vertex   2.243800e+01 -2.057200e+01  6.339989e-01
      vertex   2.297000e+01 -3.011799e+01  7.779999e-01
    endloop
  endfacet
  facet normal  1.059721e-01 -8.909456e-03 -9.943292e-01
    outer loop
      vertex   2.243800e+01 -2.057200e+01  6.339989e-01
      vertex   2.278000e+01 -3.012000e+01  7.560005e-01
      vertex   2.259200e+01 -3.012401e+01  7.360001e-01
    endloop
  endfacet
  facet normal  1.248399e-01  1.244742e-02  9.920988e-01
    outer loop
      vertex   1.733600e+01 -1.103000e+01  1.495998e+00
      vertex   1.954400e+01 -2.058200e+01  1.338001e+00
      vertex   1.943400e+01 -1.103000e+01  1.231998e+00
    endloop
  endfacet
  facet normal  1.610519e-01  6.700630e-03  9.869232e-01
    outer loop
      vertex   2.243800e+01 -2.058200e+01  9.420013e-01
      vertex   2.291600e+01 -2.058200e+01  8.639984e-01
      vertex   2.287400e+01 -1.103000e+01  8.059998e-01
    endloop
  endfacet
  facet normal  3.559610e-02 -1.029842e-02 -9.993131e-01
    outer loop
      vertex   1.960400e+01 -2.063600e+01  5.260010e-01
      vertex   2.141400e+01 -2.058999e+01  5.900002e-01
      vertex   2.162800e+01 -3.013600e+01  6.959991e-01
    endloop
  endfacet
  facet normal  1.275764e-01  9.055770e-03  9.917874e-01
    outer loop
      vertex   2.139600e+01 -2.057800e+01  1.076000e+00
      vertex   2.160800e+01 -3.013600e+01  1.136002e+00
      vertex   2.243800e+01 -2.058200e+01  9.420013e-01
    endloop
  endfacet
  facet normal  1.452896e-01  7.454812e-03  9.893611e-01
    outer loop
      vertex   2.230200e+01 -1.103000e+01  8.899994e-01
      vertex   2.243800e+01 -2.058200e+01  9.420013e-01
      vertex   2.287400e+01 -1.103000e+01  8.059998e-01
    endloop
  endfacet
  facet normal  0.000000e+00  1.000000e+00 -0.000000e+00
    outer loop
      vertex   1.752800e+01 -2.383801e+01  2.999992e-01
      vertex   1.752600e+01 -2.383801e+01  4.920006e-01
      vertex   1.752800e+01 -2.383801e+01  4.920006e-01
    endloop
  endfacet
  facet normal  4.832994e-01  7.290684e-03  8.754247e-01
    outer loop
      vertex   2.287400e+01 -1.103000e+01  8.059998e-01
      vertex   2.307600e+01 -2.057800e+01  7.739983e-01
      vertex   2.306600e+01 -1.103000e+01  7.000008e-01
    endloop
  endfacet
  facet normal  4.900893e-01  8.235510e-03  8.716334e-01
    outer loop
      vertex   2.291600e+01 -2.058200e+01  8.639984e-01
      vertex   2.297000e+01 -3.014600e+01  9.239998e-01
      vertex   2.307600e+01 -2.057800e+01  7.739983e-01
    endloop
  endfacet
  facet normal  1.400486e-01  9.321824e-03  9.901008e-01
    outer loop
      vertex   1.954400e+01 -2.058200e+01  1.338001e+00
      vertex   2.160800e+01 -3.013600e+01  1.136002e+00
      vertex   2.139600e+01 -2.057800e+01  1.076000e+00
    endloop
  endfacet
  facet normal  4.901072e-01  7.447429e-03  8.716303e-01
    outer loop
      vertex   2.287400e+01 -1.103000e+01  8.059998e-01
      vertex   2.291600e+01 -2.058200e+01  8.639984e-01
      vertex   2.307600e+01 -2.057800e+01  7.739983e-01
    endloop
  endfacet
  facet normal  5.344753e-01  7.488240e-03  8.451509e-01
    outer loop
      vertex   2.307600e+01 -2.057800e+01  7.739983e-01
      vertex   2.303600e+01 -3.013801e+01  8.839989e-01
      vertex   2.309600e+01 -3.013200e+01  8.460007e-01
    endloop
  endfacet
  facet normal  5.176256e-01  7.678659e-03  8.555727e-01
    outer loop
      vertex   2.303600e+01 -3.013801e+01  8.839989e-01
      vertex   2.307600e+01 -2.057800e+01  7.739983e-01
      vertex   2.297000e+01 -3.014600e+01  9.239998e-01
    endloop
  endfacet
  facet normal -6.287783e-02 -1.428596e-02  9.979190e-01
    outer loop
      vertex   1.756200e+01 -1.716800e+01  4.280014e-01
      vertex   1.758600e+01 -1.713400e+01  4.300003e-01
      vertex   1.757600e+01 -1.708999e+01  4.300003e-01
    endloop
  endfacet
  facet normal -1.239759e-01 -3.176692e-03  9.922801e-01
    outer loop
      vertex   1.757600e+01 -1.708999e+01  4.300003e-01
      vertex   1.756000e+01 -1.708999e+01  4.280014e-01
      vertex   1.756200e+01 -1.716800e+01  4.280014e-01
    endloop
  endfacet
  facet normal  4.925826e-01 -5.527326e-03 -8.702481e-01
    outer loop
      vertex   2.303600e+01 -3.012601e+01  8.120003e-01
      vertex   2.307600e+01 -2.057800e+01  7.739983e-01
      vertex   2.309600e+01 -3.013200e+01  8.460007e-01
    endloop
  endfacet
  facet normal  4.574412e-01 -5.455626e-03 -8.892232e-01
    outer loop
      vertex   2.307600e+01 -2.057800e+01  7.739983e-01
      vertex   2.303600e+01 -3.012601e+01  8.120003e-01
      vertex   2.297000e+01 -3.011799e+01  7.779999e-01
    endloop
  endfacet
  facet normal  1.275759e-01  8.851437e-03  9.917893e-01
    outer loop
      vertex   2.120000e+01 -1.103000e+01  1.015999e+00
      vertex   2.139600e+01 -2.057800e+01  1.076000e+00
      vertex   2.243800e+01 -2.058200e+01  9.420013e-01
    endloop
  endfacet
  facet normal  4.712429e-02 -9.586796e-03 -9.988430e-01
    outer loop
      vertex   2.243800e+01 -2.057200e+01  6.339989e-01
      vertex   2.217400e+01 -1.103399e+01  5.299988e-01
      vertex   2.230200e+01 -1.103000e+01  5.359993e-01
    endloop
  endfacet
  facet normal  5.002941e-02 -9.504854e-03 -9.987025e-01
    outer loop
      vertex   2.217400e+01 -1.103399e+01  5.299988e-01
      vertex   2.243800e+01 -2.057200e+01  6.339989e-01
      vertex   2.121200e+01 -1.105400e+01  4.819984e-01
    endloop
  endfacet
  facet normal  4.731942e-01 -6.042926e-03 -8.809373e-01
    outer loop
      vertex   2.287400e+01 -1.103000e+01  5.999985e-01
      vertex   2.307600e+01 -2.057800e+01  7.739983e-01
      vertex   2.291600e+01 -2.057001e+01  6.879997e-01
    endloop
  endfacet
  facet normal -1.239759e-01 -3.028164e-03  9.922805e-01
    outer loop
      vertex   1.757600e+01 -1.708999e+01  4.300003e-01
      vertex   1.755800e+01 -1.700800e+01  4.280014e-01
      vertex   1.756000e+01 -1.708999e+01  4.280014e-01
    endloop
  endfacet
  facet normal  1.433946e-01  1.674506e-02  9.895239e-01
    outer loop
      vertex   1.725400e+01 -3.016400e+01  1.832001e+00
      vertex   1.954400e+01 -2.058200e+01  1.338001e+00
      vertex   1.729600e+01 -2.059600e+01  1.664001e+00
    endloop
  endfacet
  facet normal  4.310804e-02 -1.040140e-02 -9.990163e-01
    outer loop
      vertex   2.121200e+01 -1.105400e+01  4.819984e-01
      vertex   2.243800e+01 -2.057200e+01  6.339989e-01
      vertex   2.141400e+01 -2.058999e+01  5.900002e-01
    endloop
  endfacet
  facet normal  4.310334e-02 -1.012686e-02 -9.990193e-01
    outer loop
      vertex   2.141400e+01 -2.058999e+01  5.900002e-01
      vertex   2.243800e+01 -2.057200e+01  6.339989e-01
      vertex   2.162800e+01 -3.013600e+01  6.959991e-01
    endloop
  endfacet
  facet normal  1.561311e-01  1.284796e-02  9.876528e-01
    outer loop
      vertex   1.954400e+01 -2.058200e+01  1.338001e+00
      vertex   2.063400e+01 -3.013801e+01  1.290001e+00
      vertex   2.160800e+01 -3.013600e+01  1.136002e+00
    endloop
  endfacet
  facet normal  1.548002e-01  1.269509e-02  9.878643e-01
    outer loop
      vertex   2.063400e+01 -3.013801e+01  1.290001e+00
      vertex   1.954400e+01 -2.058200e+01  1.338001e+00
      vertex   1.966400e+01 -3.013801e+01  1.442001e+00
    endloop
  endfacet
  facet normal  4.732115e-01 -5.627372e-03 -8.809309e-01
    outer loop
      vertex   2.291600e+01 -2.057001e+01  6.879997e-01
      vertex   2.307600e+01 -2.057800e+01  7.739983e-01
      vertex   2.297000e+01 -3.011799e+01  7.779999e-01
    endloop
  endfacet
  facet normal  4.619308e-01 -6.389751e-03 -8.868929e-01
    outer loop
      vertex   2.287400e+01 -1.103000e+01  5.999985e-01
      vertex   2.306600e+01 -1.103000e+01  7.000008e-01
      vertex   2.307600e+01 -2.057800e+01  7.739983e-01
    endloop
  endfacet
  facet normal  3.403654e-02 -1.063160e-02 -9.993641e-01
    outer loop
      vertex   2.068600e+01 -3.014400e+01  6.640015e-01
      vertex   1.960400e+01 -2.063600e+01  5.260010e-01
      vertex   2.162800e+01 -3.013600e+01  6.959991e-01
    endloop
  endfacet
  facet normal  3.409021e-02 -1.062546e-02 -9.993622e-01
    outer loop
      vertex   1.960400e+01 -2.063600e+01  5.260010e-01
      vertex   2.068600e+01 -3.014400e+01  6.640015e-01
      vertex   1.974600e+01 -3.015000e+01  6.320000e-01
    endloop
  endfacet
  facet normal  1.487828e-01  7.360098e-03  9.888425e-01
    outer loop
      vertex   2.243800e+01 -2.058200e+01  9.420013e-01
      vertex   2.210000e+01 -3.014001e+01  1.063999e+00
      vertex   2.259200e+01 -3.014400e+01  9.900017e-01
    endloop
  endfacet
  facet normal  1.448606e-01  7.506218e-03  9.894236e-01
    outer loop
      vertex   2.210000e+01 -3.014001e+01  1.063999e+00
      vertex   2.243800e+01 -2.058200e+01  9.420013e-01
      vertex   2.160800e+01 -3.013600e+01  1.136002e+00
    endloop
  endfacet
endsolid vcg
