solid STL generated by MeshLab
  facet normal  9.913891e-01 -5.784174e-03 -1.308210e-01
    outer loop
      vertex  -2.275001e+01  2.469995e+00  1.013200e+01
      vertex  -2.282401e+01  3.177996e+00  9.540001e+00
      vertex  -2.281600e+01  3.101995e+00  9.604004e+00
    endloop
  endfacet
  facet normal -1.019243e-01  9.261151e-01  3.632110e-01
    outer loop
      vertex  -2.504601e+01  3.879995e+00  8.202003e+00
      vertex  -2.504601e+01  4.341993e+00  7.024002e+00
      vertex  -2.818401e+01  4.289995e+00  6.276001e+00
    endloop
  endfacet
  facet normal -1.787644e-01  9.109218e-01  3.718397e-01
    outer loop
      vertex  -2.818401e+01  3.835996e+00  7.414001e+00
      vertex  -3.147000e+01  4.089993e+00  5.212002e+00
      vertex  -3.147000e+01  3.671994e+00  6.236004e+00
    endloop
  endfacet
  facet normal -4.317345e-01  3.260759e-01  8.409994e-01
    outer loop
      vertex  -3.458601e+01  1.175996e+00  6.680004e+00
      vertex  -3.147000e+01  1.205995e+00  8.268002e+00
      vertex  -3.445400e+01  2.139992e+00  6.374004e+00
    endloop
  endfacet
  facet normal -6.266944e-02  9.956031e-01  6.961993e-02
    outer loop
      vertex  -2.818401e+01  4.737997e+00  3.608002e+00
      vertex  -2.818401e+01  4.797994e+00  2.750004e+00
      vertex  -3.147000e+01  4.591992e+00  2.738003e+00
    endloop
  endfacet
  facet normal -1.738266e-01  9.146744e-01  3.649040e-01
    outer loop
      vertex  -2.818401e+01  3.835996e+00  7.414001e+00
      vertex  -2.818401e+01  4.289995e+00  6.276001e+00
      vertex  -3.147000e+01  4.089993e+00  5.212002e+00
    endloop
  endfacet
  facet normal -2.379087e-01  7.935556e-01  5.600615e-01
    outer loop
      vertex  -2.818401e+01  3.149995e+00  8.386002e+00
      vertex  -2.818401e+01  3.835996e+00  7.414001e+00
      vertex  -3.147000e+01  3.039994e+00  7.146004e+00
    endloop
  endfacet
  facet normal -1.286790e-01  9.679997e-01  2.154490e-01
    outer loop
      vertex  -2.818401e+01  4.289995e+00  6.276001e+00
      vertex  -2.818401e+01  4.573995e+00  5.000004e+00
      vertex  -3.147000e+01  4.089993e+00  5.212002e+00
    endloop
  endfacet
  facet normal -7.489502e-02  9.903417e-01  1.166791e-01
    outer loop
      vertex  -2.818401e+01  4.573995e+00  5.000004e+00
      vertex  -2.818401e+01  4.737997e+00  3.608002e+00
      vertex  -3.147000e+01  4.591992e+00  2.738003e+00
    endloop
  endfacet
  facet normal -1.652569e-03  9.991049e-01  4.226814e-02
    outer loop
      vertex  -2.501401e+01  4.777994e+00  3.520004e+00
      vertex  -2.504601e+01  4.775995e+00  3.566002e+00
      vertex  -2.394801e+01  4.767996e+00  3.798004e+00
    endloop
  endfacet
  facet normal -9.251707e-03  9.992728e-01  3.698919e-02
    outer loop
      vertex  -2.504601e+01  4.775995e+00  3.566002e+00
      vertex  -2.501401e+01  4.777994e+00  3.520004e+00
      vertex  -2.504601e+01  4.777994e+00  3.512001e+00
    endloop
  endfacet
  facet normal -2.483334e-02  9.881303e-01  1.515976e-01
    outer loop
      vertex  -2.382001e+01  4.765997e+00  3.832001e+00
      vertex  -2.394801e+01  4.767996e+00  3.798004e+00
      vertex  -2.504601e+01  4.775995e+00  3.566002e+00
    endloop
  endfacet
  facet normal -3.452750e-03  9.985648e-01  5.344595e-02
    outer loop
      vertex  -2.370800e+01  4.761995e+00  3.914001e+00
      vertex  -2.382001e+01  4.765997e+00  3.832001e+00
      vertex  -2.504601e+01  4.775995e+00  3.566002e+00
    endloop
  endfacet
  facet normal -1.146998e-01  6.346177e-01  7.642673e-01
    outer loop
      vertex  -2.504601e+01  2.287996e+00  9.936005e+00
      vertex  -2.281600e+01  2.283995e+00  1.027400e+01
      vertex  -2.504601e+01  3.183996e+00  9.192001e+00
    endloop
  endfacet
  facet normal -1.268504e-01  9.638489e-01  2.343163e-01
    outer loop
      vertex  -3.147000e+01  4.089993e+00  5.212002e+00
      vertex  -2.818401e+01  4.573995e+00  5.000004e+00
      vertex  -3.147000e+01  4.371995e+00  4.052002e+00
    endloop
  endfacet
  facet normal -2.351391e-01  3.712763e-01  8.982558e-01
    outer loop
      vertex  -2.818401e+01  2.269994e+00  9.122002e+00
      vertex  -2.504601e+01  1.237993e+00  1.037000e+01
      vertex  -2.504601e+01  2.287996e+00  9.936005e+00
    endloop
  endfacet
  facet normal -2.506902e-01  1.181772e-01  9.608271e-01
    outer loop
      vertex  -2.818401e+01  1.099981e-01  9.690002e+00
      vertex  -2.504601e+01  1.237993e+00  1.037000e+01
      vertex  -2.818401e+01  1.231996e+00  9.552002e+00
    endloop
  endfacet
  facet normal -3.625918e-01  1.131029e-01  9.250594e-01
    outer loop
      vertex  -3.147000e+01  1.099979e-01  8.402004e+00
      vertex  -2.818401e+01  1.099981e-01  9.690002e+00
      vertex  -3.147000e+01  1.205995e+00  8.268002e+00
    endloop
  endfacet
  facet normal -3.419632e-01  3.590979e-01  8.683950e-01
    outer loop
      vertex  -3.147000e+01  1.205995e+00  8.268002e+00
      vertex  -2.818401e+01  2.269994e+00  9.122002e+00
      vertex  -3.147000e+01  2.211995e+00  7.852001e+00
    endloop
  endfacet
  facet normal -2.384078e-01  7.976630e-01  5.539814e-01
    outer loop
      vertex  -2.818401e+01  3.835996e+00  7.414001e+00
      vertex  -3.147000e+01  3.671994e+00  6.236004e+00
      vertex  -3.147000e+01  3.039994e+00  7.146004e+00
    endloop
  endfacet
  facet normal -1.151536e-02  9.952652e-01  9.651196e-02
    outer loop
      vertex  -2.337801e+01  4.597994e+00  6.028004e+00
      vertex  -2.357401e+01  4.727995e+00  4.664001e+00
      vertex  -2.504601e+01  4.741994e+00  4.344002e+00
    endloop
  endfacet
  facet normal -1.991627e-01  6.260357e-01  7.539321e-01
    outer loop
      vertex  -2.818401e+01  2.269994e+00  9.122002e+00
      vertex  -2.504601e+01  2.287996e+00  9.936005e+00
      vertex  -2.504601e+01  3.183996e+00  9.192001e+00
    endloop
  endfacet
  facet normal -4.230867e-01  3.462490e-01  8.373227e-01
    outer loop
      vertex  -3.445400e+01  2.139992e+00  6.374004e+00
      vertex  -3.147000e+01  1.205995e+00  8.268002e+00
      vertex  -3.147000e+01  2.211995e+00  7.852001e+00
    endloop
  endfacet
  facet normal -3.691721e-01  5.918887e-01  7.165053e-01
    outer loop
      vertex  -3.445400e+01  2.139992e+00  6.374004e+00
      vertex  -3.147000e+01  2.211995e+00  7.852001e+00
      vertex  -3.421201e+01  2.917992e+00  5.856003e+00
    endloop
  endfacet
  facet normal -9.459627e-02  8.092652e-01  5.797770e-01
    outer loop
      vertex  -2.291000e+01  3.183996e+00  9.522003e+00
      vertex  -2.302600e+01  3.883997e+00  8.526001e+00
      vertex  -2.504601e+01  3.879995e+00  8.202003e+00
    endloop
  endfacet
  facet normal -5.808381e-02  9.776378e-01  2.021154e-01
    outer loop
      vertex  -2.504601e+01  4.341993e+00  7.024002e+00
      vertex  -2.504601e+01  4.611993e+00  5.718002e+00
      vertex  -2.818401e+01  4.573995e+00  5.000004e+00
    endloop
  endfacet
  facet normal -2.969172e-01  6.126227e-01  7.324845e-01
    outer loop
      vertex  -3.147000e+01  3.039994e+00  7.146004e+00
      vertex  -2.818401e+01  2.269994e+00  9.122002e+00
      vertex  -2.818401e+01  3.149995e+00  8.386002e+00
    endloop
  endfacet
  facet normal -1.114521e-02  9.975020e-01  6.975272e-02
    outer loop
      vertex  -2.818401e+01  4.737997e+00  3.608002e+00
      vertex  -2.504601e+01  4.775995e+00  3.566002e+00
      vertex  -2.818401e+01  4.797994e+00  2.750004e+00
    endloop
  endfacet
  facet normal -2.922113e-01  6.205019e-01  7.277293e-01
    outer loop
      vertex  -3.147000e+01  2.211995e+00  7.852001e+00
      vertex  -2.818401e+01  2.269994e+00  9.122002e+00
      vertex  -3.147000e+01  3.039994e+00  7.146004e+00
    endloop
  endfacet
  facet normal -4.522209e-01  1.082433e-01  8.853133e-01
    outer loop
      vertex  -3.458601e+01  1.175996e+00  6.680004e+00
      vertex  -3.147000e+01  1.099979e-01  8.402004e+00
      vertex  -3.147000e+01  1.205995e+00  8.268002e+00
    endloop
  endfacet
  facet normal -3.623684e-01  1.137785e-01  9.250641e-01
    outer loop
      vertex  -3.147000e+01  1.205995e+00  8.268002e+00
      vertex  -2.818401e+01  1.099981e-01  9.690002e+00
      vertex  -2.818401e+01  1.231996e+00  9.552002e+00
    endloop
  endfacet
  facet normal -3.420679e-01  3.596320e-01  8.681327e-01
    outer loop
      vertex  -3.147000e+01  1.205995e+00  8.268002e+00
      vertex  -2.818401e+01  1.231996e+00  9.552002e+00
      vertex  -2.818401e+01  2.269994e+00  9.122002e+00
    endloop
  endfacet
  facet normal -5.790777e-02  9.305259e-01  3.616188e-01
    outer loop
      vertex  -2.302600e+01  3.883997e+00  8.526001e+00
      vertex  -2.319400e+01  4.335997e+00  7.336002e+00
      vertex  -2.504601e+01  4.341993e+00  7.024002e+00
    endloop
  endfacet
  facet normal -4.349806e-01  3.259985e-01  8.393550e-01
    outer loop
      vertex  -3.457600e+01  2.141995e+00  6.310001e+00
      vertex  -3.458601e+01  1.175996e+00  6.680004e+00
      vertex  -3.445400e+01  2.139992e+00  6.374004e+00
    endloop
  endfacet
  facet normal -3.617160e-01  3.367299e-01  8.693530e-01
    outer loop
      vertex  -3.457600e+01  2.141995e+00  6.310001e+00
      vertex  -3.460201e+01  1.953996e+00  6.372002e+00
      vertex  -3.458601e+01  1.175996e+00  6.680004e+00
    endloop
  endfacet
  facet normal -4.308873e-01  3.244962e-01  8.420441e-01
    outer loop
      vertex  -3.467800e+01  1.385995e+00  6.552002e+00
      vertex  -3.458601e+01  1.175996e+00  6.680004e+00
      vertex  -3.460201e+01  1.953996e+00  6.372002e+00
    endloop
  endfacet
  facet normal -2.899571e-02  9.793177e-01  2.002402e-01
    outer loop
      vertex  -2.319400e+01  4.335997e+00  7.336002e+00
      vertex  -2.337801e+01  4.597994e+00  6.028004e+00
      vertex  -2.504601e+01  4.611993e+00  5.718002e+00
    endloop
  endfacet
  facet normal -1.186561e-01  6.293321e-01  7.680246e-01
    outer loop
      vertex  -2.504601e+01  3.183996e+00  9.192001e+00
      vertex  -2.281600e+01  2.283995e+00  1.027400e+01
      vertex  -2.291000e+01  3.183996e+00  9.522003e+00
    endloop
  endfacet
  facet normal -2.348070e-01  3.720193e-01  8.980353e-01
    outer loop
      vertex  -2.818401e+01  1.231996e+00  9.552002e+00
      vertex  -2.504601e+01  1.237993e+00  1.037000e+01
      vertex  -2.818401e+01  2.269994e+00  9.122002e+00
    endloop
  endfacet
  facet normal -1.089477e-01  6.376721e-01  7.625646e-01
    outer loop
      vertex  -2.291000e+01  3.183996e+00  9.522003e+00
      vertex  -2.281600e+01  3.101995e+00  9.604004e+00
      vertex  -2.282600e+01  3.183996e+00  9.534004e+00
    endloop
  endfacet
  facet normal -4.537432e-01  1.034593e-01  8.851064e-01
    outer loop
      vertex  -3.463400e+01  1.099976e-01  6.780003e+00
      vertex  -3.147000e+01  1.099979e-01  8.402004e+00
      vertex  -3.458601e+01  1.175996e+00  6.680004e+00
    endloop
  endfacet
  facet normal -9.446518e-02  9.833482e-01  1.552502e-01
    outer loop
      vertex  -3.216601e+01  4.667993e+00  1.698002e+00
      vertex  -3.224600e+01  4.653993e+00  1.738003e+00
      vertex  -3.175401e+01  4.693994e+00  1.784004e+00
    endloop
  endfacet
  facet normal -9.254291e-02  9.869831e-01  1.315303e-01
    outer loop
      vertex  -3.157201e+01  4.705995e+00  1.822002e+00
      vertex  -3.175401e+01  4.693994e+00  1.784004e+00
      vertex  -3.224600e+01  4.653993e+00  1.738003e+00
    endloop
  endfacet
  facet normal -9.335696e-02  9.859216e-01  1.387192e-01
    outer loop
      vertex  -3.147000e+01  4.711995e+00  1.848003e+00
      vertex  -3.157201e+01  4.705995e+00  1.822002e+00
      vertex  -3.224600e+01  4.653993e+00  1.738003e+00
    endloop
  endfacet
  facet normal -9.428851e-02  9.847983e-01  1.458832e-01
    outer loop
      vertex  -3.147000e+01  4.703996e+00  1.902004e+00
      vertex  -3.147000e+01  4.711995e+00  1.848003e+00
      vertex  -3.224600e+01  4.653993e+00  1.738003e+00
    endloop
  endfacet
  facet normal -3.608023e-01  6.051174e-01  7.096863e-01
    outer loop
      vertex  -3.421201e+01  2.917992e+00  5.856003e+00
      vertex  -3.147000e+01  2.211995e+00  7.852001e+00
      vertex  -3.147000e+01  3.039994e+00  7.146004e+00
    endloop
  endfacet
  facet normal -1.076390e-01  9.805420e-01  1.641681e-01
    outer loop
      vertex  -2.818401e+01  4.573995e+00  5.000004e+00
      vertex  -3.147000e+01  4.591992e+00  2.738003e+00
      vertex  -3.147000e+01  4.371995e+00  4.052002e+00
    endloop
  endfacet
  facet normal -3.358863e-02  9.949921e-01  9.414118e-02
    outer loop
      vertex  -2.504601e+01  4.611993e+00  5.718002e+00
      vertex  -2.504601e+01  4.741994e+00  4.344002e+00
      vertex  -2.818401e+01  4.573995e+00  5.000004e+00
    endloop
  endfacet
  facet normal -8.850545e-02  8.148550e-01  5.728683e-01
    outer loop
      vertex  -2.291000e+01  3.183996e+00  9.522003e+00
      vertex  -2.504601e+01  3.879995e+00  8.202003e+00
      vertex  -2.504601e+01  3.183996e+00  9.192001e+00
    endloop
  endfacet
  facet normal -3.092176e-02  9.788228e-01  2.023604e-01
    outer loop
      vertex  -2.319400e+01  4.335997e+00  7.336002e+00
      vertex  -2.504601e+01  4.611993e+00  5.718002e+00
      vertex  -2.504601e+01  4.341993e+00  7.024002e+00
    endloop
  endfacet
  facet normal -2.928216e-01  7.833166e-01  5.483345e-01
    outer loop
      vertex  -3.147000e+01  3.039994e+00  7.146004e+00
      vertex  -3.390601e+01  3.513993e+00  5.168003e+00
      vertex  -3.421201e+01  2.917992e+00  5.856003e+00
    endloop
  endfacet
  facet normal -6.249820e-02  9.892067e-01  1.325295e-01
    outer loop
      vertex  -2.818401e+01  4.797994e+00  2.750004e+00
      vertex  -3.147000e+01  4.703996e+00  1.902004e+00
      vertex  -3.147000e+01  4.591992e+00  2.738003e+00
    endloop
  endfacet
  facet normal -1.540330e-01  8.083023e-01  5.682616e-01
    outer loop
      vertex  -2.504601e+01  3.183996e+00  9.192001e+00
      vertex  -2.504601e+01  3.879995e+00  8.202003e+00
      vertex  -2.818401e+01  3.835996e+00  7.414001e+00
    endloop
  endfacet
  facet normal -1.054812e-01  9.236329e-01  3.684779e-01
    outer loop
      vertex  -2.504601e+01  3.879995e+00  8.202003e+00
      vertex  -2.818401e+01  4.289995e+00  6.276001e+00
      vertex  -2.818401e+01  3.835996e+00  7.414001e+00
    endloop
  endfacet
  facet normal -1.212865e-01  6.289167e-01  7.679540e-01
    outer loop
      vertex  -2.291000e+01  3.183996e+00  9.522003e+00
      vertex  -2.275001e+01  2.469995e+00  1.013200e+01
      vertex  -2.281600e+01  3.101995e+00  9.604004e+00
    endloop
  endfacet
  facet normal -1.278629e-01  6.275127e-01  7.680357e-01
    outer loop
      vertex  -2.291000e+01  3.183996e+00  9.522003e+00
      vertex  -2.272800e+01  2.285994e+00  1.028600e+01
      vertex  -2.275001e+01  2.469995e+00  1.013200e+01
    endloop
  endfacet
  facet normal -1.190350e-01  6.292795e-01  7.680091e-01
    outer loop
      vertex  -2.272800e+01  2.285994e+00  1.028600e+01
      vertex  -2.291000e+01  3.183996e+00  9.522003e+00
      vertex  -2.281600e+01  2.283995e+00  1.027400e+01
    endloop
  endfacet
  facet normal -1.498524e-01  1.259249e-01  9.806565e-01
    outer loop
      vertex  -2.504601e+01  1.237993e+00  1.037000e+01
      vertex  -2.274800e+01  1.099986e-01  1.086600e+01
      vertex  -2.277200e+01  1.233995e+00  1.071800e+01
    endloop
  endfacet
  facet normal  1.000049e-05  9.990465e-01  4.366064e-02
    outer loop
      vertex  -2.357401e+01  4.727995e+00  4.664001e+00
      vertex  -2.504601e+01  4.775995e+00  3.566002e+00
      vertex  -2.504601e+01  4.741994e+00  4.344002e+00
    endloop
  endfacet
  facet normal -2.156531e-01  9.040504e-01  3.690348e-01
    outer loop
      vertex  -3.147000e+01  3.671994e+00  6.236004e+00
      vertex  -3.147000e+01  4.089993e+00  5.212002e+00
      vertex  -3.355200e+01  3.923993e+00  4.402004e+00
    endloop
  endfacet
  facet normal -2.237949e-01  8.985506e-01  3.775219e-01
    outer loop
      vertex  -3.147000e+01  3.671994e+00  6.236004e+00
      vertex  -3.355200e+01  3.923993e+00  4.402004e+00
      vertex  -3.390601e+01  3.513993e+00  5.168003e+00
    endloop
  endfacet
  facet normal -1.391136e-03  9.989617e-01  4.553534e-02
    outer loop
      vertex  -2.357401e+01  4.727995e+00  4.664001e+00
      vertex  -2.370800e+01  4.761995e+00  3.914001e+00
      vertex  -2.504601e+01  4.775995e+00  3.566002e+00
    endloop
  endfacet
  facet normal -1.550591e-01  8.071325e-01  5.696436e-01
    outer loop
      vertex  -2.504601e+01  3.183996e+00  9.192001e+00
      vertex  -2.818401e+01  3.835996e+00  7.414001e+00
      vertex  -2.818401e+01  3.149995e+00  8.386002e+00
    endloop
  endfacet
  facet normal -6.029645e-02  9.292696e-01  3.644482e-01
    outer loop
      vertex  -2.302600e+01  3.883997e+00  8.526001e+00
      vertex  -2.504601e+01  4.341993e+00  7.024002e+00
      vertex  -2.504601e+01  3.879995e+00  8.202003e+00
    endloop
  endfacet
  facet normal -1.345420e-02  9.987764e-01  4.759151e-02
    outer loop
      vertex  -2.354401e+01  4.737997e+00  4.464001e+00
      vertex  -2.363000e+01  4.759996e+00  3.978001e+00
      vertex  -2.370800e+01  4.761995e+00  3.914001e+00
    endloop
  endfacet
  facet normal -3.710929e-02  9.978184e-01  5.460298e-02
    outer loop
      vertex  -2.351200e+01  4.729994e+00  4.632004e+00
      vertex  -2.354401e+01  4.737997e+00  4.464001e+00
      vertex  -2.370800e+01  4.761995e+00  3.914001e+00
    endloop
  endfacet
  facet normal -8.087709e-03  9.988749e-01  4.672781e-02
    outer loop
      vertex  -2.357401e+01  4.727995e+00  4.664001e+00
      vertex  -2.351200e+01  4.729994e+00  4.632004e+00
      vertex  -2.370800e+01  4.761995e+00  3.914001e+00
    endloop
  endfacet
  facet normal -1.008703e-02  9.990299e-01  4.286327e-02
    outer loop
      vertex  -2.351200e+01  4.729994e+00  4.632004e+00
      vertex  -2.357401e+01  4.727995e+00  4.664001e+00
      vertex  -2.350600e+01  4.727995e+00  4.680004e+00
    endloop
  endfacet
  facet normal -1.392954e-01  9.717268e-01  1.906408e-01
    outer loop
      vertex  -3.314400e+01  4.285993e+00  3.224003e+00
      vertex  -3.326200e+01  4.221993e+00  3.464001e+00
      vertex  -3.313200e+01  4.231996e+00  3.508003e+00
    endloop
  endfacet
  facet normal -8.632664e-02  8.097165e-01  5.804368e-01
    outer loop
      vertex  -2.285400e+01  3.325994e+00  9.330002e+00
      vertex  -2.293800e+01  3.825994e+00  8.620003e+00
      vertex  -2.302600e+01  3.883997e+00  8.526001e+00
    endloop
  endfacet
  facet normal -7.102329e-02  8.122729e-01  5.789373e-01
    outer loop
      vertex  -2.282800e+01  3.189997e+00  9.524002e+00
      vertex  -2.285400e+01  3.325994e+00  9.330002e+00
      vertex  -2.302600e+01  3.883997e+00  8.526001e+00
    endloop
  endfacet
  facet normal -7.485862e-02  8.484452e-01  5.239627e-01
    outer loop
      vertex  -2.282600e+01  3.183996e+00  9.534004e+00
      vertex  -2.282800e+01  3.189997e+00  9.524002e+00
      vertex  -2.291000e+01  3.183996e+00  9.522003e+00
    endloop
  endfacet
  facet normal -7.352921e-02  8.118868e-01  5.791659e-01
    outer loop
      vertex  -2.302600e+01  3.883997e+00  8.526001e+00
      vertex  -2.291000e+01  3.183996e+00  9.522003e+00
      vertex  -2.282800e+01  3.189997e+00  9.524002e+00
    endloop
  endfacet
  facet normal -6.780510e-02  9.738684e-01  2.167552e-01
    outer loop
      vertex  -2.504601e+01  4.341993e+00  7.024002e+00
      vertex  -2.818401e+01  4.573995e+00  5.000004e+00
      vertex  -2.818401e+01  4.289995e+00  6.276001e+00
    endloop
  endfacet
  facet normal -2.902987e-01  7.859761e-01  5.458648e-01
    outer loop
      vertex  -3.147000e+01  3.039994e+00  7.146004e+00
      vertex  -3.147000e+01  3.671994e+00  6.236004e+00
      vertex  -3.390601e+01  3.513993e+00  5.168003e+00
    endloop
  endfacet
  facet normal -1.095878e-01  9.831963e-01  1.459987e-01
    outer loop
      vertex  -3.147000e+01  4.591992e+00  2.738003e+00
      vertex  -3.224600e+01  4.653993e+00  1.738003e+00
      vertex  -3.260800e+01  4.509995e+00  2.436001e+00
    endloop
  endfacet
  facet normal -5.087646e-02  9.879242e-01  1.463462e-01
    outer loop
      vertex  -3.147000e+01  4.711995e+00  1.848003e+00
      vertex  -3.147000e+01  4.703996e+00  1.902004e+00
      vertex  -3.116801e+01  4.715993e+00  1.926003e+00
    endloop
  endfacet
  facet normal -1.723174e-01  9.534349e-01  2.475247e-01
    outer loop
      vertex  -3.147000e+01  4.089993e+00  5.212002e+00
      vertex  -3.313200e+01  4.231996e+00  3.508003e+00
      vertex  -3.355200e+01  3.923993e+00  4.402004e+00
    endloop
  endfacet
  facet normal -4.149970e-01  3.340407e-01  8.462826e-01
    outer loop
      vertex  -3.470600e+01  1.183995e+00  6.618004e+00
      vertex  -3.458601e+01  1.175996e+00  6.680004e+00
      vertex  -3.467800e+01  1.385995e+00  6.552002e+00
    endloop
  endfacet
  facet normal -3.969163e-01  4.101640e-01  8.211107e-01
    outer loop
      vertex  -3.470600e+01  1.179994e+00  6.620003e+00
      vertex  -3.458601e+01  1.175996e+00  6.680004e+00
      vertex  -3.470600e+01  1.183995e+00  6.618004e+00
    endloop
  endfacet
  facet normal -1.151237e-02  9.989802e-01  4.365775e-02
    outer loop
      vertex  -2.504601e+01  4.741994e+00  4.344002e+00
      vertex  -2.504601e+01  4.775995e+00  3.566002e+00
      vertex  -2.818401e+01  4.737997e+00  3.608002e+00
    endloop
  endfacet
  facet normal -2.515419e-01  1.208839e-01  9.602675e-01
    outer loop
      vertex  -2.818401e+01  1.099981e-01  9.690002e+00
      vertex  -2.504601e+01  1.099984e-01  1.051200e+01
      vertex  -2.504601e+01  1.237993e+00  1.037000e+01
    endloop
  endfacet
  facet normal -1.612864e-01  9.520192e-01  2.600888e-01
    outer loop
      vertex  -3.334200e+01  4.161996e+00  3.634003e+00
      vertex  -3.313200e+01  4.231996e+00  3.508003e+00
      vertex  -3.326200e+01  4.221993e+00  3.464001e+00
    endloop
  endfacet
  facet normal -1.699015e-01  9.540421e-01  2.468542e-01
    outer loop
      vertex  -3.313200e+01  4.231996e+00  3.508003e+00
      vertex  -3.334200e+01  4.161996e+00  3.634003e+00
      vertex  -3.358601e+01  3.983994e+00  4.154003e+00
    endloop
  endfacet
  facet normal -1.612408e-01  9.539594e-01  2.529091e-01
    outer loop
      vertex  -3.313200e+01  4.231996e+00  3.508003e+00
      vertex  -3.358601e+01  3.983994e+00  4.154003e+00
      vertex  -3.355200e+01  3.923993e+00  4.402004e+00
    endloop
  endfacet
  facet normal -1.998608e-01  6.286110e-01  7.516009e-01
    outer loop
      vertex  -2.818401e+01  2.269994e+00  9.122002e+00
      vertex  -2.504601e+01  3.183996e+00  9.192001e+00
      vertex  -2.818401e+01  3.149995e+00  8.386002e+00
    endloop
  endfacet
  facet normal -9.150192e-03  9.955121e-01  9.419038e-02
    outer loop
      vertex  -2.337801e+01  4.597994e+00  6.028004e+00
      vertex  -2.504601e+01  4.741994e+00  4.344002e+00
      vertex  -2.504601e+01  4.611993e+00  5.718002e+00
    endloop
  endfacet
  facet normal -2.876042e-01  7.843861e-01  5.495655e-01
    outer loop
      vertex  -3.403001e+01  3.505994e+00  5.112003e+00
      vertex  -3.426801e+01  3.045995e+00  5.644001e+00
      vertex  -3.421201e+01  2.917992e+00  5.856003e+00
    endloop
  endfacet
  facet normal -2.972034e-01  7.831367e-01  5.462299e-01
    outer loop
      vertex  -3.403001e+01  3.505994e+00  5.112003e+00
      vertex  -3.421201e+01  2.917992e+00  5.856003e+00
      vertex  -3.390601e+01  3.513993e+00  5.168003e+00
    endloop
  endfacet
  facet normal -2.869691e-02  9.927220e-01  1.169595e-01
    outer loop
      vertex  -2.818401e+01  4.573995e+00  5.000004e+00
      vertex  -2.504601e+01  4.741994e+00  4.344002e+00
      vertex  -2.818401e+01  4.737997e+00  3.608002e+00
    endloop
  endfacet
  facet normal -8.715420e-02  8.092699e-01  5.809358e-01
    outer loop
      vertex  -2.293800e+01  3.825994e+00  8.620003e+00
      vertex  -2.294601e+01  3.883997e+00  8.538002e+00
      vertex  -2.302600e+01  3.883997e+00  8.526001e+00
    endloop
  endfacet
  facet normal -2.921737e-01  7.826036e-01  5.496963e-01
    outer loop
      vertex  -3.426801e+01  3.045995e+00  5.644001e+00
      vertex  -3.433401e+01  2.915993e+00  5.794003e+00
      vertex  -3.421201e+01  2.917992e+00  5.856003e+00
    endloop
  endfacet
  facet normal -1.378954e-01  3.808406e-01  9.143004e-01
    outer loop
      vertex  -2.504601e+01  2.287996e+00  9.936005e+00
      vertex  -2.277200e+01  1.233995e+00  1.071800e+01
      vertex  -2.281600e+01  2.283995e+00  1.027400e+01
    endloop
  endfacet
  facet normal -1.418313e-01  9.728366e-01  1.829553e-01
    outer loop
      vertex  -3.147000e+01  4.371995e+00  4.052002e+00
      vertex  -3.260800e+01  4.509995e+00  2.436001e+00
      vertex  -3.313200e+01  4.231996e+00  3.508003e+00
    endloop
  endfacet
  facet normal -1.691610e-01  9.523984e-01  2.536174e-01
    outer loop
      vertex  -3.358601e+01  3.983994e+00  4.154003e+00
      vertex  -3.367800e+01  3.915994e+00  4.348003e+00
      vertex  -3.355200e+01  3.923993e+00  4.402004e+00
    endloop
  endfacet
  facet normal -2.359581e-01  8.938787e-01  3.811884e-01
    outer loop
      vertex  -3.395400e+01  3.595994e+00  4.946003e+00
      vertex  -3.403001e+01  3.505994e+00  5.110004e+00
      vertex  -3.390601e+01  3.513993e+00  5.168003e+00
    endloop
  endfacet
  facet normal -3.664427e-01  5.919422e-01  7.178608e-01
    outer loop
      vertex  -3.433601e+01  2.913995e+00  5.796001e+00
      vertex  -3.445400e+01  2.139992e+00  6.374004e+00
      vertex  -3.421201e+01  2.917992e+00  5.856003e+00
    endloop
  endfacet
  facet normal -3.717851e-01  5.911750e-01  7.157429e-01
    outer loop
      vertex  -3.445400e+01  2.139992e+00  6.374004e+00
      vertex  -3.433601e+01  2.913995e+00  5.796001e+00
      vertex  -3.438200e+01  2.763993e+00  5.896004e+00
    endloop
  endfacet
  facet normal -3.689469e-01  5.916631e-01  7.168075e-01
    outer loop
      vertex  -3.438200e+01  2.763993e+00  5.896004e+00
      vertex  -3.452400e+01  2.311993e+00  6.196003e+00
      vertex  -3.445400e+01  2.139992e+00  6.374004e+00
    endloop
  endfacet
  facet normal -1.137296e-01  9.810137e-01  1.570911e-01
    outer loop
      vertex  -3.266000e+01  4.535993e+00  2.236004e+00
      vertex  -3.274400e+01  4.499993e+00  2.400002e+00
      vertex  -3.260800e+01  4.509995e+00  2.436001e+00
    endloop
  endfacet
  facet normal -1.571924e-01  9.596183e-01  2.332878e-01
    outer loop
      vertex  -3.147000e+01  4.089993e+00  5.212002e+00
      vertex  -3.147000e+01  4.371995e+00  4.052002e+00
      vertex  -3.313200e+01  4.231996e+00  3.508003e+00
    endloop
  endfacet
  facet normal -9.154407e-02  9.869825e-01  1.322315e-01
    outer loop
      vertex  -3.147000e+01  4.591992e+00  2.738003e+00
      vertex  -3.147000e+01  4.703996e+00  1.902004e+00
      vertex  -3.224600e+01  4.653993e+00  1.738003e+00
    endloop
  endfacet
  facet normal -3.082796e-02  9.790071e-01  2.014815e-01
    outer loop
      vertex  -2.316200e+01  4.391996e+00  7.062004e+00
      vertex  -2.329601e+01  4.579996e+00  6.128002e+00
      vertex  -2.337801e+01  4.597994e+00  6.028004e+00
    endloop
  endfacet
  facet normal  1.049508e-02  9.810907e-01  1.932642e-01
    outer loop
      vertex  -2.312000e+01  4.335997e+00  7.344002e+00
      vertex  -2.316200e+01  4.391996e+00  7.062004e+00
      vertex  -2.337801e+01  4.597994e+00  6.028004e+00
    endloop
  endfacet
  facet normal -2.154185e-02  9.797079e-01  1.992698e-01
    outer loop
      vertex  -2.312000e+01  4.335997e+00  7.344002e+00
      vertex  -2.337801e+01  4.597994e+00  6.028004e+00
      vertex  -2.319400e+01  4.335997e+00  7.336002e+00
    endloop
  endfacet
  facet normal -3.589361e-01  5.966869e-01  7.177253e-01
    outer loop
      vertex  -3.457600e+01  2.145993e+00  6.308002e+00
      vertex  -3.445400e+01  2.139992e+00  6.374004e+00
      vertex  -3.452400e+01  2.311993e+00  6.196003e+00
    endloop
  endfacet
  facet normal -4.420748e-01  1.034857e-01  8.909885e-01
    outer loop
      vertex  -3.470600e+01  1.179994e+00  6.620003e+00
      vertex  -3.463400e+01  1.099976e-01  6.780003e+00
      vertex  -3.458601e+01  1.175996e+00  6.680004e+00
    endloop
  endfacet
  facet normal -4.831495e-01  9.759552e-02  8.700814e-01
    outer loop
      vertex  -3.471600e+01  9.699906e-01  6.638004e+00
      vertex  -3.463400e+01  1.099976e-01  6.780003e+00
      vertex  -3.470600e+01  1.179994e+00  6.620003e+00
    endloop
  endfacet
  facet normal -4.525950e-01  1.030938e-01  8.857367e-01
    outer loop
      vertex  -3.474600e+01  3.399933e-01  6.696003e+00
      vertex  -3.463400e+01  1.099976e-01  6.780003e+00
      vertex  -3.471600e+01  9.699906e-01  6.638004e+00
    endloop
  endfacet
  facet normal -8.943258e-02  9.818071e-01  1.675014e-01
    outer loop
      vertex  -3.227801e+01  4.661996e+00  1.674004e+00
      vertex  -3.239001e+01  4.645993e+00  1.708004e+00
      vertex  -3.224600e+01  4.653993e+00  1.738003e+00
    endloop
  endfacet
  facet normal -9.813814e-02  9.852150e-01  1.404287e-01
    outer loop
      vertex  -3.239001e+01  4.645993e+00  1.708004e+00
      vertex  -3.227801e+01  4.661996e+00  1.674004e+00
      vertex  -3.236401e+01  4.655995e+00  1.656002e+00
    endloop
  endfacet
  facet normal -4.503641e-02  9.316250e-01  3.606195e-01
    outer loop
      vertex  -2.298601e+01  3.975996e+00  8.292004e+00
      vertex  -2.310600e+01  4.299994e+00  7.440002e+00
      vertex  -2.319400e+01  4.335997e+00  7.336002e+00
    endloop
  endfacet
  facet normal  4.415315e-02  9.380631e-01  3.436396e-01
    outer loop
      vertex  -2.294601e+01  3.883997e+00  8.538002e+00
      vertex  -2.298601e+01  3.975996e+00  8.292004e+00
      vertex  -2.319400e+01  4.335997e+00  7.336002e+00
    endloop
  endfacet
  facet normal -5.419400e-02  9.308982e-01  3.612359e-01
    outer loop
      vertex  -2.294601e+01  3.883997e+00  8.538002e+00
      vertex  -2.319400e+01  4.335997e+00  7.336002e+00
      vertex  -2.302600e+01  3.883997e+00  8.526001e+00
    endloop
  endfacet
  facet normal -1.378364e-01  3.811668e-01  9.141734e-01
    outer loop
      vertex  -2.277200e+01  1.233995e+00  1.071800e+01
      vertex  -2.269200e+01  1.449995e+00  1.064000e+01
      vertex  -2.272800e+01  2.285994e+00  1.028600e+01
    endloop
  endfacet
  facet normal -1.298700e-01  3.789668e-01  9.162521e-01
    outer loop
      vertex  -2.277200e+01  1.233995e+00  1.071800e+01
      vertex  -2.268600e+01  1.335997e+00  1.068800e+01
      vertex  -2.269200e+01  1.449995e+00  1.064000e+01
    endloop
  endfacet
  facet normal -1.334196e-01  3.812387e-01  9.147984e-01
    outer loop
      vertex  -2.277200e+01  1.233995e+00  1.071800e+01
      vertex  -2.272800e+01  2.285994e+00  1.028600e+01
      vertex  -2.281600e+01  2.283995e+00  1.027400e+01
    endloop
  endfacet
  facet normal -1.510860e-01  1.234661e-01  9.807799e-01
    outer loop
      vertex  -2.504601e+01  1.099984e-01  1.051200e+01
      vertex  -2.274800e+01  1.099986e-01  1.086600e+01
      vertex  -2.504601e+01  1.237993e+00  1.037000e+01
    endloop
  endfacet
  facet normal -1.168564e-02  9.988987e-01  4.544004e-02
    outer loop
      vertex  -2.363000e+01  4.759996e+00  3.978001e+00
      vertex  -2.363800e+01  4.761995e+00  3.932003e+00
      vertex  -2.370800e+01  4.761995e+00  3.914001e+00
    endloop
  endfacet
  facet normal -1.437563e-01  1.197986e-01  9.823352e-01
    outer loop
      vertex  -2.274800e+01  1.099986e-01  1.086600e+01
      vertex  -2.265401e+01  1.079921e-01  1.088000e+01
      vertex  -2.265800e+01  2.179927e-01  1.086600e+01
    endloop
  endfacet
  facet normal -2.506759e-02 -9.993715e-01  2.506759e-02
    outer loop
      vertex  -2.265401e+01  1.079921e-01  1.088000e+01
      vertex  -2.274800e+01  1.099986e-01  1.086600e+01
      vertex  -2.265601e+01  1.079921e-01  1.087800e+01
    endloop
  endfacet
  facet normal -9.459289e-02 -8.009629e-01  5.911943e-01
    outer loop
      vertex  -2.265601e+01  1.079921e-01  1.087800e+01
      vertex  -2.274800e+01  1.099986e-01  1.086600e+01
      vertex  -2.270600e+01  1.079921e-01  1.087000e+01
    endloop
  endfacet
  facet normal -2.212097e-02  9.953265e-01  9.399963e-02
    outer loop
      vertex  -2.349200e+01  4.719995e+00  4.768002e+00
      vertex  -2.350600e+01  4.727995e+00  4.680004e+00
      vertex  -2.357401e+01  4.727995e+00  4.664001e+00
    endloop
  endfacet
  facet normal -4.618047e-01  9.711611e-02  8.816490e-01
    outer loop
      vertex  -3.463400e+01  1.099976e-01  6.780003e+00
      vertex  -3.474600e+01  3.399933e-01  6.696003e+00
      vertex  -3.471800e+01  1.099976e-01  6.736004e+00
    endloop
  endfacet
  facet normal -4.368020e-01  1.022605e-01  8.937265e-01
    outer loop
      vertex  -3.475201e+01  1.919907e-01  6.710003e+00
      vertex  -3.471800e+01  1.099976e-01  6.736004e+00
      vertex  -3.474600e+01  3.399933e-01  6.696003e+00
    endloop
  endfacet
  facet normal -4.255754e-01  1.084006e-01  8.984069e-01
    outer loop
      vertex  -3.475600e+01  1.099976e-01  6.718002e+00
      vertex  -3.471800e+01  1.099976e-01  6.736004e+00
      vertex  -3.475201e+01  1.919907e-01  6.710003e+00
    endloop
  endfacet
  facet normal -4.280981e-01  0.000000e+00  9.037323e-01
    outer loop
      vertex  -3.475600e+01  1.079910e-01  6.718002e+00
      vertex  -3.471800e+01  1.099976e-01  6.736004e+00
      vertex  -3.475600e+01  1.099976e-01  6.718002e+00
    endloop
  endfacet
  facet normal -1.141350e-01  9.798272e-01  1.640484e-01
    outer loop
      vertex  -3.147000e+01  4.371995e+00  4.052002e+00
      vertex  -3.147000e+01  4.591992e+00  2.738003e+00
      vertex  -3.260800e+01  4.509995e+00  2.436001e+00
    endloop
  endfacet
  facet normal -4.283706e-03  9.972565e-01  7.389954e-02
    outer loop
      vertex  -2.818401e+01  4.801996e+00  2.696003e+00
      vertex  -2.818401e+01  4.797994e+00  2.750004e+00
      vertex  -2.790800e+01  4.797994e+00  2.766003e+00
    endloop
  endfacet
  facet normal  0.000000e+00  9.841867e-01  1.771341e-01
    outer loop
      vertex  -2.329601e+01  4.579996e+00  6.128002e+00
      vertex  -2.331001e+01  4.597994e+00  6.028004e+00
      vertex  -2.337801e+01  4.597994e+00  6.028004e+00
    endloop
  endfacet
  facet normal -1.290550e-03  9.987232e-01  5.050027e-02
    outer loop
      vertex  -2.370800e+01  4.761995e+00  3.914001e+00
      vertex  -2.364800e+01  4.763994e+00  3.876003e+00
      vertex  -2.382001e+01  4.765997e+00  3.832001e+00
    endloop
  endfacet
  facet normal -9.614267e-03  9.992546e-01  3.738542e-02
    outer loop
      vertex  -2.364800e+01  4.763994e+00  3.876003e+00
      vertex  -2.370800e+01  4.761995e+00  3.914001e+00
      vertex  -2.363800e+01  4.761995e+00  3.932003e+00
    endloop
  endfacet
  facet normal -8.835862e-02  9.819919e-01  1.669874e-01
    outer loop
      vertex  -3.224600e+01  4.653993e+00  1.738003e+00
      vertex  -3.216601e+01  4.667993e+00  1.698002e+00
      vertex  -3.227801e+01  4.661996e+00  1.674004e+00
    endloop
  endfacet
  facet normal -4.422832e-02  9.973376e-01  5.797982e-02
    outer loop
      vertex  -2.898801e+01  4.779996e+00  2.488003e+00
      vertex  -3.116801e+01  4.715993e+00  1.926003e+00
      vertex  -3.147000e+01  4.703996e+00  1.902004e+00
    endloop
  endfacet
  facet normal -5.355612e-02  9.937489e-01  9.795351e-02
    outer loop
      vertex  -2.821400e+01  4.801996e+00  2.688004e+00
      vertex  -2.898801e+01  4.779996e+00  2.488003e+00
      vertex  -3.147000e+01  4.703996e+00  1.902004e+00
    endloop
  endfacet
  facet normal -2.001323e-01  6.298151e-01  7.505198e-01
    outer loop
      vertex  -2.818401e+01  4.801996e+00  2.696003e+00
      vertex  -2.821400e+01  4.801996e+00  2.688004e+00
      vertex  -3.147000e+01  4.703996e+00  1.902004e+00
    endloop
  endfacet
  facet normal -4.754477e-02  9.961378e-01  7.381666e-02
    outer loop
      vertex  -2.818401e+01  4.797994e+00  2.750004e+00
      vertex  -2.818401e+01  4.801996e+00  2.696003e+00
      vertex  -3.147000e+01  4.703996e+00  1.902004e+00
    endloop
  endfacet
  facet normal -3.136139e-02  9.943705e-01  1.012119e-01
    outer loop
      vertex  -2.335600e+01  4.627996e+00  5.714001e+00
      vertex  -2.349200e+01  4.719995e+00  4.768002e+00
      vertex  -2.357401e+01  4.727995e+00  4.664001e+00
    endloop
  endfacet
  facet normal -5.080707e-03  9.953826e-01  9.585185e-02
    outer loop
      vertex  -2.331001e+01  4.597994e+00  6.028004e+00
      vertex  -2.335600e+01  4.627996e+00  5.714001e+00
      vertex  -2.357401e+01  4.727995e+00  4.664001e+00
    endloop
  endfacet
  facet normal  0.000000e+00  9.954888e-01  9.487858e-02
    outer loop
      vertex  -2.331001e+01  4.597994e+00  6.028004e+00
      vertex  -2.357401e+01  4.727995e+00  4.664001e+00
      vertex  -2.337801e+01  4.597994e+00  6.028004e+00
    endloop
  endfacet
  facet normal -2.197849e-01  8.987162e-01  3.794786e-01
    outer loop
      vertex  -3.367800e+01  3.915994e+00  4.348003e+00
      vertex  -3.395400e+01  3.595994e+00  4.946003e+00
      vertex  -3.390601e+01  3.513993e+00  5.168003e+00
    endloop
  endfacet
  facet normal -2.197061e-01  8.987244e-01  3.795046e-01
    outer loop
      vertex  -3.367800e+01  3.915994e+00  4.348003e+00
      vertex  -3.390601e+01  3.513993e+00  5.168003e+00
      vertex  -3.355200e+01  3.923993e+00  4.402004e+00
    endloop
  endfacet
  facet normal -1.350092e-01  1.266216e-01  9.827204e-01
    outer loop
      vertex  -2.274800e+01  1.099986e-01  1.086600e+01
      vertex  -2.266000e+01  3.279933e-01  1.085000e+01
      vertex  -2.268000e+01  1.237993e+00  1.073000e+01
    endloop
  endfacet
  facet normal -1.667333e-01  1.389464e-01  9.761628e-01
    outer loop
      vertex  -2.274800e+01  1.099986e-01  1.086600e+01
      vertex  -2.265800e+01  2.179927e-01  1.086600e+01
      vertex  -2.266000e+01  3.279933e-01  1.085000e+01
    endloop
  endfacet
  facet normal -1.337117e-01  1.265657e-01  9.829050e-01
    outer loop
      vertex  -2.274800e+01  1.099986e-01  1.086600e+01
      vertex  -2.268000e+01  1.237993e+00  1.073000e+01
      vertex  -2.277200e+01  1.233995e+00  1.071800e+01
    endloop
  endfacet
  facet normal -1.393835e-01  3.782578e-01  9.151465e-01
    outer loop
      vertex  -2.504601e+01  1.237993e+00  1.037000e+01
      vertex  -2.277200e+01  1.233995e+00  1.071800e+01
      vertex  -2.504601e+01  2.287996e+00  9.936005e+00
    endloop
  endfacet
  facet normal -3.846346e-02  9.337700e-01  3.558007e-01
    outer loop
      vertex  -2.310600e+01  4.299994e+00  7.440002e+00
      vertex  -2.312000e+01  4.335997e+00  7.344002e+00
      vertex  -2.319400e+01  4.335997e+00  7.336002e+00
    endloop
  endfacet
  facet normal -1.237287e-01  9.734537e-01  1.925597e-01
    outer loop
      vertex  -3.260800e+01  4.509995e+00  2.436001e+00
      vertex  -3.283401e+01  4.451993e+00  2.584003e+00
      vertex  -3.314400e+01  4.285993e+00  3.224003e+00
    endloop
  endfacet
  facet normal -1.268428e-01  9.734687e-01  1.904457e-01
    outer loop
      vertex  -3.260800e+01  4.509995e+00  2.436001e+00
      vertex  -3.314400e+01  4.285993e+00  3.224003e+00
      vertex  -3.313200e+01  4.231996e+00  3.508003e+00
    endloop
  endfacet
  facet normal -1.228803e-01  9.733148e-01  1.938008e-01
    outer loop
      vertex  -3.283401e+01  4.451993e+00  2.584003e+00
      vertex  -3.260800e+01  4.509995e+00  2.436001e+00
      vertex  -3.274400e+01  4.499993e+00  2.400002e+00
    endloop
  endfacet
  facet normal -1.358260e-01  3.832139e-01  9.136183e-01
    outer loop
      vertex  -2.277200e+01  1.233995e+00  1.071800e+01
      vertex  -2.268000e+01  1.237993e+00  1.073000e+01
      vertex  -2.268600e+01  1.335997e+00  1.068800e+01
    endloop
  endfacet
  facet normal -2.062200e-03  9.993649e-01  3.557552e-02
    outer loop
      vertex  -2.569000e+01  4.781995e+00  3.344002e+00
      vertex  -2.790800e+01  4.797994e+00  2.766003e+00
      vertex  -2.818401e+01  4.797994e+00  2.750004e+00
    endloop
  endfacet
  facet normal -2.613151e-03  9.993122e-01  3.699065e-02
    outer loop
      vertex  -2.504601e+01  4.775995e+00  3.566002e+00
      vertex  -2.504601e+01  4.777994e+00  3.512001e+00
      vertex  -2.818401e+01  4.797994e+00  2.750004e+00
    endloop
  endfacet
  facet normal -8.744224e-02  9.831922e-01  1.602717e-01
    outer loop
      vertex  -3.224600e+01  4.653993e+00  1.738003e+00
      vertex  -3.243201e+01  4.627995e+00  1.796001e+00
      vertex  -3.266000e+01  4.535993e+00  2.236004e+00
    endloop
  endfacet
  facet normal -9.639315e-02  9.835277e-01  1.529102e-01
    outer loop
      vertex  -3.224600e+01  4.653993e+00  1.738003e+00
      vertex  -3.266000e+01  4.535993e+00  2.236004e+00
      vertex  -3.260800e+01  4.509995e+00  2.436001e+00
    endloop
  endfacet
  facet normal -8.779123e-02  9.833326e-01  1.592155e-01
    outer loop
      vertex  -3.243201e+01  4.627995e+00  1.796001e+00
      vertex  -3.224600e+01  4.653993e+00  1.738003e+00
      vertex  -3.239001e+01  4.645993e+00  1.708004e+00
    endloop
  endfacet
  facet normal -3.183512e-01 -1.048742e-01  9.421539e-01
    outer loop
      vertex  -3.474600e+01 -1.200058e-01  6.696003e+00
      vertex  -3.475201e+01  2.399141e-02  6.710003e+00
      vertex  -3.475600e+01  1.079910e-01  6.718002e+00
    endloop
  endfacet
  facet normal  9.370469e-01  7.403643e-02 -3.412648e-01
    outer loop
      vertex  -3.473000e+01 -4.700043e-01  6.664001e+00
      vertex  -3.474600e+01 -1.200058e-01  6.696003e+00
      vertex  -3.475600e+01  1.079910e-01  6.718002e+00
    endloop
  endfacet
  facet normal -9.400987e-01 -1.146115e-01 -3.210587e-01
    outer loop
      vertex  -3.409200e+01 -3.168010e+00  5.250004e+00
      vertex  -3.426801e+01 -2.828006e+00  5.644001e+00
      vertex  -3.433601e+01 -2.696010e+00  5.796001e+00
    endloop
  endfacet
  facet normal -2.477774e-01  1.060209e-01  9.629983e-01
    outer loop
      vertex  -2.818401e+01 -4.584002e+00  2.696003e+00
      vertex  -2.501401e+01 -4.660006e+00  3.520004e+00
      vertex  -2.791801e+01 -4.580004e+00  2.764004e+00
    endloop
  endfacet
  facet normal -2.566843e-01 -1.158995e-02  9.664258e-01
    outer loop
      vertex  -2.394801e+01 -4.550005e+00  3.798004e+00
      vertex  -2.365000e+01 -4.646006e+00  3.876003e+00
      vertex  -2.382001e+01 -4.550005e+00  3.832001e+00
    endloop
  endfacet
  facet normal -1.288172e-01 -9.683034e-01  2.139968e-01
    outer loop
      vertex  -2.818401e+01 -4.074008e+00  6.276001e+00
      vertex  -3.147000e+01 -3.872005e+00  5.212002e+00
      vertex  -2.818401e+01 -4.356005e+00  5.000004e+00
    endloop
  endfacet
  facet normal -7.429335e-02 -9.903864e-01  1.166843e-01
    outer loop
      vertex  -2.818401e+01 -4.356005e+00  5.000004e+00
      vertex  -3.147000e+01 -4.376010e+00  2.738003e+00
      vertex  -2.818401e+01 -4.520007e+00  3.608002e+00
    endloop
  endfacet
  facet normal -1.648786e-03 -9.991049e-01  4.227076e-02
    outer loop
      vertex  -2.501401e+01 -4.560008e+00  3.520004e+00
      vertex  -2.394801e+01 -4.550005e+00  3.798004e+00
      vertex  -2.504601e+01 -4.558009e+00  3.566002e+00
    endloop
  endfacet
  facet normal  3.531192e-02 -9.904934e-01 -1.329507e-01
    outer loop
      vertex  -2.382001e+01 -4.550005e+00  3.832001e+00
      vertex  -2.504601e+01 -4.558009e+00  3.566002e+00
      vertex  -2.394801e+01 -4.550005e+00  3.798004e+00
    endloop
  endfacet
  facet normal -5.745675e-03 -9.983847e-01  5.652269e-02
    outer loop
      vertex  -2.370800e+01 -4.546007e+00  3.914001e+00
      vertex  -2.504601e+01 -4.558009e+00  3.566002e+00
      vertex  -2.382001e+01 -4.550005e+00  3.832001e+00
    endloop
  endfacet
  facet normal -9.251707e-03 -9.992728e-01  3.698919e-02
    outer loop
      vertex  -2.504601e+01 -4.558009e+00  3.566002e+00
      vertex  -2.504601e+01 -4.560008e+00  3.512001e+00
      vertex  -2.501401e+01 -4.560008e+00  3.520004e+00
    endloop
  endfacet
  facet normal -2.388645e-01 -7.975724e-01  5.539151e-01
    outer loop
      vertex  -2.818401e+01 -3.620005e+00  7.414001e+00
      vertex  -3.147000e+01 -2.822009e+00  7.146004e+00
      vertex  -3.147000e+01 -3.454005e+00  6.236004e+00
    endloop
  endfacet
  facet normal -4.318251e-01 -3.254705e-01  8.411872e-01
    outer loop
      vertex  -3.458601e+01 -9.580032e-01  6.680004e+00
      vertex  -3.445400e+01 -1.924007e+00  6.374004e+00
      vertex  -3.147000e+01 -9.880093e-01  8.268002e+00
    endloop
  endfacet
  facet normal -3.685493e-01 -5.928838e-01  7.160031e-01
    outer loop
      vertex  -3.445400e+01 -1.924007e+00  6.374004e+00
      vertex  -3.421201e+01 -2.700008e+00  5.856003e+00
      vertex  -3.147000e+01 -1.994006e+00  7.852001e+00
    endloop
  endfacet
  facet normal -2.351394e-01 -3.712763e-01  8.982558e-01
    outer loop
      vertex  -2.818401e+01 -2.054003e+00  9.122002e+00
      vertex  -2.504601e+01 -2.072008e+00  9.936005e+00
      vertex  -2.504601e+01 -1.022005e+00  1.037000e+01
    endloop
  endfacet
  facet normal -3.421558e-01 -3.590722e-01  8.683297e-01
    outer loop
      vertex  -3.147000e+01 -1.994006e+00  7.852001e+00
      vertex  -2.818401e+01 -2.054003e+00  9.122002e+00
      vertex  -3.147000e+01 -9.880093e-01  8.268002e+00
    endloop
  endfacet
  facet normal -2.507019e-01 -1.177623e-01  9.608749e-01
    outer loop
      vertex  -2.818401e+01 -1.016009e+00  9.552002e+00
      vertex  -2.504601e+01 -1.022005e+00  1.037000e+01
      vertex  -2.818401e+01  1.099981e-01  9.690002e+00
    endloop
  endfacet
  facet normal -3.626002e-01 -1.128985e-01  9.250811e-01
    outer loop
      vertex  -3.147000e+01 -9.880093e-01  8.268002e+00
      vertex  -2.818401e+01  1.099981e-01  9.690002e+00
      vertex  -3.147000e+01  1.099979e-01  8.402004e+00
    endloop
  endfacet
  facet normal -1.743677e-01 -9.145846e-01  3.648712e-01
    outer loop
      vertex  -2.818401e+01 -3.620005e+00  7.414001e+00
      vertex  -3.147000e+01 -3.872005e+00  5.212002e+00
      vertex  -2.818401e+01 -4.074008e+00  6.276001e+00
    endloop
  endfacet
  facet normal -1.146984e-01 -6.346194e-01  7.642660e-01
    outer loop
      vertex  -2.504601e+01 -2.968004e+00  9.192001e+00
      vertex  -2.281600e+01 -2.068003e+00  1.027400e+01
      vertex  -2.504601e+01 -2.072008e+00  9.936005e+00
    endloop
  endfacet
  facet normal -6.202151e-02 -9.956548e-01  6.946141e-02
    outer loop
      vertex  -2.818401e+01 -4.520007e+00  3.608002e+00
      vertex  -3.147000e+01 -4.376010e+00  2.738003e+00
      vertex  -2.818401e+01 -4.580004e+00  2.748001e+00
    endloop
  endfacet
  facet normal -1.019267e-01 -9.261127e-01  3.632165e-01
    outer loop
      vertex  -2.504601e+01 -3.664004e+00  8.202003e+00
      vertex  -2.818401e+01 -4.074008e+00  6.276001e+00
      vertex  -2.504601e+01 -4.126009e+00  7.024002e+00
    endloop
  endfacet
  facet normal -1.268498e-01 -9.638483e-01  2.343193e-01
    outer loop
      vertex  -3.147000e+01 -3.872005e+00  5.212002e+00
      vertex  -3.147000e+01 -4.154010e+00  4.052002e+00
      vertex  -2.818401e+01 -4.356005e+00  5.000004e+00
    endloop
  endfacet
  facet normal -2.382978e-01 -7.929355e-01  5.607739e-01
    outer loop
      vertex  -2.818401e+01 -2.934008e+00  8.384003e+00
      vertex  -3.147000e+01 -2.822009e+00  7.146004e+00
      vertex  -2.818401e+01 -3.620005e+00  7.414001e+00
    endloop
  endfacet
  facet normal -1.080371e-01 -9.802551e-01  1.656141e-01
    outer loop
      vertex  -2.818401e+01 -4.356005e+00  5.000004e+00
      vertex  -3.147000e+01 -4.154010e+00  4.052002e+00
      vertex  -3.147000e+01 -4.376010e+00  2.738003e+00
    endloop
  endfacet
  facet normal -8.850527e-02 -8.148550e-01  5.728683e-01
    outer loop
      vertex  -2.291000e+01 -2.968004e+00  9.522003e+00
      vertex  -2.504601e+01 -2.968004e+00  9.192001e+00
      vertex  -2.504601e+01 -3.664004e+00  8.202003e+00
    endloop
  endfacet
  facet normal -1.793005e-01 -9.108315e-01  3.718028e-01
    outer loop
      vertex  -2.818401e+01 -3.620005e+00  7.414001e+00
      vertex  -3.147000e+01 -3.454005e+00  6.236004e+00
      vertex  -3.147000e+01 -3.872005e+00  5.212002e+00
    endloop
  endfacet
  facet normal -1.540329e-01 -8.083023e-01  5.682616e-01
    outer loop
      vertex  -2.504601e+01 -2.968004e+00  9.192001e+00
      vertex  -2.818401e+01 -3.620005e+00  7.414001e+00
      vertex  -2.504601e+01 -3.664004e+00  8.202003e+00
    endloop
  endfacet
  facet normal -1.114872e-02 -9.975134e-01  6.959108e-02
    outer loop
      vertex  -2.818401e+01 -4.520007e+00  3.608002e+00
      vertex  -2.818401e+01 -4.580004e+00  2.748001e+00
      vertex  -2.504601e+01 -4.558009e+00  3.566002e+00
    endloop
  endfacet
  facet normal -3.608027e-01 -6.051157e-01  7.096876e-01
    outer loop
      vertex  -3.421201e+01 -2.700008e+00  5.856003e+00
      vertex  -3.147000e+01 -2.822009e+00  7.146004e+00
      vertex  -3.147000e+01 -1.994006e+00  7.852001e+00
    endloop
  endfacet
  facet normal -4.522292e-01 -1.080475e-01  8.853329e-01
    outer loop
      vertex  -3.458601e+01 -9.580032e-01  6.680004e+00
      vertex  -3.147000e+01 -9.880093e-01  8.268002e+00
      vertex  -3.147000e+01  1.099979e-01  8.402004e+00
    endloop
  endfacet
  facet normal -3.624422e-01 -1.133759e-01  9.250846e-01
    outer loop
      vertex  -3.147000e+01 -9.880093e-01  8.268002e+00
      vertex  -2.818401e+01 -1.016009e+00  9.552002e+00
      vertex  -2.818401e+01  1.099981e-01  9.690002e+00
    endloop
  endfacet
  facet normal -1.100045e-01 -6.285362e-01  7.699618e-01
    outer loop
      vertex  -2.281600e+01 -2.884005e+00  9.604004e+00
      vertex  -2.291000e+01 -2.968004e+00  9.522003e+00
      vertex  -2.282600e+01 -2.968004e+00  9.534004e+00
    endloop
  endfacet
  facet normal -4.392967e-01 -3.252859e-01  8.373812e-01
    outer loop
      vertex  -3.458601e+01 -9.580032e-01  6.680004e+00
      vertex  -3.457600e+01 -1.924007e+00  6.310001e+00
      vertex  -3.445400e+01 -1.924007e+00  6.374004e+00
    endloop
  endfacet
  facet normal -4.245359e-01 -3.283269e-01  8.437836e-01
    outer loop
      vertex  -3.458601e+01 -9.580032e-01  6.680004e+00
      vertex  -3.467800e+01 -1.168010e+00  6.552002e+00
      vertex  -3.460201e+01 -1.734004e+00  6.370003e+00
    endloop
  endfacet
  facet normal -4.439360e-01 -3.245109e-01  8.352326e-01
    outer loop
      vertex  -3.460201e+01 -1.734004e+00  6.370003e+00
      vertex  -3.457600e+01 -1.924007e+00  6.310001e+00
      vertex  -3.458601e+01 -9.580032e-01  6.680004e+00
    endloop
  endfacet
  facet normal -4.537522e-01 -1.032673e-01  8.851241e-01
    outer loop
      vertex  -3.463400e+01  1.099976e-01  6.780003e+00
      vertex  -3.458601e+01 -9.580032e-01  6.680004e+00
      vertex  -3.147000e+01  1.099979e-01  8.402004e+00
    endloop
  endfacet
  facet normal -2.966000e-01 -6.136618e-01  7.317429e-01
    outer loop
      vertex  -3.147000e+01 -2.822009e+00  7.146004e+00
      vertex  -2.818401e+01 -2.934008e+00  8.384003e+00
      vertex  -2.818401e+01 -2.054003e+00  9.122002e+00
    endloop
  endfacet
  facet normal -3.389606e-02 -9.951168e-01  9.270252e-02
    outer loop
      vertex  -2.504601e+01 -4.396006e+00  5.718002e+00
      vertex  -2.818401e+01 -4.356005e+00  5.000004e+00
      vertex  -2.504601e+01 -4.524004e+00  4.344002e+00
    endloop
  endfacet
  facet normal -1.991630e-01 -6.260372e-01  7.539307e-01
    outer loop
      vertex  -2.818401e+01 -2.054003e+00  9.122002e+00
      vertex  -2.504601e+01 -2.968004e+00  9.192001e+00
      vertex  -2.504601e+01 -2.072008e+00  9.936005e+00
    endloop
  endfacet
  facet normal -4.228956e-01 -3.462842e-01  8.374047e-01
    outer loop
      vertex  -3.445400e+01 -1.924007e+00  6.374004e+00
      vertex  -3.147000e+01 -1.994006e+00  7.852001e+00
      vertex  -3.147000e+01 -9.880093e-01  8.268002e+00
    endloop
  endfacet
  facet normal -1.186560e-01 -6.293321e-01  7.680247e-01
    outer loop
      vertex  -2.504601e+01 -2.968004e+00  9.192001e+00
      vertex  -2.291000e+01 -2.968004e+00  9.522003e+00
      vertex  -2.281600e+01 -2.068003e+00  1.027400e+01
    endloop
  endfacet
  facet normal -5.870499e-02 -9.776027e-01  2.021053e-01
    outer loop
      vertex  -2.504601e+01 -4.126009e+00  7.024002e+00
      vertex  -2.818401e+01 -4.356005e+00  5.000004e+00
      vertex  -2.504601e+01 -4.396006e+00  5.718002e+00
    endloop
  endfacet
  facet normal -5.741500e-02 -9.307823e-01  3.610372e-01
    outer loop
      vertex  -2.302600e+01 -3.668009e+00  8.526001e+00
      vertex  -2.504601e+01 -4.126009e+00  7.024002e+00
      vertex  -2.319400e+01 -4.120005e+00  7.334003e+00
    endloop
  endfacet
  facet normal -2.348068e-01 -3.720206e-01  8.980348e-01
    outer loop
      vertex  -2.818401e+01 -1.016009e+00  9.552002e+00
      vertex  -2.818401e+01 -2.054003e+00  9.122002e+00
      vertex  -2.504601e+01 -1.022005e+00  1.037000e+01
    endloop
  endfacet
  facet normal -2.905226e-02 -9.792537e-01  2.005447e-01
    outer loop
      vertex  -2.319400e+01 -4.120005e+00  7.334003e+00
      vertex  -2.504601e+01 -4.396006e+00  5.718002e+00
      vertex  -2.337801e+01 -4.382006e+00  6.028004e+00
    endloop
  endfacet
  facet normal -2.925568e-01 -6.204317e-01  7.276503e-01
    outer loop
      vertex  -3.147000e+01 -1.994006e+00  7.852001e+00
      vertex  -3.147000e+01 -2.822009e+00  7.146004e+00
      vertex  -2.818401e+01 -2.054003e+00  9.122002e+00
    endloop
  endfacet
  facet normal -3.069856e-02 -9.788301e-01  2.023590e-01
    outer loop
      vertex  -2.319400e+01 -4.120005e+00  7.334003e+00
      vertex  -2.504601e+01 -4.126009e+00  7.024002e+00
      vertex  -2.504601e+01 -4.396006e+00  5.718002e+00
    endloop
  endfacet
  facet normal -1.293106e-02 -9.952269e-01  9.672790e-02
    outer loop
      vertex  -2.337801e+01 -4.382006e+00  6.028004e+00
      vertex  -2.504601e+01 -4.524004e+00  4.344002e+00
      vertex  -2.357600e+01 -4.512003e+00  4.664001e+00
    endloop
  endfacet
  facet normal -6.746588e-02 -9.742141e-01  2.153031e-01
    outer loop
      vertex  -2.504601e+01 -4.126009e+00  7.024002e+00
      vertex  -2.818401e+01 -4.074008e+00  6.276001e+00
      vertex  -2.818401e+01 -4.356005e+00  5.000004e+00
    endloop
  endfacet
  facet normal -1.348902e-03 -9.990453e-01  4.366549e-02
    outer loop
      vertex  -2.357600e+01 -4.512003e+00  4.664001e+00
      vertex  -2.504601e+01 -4.524004e+00  4.344002e+00
      vertex  -2.504601e+01 -4.558009e+00  3.566002e+00
    endloop
  endfacet
  facet normal -8.881171e-03 -9.956496e-01  9.275215e-02
    outer loop
      vertex  -2.337801e+01 -4.382006e+00  6.028004e+00
      vertex  -2.504601e+01 -4.396006e+00  5.718002e+00
      vertex  -2.504601e+01 -4.524004e+00  4.344002e+00
    endloop
  endfacet
  facet normal -2.929731e-01 -7.830141e-01  5.486855e-01
    outer loop
      vertex  -3.147000e+01 -2.822009e+00  7.146004e+00
      vertex  -3.421201e+01 -2.700008e+00  5.856003e+00
      vertex  -3.390601e+01 -3.298007e+00  5.166004e+00
    endloop
  endfacet
  facet normal -1.709451e-01 -9.540164e-01  2.462326e-01
    outer loop
      vertex  -3.147000e+01 -3.872005e+00  5.212002e+00
      vertex  -3.355200e+01 -3.708003e+00  4.402004e+00
      vertex  -3.313200e+01 -4.014003e+00  3.508003e+00
    endloop
  endfacet
  facet normal -2.148253e-01 -9.042193e-01  3.691038e-01
    outer loop
      vertex  -3.147000e+01 -3.454005e+00  6.236004e+00
      vertex  -3.355200e+01 -3.708003e+00  4.402004e+00
      vertex  -3.147000e+01 -3.872005e+00  5.212002e+00
    endloop
  endfacet
  facet normal -1.498616e-01 -1.254844e-01  9.807116e-01
    outer loop
      vertex  -2.504601e+01 -1.022005e+00  1.037000e+01
      vertex  -2.277200e+01 -1.018007e+00  1.071800e+01
      vertex  -2.274800e+01  1.099986e-01  1.086600e+01
    endloop
  endfacet
  facet normal -1.541140e-01 -9.538143e-01  2.578508e-01
    outer loop
      vertex  -3.313200e+01 -4.014003e+00  3.508003e+00
      vertex  -3.358601e+01 -3.766009e+00  4.154003e+00
      vertex  -3.334200e+01 -3.946010e+00  3.634003e+00
    endloop
  endfacet
  facet normal -1.703800e-01 -9.540463e-01  2.465083e-01
    outer loop
      vertex  -3.313200e+01 -4.014003e+00  3.508003e+00
      vertex  -3.355200e+01 -3.708003e+00  4.402004e+00
      vertex  -3.358601e+01 -3.766009e+00  4.154003e+00
    endloop
  endfacet
  facet normal -1.584440e-01 -9.548771e-01  2.512075e-01
    outer loop
      vertex  -3.334200e+01 -3.946010e+00  3.634003e+00
      vertex  -3.326200e+01 -4.004008e+00  3.464001e+00
      vertex  -3.313200e+01 -4.014003e+00  3.508003e+00
    endloop
  endfacet
  facet normal -1.054818e-01 -9.236318e-01  3.684805e-01
    outer loop
      vertex  -2.504601e+01 -3.664004e+00  8.202003e+00
      vertex  -2.818401e+01 -3.620005e+00  7.414001e+00
      vertex  -2.818401e+01 -4.074008e+00  6.276001e+00
    endloop
  endfacet
  facet normal -6.182940e-02 -9.895986e-01  1.298911e-01
    outer loop
      vertex  -2.818401e+01 -4.580004e+00  2.748001e+00
      vertex  -3.147000e+01 -4.376010e+00  2.738003e+00
      vertex  -3.147000e+01 -4.486003e+00  1.900002e+00
    endloop
  endfacet
  facet normal -1.151352e-02 -9.989800e-01  4.366264e-02
    outer loop
      vertex  -2.504601e+01 -4.524004e+00  4.344002e+00
      vertex  -2.818401e+01 -4.520007e+00  3.608002e+00
      vertex  -2.504601e+01 -4.558009e+00  3.566002e+00
    endloop
  endfacet
  facet normal -2.515549e-01 -1.204620e-01  9.603172e-01
    outer loop
      vertex  -2.818401e+01  1.099981e-01  9.690002e+00
      vertex  -2.504601e+01 -1.022005e+00  1.037000e+01
      vertex  -2.504601e+01  1.099984e-01  1.051200e+01
    endloop
  endfacet
  facet normal -9.459792e-02 -8.092635e-01  5.797791e-01
    outer loop
      vertex  -2.291000e+01 -2.968004e+00  9.522003e+00
      vertex  -2.504601e+01 -3.664004e+00  8.202003e+00
      vertex  -2.302600e+01 -3.668009e+00  8.526001e+00
    endloop
  endfacet
  facet normal -2.237142e-01 -8.982167e-01  3.783633e-01
    outer loop
      vertex  -3.147000e+01 -3.454005e+00  6.236004e+00
      vertex  -3.390601e+01 -3.298007e+00  5.166004e+00
      vertex  -3.355200e+01 -3.708003e+00  4.402004e+00
    endloop
  endfacet
  facet normal -2.001227e-01 -6.295779e-01  7.507213e-01
    outer loop
      vertex  -2.818401e+01 -2.934008e+00  8.384003e+00
      vertex  -2.504601e+01 -2.968004e+00  9.192001e+00
      vertex  -2.818401e+01 -2.054003e+00  9.122002e+00
    endloop
  endfacet
  facet normal -9.446518e-02 -9.833482e-01  1.552502e-01
    outer loop
      vertex  -3.216601e+01 -4.450007e+00  1.698002e+00
      vertex  -3.175401e+01 -4.476008e+00  1.784004e+00
      vertex  -3.224600e+01 -4.436007e+00  1.738003e+00
    endloop
  endfacet
  facet normal -9.254291e-02 -9.869831e-01  1.315303e-01
    outer loop
      vertex  -3.157201e+01 -4.488009e+00  1.822002e+00
      vertex  -3.224600e+01 -4.436007e+00  1.738003e+00
      vertex  -3.175401e+01 -4.476008e+00  1.784004e+00
    endloop
  endfacet
  facet normal -9.338826e-02 -9.858797e-01  1.389963e-01
    outer loop
      vertex  -3.147000e+01 -4.494006e+00  1.848003e+00
      vertex  -3.224600e+01 -4.436007e+00  1.738003e+00
      vertex  -3.157201e+01 -4.488009e+00  1.822002e+00
    endloop
  endfacet
  facet normal -9.500279e-02 -9.838912e-01  1.514345e-01
    outer loop
      vertex  -3.147000e+01 -4.486003e+00  1.900002e+00
      vertex  -3.224600e+01 -4.436007e+00  1.738003e+00
      vertex  -3.147000e+01 -4.494006e+00  1.848003e+00
    endloop
  endfacet
  facet normal -1.556025e-01 -8.065112e-01  5.703749e-01
    outer loop
      vertex  -2.504601e+01 -2.968004e+00  9.192001e+00
      vertex  -2.818401e+01 -2.934008e+00  8.384003e+00
      vertex  -2.818401e+01 -3.620005e+00  7.414001e+00
    endloop
  endfacet
  facet normal -2.901163e-01 -7.860231e-01  5.458941e-01
    outer loop
      vertex  -3.147000e+01 -2.822009e+00  7.146004e+00
      vertex  -3.390601e+01 -3.298007e+00  5.166004e+00
      vertex  -3.147000e+01 -3.454005e+00  6.236004e+00
    endloop
  endfacet
  facet normal -1.393430e-02 -9.987625e-01  4.774100e-02
    outer loop
      vertex  -2.354401e+01 -4.522005e+00  4.464001e+00
      vertex  -2.370800e+01 -4.546007e+00  3.914001e+00
      vertex  -2.363200e+01 -4.544008e+00  3.978001e+00
    endloop
  endfacet
  facet normal -3.704509e-02 -9.978214e-01  5.459091e-02
    outer loop
      vertex  -2.351200e+01 -4.514002e+00  4.632004e+00
      vertex  -2.370800e+01 -4.546007e+00  3.914001e+00
      vertex  -2.354401e+01 -4.522005e+00  4.464001e+00
    endloop
  endfacet
  facet normal -7.863150e-03 -9.988793e-01  4.667201e-02
    outer loop
      vertex  -2.357600e+01 -4.512003e+00  4.664001e+00
      vertex  -2.370800e+01 -4.546007e+00  3.914001e+00
      vertex  -2.351200e+01 -4.514002e+00  4.632004e+00
    endloop
  endfacet
  facet normal -9.790564e-03 -9.990345e-01  4.282642e-02
    outer loop
      vertex  -2.351200e+01 -4.514002e+00  4.632004e+00
      vertex  -2.350600e+01 -4.512003e+00  4.680004e+00
      vertex  -2.357600e+01 -4.512003e+00  4.664001e+00
    endloop
  endfacet
  facet normal -1.040627e-01 -6.326769e-01  7.673922e-01
    outer loop
      vertex  -2.275001e+01 -2.252008e+00  1.013400e+01
      vertex  -2.291000e+01 -2.968004e+00  9.522003e+00
      vertex  -2.281600e+01 -2.884005e+00  9.604004e+00
    endloop
  endfacet
  facet normal -1.468655e-01 -6.235300e-01  7.678808e-01
    outer loop
      vertex  -2.272800e+01 -2.070002e+00  1.028600e+01
      vertex  -2.291000e+01 -2.968004e+00  9.522003e+00
      vertex  -2.275001e+01 -2.252008e+00  1.013400e+01
    endloop
  endfacet
  facet normal -1.190350e-01 -6.292794e-01  7.680091e-01
    outer loop
      vertex  -2.291000e+01 -2.968004e+00  9.522003e+00
      vertex  -2.272800e+01 -2.070002e+00  1.028600e+01
      vertex  -2.281600e+01 -2.068003e+00  1.027400e+01
    endloop
  endfacet
  facet normal -6.029886e-02 -9.292672e-01  3.644536e-01
    outer loop
      vertex  -2.302600e+01 -3.668009e+00  8.526001e+00
      vertex  -2.504601e+01 -3.664004e+00  8.202003e+00
      vertex  -2.504601e+01 -4.126009e+00  7.024002e+00
    endloop
  endfacet
  facet normal -3.422608e-01 -3.596062e-01  8.680673e-01
    outer loop
      vertex  -3.147000e+01 -9.880093e-01  8.268002e+00
      vertex  -2.818401e+01 -2.054003e+00  9.122002e+00
      vertex  -2.818401e+01 -1.016009e+00  9.552002e+00
    endloop
  endfacet
  facet normal -2.954700e-03 -9.989457e-01  4.581117e-02
    outer loop
      vertex  -2.357600e+01 -4.512003e+00  4.664001e+00
      vertex  -2.504601e+01 -4.558009e+00  3.566002e+00
      vertex  -2.370800e+01 -4.546007e+00  3.914001e+00
    endloop
  endfacet
  facet normal -4.224467e-01 -1.051425e-01  9.002688e-01
    outer loop
      vertex  -3.471800e+01  1.099976e-01  6.736004e+00
      vertex  -3.475201e+01  2.399141e-02  6.710003e+00
      vertex  -3.474600e+01 -1.200058e-01  6.696003e+00
    endloop
  endfacet
  facet normal -4.618048e-01 -9.711292e-02  8.816493e-01
    outer loop
      vertex  -3.474600e+01 -1.200058e-01  6.696003e+00
      vertex  -3.463400e+01  1.099976e-01  6.780003e+00
      vertex  -3.471800e+01  1.099976e-01  6.736004e+00
    endloop
  endfacet
  facet normal -4.211248e-01 -1.058280e-01  9.008076e-01
    outer loop
      vertex  -3.471800e+01  1.099976e-01  6.736004e+00
      vertex  -3.475600e+01  1.079910e-01  6.718002e+00
      vertex  -3.475201e+01  2.399141e-02  6.710003e+00
    endloop
  endfacet
  facet normal -3.661516e-01 -5.929306e-01  7.171932e-01
    outer loop
      vertex  -3.445400e+01 -1.924007e+00  6.374004e+00
      vertex  -3.433601e+01 -2.696010e+00  5.796001e+00
      vertex  -3.421201e+01 -2.700008e+00  5.856003e+00
    endloop
  endfacet
  facet normal -4.208159e-01 -5.840248e-01  6.941389e-01
    outer loop
      vertex  -3.433601e+01 -2.696010e+00  5.796001e+00
      vertex  -3.445400e+01 -1.924007e+00  6.374004e+00
      vertex  -3.438200e+01 -2.544009e+00  5.896004e+00
    endloop
  endfacet
  facet normal -3.620017e-01 -5.951657e-01  7.174486e-01
    outer loop
      vertex  -3.452400e+01 -2.096004e+00  6.196003e+00
      vertex  -3.438200e+01 -2.544009e+00  5.896004e+00
      vertex  -3.445400e+01 -1.924007e+00  6.374004e+00
    endloop
  endfacet
  facet normal -2.869691e-02 -9.927220e-01  1.169595e-01
    outer loop
      vertex  -2.818401e+01 -4.356005e+00  5.000004e+00
      vertex  -2.818401e+01 -4.520007e+00  3.608002e+00
      vertex  -2.504601e+01 -4.524004e+00  4.344002e+00
    endloop
  endfacet
  facet normal -1.422975e-01 -9.724851e-01  1.844565e-01
    outer loop
      vertex  -3.147000e+01 -4.154010e+00  4.052002e+00
      vertex  -3.313200e+01 -4.014003e+00  3.508003e+00
      vertex  -3.260800e+01 -4.294009e+00  2.436001e+00
    endloop
  endfacet
  facet normal -1.510941e-01 -1.230354e-01  9.808328e-01
    outer loop
      vertex  -2.504601e+01 -1.022005e+00  1.037000e+01
      vertex  -2.274800e+01  1.099986e-01  1.086600e+01
      vertex  -2.504601e+01  1.099984e-01  1.051200e+01
    endloop
  endfacet
  facet normal -2.706234e-02 -9.793636e-01  2.002863e-01
    outer loop
      vertex  -2.337801e+01 -4.382006e+00  6.028004e+00
      vertex  -2.312000e+01 -4.120005e+00  7.344002e+00
      vertex  -2.319400e+01 -4.120005e+00  7.334003e+00
    endloop
  endfacet
  facet normal -3.083393e-02 -9.790059e-01  2.014861e-01
    outer loop
      vertex  -2.316200e+01 -4.176004e+00  7.062004e+00
      vertex  -2.337801e+01 -4.382006e+00  6.028004e+00
      vertex  -2.329601e+01 -4.364008e+00  6.128002e+00
    endloop
  endfacet
  facet normal  1.055529e-02 -9.810917e-01  1.932554e-01
    outer loop
      vertex  -2.312000e+01 -4.120005e+00  7.344002e+00
      vertex  -2.337801e+01 -4.382006e+00  6.028004e+00
      vertex  -2.316200e+01 -4.176004e+00  7.062004e+00
    endloop
  endfacet
  facet normal -3.756874e-01 -5.882316e-01  7.161303e-01
    outer loop
      vertex  -3.445400e+01 -1.924007e+00  6.374004e+00
      vertex  -3.457600e+01 -1.924007e+00  6.310001e+00
      vertex  -3.452400e+01 -2.096004e+00  6.196003e+00
    endloop
  endfacet
  facet normal -1.815655e-01 -9.517238e-01  2.474988e-01
    outer loop
      vertex  -3.358601e+01 -3.766009e+00  4.154003e+00
      vertex  -3.355200e+01 -3.708003e+00  4.402004e+00
      vertex  -3.367800e+01 -3.698009e+00  4.348003e+00
    endloop
  endfacet
  facet normal -1.089807e-01 -9.836193e-01  1.435839e-01
    outer loop
      vertex  -3.147000e+01 -4.376010e+00  2.738003e+00
      vertex  -3.260800e+01 -4.294009e+00  2.436001e+00
      vertex  -3.224600e+01 -4.436007e+00  1.738003e+00
    endloop
  endfacet
  facet normal -9.067223e-02 -9.874114e-01  1.296040e-01
    outer loop
      vertex  -3.147000e+01 -4.376010e+00  2.738003e+00
      vertex  -3.224600e+01 -4.436007e+00  1.738003e+00
      vertex  -3.147000e+01 -4.486003e+00  1.900002e+00
    endloop
  endfacet
  facet normal -4.123085e-01 -3.356251e-01  8.469695e-01
    outer loop
      vertex  -3.458601e+01 -9.580032e-01  6.680004e+00
      vertex  -3.470600e+01 -9.620087e-01  6.620003e+00
      vertex  -3.467800e+01 -1.168010e+00  6.552002e+00
    endloop
  endfacet
  facet normal -1.378946e-01 -3.808419e-01  9.143000e-01
    outer loop
      vertex  -2.504601e+01 -2.072008e+00  9.936005e+00
      vertex  -2.281600e+01 -2.068003e+00  1.027400e+01
      vertex  -2.277200e+01 -1.018007e+00  1.071800e+01
    endloop
  endfacet
  facet normal -1.133176e-01 -9.813230e-01  1.554488e-01
    outer loop
      vertex  -3.266000e+01 -4.320003e+00  2.234001e+00
      vertex  -3.260800e+01 -4.294009e+00  2.436001e+00
      vertex  -3.274400e+01 -4.284007e+00  2.400002e+00
    endloop
  endfacet
  facet normal -8.278893e-02 -8.107787e-01  5.794687e-01
    outer loop
      vertex  -2.302600e+01 -3.668009e+00  8.526001e+00
      vertex  -2.282600e+01 -2.968004e+00  9.534004e+00
      vertex  -2.291000e+01 -2.968004e+00  9.522003e+00
    endloop
  endfacet
  facet normal -8.628738e-02 -8.097215e-01  5.804357e-01
    outer loop
      vertex  -2.285400e+01 -3.110003e+00  9.330002e+00
      vertex  -2.302600e+01 -3.668009e+00  8.526001e+00
      vertex  -2.293800e+01 -3.610003e+00  8.620003e+00
    endloop
  endfacet
  facet normal -2.163519e-02 -8.191606e-01  5.731560e-01
    outer loop
      vertex  -2.282600e+01 -2.968004e+00  9.534004e+00
      vertex  -2.302600e+01 -3.668009e+00  8.526001e+00
      vertex  -2.285400e+01 -3.110003e+00  9.330002e+00
    endloop
  endfacet
  facet normal -1.392428e-01 -9.717319e-01  1.906526e-01
    outer loop
      vertex  -3.314400e+01 -4.068004e+00  3.224003e+00
      vertex  -3.313200e+01 -4.014003e+00  3.508003e+00
      vertex  -3.326200e+01 -4.004008e+00  3.464001e+00
    endloop
  endfacet
  facet normal -4.420836e-01 -1.032937e-01  8.910064e-01
    outer loop
      vertex  -3.463400e+01  1.099976e-01  6.780003e+00
      vertex  -3.470600e+01 -9.620087e-01  6.620003e+00
      vertex  -3.458601e+01 -9.580032e-01  6.680004e+00
    endloop
  endfacet
  facet normal -4.819175e-01 -9.759716e-02  8.707642e-01
    outer loop
      vertex  -3.463400e+01  1.099976e-01  6.780003e+00
      vertex  -3.471600e+01 -7.520096e-01  6.638004e+00
      vertex  -3.470600e+01 -9.620087e-01  6.620003e+00
    endloop
  endfacet
  facet normal -4.455560e-01 -1.040901e-01  8.891823e-01
    outer loop
      vertex  -3.463400e+01  1.099976e-01  6.780003e+00
      vertex  -3.473000e+01 -4.700043e-01  6.664001e+00
      vertex  -3.471600e+01 -7.520096e-01  6.638004e+00
    endloop
  endfacet
  facet normal -4.547653e-01 -1.016868e-01  8.847871e-01
    outer loop
      vertex  -3.463400e+01  1.099976e-01  6.780003e+00
      vertex  -3.474600e+01 -1.200058e-01  6.696003e+00
      vertex  -3.473000e+01 -4.700043e-01  6.664001e+00
    endloop
  endfacet
  facet normal -8.715799e-02 -8.092515e-01  5.809609e-01
    outer loop
      vertex  -2.293800e+01 -3.610003e+00  8.620003e+00
      vertex  -2.302600e+01 -3.668009e+00  8.526001e+00
      vertex  -2.294601e+01 -3.668009e+00  8.538002e+00
    endloop
  endfacet
  facet normal -1.571976e-01 -9.596167e-01  2.332906e-01
    outer loop
      vertex  -3.147000e+01 -3.872005e+00  5.212002e+00
      vertex  -3.313200e+01 -4.014003e+00  3.508003e+00
      vertex  -3.147000e+01 -4.154010e+00  4.052002e+00
    endloop
  endfacet
  facet normal -2.216476e-01 -8.998897e-01  3.755940e-01
    outer loop
      vertex  -3.395400e+01 -3.378009e+00  4.946003e+00
      vertex  -3.390601e+01 -3.298007e+00  5.166004e+00
      vertex  -3.403001e+01 -3.290004e+00  5.112003e+00
    endloop
  endfacet
  facet normal -9.809869e-02 -9.852161e-01  1.404486e-01
    outer loop
      vertex  -3.239001e+01 -4.428004e+00  1.708004e+00
      vertex  -3.236401e+01 -4.438006e+00  1.656002e+00
      vertex  -3.227801e+01 -4.444003e+00  1.674004e+00
    endloop
  endfacet
  facet normal -8.943611e-02 -9.818259e-01  1.673885e-01
    outer loop
      vertex  -3.227801e+01 -4.444003e+00  1.674004e+00
      vertex  -3.224600e+01 -4.436007e+00  1.738003e+00
      vertex  -3.239001e+01 -4.428004e+00  1.708004e+00
    endloop
  endfacet
  facet normal -1.272999e-01 -3.813271e-01  9.156334e-01
    outer loop
      vertex  -2.269200e+01 -1.232004e+00  1.064000e+01
      vertex  -2.277200e+01 -1.018007e+00  1.071800e+01
      vertex  -2.272800e+01 -2.070002e+00  1.028600e+01
    endloop
  endfacet
  facet normal -1.369272e-01 -3.840100e-01  9.131195e-01
    outer loop
      vertex  -2.268600e+01 -1.120005e+00  1.068800e+01
      vertex  -2.277200e+01 -1.018007e+00  1.071800e+01
      vertex  -2.269200e+01 -1.232004e+00  1.064000e+01
    endloop
  endfacet
  facet normal -1.334196e-01 -3.812400e-01  9.147979e-01
    outer loop
      vertex  -2.272800e+01 -2.070002e+00  1.028600e+01
      vertex  -2.277200e+01 -1.018007e+00  1.071800e+01
      vertex  -2.281600e+01 -2.068003e+00  1.027400e+01
    endloop
  endfacet
  facet normal -5.411274e-02 -9.311121e-01  3.606969e-01
    outer loop
      vertex  -2.319400e+01 -4.120005e+00  7.334003e+00
      vertex  -2.294601e+01 -3.668009e+00  8.538002e+00
      vertex  -2.302600e+01 -3.668009e+00  8.526001e+00
    endloop
  endfacet
  facet normal -4.385842e-02 -9.320145e-01  3.597577e-01
    outer loop
      vertex  -2.298601e+01 -3.760004e+00  8.292004e+00
      vertex  -2.319400e+01 -4.120005e+00  7.334003e+00
      vertex  -2.310600e+01 -4.084002e+00  7.438004e+00
    endloop
  endfacet
  facet normal  3.125756e-02 -9.378462e-01  3.456407e-01
    outer loop
      vertex  -2.294601e+01 -3.668009e+00  8.538002e+00
      vertex  -2.319400e+01 -4.120005e+00  7.334003e+00
      vertex  -2.298601e+01 -3.760004e+00  8.292004e+00
    endloop
  endfacet
  facet normal -1.204760e-02 -9.988915e-01  4.550464e-02
    outer loop
      vertex  -2.363200e+01 -4.544008e+00  3.978001e+00
      vertex  -2.370800e+01 -4.546007e+00  3.914001e+00
      vertex  -2.364001e+01 -4.546007e+00  3.932003e+00
    endloop
  endfacet
  facet normal -2.912132e-01 -7.829871e-01  5.496600e-01
    outer loop
      vertex  -3.426801e+01 -2.828006e+00  5.644001e+00
      vertex  -3.421201e+01 -2.700008e+00  5.856003e+00
      vertex  -3.433601e+01 -2.696010e+00  5.796001e+00
    endloop
  endfacet
  facet normal -5.305064e-02 -9.869699e-01  1.519084e-01
    outer loop
      vertex  -3.147000e+01 -4.494006e+00  1.848003e+00
      vertex  -3.117800e+01 -4.498004e+00  1.924004e+00
      vertex  -3.147000e+01 -4.486003e+00  1.900002e+00
    endloop
  endfacet
  facet normal -1.145013e-01 -9.795414e-01  1.654935e-01
    outer loop
      vertex  -3.147000e+01 -4.154010e+00  4.052002e+00
      vertex  -3.260800e+01 -4.294009e+00  2.436001e+00
      vertex  -3.147000e+01 -4.376010e+00  2.738003e+00
    endloop
  endfacet
  facet normal -9.102720e-01 -1.173557e-02 -4.138444e-01
    outer loop
      vertex  -3.367800e+01 -3.698009e+00  4.348003e+00
      vertex  -3.395400e+01 -3.378009e+00  4.946003e+00
      vertex  -3.375001e+01 -3.614009e+00  4.504002e+00
    endloop
  endfacet
  facet normal -2.266488e-01 -8.984115e-01  3.761476e-01
    outer loop
      vertex  -3.367800e+01 -3.698009e+00  4.348003e+00
      vertex  -3.390601e+01 -3.298007e+00  5.166004e+00
      vertex  -3.395400e+01 -3.378009e+00  4.946003e+00
    endloop
  endfacet
  facet normal -2.317012e-01 -8.978297e-01  3.744547e-01
    outer loop
      vertex  -3.390601e+01 -3.298007e+00  5.166004e+00
      vertex  -3.367800e+01 -3.698009e+00  4.348003e+00
      vertex  -3.355200e+01 -3.708003e+00  4.402004e+00
    endloop
  endfacet
  facet normal -1.370542e-01 -1.262675e-01  9.824829e-01
    outer loop
      vertex  -2.266000e+01 -1.100026e-01  1.085000e+01
      vertex  -2.274800e+01  1.099986e-01  1.086600e+01
      vertex  -2.268000e+01 -1.022005e+00  1.073000e+01
    endloop
  endfacet
  facet normal -1.696787e-01 -1.388216e-01  9.756729e-01
    outer loop
      vertex  -2.265800e+01 -1.980826e-06  1.086600e+01
      vertex  -2.274800e+01  1.099986e-01  1.086600e+01
      vertex  -2.266000e+01 -1.100026e-01  1.085000e+01
    endloop
  endfacet
  facet normal -1.337002e-01 -1.261237e-01  9.829634e-01
    outer loop
      vertex  -2.268000e+01 -1.022005e+00  1.073000e+01
      vertex  -2.274800e+01  1.099986e-01  1.086600e+01
      vertex  -2.277200e+01 -1.018007e+00  1.071800e+01
    endloop
  endfacet
  facet normal -2.614152e-02 -9.930966e-01  1.143497e-01
    outer loop
      vertex  -2.349200e+01 -4.502008e+00  4.770004e+00
      vertex  -2.357600e+01 -4.512003e+00  4.664001e+00
      vertex  -2.350600e+01 -4.512003e+00  4.680004e+00
    endloop
  endfacet
  facet normal -1.207751e-01 -9.729562e-01  1.969001e-01
    outer loop
      vertex  -3.260800e+01 -4.294009e+00  2.436001e+00
      vertex  -3.314400e+01 -4.068004e+00  3.224003e+00
      vertex  -3.283401e+01 -4.236003e+00  2.584003e+00
    endloop
  endfacet
  facet normal -1.301882e-01 -9.730136e-01  1.905136e-01
    outer loop
      vertex  -3.260800e+01 -4.294009e+00  2.436001e+00
      vertex  -3.313200e+01 -4.014003e+00  3.508003e+00
      vertex  -3.314400e+01 -4.068004e+00  3.224003e+00
    endloop
  endfacet
  facet normal -1.228846e-01 -9.733108e-01  1.938179e-01
    outer loop
      vertex  -3.283401e+01 -4.236003e+00  2.584003e+00
      vertex  -3.274400e+01 -4.284007e+00  2.400002e+00
      vertex  -3.260800e+01 -4.294009e+00  2.436001e+00
    endloop
  endfacet
  facet normal -1.393835e-01 -3.782578e-01  9.151466e-01
    outer loop
      vertex  -2.504601e+01 -2.072008e+00  9.936005e+00
      vertex  -2.277200e+01 -1.018007e+00  1.071800e+01
      vertex  -2.504601e+01 -1.022005e+00  1.037000e+01
    endloop
  endfacet
  facet normal -4.611704e-03 -9.970469e-01  7.665653e-02
    outer loop
      vertex  -2.818401e+01 -4.584002e+00  2.696003e+00
      vertex  -2.791801e+01 -4.580004e+00  2.764004e+00
      vertex  -2.818401e+01 -4.580004e+00  2.748001e+00
    endloop
  endfacet
  facet normal -2.862097e-01 -7.849327e-01  5.495131e-01
    outer loop
      vertex  -3.409200e+01 -3.168010e+00  5.250004e+00
      vertex  -3.421201e+01 -2.700008e+00  5.856003e+00
      vertex  -3.426801e+01 -2.828006e+00  5.644001e+00
    endloop
  endfacet
  facet normal -3.445643e-01 -7.747664e-01  5.301061e-01
    outer loop
      vertex  -3.403001e+01 -3.290004e+00  5.112003e+00
      vertex  -3.421201e+01 -2.700008e+00  5.856003e+00
      vertex  -3.409200e+01 -3.168010e+00  5.250004e+00
    endloop
  endfacet
  facet normal -2.900889e-01 -7.831237e-01  5.500595e-01
    outer loop
      vertex  -3.421201e+01 -2.700008e+00  5.856003e+00
      vertex  -3.403001e+01 -3.290004e+00  5.112003e+00
      vertex  -3.390601e+01 -3.298007e+00  5.166004e+00
    endloop
  endfacet
  facet normal -1.887678e-03 -9.995058e-01  3.137731e-02
    outer loop
      vertex  -2.569000e+01 -4.566004e+00  3.344002e+00
      vertex  -2.818401e+01 -4.580004e+00  2.748001e+00
      vertex  -2.791801e+01 -4.580004e+00  2.764004e+00
    endloop
  endfacet
  facet normal -3.424384e-02 -9.854563e-01  1.664437e-01
    outer loop
      vertex  -2.504601e+01 -4.560008e+00  3.512001e+00
      vertex  -2.818401e+01 -4.580004e+00  2.748001e+00
      vertex  -2.569000e+01 -4.566004e+00  3.344002e+00
    endloop
  endfacet
  facet normal -2.637973e-03 -9.993121e-01  3.699064e-02
    outer loop
      vertex  -2.504601e+01 -4.558009e+00  3.566002e+00
      vertex  -2.818401e+01 -4.580004e+00  2.748001e+00
      vertex  -2.504601e+01 -4.560008e+00  3.512001e+00
    endloop
  endfacet
  facet normal -8.840647e-02 -9.820032e-01  1.668957e-01
    outer loop
      vertex  -3.224600e+01 -4.436007e+00  1.738003e+00
      vertex  -3.227801e+01 -4.444003e+00  1.674004e+00
      vertex  -3.216601e+01 -4.450007e+00  1.698002e+00
    endloop
  endfacet
  facet normal -1.330086e-03 -9.987228e-01  5.050779e-02
    outer loop
      vertex  -2.370800e+01 -4.546007e+00  3.914001e+00
      vertex  -2.382001e+01 -4.550005e+00  3.832001e+00
      vertex  -2.365000e+01 -4.548006e+00  3.876003e+00
    endloop
  endfacet
  facet normal -9.911653e-03 -9.992498e-01  3.743702e-02
    outer loop
      vertex  -2.365000e+01 -4.548006e+00  3.876003e+00
      vertex  -2.364001e+01 -4.546007e+00  3.932003e+00
      vertex  -2.370800e+01 -4.546007e+00  3.914001e+00
    endloop
  endfacet
  facet normal -4.912976e-02 -9.302552e-01  3.636090e-01
    outer loop
      vertex  -2.310600e+01 -4.084002e+00  7.438004e+00
      vertex  -2.319400e+01 -4.120005e+00  7.334003e+00
      vertex  -2.312000e+01 -4.120005e+00  7.344002e+00
    endloop
  endfacet
  facet normal  0.000000e+00 -9.954891e-01  9.487582e-02
    outer loop
      vertex  -2.357600e+01 -4.512003e+00  4.664001e+00
      vertex  -2.331001e+01 -4.382006e+00  6.028004e+00
      vertex  -2.337801e+01 -4.382006e+00  6.028004e+00
    endloop
  endfacet
  facet normal -1.624792e-03 -9.954621e-01  9.514500e-02
    outer loop
      vertex  -2.335600e+01 -4.412004e+00  5.714001e+00
      vertex  -2.357600e+01 -4.512003e+00  4.664001e+00
      vertex  -2.349200e+01 -4.502008e+00  4.770004e+00
    endloop
  endfacet
  facet normal -4.735512e-03 -9.953904e-01  9.578993e-02
    outer loop
      vertex  -2.331001e+01 -4.382006e+00  6.028004e+00
      vertex  -2.357600e+01 -4.512003e+00  4.664001e+00
      vertex  -2.335600e+01 -4.412004e+00  5.714001e+00
    endloop
  endfacet
  facet normal -1.568035e-01 -1.225004e-01  9.800032e-01
    outer loop
      vertex  -2.265601e+01  1.079921e-01  1.087800e+01
      vertex  -2.270600e+01  1.079921e-01  1.087000e+01
      vertex  -2.265601e+01  4.399674e-02  1.087000e+01
    endloop
  endfacet
  facet normal -1.089616e-01 -8.512466e-02  9.903945e-01
    outer loop
      vertex  -2.265601e+01  4.399674e-02  1.087000e+01
      vertex  -2.270600e+01  1.079921e-01  1.087000e+01
      vertex  -2.265800e+01 -1.980826e-06  1.086600e+01
    endloop
  endfacet
  facet normal -9.834877e-02 -8.046347e-02  9.918936e-01
    outer loop
      vertex  -2.274800e+01  1.099986e-01  1.086600e+01
      vertex  -2.265800e+01 -1.980826e-06  1.086600e+01
      vertex  -2.270600e+01  1.079921e-01  1.087000e+01
    endloop
  endfacet
  facet normal -1.358259e-01 -3.832265e-01  9.136130e-01
    outer loop
      vertex  -2.268000e+01 -1.022005e+00  1.073000e+01
      vertex  -2.277200e+01 -1.018007e+00  1.071800e+01
      vertex  -2.268600e+01 -1.120005e+00  1.068800e+01
    endloop
  endfacet
  facet normal -4.684225e-02 -9.963256e-01  7.170153e-02
    outer loop
      vertex  -2.900201e+01 -4.560008e+00  2.484001e+00
      vertex  -3.147000e+01 -4.486003e+00  1.900002e+00
      vertex  -3.117800e+01 -4.498004e+00  1.924004e+00
    endloop
  endfacet
  facet normal -2.438065e-02 -9.994238e-01 -2.361401e-02
    outer loop
      vertex  -2.821600e+01 -4.584002e+00  2.688004e+00
      vertex  -3.147000e+01 -4.486003e+00  1.900002e+00
      vertex  -2.900201e+01 -4.560008e+00  2.484001e+00
    endloop
  endfacet
  facet normal -2.351601e-01 -2.447361e-01  9.406402e-01
    outer loop
      vertex  -2.818401e+01 -4.584002e+00  2.696003e+00
      vertex  -3.147000e+01 -4.486003e+00  1.900002e+00
      vertex  -2.821600e+01 -4.584002e+00  2.688004e+00
    endloop
  endfacet
  facet normal -4.824876e-02 -9.958963e-01  7.656807e-02
    outer loop
      vertex  -2.818401e+01 -4.580004e+00  2.748001e+00
      vertex  -3.147000e+01 -4.486003e+00  1.900002e+00
      vertex  -2.818401e+01 -4.584002e+00  2.696003e+00
    endloop
  endfacet
  facet normal  0.000000e+00 -9.841867e-01  1.771341e-01
    outer loop
      vertex  -2.329601e+01 -4.364008e+00  6.128002e+00
      vertex  -2.337801e+01 -4.382006e+00  6.028004e+00
      vertex  -2.331001e+01 -4.382006e+00  6.028004e+00
    endloop
  endfacet
  facet normal -1.017691e-01 -9.841501e-01  1.452297e-01
    outer loop
      vertex  -3.224600e+01 -4.436007e+00  1.738003e+00
      vertex  -3.266000e+01 -4.320003e+00  2.234001e+00
      vertex  -3.243401e+01 -4.408008e+00  1.796001e+00
    endloop
  endfacet
  facet normal -9.478444e-02 -9.839762e-01  1.510191e-01
    outer loop
      vertex  -3.224600e+01 -4.436007e+00  1.738003e+00
      vertex  -3.260800e+01 -4.294009e+00  2.436001e+00
      vertex  -3.266000e+01 -4.320003e+00  2.234001e+00
    endloop
  endfacet
  facet normal -9.133846e-02 -9.799601e-01  1.770181e-01
    outer loop
      vertex  -3.243401e+01 -4.408008e+00  1.796001e+00
      vertex  -3.239001e+01 -4.428004e+00  1.708004e+00
      vertex  -3.224600e+01 -4.436007e+00  1.738003e+00
    endloop
  endfacet
endsolid vcg
