solid STL generated by MeshLab
  facet normal -1.044730e-01  9.702680e-01  2.183242e-01
    outer loop
      vertex  -3.473000e+01  4.511998e+00  1.146000e+00
      vertex  -3.473000e+01  4.493997e+00  1.226002e+00
      vertex  -3.389600e+01  4.563996e+00  1.313999e+00
    endloop
  endfacet
  facet normal -1.017910e-01  9.769603e-01  1.875822e-01
    outer loop
      vertex  -3.364001e+01  4.577996e+00  1.380001e+00
      vertex  -3.389600e+01  4.563996e+00  1.313999e+00
      vertex  -3.473000e+01  4.493997e+00  1.226002e+00
    endloop
  endfacet
  facet normal -1.031581e-01  9.746535e-01  1.985168e-01
    outer loop
      vertex  -3.366801e+01  4.561997e+00  1.444000e+00
      vertex  -3.364001e+01  4.577996e+00  1.380001e+00
      vertex  -3.473000e+01  4.493997e+00  1.226002e+00
    endloop
  endfacet
  facet normal -4.428775e-01  7.617573e-02  8.933402e-01
    outer loop
      vertex  -4.356800e+01  1.099968e-01  1.576000e+00
      vertex  -4.239000e+01  1.099969e-01  2.160000e+00
      vertex  -4.351800e+01  1.033997e+00  1.521999e+00
    endloop
  endfacet
  facet normal -4.143763e-01  5.817218e-01  6.999229e-01
    outer loop
      vertex  -3.555400e+01  2.151997e+00  5.748001e+00
      vertex  -3.777801e+01  2.759995e+00  3.925999e+00
      vertex  -3.556400e+01  2.115998e+00  5.771999e+00
    endloop
  endfacet
  facet normal -4.277916e-01  5.609376e-01  7.087618e-01
    outer loop
      vertex  -3.556400e+01  2.115998e+00  5.771999e+00
      vertex  -3.777801e+01  2.759995e+00  3.925999e+00
      vertex  -3.777801e+01  2.059998e+00  4.480000e+00
    endloop
  endfacet
  facet normal -2.356136e-01  8.806499e-01  4.110254e-01
    outer loop
      vertex  -4.021600e+01  3.617996e+00  1.068001e+00
      vertex  -4.024200e+01  3.751995e+00  7.659988e-01
      vertex  -4.160400e+01  3.367996e+00  8.079987e-01
    endloop
  endfacet
  facet normal -1.886535e-01  9.450935e-01  2.668484e-01
    outer loop
      vertex  -3.473601e+01  3.829999e+00  3.933998e+00
      vertex  -3.473000e+01  4.099996e+00  2.981998e+00
      vertex  -3.777801e+01  3.599995e+00  2.598000e+00
    endloop
  endfacet
  facet normal -1.179118e-01  9.555405e-01  2.702574e-01
    outer loop
      vertex  -3.473000e+01  4.099996e+00  2.981998e+00
      vertex  -3.473601e+01  3.829999e+00  3.933998e+00
      vertex  -3.463600e+01  3.903996e+00  3.716000e+00
    endloop
  endfacet
  facet normal -2.719667e-01  8.607152e-01  4.303526e-01
    outer loop
      vertex  -3.777801e+01  3.599995e+00  2.598000e+00
      vertex  -3.777801e+01  3.267998e+00  3.262001e+00
      vertex  -3.505000e+01  3.453995e+00  4.613998e+00
    endloop
  endfacet
  facet normal -2.740022e-01  8.577988e-01  4.348610e-01
    outer loop
      vertex  -3.506200e+01  3.437997e+00  4.638000e+00
      vertex  -3.505000e+01  3.453995e+00  4.613998e+00
      vertex  -3.777801e+01  3.267998e+00  3.262001e+00
    endloop
  endfacet
  facet normal -6.246896e-02  9.980469e-01  0.000000e+00
    outer loop
      vertex  -3.506200e+01  3.437997e+00  4.639999e+00
      vertex  -3.506200e+01  3.437997e+00  4.638000e+00
      vertex  -3.777801e+01  3.267998e+00  3.262001e+00
    endloop
  endfacet
  facet normal -2.369245e-01  8.738500e-01  4.245621e-01
    outer loop
      vertex  -4.021600e+01  3.411995e+00  1.492001e+00
      vertex  -4.021600e+01  3.617996e+00  1.068001e+00
      vertex  -4.160400e+01  3.367996e+00  8.079987e-01
    endloop
  endfacet
  facet normal -3.043934e-01  7.615654e-01  5.721563e-01
    outer loop
      vertex  -4.160400e+01  3.367996e+00  8.079987e-01
      vertex  -4.202600e+01  3.299996e+00  6.739998e-01
      vertex  -4.203600e+01  3.295998e+00  6.739998e-01
    endloop
  endfacet
  facet normal -2.951390e-01  7.989061e-01  5.240628e-01
    outer loop
      vertex  -4.169000e+01  3.431996e+00  6.619987e-01
      vertex  -4.202600e+01  3.299996e+00  6.739998e-01
      vertex  -4.160400e+01  3.367996e+00  8.079987e-01
    endloop
  endfacet
  facet normal -2.935074e-01  8.068079e-01  5.127518e-01
    outer loop
      vertex  -4.160400e+01  3.367996e+00  8.079987e-01
      vertex  -4.203600e+01  3.295998e+00  6.739998e-01
      vertex  -4.225000e+01  3.057995e+00  9.259987e-01
    endloop
  endfacet
  facet normal -5.056896e-01  2.731267e-01  8.183397e-01
    outer loop
      vertex  -3.570400e+01  1.171998e+00  6.057999e+00
      vertex  -3.777801e+01  2.059998e+00  4.480000e+00
      vertex  -3.570400e+01  1.165997e+00  6.060001e+00
    endloop
  endfacet
  facet normal -4.913438e-01  3.032845e-01  8.164556e-01
    outer loop
      vertex  -3.569801e+01  1.213998e+00  6.046001e+00
      vertex  -3.777801e+01  2.059998e+00  4.480000e+00
      vertex  -3.570400e+01  1.171998e+00  6.057999e+00
    endloop
  endfacet
  facet normal -4.925465e-01  3.006978e-01  8.166878e-01
    outer loop
      vertex  -3.570400e+01  1.165997e+00  6.060001e+00
      vertex  -3.777801e+01  2.059998e+00  4.480000e+00
      vertex  -3.777801e+01  1.141995e+00  4.818001e+00
    endloop
  endfacet
  facet normal -2.675524e-01  8.035506e-01  5.317162e-01
    outer loop
      vertex  -4.203600e+01  3.295998e+00  6.739998e-01
      vertex  -4.254200e+01  3.063995e+00  7.700005e-01
      vertex  -4.225000e+01  3.057995e+00  9.259987e-01
    endloop
  endfacet
  facet normal -2.623281e-01  8.631052e-01  4.315476e-01
    outer loop
      vertex  -3.777801e+01  3.267998e+00  3.262001e+00
      vertex  -3.777801e+01  3.599995e+00  2.598000e+00
      vertex  -4.021600e+01  3.411995e+00  1.492001e+00
    endloop
  endfacet
  facet normal -1.283561e-01  9.681534e-01  2.149503e-01
    outer loop
      vertex  -3.719801e+01  4.255997e+00  8.279991e-01
      vertex  -3.777801e+01  4.171998e+00  8.600006e-01
      vertex  -3.555400e+01  4.429997e+00  1.026001e+00
    endloop
  endfacet
  facet normal -1.294986e-01  9.622306e-01  2.394625e-01
    outer loop
      vertex  -3.488600e+01  4.497998e+00  1.113998e+00
      vertex  -3.555400e+01  4.429997e+00  1.026001e+00
      vertex  -3.777801e+01  4.171998e+00  8.600006e-01
    endloop
  endfacet
  facet normal -1.264820e-01  9.734671e-01  1.906940e-01
    outer loop
      vertex  -3.473000e+01  4.511998e+00  1.146000e+00
      vertex  -3.488600e+01  4.497998e+00  1.113998e+00
      vertex  -3.777801e+01  4.171998e+00  8.600006e-01
    endloop
  endfacet
  facet normal -1.283554e-01  9.675367e-01  2.177096e-01
    outer loop
      vertex  -3.473000e+01  4.493997e+00  1.226002e+00
      vertex  -3.473000e+01  4.511998e+00  1.146000e+00
      vertex  -3.777801e+01  4.171998e+00  8.600006e-01
    endloop
  endfacet
  facet normal -4.382768e-01  7.605977e-02  8.956162e-01
    outer loop
      vertex  -4.383200e+01  1.037994e+00  1.368000e+00
      vertex  -4.356800e+01  1.099968e-01  1.576000e+00
      vertex  -4.351800e+01  1.033997e+00  1.521999e+00
    endloop
  endfacet
  facet normal -4.379433e-01  7.618874e-02  8.957683e-01
    outer loop
      vertex  -4.384000e+01  8.979836e-01  1.375999e+00
      vertex  -4.356800e+01  1.099968e-01  1.576000e+00
      vertex  -4.383200e+01  1.037994e+00  1.368000e+00
    endloop
  endfacet
  facet normal -4.368591e-01  7.668653e-02  8.962551e-01
    outer loop
      vertex  -4.385200e+01  6.659966e-01  1.389999e+00
      vertex  -4.356800e+01  1.099968e-01  1.576000e+00
      vertex  -4.384000e+01  8.979836e-01  1.375999e+00
    endloop
  endfacet
  facet normal -3.254307e-01  7.718571e-01  5.461972e-01
    outer loop
      vertex  -3.528201e+01  2.989999e+00  5.141998e+00
      vertex  -3.506200e+01  3.437997e+00  4.639999e+00
      vertex  -3.777801e+01  3.267998e+00  3.262001e+00
    endloop
  endfacet
  facet normal -3.335037e-01  7.617618e-01  5.554225e-01
    outer loop
      vertex  -3.532600e+01  2.891995e+00  5.250000e+00
      vertex  -3.528201e+01  2.989999e+00  5.141998e+00
      vertex  -3.777801e+01  3.267998e+00  3.262001e+00
    endloop
  endfacet
  facet normal -2.799871e-01  7.906939e-01  5.444360e-01
    outer loop
      vertex  -4.186600e+01  3.047997e+00  1.138000e+00
      vertex  -4.160400e+01  3.367996e+00  8.079987e-01
      vertex  -4.225000e+01  3.057995e+00  9.259987e-01
    endloop
  endfacet
  facet normal -4.137725e-01  5.826606e-01  6.994991e-01
    outer loop
      vertex  -3.551801e+01  2.275998e+00  5.666000e+00
      vertex  -3.777801e+01  2.759995e+00  3.925999e+00
      vertex  -3.555400e+01  2.151997e+00  5.748001e+00
    endloop
  endfacet
  facet normal -4.116666e-01  5.862303e-01  6.977568e-01
    outer loop
      vertex  -3.533601e+01  2.867997e+00  5.276001e+00
      vertex  -3.777801e+01  2.759995e+00  3.925999e+00
      vertex  -3.551801e+01  2.275998e+00  5.666000e+00
    endloop
  endfacet
  facet normal -1.931621e-01  9.239453e-01  3.301720e-01
    outer loop
      vertex  -3.473000e+01  4.099996e+00  2.981998e+00
      vertex  -3.777801e+01  3.847996e+00  1.903999e+00
      vertex  -3.777801e+01  3.599995e+00  2.598000e+00
    endloop
  endfacet
  facet normal -3.395896e-01  6.824194e-01  6.472887e-01
    outer loop
      vertex  -4.209400e+01  2.575997e+00  1.515999e+00
      vertex  -4.186600e+01  3.047997e+00  1.138000e+00
      vertex  -4.225000e+01  3.057995e+00  9.259987e-01
    endloop
  endfacet
  facet normal -4.453821e-01  5.556398e-01  7.020678e-01
    outer loop
      vertex  -4.037800e+01  1.989998e+00  2.886002e+00
      vertex  -3.777801e+01  2.059998e+00  4.480000e+00
      vertex  -3.777801e+01  2.759995e+00  3.925999e+00
    endloop
  endfacet
  facet normal -2.139818e-01  8.420376e-01  4.951611e-01
    outer loop
      vertex  -4.079000e+01  3.675995e+00  6.360016e-01
      vertex  -4.169000e+01  3.431996e+00  6.619987e-01
      vertex  -4.160400e+01  3.367996e+00  8.079987e-01
    endloop
  endfacet
  facet normal -2.279586e-01  8.587369e-01  4.589180e-01
    outer loop
      vertex  -4.079000e+01  3.675995e+00  6.360016e-01
      vertex  -4.160400e+01  3.367996e+00  8.079987e-01
      vertex  -4.024200e+01  3.751995e+00  7.659988e-01
    endloop
  endfacet
  facet normal -1.340437e-01  9.506018e-01  2.799796e-01
    outer loop
      vertex  -3.473000e+01  4.493997e+00  1.226002e+00
      vertex  -3.777801e+01  4.171998e+00  8.600006e-01
      vertex  -3.777801e+01  4.085995e+00  1.152000e+00
    endloop
  endfacet
  facet normal -3.837581e-01  5.082853e-01  7.709577e-01
    outer loop
      vertex  -4.320200e+01  2.543995e+00  9.939995e-01
      vertex  -4.330600e+01  1.879997e+00  1.380001e+00
      vertex  -4.289800e+01  2.545998e+00  1.144001e+00
    endloop
  endfacet
  facet normal -3.810596e-01  5.085420e-01  7.721260e-01
    outer loop
      vertex  -4.330600e+01  1.879997e+00  1.380001e+00
      vertex  -4.320200e+01  2.543995e+00  9.939995e-01
      vertex  -4.327200e+01  2.445995e+00  1.023998e+00
    endloop
  endfacet
  facet normal -3.705317e-01  5.103683e-01  7.760351e-01
    outer loop
      vertex  -4.327200e+01  2.445995e+00  1.023998e+00
      vertex  -4.339800e+01  2.241997e+00  1.098000e+00
      vertex  -4.330600e+01  1.879997e+00  1.380001e+00
    endloop
  endfacet
  facet normal -1.854545e-01  8.921904e-01  4.118287e-01
    outer loop
      vertex  -3.777801e+01  4.085995e+00  1.152000e+00
      vertex  -4.024200e+01  3.751995e+00  7.659988e-01
      vertex  -4.021600e+01  3.617996e+00  1.068001e+00
    endloop
  endfacet
  facet normal -1.454215e-01  9.068435e-01  3.955849e-01
    outer loop
      vertex  -4.024200e+01  3.751995e+00  7.659988e-01
      vertex  -3.957001e+01  3.905995e+00  6.599998e-01
      vertex  -4.024800e+01  3.805996e+00  6.399994e-01
    endloop
  endfacet
  facet normal -4.096920e-01  5.322751e-01  7.408344e-01
    outer loop
      vertex  -4.209400e+01  2.575997e+00  1.515999e+00
      vertex  -4.037800e+01  1.989998e+00  2.886002e+00
      vertex  -4.032600e+01  2.647995e+00  2.442001e+00
    endloop
  endfacet
  facet normal -3.256489e-01  6.882032e-01  6.483279e-01
    outer loop
      vertex  -4.209400e+01  2.575997e+00  1.515999e+00
      vertex  -4.225000e+01  3.057995e+00  9.259987e-01
      vertex  -4.289800e+01  2.545998e+00  1.144001e+00
    endloop
  endfacet
  facet normal -1.522664e-01  9.595386e-01  2.368560e-01
    outer loop
      vertex  -3.437000e+01  4.127995e+00  3.099998e+00
      vertex  -3.436001e+01  4.135999e+00  3.074001e+00
      vertex  -3.473000e+01  4.099996e+00  2.981998e+00
    endloop
  endfacet
  facet normal -1.492831e-01  9.635017e-01  2.222141e-01
    outer loop
      vertex  -3.473000e+01  4.099996e+00  2.981998e+00
      vertex  -3.430200e+01  4.175996e+00  2.939999e+00
      vertex  -3.473000e+01  4.355996e+00  1.872002e+00
    endloop
  endfacet
  facet normal -1.491818e-01  9.633446e-01  2.229620e-01
    outer loop
      vertex  -3.430200e+01  4.175996e+00  2.939999e+00
      vertex  -3.473000e+01  4.099996e+00  2.981998e+00
      vertex  -3.436001e+01  4.135999e+00  3.074001e+00
    endloop
  endfacet
  facet normal -3.846883e-01  5.086141e-01  7.702770e-01
    outer loop
      vertex  -4.330600e+01  1.879997e+00  1.380001e+00
      vertex  -4.229600e+01  1.919994e+00  1.858002e+00
      vertex  -4.289800e+01  2.545998e+00  1.144001e+00
    endloop
  endfacet
  facet normal -4.842035e-01  8.080668e-02  8.712160e-01
    outer loop
      vertex  -4.239000e+01  1.099969e-01  2.160000e+00
      vertex  -4.040000e+01  1.099971e-01  3.265999e+00
      vertex  -4.237800e+01  1.065998e+00  2.077999e+00
    endloop
  endfacet
  facet normal -3.904070e-01  5.019794e-01  7.717507e-01
    outer loop
      vertex  -4.361200e+01  1.887997e+00  1.220001e+00
      vertex  -4.330600e+01  1.879997e+00  1.380001e+00
      vertex  -4.339800e+01  2.241997e+00  1.098000e+00
    endloop
  endfacet
  facet normal -3.942360e-01  4.885374e-01  7.784017e-01
    outer loop
      vertex  -4.362200e+01  1.863995e+00  1.230000e+00
      vertex  -4.330600e+01  1.879997e+00  1.380001e+00
      vertex  -4.361200e+01  1.887997e+00  1.220001e+00
    endloop
  endfacet
  facet normal -3.477144e-01  7.446603e-01  5.697156e-01
    outer loop
      vertex  -3.777801e+01  3.267998e+00  3.262001e+00
      vertex  -3.777801e+01  2.759995e+00  3.925999e+00
      vertex  -3.532600e+01  2.891995e+00  5.250000e+00
    endloop
  endfacet
  facet normal -3.439029e-01  7.523354e-01  5.618916e-01
    outer loop
      vertex  -3.533601e+01  2.867997e+00  5.276001e+00
      vertex  -3.532600e+01  2.891995e+00  5.250000e+00
      vertex  -3.777801e+01  2.759995e+00  3.925999e+00
    endloop
  endfacet
  facet normal -5.118953e-01  1.033143e-01  8.528126e-01
    outer loop
      vertex  -3.570400e+01  1.165997e+00  6.060001e+00
      vertex  -3.777801e+01  1.141995e+00  4.818001e+00
      vertex  -3.576801e+01  1.719939e-01  6.141998e+00
    endloop
  endfacet
  facet normal -2.880414e-01  8.120066e-01  5.076195e-01
    outer loop
      vertex  -4.025600e+01  3.113995e+00  1.945999e+00
      vertex  -4.021600e+01  3.411995e+00  1.492001e+00
      vertex  -4.186600e+01  3.047997e+00  1.138000e+00
    endloop
  endfacet
  facet normal -2.362725e-01  8.924457e-01  3.843381e-01
    outer loop
      vertex  -3.499600e+01  3.519997e+00  4.493999e+00
      vertex  -3.473601e+01  3.829999e+00  3.933998e+00
      vertex  -3.777801e+01  3.599995e+00  2.598000e+00
    endloop
  endfacet
  facet normal -2.363572e-01  8.923712e-01  3.844592e-01
    outer loop
      vertex  -3.505000e+01  3.453995e+00  4.613998e+00
      vertex  -3.499600e+01  3.519997e+00  4.493999e+00
      vertex  -3.777801e+01  3.599995e+00  2.598000e+00
    endloop
  endfacet
  facet normal -3.227987e-01  6.927032e-01  6.449521e-01
    outer loop
      vertex  -4.284400e+01  2.829998e+00  8.660011e-01
      vertex  -4.320200e+01  2.543995e+00  9.939995e-01
      vertex  -4.289800e+01  2.545998e+00  1.144001e+00
    endloop
  endfacet
  facet normal -5.343536e-01  9.441347e-02  8.399715e-01
    outer loop
      vertex  -4.040000e+01  1.099971e-01  3.265999e+00
      vertex  -3.777801e+01  1.099973e-01  4.933998e+00
      vertex  -3.777801e+01  1.141995e+00  4.818001e+00
    endloop
  endfacet
  facet normal -2.171894e-01  8.934117e-01  3.932483e-01
    outer loop
      vertex  -4.024200e+01  3.751995e+00  7.659988e-01
      vertex  -4.024800e+01  3.805996e+00  6.399994e-01
      vertex  -4.079000e+01  3.675995e+00  6.360016e-01
    endloop
  endfacet
  facet normal -1.716597e-01  9.436970e-01  2.827875e-01
    outer loop
      vertex  -4.024200e+01  3.751995e+00  7.659988e-01
      vertex  -3.777801e+01  4.201996e+00  7.599983e-01
      vertex  -3.957001e+01  3.905995e+00  6.599998e-01
    endloop
  endfacet
  facet normal -1.716443e-01  9.436162e-01  2.830669e-01
    outer loop
      vertex  -3.777801e+01  4.201996e+00  7.599983e-01
      vertex  -4.024200e+01  3.751995e+00  7.659988e-01
      vertex  -3.777801e+01  4.171998e+00  8.600006e-01
    endloop
  endfacet
  facet normal -4.632558e-01  2.625341e-01  8.464455e-01
    outer loop
      vertex  -4.237800e+01  1.065998e+00  2.077999e+00
      vertex  -4.037800e+01  1.989998e+00  2.886002e+00
      vertex  -4.229600e+01  1.919994e+00  1.858002e+00
    endloop
  endfacet
  facet normal -1.635260e-01  9.477220e-01  2.740114e-01
    outer loop
      vertex  -3.463600e+01  3.903996e+00  3.716000e+00
      vertex  -3.437000e+01  4.127995e+00  3.099998e+00
      vertex  -3.473000e+01  4.099996e+00  2.981998e+00
    endloop
  endfacet
  facet normal -4.836850e-01  3.192849e-01  8.149270e-01
    outer loop
      vertex  -3.567400e+01  1.377995e+00  5.995998e+00
      vertex  -3.777801e+01  2.059998e+00  4.480000e+00
      vertex  -3.569801e+01  1.213998e+00  6.046001e+00
    endloop
  endfacet
  facet normal -4.836249e-01  3.194262e-01  8.149073e-01
    outer loop
      vertex  -3.556400e+01  2.115998e+00  5.771999e+00
      vertex  -3.777801e+01  2.059998e+00  4.480000e+00
      vertex  -3.567400e+01  1.377995e+00  5.995998e+00
    endloop
  endfacet
  facet normal -5.278599e-01  6.235329e-02  8.470395e-01
    outer loop
      vertex  -3.576801e+01  1.719939e-01  6.141998e+00
      vertex  -3.777801e+01  1.141995e+00  4.818001e+00
      vertex  -3.577000e+01  1.279952e-01  6.144001e+00
    endloop
  endfacet
  facet normal -5.519892e-01  0.000000e+00  8.338513e-01
    outer loop
      vertex  -3.777801e+01  1.141995e+00  4.818001e+00
      vertex  -3.577200e+01  1.079833e-01  6.146000e+00
      vertex  -3.577200e+01  1.099975e-01  6.146000e+00
    endloop
  endfacet
  facet normal -4.909331e-01  1.500459e-01  8.581789e-01
    outer loop
      vertex  -3.577000e+01  1.279952e-01  6.144001e+00
      vertex  -3.777801e+01  1.141995e+00  4.818001e+00
      vertex  -3.577200e+01  1.099975e-01  6.146000e+00
    endloop
  endfacet
  facet normal -5.150920e-01  9.479123e-02  8.518772e-01
    outer loop
      vertex  -3.577200e+01  1.079833e-01  6.146000e+00
      vertex  -3.777801e+01  1.141995e+00  4.818001e+00
      vertex  -3.632401e+01  1.099974e-01  5.812000e+00
    endloop
  endfacet
  facet normal -5.145439e-01  9.577653e-02  8.520983e-01
    outer loop
      vertex  -3.632401e+01  1.099974e-01  5.812000e+00
      vertex  -3.777801e+01  1.141995e+00  4.818001e+00
      vertex  -3.777801e+01  1.099973e-01  4.933998e+00
    endloop
  endfacet
  facet normal -4.298118e-01  2.531779e-01  8.666965e-01
    outer loop
      vertex  -4.351800e+01  1.033997e+00  1.521999e+00
      vertex  -4.237800e+01  1.065998e+00  2.077999e+00
      vertex  -4.330600e+01  1.879997e+00  1.380001e+00
    endloop
  endfacet
  facet normal -1.898905e-01  9.360444e-01  2.962472e-01
    outer loop
      vertex  -3.777801e+01  3.847996e+00  1.903999e+00
      vertex  -3.777801e+01  4.085995e+00  1.152000e+00
      vertex  -4.021600e+01  3.617996e+00  1.068001e+00
    endloop
  endfacet
  facet normal -4.414079e-01  7.370056e-02  8.942747e-01
    outer loop
      vertex  -4.388000e+01  1.099968e-01  1.422001e+00
      vertex  -4.356800e+01  1.099968e-01  1.576000e+00
      vertex  -4.385200e+01  6.659966e-01  1.389999e+00
    endloop
  endfacet
  facet normal -5.322039e-01  8.546254e-02  8.422917e-01
    outer loop
      vertex  -4.040000e+01  1.099971e-01  3.265999e+00
      vertex  -3.777801e+01  1.141995e+00  4.818001e+00
      vertex  -4.039800e+01  1.107998e+00  3.166000e+00
    endloop
  endfacet
  facet normal -1.347371e-01  9.690175e-01  2.070045e-01
    outer loop
      vertex  -3.473000e+01  4.355996e+00  1.872002e+00
      vertex  -3.473000e+01  4.493997e+00  1.226002e+00
      vertex  -3.777801e+01  4.085995e+00  1.152000e+00
    endloop
  endfacet
  facet normal -1.824265e-01  9.373927e-01  2.966739e-01
    outer loop
      vertex  -3.473000e+01  4.099996e+00  2.981998e+00
      vertex  -3.777801e+01  4.085995e+00  1.152000e+00
      vertex  -3.777801e+01  3.847996e+00  1.903999e+00
    endloop
  endfacet
  facet normal -4.387403e-01  8.226240e-02  8.948407e-01
    outer loop
      vertex  -4.351800e+01  1.033997e+00  1.521999e+00
      vertex  -4.239000e+01  1.099969e-01  2.160000e+00
      vertex  -4.237800e+01  1.065998e+00  2.077999e+00
    endloop
  endfacet
  facet normal -4.187307e-01  5.178508e-01  7.459860e-01
    outer loop
      vertex  -4.229600e+01  1.919994e+00  1.858002e+00
      vertex  -4.037800e+01  1.989998e+00  2.886002e+00
      vertex  -4.209400e+01  2.575997e+00  1.515999e+00
    endloop
  endfacet
  facet normal -4.253384e-01  2.524618e-01  8.691090e-01
    outer loop
      vertex  -4.330600e+01  1.879997e+00  1.380001e+00
      vertex  -4.362200e+01  1.863995e+00  1.230000e+00
      vertex  -4.351800e+01  1.033997e+00  1.521999e+00
    endloop
  endfacet
  facet normal -4.271888e-01  2.519616e-01  8.683462e-01
    outer loop
      vertex  -4.365200e+01  1.757996e+00  1.245998e+00
      vertex  -4.351800e+01  1.033997e+00  1.521999e+00
      vertex  -4.362200e+01  1.863995e+00  1.230000e+00
    endloop
  endfacet
  facet normal -4.243267e-01  2.529198e-01  8.694702e-01
    outer loop
      vertex  -4.371800e+01  1.495995e+00  1.290001e+00
      vertex  -4.351800e+01  1.033997e+00  1.521999e+00
      vertex  -4.365200e+01  1.757996e+00  1.245998e+00
    endloop
  endfacet
  facet normal -3.499048e-01  6.827241e-01  6.414471e-01
    outer loop
      vertex  -4.025600e+01  3.113995e+00  1.945999e+00
      vertex  -4.186600e+01  3.047997e+00  1.138000e+00
      vertex  -4.209400e+01  2.575997e+00  1.515999e+00
    endloop
  endfacet
  facet normal -4.811355e-01  8.835521e-02  8.721823e-01
    outer loop
      vertex  -4.237800e+01  1.065998e+00  2.077999e+00
      vertex  -4.040000e+01  1.099971e-01  3.265999e+00
      vertex  -4.039800e+01  1.107998e+00  3.166000e+00
    endloop
  endfacet
  facet normal -4.455449e-01  5.246878e-01  7.253912e-01
    outer loop
      vertex  -4.037800e+01  1.989998e+00  2.886002e+00
      vertex  -3.777801e+01  2.759995e+00  3.925999e+00
      vertex  -4.032600e+01  2.647995e+00  2.442001e+00
    endloop
  endfacet
  facet normal -1.717017e-01  9.450127e-01  2.783335e-01
    outer loop
      vertex  -3.777801e+01  4.085995e+00  1.152000e+00
      vertex  -3.777801e+01  4.171998e+00  8.600006e-01
      vertex  -4.024200e+01  3.751995e+00  7.659988e-01
    endloop
  endfacet
  facet normal -1.380683e-01  9.650882e-01  2.225800e-01
    outer loop
      vertex  -3.473000e+01  4.099996e+00  2.981998e+00
      vertex  -3.473000e+01  4.355996e+00  1.872002e+00
      vertex  -3.777801e+01  4.085995e+00  1.152000e+00
    endloop
  endfacet
  facet normal -2.585106e-01  8.688853e-01  4.221500e-01
    outer loop
      vertex  -3.777801e+01  3.599995e+00  2.598000e+00
      vertex  -4.021600e+01  3.617996e+00  1.068001e+00
      vertex  -4.021600e+01  3.411995e+00  1.492001e+00
    endloop
  endfacet
  facet normal -5.047015e-01  2.982819e-01  8.101261e-01
    outer loop
      vertex  -4.037800e+01  1.989998e+00  2.886002e+00
      vertex  -3.777801e+01  1.141995e+00  4.818001e+00
      vertex  -3.777801e+01  2.059998e+00  4.480000e+00
    endloop
  endfacet
  facet normal -3.161280e-01  8.056577e-01  5.009778e-01
    outer loop
      vertex  -3.777801e+01  3.267998e+00  3.262001e+00
      vertex  -4.021600e+01  3.411995e+00  1.492001e+00
      vertex  -4.025600e+01  3.113995e+00  1.945999e+00
    endloop
  endfacet
  facet normal -3.753131e-01  5.167378e-01  7.694948e-01
    outer loop
      vertex  -4.289800e+01  2.545998e+00  1.144001e+00
      vertex  -4.229600e+01  1.919994e+00  1.858002e+00
      vertex  -4.209400e+01  2.575997e+00  1.515999e+00
    endloop
  endfacet
  facet normal -5.160883e-01  2.697803e-01  8.129401e-01
    outer loop
      vertex  -4.039800e+01  1.107998e+00  3.166000e+00
      vertex  -3.777801e+01  1.141995e+00  4.818001e+00
      vertex  -4.037800e+01  1.989998e+00  2.886002e+00
    endloop
  endfacet
  facet normal -1.298789e-01  9.676642e-01  2.162348e-01
    outer loop
      vertex  -3.426401e+01  4.199998e+00  2.849998e+00
      vertex  -3.393001e+01  4.415998e+00  2.084000e+00
      vertex  -3.473000e+01  4.355996e+00  1.872002e+00
    endloop
  endfacet
  facet normal -1.157899e-01  9.708154e-01  2.100243e-01
    outer loop
      vertex  -3.430200e+01  4.175996e+00  2.939999e+00
      vertex  -3.426401e+01  4.199998e+00  2.849998e+00
      vertex  -3.473000e+01  4.355996e+00  1.872002e+00
    endloop
  endfacet
  facet normal -9.979671e-02  9.784125e-01  1.809688e-01
    outer loop
      vertex  -3.385201e+01  4.459996e+00  1.894001e+00
      vertex  -3.366801e+01  4.561997e+00  1.444000e+00
      vertex  -3.473000e+01  4.493997e+00  1.226002e+00
    endloop
  endfacet
  facet normal -9.117730e-02  9.812543e-01  1.697844e-01
    outer loop
      vertex  -3.389800e+01  4.435998e+00  2.007999e+00
      vertex  -3.385201e+01  4.459996e+00  1.894001e+00
      vertex  -3.473000e+01  4.493997e+00  1.226002e+00
    endloop
  endfacet
  facet normal -3.487052e-01  7.443679e-01  5.694919e-01
    outer loop
      vertex  -3.777801e+01  2.759995e+00  3.925999e+00
      vertex  -3.777801e+01  3.267998e+00  3.262001e+00
      vertex  -4.025600e+01  3.113995e+00  1.945999e+00
    endloop
  endfacet
  facet normal -4.269887e-01  2.513425e-01  8.686240e-01
    outer loop
      vertex  -4.383000e+01  1.049995e+00  1.363998e+00
      vertex  -4.351800e+01  1.033997e+00  1.521999e+00
      vertex  -4.371800e+01  1.495995e+00  1.290001e+00
    endloop
  endfacet
  facet normal -4.090198e-01  3.492337e-01  8.430531e-01
    outer loop
      vertex  -4.383200e+01  1.037994e+00  1.368000e+00
      vertex  -4.351800e+01  1.033997e+00  1.521999e+00
      vertex  -4.383000e+01  1.049995e+00  1.363998e+00
    endloop
  endfacet
  facet normal -3.822471e-01  6.997707e-01  6.034966e-01
    outer loop
      vertex  -3.777801e+01  2.759995e+00  3.925999e+00
      vertex  -4.025600e+01  3.113995e+00  1.945999e+00
      vertex  -4.032600e+01  2.647995e+00  2.442001e+00
    endloop
  endfacet
  facet normal -4.211258e-01  2.639741e-01  8.677389e-01
    outer loop
      vertex  -4.330600e+01  1.879997e+00  1.380001e+00
      vertex  -4.237800e+01  1.065998e+00  2.077999e+00
      vertex  -4.229600e+01  1.919994e+00  1.858002e+00
    endloop
  endfacet
  facet normal -1.323505e-01  9.605379e-01  2.446434e-01
    outer loop
      vertex  -3.390800e+01  4.427999e+00  2.034000e+00
      vertex  -3.389800e+01  4.435998e+00  2.007999e+00
      vertex  -3.473000e+01  4.355996e+00  1.872002e+00
    endloop
  endfacet
  facet normal -1.211494e-01  9.760053e-01  1.809324e-01
    outer loop
      vertex  -3.393001e+01  4.415998e+00  2.084000e+00
      vertex  -3.390800e+01  4.427999e+00  2.034000e+00
      vertex  -3.473000e+01  4.355996e+00  1.872002e+00
    endloop
  endfacet
  facet normal -1.271421e-01  9.699985e-01  2.072141e-01
    outer loop
      vertex  -3.473000e+01  4.493997e+00  1.226002e+00
      vertex  -3.473000e+01  4.355996e+00  1.872002e+00
      vertex  -3.389800e+01  4.435998e+00  2.007999e+00
    endloop
  endfacet
  facet normal -3.316523e-01  6.913763e-01  6.418767e-01
    outer loop
      vertex  -4.254200e+01  3.063995e+00  7.700005e-01
      vertex  -4.284400e+01  2.829998e+00  8.660011e-01
      vertex  -4.289800e+01  2.545998e+00  1.144001e+00
    endloop
  endfacet
  facet normal -3.295210e-01  6.909974e-01  6.433806e-01
    outer loop
      vertex  -4.254200e+01  3.063995e+00  7.700005e-01
      vertex  -4.289800e+01  2.545998e+00  1.144001e+00
      vertex  -4.225000e+01  3.057995e+00  9.259987e-01
    endloop
  endfacet
  facet normal -4.672263e-01  2.771299e-01  8.395824e-01
    outer loop
      vertex  -4.237800e+01  1.065998e+00  2.077999e+00
      vertex  -4.039800e+01  1.107998e+00  3.166000e+00
      vertex  -4.037800e+01  1.989998e+00  2.886002e+00
    endloop
  endfacet
  facet normal -2.000979e-01  9.226354e-01  3.297039e-01
    outer loop
      vertex  -3.777801e+01  3.599995e+00  2.598000e+00
      vertex  -3.777801e+01  3.847996e+00  1.903999e+00
      vertex  -4.021600e+01  3.617996e+00  1.068001e+00
    endloop
  endfacet
  facet normal -1.219505e-01  9.506823e-01  2.851866e-01
    outer loop
      vertex  -3.777801e+01  4.171998e+00  8.600006e-01
      vertex  -3.719801e+01  4.255997e+00  8.279991e-01
      vertex  -3.777801e+01  4.201996e+00  7.599983e-01
    endloop
  endfacet
  facet normal -3.506243e-01  7.067252e-01  6.144934e-01
    outer loop
      vertex  -4.032600e+01  2.647995e+00  2.442001e+00
      vertex  -4.025600e+01  3.113995e+00  1.945999e+00
      vertex  -4.209400e+01  2.575997e+00  1.515999e+00
    endloop
  endfacet
  facet normal -2.900038e-01  7.917940e-01  5.375501e-01
    outer loop
      vertex  -4.021600e+01  3.411995e+00  1.492001e+00
      vertex  -4.160400e+01  3.367996e+00  8.079987e-01
      vertex  -4.186600e+01  3.047997e+00  1.138000e+00
    endloop
  endfacet
  facet normal -1.057179e-01 -9.733900e-01  2.033115e-01
    outer loop
      vertex  -3.364201e+01 -4.362002e+00  1.380001e+00
      vertex  -3.473000e+01 -4.276004e+00  1.226002e+00
      vertex  -3.389400e+01 -4.348002e+00  1.316002e+00
    endloop
  endfacet
  facet normal -1.065957e-01 -9.711664e-01  2.132446e-01
    outer loop
      vertex  -3.473000e+01 -4.294009e+00  1.144001e+00
      vertex  -3.389400e+01 -4.348002e+00  1.316002e+00
      vertex  -3.473000e+01 -4.276004e+00  1.226002e+00
    endloop
  endfacet
  facet normal -1.087444e-01 -9.675846e-01  2.279359e-01
    outer loop
      vertex  -3.366801e+01 -4.344005e+00  1.444000e+00
      vertex  -3.473000e+01 -4.276004e+00  1.226002e+00
      vertex  -3.364201e+01 -4.362002e+00  1.380001e+00
    endloop
  endfacet
  facet normal -4.429151e-01 -7.506134e-02  8.934160e-01
    outer loop
      vertex  -4.356800e+01  1.099968e-01  1.576000e+00
      vertex  -4.352000e+01 -8.160057e-01  1.521999e+00
      vertex  -4.239000e+01  1.099969e-01  2.160000e+00
    endloop
  endfacet
  facet normal -2.348788e-01 -8.785799e-01  4.158478e-01
    outer loop
      vertex  -4.021600e+01 -3.398006e+00  1.068001e+00
      vertex  -4.160400e+01 -3.150005e+00  8.079987e-01
      vertex  -4.024200e+01 -3.534000e+00  7.659988e-01
    endloop
  endfacet
  facet normal -4.140877e-01 -5.816240e-01  7.001749e-01
    outer loop
      vertex  -3.777801e+01 -2.544010e+00  3.925999e+00
      vertex  -3.555400e+01 -1.934016e+00  5.748001e+00
      vertex  -3.556400e+01 -1.898006e+00  5.771999e+00
    endloop
  endfacet
  facet normal -4.273790e-01 -5.610550e-01  7.089179e-01
    outer loop
      vertex  -3.777801e+01 -2.544010e+00  3.925999e+00
      vertex  -3.556400e+01 -1.898006e+00  5.771999e+00
      vertex  -3.777801e+01 -1.844005e+00  4.480000e+00
    endloop
  endfacet
  facet normal -1.892899e-01 -9.448320e-01  2.673237e-01
    outer loop
      vertex  -3.473000e+01 -3.884006e+00  2.981998e+00
      vertex  -3.473601e+01 -3.614017e+00  3.931999e+00
      vertex  -3.777801e+01 -3.382007e+00  2.598000e+00
    endloop
  endfacet
  facet normal -1.028040e-01 -9.569822e-01  2.713234e-01
    outer loop
      vertex  -3.473601e+01 -3.614017e+00  3.931999e+00
      vertex  -3.473000e+01 -3.884006e+00  2.981998e+00
      vertex  -3.463600e+01 -3.686000e+00  3.716000e+00
    endloop
  endfacet
  facet normal -2.628792e-01 -8.613978e-01  4.346128e-01
    outer loop
      vertex  -3.777801e+01 -3.048000e+00  3.259998e+00
      vertex  -4.021600e+01 -3.196010e+00  1.492001e+00
      vertex  -3.777801e+01 -3.382007e+00  2.598000e+00
    endloop
  endfacet
  facet normal -2.820410e-01 -7.909286e-01  5.430329e-01
    outer loop
      vertex  -4.186600e+01 -2.830005e+00  1.138000e+00
      vertex  -4.225000e+01 -2.840000e+00  9.239998e-01
      vertex  -4.160400e+01 -3.150005e+00  8.079987e-01
    endloop
  endfacet
  facet normal -3.043934e-01 -7.615654e-01  5.721563e-01
    outer loop
      vertex  -4.160400e+01 -3.150005e+00  8.079987e-01
      vertex  -4.203600e+01 -3.078007e+00  6.739998e-01
      vertex  -4.202600e+01 -3.082004e+00  6.739998e-01
    endloop
  endfacet
  facet normal -2.980739e-01 -8.053415e-01  5.124226e-01
    outer loop
      vertex  -4.202600e+01 -3.082004e+00  6.739998e-01
      vertex  -4.188600e+01 -3.144001e+00  6.580009e-01
      vertex  -4.169000e+01 -3.214000e+00  6.619987e-01
    endloop
  endfacet
  facet normal -2.951356e-01 -7.989188e-01  5.240455e-01
    outer loop
      vertex  -4.169000e+01 -3.214000e+00  6.619987e-01
      vertex  -4.160400e+01 -3.150005e+00  8.079987e-01
      vertex  -4.202600e+01 -3.082004e+00  6.739998e-01
    endloop
  endfacet
  facet normal -2.939374e-01 -8.052251e-01  5.149887e-01
    outer loop
      vertex  -4.203600e+01 -3.078007e+00  6.739998e-01
      vertex  -4.160400e+01 -3.150005e+00  8.079987e-01
      vertex  -4.225000e+01 -2.840000e+00  9.239998e-01
    endloop
  endfacet
  facet normal -4.303729e-01 -4.320155e-01  7.925540e-01
    outer loop
      vertex  -3.506400e+01 -3.220004e+00  4.639999e+00
      vertex  -3.777801e+01 -3.048000e+00  3.259998e+00
      vertex  -3.506200e+01 -3.222003e+00  4.639999e+00
    endloop
  endfacet
  facet normal -3.266903e-01 -7.712039e-01  5.463680e-01
    outer loop
      vertex  -3.528201e+01 -2.772006e+00  5.141998e+00
      vertex  -3.777801e+01 -3.048000e+00  3.259998e+00
      vertex  -3.506400e+01 -3.220004e+00  4.639999e+00
    endloop
  endfacet
  facet normal -3.267005e-01 -7.711914e-01  5.463796e-01
    outer loop
      vertex  -3.532800e+01 -2.676006e+00  5.250000e+00
      vertex  -3.777801e+01 -3.048000e+00  3.259998e+00
      vertex  -3.528201e+01 -2.772006e+00  5.141998e+00
    endloop
  endfacet
  facet normal -2.659319e-01 -8.015797e-01  5.354906e-01
    outer loop
      vertex  -4.254200e+01 -2.846004e+00  7.700005e-01
      vertex  -4.203600e+01 -3.078007e+00  6.739998e-01
      vertex  -4.225000e+01 -2.840000e+00  9.239998e-01
    endloop
  endfacet
  facet normal -2.350930e-01 -8.774827e-01  4.180377e-01
    outer loop
      vertex  -4.021600e+01 -3.196010e+00  1.492001e+00
      vertex  -4.160400e+01 -3.150005e+00  8.079987e-01
      vertex  -4.021600e+01 -3.398006e+00  1.068001e+00
    endloop
  endfacet
  facet normal -4.125991e-01 -5.839333e-01  6.991308e-01
    outer loop
      vertex  -3.777801e+01 -2.544010e+00  3.925999e+00
      vertex  -3.551801e+01 -2.060016e+00  5.664001e+00
      vertex  -3.555400e+01 -1.934016e+00  5.748001e+00
    endloop
  endfacet
  facet normal -4.119217e-01 -5.850816e-01  6.985700e-01
    outer loop
      vertex  -3.777801e+01 -2.544010e+00  3.925999e+00
      vertex  -3.533801e+01 -2.650005e+00  5.276001e+00
      vertex  -3.551801e+01 -2.060016e+00  5.664001e+00
    endloop
  endfacet
  facet normal -2.747628e-01 -8.584366e-01  4.331188e-01
    outer loop
      vertex  -3.777801e+01 -3.382007e+00  2.598000e+00
      vertex  -3.505000e+01 -3.238010e+00  4.613998e+00
      vertex  -3.777801e+01 -3.048000e+00  3.259998e+00
    endloop
  endfacet
  facet normal -2.753230e-01 -8.576293e-01  4.343607e-01
    outer loop
      vertex  -3.506200e+01 -3.222003e+00  4.638000e+00
      vertex  -3.777801e+01 -3.048000e+00  3.259998e+00
      vertex  -3.505000e+01 -3.238010e+00  4.613998e+00
    endloop
  endfacet
  facet normal -6.393471e-02 -9.979541e-01 -0.000000e+00
    outer loop
      vertex  -3.506200e+01 -3.222003e+00  4.639999e+00
      vertex  -3.777801e+01 -3.048000e+00  3.259998e+00
      vertex  -3.506200e+01 -3.222003e+00  4.638000e+00
    endloop
  endfacet
  facet normal -1.716818e-01 -9.323912e-01  3.180757e-01
    outer loop
      vertex  -3.799200e+01 -3.954006e+00  7.319984e-01
      vertex  -3.957001e+01 -3.688007e+00  6.599998e-01
      vertex  -3.854000e+01 -3.864017e+00  7.000008e-01
    endloop
  endfacet
  facet normal -1.717561e-01 -9.346822e-01  3.112380e-01
    outer loop
      vertex  -3.777801e+01 -3.984004e+00  7.599983e-01
      vertex  -3.957001e+01 -3.688007e+00  6.599998e-01
      vertex  -3.799200e+01 -3.954006e+00  7.319984e-01
    endloop
  endfacet
  facet normal -1.716579e-01 -9.436808e-01  2.828432e-01
    outer loop
      vertex  -4.024200e+01 -3.534000e+00  7.659988e-01
      vertex  -3.957001e+01 -3.688007e+00  6.599998e-01
      vertex  -3.777801e+01 -3.984004e+00  7.599983e-01
    endloop
  endfacet
  facet normal -1.716455e-01 -9.436160e-01  2.830668e-01
    outer loop
      vertex  -3.777801e+01 -3.984004e+00  7.599983e-01
      vertex  -3.777801e+01 -3.954006e+00  8.600006e-01
      vertex  -4.024200e+01 -3.534000e+00  7.659988e-01
    endloop
  endfacet
  facet normal -4.405831e-01 -7.500790e-02  8.945727e-01
    outer loop
      vertex  -4.356800e+01  1.099968e-01  1.576000e+00
      vertex  -4.383200e+01 -8.200035e-01  1.368000e+00
      vertex  -4.352000e+01 -8.160057e-01  1.521999e+00
    endloop
  endfacet
  facet normal -4.375402e-01 -7.618323e-02  8.959658e-01
    outer loop
      vertex  -4.356800e+01  1.099968e-01  1.576000e+00
      vertex  -4.384000e+01 -6.800041e-01  1.375999e+00
      vertex  -4.383200e+01 -8.200035e-01  1.368000e+00
    endloop
  endfacet
  facet normal -4.378235e-01 -7.605352e-02  8.958384e-01
    outer loop
      vertex  -4.356800e+01  1.099968e-01  1.576000e+00
      vertex  -4.385200e+01 -4.460106e-01  1.389999e+00
      vertex  -4.384000e+01 -6.800041e-01  1.375999e+00
    endloop
  endfacet
  facet normal -1.464396e-01 -9.665412e-01  2.106029e-01
    outer loop
      vertex  -3.430200e+01 -3.958003e+00  2.939999e+00
      vertex  -3.436001e+01 -3.920017e+00  3.074001e+00
      vertex  -3.473000e+01 -3.884006e+00  2.981998e+00
    endloop
  endfacet
  facet normal -1.523374e-01 -9.594696e-01  2.370891e-01
    outer loop
      vertex  -3.437000e+01 -3.912006e+00  3.099998e+00
      vertex  -3.473000e+01 -3.884006e+00  2.981998e+00
      vertex  -3.436001e+01 -3.920017e+00  3.074001e+00
    endloop
  endfacet
  facet normal -1.448703e-01 -9.641404e-01  2.223645e-01
    outer loop
      vertex  -3.473000e+01 -3.884006e+00  2.981998e+00
      vertex  -3.473000e+01 -4.140010e+00  1.872002e+00
      vertex  -3.430200e+01 -3.958003e+00  2.939999e+00
    endloop
  endfacet
  facet normal -5.343629e-01 -9.423189e-02  8.399861e-01
    outer loop
      vertex  -4.040000e+01  1.099971e-01  3.265999e+00
      vertex  -3.777801e+01 -9.240069e-01  4.818001e+00
      vertex  -3.777801e+01  1.099973e-01  4.933998e+00
    endloop
  endfacet
  facet normal -3.846897e-01 -5.086145e-01  7.702760e-01
    outer loop
      vertex  -4.330600e+01 -1.662006e+00  1.380001e+00
      vertex  -4.289800e+01 -2.328007e+00  1.144001e+00
      vertex  -4.229600e+01 -1.702007e+00  1.858002e+00
    endloop
  endfacet
  facet normal -5.104893e-01 -1.066064e-01  8.532501e-01
    outer loop
      vertex  -3.777801e+01 -9.240069e-01  4.818001e+00
      vertex  -3.576801e+01  3.199456e-02  6.139999e+00
      vertex  -3.576801e+01  4.799340e-02  6.141998e+00
    endloop
  endfacet
  facet normal -5.119888e-01 -1.028478e-01  8.528129e-01
    outer loop
      vertex  -3.777801e+01 -9.240069e-01  4.818001e+00
      vertex  -3.570400e+01 -9.500000e-01  6.060001e+00
      vertex  -3.576801e+01  3.199456e-02  6.139999e+00
    endloop
  endfacet
  facet normal -1.454083e-01 -9.068052e-01  3.956777e-01
    outer loop
      vertex  -4.024200e+01 -3.534000e+00  7.659988e-01
      vertex  -4.024800e+01 -3.588016e+00  6.399994e-01
      vertex  -3.957001e+01 -3.688007e+00  6.599998e-01
    endloop
  endfacet
  facet normal -4.457257e-01 -5.555300e-01  7.019366e-01
    outer loop
      vertex  -4.037800e+01 -1.772007e+00  2.886002e+00
      vertex  -3.777801e+01 -2.544010e+00  3.925999e+00
      vertex  -3.777801e+01 -1.844005e+00  4.480000e+00
    endloop
  endfacet
  facet normal -4.096920e-01 -5.322751e-01  7.408344e-01
    outer loop
      vertex  -4.209400e+01 -2.358005e+00  1.515999e+00
      vertex  -4.032600e+01 -2.430004e+00  2.442001e+00
      vertex  -4.037800e+01 -1.772007e+00  2.886002e+00
    endloop
  endfacet
  facet normal -4.930262e-01 -2.997107e-01  8.167611e-01
    outer loop
      vertex  -3.777801e+01 -1.844005e+00  4.480000e+00
      vertex  -3.569801e+01 -9.980042e-01  6.046001e+00
      vertex  -3.570400e+01 -9.500000e-01  6.060001e+00
    endloop
  endfacet
  facet normal -4.928555e-01 -3.000630e-01  8.167349e-01
    outer loop
      vertex  -3.777801e+01 -1.844005e+00  4.480000e+00
      vertex  -3.570400e+01 -9.500000e-01  6.060001e+00
      vertex  -3.777801e+01 -9.240069e-01  4.818001e+00
    endloop
  endfacet
  facet normal -1.335156e-01 -9.524215e-01  2.739832e-01
    outer loop
      vertex  -3.473000e+01 -4.276004e+00  1.226002e+00
      vertex  -3.777801e+01 -3.870006e+00  1.152000e+00
      vertex  -3.777801e+01 -3.954006e+00  8.600006e-01
    endloop
  endfacet
  facet normal -3.940006e-01 -5.032447e-01  7.690958e-01
    outer loop
      vertex  -4.330600e+01 -1.662006e+00  1.380001e+00
      vertex  -4.361200e+01 -1.670017e+00  1.217999e+00
      vertex  -4.339800e+01 -2.024006e+00  1.096001e+00
    endloop
  endfacet
  facet normal -3.840545e-01 -5.358332e-01  7.519208e-01
    outer loop
      vertex  -4.330600e+01 -1.662006e+00  1.380001e+00
      vertex  -4.362200e+01 -1.646008e+00  1.230000e+00
      vertex  -4.361200e+01 -1.670017e+00  1.217999e+00
    endloop
  endfacet
  facet normal -3.462348e-01 -7.480906e-01  5.661113e-01
    outer loop
      vertex  -3.777801e+01 -3.048000e+00  3.259998e+00
      vertex  -3.532800e+01 -2.676006e+00  5.250000e+00
      vertex  -3.777801e+01 -2.544010e+00  3.925999e+00
    endloop
  endfacet
  facet normal -3.441742e-01 -7.522147e-01  5.618870e-01
    outer loop
      vertex  -3.533801e+01 -2.652004e+00  5.276001e+00
      vertex  -3.777801e+01 -2.544010e+00  3.925999e+00
      vertex  -3.532800e+01 -2.676006e+00  5.250000e+00
    endloop
  endfacet
  facet normal -4.841226e-01  0.000000e+00  8.750002e-01
    outer loop
      vertex  -3.777801e+01 -2.544010e+00  3.925999e+00
      vertex  -3.533801e+01 -2.652004e+00  5.276001e+00
      vertex  -3.533801e+01 -2.650005e+00  5.276001e+00
    endloop
  endfacet
  facet normal -1.866020e-01 -8.896883e-01  4.166947e-01
    outer loop
      vertex  -3.777801e+01 -3.870006e+00  1.152000e+00
      vertex  -4.021600e+01 -3.398006e+00  1.068001e+00
      vertex  -4.024200e+01 -3.534000e+00  7.659988e-01
    endloop
  endfacet
  facet normal -3.837627e-01 -5.082871e-01  7.709543e-01
    outer loop
      vertex  -4.330600e+01 -1.662006e+00  1.380001e+00
      vertex  -4.320200e+01 -2.326000e+00  9.939995e-01
      vertex  -4.289800e+01 -2.328007e+00  1.144001e+00
    endloop
  endfacet
  facet normal -3.810633e-01 -5.085437e-01  7.721230e-01
    outer loop
      vertex  -4.320200e+01 -2.326000e+00  9.939995e-01
      vertex  -4.330600e+01 -1.662006e+00  1.380001e+00
      vertex  -4.327200e+01 -2.228001e+00  1.023998e+00
    endloop
  endfacet
  facet normal -3.820393e-01 -5.083706e-01  7.717546e-01
    outer loop
      vertex  -4.339800e+01 -2.024006e+00  1.096001e+00
      vertex  -4.327200e+01 -2.228001e+00  1.023998e+00
      vertex  -4.330600e+01 -1.662006e+00  1.380001e+00
    endloop
  endfacet
  facet normal -4.842101e-01 -8.063918e-02  8.712279e-01
    outer loop
      vertex  -4.239000e+01  1.099969e-01  2.160000e+00
      vertex  -4.237800e+01 -8.480033e-01  2.077999e+00
      vertex  -4.040000e+01  1.099971e-01  3.265999e+00
    endloop
  endfacet
  facet normal -2.139878e-01 -8.420450e-01  4.951459e-01
    outer loop
      vertex  -4.079000e+01 -3.458004e+00  6.360016e-01
      vertex  -4.160400e+01 -3.150005e+00  8.079987e-01
      vertex  -4.169000e+01 -3.214000e+00  6.619987e-01
    endloop
  endfacet
  facet normal -2.279545e-01 -8.587322e-01  4.589289e-01
    outer loop
      vertex  -4.160400e+01 -3.150005e+00  8.079987e-01
      vertex  -4.079000e+01 -3.458004e+00  6.360016e-01
      vertex  -4.024200e+01 -3.534000e+00  7.659988e-01
    endloop
  endfacet
  facet normal -2.171988e-01 -8.933696e-01  3.933389e-01
    outer loop
      vertex  -4.024200e+01 -3.534000e+00  7.659988e-01
      vertex  -4.079000e+01 -3.458004e+00  6.360016e-01
      vertex  -4.024800e+01 -3.588016e+00  6.399994e-01
    endloop
  endfacet
  facet normal -2.167634e-01 -8.914111e-01  3.979947e-01
    outer loop
      vertex  -4.050400e+01 -3.532017e+00  6.259995e-01
      vertex  -4.024800e+01 -3.588016e+00  6.399994e-01
      vertex  -4.079000e+01 -3.458004e+00  6.360016e-01
    endloop
  endfacet
  facet normal -3.421589e-01 -6.825041e-01  6.458447e-01
    outer loop
      vertex  -4.209400e+01 -2.358005e+00  1.515999e+00
      vertex  -4.225000e+01 -2.840000e+00  9.239998e-01
      vertex  -4.186600e+01 -2.830005e+00  1.138000e+00
    endloop
  endfacet
  facet normal -1.277469e-01 -9.677778e-01  2.169952e-01
    outer loop
      vertex  -3.719601e+01 -4.038005e+00  8.279991e-01
      vertex  -3.556001e+01 -4.210010e+00  1.023998e+00
      vertex  -3.777801e+01 -3.954006e+00  8.600006e-01
    endloop
  endfacet
  facet normal -1.268515e-01 -9.718521e-01  1.985252e-01
    outer loop
      vertex  -3.488600e+01 -4.280009e+00  1.112000e+00
      vertex  -3.777801e+01 -3.954006e+00  8.600006e-01
      vertex  -3.556001e+01 -4.210010e+00  1.023998e+00
    endloop
  endfacet
  facet normal -1.262848e-01 -9.737003e-01  1.896307e-01
    outer loop
      vertex  -3.473000e+01 -4.294009e+00  1.144001e+00
      vertex  -3.777801e+01 -3.954006e+00  8.600006e-01
      vertex  -3.488600e+01 -4.280009e+00  1.112000e+00
    endloop
  endfacet
  facet normal -1.278785e-01 -9.687123e-01  2.127057e-01
    outer loop
      vertex  -3.473000e+01 -4.276004e+00  1.226002e+00
      vertex  -3.777801e+01 -3.954006e+00  8.600006e-01
      vertex  -3.473000e+01 -4.294009e+00  1.144001e+00
    endloop
  endfacet
  facet normal -2.891164e-01 -8.101897e-01  5.099062e-01
    outer loop
      vertex  -4.025600e+01 -2.896007e+00  1.945999e+00
      vertex  -4.186600e+01 -2.830005e+00  1.138000e+00
      vertex  -4.021600e+01 -3.196010e+00  1.492001e+00
    endloop
  endfacet
  facet normal -1.937445e-01 -9.238403e-01  3.301243e-01
    outer loop
      vertex  -3.473000e+01 -3.884006e+00  2.981998e+00
      vertex  -3.777801e+01 -3.382007e+00  2.598000e+00
      vertex  -3.777801e+01 -3.630001e+00  1.903999e+00
    endloop
  endfacet
  facet normal -4.458694e-01 -5.246146e-01  7.252448e-01
    outer loop
      vertex  -4.037800e+01 -1.772007e+00  2.886002e+00
      vertex  -4.032600e+01 -2.430004e+00  2.442001e+00
      vertex  -3.777801e+01 -2.544010e+00  3.925999e+00
    endloop
  endfacet
  facet normal -4.811402e-01 -8.818012e-02  8.721975e-01
    outer loop
      vertex  -4.237800e+01 -8.480033e-01  2.077999e+00
      vertex  -4.039800e+01 -8.900029e-01  3.166000e+00
      vertex  -4.040000e+01  1.099971e-01  3.265999e+00
    endloop
  endfacet
  facet normal -3.499061e-01 -6.827241e-01  6.414465e-01
    outer loop
      vertex  -4.025600e+01 -2.896007e+00  1.945999e+00
      vertex  -4.209400e+01 -2.358005e+00  1.515999e+00
      vertex  -4.186600e+01 -2.830005e+00  1.138000e+00
    endloop
  endfacet
  facet normal -1.837406e-01 -9.364378e-01  2.988704e-01
    outer loop
      vertex  -3.473000e+01 -3.884006e+00  2.981998e+00
      vertex  -3.777801e+01 -3.630001e+00  1.903999e+00
      vertex  -3.777801e+01 -3.870006e+00  1.152000e+00
    endloop
  endfacet
  facet normal -4.819537e-01 -3.228442e-01  8.145504e-01
    outer loop
      vertex  -3.777801e+01 -1.844005e+00  4.480000e+00
      vertex  -3.567400e+01 -1.160007e+00  5.995998e+00
      vertex  -3.569801e+01 -9.980042e-01  6.046001e+00
    endloop
  endfacet
  facet normal -4.834096e-01 -3.194338e-01  8.150321e-01
    outer loop
      vertex  -3.777801e+01 -1.844005e+00  4.480000e+00
      vertex  -3.556400e+01 -1.898006e+00  5.771999e+00
      vertex  -3.567400e+01 -1.160007e+00  5.995998e+00
    endloop
  endfacet
  facet normal -4.291259e-01 -2.540349e-01  8.667856e-01
    outer loop
      vertex  -4.352000e+01 -8.160057e-01  1.521999e+00
      vertex  -4.330600e+01 -1.662006e+00  1.380001e+00
      vertex  -4.237800e+01 -8.480033e-01  2.077999e+00
    endloop
  endfacet
  facet normal -4.211268e-01 -2.639719e-01  8.677391e-01
    outer loop
      vertex  -4.330600e+01 -1.662006e+00  1.380001e+00
      vertex  -4.229600e+01 -1.702007e+00  1.858002e+00
      vertex  -4.237800e+01 -8.480033e-01  2.077999e+00
    endloop
  endfacet
  facet normal -3.826997e-01 -6.996619e-01  6.033360e-01
    outer loop
      vertex  -3.777801e+01 -2.544010e+00  3.925999e+00
      vertex  -4.032600e+01 -2.430004e+00  2.442001e+00
      vertex  -4.025600e+01 -2.896007e+00  1.945999e+00
    endloop
  endfacet
  facet normal -1.642661e-01 -9.468797e-01  2.764694e-01
    outer loop
      vertex  -3.463600e+01 -3.686000e+00  3.716000e+00
      vertex  -3.473000e+01 -3.884006e+00  2.981998e+00
      vertex  -3.437000e+01 -3.912006e+00  3.099998e+00
    endloop
  endfacet
  facet normal -5.049563e-01 -2.976607e-01  8.101959e-01
    outer loop
      vertex  -4.037800e+01 -1.772007e+00  2.886002e+00
      vertex  -3.777801e+01 -1.844005e+00  4.480000e+00
      vertex  -3.777801e+01 -9.240069e-01  4.818001e+00
    endloop
  endfacet
  facet normal -2.361853e-01 -8.929191e-01  3.832908e-01
    outer loop
      vertex  -3.499600e+01 -3.304004e+00  4.493999e+00
      vertex  -3.777801e+01 -3.382007e+00  2.598000e+00
      vertex  -3.473601e+01 -3.614017e+00  3.931999e+00
    endloop
  endfacet
  facet normal -2.368155e-01 -8.923646e-01  3.841926e-01
    outer loop
      vertex  -3.505000e+01 -3.238010e+00  4.613998e+00
      vertex  -3.777801e+01 -3.382007e+00  2.598000e+00
      vertex  -3.499600e+01 -3.304004e+00  4.493999e+00
    endloop
  endfacet
  facet normal -1.274229e-01 -9.680502e-01  2.159679e-01
    outer loop
      vertex  -3.426601e+01 -3.982005e+00  2.854000e+00
      vertex  -3.473000e+01 -4.140010e+00  1.872002e+00
      vertex  -3.393001e+01 -4.198016e+00  2.084000e+00
    endloop
  endfacet
  facet normal -1.283808e-01 -9.678304e-01  2.163852e-01
    outer loop
      vertex  -3.430200e+01 -3.958003e+00  2.939999e+00
      vertex  -3.473000e+01 -4.140010e+00  1.872002e+00
      vertex  -3.426601e+01 -3.982005e+00  2.854000e+00
    endloop
  endfacet
  facet normal -5.267053e-01 -6.529099e-02  8.475368e-01
    outer loop
      vertex  -3.777801e+01 -9.240069e-01  4.818001e+00
      vertex  -3.576801e+01  4.799340e-02  6.141998e+00
      vertex  -3.577000e+01  8.999321e-02  6.144001e+00
    endloop
  endfacet
  facet normal -4.909049e-01 -1.501085e-01  8.581840e-01
    outer loop
      vertex  -3.777801e+01 -9.240069e-01  4.818001e+00
      vertex  -3.577000e+01  8.999321e-02  6.144001e+00
      vertex  -3.577200e+01  1.079833e-01  6.146000e+00
    endloop
  endfacet
  facet normal -5.156528e-01 -9.361745e-02  8.516678e-01
    outer loop
      vertex  -3.777801e+01 -9.240069e-01  4.818001e+00
      vertex  -3.577200e+01  1.079833e-01  6.146000e+00
      vertex  -3.632401e+01  1.099974e-01  5.812000e+00
    endloop
  endfacet
  facet normal -5.145531e-01 -9.559233e-02  8.521135e-01
    outer loop
      vertex  -3.777801e+01 -9.240069e-01  4.818001e+00
      vertex  -3.632401e+01  1.099974e-01  5.812000e+00
      vertex  -3.777801e+01  1.099973e-01  4.933998e+00
    endloop
  endfacet
  facet normal -1.341228e-01 -9.697101e-01  2.041405e-01
    outer loop
      vertex  -3.473000e+01 -4.140010e+00  1.872002e+00
      vertex  -3.777801e+01 -3.870006e+00  1.152000e+00
      vertex  -3.473000e+01 -4.276004e+00  1.226002e+00
    endloop
  endfacet
  facet normal -1.913115e-01 -9.350609e-01  2.984309e-01
    outer loop
      vertex  -3.777801e+01 -3.630001e+00  1.903999e+00
      vertex  -4.021600e+01 -3.398006e+00  1.068001e+00
      vertex  -3.777801e+01 -3.870006e+00  1.152000e+00
    endloop
  endfacet
  facet normal -5.322102e-01 -8.529303e-02  8.423048e-01
    outer loop
      vertex  -4.040000e+01  1.099971e-01  3.265999e+00
      vertex  -4.039800e+01 -8.900029e-01  3.166000e+00
      vertex  -3.777801e+01 -9.240069e-01  4.818001e+00
    endloop
  endfacet
  facet normal -4.187292e-01 -5.178531e-01  7.459852e-01
    outer loop
      vertex  -4.229600e+01 -1.702007e+00  1.858002e+00
      vertex  -4.209400e+01 -2.358005e+00  1.515999e+00
      vertex  -4.037800e+01 -1.772007e+00  2.886002e+00
    endloop
  endfacet
  facet normal -4.414080e-01 -7.369956e-02  8.942748e-01
    outer loop
      vertex  -4.356800e+01  1.099968e-01  1.576000e+00
      vertex  -4.388000e+01  1.099968e-01  1.422001e+00
      vertex  -4.385200e+01 -4.460106e-01  1.389999e+00
    endloop
  endfacet
  facet normal -3.228041e-01 -6.927070e-01  6.449454e-01
    outer loop
      vertex  -4.284400e+01 -2.612003e+00  8.660011e-01
      vertex  -4.289800e+01 -2.328007e+00  1.144001e+00
      vertex  -4.320200e+01 -2.326000e+00  9.939995e-01
    endloop
  endfacet
  facet normal -4.381221e-01 -8.211012e-02  8.951575e-01
    outer loop
      vertex  -4.352000e+01 -8.160057e-01  1.521999e+00
      vertex  -4.237800e+01 -8.480033e-01  2.077999e+00
      vertex  -4.239000e+01  1.099969e-01  2.160000e+00
    endloop
  endfacet
  facet normal -3.753123e-01 -5.167401e-01  7.694935e-01
    outer loop
      vertex  -4.289800e+01 -2.328007e+00  1.144001e+00
      vertex  -4.209400e+01 -2.358005e+00  1.515999e+00
      vertex  -4.229600e+01 -1.702007e+00  1.858002e+00
    endloop
  endfacet
  facet normal -4.632556e-01 -2.625319e-01  8.464463e-01
    outer loop
      vertex  -4.237800e+01 -8.480033e-01  2.077999e+00
      vertex  -4.229600e+01 -1.702007e+00  1.858002e+00
      vertex  -4.037800e+01 -1.772007e+00  2.886002e+00
    endloop
  endfacet
  facet normal -3.162847e-01 -8.040500e-01  5.034558e-01
    outer loop
      vertex  -3.777801e+01 -3.048000e+00  3.259998e+00
      vertex  -4.025600e+01 -2.896007e+00  1.945999e+00
      vertex  -4.021600e+01 -3.196010e+00  1.492001e+00
    endloop
  endfacet
  facet normal -4.387913e-01 -2.497476e-01  8.631850e-01
    outer loop
      vertex  -4.352000e+01 -8.160057e-01  1.521999e+00
      vertex  -4.365200e+01 -1.538006e+00  1.245998e+00
      vertex  -4.362200e+01 -1.646008e+00  1.230000e+00
    endloop
  endfacet
  facet normal -4.277360e-01 -2.534708e-01  8.676373e-01
    outer loop
      vertex  -4.352000e+01 -8.160057e-01  1.521999e+00
      vertex  -4.371800e+01 -1.276005e+00  1.290001e+00
      vertex  -4.365200e+01 -1.538006e+00  1.245998e+00
    endloop
  endfacet
  facet normal -4.252686e-01 -2.534086e-01  8.688675e-01
    outer loop
      vertex  -4.362200e+01 -1.646008e+00  1.230000e+00
      vertex  -4.330600e+01 -1.662006e+00  1.380001e+00
      vertex  -4.352000e+01 -8.160057e-01  1.521999e+00
    endloop
  endfacet
  facet normal -3.251411e-01 -6.895786e-01  6.471203e-01
    outer loop
      vertex  -4.209400e+01 -2.358005e+00  1.515999e+00
      vertex  -4.289800e+01 -2.328007e+00  1.144001e+00
      vertex  -4.225000e+01 -2.840000e+00  9.239998e-01
    endloop
  endfacet
  facet normal -1.380698e-01 -9.650874e-01  2.225829e-01
    outer loop
      vertex  -3.473000e+01 -3.884006e+00  2.981998e+00
      vertex  -3.777801e+01 -3.870006e+00  1.152000e+00
      vertex  -3.473000e+01 -4.140010e+00  1.872002e+00
    endloop
  endfacet
  facet normal -3.460955e-01 -7.481316e-01  5.661423e-01
    outer loop
      vertex  -3.777801e+01 -2.544010e+00  3.925999e+00
      vertex  -4.025600e+01 -2.896007e+00  1.945999e+00
      vertex  -3.777801e+01 -3.048000e+00  3.259998e+00
    endloop
  endfacet
  facet normal -1.244318e-01 -9.709465e-01  2.044007e-01
    outer loop
      vertex  -3.473000e+01 -4.276004e+00  1.226002e+00
      vertex  -3.389800e+01 -4.218005e+00  2.007999e+00
      vertex  -3.473000e+01 -4.140010e+00  1.872002e+00
    endloop
  endfacet
  facet normal -1.301644e-01 -9.606494e-01  2.453771e-01
    outer loop
      vertex  -3.390800e+01 -4.210010e+00  2.034000e+00
      vertex  -3.473000e+01 -4.140010e+00  1.872002e+00
      vertex  -3.389800e+01 -4.218005e+00  2.007999e+00
    endloop
  endfacet
  facet normal -1.189481e-01 -9.761186e-01  1.817797e-01
    outer loop
      vertex  -3.393001e+01 -4.198016e+00  2.084000e+00
      vertex  -3.473000e+01 -4.140010e+00  1.872002e+00
      vertex  -3.390800e+01 -4.210010e+00  2.034000e+00
    endloop
  endfacet
  facet normal -3.506255e-01 -7.067223e-01  6.144959e-01
    outer loop
      vertex  -4.032600e+01 -2.430004e+00  2.442001e+00
      vertex  -4.209400e+01 -2.358005e+00  1.515999e+00
      vertex  -4.025600e+01 -2.896007e+00  1.945999e+00
    endloop
  endfacet
  facet normal -2.552419e-01 -8.728824e-01  4.158460e-01
    outer loop
      vertex  -3.777801e+01 -3.382007e+00  2.598000e+00
      vertex  -4.021600e+01 -3.196010e+00  1.492001e+00
      vertex  -4.021600e+01 -3.398006e+00  1.068001e+00
    endloop
  endfacet
  facet normal -5.160890e-01 -2.697791e-01  8.129399e-01
    outer loop
      vertex  -4.039800e+01 -8.900029e-01  3.166000e+00
      vertex  -4.037800e+01 -1.772007e+00  2.886002e+00
      vertex  -3.777801e+01 -9.240069e-01  4.818001e+00
    endloop
  endfacet
  facet normal -1.215362e-01 -9.507309e-01  2.852011e-01
    outer loop
      vertex  -3.777801e+01 -3.954006e+00  8.600006e-01
      vertex  -3.777801e+01 -3.984004e+00  7.599983e-01
      vertex  -3.719601e+01 -4.038005e+00  8.279991e-01
    endloop
  endfacet
  facet normal -9.966131e-02 -9.785563e-01  1.802643e-01
    outer loop
      vertex  -3.385201e+01 -4.242000e+00  1.896000e+00
      vertex  -3.473000e+01 -4.276004e+00  1.226002e+00
      vertex  -3.366801e+01 -4.344005e+00  1.444000e+00
    endloop
  endfacet
  facet normal -9.315777e-02 -9.807084e-01  1.718510e-01
    outer loop
      vertex  -3.389800e+01 -4.218005e+00  2.007999e+00
      vertex  -3.473000e+01 -4.276004e+00  1.226002e+00
      vertex  -3.385201e+01 -4.242000e+00  1.896000e+00
    endloop
  endfacet
  facet normal -2.908591e-01 -7.918827e-01  5.369570e-01
    outer loop
      vertex  -4.021600e+01 -3.196010e+00  1.492001e+00
      vertex  -4.186600e+01 -2.830005e+00  1.138000e+00
      vertex  -4.160400e+01 -3.150005e+00  8.079987e-01
    endloop
  endfacet
  facet normal -2.008197e-01 -9.224996e-01  3.296452e-01
    outer loop
      vertex  -3.777801e+01 -3.382007e+00  2.598000e+00
      vertex  -4.021600e+01 -3.398006e+00  1.068001e+00
      vertex  -3.777801e+01 -3.630001e+00  1.903999e+00
    endloop
  endfacet
  facet normal -3.316659e-01 -6.913787e-01  6.418670e-01
    outer loop
      vertex  -4.254200e+01 -2.846004e+00  7.700005e-01
      vertex  -4.289800e+01 -2.328007e+00  1.144001e+00
      vertex  -4.284400e+01 -2.612003e+00  8.660011e-01
    endloop
  endfacet
  facet normal -3.263081e-01 -6.904179e-01  6.456363e-01
    outer loop
      vertex  -4.289800e+01 -2.328007e+00  1.144001e+00
      vertex  -4.254200e+01 -2.846004e+00  7.700005e-01
      vertex  -4.225000e+01 -2.840000e+00  9.239998e-01
    endloop
  endfacet
  facet normal -4.672264e-01 -2.771288e-01  8.395826e-01
    outer loop
      vertex  -4.237800e+01 -8.480033e-01  2.077999e+00
      vertex  -4.037800e+01 -1.772007e+00  2.886002e+00
      vertex  -4.039800e+01 -8.900029e-01  3.166000e+00
    endloop
  endfacet
  facet normal -4.253573e-01 -2.548766e-01  8.683945e-01
    outer loop
      vertex  -4.352000e+01 -8.160057e-01  1.521999e+00
      vertex  -4.383200e+01 -8.200035e-01  1.368000e+00
      vertex  -4.371800e+01 -1.276005e+00  1.290001e+00
    endloop
  endfacet
  facet normal -1.717696e-01 -9.467423e-01  2.723495e-01
    outer loop
      vertex  -3.777801e+01 -3.870006e+00  1.152000e+00
      vertex  -4.024200e+01 -3.534000e+00  7.659988e-01
      vertex  -3.777801e+01 -3.954006e+00  8.600006e-01
    endloop
  endfacet
endsolid vcg
