solid STL generated by MeshLab
  facet normal  0.000000e+00  1.000000e+00 -0.000000e+00
    outer loop
      vertex   4.881600e+01  2.417400e+01 -4.959984e-01
      vertex   4.826200e+01  2.417400e+01 -4.959984e-01
      vertex   4.881600e+01  2.417400e+01 -2.820015e-01
    endloop
  endfacet
  facet normal  0.000000e+00  1.000000e+00  0.000000e+00
    outer loop
      vertex   5.028400e+01  2.417400e+01 -2.739983e-01
      vertex   5.085800e+01  2.417400e+01 -2.919998e-01
      vertex   5.085800e+01  2.417400e+01 -4.959984e-01
    endloop
  endfacet
  facet normal -0.000000e+00  1.000000e+00  0.000000e+00
    outer loop
      vertex   4.826200e+01  2.417400e+01 -4.959984e-01
      vertex   4.881600e+01  2.417400e+01 -4.959984e-01
      vertex   4.881600e+01  2.417400e+01 -7.120018e-01
    endloop
  endfacet
  facet normal  0.000000e+00  1.000000e+00 -0.000000e+00
    outer loop
      vertex   5.154200e+01  2.417400e+01 -4.959984e-01
      vertex   5.085800e+01  2.417400e+01 -4.959984e-01
      vertex   5.154200e+01  2.417400e+01 -3.219986e-01
    endloop
  endfacet
  facet normal  0.000000e+00  1.000000e+00 -0.000000e+00
    outer loop
      vertex   5.028400e+01  2.417400e+01 -4.959984e-01
      vertex   4.992200e+01  2.417400e+01 -3.820000e-01
      vertex   5.028400e+01  2.417400e+01 -2.739983e-01
    endloop
  endfacet
  facet normal  0.000000e+00  1.000000e+00  0.000000e+00
    outer loop
      vertex   5.085800e+01  2.417400e+01 -4.959984e-01
      vertex   5.154200e+01  2.417400e+01 -6.699982e-01
      vertex   5.085800e+01  2.417400e+01 -7.000008e-01
    endloop
  endfacet
  facet normal -0.000000e+00  1.000000e+00  0.000000e+00
    outer loop
      vertex   4.881600e+01  2.417400e+01 -4.959984e-01
      vertex   4.954800e+01  2.417400e+01 -4.959984e-01
      vertex   4.881600e+01  2.417400e+01 -7.120018e-01
    endloop
  endfacet
  facet normal  0.000000e+00  1.000000e+00  0.000000e+00
    outer loop
      vertex   4.826200e+01  2.417400e+01 -4.959984e-01
      vertex   4.826200e+01  2.417400e+01 -3.219986e-01
      vertex   4.881600e+01  2.417400e+01 -2.820015e-01
    endloop
  endfacet
  facet normal  0.000000e+00  1.000000e+00  0.000000e+00
    outer loop
      vertex   5.085800e+01  2.417400e+01 -4.959984e-01
      vertex   5.028400e+01  2.417400e+01 -4.959984e-01
      vertex   5.028400e+01  2.417400e+01 -2.739983e-01
    endloop
  endfacet
  facet normal  0.000000e+00  1.000000e+00  0.000000e+00
    outer loop
      vertex   4.954800e+01  2.417400e+01 -2.680016e-01
      vertex   4.992200e+01  2.417400e+01 -3.820000e-01
      vertex   4.954800e+01  2.417400e+01 -4.959984e-01
    endloop
  endfacet
  facet normal  0.000000e+00  1.000000e+00 -0.000000e+00
    outer loop
      vertex   4.826200e+01  2.417400e+01 -6.720009e-01
      vertex   4.791199e+01  2.417400e+01 -6.020012e-01
      vertex   4.826200e+01  2.417400e+01 -4.959984e-01
    endloop
  endfacet
  facet normal -0.000000e+00  1.000000e+00  0.000000e+00
    outer loop
      vertex   5.085800e+01  2.417400e+01 -4.959984e-01
      vertex   5.154200e+01  2.417400e+01 -4.959984e-01
      vertex   5.154200e+01  2.417400e+01 -6.699982e-01
    endloop
  endfacet
  facet normal  0.000000e+00  1.000000e+00  0.000000e+00
    outer loop
      vertex   5.261000e+01  2.417400e+01 -4.959984e-01
      vertex   5.261000e+01  2.417400e+01 -6.180000e-01
      vertex   5.154200e+01  2.417400e+01 -6.699982e-01
    endloop
  endfacet
  facet normal -0.000000e+00  1.000000e+00  0.000000e+00
    outer loop
      vertex   5.154200e+01  2.417400e+01 -4.959984e-01
      vertex   5.261000e+01  2.417400e+01 -4.959984e-01
      vertex   5.154200e+01  2.417400e+01 -6.699982e-01
    endloop
  endfacet
  facet normal -0.000000e+00  1.000000e+00  0.000000e+00
    outer loop
      vertex   5.028400e+01  2.417400e+01 -4.959984e-01
      vertex   5.085800e+01  2.417400e+01 -4.959984e-01
      vertex   5.028400e+01  2.417400e+01 -7.179985e-01
    endloop
  endfacet
  facet normal -0.000000e+00  1.000000e+00  0.000000e+00
    outer loop
      vertex   4.779399e+01  2.417400e+01 -4.959984e-01
      vertex   4.826200e+01  2.417400e+01 -4.959984e-01
      vertex   4.791199e+01  2.417400e+01 -6.020012e-01
    endloop
  endfacet
  facet normal -0.000000e+00  1.000000e+00  0.000000e+00
    outer loop
      vertex   4.954800e+01  2.417400e+01 -4.959984e-01
      vertex   5.028400e+01  2.417400e+01 -4.959984e-01
      vertex   4.991999e+01  2.417400e+01 -6.080017e-01
    endloop
  endfacet
  facet normal  0.000000e+00  1.000000e+00  0.000000e+00
    outer loop
      vertex   4.954800e+01  2.417400e+01 -4.959984e-01
      vertex   4.881600e+01  2.417400e+01 -4.959984e-01
      vertex   4.881600e+01  2.417400e+01 -2.820015e-01
    endloop
  endfacet
  facet normal  0.000000e+00  1.000000e+00  0.000000e+00
    outer loop
      vertex   5.261000e+01  2.417400e+01 -4.959984e-01
      vertex   5.154200e+01  2.417400e+01 -4.959984e-01
      vertex   5.154200e+01  2.417400e+01 -3.219986e-01
    endloop
  endfacet
  facet normal  0.000000e+00  1.000000e+00 -0.000000e+00
    outer loop
      vertex   4.826200e+01  2.417400e+01 -4.959984e-01
      vertex   4.791199e+01  2.417400e+01 -3.899994e-01
      vertex   4.826200e+01  2.417400e+01 -3.219986e-01
    endloop
  endfacet
  facet normal  0.000000e+00  1.000000e+00 -0.000000e+00
    outer loop
      vertex   4.954800e+01  2.417400e+01 -4.959984e-01
      vertex   4.881600e+01  2.417400e+01 -2.820015e-01
      vertex   4.954800e+01  2.417400e+01 -2.680016e-01
    endloop
  endfacet
  facet normal  0.000000e+00  1.000000e+00  0.000000e+00
    outer loop
      vertex   5.085800e+01  2.417400e+01 -4.959984e-01
      vertex   5.085800e+01  2.417400e+01 -7.000008e-01
      vertex   5.028400e+01  2.417400e+01 -7.179985e-01
    endloop
  endfacet
  facet normal  0.000000e+00  1.000000e+00  0.000000e+00
    outer loop
      vertex   4.954800e+01  2.417400e+01 -4.959984e-01
      vertex   4.991999e+01  2.417400e+01 -6.080017e-01
      vertex   4.954800e+01  2.417400e+01 -7.260017e-01
    endloop
  endfacet
  facet normal  0.000000e+00  1.000000e+00 -0.000000e+00
    outer loop
      vertex   4.954800e+01  2.417400e+01 -7.260017e-01
      vertex   4.881600e+01  2.417400e+01 -7.120018e-01
      vertex   4.954800e+01  2.417400e+01 -4.959984e-01
    endloop
  endfacet
  facet normal  0.000000e+00  1.000000e+00  0.000000e+00
    outer loop
      vertex   4.881600e+01  2.417400e+01 -7.120018e-01
      vertex   4.826200e+01  2.417400e+01 -6.720009e-01
      vertex   4.826200e+01  2.417400e+01 -4.959984e-01
    endloop
  endfacet
  facet normal  0.000000e+00  1.000000e+00  0.000000e+00
    outer loop
      vertex   5.085800e+01  2.417400e+01 -2.919998e-01
      vertex   5.154200e+01  2.417400e+01 -3.219986e-01
      vertex   5.085800e+01  2.417400e+01 -4.959984e-01
    endloop
  endfacet
  facet normal  0.000000e+00  1.000000e+00  0.000000e+00
    outer loop
      vertex   5.261000e+01  2.417400e+01 -4.959984e-01
      vertex   5.355600e+01  2.417400e+01 -5.579987e-01
      vertex   5.261000e+01  2.417400e+01 -6.180000e-01
    endloop
  endfacet
  facet normal  0.000000e+00  1.000000e+00  0.000000e+00
    outer loop
      vertex   5.028400e+01  2.417400e+01 -4.959984e-01
      vertex   4.954800e+01  2.417400e+01 -4.959984e-01
      vertex   4.992200e+01  2.417400e+01 -3.820000e-01
    endloop
  endfacet
  facet normal  0.000000e+00  1.000000e+00  0.000000e+00
    outer loop
      vertex   5.154200e+01  2.417400e+01 -3.219986e-01
      vertex   5.261000e+01  2.417400e+01 -3.759995e-01
      vertex   5.261000e+01  2.417400e+01 -4.959984e-01
    endloop
  endfacet
  facet normal  0.000000e+00  1.000000e+00  0.000000e+00
    outer loop
      vertex   4.991999e+01  2.417400e+01 -6.080017e-01
      vertex   5.028400e+01  2.417400e+01 -7.179985e-01
      vertex   4.954800e+01  2.417400e+01 -7.260017e-01
    endloop
  endfacet
  facet normal  0.000000e+00  1.000000e+00  0.000000e+00
    outer loop
      vertex   5.261000e+01  2.417400e+01 -3.759995e-01
      vertex   5.355600e+01  2.417400e+01 -4.360008e-01
      vertex   5.261000e+01  2.417400e+01 -4.959984e-01
    endloop
  endfacet
  facet normal  0.000000e+00  1.000000e+00  0.000000e+00
    outer loop
      vertex   4.826200e+01  2.417400e+01 -4.959984e-01
      vertex   4.779399e+01  2.417400e+01 -4.959984e-01
      vertex   4.791199e+01  2.417400e+01 -3.899994e-01
    endloop
  endfacet
  facet normal  0.000000e+00  1.000000e+00  0.000000e+00
    outer loop
      vertex   4.954800e+01  2.417400e+01 -2.680016e-01
      vertex   5.028400e+01  2.417400e+01 -2.739983e-01
      vertex   4.992200e+01  2.417400e+01 -3.820000e-01
    endloop
  endfacet
  facet normal  0.000000e+00  1.000000e+00  0.000000e+00
    outer loop
      vertex   5.387200e+01  2.417400e+01 -4.959984e-01
      vertex   5.261000e+01  2.417400e+01 -4.959984e-01
      vertex   5.355600e+01  2.417400e+01 -4.360008e-01
    endloop
  endfacet
  facet normal -0.000000e+00  1.000000e+00  0.000000e+00
    outer loop
      vertex   5.261000e+01  2.417400e+01 -4.959984e-01
      vertex   5.387200e+01  2.417400e+01 -4.959984e-01
      vertex   5.355600e+01  2.417400e+01 -5.579987e-01
    endloop
  endfacet
  facet normal  0.000000e+00  1.000000e+00 -0.000000e+00
    outer loop
      vertex   5.028400e+01  2.417400e+01 -7.179985e-01
      vertex   4.991999e+01  2.417400e+01 -6.080017e-01
      vertex   5.028400e+01  2.417400e+01 -4.959984e-01
    endloop
  endfacet
  facet normal  1.575024e-01  7.907963e-02  9.843472e-01
    outer loop
      vertex   5.304000e+01  5.740021e-01  1.495998e+00
      vertex   5.306800e+01  5.679978e-01  1.492001e+00
      vertex   5.311400e+01  3.414006e+00  1.256001e+00
    endloop
  endfacet
  facet normal -6.203586e-01  3.718039e-01  6.905918e-01
    outer loop
      vertex   3.834600e+01  4.918003e+00  1.383999e+00
      vertex   4.791199e+01  2.417400e+01 -3.899994e-01
      vertex   4.779399e+01  2.417400e+01 -4.959984e-01
    endloop
  endfacet
  facet normal  5.032090e-02  8.368794e-02  9.952206e-01
    outer loop
      vertex   5.261000e+01  2.417400e+01 -3.759995e-01
      vertex   5.154200e+01  2.417400e+01 -3.219986e-01
      vertex   5.157800e+01  1.273600e+01  6.380005e-01
    endloop
  endfacet
  facet normal  5.041507e-02  8.368782e-02  9.952159e-01
    outer loop
      vertex   5.054800e+01  1.298005e+00  1.652000e+00
      vertex   5.157800e+01  1.273600e+01  6.380005e-01
      vertex   5.154200e+01  2.417400e+01 -3.219986e-01
    endloop
  endfacet
  facet normal  6.200699e-02  8.313165e-02  9.946076e-01
    outer loop
      vertex   5.154200e+01  2.417400e+01 -3.219986e-01
      vertex   5.001000e+01  1.460003e+00  1.672001e+00
      vertex   5.054800e+01  1.298005e+00  1.652000e+00
    endloop
  endfacet
  facet normal  6.243786e-02  8.310045e-02  9.945832e-01
    outer loop
      vertex   5.154200e+01  2.417400e+01 -3.219986e-01
      vertex   4.785200e+01  2.100003e+00  1.754002e+00
      vertex   5.001000e+01  1.460003e+00  1.672001e+00
    endloop
  endfacet
  facet normal  1.680040e-01  7.681554e-02  9.827889e-01
    outer loop
      vertex   5.306800e+01  5.679978e-01  1.492001e+00
      vertex   5.387000e+01  4.776006e+00  1.026001e+00
      vertex   5.345000e+01  1.219401e+01  5.180016e-01
    endloop
  endfacet
  facet normal  8.912797e-02  7.828207e-02  9.929392e-01
    outer loop
      vertex   5.282400e+01  1.237401e+01  5.600014e-01
      vertex   5.345000e+01  1.219401e+01  5.180016e-01
      vertex   5.355600e+01  2.417400e+01 -4.360008e-01
    endloop
  endfacet
  facet normal  2.884225e-02  9.295540e-02  9.952524e-01
    outer loop
      vertex   5.028400e+01  2.417400e+01 -2.739983e-01
      vertex   4.212400e+01  3.772003e+00  1.868000e+00
      vertex   4.553600e+01  1.072200e+01  1.119999e+00
    endloop
  endfacet
  facet normal  0.000000e+00  1.044112e-01  9.945342e-01
    outer loop
      vertex   5.028400e+01  2.417400e+01 -2.739983e-01
      vertex   4.212200e+01  3.772003e+00  1.868000e+00
      vertex   4.212400e+01  3.772003e+00  1.868000e+00
    endloop
  endfacet
  facet normal  1.171767e-01  4.920194e-02  9.918916e-01
    outer loop
      vertex   4.553600e+01  1.072200e+01  1.119999e+00
      vertex   4.212400e+01  3.772003e+00  1.868000e+00
      vertex   4.329200e+01  6.150005e+00  1.612000e+00
    endloop
  endfacet
  facet normal  0.000000e+00 -7.819171e-02 -9.969383e-01
    outer loop
      vertex   4.826200e+01  2.417400e+01 -6.720009e-01
      vertex   4.119600e+01  4.156002e+00  8.979988e-01
      vertex   4.119200e+01  4.156002e+00  8.979988e-01
    endloop
  endfacet
  facet normal -7.191607e-02 -5.273185e-02 -9.960157e-01
    outer loop
      vertex   4.119600e+01  4.156002e+00  8.979988e-01
      vertex   4.826200e+01  2.417400e+01 -6.720009e-01
      vertex   4.881600e+01  2.417400e+01 -7.120018e-01
    endloop
  endfacet
  facet normal -7.834574e-02 -5.041787e-02 -9.956505e-01
    outer loop
      vertex   4.826200e+01  2.417400e+01 -6.720009e-01
      vertex   4.119200e+01  4.156002e+00  8.979988e-01
      vertex   4.103400e+01  4.204002e+00  9.080009e-01
    endloop
  endfacet
  facet normal -7.933325e-02 -5.005577e-02 -9.955906e-01
    outer loop
      vertex   4.826200e+01  2.417400e+01 -6.720009e-01
      vertex   4.103400e+01  4.204002e+00  9.080009e-01
      vertex   4.007800e+01  4.486003e+00  9.700012e-01
    endloop
  endfacet
  facet normal -2.435166e-02 -7.303025e-02 -9.970324e-01
    outer loop
      vertex   4.826200e+01  2.417400e+01 -6.720009e-01
      vertex   4.007800e+01  4.486003e+00  9.700012e-01
      vertex   4.006600e+01  4.490005e+00  9.700012e-01
    endloop
  endfacet
  facet normal -7.902446e-02 -5.014794e-02 -9.956105e-01
    outer loop
      vertex   4.826200e+01  2.417400e+01 -6.720009e-01
      vertex   4.006600e+01  4.490005e+00  9.700012e-01
      vertex   3.951600e+01  4.642002e+00  1.006001e+00
    endloop
  endfacet
  facet normal  1.727643e-01  7.702737e-02  9.819466e-01
    outer loop
      vertex   5.345000e+01  1.219401e+01  5.180016e-01
      vertex   5.387000e+01  4.776006e+00  1.026001e+00
      vertex   5.387200e+01  2.417400e+01 -4.959984e-01
    endloop
  endfacet
  facet normal  8.771145e-02  7.323655e-02  9.934501e-01
    outer loop
      vertex   5.215000e+01  8.100021e-01  1.472000e+00
      vertex   5.345000e+01  1.219401e+01  5.180016e-01
      vertex   5.282400e+01  1.237401e+01  5.600014e-01
    endloop
  endfacet
  facet normal  1.298423e-01 -7.713852e-02 -9.885295e-01
    outer loop
      vertex   5.318000e+01  4.486005e+00  9.580002e-01
      vertex   5.387000e+01  4.776006e+00  1.026001e+00
      vertex   5.388200e+01  5.160035e-01  1.360001e+00
    endloop
  endfacet
  facet normal  3.004487e-02  9.235657e-02  9.952726e-01
    outer loop
      vertex   4.299800e+01  3.530003e+00  1.863998e+00
      vertex   4.553600e+01  1.072200e+01  1.119999e+00
      vertex   4.329200e+01  6.150005e+00  1.612000e+00
    endloop
  endfacet
  facet normal  2.139704e-02  8.363319e-02  9.962668e-01
    outer loop
      vertex   5.295400e+01  5.960053e-01  1.495998e+00
      vertex   5.304000e+01  5.740021e-01  1.495998e+00
      vertex   5.311400e+01  3.414006e+00  1.256001e+00
    endloop
  endfacet
  facet normal -7.134292e-02  1.357398e-01  9.881725e-01
    outer loop
      vertex   4.826200e+01  2.417400e+01 -3.219986e-01
      vertex   3.990400e+01  4.406002e+00  1.790001e+00
      vertex   4.881600e+01  2.417400e+01 -2.820015e-01
    endloop
  endfacet
  facet normal -2.364582e-02  1.160845e-01  9.929578e-01
    outer loop
      vertex   3.990400e+01  4.406002e+00  1.790001e+00
      vertex   4.826200e+01  2.417400e+01 -3.219986e-01
      vertex   3.947000e+01  4.540004e+00  1.764000e+00
    endloop
  endfacet
  facet normal -5.206996e-03  8.409829e-02  9.964439e-01
    outer loop
      vertex   5.215000e+01  8.100021e-01  1.472000e+00
      vertex   5.313800e+01  4.876004e+00  1.133999e+00
      vertex   5.345000e+01  1.219401e+01  5.180016e-01
    endloop
  endfacet
  facet normal -7.227347e-03  8.458474e-02  9.963901e-01
    outer loop
      vertex   5.313800e+01  4.876004e+00  1.133999e+00
      vertex   5.215000e+01  8.100021e-01  1.472000e+00
      vertex   5.295400e+01  5.960053e-01  1.495998e+00
    endloop
  endfacet
  facet normal -6.475152e-01  2.473321e-01 -7.207987e-01
    outer loop
      vertex   3.834600e+01  4.918003e+00  1.383999e+00
      vertex   4.779399e+01  2.417400e+01 -4.959984e-01
      vertex   4.791199e+01  2.417400e+01 -6.020012e-01
    endloop
  endfacet
  facet normal  4.053815e-02  8.209375e-02  9.957998e-01
    outer loop
      vertex   5.313800e+01  4.876004e+00  1.133999e+00
      vertex   5.306800e+01  5.679978e-01  1.492001e+00
      vertex   5.345000e+01  1.219401e+01  5.180016e-01
    endloop
  endfacet
  facet normal  8.993165e-01  2.168232e-02  4.367604e-01
    outer loop
      vertex   5.306800e+01  5.679978e-01  1.492001e+00
      vertex   5.313800e+01  4.876004e+00  1.133999e+00
      vertex   5.311400e+01  3.414006e+00  1.256001e+00
    endloop
  endfacet
  facet normal  0.000000e+00 -7.722478e-02 -9.970137e-01
    outer loop
      vertex   5.028400e+01  2.417400e+01 -7.179985e-01
      vertex   4.394800e+01  3.308002e+00  8.979988e-01
      vertex   4.394600e+01  3.308002e+00  8.979988e-01
    endloop
  endfacet
  facet normal  3.122181e-02 -8.659814e-02 -9.957539e-01
    outer loop
      vertex   4.394800e+01  3.308002e+00  8.979988e-01
      vertex   5.028400e+01  2.417400e+01 -7.179985e-01
      vertex   5.085800e+01  2.417400e+01 -7.000008e-01
    endloop
  endfacet
  facet normal  4.236930e-02  8.239407e-02  9.956988e-01
    outer loop
      vertex   5.295400e+01  5.960053e-01  1.495998e+00
      vertex   5.311400e+01  3.414006e+00  1.256001e+00
      vertex   5.313800e+01  4.876004e+00  1.133999e+00
    endloop
  endfacet
  facet normal  7.674157e-02  7.736752e-02  9.940448e-01
    outer loop
      vertex   4.335200e+01  3.426003e+00  1.875999e+00
      vertex   4.346400e+01  3.392002e+00  1.869999e+00
      vertex   5.028400e+01  2.417400e+01 -2.739983e-01
    endloop
  endfacet
  facet normal -1.873112e-01  1.882446e-01  9.640946e-01
    outer loop
      vertex   3.862200e+01  4.810005e+00  1.585999e+00
      vertex   4.826200e+01  2.417400e+01 -3.219986e-01
      vertex   4.791199e+01  2.417400e+01 -3.899994e-01
    endloop
  endfacet
  facet normal -1.899989e-02  1.128990e-01  9.934248e-01
    outer loop
      vertex   4.881600e+01  2.417400e+01 -2.820015e-01
      vertex   4.021200e+01  4.318004e+00  1.810001e+00
      vertex   4.954800e+01  2.417400e+01 -2.680016e-01
    endloop
  endfacet
  facet normal -2.639408e-02  1.160470e-01  9.928929e-01
    outer loop
      vertex   4.021200e+01  4.318004e+00  1.810001e+00
      vertex   4.881600e+01  2.417400e+01 -2.820015e-01
      vertex   4.007800e+01  4.356002e+00  1.801998e+00
    endloop
  endfacet
  facet normal  1.645225e-02 -7.793415e-02 -9.968228e-01
    outer loop
      vertex   5.154200e+01  2.417400e+01 -6.699982e-01
      vertex   5.054200e+01  1.298005e+00  1.102001e+00
      vertex   5.029600e+01  1.374005e+00  1.091999e+00
    endloop
  endfacet
  facet normal  1.466982e-02 -7.783947e-02 -9.968580e-01
    outer loop
      vertex   5.154200e+01  2.417400e+01 -6.699982e-01
      vertex   5.029600e+01  1.374005e+00  1.091999e+00
      vertex   4.788600e+01  2.098004e+00  1.000000e+00
    endloop
  endfacet
  facet normal  1.563566e-02 -7.799733e-02 -9.968309e-01
    outer loop
      vertex   5.154200e+01  2.417400e+01 -6.699982e-01
      vertex   4.788600e+01  2.098004e+00  1.000000e+00
      vertex   4.723600e+01  2.300003e+00  9.739990e-01
    endloop
  endfacet
  facet normal -1.481855e-01  1.698663e-01  9.742621e-01
    outer loop
      vertex   4.826200e+01  2.417400e+01 -3.219986e-01
      vertex   3.883600e+01  4.744003e+00  1.632000e+00
      vertex   3.947000e+01  4.540004e+00  1.764000e+00
    endloop
  endfacet
  facet normal -1.307886e-01  1.618131e-01  9.781160e-01
    outer loop
      vertex   4.826200e+01  2.417400e+01 -3.219986e-01
      vertex   3.882600e+01  4.748004e+00  1.630001e+00
      vertex   3.883600e+01  4.744003e+00  1.632000e+00
    endloop
  endfacet
  facet normal -1.568556e-01  1.738811e-01  9.721943e-01
    outer loop
      vertex   4.826200e+01  2.417400e+01 -3.219986e-01
      vertex   3.862200e+01  4.810005e+00  1.585999e+00
      vertex   3.882600e+01  4.748004e+00  1.630001e+00
    endloop
  endfacet
  facet normal  1.676481e-04  1.030170e-01  9.946796e-01
    outer loop
      vertex   4.553600e+01  1.072200e+01  1.119999e+00
      vertex   4.335200e+01  3.426003e+00  1.875999e+00
      vertex   5.028400e+01  2.417400e+01 -2.739983e-01
    endloop
  endfacet
  facet normal -3.162741e-03  1.040028e-01  9.945720e-01
    outer loop
      vertex   4.335200e+01  3.426003e+00  1.875999e+00
      vertex   4.553600e+01  1.072200e+01  1.119999e+00
      vertex   4.299800e+01  3.530003e+00  1.863998e+00
    endloop
  endfacet
  facet normal  6.309611e-02  8.005328e-02  9.947917e-01
    outer loop
      vertex   5.261000e+01  2.417400e+01 -3.759995e-01
      vertex   5.282400e+01  1.237401e+01  5.600014e-01
      vertex   5.355600e+01  2.417400e+01 -4.360008e-01
    endloop
  endfacet
  facet normal  4.614088e-02  8.751792e-02  9.950938e-01
    outer loop
      vertex   4.346400e+01  3.392002e+00  1.869999e+00
      vertex   4.393000e+01  3.260002e+00  1.860001e+00
      vertex   5.028400e+01  2.417400e+01 -2.739983e-01
    endloop
  endfacet
  facet normal -3.411108e-02  1.193832e-01  9.922621e-01
    outer loop
      vertex   3.990400e+01  4.406002e+00  1.790001e+00
      vertex   4.007800e+01  4.356002e+00  1.801998e+00
      vertex   4.881600e+01  2.417400e+01 -2.820015e-01
    endloop
  endfacet
  facet normal  1.083367e-02 -8.533471e-02 -9.962934e-01
    outer loop
      vertex   4.120200e+01  4.154003e+00  8.979988e-01
      vertex   4.954800e+01  2.417400e+01 -7.260017e-01
      vertex   5.028400e+01  2.417400e+01 -7.179985e-01
    endloop
  endfacet
  facet normal  0.000000e+00 -8.087455e-02 -9.967242e-01
    outer loop
      vertex   4.954800e+01  2.417400e+01 -7.260017e-01
      vertex   4.120200e+01  4.154003e+00  8.979988e-01
      vertex   4.120000e+01  4.154003e+00  8.979988e-01
    endloop
  endfacet
  facet normal  0.000000e+00 -7.244484e-02 -9.973724e-01
    outer loop
      vertex   5.355600e+01  2.417400e+01 -5.579987e-01
      vertex   5.055400e+01  1.294003e+00  1.104000e+00
      vertex   5.055200e+01  1.294003e+00  1.104000e+00
    endloop
  endfacet
  facet normal  1.916407e-01 -9.609538e-02 -9.767494e-01
    outer loop
      vertex   5.055400e+01  1.294003e+00  1.104000e+00
      vertex   5.355600e+01  2.417400e+01 -5.579987e-01
      vertex   5.387200e+01  2.417400e+01 -4.959984e-01
    endloop
  endfacet
  facet normal  3.566445e-02 -7.485126e-02 -9.965567e-01
    outer loop
      vertex   5.387200e+01  2.417400e+01 -4.959984e-01
      vertex   5.318000e+01  4.486005e+00  9.580002e-01
      vertex   5.062600e+01  1.272004e+00  1.108002e+00
    endloop
  endfacet
  facet normal  3.265195e-02 -7.443354e-02 -9.966913e-01
    outer loop
      vertex   5.387200e+01  2.417400e+01 -4.959984e-01
      vertex   5.062600e+01  1.272004e+00  1.108002e+00
      vertex   5.055400e+01  1.294003e+00  1.104000e+00
    endloop
  endfacet
  facet normal  3.806458e-02 -7.513364e-02 -9.964467e-01
    outer loop
      vertex   5.318000e+01  4.486005e+00  9.580002e-01
      vertex   5.304200e+01  5.700043e-01  1.248001e+00
      vertex   5.270000e+01  6.619919e-01  1.228001e+00
    endloop
  endfacet
  facet normal  3.582110e-02 -7.485938e-02 -9.965506e-01
    outer loop
      vertex   5.318000e+01  4.486005e+00  9.580002e-01
      vertex   5.270000e+01  6.619919e-01  1.228001e+00
      vertex   5.215800e+01  8.019913e-01  1.198002e+00
    endloop
  endfacet
  facet normal  3.559711e-02 -7.479806e-02 -9.965632e-01
    outer loop
      vertex   5.318000e+01  4.486005e+00  9.580002e-01
      vertex   5.215800e+01  8.019913e-01  1.198002e+00
      vertex   5.062600e+01  1.272004e+00  1.108002e+00
    endloop
  endfacet
  facet normal -4.798281e-01  3.138082e-01  8.193225e-01
    outer loop
      vertex   4.791199e+01  2.417400e+01 -3.899994e-01
      vertex   3.839400e+01  4.900005e+00  1.417999e+00
      vertex   3.862200e+01  4.810005e+00  1.585999e+00
    endloop
  endfacet
  facet normal -4.696606e-01  3.094914e-01  8.268217e-01
    outer loop
      vertex   4.791199e+01  2.417400e+01 -3.899994e-01
      vertex   3.834600e+01  4.918003e+00  1.383999e+00
      vertex   3.839400e+01  4.900005e+00  1.417999e+00
    endloop
  endfacet
  facet normal  4.023222e-01 -1.046387e-01 -9.094986e-01
    outer loop
      vertex   5.261000e+01  2.417400e+01 -6.180000e-01
      vertex   5.055200e+01  1.294003e+00  1.104000e+00
      vertex   5.054800e+01  1.296006e+00  1.102001e+00
    endloop
  endfacet
  facet normal  6.309351e-02 -8.054239e-02 -9.947523e-01
    outer loop
      vertex   5.055200e+01  1.294003e+00  1.104000e+00
      vertex   5.261000e+01  2.417400e+01 -6.180000e-01
      vertex   5.355600e+01  2.417400e+01 -5.579987e-01
    endloop
  endfacet
  facet normal  0.000000e+00 -8.206201e-02 -9.966272e-01
    outer loop
      vertex   4.791199e+01  2.417400e+01 -6.020012e-01
      vertex   3.951600e+01  4.642002e+00  1.006001e+00
      vertex   3.951400e+01  4.642002e+00  1.006001e+00
    endloop
  endfacet
  facet normal -1.961130e-01  3.573439e-03 -9.805748e-01
    outer loop
      vertex   3.951600e+01  4.642002e+00  1.006001e+00
      vertex   4.791199e+01  2.417400e+01 -6.020012e-01
      vertex   4.826200e+01  2.417400e+01 -6.720009e-01
    endloop
  endfacet
  facet normal -1.964669e-01  3.751579e-03 -9.805033e-01
    outer loop
      vertex   4.791199e+01  2.417400e+01 -6.020012e-01
      vertex   3.951400e+01  4.642002e+00  1.006001e+00
      vertex   3.892800e+01  4.794002e+00  1.124001e+00
    endloop
  endfacet
  facet normal -2.013638e-01  6.111570e-03 -9.794975e-01
    outer loop
      vertex   4.791199e+01  2.417400e+01 -6.020012e-01
      vertex   3.892800e+01  4.794002e+00  1.124001e+00
      vertex   3.864800e+01  4.864002e+00  1.181999e+00
    endloop
  endfacet
  facet normal -2.821563e-04 -7.626650e-02 -9.970875e-01
    outer loop
      vertex   5.085800e+01  2.417400e+01 -7.000008e-01
      vertex   4.723200e+01  2.302002e+00  9.739990e-01
      vertex   4.611800e+01  2.646004e+00  9.480019e-01
    endloop
  endfacet
  facet normal -2.901500e-04 -7.626476e-02 -9.970876e-01
    outer loop
      vertex   5.085800e+01  2.417400e+01 -7.000008e-01
      vertex   4.611800e+01  2.646004e+00  9.480019e-01
      vertex   4.394800e+01  3.308002e+00  8.979988e-01
    endloop
  endfacet
  facet normal  3.012669e-02  9.234722e-02  9.952710e-01
    outer loop
      vertex   4.329200e+01  6.150005e+00  1.612000e+00
      vertex   4.212400e+01  3.772003e+00  1.868000e+00
      vertex   4.299800e+01  3.530003e+00  1.863998e+00
    endloop
  endfacet
  facet normal  3.002600e-02  9.248008e-02  9.952617e-01
    outer loop
      vertex   5.028400e+01  2.417400e+01 -2.739983e-01
      vertex   4.124400e+01  4.014004e+00  1.872002e+00
      vertex   4.212200e+01  3.772003e+00  1.868000e+00
    endloop
  endfacet
  facet normal -3.522177e-02 -7.045861e-02 -9.968926e-01
    outer loop
      vertex   5.085800e+01  2.417400e+01 -7.000008e-01
      vertex   4.723600e+01  2.300003e+00  9.739990e-01
      vertex   4.723200e+01  2.302002e+00  9.739990e-01
    endloop
  endfacet
  facet normal  4.366870e-02 -8.342010e-02 -9.955572e-01
    outer loop
      vertex   4.723600e+01  2.300003e+00  9.739990e-01
      vertex   5.085800e+01  2.417400e+01 -7.000008e-01
      vertex   5.154200e+01  2.417400e+01 -6.699982e-01
    endloop
  endfacet
  facet normal -2.166223e-02 -7.065476e-02 -9.972656e-01
    outer loop
      vertex   5.028400e+01  2.417400e+01 -7.179985e-01
      vertex   4.394600e+01  3.308002e+00  8.979988e-01
      vertex   4.324800e+01  3.522003e+00  8.979988e-01
    endloop
  endfacet
  facet normal -2.153537e-02 -7.069800e-02 -9.972653e-01
    outer loop
      vertex   5.028400e+01  2.417400e+01 -7.179985e-01
      vertex   4.324800e+01  3.522003e+00  8.979988e-01
      vertex   4.160000e+01  4.024002e+00  8.979988e-01
    endloop
  endfacet
  facet normal -2.307969e-02 -7.003349e-02 -9.972776e-01
    outer loop
      vertex   5.028400e+01  2.417400e+01 -7.179985e-01
      vertex   4.160000e+01  4.024002e+00  8.979988e-01
      vertex   4.124800e+01  4.140003e+00  8.979988e-01
    endloop
  endfacet
  facet normal -2.152403e-02 -7.073257e-02 -9.972631e-01
    outer loop
      vertex   5.028400e+01  2.417400e+01 -7.179985e-01
      vertex   4.124800e+01  4.140003e+00  8.979988e-01
      vertex   4.120200e+01  4.154003e+00  8.979988e-01
    endloop
  endfacet
  facet normal -3.363501e-02 -6.737974e-02 -9.971603e-01
    outer loop
      vertex   4.881600e+01  2.417400e+01 -7.120018e-01
      vertex   4.120000e+01  4.154003e+00  8.979988e-01
      vertex   4.119600e+01  4.156002e+00  8.979988e-01
    endloop
  endfacet
  facet normal -1.907138e-02 -7.293575e-02 -9.971543e-01
    outer loop
      vertex   4.120000e+01  4.154003e+00  8.979988e-01
      vertex   4.881600e+01  2.417400e+01 -7.120018e-01
      vertex   4.954800e+01  2.417400e+01 -7.260017e-01
    endloop
  endfacet
  facet normal  8.104560e-03  1.022488e-01  9.947258e-01
    outer loop
      vertex   4.115200e+01  4.040005e+00  1.869999e+00
      vertex   5.028400e+01  2.417400e+01 -2.739983e-01
      vertex   4.954800e+01  2.417400e+01 -2.680016e-01
    endloop
  endfacet
  facet normal  7.341074e-03  1.025916e-01  9.946964e-01
    outer loop
      vertex   5.028400e+01  2.417400e+01 -2.739983e-01
      vertex   4.115200e+01  4.040005e+00  1.869999e+00
      vertex   4.124400e+01  4.014004e+00  1.872002e+00
    endloop
  endfacet
  facet normal  1.070282e-01 -7.469587e-02 -9.914461e-01
    outer loop
      vertex   5.388200e+01  5.160035e-01  1.360001e+00
      vertex   5.388200e+01  2.240037e-01  1.382000e+00
      vertex   5.384000e+01  2.700014e-01  1.374001e+00
    endloop
  endfacet
  facet normal  1.242281e-01 -7.750584e-02 -9.892220e-01
    outer loop
      vertex   5.388200e+01  5.160035e-01  1.360001e+00
      vertex   5.384000e+01  2.700014e-01  1.374001e+00
      vertex   5.372000e+01  3.840074e-01  1.349998e+00
    endloop
  endfacet
  facet normal  1.291892e-01 -8.368079e-02 -9.880829e-01
    outer loop
      vertex   5.388200e+01  5.160035e-01  1.360001e+00
      vertex   5.372000e+01  3.840074e-01  1.349998e+00
      vertex   5.344800e+01  4.600038e-01  1.307999e+00
    endloop
  endfacet
  facet normal -5.254948e-01  1.751884e-01 -8.325649e-01
    outer loop
      vertex   4.791199e+01  2.417400e+01 -6.020012e-01
      vertex   3.864800e+01  4.864002e+00  1.181999e+00
      vertex   3.839400e+01  4.910003e+00  1.352001e+00
    endloop
  endfacet
  facet normal -5.257128e-01  1.753138e-01 -8.324009e-01
    outer loop
      vertex   4.791199e+01  2.417400e+01 -6.020012e-01
      vertex   3.839400e+01  4.910003e+00  1.352001e+00
      vertex   3.834600e+01  4.918003e+00  1.383999e+00
    endloop
  endfacet
  facet normal  1.300183e-01 -7.757061e-02 -9.884726e-01
    outer loop
      vertex   5.318000e+01  4.486005e+00  9.580002e-01
      vertex   5.387200e+01  2.417400e+01 -4.959984e-01
      vertex   5.387000e+01  4.776006e+00  1.026001e+00
    endloop
  endfacet
  facet normal -2.865154e-02  1.173587e-01  9.926763e-01
    outer loop
      vertex   4.954800e+01  2.417400e+01 -2.680016e-01
      vertex   4.021200e+01  4.318004e+00  1.810001e+00
      vertex   4.115200e+01  4.040005e+00  1.869999e+00
    endloop
  endfacet
  facet normal -2.536447e-02 -7.610280e-02 -9.967773e-01
    outer loop
      vertex   5.154200e+01  2.417400e+01 -6.699982e-01
      vertex   5.054800e+01  1.296006e+00  1.102001e+00
      vertex   5.054200e+01  1.298005e+00  1.102001e+00
    endloop
  endfacet
  facet normal  4.847690e-02 -7.922570e-02 -9.956774e-01
    outer loop
      vertex   5.054800e+01  1.296006e+00  1.102001e+00
      vertex   5.154200e+01  2.417400e+01 -6.699982e-01
      vertex   5.261000e+01  2.417400e+01 -6.180000e-01
    endloop
  endfacet
  facet normal  1.284517e-01 -7.740074e-02 -9.886907e-01
    outer loop
      vertex   5.344800e+01  4.600038e-01  1.307999e+00
      vertex   5.318000e+01  4.486005e+00  9.580002e-01
      vertex   5.388200e+01  5.160035e-01  1.360001e+00
    endloop
  endfacet
  facet normal  1.267075e-01 -7.753550e-02 -9.889052e-01
    outer loop
      vertex   5.344800e+01  4.600038e-01  1.307999e+00
      vertex   5.330200e+01  5.020036e-01  1.285999e+00
      vertex   5.318000e+01  4.486005e+00  9.580002e-01
    endloop
  endfacet
  facet normal  1.242638e-01 -7.763521e-02 -9.892074e-01
    outer loop
      vertex   5.304200e+01  5.700043e-01  1.248001e+00
      vertex   5.318000e+01  4.486005e+00  9.580002e-01
      vertex   5.330200e+01  5.020036e-01  1.285999e+00
    endloop
  endfacet
  facet normal  1.324891e-01  7.025146e-02  9.886918e-01
    outer loop
      vertex   5.054800e+01  1.298005e+00  1.652000e+00
      vertex   5.215000e+01  8.100021e-01  1.472000e+00
      vertex   5.282400e+01  1.237401e+01  5.600014e-01
    endloop
  endfacet
  facet normal  8.550806e-02  8.033951e-02  9.930931e-01
    outer loop
      vertex   5.054800e+01  1.298005e+00  1.652000e+00
      vertex   5.282400e+01  1.237401e+01  5.600014e-01
      vertex   5.157800e+01  1.273600e+01  6.380005e-01
    endloop
  endfacet
  facet normal  8.550397e-02  8.032506e-02  9.930946e-01
    outer loop
      vertex   5.157800e+01  1.273600e+01  6.380005e-01
      vertex   5.282400e+01  1.237401e+01  5.600014e-01
      vertex   5.261000e+01  2.417400e+01 -3.759995e-01
    endloop
  endfacet
  facet normal  1.885601e-01  7.377975e-02  9.792863e-01
    outer loop
      vertex   5.388200e+01  5.160035e-01  1.360001e+00
      vertex   5.384400e+01  2.680025e-01  1.386002e+00
      vertex   5.388200e+01  2.240037e-01  1.382000e+00
    endloop
  endfacet
  facet normal  1.550299e-01  7.948548e-02  9.847069e-01
    outer loop
      vertex   5.388200e+01  5.160035e-01  1.360001e+00
      vertex   5.372000e+01  3.859910e-01  1.396000e+00
      vertex   5.384400e+01  2.680025e-01  1.386002e+00
    endloop
  endfacet
  facet normal  1.641486e-01  6.795314e-02  9.840922e-01
    outer loop
      vertex   5.388200e+01  5.160035e-01  1.360001e+00
      vertex   5.359800e+01  4.200028e-01  1.414001e+00
      vertex   5.372000e+01  3.859910e-01  1.396000e+00
    endloop
  endfacet
  facet normal  1.632365e-01  7.063082e-02  9.840555e-01
    outer loop
      vertex   5.388200e+01  5.160035e-01  1.360001e+00
      vertex   5.332400e+01  4.959916e-01  1.453999e+00
      vertex   5.359800e+01  4.200028e-01  1.414001e+00
    endloop
  endfacet
  facet normal  1.628872e-01  7.802036e-02  9.835551e-01
    outer loop
      vertex   5.388200e+01  5.160035e-01  1.360001e+00
      vertex   5.329600e+01  5.040025e-01  1.458000e+00
      vertex   5.332400e+01  4.959916e-01  1.453999e+00
    endloop
  endfacet
  facet normal  1.634324e-01  6.065333e-02  9.846883e-01
    outer loop
      vertex   5.388200e+01  5.160035e-01  1.360001e+00
      vertex   5.310800e+01  5.560044e-01  1.486000e+00
      vertex   5.329600e+01  5.040025e-01  1.458000e+00
    endloop
  endfacet
  facet normal  1.630227e-01  5.074840e-02  9.853163e-01
    outer loop
      vertex   5.388200e+01  5.160035e-01  1.360001e+00
      vertex   5.306800e+01  5.679978e-01  1.492001e+00
      vertex   5.310800e+01  5.560044e-01  1.486000e+00
    endloop
  endfacet
  facet normal  1.644144e-01  7.756040e-02  9.833373e-01
    outer loop
      vertex   5.306800e+01  5.679978e-01  1.492001e+00
      vertex   5.388200e+01  5.160035e-01  1.360001e+00
      vertex   5.387000e+01  4.776006e+00  1.026001e+00
    endloop
  endfacet
  facet normal  1.859874e-01  7.636130e-02  9.795803e-01
    outer loop
      vertex   5.345000e+01  1.219401e+01  5.180016e-01
      vertex   5.387200e+01  2.417400e+01 -4.959984e-01
      vertex   5.355600e+01  2.417400e+01 -4.360008e-01
    endloop
  endfacet
  facet normal  4.952379e-02  8.598447e-02  9.950649e-01
    outer loop
      vertex   4.393000e+01  3.260002e+00  1.860001e+00
      vertex   4.723200e+01  2.284004e+00  1.779999e+00
      vertex   5.085800e+01  2.417400e+01 -2.919998e-01
    endloop
  endfacet
  facet normal  3.121290e-02  9.207052e-02  9.952632e-01
    outer loop
      vertex   4.393000e+01  3.260002e+00  1.860001e+00
      vertex   5.085800e+01  2.417400e+01 -2.919998e-01
      vertex   5.028400e+01  2.417400e+01 -2.739983e-01
    endloop
  endfacet
  facet normal  4.364982e-02  8.697528e-02  9.952537e-01
    outer loop
      vertex   4.723200e+01  2.284004e+00  1.779999e+00
      vertex   5.154200e+01  2.417400e+01 -3.219986e-01
      vertex   5.085800e+01  2.417400e+01 -2.919998e-01
    endloop
  endfacet
  facet normal  6.616801e-02  8.245925e-02  9.943954e-01
    outer loop
      vertex   4.723200e+01  2.284004e+00  1.779999e+00
      vertex   4.785200e+01  2.100003e+00  1.754002e+00
      vertex   5.154200e+01  2.417400e+01 -3.219986e-01
    endloop
  endfacet
endsolid vcg
