solid STL generated by MeshLab
  facet normal -6.197578e-01 -3.715372e-01  6.912745e-01
    outer loop
      vertex   4.791000e+01 -2.396201e+01 -3.919983e-01
      vertex   3.834600e+01 -4.703999e+00  1.383999e+00
      vertex   4.779400e+01 -2.396201e+01 -4.959984e-01
    endloop
  endfacet
  facet normal  4.836810e-02 -8.387122e-02  9.953021e-01
    outer loop
      vertex   5.154000e+01 -2.396201e+01 -3.240013e-01
      vertex   5.261000e+01 -2.396201e+01 -3.759995e-01
      vertex   5.157800e+01 -1.252400e+01  6.380005e-01
    endloop
  endfacet
  facet normal  4.830279e-02 -8.387128e-02  9.953052e-01
    outer loop
      vertex   5.157800e+01 -1.252400e+01  6.380005e-01
      vertex   5.054800e+01 -1.083995e+00  1.652000e+00
      vertex   5.154000e+01 -2.396201e+01 -3.240013e-01
    endloop
  endfacet
  facet normal  6.203225e-02 -8.321497e-02  9.945990e-01
    outer loop
      vertex   5.054800e+01 -1.083995e+00  1.652000e+00
      vertex   5.001000e+01 -1.245998e+00  1.672001e+00
      vertex   5.154000e+01 -2.396201e+01 -3.240013e-01
    endloop
  endfacet
  facet normal  6.253759e-02 -8.317842e-02  9.945705e-01
    outer loop
      vertex   5.001000e+01 -1.245998e+00  1.672001e+00
      vertex   4.785200e+01 -1.887996e+00  1.754002e+00
      vertex   5.154000e+01 -2.396201e+01 -3.240013e-01
    endloop
  endfacet
  facet normal  1.574814e-01 -7.908045e-02  9.843505e-01
    outer loop
      vertex   5.304000e+01 -3.619949e-01  1.495998e+00
      vertex   5.311400e+01 -3.201999e+00  1.256001e+00
      vertex   5.306800e+01 -3.559982e-01  1.492001e+00
    endloop
  endfacet
  facet normal  2.891219e-02 -9.292123e-02  9.952536e-01
    outer loop
      vertex   4.212400e+01 -3.558003e+00  1.868000e+00
      vertex   5.028200e+01 -2.396201e+01 -2.739983e-01
      vertex   4.553600e+01 -1.050800e+01  1.119999e+00
    endloop
  endfacet
  facet normal  0.000000e+00 -1.044056e-01  9.945347e-01
    outer loop
      vertex   4.212200e+01 -3.558003e+00  1.868000e+00
      vertex   5.028200e+01 -2.396201e+01 -2.739983e-01
      vertex   4.212400e+01 -3.558003e+00  1.868000e+00
    endloop
  endfacet
  facet normal  4.585431e-02  1.291335e-01 -9.905665e-01
    outer loop
      vertex   4.553600e+01 -1.050800e+01  1.119999e+00
      vertex   4.329000e+01 -5.935993e+00  1.612000e+00
      vertex   4.212400e+01 -3.558003e+00  1.868000e+00
    endloop
  endfacet
  facet normal  2.848598e-02 -8.266130e-02  9.961705e-01
    outer loop
      vertex   5.345000e+01 -1.198000e+01  5.180016e-01
      vertex   5.311400e+01 -3.201999e+00  1.256001e+00
      vertex   5.313800e+01 -4.663997e+00  1.133999e+00
    endloop
  endfacet
  facet normal  5.176934e-02 -8.169793e-02  9.953117e-01
    outer loop
      vertex   5.311400e+01 -3.201999e+00  1.256001e+00
      vertex   5.345000e+01 -1.198000e+01  5.180016e-01
      vertex   5.306800e+01 -3.559982e-01  1.492001e+00
    endloop
  endfacet
  facet normal  2.139707e-02 -8.363319e-02  9.962668e-01
    outer loop
      vertex   5.295400e+01 -3.839981e-01  1.495998e+00
      vertex   5.311400e+01 -3.201999e+00  1.256001e+00
      vertex   5.304000e+01 -3.619949e-01  1.495998e+00
    endloop
  endfacet
  facet normal -2.288495e-02 -1.144149e-01  9.931694e-01
    outer loop
      vertex   3.990400e+01 -4.193997e+00  1.790001e+00
      vertex   4.881400e+01 -2.396201e+01 -2.820015e-01
      vertex   4.007800e+01 -4.142010e+00  1.799999e+00
    endloop
  endfacet
  facet normal  8.937579e-02 -7.827983e-02  9.929171e-01
    outer loop
      vertex   5.282400e+01 -1.216200e+01  5.600014e-01
      vertex   5.355400e+01 -2.396201e+01 -4.360008e-01
      vertex   5.345000e+01 -1.198000e+01  5.180016e-01
    endloop
  endfacet
  facet normal  1.755171e-01 -7.690618e-02  9.814678e-01
    outer loop
      vertex   5.345000e+01 -1.198000e+01  5.180016e-01
      vertex   5.387000e+01 -2.396201e+01 -4.959984e-01
      vertex   5.387000e+01 -4.563998e+00  1.023998e+00
    endloop
  endfacet
  facet normal -7.191652e-02  5.273351e-02 -9.960157e-01
    outer loop
      vertex   4.881400e+01 -2.396201e+01 -7.120018e-01
      vertex   4.826001e+01 -2.396201e+01 -6.720009e-01
      vertex   4.119600e+01 -3.941998e+00  8.979988e-01
    endloop
  endfacet
  facet normal  0.000000e+00  7.818148e-02 -9.969392e-01
    outer loop
      vertex   4.119200e+01 -3.941998e+00  8.979988e-01
      vertex   4.119600e+01 -3.941998e+00  8.979988e-01
      vertex   4.826001e+01 -2.396201e+01 -6.720009e-01
    endloop
  endfacet
  facet normal -7.834981e-02  5.041923e-02 -9.956501e-01
    outer loop
      vertex   4.103400e+01 -3.990010e+00  9.080009e-01
      vertex   4.119200e+01 -3.941998e+00  8.979988e-01
      vertex   4.826001e+01 -2.396201e+01 -6.720009e-01
    endloop
  endfacet
  facet normal -7.942754e-02  5.002412e-02 -9.955846e-01
    outer loop
      vertex   4.007800e+01 -4.273999e+00  9.700012e-01
      vertex   4.103400e+01 -3.990010e+00  9.080009e-01
      vertex   4.826001e+01 -2.396201e+01 -6.720009e-01
    endloop
  endfacet
  facet normal -2.122572e-02  7.433052e-02 -9.970078e-01
    outer loop
      vertex   4.006400e+01 -4.277997e+00  9.700012e-01
      vertex   4.007800e+01 -4.273999e+00  9.700012e-01
      vertex   4.826001e+01 -2.396201e+01 -6.720009e-01
    endloop
  endfacet
  facet normal -7.902507e-02  5.014753e-02 -9.956105e-01
    outer loop
      vertex   3.951400e+01 -4.429997e+00  1.006001e+00
      vertex   4.006400e+01 -4.277997e+00  9.700012e-01
      vertex   4.826001e+01 -2.396201e+01 -6.720009e-01
    endloop
  endfacet
  facet normal  8.793556e-02 -7.320689e-02  9.934325e-01
    outer loop
      vertex   5.214800e+01 -5.979950e-01  1.472000e+00
      vertex   5.282400e+01 -1.216200e+01  5.600014e-01
      vertex   5.345000e+01 -1.198000e+01  5.180016e-01
    endloop
  endfacet
  facet normal  1.708040e-01 -7.669710e-02  9.823154e-01
    outer loop
      vertex   5.306800e+01 -3.559982e-01  1.492001e+00
      vertex   5.345000e+01 -1.198000e+01  5.180016e-01
      vertex   5.387000e+01 -4.563998e+00  1.023998e+00
    endloop
  endfacet
  facet normal  4.648281e-02 -8.740946e-02  9.950874e-01
    outer loop
      vertex   4.346400e+01 -3.179996e+00  1.869999e+00
      vertex   5.028200e+01 -2.396201e+01 -2.739983e-01
      vertex   4.393000e+01 -3.046009e+00  1.860001e+00
    endloop
  endfacet
  facet normal -2.557165e-02  7.618222e-02 -9.967660e-01
    outer loop
      vertex   5.054200e+01 -1.086009e+00  1.102001e+00
      vertex   5.054800e+01 -1.083995e+00  1.102001e+00
      vertex   5.154000e+01 -2.396201e+01 -6.720009e-01
    endloop
  endfacet
  facet normal  5.024491e-02  7.937752e-02 -9.955776e-01
    outer loop
      vertex   5.261000e+01 -2.396201e+01 -6.180000e-01
      vertex   5.154000e+01 -2.396201e+01 -6.720009e-01
      vertex   5.054800e+01 -1.083995e+00  1.102001e+00
    endloop
  endfacet
  facet normal -6.530482e-01 -2.506214e-01 -7.146446e-01
    outer loop
      vertex   4.791000e+01 -2.396201e+01 -6.020012e-01
      vertex   4.779400e+01 -2.396201e+01 -4.959984e-01
      vertex   3.834600e+01 -4.703999e+00  1.383999e+00
    endloop
  endfacet
  facet normal -1.568626e-01 -1.738507e-01  9.721985e-01
    outer loop
      vertex   3.862200e+01 -4.595997e+00  1.585999e+00
      vertex   4.826001e+01 -2.396201e+01 -3.219986e-01
      vertex   3.882600e+01 -4.533993e+00  1.630001e+00
    endloop
  endfacet
  facet normal -1.490352e-01 -1.702264e-01  9.740695e-01
    outer loop
      vertex   3.883600e+01 -4.530003e+00  1.632000e+00
      vertex   4.826001e+01 -2.396201e+01 -3.219986e-01
      vertex   3.946800e+01 -4.328000e+00  1.764000e+00
    endloop
  endfacet
  facet normal -1.309477e-01 -1.618584e-01  9.780872e-01
    outer loop
      vertex   3.882600e+01 -4.533993e+00  1.630001e+00
      vertex   4.826001e+01 -2.396201e+01 -3.219986e-01
      vertex   3.883600e+01 -4.530003e+00  1.632000e+00
    endloop
  endfacet
  facet normal  3.021362e-02 -9.239900e-02  9.952636e-01
    outer loop
      vertex   4.124400e+01 -3.801998e+00  1.872002e+00
      vertex   5.028200e+01 -2.396201e+01 -2.739983e-01
      vertex   4.212200e+01 -3.558003e+00  1.868000e+00
    endloop
  endfacet
  facet normal  2.976293e-02 -9.248143e-02  9.952695e-01
    outer loop
      vertex   4.299800e+01 -3.317997e+00  1.863998e+00
      vertex   4.329000e+01 -5.935993e+00  1.612000e+00
      vertex   4.553600e+01 -1.050800e+01  1.119999e+00
    endloop
  endfacet
  facet normal -2.865221e-02 -1.173561e-01  9.926765e-01
    outer loop
      vertex   4.021200e+01 -4.105999e+00  1.810001e+00
      vertex   4.954600e+01 -2.396201e+01 -2.680016e-01
      vertex   4.115200e+01 -3.827999e+00  1.869999e+00
    endloop
  endfacet
  facet normal -1.899973e-02 -1.128969e-01  9.934250e-01
    outer loop
      vertex   4.021200e+01 -4.105999e+00  1.810001e+00
      vertex   4.881400e+01 -2.396201e+01 -2.820015e-01
      vertex   4.954600e+01 -2.396201e+01 -2.680016e-01
    endloop
  endfacet
  facet normal -4.115105e-02 -1.223051e-01  9.916391e-01
    outer loop
      vertex   4.881400e+01 -2.396201e+01 -2.820015e-01
      vertex   4.021200e+01 -4.105999e+00  1.810001e+00
      vertex   4.007800e+01 -4.142010e+00  1.799999e+00
    endloop
  endfacet
  facet normal  3.111971e-02  8.666249e-02 -9.957516e-01
    outer loop
      vertex   5.085801e+01 -2.396201e+01 -7.019997e-01
      vertex   5.028200e+01 -2.396201e+01 -7.200012e-01
      vertex   4.394600e+01 -3.095997e+00  8.979988e-01
    endloop
  endfacet
  facet normal  0.000000e+00  7.731029e-02 -9.970071e-01
    outer loop
      vertex   4.394400e+01 -3.095997e+00  8.979988e-01
      vertex   4.394600e+01 -3.095997e+00  8.979988e-01
      vertex   5.028200e+01 -2.396201e+01 -7.200012e-01
    endloop
  endfacet
  facet normal -1.232054e-04 -1.031032e-01  9.946707e-01
    outer loop
      vertex   4.335200e+01 -3.212009e+00  1.875999e+00
      vertex   4.553600e+01 -1.050800e+01  1.119999e+00
      vertex   5.028200e+01 -2.396201e+01 -2.739983e-01
    endloop
  endfacet
  facet normal -2.626908e-03 -1.038444e-01  9.945901e-01
    outer loop
      vertex   4.553600e+01 -1.050800e+01  1.119999e+00
      vertex   4.335200e+01 -3.212009e+00  1.875999e+00
      vertex   4.299800e+01 -3.317997e+00  1.863998e+00
    endloop
  endfacet
  facet normal -7.134353e-02 -1.357327e-01  9.881734e-01
    outer loop
      vertex   3.990400e+01 -4.193997e+00  1.790001e+00
      vertex   4.826001e+01 -2.396201e+01 -3.219986e-01
      vertex   4.881400e+01 -2.396201e+01 -2.820015e-01
    endloop
  endfacet
  facet normal -2.355092e-02 -1.160424e-01  9.929650e-01
    outer loop
      vertex   4.826001e+01 -2.396201e+01 -3.219986e-01
      vertex   3.990400e+01 -4.193997e+00  1.790001e+00
      vertex   3.946800e+01 -4.328000e+00  1.764000e+00
    endloop
  endfacet
  facet normal -2.174693e-02  7.072423e-02 -9.972588e-01
    outer loop
      vertex   4.324800e+01 -3.310009e+00  8.979988e-01
      vertex   4.394400e+01 -3.095997e+00  8.979988e-01
      vertex   5.028200e+01 -2.396201e+01 -7.200012e-01
    endloop
  endfacet
  facet normal -2.146106e-02  7.082154e-02 -9.972581e-01
    outer loop
      vertex   4.159800e+01 -3.810009e+00  8.979988e-01
      vertex   4.324800e+01 -3.310009e+00  8.979988e-01
      vertex   5.028200e+01 -2.396201e+01 -7.200012e-01
    endloop
  endfacet
  facet normal -2.310406e-02  7.011459e-02 -9.972714e-01
    outer loop
      vertex   4.124600e+01 -3.925999e+00  8.979988e-01
      vertex   4.159800e+01 -3.810009e+00  8.979988e-01
      vertex   5.028200e+01 -2.396201e+01 -7.200012e-01
    endloop
  endfacet
  facet normal -2.240758e-02  7.042820e-02 -9.972651e-01
    outer loop
      vertex   4.120200e+01 -3.939999e+00  8.979988e-01
      vertex   4.124600e+01 -3.925999e+00  8.979988e-01
      vertex   5.028200e+01 -2.396201e+01 -7.200012e-01
    endloop
  endfacet
  facet normal -5.805644e-02  5.805644e-02 -9.966238e-01
    outer loop
      vertex   4.119600e+01 -3.941998e+00  8.979988e-01
      vertex   4.119800e+01 -3.939999e+00  8.979988e-01
      vertex   4.881400e+01 -2.396201e+01 -7.120018e-01
    endloop
  endfacet
  facet normal -1.907123e-02  7.292841e-02 -9.971548e-01
    outer loop
      vertex   4.954600e+01 -2.396201e+01 -7.260017e-01
      vertex   4.881400e+01 -2.396201e+01 -7.120018e-01
      vertex   4.119800e+01 -3.939999e+00  8.979988e-01
    endloop
  endfacet
  facet normal  6.322917e-02 -8.005489e-02  9.947830e-01
    outer loop
      vertex   5.261000e+01 -2.396201e+01 -3.759995e-01
      vertex   5.355400e+01 -2.396201e+01 -4.360008e-01
      vertex   5.282400e+01 -1.216200e+01  5.600014e-01
    endloop
  endfacet
  facet normal -1.961128e-01 -3.573513e-03 -9.805748e-01
    outer loop
      vertex   4.826001e+01 -2.396201e+01 -6.720009e-01
      vertex   4.791000e+01 -2.396201e+01 -6.020012e-01
      vertex   3.951400e+01 -4.429997e+00  1.006001e+00
    endloop
  endfacet
  facet normal  0.000000e+00  8.204890e-02 -9.966283e-01
    outer loop
      vertex   3.951200e+01 -4.429997e+00  1.006001e+00
      vertex   3.951400e+01 -4.429997e+00  1.006001e+00
      vertex   4.791000e+01 -2.396201e+01 -6.020012e-01
    endloop
  endfacet
  facet normal -1.970478e-01 -4.011163e-03 -9.803857e-01
    outer loop
      vertex   3.892800e+01 -4.581997e+00  1.124001e+00
      vertex   3.951200e+01 -4.429997e+00  1.006001e+00
      vertex   4.791000e+01 -2.396201e+01 -6.020012e-01
    endloop
  endfacet
  facet normal -1.953476e-01 -3.192620e-03 -9.807289e-01
    outer loop
      vertex   3.864800e+01 -4.651997e+00  1.180000e+00
      vertex   3.892800e+01 -4.581997e+00  1.124001e+00
      vertex   4.791000e+01 -2.396201e+01 -6.020012e-01
    endloop
  endfacet
  facet normal -5.304300e-01 -1.779304e-01 -8.288455e-01
    outer loop
      vertex   3.839400e+01 -4.696003e+00  1.352001e+00
      vertex   3.864800e+01 -4.651997e+00  1.180000e+00
      vertex   4.791000e+01 -2.396201e+01 -6.020012e-01
    endloop
  endfacet
  facet normal -5.257373e-01 -1.752523e-01 -8.323982e-01
    outer loop
      vertex   3.834600e+01 -4.703999e+00  1.383999e+00
      vertex   3.839400e+01 -4.696003e+00  1.352001e+00
      vertex   4.791000e+01 -2.396201e+01 -6.020012e-01
    endloop
  endfacet
  facet normal  7.549307e-02 -7.779090e-02  9.941073e-01
    outer loop
      vertex   4.335200e+01 -3.212009e+00  1.875999e+00
      vertex   5.028200e+01 -2.396201e+01 -2.739983e-01
      vertex   4.346400e+01 -3.179996e+00  1.869999e+00
    endloop
  endfacet
  facet normal  1.705530e-02  7.804483e-02 -9.968039e-01
    outer loop
      vertex   5.029600e+01 -1.159999e+00  1.091999e+00
      vertex   5.054200e+01 -1.086009e+00  1.102001e+00
      vertex   5.154000e+01 -2.396201e+01 -6.720009e-01
    endloop
  endfacet
  facet normal  1.458273e-02  7.791376e-02 -9.968535e-01
    outer loop
      vertex   4.788600e+01 -1.885997e+00  1.000000e+00
      vertex   5.029600e+01 -1.159999e+00  1.091999e+00
      vertex   5.154000e+01 -2.396201e+01 -6.720009e-01
    endloop
  endfacet
  facet normal  1.583623e-02  7.811858e-02 -9.968183e-01
    outer loop
      vertex   4.723600e+01 -2.086010e+00  9.739990e-01
      vertex   4.788600e+01 -1.885997e+00  1.000000e+00
      vertex   5.154000e+01 -2.396201e+01 -6.720009e-01
    endloop
  endfacet
  facet normal  4.236930e-02 -8.239407e-02  9.956988e-01
    outer loop
      vertex   5.295400e+01 -3.839981e-01  1.495998e+00
      vertex   5.313800e+01 -4.663997e+00  1.133999e+00
      vertex   5.311400e+01 -3.201999e+00  1.256001e+00
    endloop
  endfacet
  facet normal -1.925170e-01 -1.906489e-01  9.625955e-01
    outer loop
      vertex   4.826001e+01 -2.396201e+01 -3.219986e-01
      vertex   3.862200e+01 -4.595997e+00  1.585999e+00
      vertex   4.791000e+01 -2.396201e+01 -3.919983e-01
    endloop
  endfacet
  facet normal  2.082916e-01 -0.000000e+00  9.780668e-01
    outer loop
      vertex   3.862200e+01 -4.597996e+00  1.585999e+00
      vertex   4.791000e+01 -2.396201e+01 -3.919983e-01
      vertex   3.862200e+01 -4.595997e+00  1.585999e+00
    endloop
  endfacet
  facet normal  7.341495e-03 -1.025925e-01  9.946964e-01
    outer loop
      vertex   4.115200e+01 -3.827999e+00  1.869999e+00
      vertex   5.028200e+01 -2.396201e+01 -2.739983e-01
      vertex   4.124400e+01 -3.801998e+00  1.872002e+00
    endloop
  endfacet
  facet normal  1.272106e-01  7.763458e-02 -9.888328e-01
    outer loop
      vertex   5.318000e+01 -4.273997e+00  9.580002e-01
      vertex   5.388200e+01 -3.039961e-01  1.360001e+00
      vertex   5.387000e+01 -4.563998e+00  1.023998e+00
    endloop
  endfacet
  facet normal -4.814335e-01 -3.144901e-01  8.181185e-01
    outer loop
      vertex   3.839400e+01 -4.685994e+00  1.417999e+00
      vertex   4.791000e+01 -2.396201e+01 -3.919983e-01
      vertex   3.862200e+01 -4.597996e+00  1.585999e+00
    endloop
  endfacet
  facet normal -4.696303e-01 -3.094824e-01  8.268422e-01
    outer loop
      vertex   3.834600e+01 -4.703999e+00  1.383999e+00
      vertex   4.791000e+01 -2.396201e+01 -3.919983e-01
      vertex   3.839400e+01 -4.685994e+00  1.417999e+00
    endloop
  endfacet
  facet normal -5.308629e-03 -8.412536e-02  9.964411e-01
    outer loop
      vertex   5.313800e+01 -4.663997e+00  1.133999e+00
      vertex   5.214800e+01 -5.979950e-01  1.472000e+00
      vertex   5.345000e+01 -1.198000e+01  5.180016e-01
    endloop
  endfacet
  facet normal -7.209577e-03 -8.458398e-02  9.963902e-01
    outer loop
      vertex   5.214800e+01 -5.979950e-01  1.472000e+00
      vertex   5.313800e+01 -4.663997e+00  1.133999e+00
      vertex   5.295400e+01 -3.839981e-01  1.495998e+00
    endloop
  endfacet
  facet normal  4.379049e-02  8.352252e-02 -9.955432e-01
    outer loop
      vertex   5.154000e+01 -2.396201e+01 -6.720009e-01
      vertex   5.085801e+01 -2.396201e+01 -7.019997e-01
      vertex   4.723600e+01 -2.086010e+00  9.739990e-01
    endloop
  endfacet
  facet normal -3.526784e-02  7.053569e-02 -9.968856e-01
    outer loop
      vertex   4.723200e+01 -2.088009e+00  9.739990e-01
      vertex   4.723600e+01 -2.086010e+00  9.739990e-01
      vertex   5.085801e+01 -2.396201e+01 -7.019997e-01
    endloop
  endfacet
  facet normal  0.000000e+00  8.084525e-02 -9.967266e-01
    outer loop
      vertex   4.119800e+01 -3.939999e+00  8.979988e-01
      vertex   4.120200e+01 -3.939999e+00  8.979988e-01
      vertex   4.954600e+01 -2.396201e+01 -7.260017e-01
    endloop
  endfacet
  facet normal  8.123652e-03  8.420546e-02 -9.964153e-01
    outer loop
      vertex   5.028200e+01 -2.396201e+01 -7.200012e-01
      vertex   4.954600e+01 -2.396201e+01 -7.260017e-01
      vertex   4.120200e+01 -3.939999e+00  8.979988e-01
    endloop
  endfacet
  facet normal  0.000000e+00  7.244887e-02 -9.973721e-01
    outer loop
      vertex   5.055200e+01 -1.081996e+00  1.104000e+00
      vertex   5.055400e+01 -1.081996e+00  1.104000e+00
      vertex   5.355400e+01 -2.396201e+01 -5.579987e-01
    endloop
  endfacet
  facet normal  1.916430e-01  9.607897e-02 -9.767507e-01
    outer loop
      vertex   5.387000e+01 -2.396201e+01 -4.959984e-01
      vertex   5.355400e+01 -2.396201e+01 -5.579987e-01
      vertex   5.055400e+01 -1.081996e+00  1.104000e+00
    endloop
  endfacet
  facet normal  3.563014e-02  7.484653e-02 -9.965583e-01
    outer loop
      vertex   5.062400e+01 -1.060008e+00  1.108002e+00
      vertex   5.318000e+01 -4.273997e+00  9.580002e-01
      vertex   5.387000e+01 -2.396201e+01 -4.959984e-01
    endloop
  endfacet
  facet normal  3.355478e-02  7.455893e-02 -9.966519e-01
    outer loop
      vertex   5.055400e+01 -1.081996e+00  1.104000e+00
      vertex   5.062400e+01 -1.060008e+00  1.108002e+00
      vertex   5.387000e+01 -2.396201e+01 -4.959984e-01
    endloop
  endfacet
  facet normal  3.827224e-02  7.514034e-02 -9.964383e-01
    outer loop
      vertex   5.269800e+01 -4.480087e-01  1.228001e+00
      vertex   5.304200e+01 -3.579971e-01  1.248001e+00
      vertex   5.318000e+01 -4.273997e+00  9.580002e-01
    endloop
  endfacet
  facet normal  3.568885e-02  7.482333e-02 -9.965579e-01
    outer loop
      vertex   5.215800e+01 -5.899917e-01  1.198002e+00
      vertex   5.269800e+01 -4.480087e-01  1.228001e+00
      vertex   5.318000e+01 -4.273997e+00  9.580002e-01
    endloop
  endfacet
  facet normal  3.555420e-02  7.478647e-02 -9.965655e-01
    outer loop
      vertex   5.062400e+01 -1.060008e+00  1.108002e+00
      vertex   5.215800e+01 -5.899917e-01  1.198002e+00
      vertex   5.318000e+01 -4.273997e+00  9.580002e-01
    endloop
  endfacet
  facet normal  2.994705e-02 -9.246056e-02  9.952659e-01
    outer loop
      vertex   4.212400e+01 -3.558003e+00  1.868000e+00
      vertex   4.329000e+01 -5.935993e+00  1.612000e+00
      vertex   4.299800e+01 -3.317997e+00  1.863998e+00
    endloop
  endfacet
  facet normal  4.024081e-01  1.046437e-01 -9.094599e-01
    outer loop
      vertex   5.054800e+01 -1.083995e+00  1.102001e+00
      vertex   5.055200e+01 -1.081996e+00  1.104000e+00
      vertex   5.261000e+01 -2.396201e+01 -6.180000e-01
    endloop
  endfacet
  facet normal  6.322662e-02  8.055364e-02 -9.947430e-01
    outer loop
      vertex   5.355400e+01 -2.396201e+01 -5.579987e-01
      vertex   5.261000e+01 -2.396201e+01 -6.180000e-01
      vertex   5.055200e+01 -1.081996e+00  1.104000e+00
    endloop
  endfacet
  facet normal  1.284516e-01  7.740074e-02 -9.886907e-01
    outer loop
      vertex   5.318000e+01 -4.273997e+00  9.580002e-01
      vertex   5.344800e+01 -2.479964e-01  1.307999e+00
      vertex   5.388200e+01 -3.039961e-01  1.360001e+00
    endloop
  endfacet
  facet normal  1.267073e-01  7.753549e-02 -9.889052e-01
    outer loop
      vertex   5.318000e+01 -4.273997e+00  9.580002e-01
      vertex   5.330200e+01 -2.899963e-01  1.285999e+00
      vertex   5.344800e+01 -2.479964e-01  1.307999e+00
    endloop
  endfacet
  facet normal  1.242638e-01  7.763521e-02 -9.892074e-01
    outer loop
      vertex   5.330200e+01 -2.899963e-01  1.285999e+00
      vertex   5.318000e+01 -4.273997e+00  9.580002e-01
      vertex   5.304200e+01 -3.579971e-01  1.248001e+00
    endloop
  endfacet
  facet normal  1.070147e-01  7.469598e-02 -9.914476e-01
    outer loop
      vertex   5.388200e+01 -1.199633e-02  1.382000e+00
      vertex   5.388200e+01 -3.039961e-01  1.360001e+00
      vertex   5.384000e+01 -5.800158e-02  1.374001e+00
    endloop
  endfacet
  facet normal  1.242345e-01  7.750928e-02 -9.892210e-01
    outer loop
      vertex   5.372000e+01 -1.719924e-01  1.349998e+00
      vertex   5.384000e+01 -5.800158e-02  1.374001e+00
      vertex   5.388200e+01 -3.039961e-01  1.360001e+00
    endloop
  endfacet
  facet normal  1.291885e-01  8.367510e-02 -9.880834e-01
    outer loop
      vertex   5.344800e+01 -2.479964e-01  1.307999e+00
      vertex   5.372000e+01 -1.719924e-01  1.349998e+00
      vertex   5.388200e+01 -3.039961e-01  1.360001e+00
    endloop
  endfacet
  facet normal -3.064130e-04  7.634616e-02 -9.970813e-01
    outer loop
      vertex   4.611800e+01 -2.432003e+00  9.480019e-01
      vertex   4.723200e+01 -2.088009e+00  9.739990e-01
      vertex   5.085801e+01 -2.396201e+01 -7.019997e-01
    endloop
  endfacet
  facet normal -3.800741e-04  7.633003e-02 -9.970825e-01
    outer loop
      vertex   4.394600e+01 -3.095997e+00  8.979988e-01
      vertex   4.611800e+01 -2.432003e+00  9.480019e-01
      vertex   5.085801e+01 -2.396201e+01 -7.019997e-01
    endloop
  endfacet
  facet normal  1.271496e-01  7.748489e-02 -9.888524e-01
    outer loop
      vertex   5.318000e+01 -4.273997e+00  9.580002e-01
      vertex   5.387000e+01 -4.563998e+00  1.023998e+00
      vertex   5.387000e+01 -2.396201e+01 -4.959984e-01
    endloop
  endfacet
  facet normal  0.000000e+00 -1.000000e+00 -0.000000e+00
    outer loop
      vertex   5.261000e+01 -2.396201e+01 -4.959984e-01
      vertex   5.154000e+01 -2.396201e+01 -6.720009e-01
      vertex   5.261000e+01 -2.396201e+01 -6.180000e-01
    endloop
  endfacet
  facet normal  0.000000e+00 -1.000000e+00  0.000000e+00
    outer loop
      vertex   5.085801e+01 -2.396201e+01 -4.959984e-01
      vertex   5.085801e+01 -2.396201e+01 -7.019997e-01
      vertex   5.154000e+01 -2.396201e+01 -6.720009e-01
    endloop
  endfacet
  facet normal  0.000000e+00 -1.000000e+00  0.000000e+00
    outer loop
      vertex   4.881400e+01 -2.396201e+01 -4.959984e-01
      vertex   4.881400e+01 -2.396201e+01 -7.120018e-01
      vertex   4.954600e+01 -2.396201e+01 -4.959984e-01
    endloop
  endfacet
  facet normal  0.000000e+00 -1.000000e+00  0.000000e+00
    outer loop
      vertex   4.881400e+01 -2.396201e+01 -4.959984e-01
      vertex   4.881400e+01 -2.396201e+01 -2.820015e-01
      vertex   4.826001e+01 -2.396201e+01 -4.959984e-01
    endloop
  endfacet
  facet normal  0.000000e+00 -1.000000e+00  0.000000e+00
    outer loop
      vertex   4.954600e+01 -2.396201e+01 -4.959984e-01
      vertex   4.954600e+01 -2.396201e+01 -2.680016e-01
      vertex   4.881400e+01 -2.396201e+01 -2.820015e-01
    endloop
  endfacet
  facet normal  0.000000e+00 -1.000000e+00  0.000000e+00
    outer loop
      vertex   5.387000e+01 -2.396201e+01 -4.959984e-01
      vertex   5.355400e+01 -2.396201e+01 -4.360008e-01
      vertex   5.261000e+01 -2.396201e+01 -4.959984e-01
    endloop
  endfacet
  facet normal  0.000000e+00 -1.000000e+00  0.000000e+00
    outer loop
      vertex   4.954600e+01 -2.396201e+01 -4.959984e-01
      vertex   4.954600e+01 -2.396201e+01 -7.260017e-01
      vertex   4.979600e+01 -2.396201e+01 -5.740013e-01
    endloop
  endfacet
  facet normal  0.000000e+00 -1.000000e+00  0.000000e+00
    outer loop
      vertex   5.028200e+01 -2.396201e+01 -2.739983e-01
      vertex   5.085801e+01 -2.396201e+01 -4.959984e-01
      vertex   5.085801e+01 -2.396201e+01 -2.919998e-01
    endloop
  endfacet
  facet normal  0.000000e+00 -1.000000e+00  0.000000e+00
    outer loop
      vertex   5.261000e+01 -2.396201e+01 -4.959984e-01
      vertex   5.261000e+01 -2.396201e+01 -6.180000e-01
      vertex   5.355400e+01 -2.396201e+01 -5.579987e-01
    endloop
  endfacet
  facet normal  0.000000e+00 -1.000000e+00  0.000000e+00
    outer loop
      vertex   4.954600e+01 -2.396201e+01 -4.959984e-01
      vertex   4.979600e+01 -2.396201e+01 -5.740013e-01
      vertex   4.992000e+01 -2.396201e+01 -4.959984e-01
    endloop
  endfacet
  facet normal  0.000000e+00 -1.000000e+00  0.000000e+00
    outer loop
      vertex   5.028200e+01 -2.396201e+01 -4.959984e-01
      vertex   5.028200e+01 -2.396201e+01 -2.739983e-01
      vertex   4.992000e+01 -2.396201e+01 -4.959984e-01
    endloop
  endfacet
  facet normal  0.000000e+00 -1.000000e+00  0.000000e+00
    outer loop
      vertex   5.261000e+01 -2.396201e+01 -4.959984e-01
      vertex   5.154000e+01 -2.396201e+01 -3.240013e-01
      vertex   5.154000e+01 -2.396201e+01 -4.959984e-01
    endloop
  endfacet
  facet normal  0.000000e+00 -1.000000e+00  0.000000e+00
    outer loop
      vertex   4.954600e+01 -2.396201e+01 -4.959984e-01
      vertex   4.881400e+01 -2.396201e+01 -2.820015e-01
      vertex   4.881400e+01 -2.396201e+01 -4.959984e-01
    endloop
  endfacet
  facet normal  0.000000e+00 -1.000000e+00  0.000000e+00
    outer loop
      vertex   5.028200e+01 -2.396201e+01 -7.200012e-01
      vertex   5.028200e+01 -2.396201e+01 -4.959984e-01
      vertex   4.992000e+01 -2.396201e+01 -6.100006e-01
    endloop
  endfacet
  facet normal  0.000000e+00 -1.000000e+00  0.000000e+00
    outer loop
      vertex   5.085801e+01 -2.396201e+01 -4.959984e-01
      vertex   5.028200e+01 -2.396201e+01 -2.739983e-01
      vertex   5.028200e+01 -2.396201e+01 -4.959984e-01
    endloop
  endfacet
  facet normal  0.000000e+00 -1.000000e+00  0.000000e+00
    outer loop
      vertex   4.826001e+01 -2.396201e+01 -4.959984e-01
      vertex   4.791000e+01 -2.396201e+01 -3.919983e-01
      vertex   4.779400e+01 -2.396201e+01 -4.959984e-01
    endloop
  endfacet
  facet normal  0.000000e+00 -1.000000e+00  0.000000e+00
    outer loop
      vertex   4.826001e+01 -2.396201e+01 -4.959984e-01
      vertex   4.826001e+01 -2.396201e+01 -3.219986e-01
      vertex   4.791000e+01 -2.396201e+01 -3.919983e-01
    endloop
  endfacet
  facet normal  0.000000e+00 -1.000000e+00  0.000000e+00
    outer loop
      vertex   5.085801e+01 -2.396201e+01 -2.919998e-01
      vertex   5.085801e+01 -2.396201e+01 -4.959984e-01
      vertex   5.154000e+01 -2.396201e+01 -3.240013e-01
    endloop
  endfacet
  facet normal  0.000000e+00 -1.000000e+00 -0.000000e+00
    outer loop
      vertex   4.979600e+01 -2.396201e+01 -5.740013e-01
      vertex   4.954600e+01 -2.396201e+01 -7.260017e-01
      vertex   4.992000e+01 -2.396201e+01 -6.100006e-01
    endloop
  endfacet
  facet normal  0.000000e+00 -1.000000e+00  0.000000e+00
    outer loop
      vertex   5.261000e+01 -2.396201e+01 -3.759995e-01
      vertex   5.261000e+01 -2.396201e+01 -4.959984e-01
      vertex   5.355400e+01 -2.396201e+01 -4.360008e-01
    endloop
  endfacet
  facet normal  0.000000e+00 -1.000000e+00  0.000000e+00
    outer loop
      vertex   5.154000e+01 -2.396201e+01 -4.959984e-01
      vertex   5.154000e+01 -2.396201e+01 -6.720009e-01
      vertex   5.261000e+01 -2.396201e+01 -4.959984e-01
    endloop
  endfacet
  facet normal  0.000000e+00 -1.000000e+00 -0.000000e+00
    outer loop
      vertex   4.992000e+01 -2.396201e+01 -6.100006e-01
      vertex   4.954600e+01 -2.396201e+01 -7.260017e-01
      vertex   5.028200e+01 -2.396201e+01 -7.200012e-01
    endloop
  endfacet
  facet normal  0.000000e+00 -1.000000e+00  0.000000e+00
    outer loop
      vertex   4.954600e+01 -2.396201e+01 -2.680016e-01
      vertex   4.954600e+01 -2.396201e+01 -4.959984e-01
      vertex   5.028200e+01 -2.396201e+01 -2.739983e-01
    endloop
  endfacet
  facet normal  0.000000e+00 -1.000000e+00  0.000000e+00
    outer loop
      vertex   5.154000e+01 -2.396201e+01 -4.959984e-01
      vertex   5.154000e+01 -2.396201e+01 -3.240013e-01
      vertex   5.085801e+01 -2.396201e+01 -4.959984e-01
    endloop
  endfacet
  facet normal  0.000000e+00 -1.000000e+00  0.000000e+00
    outer loop
      vertex   4.992000e+01 -2.396201e+01 -6.100006e-01
      vertex   5.028200e+01 -2.396201e+01 -4.959984e-01
      vertex   4.979600e+01 -2.396201e+01 -5.740013e-01
    endloop
  endfacet
  facet normal  0.000000e+00 -1.000000e+00  0.000000e+00
    outer loop
      vertex   5.028200e+01 -2.396201e+01 -4.959984e-01
      vertex   5.028200e+01 -2.396201e+01 -7.200012e-01
      vertex   5.085801e+01 -2.396201e+01 -4.959984e-01
    endloop
  endfacet
  facet normal  0.000000e+00 -1.000000e+00  0.000000e+00
    outer loop
      vertex   5.085801e+01 -2.396201e+01 -4.959984e-01
      vertex   5.154000e+01 -2.396201e+01 -6.720009e-01
      vertex   5.154000e+01 -2.396201e+01 -4.959984e-01
    endloop
  endfacet
  facet normal  0.000000e+00 -1.000000e+00  0.000000e+00
    outer loop
      vertex   4.826001e+01 -2.396201e+01 -4.959984e-01
      vertex   4.881400e+01 -2.396201e+01 -2.820015e-01
      vertex   4.826001e+01 -2.396201e+01 -3.219986e-01
    endloop
  endfacet
  facet normal  0.000000e+00 -1.000000e+00  0.000000e+00
    outer loop
      vertex   4.992000e+01 -2.396201e+01 -4.959984e-01
      vertex   5.028200e+01 -2.396201e+01 -2.739983e-01
      vertex   4.954600e+01 -2.396201e+01 -4.959984e-01
    endloop
  endfacet
  facet normal  0.000000e+00 -1.000000e+00 -0.000000e+00
    outer loop
      vertex   4.992000e+01 -2.396201e+01 -4.959984e-01
      vertex   4.979600e+01 -2.396201e+01 -5.740013e-01
      vertex   5.028200e+01 -2.396201e+01 -4.959984e-01
    endloop
  endfacet
  facet normal  0.000000e+00 -1.000000e+00 -0.000000e+00
    outer loop
      vertex   5.085801e+01 -2.396201e+01 -4.959984e-01
      vertex   5.028200e+01 -2.396201e+01 -7.200012e-01
      vertex   5.085801e+01 -2.396201e+01 -7.019997e-01
    endloop
  endfacet
  facet normal  0.000000e+00 -1.000000e+00  0.000000e+00
    outer loop
      vertex   4.826001e+01 -2.396201e+01 -4.959984e-01
      vertex   4.881400e+01 -2.396201e+01 -7.120018e-01
      vertex   4.881400e+01 -2.396201e+01 -4.959984e-01
    endloop
  endfacet
  facet normal  0.000000e+00 -1.000000e+00  0.000000e+00
    outer loop
      vertex   4.826001e+01 -2.396201e+01 -6.720009e-01
      vertex   4.826001e+01 -2.396201e+01 -4.959984e-01
      vertex   4.791000e+01 -2.396201e+01 -6.020012e-01
    endloop
  endfacet
  facet normal  0.000000e+00 -1.000000e+00  0.000000e+00
    outer loop
      vertex   5.261000e+01 -2.396201e+01 -4.959984e-01
      vertex   5.355400e+01 -2.396201e+01 -5.579987e-01
      vertex   5.387000e+01 -2.396201e+01 -4.959984e-01
    endloop
  endfacet
  facet normal  0.000000e+00 -1.000000e+00  0.000000e+00
    outer loop
      vertex   5.154000e+01 -2.396201e+01 -3.240013e-01
      vertex   5.261000e+01 -2.396201e+01 -4.959984e-01
      vertex   5.261000e+01 -2.396201e+01 -3.759995e-01
    endloop
  endfacet
  facet normal  0.000000e+00 -1.000000e+00  0.000000e+00
    outer loop
      vertex   4.779400e+01 -2.396201e+01 -4.959984e-01
      vertex   4.791000e+01 -2.396201e+01 -6.020012e-01
      vertex   4.826001e+01 -2.396201e+01 -4.959984e-01
    endloop
  endfacet
  facet normal  0.000000e+00 -1.000000e+00  0.000000e+00
    outer loop
      vertex   4.954600e+01 -2.396201e+01 -7.260017e-01
      vertex   4.954600e+01 -2.396201e+01 -4.959984e-01
      vertex   4.881400e+01 -2.396201e+01 -7.120018e-01
    endloop
  endfacet
  facet normal  0.000000e+00 -1.000000e+00  0.000000e+00
    outer loop
      vertex   4.881400e+01 -2.396201e+01 -7.120018e-01
      vertex   4.826001e+01 -2.396201e+01 -4.959984e-01
      vertex   4.826001e+01 -2.396201e+01 -6.720009e-01
    endloop
  endfacet
  facet normal  8.104722e-03 -1.022495e-01  9.947258e-01
    outer loop
      vertex   5.028200e+01 -2.396201e+01 -2.739983e-01
      vertex   4.115200e+01 -3.827999e+00  1.869999e+00
      vertex   4.954600e+01 -2.396201e+01 -2.680016e-01
    endloop
  endfacet
  facet normal  8.550392e-02 -8.032491e-02  9.930946e-01
    outer loop
      vertex   5.157800e+01 -1.252400e+01  6.380005e-01
      vertex   5.261000e+01 -2.396201e+01 -3.759995e-01
      vertex   5.282400e+01 -1.216200e+01  5.600014e-01
    endloop
  endfacet
  facet normal  6.619511e-02 -8.254999e-02  9.943861e-01
    outer loop
      vertex   4.723200e+01 -2.072002e+00  1.779999e+00
      vertex   5.154000e+01 -2.396201e+01 -3.240013e-01
      vertex   4.785200e+01 -1.887996e+00  1.754002e+00
    endloop
  endfacet
  facet normal  1.859894e-01 -7.637922e-02  9.795786e-01
    outer loop
      vertex   5.345000e+01 -1.198000e+01  5.180016e-01
      vertex   5.355400e+01 -2.396201e+01 -4.360008e-01
      vertex   5.387000e+01 -2.396201e+01 -4.959984e-01
    endloop
  endfacet
  facet normal  4.669589e-02 -8.646184e-02  9.951602e-01
    outer loop
      vertex   4.723200e+01 -2.072002e+00  1.779999e+00
      vertex   5.085801e+01 -2.396201e+01 -2.919998e-01
      vertex   5.154000e+01 -2.396201e+01 -3.240013e-01
    endloop
  endfacet
  facet normal  3.110460e-02 -9.209779e-02  9.952641e-01
    outer loop
      vertex   4.393000e+01 -3.046009e+00  1.860001e+00
      vertex   5.028200e+01 -2.396201e+01 -2.739983e-01
      vertex   5.085801e+01 -2.396201e+01 -2.919998e-01
    endloop
  endfacet
  facet normal  4.947444e-02 -8.599276e-02  9.950666e-01
    outer loop
      vertex   4.393000e+01 -3.046009e+00  1.860001e+00
      vertex   5.085801e+01 -2.396201e+01 -2.919998e-01
      vertex   4.723200e+01 -2.072002e+00  1.779999e+00
    endloop
  endfacet
  facet normal  8.550421e-02 -8.032592e-02  9.930946e-01
    outer loop
      vertex   5.054800e+01 -1.083995e+00  1.652000e+00
      vertex   5.157800e+01 -1.252400e+01  6.380005e-01
      vertex   5.282400e+01 -1.216200e+01  5.600014e-01
    endloop
  endfacet
  facet normal  1.885601e-01 -7.377975e-02  9.792863e-01
    outer loop
      vertex   5.388200e+01 -1.199633e-02  1.382000e+00
      vertex   5.384400e+01 -5.599505e-02  1.386002e+00
      vertex   5.388200e+01 -3.039961e-01  1.360001e+00
    endloop
  endfacet
  facet normal  1.550383e-01 -7.948406e-02  9.847057e-01
    outer loop
      vertex   5.372000e+01 -1.739989e-01  1.396000e+00
      vertex   5.388200e+01 -3.039961e-01  1.360001e+00
      vertex   5.384400e+01 -5.599505e-02  1.386002e+00
    endloop
  endfacet
  facet normal  1.641439e-01 -6.796689e-02  9.840921e-01
    outer loop
      vertex   5.359800e+01 -2.079955e-01  1.414001e+00
      vertex   5.388200e+01 -3.039961e-01  1.360001e+00
      vertex   5.372000e+01 -1.739989e-01  1.396000e+00
    endloop
  endfacet
  facet normal  1.632376e-01 -7.062767e-02  9.840555e-01
    outer loop
      vertex   5.332400e+01 -2.839919e-01  1.453999e+00
      vertex   5.388200e+01 -3.039961e-01  1.360001e+00
      vertex   5.359800e+01 -2.079955e-01  1.414001e+00
    endloop
  endfacet
  facet normal  1.628849e-01 -7.808936e-02  9.835500e-01
    outer loop
      vertex   5.329600e+01 -2.919952e-01  1.458000e+00
      vertex   5.388200e+01 -3.039961e-01  1.360001e+00
      vertex   5.332400e+01 -2.839919e-01  1.453999e+00
    endloop
  endfacet
  facet normal  1.634324e-01 -6.065326e-02  9.846883e-01
    outer loop
      vertex   5.310800e+01 -3.439971e-01  1.486000e+00
      vertex   5.388200e+01 -3.039961e-01  1.360001e+00
      vertex   5.329600e+01 -2.919952e-01  1.458000e+00
    endloop
  endfacet
  facet normal  1.630211e-01 -5.070985e-02  9.853185e-01
    outer loop
      vertex   5.306800e+01 -3.559982e-01  1.492001e+00
      vertex   5.388200e+01 -3.039961e-01  1.360001e+00
      vertex   5.310800e+01 -3.439971e-01  1.486000e+00
    endloop
  endfacet
  facet normal  1.644380e-01 -7.801957e-02  9.832970e-01
    outer loop
      vertex   5.388200e+01 -3.039961e-01  1.360001e+00
      vertex   5.306800e+01 -3.559982e-01  1.492001e+00
      vertex   5.387000e+01 -4.563998e+00  1.023998e+00
    endloop
  endfacet
  facet normal  1.325579e-01 -7.022392e-02  9.886845e-01
    outer loop
      vertex   5.054800e+01 -1.083995e+00  1.652000e+00
      vertex   5.282400e+01 -1.216200e+01  5.600014e-01
      vertex   5.214800e+01 -5.979950e-01  1.472000e+00
    endloop
  endfacet
endsolid vcg
