solid STL generated by MeshLab
  facet normal -1.722528e-01 -5.252378e-02 -9.836515e-01
    outer loop
      vertex   4.870002e+00 -3.108601e+01  9.720001e-01
      vertex   5.738002e+00 -3.108601e+01  8.199997e-01
      vertex   5.212005e+00 -3.190800e+01  9.560013e-01
    endloop
  endfacet
  facet normal -1.281603e-01 -7.610089e-02 -9.888294e-01
    outer loop
      vertex   5.686004e+00 -3.190800e+01  8.899994e-01
      vertex   5.738002e+00 -3.108601e+01  8.199997e-01
      vertex   6.162002e+00 -3.190401e+01  8.279991e-01
    endloop
  endfacet
  facet normal -1.375215e-01 -7.540607e-02 -9.876243e-01
    outer loop
      vertex   5.738002e+00 -3.108601e+01  8.199997e-01
      vertex   5.686004e+00 -3.190800e+01  8.899994e-01
      vertex   5.212005e+00 -3.190800e+01  9.560013e-01
    endloop
  endfacet
  facet normal -9.537018e-02 -6.142716e-02 -9.935448e-01
    outer loop
      vertex   5.314002e+00 -3.026601e+01  8.100014e-01
      vertex   6.594005e+00 -3.028001e+01  6.879997e-01
      vertex   5.738002e+00 -3.108601e+01  8.199997e-01
    endloop
  endfacet
  facet normal -6.479070e-02 -5.271576e-02  9.965056e-01
    outer loop
      vertex   5.498004e+00 -3.108601e+01  2.226002e+00
      vertex   6.926002e+00 -3.110201e+01  2.318001e+00
      vertex   6.534003e+00 -3.028001e+01  2.335999e+00
    endloop
  endfacet
  facet normal -4.360425e-01 -2.519716e-01 -8.639313e-01
    outer loop
      vertex   3.328002e+00 -3.026601e+01  1.375999e+00
      vertex   3.752002e+00 -3.026601e+01  1.161999e+00
      vertex   4.210002e+00 -3.108601e+01  1.169998e+00
    endloop
  endfacet
  facet normal -3.333685e-01 -1.987858e-01 -9.216016e-01
    outer loop
      vertex  -6.791999e+00 -1.281200e+01  1.212002e+00
      vertex  -6.179999e+00 -1.277200e+01  9.819984e-01
      vertex  -1.215998e+00 -2.151401e+01  1.071999e+00
    endloop
  endfacet
  facet normal -5.723897e-01 -3.304114e-01  7.504654e-01
    outer loop
      vertex   3.738002e+00 -3.108601e+01  1.771999e+00
      vertex   4.202003e+00 -3.190800e+01  1.764000e+00
      vertex   3.974002e+00 -3.108601e+01  1.952000e+00
    endloop
  endfacet
  facet normal -7.436222e-01 -4.292820e-01 -5.125846e-01
    outer loop
      vertex   3.658004e+00 -3.108601e+01  1.584000e+00
      vertex   3.186003e+00 -3.026601e+01  1.582001e+00
      vertex   3.328002e+00 -3.026601e+01  1.375999e+00
    endloop
  endfacet
  facet normal -8.133707e-01 -4.675872e-01  3.461071e-01
    outer loop
      vertex   3.738002e+00 -3.108601e+01  1.771999e+00
      vertex   3.270003e+00 -3.026601e+01  1.779999e+00
      vertex   3.658004e+00 -3.108601e+01  1.584000e+00
    endloop
  endfacet
  facet normal -1.204497e-01 -8.252512e-02  9.892833e-01
    outer loop
      vertex   4.082004e+00 -3.026601e+01  2.122002e+00
      vertex   5.498004e+00 -3.108601e+01  2.226002e+00
      vertex   5.084002e+00 -3.026601e+01  2.243999e+00
    endloop
  endfacet
  facet normal -2.780152e-01 -1.645127e-01 -9.463843e-01
    outer loop
      vertex   3.752002e+00 -3.026601e+01  1.161999e+00
      vertex   4.426002e+00 -3.026601e+01  9.640007e-01
      vertex   4.210002e+00 -3.108601e+01  1.169998e+00
    endloop
  endfacet
  facet normal -4.781275e-01 -2.711819e-01  8.353769e-01
    outer loop
      vertex   3.974002e+00 -3.108601e+01  1.952000e+00
      vertex   4.566005e+00 -3.190800e+01  2.023998e+00
      vertex   4.714004e+00 -3.190401e+01  2.110001e+00
    endloop
  endfacet
  facet normal -4.964258e-01 -2.857332e-01  8.197060e-01
    outer loop
      vertex   4.566005e+00 -3.190800e+01  2.023998e+00
      vertex   3.974002e+00 -3.108601e+01  1.952000e+00
      vertex   4.424003e+00 -3.190800e+01  1.938000e+00
    endloop
  endfacet
  facet normal -2.679730e-01 -1.616108e-01  9.497749e-01
    outer loop
      vertex   3.522002e+00 -3.026601e+01  1.964001e+00
      vertex   3.974002e+00 -3.108601e+01  1.952000e+00
      vertex   4.082004e+00 -3.026601e+01  2.122002e+00
    endloop
  endfacet
  facet normal -9.378769e-02  7.587076e-02 -9.926971e-01
    outer loop
      vertex   5.314002e+00 -3.026601e+01  8.100014e-01
      vertex   6.584002e+00 -3.024001e+01  6.920013e-01
      vertex   6.594005e+00 -3.028001e+01  6.879997e-01
    endloop
  endfacet
  facet normal -9.121345e-02 -5.677822e-02 -9.942114e-01
    outer loop
      vertex   6.584002e+00 -3.024001e+01  6.920013e-01
      vertex   5.314002e+00 -3.026601e+01  8.100014e-01
      vertex   7.300014e-01 -2.146600e+01  7.280006e-01
    endloop
  endfacet
  facet normal -7.959022e-02 -6.237075e-02  9.948745e-01
    outer loop
      vertex   5.498004e+00 -3.108601e+01  2.226002e+00
      vertex   5.314002e+00 -3.190401e+01  2.160000e+00
      vertex   5.914004e+00 -3.190401e+01  2.208000e+00
    endloop
  endfacet
  facet normal -8.288667e-02 -6.161134e-02  9.946526e-01
    outer loop
      vertex   5.314002e+00 -3.190401e+01  2.160000e+00
      vertex   5.498004e+00 -3.108601e+01  2.226002e+00
      vertex   4.714004e+00 -3.190401e+01  2.110001e+00
    endloop
  endfacet
  facet normal -1.236629e-01 -7.396380e-02 -9.895639e-01
    outer loop
      vertex  -5.193999e+00 -1.271201e+01  8.139992e-01
      vertex  -3.853999e+00 -1.267800e+01  6.440010e-01
      vertex   7.300014e-01 -2.146600e+01  7.280006e-01
    endloop
  endfacet
  facet normal -1.204591e-01 -8.157395e-02  9.893610e-01
    outer loop
      vertex   6.280002e-01 -2.143000e+01  2.430000e+00
      vertex   4.082004e+00 -3.026601e+01  2.122002e+00
      vertex   5.084002e+00 -3.026601e+01  2.243999e+00
    endloop
  endfacet
  facet normal -3.785578e-01 -2.281373e-01 -8.970214e-01
    outer loop
      vertex  -6.791999e+00 -1.281200e+01  1.212002e+00
      vertex  -1.215998e+00 -2.151401e+01  1.071999e+00
      vertex  -1.729998e+00 -2.153400e+01  1.293999e+00
    endloop
  endfacet
  facet normal -7.817580e-01 -4.546396e-01  4.267989e-01
    outer loop
      vertex  -1.903997e+00 -2.154201e+01  1.576000e+00
      vertex  -1.755999e+00 -2.152801e+01  1.862000e+00
      vertex  -6.786002e+00 -1.280000e+01  1.945999e+00
    endloop
  endfacet
  facet normal -5.753798e-01 -3.277587e-01  7.493413e-01
    outer loop
      vertex   3.974002e+00 -3.108601e+01  1.952000e+00
      vertex   4.312003e+00 -3.190800e+01  1.852001e+00
      vertex   4.424003e+00 -3.190800e+01  1.938000e+00
    endloop
  endfacet
  facet normal -5.892817e-01 -3.319246e-01  7.365957e-01
    outer loop
      vertex   4.312003e+00 -3.190800e+01  1.852001e+00
      vertex   3.974002e+00 -3.108601e+01  1.952000e+00
      vertex   4.202003e+00 -3.190800e+01  1.764000e+00
    endloop
  endfacet
  facet normal -2.835152e-01 -1.627312e-01 -9.450597e-01
    outer loop
      vertex   4.210002e+00 -3.108601e+01  1.169998e+00
      vertex   4.426002e+00 -3.026601e+01  9.640007e-01
      vertex   4.870002e+00 -3.108601e+01  9.720001e-01
    endloop
  endfacet
  facet normal -7.569410e-01 -4.438164e-01 -4.796532e-01
    outer loop
      vertex  -1.903997e+00 -2.154201e+01  1.576000e+00
      vertex  -6.791999e+00 -1.281200e+01  1.212002e+00
      vertex  -1.729998e+00 -2.153400e+01  1.293999e+00
    endloop
  endfacet
  facet normal -2.079768e-01 -1.220972e-01 -9.704834e-01
    outer loop
      vertex  -1.215998e+00 -2.151401e+01  1.071999e+00
      vertex  -3.819981e-01 -2.148801e+01  8.899994e-01
      vertex   4.426002e+00 -3.026601e+01  9.640007e-01
    endloop
  endfacet
  facet normal -1.700179e-01 -9.986446e-02 -9.803678e-01
    outer loop
      vertex   4.426002e+00 -3.026601e+01  9.640007e-01
      vertex   5.314002e+00 -3.026601e+01  8.100014e-01
      vertex   5.738002e+00 -3.108601e+01  8.199997e-01
    endloop
  endfacet
  facet normal -5.820008e-02 -5.207188e-02  9.969460e-01
    outer loop
      vertex  -2.094001e+00 -1.264400e+01  2.730000e+00
      vertex   6.280002e-01 -2.143000e+01  2.430000e+00
      vertex  -1.891997e+00 -1.264001e+01  2.742001e+00
    endloop
  endfacet
  facet normal -6.737882e-02 -5.489064e-02  9.962164e-01
    outer loop
      vertex  -3.813998e+00 -1.263800e+01  2.613998e+00
      vertex   6.280002e-01 -2.143000e+01  2.430000e+00
      vertex  -2.094001e+00 -1.264400e+01  2.730000e+00
    endloop
  endfacet
  facet normal -4.418671e-01 -2.595474e-01 -8.587134e-01
    outer loop
      vertex   3.328002e+00 -3.026601e+01  1.375999e+00
      vertex   4.210002e+00 -3.108601e+01  1.169998e+00
      vertex   3.798003e+00 -3.108601e+01  1.382000e+00
    endloop
  endfacet
  facet normal -7.432342e-01 -4.269230e-01 -5.151114e-01
    outer loop
      vertex   4.266002e+00 -3.190800e+01  1.388000e+00
      vertex   3.658004e+00 -3.108601e+01  1.584000e+00
      vertex   3.798003e+00 -3.108601e+01  1.382000e+00
    endloop
  endfacet
  facet normal -9.952289e-02 -6.243296e-02 -9.930747e-01
    outer loop
      vertex   6.770003e+00 -3.190401e+01  7.680016e-01
      vertex   5.738002e+00 -3.108601e+01  8.199997e-01
      vertex   7.380004e+00 -3.192200e+01  7.080002e-01
    endloop
  endfacet
  facet normal -9.802292e-02 -6.052356e-02 -9.933421e-01
    outer loop
      vertex   5.738002e+00 -3.108601e+01  8.199997e-01
      vertex   6.770003e+00 -3.190401e+01  7.680016e-01
      vertex   6.162002e+00 -3.190401e+01  8.279991e-01
    endloop
  endfacet
  facet normal -1.715830e-01 -1.024636e-01 -9.798268e-01
    outer loop
      vertex   4.426002e+00 -3.026601e+01  9.640007e-01
      vertex   5.738002e+00 -3.108601e+01  8.199997e-01
      vertex   4.870002e+00 -3.108601e+01  9.720001e-01
    endloop
  endfacet
  facet normal -1.184560e-01 -7.901567e-02  9.898105e-01
    outer loop
      vertex   4.082004e+00 -3.026601e+01  2.122002e+00
      vertex   4.512004e+00 -3.108601e+01  2.108002e+00
      vertex   5.498004e+00 -3.108601e+01  2.226002e+00
    endloop
  endfacet
  facet normal -6.934604e-02 -6.540523e-02  9.954462e-01
    outer loop
      vertex   5.498004e+00 -3.108601e+01  2.226002e+00
      vertex   6.614001e+00 -3.190401e+01  2.250000e+00
      vertex   7.320003e+00 -3.192200e+01  2.298000e+00
    endloop
  endfacet
  facet normal -5.981015e-02 -5.235453e-02  9.968358e-01
    outer loop
      vertex   6.614001e+00 -3.190401e+01  2.250000e+00
      vertex   5.498004e+00 -3.108601e+01  2.226002e+00
      vertex   5.914004e+00 -3.190401e+01  2.208000e+00
    endloop
  endfacet
  facet normal -7.423304e-01 -4.292442e-01 -5.144851e-01
    outer loop
      vertex   3.658004e+00 -3.108601e+01  1.584000e+00
      vertex   3.328002e+00 -3.026601e+01  1.375999e+00
      vertex   3.798003e+00 -3.108601e+01  1.382000e+00
    endloop
  endfacet
  facet normal -1.255164e-01 -8.410251e-02  9.885203e-01
    outer loop
      vertex  -4.746001e+00 -1.263400e+01  2.495998e+00
      vertex   6.280002e-01 -2.143000e+01  2.430000e+00
      vertex  -3.813998e+00 -1.263800e+01  2.613998e+00
    endloop
  endfacet
  facet normal -1.245238e-01 -8.349743e-02  9.886971e-01
    outer loop
      vertex  -5.164001e+00 -1.265000e+01  2.442001e+00
      vertex   6.280002e-01 -2.143000e+01  2.430000e+00
      vertex  -4.746001e+00 -1.263400e+01  2.495998e+00
    endloop
  endfacet
  facet normal -8.110398e-02 -5.181956e-02 -9.953576e-01
    outer loop
      vertex  -3.853999e+00 -1.267800e+01  6.440010e-01
      vertex  -1.929999e+00 -1.261600e+01  4.840012e-01
      vertex   7.300014e-01 -2.146600e+01  7.280006e-01
    endloop
  endfacet
  facet normal -3.757927e-01 -2.239868e-01 -8.992273e-01
    outer loop
      vertex   4.944003e+00 -3.190800e+01  1.068001e+00
      vertex   4.210002e+00 -3.108601e+01  1.169998e+00
      vertex   5.212005e+00 -3.190800e+01  9.560013e-01
    endloop
  endfacet
  facet normal -3.640442e-01 -2.125558e-01 -9.068031e-01
    outer loop
      vertex   4.210002e+00 -3.108601e+01  1.169998e+00
      vertex   4.944003e+00 -3.190800e+01  1.068001e+00
      vertex   4.670001e+00 -3.190800e+01  1.178001e+00
    endloop
  endfacet
  facet normal -7.821206e-01 -4.538739e-01  4.269495e-01
    outer loop
      vertex   3.270003e+00 -3.026601e+01  1.779999e+00
      vertex  -1.755999e+00 -2.152801e+01  1.862000e+00
      vertex  -1.903997e+00 -2.154201e+01  1.576000e+00
    endloop
  endfacet
  facet normal -7.700948e-01 -4.500339e-01 -4.521320e-01
    outer loop
      vertex  -1.903997e+00 -2.154201e+01  1.576000e+00
      vertex  -6.994002e+00 -1.282600e+01  1.570000e+00
      vertex  -6.791999e+00 -1.281200e+01  1.212002e+00
    endloop
  endfacet
  facet normal -8.110924e-01 -4.729937e-01  3.441017e-01
    outer loop
      vertex   3.270003e+00 -3.026601e+01  1.779999e+00
      vertex  -1.903997e+00 -2.154201e+01  1.576000e+00
      vertex   3.186003e+00 -3.026601e+01  1.582001e+00
    endloop
  endfacet
  facet normal -5.588434e-01 -3.192437e-01  7.653611e-01
    outer loop
      vertex   3.270003e+00 -3.026601e+01  1.779999e+00
      vertex   3.974002e+00 -3.108601e+01  1.952000e+00
      vertex   3.522002e+00 -3.026601e+01  1.964001e+00
    endloop
  endfacet
  facet normal -4.420615e-01 -2.579605e-01 -8.590914e-01
    outer loop
      vertex   3.798003e+00 -3.108601e+01  1.382000e+00
      vertex   4.210002e+00 -3.108601e+01  1.169998e+00
      vertex   4.266002e+00 -3.190800e+01  1.388000e+00
    endloop
  endfacet
  facet normal -1.419482e-01 -8.637181e-02 -9.860987e-01
    outer loop
      vertex  -5.193999e+00 -1.271201e+01  8.139992e-01
      vertex   7.300014e-01 -2.146600e+01  7.280006e-01
      vertex  -3.819981e-01 -2.148801e+01  8.899994e-01
    endloop
  endfacet
  facet normal -1.535081e-01 -9.819742e-02 -9.832561e-01
    outer loop
      vertex  -1.215998e+00 -2.151401e+01  1.071999e+00
      vertex  -5.276000e+00 -1.272401e+01  8.279991e-01
      vertex  -5.193999e+00 -1.271201e+01  8.139992e-01
    endloop
  endfacet
  facet normal -1.617944e-01 -1.019774e-01 -9.815412e-01
    outer loop
      vertex  -5.276000e+00 -1.272401e+01  8.279991e-01
      vertex  -1.215998e+00 -2.151401e+01  1.071999e+00
      vertex  -6.179999e+00 -1.277200e+01  9.819984e-01
    endloop
  endfacet
  facet normal -8.143321e-01 -4.676069e-01  3.438123e-01
    outer loop
      vertex   4.130004e+00 -3.190800e+01  1.584000e+00
      vertex   4.168002e+00 -3.190800e+01  1.674000e+00
      vertex   3.658004e+00 -3.108601e+01  1.584000e+00
    endloop
  endfacet
  facet normal -8.225347e-01 -4.763174e-01  3.107384e-01
    outer loop
      vertex   4.168002e+00 -3.190800e+01  1.674000e+00
      vertex   4.202003e+00 -3.190800e+01  1.764000e+00
      vertex   3.658004e+00 -3.108601e+01  1.584000e+00
    endloop
  endfacet
  facet normal -2.233135e-01 -1.345784e-01  9.654117e-01
    outer loop
      vertex  -1.317999e+00 -2.149200e+01  2.096001e+00
      vertex   4.082004e+00 -3.026601e+01  2.122002e+00
      vertex  -5.379964e-01 -2.145200e+01  2.282001e+00
    endloop
  endfacet
  facet normal -1.419578e-01 -8.606832e-02 -9.861239e-01
    outer loop
      vertex  -3.819981e-01 -2.148801e+01  8.899994e-01
      vertex   7.300014e-01 -2.146600e+01  7.280006e-01
      vertex   4.426002e+00 -3.026601e+01  9.640007e-01
    endloop
  endfacet
  facet normal -4.487471e-01 -2.594546e-01 -8.551663e-01
    outer loop
      vertex   4.468001e+00 -3.190800e+01  1.284000e+00
      vertex   4.210002e+00 -3.108601e+01  1.169998e+00
      vertex   4.670001e+00 -3.190800e+01  1.178001e+00
    endloop
  endfacet
  facet normal -4.422559e-01 -2.579482e-01 -8.589950e-01
    outer loop
      vertex   4.210002e+00 -3.108601e+01  1.169998e+00
      vertex   4.468001e+00 -3.190800e+01  1.284000e+00
      vertex   4.266002e+00 -3.190800e+01  1.388000e+00
    endloop
  endfacet
  facet normal -8.773330e-02 -5.436841e-02 -9.946592e-01
    outer loop
      vertex   7.300014e-01 -2.146600e+01  7.280006e-01
      vertex   2.134001e+00 -2.102400e+01  5.800018e-01
      vertex   2.330004e+00 -2.145000e+01  5.859985e-01
    endloop
  endfacet
  facet normal -8.758716e-02 -5.482844e-02 -9.946469e-01
    outer loop
      vertex   2.134001e+00 -2.102400e+01  5.800018e-01
      vertex   7.300014e-01 -2.146600e+01  7.280006e-01
      vertex   1.718000e+00 -2.017800e+01  5.699997e-01
    endloop
  endfacet
  facet normal -8.859444e-02 -5.405005e-02 -9.946002e-01
    outer loop
      vertex   1.718000e+00 -2.017800e+01  5.699997e-01
      vertex   7.300014e-01 -2.146600e+01  7.280006e-01
      vertex  -1.929999e+00 -1.261600e+01  4.840012e-01
    endloop
  endfacet
  facet normal -7.420427e-01 -4.332952e-01 -5.114958e-01
    outer loop
      vertex   3.186003e+00 -3.026601e+01  1.582001e+00
      vertex  -1.903997e+00 -2.154201e+01  1.576000e+00
      vertex   3.328002e+00 -3.026601e+01  1.375999e+00
    endloop
  endfacet
  facet normal -3.768143e-01 -2.215268e-01  8.994091e-01
    outer loop
      vertex  -6.786002e+00 -1.280000e+01  1.945999e+00
      vertex  -1.317999e+00 -2.149200e+01  2.096001e+00
      vertex  -6.160003e+00 -1.272800e+01  2.226002e+00
    endloop
  endfacet
  facet normal -8.137574e-01 -4.675611e-01  3.452324e-01
    outer loop
      vertex   3.658004e+00 -3.108601e+01  1.584000e+00
      vertex   3.270003e+00 -3.026601e+01  1.779999e+00
      vertex   3.186003e+00 -3.026601e+01  1.582001e+00
    endloop
  endfacet
  facet normal -9.627224e-02 -5.595354e-02 -9.937811e-01
    outer loop
      vertex   5.738002e+00 -3.108601e+01  8.199997e-01
      vertex   6.986003e+00 -3.110201e+01  7.000008e-01
      vertex   7.380004e+00 -3.192200e+01  7.080002e-01
    endloop
  endfacet
  facet normal -1.700543e-01 -9.772007e-02 -9.805775e-01
    outer loop
      vertex   7.300014e-01 -2.146600e+01  7.280006e-01
      vertex   5.314002e+00 -3.026601e+01  8.100014e-01
      vertex   4.426002e+00 -3.026601e+01  9.640007e-01
    endloop
  endfacet
  facet normal -6.481163e-02 -5.544426e-02  9.963561e-01
    outer loop
      vertex   5.498004e+00 -3.108601e+01  2.226002e+00
      vertex   7.320003e+00 -3.192200e+01  2.298000e+00
      vertex   6.926002e+00 -3.110201e+01  2.318001e+00
    endloop
  endfacet
  facet normal -7.572372e-01 -4.431340e-01 -4.798166e-01
    outer loop
      vertex   3.328002e+00 -3.026601e+01  1.375999e+00
      vertex  -1.903997e+00 -2.154201e+01  1.576000e+00
      vertex  -1.729998e+00 -2.153400e+01  1.293999e+00
    endloop
  endfacet
  facet normal -9.626552e-02 -5.504214e-02 -9.938326e-01
    outer loop
      vertex   5.738002e+00 -3.108601e+01  8.199997e-01
      vertex   6.754004e+00 -3.062401e+01  6.959991e-01
      vertex   6.986003e+00 -3.110201e+01  7.000008e-01
    endloop
  endfacet
  facet normal -9.142791e-02 -6.563063e-02 -9.936466e-01
    outer loop
      vertex   6.754004e+00 -3.062401e+01  6.959991e-01
      vertex   5.738002e+00 -3.108601e+01  8.199997e-01
      vertex   6.594005e+00 -3.028001e+01  6.879997e-01
    endloop
  endfacet
  facet normal -6.478003e-02 -5.404883e-02  9.964348e-01
    outer loop
      vertex   2.310003e+00 -2.141801e+01  2.540001e+00
      vertex  -1.875998e+00 -1.264001e+01  2.743999e+00
      vertex   6.280002e-01 -2.143000e+01  2.430000e+00
    endloop
  endfacet
  facet normal -2.778754e-01 -1.674608e-01 -9.459081e-01
    outer loop
      vertex  -1.215998e+00 -2.151401e+01  1.071999e+00
      vertex   4.426002e+00 -3.026601e+01  9.640007e-01
      vertex   3.752002e+00 -3.026601e+01  1.161999e+00
    endloop
  endfacet
  facet normal -4.355524e-01 -2.561119e-01 -8.629605e-01
    outer loop
      vertex  -1.215998e+00 -2.151401e+01  1.071999e+00
      vertex   3.752002e+00 -3.026601e+01  1.161999e+00
      vertex   3.328002e+00 -3.026601e+01  1.375999e+00
    endloop
  endfacet
  facet normal -4.381445e-01 -2.607845e-01  8.602446e-01
    outer loop
      vertex  -6.786002e+00 -1.280000e+01  1.945999e+00
      vertex  -1.755999e+00 -2.152801e+01  1.862000e+00
      vertex  -1.317999e+00 -2.149200e+01  2.096001e+00
    endloop
  endfacet
  facet normal -8.152990e-01 -4.636039e-01  3.469277e-01
    outer loop
      vertex   4.202003e+00 -3.190800e+01  1.764000e+00
      vertex   3.738002e+00 -3.108601e+01  1.771999e+00
      vertex   3.658004e+00 -3.108601e+01  1.584000e+00
    endloop
  endfacet
  facet normal -7.389244e-01 -4.243062e-01 -5.234071e-01
    outer loop
      vertex   3.658004e+00 -3.108601e+01  1.584000e+00
      vertex   4.198005e+00 -3.190800e+01  1.487999e+00
      vertex   4.130004e+00 -3.190800e+01  1.584000e+00
    endloop
  endfacet
  facet normal -7.462026e-01 -4.309568e-01 -5.074030e-01
    outer loop
      vertex   4.198005e+00 -3.190800e+01  1.487999e+00
      vertex   3.658004e+00 -3.108601e+01  1.584000e+00
      vertex   4.266002e+00 -3.190800e+01  1.388000e+00
    endloop
  endfacet
  facet normal -6.374750e-02 -5.405601e-02  9.965009e-01
    outer loop
      vertex   5.084002e+00 -3.026601e+01  2.243999e+00
      vertex   5.498004e+00 -3.108601e+01  2.226002e+00
      vertex   6.534003e+00 -3.028001e+01  2.335999e+00
    endloop
  endfacet
  facet normal -3.786085e-01 -2.277328e-01 -8.971027e-01
    outer loop
      vertex  -1.729998e+00 -2.153400e+01  1.293999e+00
      vertex  -1.215998e+00 -2.151401e+01  1.071999e+00
      vertex   3.328002e+00 -3.026601e+01  1.375999e+00
    endloop
  endfacet
  facet normal -2.008788e-01 -1.253947e-01  9.715575e-01
    outer loop
      vertex  -6.160003e+00 -1.272800e+01  2.226002e+00
      vertex  -1.317999e+00 -2.149200e+01  2.096001e+00
      vertex  -5.164001e+00 -1.265000e+01  2.442001e+00
    endloop
  endfacet
  facet normal -1.187845e-01 -2.690783e-02  9.925554e-01
    outer loop
      vertex   4.512004e+00 -3.108601e+01  2.108002e+00
      vertex   4.714004e+00 -3.190401e+01  2.110001e+00
      vertex   5.498004e+00 -3.108601e+01  2.226002e+00
    endloop
  endfacet
  facet normal -2.858933e-01 -1.004031e-01 -9.529870e-01
    outer loop
      vertex   4.210002e+00 -3.108601e+01  1.169998e+00
      vertex   4.870002e+00 -3.108601e+01  9.720001e-01
      vertex   5.212005e+00 -3.190800e+01  9.560013e-01
    endloop
  endfacet
  facet normal -5.717089e-01 -3.336008e-01  7.495729e-01
    outer loop
      vertex   3.270003e+00 -3.026601e+01  1.779999e+00
      vertex   3.738002e+00 -3.108601e+01  1.771999e+00
      vertex   3.974002e+00 -3.108601e+01  1.952000e+00
    endloop
  endfacet
  facet normal -2.079580e-01 -1.224304e-01 -9.704454e-01
    outer loop
      vertex  -5.193999e+00 -1.271201e+01  8.139992e-01
      vertex  -3.819981e-01 -2.148801e+01  8.899994e-01
      vertex  -1.215998e+00 -2.151401e+01  1.071999e+00
    endloop
  endfacet
  facet normal -8.773202e-02 -5.445361e-02 -9.946547e-01
    outer loop
      vertex   7.300014e-01 -2.146600e+01  7.280006e-01
      vertex   2.330004e+00 -2.145000e+01  5.859985e-01
      vertex   6.584002e+00 -3.024001e+01  6.920013e-01
    endloop
  endfacet
  facet normal -2.748909e-01 -1.603343e-01  9.480126e-01
    outer loop
      vertex   3.974002e+00 -3.108601e+01  1.952000e+00
      vertex   4.512004e+00 -3.108601e+01  2.108002e+00
      vertex   4.082004e+00 -3.026601e+01  2.122002e+00
    endloop
  endfacet
  facet normal -6.478250e-02 -5.381617e-02  9.964473e-01
    outer loop
      vertex   6.280002e-01 -2.143000e+01  2.430000e+00
      vertex   6.534003e+00 -3.028001e+01  2.335999e+00
      vertex   2.310003e+00 -2.141801e+01  2.540001e+00
    endloop
  endfacet
  facet normal -2.778814e-01 -6.627972e-02  9.583261e-01
    outer loop
      vertex   3.974002e+00 -3.108601e+01  1.952000e+00
      vertex   4.714004e+00 -3.190401e+01  2.110001e+00
      vertex   4.512004e+00 -3.108601e+01  2.108002e+00
    endloop
  endfacet
  facet normal -2.679515e-01 -1.620976e-01  9.496980e-01
    outer loop
      vertex  -1.317999e+00 -2.149200e+01  2.096001e+00
      vertex   3.522002e+00 -3.026601e+01  1.964001e+00
      vertex   4.082004e+00 -3.026601e+01  2.122002e+00
    endloop
  endfacet
  facet normal -7.685840e-01 -4.485263e-01  4.561829e-01
    outer loop
      vertex  -1.903997e+00 -2.154201e+01  1.576000e+00
      vertex  -6.786002e+00 -1.280000e+01  1.945999e+00
      vertex  -6.994002e+00 -1.282600e+01  1.570000e+00
    endloop
  endfacet
  facet normal -4.382645e-01 -2.601590e-01  8.603728e-01
    outer loop
      vertex  -1.755999e+00 -2.152801e+01  1.862000e+00
      vertex   3.270003e+00 -3.026601e+01  1.779999e+00
      vertex  -1.317999e+00 -2.149200e+01  2.096001e+00
    endloop
  endfacet
  facet normal -1.239394e-01 -8.311208e-02  9.888030e-01
    outer loop
      vertex  -5.164001e+00 -1.265000e+01  2.442001e+00
      vertex  -5.379964e-01 -2.145200e+01  2.282001e+00
      vertex   6.280002e-01 -2.143000e+01  2.430000e+00
    endloop
  endfacet
  facet normal -5.587461e-01 -3.197331e-01  7.652277e-01
    outer loop
      vertex  -1.317999e+00 -2.149200e+01  2.096001e+00
      vertex   3.270003e+00 -3.026601e+01  1.779999e+00
      vertex   3.522002e+00 -3.026601e+01  1.964001e+00
    endloop
  endfacet
  facet normal -2.232877e-01 -1.348999e-01  9.653728e-01
    outer loop
      vertex  -5.164001e+00 -1.265000e+01  2.442001e+00
      vertex  -1.317999e+00 -2.149200e+01  2.096001e+00
      vertex  -5.379964e-01 -2.145200e+01  2.282001e+00
    endloop
  endfacet
  facet normal -1.239451e-01 -8.291772e-02  9.888186e-01
    outer loop
      vertex  -5.379964e-01 -2.145200e+01  2.282001e+00
      vertex   4.082004e+00 -3.026601e+01  2.122002e+00
      vertex   6.280002e-01 -2.143000e+01  2.430000e+00
    endloop
  endfacet
  facet normal -6.374169e-02 -5.312271e-02  9.965515e-01
    outer loop
      vertex   6.280002e-01 -2.143000e+01  2.430000e+00
      vertex   5.084002e+00 -3.026601e+01  2.243999e+00
      vertex   6.534003e+00 -3.028001e+01  2.335999e+00
    endloop
  endfacet
endsolid vcg
