solid STL generated by MeshLab
  facet normal -1.238008e-01  8.306648e-02  9.888242e-01
    outer loop
      vertex  -5.380001e-01  2.166800e+01  2.284000e+00
      vertex   6.279964e-01  2.164400e+01  2.431999e+00
      vertex   4.081998e+00  3.048200e+01  2.122002e+00
    endloop
  endfacet
  facet normal -2.778378e-01  6.861013e-02  9.581747e-01
    outer loop
      vertex   3.973996e+00  3.130200e+01  1.953999e+00
      vertex   4.511998e+00  3.130200e+01  2.110001e+00
      vertex   4.713998e+00  3.212000e+01  2.110001e+00
    endloop
  endfacet
  facet normal -2.255543e-01  1.358292e-01  9.647154e-01
    outer loop
      vertex  -5.164002e+00  1.286400e+01  2.442001e+00
      vertex  -5.380001e-01  2.166800e+01  2.284000e+00
      vertex  -1.318003e+00  2.170800e+01  2.096001e+00
    endloop
  endfacet
  facet normal -1.238090e-01  8.280092e-02  9.888455e-01
    outer loop
      vertex  -5.164002e+00  1.286400e+01  2.442001e+00
      vertex   6.279964e-01  2.164400e+01  2.431999e+00
      vertex  -5.380001e-01  2.166800e+01  2.284000e+00
    endloop
  endfacet
  facet normal -5.649197e-01  3.230055e-01  7.592977e-01
    outer loop
      vertex  -1.318003e+00  2.170800e+01  2.096001e+00
      vertex   3.523996e+00  3.048200e+01  1.966000e+00
      vertex   3.273996e+00  3.048200e+01  1.779999e+00
    endloop
  endfacet
  facet normal -5.758051e-01  3.331059e-01  7.466518e-01
    outer loop
      vertex   3.273996e+00  3.048200e+01  1.779999e+00
      vertex   3.973996e+00  3.130200e+01  1.953999e+00
      vertex   3.737996e+00  3.130200e+01  1.771999e+00
    endloop
  endfacet
  facet normal -5.758853e-01  3.327341e-01  7.467558e-01
    outer loop
      vertex   4.203996e+00  3.212200e+01  1.765999e+00
      vertex   3.737996e+00  3.130200e+01  1.771999e+00
      vertex   3.973996e+00  3.130200e+01  1.953999e+00
    endloop
  endfacet
  facet normal -6.511802e-02  5.404182e-02  9.964132e-01
    outer loop
      vertex   6.279964e-01  2.164400e+01  2.431999e+00
      vertex   6.535996e+00  3.049600e+01  2.338001e+00
      vertex   5.085996e+00  3.048200e+01  2.243999e+00
    endloop
  endfacet
  facet normal -7.685181e-01  4.486626e-01  4.561599e-01
    outer loop
      vertex  -6.786004e+00  1.301800e+01  1.945999e+00
      vertex  -1.902002e+00  2.175800e+01  1.577999e+00
      vertex  -6.994004e+00  1.304400e+01  1.570000e+00
    endloop
  endfacet
  facet normal -1.183039e-01  2.921434e-02  9.925476e-01
    outer loop
      vertex   4.511998e+00  3.130200e+01  2.110001e+00
      vertex   5.501996e+00  3.130200e+01  2.228001e+00
      vertex   4.713998e+00  3.212000e+01  2.110001e+00
    endloop
  endfacet
  facet normal -2.892066e-01  1.050811e-01 -9.514818e-01
    outer loop
      vertex   4.211999e+00  3.130200e+01  1.172001e+00
      vertex   5.213998e+00  3.212200e+01  9.580002e-01
      vertex   4.869996e+00  3.130200e+01  9.720001e-01
    endloop
  endfacet
  facet normal -2.006502e-01  1.252693e-01  9.716209e-01
    outer loop
      vertex  -6.160005e+00  1.294400e+01  2.226002e+00
      vertex  -5.164002e+00  1.286400e+01  2.442001e+00
      vertex  -1.318003e+00  2.170800e+01  2.096001e+00
    endloop
  endfacet
  facet normal -4.382348e-01  2.603420e-01  8.603327e-01
    outer loop
      vertex  -1.756002e+00  2.174400e+01  1.862000e+00
      vertex  -1.318003e+00  2.170800e+01  2.096001e+00
      vertex   3.273996e+00  3.048200e+01  1.779999e+00
    endloop
  endfacet
  facet normal -1.236677e-01  7.037902e-02  9.898248e-01
    outer loop
      vertex   6.279964e-01  2.164400e+01  2.431999e+00
      vertex  -1.891999e+00  1.285600e+01  2.742001e+00
      vertex  -1.876001e+00  1.285600e+01  2.743999e+00
    endloop
  endfacet
  facet normal -6.478207e-02  5.383540e-02  9.964463e-01
    outer loop
      vertex  -1.876001e+00  1.285600e+01  2.743999e+00
      vertex   2.309999e+00  2.163200e+01  2.542000e+00
      vertex   6.279964e-01  2.164400e+01  2.431999e+00
    endloop
  endfacet
  facet normal -8.100829e-01  4.662919e-01  3.554400e-01
    outer loop
      vertex   3.273996e+00  3.048200e+01  1.779999e+00
      vertex   3.659997e+00  3.130200e+01  1.584000e+00
      vertex   3.187997e+00  3.048200e+01  1.584000e+00
    endloop
  endfacet
  facet normal -3.774360e-01  2.271464e-01 -8.977453e-01
    outer loop
      vertex  -1.730001e+00  2.175000e+01  1.293999e+00
      vertex   3.329999e+00  3.048200e+01  1.375999e+00
      vertex  -1.214003e+00  2.173000e+01  1.071999e+00
    endloop
  endfacet
  facet normal -2.084222e-01  1.226641e-01 -9.703163e-01
    outer loop
      vertex  -5.192002e+00  1.293000e+01  8.139992e-01
      vertex  -1.214003e+00  2.173000e+01  1.071999e+00
      vertex  -3.820019e-01  2.170400e+01  8.899994e-01
    endloop
  endfacet
  facet normal -4.381389e-01  2.608410e-01  8.602304e-01
    outer loop
      vertex  -6.786004e+00  1.301800e+01  1.945999e+00
      vertex  -1.318003e+00  2.170800e+01  2.096001e+00
      vertex  -1.756002e+00  2.174400e+01  1.862000e+00
    endloop
  endfacet
  facet normal -2.657470e-01  1.607384e-01  9.505481e-01
    outer loop
      vertex  -1.318003e+00  2.170800e+01  2.096001e+00
      vertex   4.081998e+00  3.048200e+01  2.122002e+00
      vertex   3.523996e+00  3.048200e+01  1.966000e+00
    endloop
  endfacet
  facet normal -2.749922e-01  1.580831e-01  9.483613e-01
    outer loop
      vertex   3.973996e+00  3.130200e+01  1.953999e+00
      vertex   4.081998e+00  3.048200e+01  2.122002e+00
      vertex   4.511998e+00  3.130200e+01  2.110001e+00
    endloop
  endfacet
  facet normal -6.478224e-02  5.381808e-02  9.964471e-01
    outer loop
      vertex   6.279964e-01  2.164400e+01  2.431999e+00
      vertex   2.309999e+00  2.163200e+01  2.542000e+00
      vertex   6.535996e+00  3.049600e+01  2.338001e+00
    endloop
  endfacet
  facet normal -8.643934e-02  5.381719e-02 -9.948025e-01
    outer loop
      vertex   7.319965e-01  2.168200e+01  7.280006e-01
      vertex   6.585996e+00  3.045600e+01  6.940002e-01
      vertex   2.331999e+00  2.166400e+01  5.880013e-01
    endloop
  endfacet
  facet normal -6.510835e-02  5.247308e-02  9.964976e-01
    outer loop
      vertex   5.085996e+00  3.048200e+01  2.243999e+00
      vertex   6.535996e+00  3.049600e+01  2.338001e+00
      vertex   5.501996e+00  3.130200e+01  2.228001e+00
    endloop
  endfacet
  facet normal -1.696567e-01  5.437324e-02 -9.840021e-01
    outer loop
      vertex   4.869996e+00  3.130200e+01  9.720001e-01
      vertex   5.213998e+00  3.212200e+01  9.580002e-01
      vertex   5.739999e+00  3.130200e+01  8.219986e-01
    endloop
  endfacet
  facet normal -1.330638e-01  7.863814e-02 -9.879829e-01
    outer loop
      vertex   5.739999e+00  3.130200e+01  8.219986e-01
      vertex   5.689996e+00  3.212200e+01  8.940010e-01
      vertex   6.163999e+00  3.212000e+01  8.300018e-01
    endloop
  endfacet
  facet normal -1.328408e-01  7.865426e-02 -9.880116e-01
    outer loop
      vertex   5.689996e+00  3.212200e+01  8.940010e-01
      vertex   5.739999e+00  3.130200e+01  8.219986e-01
      vertex   5.213998e+00  3.212200e+01  9.580002e-01
    endloop
  endfacet
  facet normal -9.398668e-02  6.313467e-02 -9.935696e-01
    outer loop
      vertex   5.315999e+00  3.048200e+01  8.100014e-01
      vertex   5.739999e+00  3.130200e+01  8.219986e-01
      vertex   6.593999e+00  3.049600e+01  6.899986e-01
    endloop
  endfacet
  facet normal -6.341639e-02  5.464263e-02  9.964901e-01
    outer loop
      vertex   5.501996e+00  3.130200e+01  2.228001e+00
      vertex   6.535996e+00  3.049600e+01  2.338001e+00
      vertex   6.929997e+00  3.131800e+01  2.318001e+00
    endloop
  endfacet
  facet normal -4.770551e-01  2.721963e-01  8.356600e-01
    outer loop
      vertex   4.567998e+00  3.212200e+01  2.026001e+00
      vertex   3.973996e+00  3.130200e+01  1.953999e+00
      vertex   4.713998e+00  3.212000e+01  2.110001e+00
    endloop
  endfacet
  facet normal -4.961705e-01  2.874844e-01  8.192481e-01
    outer loop
      vertex   3.973996e+00  3.130200e+01  1.953999e+00
      vertex   4.567998e+00  3.212200e+01  2.026001e+00
      vertex   4.425996e+00  3.212200e+01  1.939999e+00
    endloop
  endfacet
  facet normal -2.805023e-01  1.665776e-01 -9.452885e-01
    outer loop
      vertex   3.751996e+00  3.048200e+01  1.164001e+00
      vertex   4.211999e+00  3.130200e+01  1.172001e+00
      vertex   4.425996e+00  3.048200e+01  9.640007e-01
    endloop
  endfacet
  facet normal -1.202352e-01  8.030323e-02  9.894922e-01
    outer loop
      vertex   4.081998e+00  3.048200e+01  2.122002e+00
      vertex   5.085996e+00  3.048200e+01  2.243999e+00
      vertex   5.501996e+00  3.130200e+01  2.228001e+00
    endloop
  endfacet
  facet normal -3.333529e-01  1.988985e-01 -9.215830e-01
    outer loop
      vertex  -6.792001e+00  1.303000e+01  1.212002e+00
      vertex  -1.214003e+00  2.173000e+01  1.071999e+00
      vertex  -6.180001e+00  1.299000e+01  9.819984e-01
    endloop
  endfacet
  facet normal -9.270489e-02 -5.772545e-02 -9.940189e-01
    outer loop
      vertex   6.593999e+00  3.049600e+01  6.899986e-01
      vertex   6.575997e+00  3.045600e+01  6.940002e-01
      vertex   5.315999e+00  3.048200e+01  8.100014e-01
    endloop
  endfacet
  facet normal -9.037834e-02  5.634419e-02 -9.943123e-01
    outer loop
      vertex   7.319965e-01  2.168200e+01  7.280006e-01
      vertex   5.315999e+00  3.048200e+01  8.100014e-01
      vertex   6.575997e+00  3.045600e+01  6.940002e-01
    endloop
  endfacet
  facet normal -7.959215e-02  6.198269e-02  9.948986e-01
    outer loop
      vertex   5.313996e+00  3.212000e+01  2.161999e+00
      vertex   5.501996e+00  3.130200e+01  2.228001e+00
      vertex   5.913999e+00  3.212000e+01  2.209999e+00
    endloop
  endfacet
  facet normal -8.618236e-02  6.043147e-02  9.944449e-01
    outer loop
      vertex   5.501996e+00  3.130200e+01  2.228001e+00
      vertex   5.313996e+00  3.212000e+01  2.161999e+00
      vertex   4.713998e+00  3.212000e+01  2.110001e+00
    endloop
  endfacet
  facet normal -7.600917e-01  4.456833e-01 -4.728923e-01
    outer loop
      vertex  -6.792001e+00  1.303000e+01  1.212002e+00
      vertex  -1.902002e+00  2.175800e+01  1.577999e+00
      vertex  -1.730001e+00  2.175000e+01  1.293999e+00
    endloop
  endfacet
  facet normal -7.458931e-01  4.293436e-01 -5.092226e-01
    outer loop
      vertex   3.187997e+00  3.048200e+01  1.584000e+00
      vertex   3.659997e+00  3.130200e+01  1.584000e+00
      vertex   3.329999e+00  3.048200e+01  1.375999e+00
    endloop
  endfacet
  facet normal -8.173357e-01  4.658013e-01  3.391040e-01
    outer loop
      vertex   3.659997e+00  3.130200e+01  1.584000e+00
      vertex   3.273996e+00  3.048200e+01  1.779999e+00
      vertex   3.737996e+00  3.130200e+01  1.771999e+00
    endloop
  endfacet
  facet normal -8.168925e-01  4.667116e-01  3.389201e-01
    outer loop
      vertex   3.737996e+00  3.130200e+01  1.771999e+00
      vertex   4.203996e+00  3.212200e+01  1.765999e+00
      vertex   3.659997e+00  3.130200e+01  1.584000e+00
    endloop
  endfacet
  facet normal -2.868535e-01  1.645274e-01 -9.437403e-01
    outer loop
      vertex   4.211999e+00  3.130200e+01  1.172001e+00
      vertex   4.869996e+00  3.130200e+01  9.720001e-01
      vertex   4.425996e+00  3.048200e+01  9.640007e-01
    endloop
  endfacet
  facet normal -7.441654e-01  4.333065e-01 -5.083929e-01
    outer loop
      vertex   3.659997e+00  3.130200e+01  1.584000e+00
      vertex   4.269998e+00  3.212200e+01  1.389999e+00
      vertex   3.797998e+00  3.130200e+01  1.382000e+00
    endloop
  endfacet
  facet normal -2.084399e-01  1.223497e-01 -9.703522e-01
    outer loop
      vertex  -1.214003e+00  2.173000e+01  1.071999e+00
      vertex   4.425996e+00  3.048200e+01  9.640007e-01
      vertex  -3.820019e-01  2.170400e+01  8.899994e-01
    endloop
  endfacet
  facet normal -1.202217e-01  8.168722e-02  9.893806e-01
    outer loop
      vertex   6.279964e-01  2.164400e+01  2.431999e+00
      vertex   5.085996e+00  3.048200e+01  2.243999e+00
      vertex   4.081998e+00  3.048200e+01  2.122002e+00
    endloop
  endfacet
  facet normal -2.657892e-01  1.597741e-01  9.506989e-01
    outer loop
      vertex   3.523996e+00  3.048200e+01  1.966000e+00
      vertex   4.081998e+00  3.048200e+01  2.122002e+00
      vertex   3.973996e+00  3.130200e+01  1.953999e+00
    endloop
  endfacet
  facet normal -4.344036e-01  2.521269e-01 -8.647112e-01
    outer loop
      vertex   3.329999e+00  3.048200e+01  1.375999e+00
      vertex   4.211999e+00  3.130200e+01  1.172001e+00
      vertex   3.751996e+00  3.048200e+01  1.164001e+00
    endloop
  endfacet
  facet normal -3.773896e-01  2.275174e-01 -8.976709e-01
    outer loop
      vertex  -6.792001e+00  1.303000e+01  1.212002e+00
      vertex  -1.730001e+00  2.175000e+01  1.293999e+00
      vertex  -1.214003e+00  2.173000e+01  1.071999e+00
    endloop
  endfacet
  facet normal -4.373115e-01  2.558957e-01 -8.621346e-01
    outer loop
      vertex   3.329999e+00  3.048200e+01  1.375999e+00
      vertex   3.797998e+00  3.130200e+01  1.382000e+00
      vertex   4.211999e+00  3.130200e+01  1.172001e+00
    endloop
  endfacet
  facet normal -7.825606e-01  4.551867e-01  4.247398e-01
    outer loop
      vertex  -6.786004e+00  1.301800e+01  1.945999e+00
      vertex  -1.756002e+00  2.174400e+01  1.862000e+00
      vertex  -1.902002e+00  2.175800e+01  1.577999e+00
    endloop
  endfacet
  facet normal -9.952407e-02  6.243340e-02 -9.930745e-01
    outer loop
      vertex   5.739999e+00  3.130200e+01  8.219986e-01
      vertex   6.771996e+00  3.212000e+01  7.700005e-01
      vertex   7.381997e+00  3.213800e+01  7.099991e-01
    endloop
  endfacet
  facet normal -9.802965e-02  6.053111e-02 -9.933409e-01
    outer loop
      vertex   6.771996e+00  3.212000e+01  7.700005e-01
      vertex   5.739999e+00  3.130200e+01  8.219986e-01
      vertex   6.163999e+00  3.212000e+01  8.300018e-01
    endloop
  endfacet
  facet normal -1.612453e-01  1.017269e-01 -9.816575e-01
    outer loop
      vertex  -1.214003e+00  2.173000e+01  1.071999e+00
      vertex  -5.274003e+00  1.294000e+01  8.279991e-01
      vertex  -6.180001e+00  1.299000e+01  9.819984e-01
    endloop
  endfacet
  facet normal -1.556996e-01  9.919748e-02 -9.828110e-01
    outer loop
      vertex  -5.274003e+00  1.294000e+01  8.279991e-01
      vertex  -1.214003e+00  2.173000e+01  1.071999e+00
      vertex  -5.192002e+00  1.293000e+01  8.139992e-01
    endloop
  endfacet
  facet normal -5.871142e-02  5.200258e-02  9.969196e-01
    outer loop
      vertex   6.279964e-01  2.164400e+01  2.431999e+00
      vertex  -2.094003e+00  1.285800e+01  2.730000e+00
      vertex  -1.891999e+00  1.285600e+01  2.742001e+00
    endloop
  endfacet
  facet normal -6.616137e-02  5.429072e-02  9.963309e-01
    outer loop
      vertex   6.279964e-01  2.164400e+01  2.431999e+00
      vertex  -3.814000e+00  1.285400e+01  2.616001e+00
      vertex  -2.094003e+00  1.285800e+01  2.730000e+00
    endloop
  endfacet
  facet normal -5.749652e-01  3.297146e-01  7.488014e-01
    outer loop
      vertex   4.313996e+00  3.212200e+01  1.854000e+00
      vertex   3.973996e+00  3.130200e+01  1.953999e+00
      vertex   4.425996e+00  3.212200e+01  1.939999e+00
    endloop
  endfacet
  facet normal -5.888431e-01  3.339134e-01  7.360473e-01
    outer loop
      vertex   3.973996e+00  3.130200e+01  1.953999e+00
      vertex   4.313996e+00  3.212200e+01  1.854000e+00
      vertex   4.203996e+00  3.212200e+01  1.765999e+00
    endloop
  endfacet
  facet normal -5.652614e-01  3.213244e-01  7.597567e-01
    outer loop
      vertex   3.273996e+00  3.048200e+01  1.779999e+00
      vertex   3.523996e+00  3.048200e+01  1.966000e+00
      vertex   3.973996e+00  3.130200e+01  1.953999e+00
    endloop
  endfacet
  facet normal -4.368345e-01  2.598463e-01 -8.611943e-01
    outer loop
      vertex   3.797998e+00  3.130200e+01  1.382000e+00
      vertex   4.269998e+00  3.212200e+01  1.389999e+00
      vertex   4.211999e+00  3.130200e+01  1.172001e+00
    endloop
  endfacet
  facet normal -7.699566e-01  4.503369e-01 -4.520658e-01
    outer loop
      vertex  -6.792001e+00  1.303000e+01  1.212002e+00
      vertex  -6.994004e+00  1.304400e+01  1.570000e+00
      vertex  -1.902002e+00  2.175800e+01  1.577999e+00
    endloop
  endfacet
  facet normal -8.159757e-01  4.696814e-01  3.370209e-01
    outer loop
      vertex   3.659997e+00  3.130200e+01  1.584000e+00
      vertex   4.169995e+00  3.212200e+01  1.675999e+00
      vertex   4.131997e+00  3.212200e+01  1.584000e+00
    endloop
  endfacet
  facet normal -7.210905e-01  3.837606e-01  5.768504e-01
    outer loop
      vertex   4.169995e+00  3.212200e+01  1.675999e+00
      vertex   3.659997e+00  3.130200e+01  1.584000e+00
      vertex   4.209996e+00  3.212200e+01  1.726002e+00
    endloop
  endfacet
  facet normal -8.143526e-01  5.673656e-01 -1.221723e-01
    outer loop
      vertex   4.209996e+00  3.212200e+01  1.726002e+00
      vertex   3.659997e+00  3.130200e+01  1.584000e+00
      vertex   4.203996e+00  3.212200e+01  1.765999e+00
    endloop
  endfacet
  facet normal -1.696088e-01  1.020414e-01 -9.802145e-01
    outer loop
      vertex   4.425996e+00  3.048200e+01  9.640007e-01
      vertex   5.739999e+00  3.130200e+01  8.219986e-01
      vertex   5.315999e+00  3.048200e+01  8.100014e-01
    endloop
  endfacet
  facet normal -7.457314e-01  4.293395e-01 -5.094628e-01
    outer loop
      vertex   3.329999e+00  3.048200e+01  1.375999e+00
      vertex   3.659997e+00  3.130200e+01  1.584000e+00
      vertex   3.797998e+00  3.130200e+01  1.382000e+00
    endloop
  endfacet
  facet normal -1.267429e-01  8.473746e-02  9.883096e-01
    outer loop
      vertex   6.279964e-01  2.164400e+01  2.431999e+00
      vertex  -4.768014e+00  1.285000e+01  2.493999e+00
      vertex  -3.814000e+00  1.285400e+01  2.616001e+00
    endloop
  endfacet
  facet normal -1.267796e-01  8.475994e-02  9.883030e-01
    outer loop
      vertex   6.279964e-01  2.164400e+01  2.431999e+00
      vertex  -5.164002e+00  1.286400e+01  2.442001e+00
      vertex  -4.768014e+00  1.285000e+01  2.493999e+00
    endloop
  endfacet
  facet normal -1.180088e-01  7.637282e-02  9.900712e-01
    outer loop
      vertex   4.081998e+00  3.048200e+01  2.122002e+00
      vertex   5.501996e+00  3.130200e+01  2.228001e+00
      vertex   4.511998e+00  3.130200e+01  2.110001e+00
    endloop
  endfacet
  facet normal -7.828298e-01  4.546201e-01  4.248506e-01
    outer loop
      vertex  -1.756002e+00  2.174400e+01  1.862000e+00
      vertex   3.273996e+00  3.048200e+01  1.779999e+00
      vertex  -1.902002e+00  2.175800e+01  1.577999e+00
    endloop
  endfacet
  facet normal -3.736385e-01  2.214943e-01 -9.007412e-01
    outer loop
      vertex   4.211999e+00  3.130200e+01  1.172001e+00
      vertex   4.943997e+00  3.212200e+01  1.070000e+00
      vertex   5.213998e+00  3.212200e+01  9.580002e-01
    endloop
  endfacet
  facet normal -3.683614e-01  2.163588e-01 -9.041564e-01
    outer loop
      vertex   4.943997e+00  3.212200e+01  1.070000e+00
      vertex   4.211999e+00  3.130200e+01  1.172001e+00
      vertex   4.673997e+00  3.212200e+01  1.180000e+00
    endloop
  endfacet
  facet normal -1.690376e-01  1.010921e-01 -9.804114e-01
    outer loop
      vertex   4.425996e+00  3.048200e+01  9.640007e-01
      vertex   4.869996e+00  3.130200e+01  9.720001e-01
      vertex   5.739999e+00  3.130200e+01  8.219986e-01
    endloop
  endfacet
  facet normal -1.234509e-01  7.383674e-02 -9.895999e-01
    outer loop
      vertex  -5.192002e+00  1.293000e+01  8.139992e-01
      vertex   7.319965e-01  2.168200e+01  7.280006e-01
      vertex  -3.852002e+00  1.289200e+01  6.440010e-01
    endloop
  endfacet
  facet normal -8.077717e-01  4.710489e-01  3.544262e-01
    outer loop
      vertex  -1.902002e+00  2.175800e+01  1.577999e+00
      vertex   3.273996e+00  3.048200e+01  1.779999e+00
      vertex   3.187997e+00  3.048200e+01  1.584000e+00
    endloop
  endfacet
  facet normal -2.255443e-01  1.359535e-01  9.647002e-01
    outer loop
      vertex  -1.318003e+00  2.170800e+01  2.096001e+00
      vertex  -5.380001e-01  2.166800e+01  2.284000e+00
      vertex   4.081998e+00  3.048200e+01  2.122002e+00
    endloop
  endfacet
  facet normal -6.368426e-02  5.505585e-02  9.964503e-01
    outer loop
      vertex   6.615998e+00  3.212000e+01  2.254002e+00
      vertex   5.501996e+00  3.130200e+01  2.228001e+00
      vertex   7.319997e+00  3.213800e+01  2.298000e+00
    endloop
  endfacet
  facet normal -6.246968e-02  5.339644e-02  9.966175e-01
    outer loop
      vertex   5.501996e+00  3.130200e+01  2.228001e+00
      vertex   6.615998e+00  3.212000e+01  2.254002e+00
      vertex   5.913999e+00  3.212000e+01  2.209999e+00
    endloop
  endfacet
  facet normal -7.439023e-01  4.343776e-01 -5.078637e-01
    outer loop
      vertex  -1.902002e+00  2.175800e+01  1.577999e+00
      vertex   3.187997e+00  3.048200e+01  1.584000e+00
      vertex   3.329999e+00  3.048200e+01  1.375999e+00
    endloop
  endfacet
  facet normal -9.611555e-02  5.536453e-02 -9.938293e-01
    outer loop
      vertex   6.755998e+00  3.084000e+01  6.980019e-01
      vertex   5.739999e+00  3.130200e+01  8.219986e-01
      vertex   6.989999e+00  3.131800e+01  7.019997e-01
    endloop
  endfacet
  facet normal -9.122147e-02  6.607545e-02 -9.936361e-01
    outer loop
      vertex   5.739999e+00  3.130200e+01  8.219986e-01
      vertex   6.755998e+00  3.084000e+01  6.980019e-01
      vertex   6.593999e+00  3.049600e+01  6.899986e-01
    endloop
  endfacet
  facet normal -4.340238e-01  2.553529e-01 -8.639551e-01
    outer loop
      vertex  -1.214003e+00  2.173000e+01  1.071999e+00
      vertex   3.329999e+00  3.048200e+01  1.375999e+00
      vertex   3.751996e+00  3.048200e+01  1.164001e+00
    endloop
  endfacet
  facet normal -3.762761e-01  2.212337e-01  8.997066e-01
    outer loop
      vertex  -6.786004e+00  1.301800e+01  1.945999e+00
      vertex  -6.160005e+00  1.294400e+01  2.226002e+00
      vertex  -1.318003e+00  2.170800e+01  2.096001e+00
    endloop
  endfacet
  facet normal -1.417129e-01  8.593450e-02 -9.861707e-01
    outer loop
      vertex  -3.820019e-01  2.170400e+01  8.899994e-01
      vertex   4.425996e+00  3.048200e+01  9.640007e-01
      vertex   7.319965e-01  2.168200e+01  7.280006e-01
    endloop
  endfacet
  facet normal -1.417037e-01  8.622546e-02 -9.861467e-01
    outer loop
      vertex  -5.192002e+00  1.293000e+01  8.139992e-01
      vertex  -3.820019e-01  2.170400e+01  8.899994e-01
      vertex   7.319965e-01  2.168200e+01  7.280006e-01
    endloop
  endfacet
  facet normal -8.643990e-02  5.378252e-02 -9.948043e-01
    outer loop
      vertex   2.136000e+00  2.123800e+01  5.820007e-01
      vertex   7.319965e-01  2.168200e+01  7.280006e-01
      vertex   2.331999e+00  2.166400e+01  5.880013e-01
    endloop
  endfacet
  facet normal -8.625028e-02  5.437689e-02 -9.947884e-01
    outer loop
      vertex   7.319965e-01  2.168200e+01  7.280006e-01
      vertex   2.136000e+00  2.123800e+01  5.820007e-01
      vertex   1.717997e+00  2.039200e+01  5.719986e-01
    endloop
  endfacet
  facet normal -8.721012e-02  5.363798e-02 -9.947448e-01
    outer loop
      vertex   7.319965e-01  2.168200e+01  7.280006e-01
      vertex   1.717997e+00  2.039200e+01  5.719986e-01
      vertex  -1.928002e+00  1.283200e+01  4.840012e-01
    endloop
  endfacet
  facet normal -1.696859e-01  9.752906e-02 -9.806604e-01
    outer loop
      vertex   7.319965e-01  2.168200e+01  7.280006e-01
      vertex   4.425996e+00  3.048200e+01  9.640007e-01
      vertex   5.315999e+00  3.048200e+01  8.100014e-01
    endloop
  endfacet
  facet normal -6.341502e-02  5.446621e-02  9.964998e-01
    outer loop
      vertex   5.501996e+00  3.130200e+01  2.228001e+00
      vertex   6.929997e+00  3.131800e+01  2.318001e+00
      vertex   7.319997e+00  3.213800e+01  2.298000e+00
    endloop
  endfacet
  facet normal -2.803836e-01  1.690262e-01 -9.448890e-01
    outer loop
      vertex  -1.214003e+00  2.173000e+01  1.071999e+00
      vertex   3.751996e+00  3.048200e+01  1.164001e+00
      vertex   4.425996e+00  3.048200e+01  9.640007e-01
    endloop
  endfacet
  facet normal -8.115710e-02  5.183541e-02 -9.953525e-01
    outer loop
      vertex  -3.852002e+00  1.289200e+01  6.440010e-01
      vertex   7.319965e-01  2.168200e+01  7.280006e-01
      vertex  -1.928002e+00  1.283200e+01  4.840012e-01
    endloop
  endfacet
  facet normal -4.485468e-01  2.610543e-01 -8.547844e-01
    outer loop
      vertex   4.211999e+00  3.130200e+01  1.172001e+00
      vertex   4.471997e+00  3.212200e+01  1.285999e+00
      vertex   4.673997e+00  3.212200e+01  1.180000e+00
    endloop
  endfacet
  facet normal -4.420619e-01  2.595311e-01 -8.586180e-01
    outer loop
      vertex   4.471997e+00  3.212200e+01  1.285999e+00
      vertex   4.211999e+00  3.130200e+01  1.172001e+00
      vertex   4.269998e+00  3.212200e+01  1.389999e+00
    endloop
  endfacet
  facet normal -9.611759e-02  5.564376e-02 -9.938134e-01
    outer loop
      vertex   5.739999e+00  3.130200e+01  8.219986e-01
      vertex   7.381997e+00  3.213800e+01  7.099991e-01
      vertex   6.989999e+00  3.131800e+01  7.019997e-01
    endloop
  endfacet
  facet normal -7.448790e-01  4.342823e-01 -5.065118e-01
    outer loop
      vertex   3.659997e+00  3.130200e+01  1.584000e+00
      vertex   4.201997e+00  3.212200e+01  1.490002e+00
      vertex   4.269998e+00  3.212200e+01  1.389999e+00
    endloop
  endfacet
  facet normal -7.281848e-01  4.191483e-01 -5.422747e-01
    outer loop
      vertex   4.201997e+00  3.212200e+01  1.490002e+00
      vertex   3.659997e+00  3.130200e+01  1.584000e+00
      vertex   4.131997e+00  3.212200e+01  1.584000e+00
    endloop
  endfacet
  facet normal -7.603658e-01  4.450575e-01 -4.730408e-01
    outer loop
      vertex  -1.730001e+00  2.175000e+01  1.293999e+00
      vertex  -1.902002e+00  2.175800e+01  1.577999e+00
      vertex   3.329999e+00  3.048200e+01  1.375999e+00
    endloop
  endfacet
endsolid vcg
