solid STL generated by MeshLab
  facet normal  1.000000e+00 -0.000000e+00  0.000000e+00
    outer loop
      vertex  -1.526400e+01 -4.692003e+00  6.046001e+00
      vertex  -1.526400e+01 -4.594003e+00  6.044003e+00
      vertex  -1.526400e+01 -4.594003e+00  6.046001e+00
    endloop
  endfacet
  facet normal -3.158661e-01  0.000000e+00  9.488038e-01
    outer loop
      vertex  -1.526400e+01 -4.594003e+00  6.046001e+00
      vertex  -1.527000e+01 -4.594003e+00  6.044003e+00
      vertex  -1.526400e+01 -4.692003e+00  6.046001e+00
    endloop
  endfacet
  facet normal -2.425327e-01 -4.928067e-03  9.701307e-01
    outer loop
      vertex  -1.526400e+01  4.905997e+00  6.046001e+00
      vertex  -1.527800e+01  4.807997e+00  6.042004e+00
      vertex  -1.527000e+01  4.807997e+00  6.044003e+00
    endloop
  endfacet
  facet normal -2.437469e-01 -4.433385e-01  8.625767e-01
    outer loop
      vertex  -1.364800e+01  4.787997e+00  6.442001e+00
      vertex  -1.526400e+01  4.905997e+00  6.046001e+00
      vertex  -1.375800e+01  4.793997e+00  6.414001e+00
    endloop
  endfacet
  facet normal -2.722622e-02  9.983320e-01  5.091285e-02
    outer loop
      vertex  -1.853400e+01  4.807997e+00  5.284004e+00
      vertex  -2.057800e+01  4.779997e+00  4.740002e+00
      vertex  -2.245800e+01  4.721994e+00  4.872002e+00
    endloop
  endfacet
  facet normal  2.023703e-01  1.036301e-01  9.738106e-01
    outer loop
      vertex  -9.344002e+00  5.599967e-01  1.021600e+01
      vertex  -9.536003e+00  1.079932e-01  1.030400e+01
      vertex  -9.304001e+00  1.059944e-01  1.025600e+01
    endloop
  endfacet
  facet normal  2.064274e-01  1.017790e-01  9.731541e-01
    outer loop
      vertex  -9.536003e+00  1.079932e-01  1.030400e+01
      vertex  -9.344002e+00  5.599967e-01  1.021600e+01
      vertex  -9.730003e+00  1.361995e+00  1.021400e+01
    endloop
  endfacet
  facet normal  2.107416e-01  1.023755e-01  9.721663e-01
    outer loop
      vertex  -9.536003e+00  1.079932e-01  1.030400e+01
      vertex  -9.730003e+00  1.361995e+00  1.021400e+01
      vertex  -9.620003e+00  1.099998e-01  1.032200e+01
    endloop
  endfacet
  facet normal  1.916793e-01  9.468998e-02  9.768792e-01
    outer loop
      vertex  -9.730003e+00  1.361995e+00  1.021400e+01
      vertex  -9.344002e+00  5.599967e-01  1.021600e+01
      vertex  -9.416000e+00  1.365996e+00  1.015200e+01
    endloop
  endfacet
  facet normal  2.006481e-01 -1.039661e-01  9.741310e-01
    outer loop
      vertex  -9.536003e+00  1.079932e-01  1.030400e+01
      vertex  -9.344002e+00 -3.460015e-01  1.021600e+01
      vertex  -9.304001e+00  1.059944e-01  1.025600e+01
    endloop
  endfacet
  facet normal  2.051421e-01 -1.019258e-01  9.734105e-01
    outer loop
      vertex  -9.344002e+00 -3.460015e-01  1.021600e+01
      vertex  -9.536003e+00  1.079932e-01  1.030400e+01
      vertex  -9.732002e+00 -1.146005e+00  1.021400e+01
    endloop
  endfacet
  facet normal  2.060795e-01 -1.020571e-01  9.731987e-01
    outer loop
      vertex  -9.732002e+00 -1.146005e+00  1.021400e+01
      vertex  -9.536003e+00  1.079932e-01  1.030400e+01
      vertex  -9.620003e+00  1.099998e-01  1.032200e+01
    endloop
  endfacet
  facet normal  1.905082e-01 -9.483761e-02  9.770939e-01
    outer loop
      vertex  -9.732002e+00 -1.146005e+00  1.021400e+01
      vertex  -9.416000e+00 -1.150002e+00  1.015200e+01
      vertex  -9.344002e+00 -3.460015e-01  1.021600e+01
    endloop
  endfacet
  facet normal  6.125674e-02  9.606288e-01  2.709979e-01
    outer loop
      vertex  -1.299200e+01  4.357997e+00  7.926003e+00
      vertex  -1.143800e+01  4.351996e+00  7.596004e+00
      vertex  -1.185001e+01  4.555995e+00  6.966003e+00
    endloop
  endfacet
  facet normal  1.666291e-01  3.289067e-01  9.295456e-01
    outer loop
      vertex  -1.225401e+01  2.391997e+00  1.030200e+01
      vertex  -9.730003e+00  1.361995e+00  1.021400e+01
      vertex  -9.962006e+00  2.479995e+00  9.860004e+00
    endloop
  endfacet
  facet normal -1.395404e-03  6.150120e-01  7.885166e-01
    outer loop
      vertex  -1.853400e+01  2.283995e+00  1.068600e+01
      vertex  -1.523600e+01  2.311995e+00  1.067000e+01
      vertex  -1.853400e+01  3.201994e+00  9.970001e+00
    endloop
  endfacet
  facet normal -5.276368e-02  9.763367e-01  2.097204e-01
    outer loop
      vertex  -1.551200e+01  4.609995e+00  7.196003e+00
      vertex  -1.556800e+01  4.795996e+00  6.316002e+00
      vertex  -1.853400e+01  4.755995e+00  5.756004e+00
    endloop
  endfacet
  facet normal -5.059182e-02  9.318907e-01  3.591938e-01
    outer loop
      vertex  -2.209200e+01  4.331995e+00  7.518002e+00
      vertex  -2.206001e+01  4.241995e+00  7.756004e+00
      vertex  -1.853400e+01  4.343997e+00  7.988003e+00
    endloop
  endfacet
  facet normal -5.069524e-02  9.311518e-01  3.610904e-01
    outer loop
      vertex  -2.196201e+01  3.895994e+00  8.662003e+00
      vertex  -1.853400e+01  4.343997e+00  7.988003e+00
      vertex  -2.206001e+01  4.241995e+00  7.756004e+00
    endloop
  endfacet
  facet normal -4.693681e-02  9.253013e-01  3.763170e-01
    outer loop
      vertex  -1.853400e+01  4.343997e+00  7.988003e+00
      vertex  -2.196201e+01  3.895994e+00  8.662003e+00
      vertex  -2.195800e+01  3.883997e+00  8.692001e+00
    endloop
  endfacet
  facet normal -4.715057e-02  9.256263e-01  3.754899e-01
    outer loop
      vertex  -1.853400e+01  4.343997e+00  7.988003e+00
      vertex  -2.195800e+01  3.883997e+00  8.692001e+00
      vertex  -1.853400e+01  3.913996e+00  9.048004e+00
    endloop
  endfacet
  facet normal -8.761070e-03  9.999616e-01  0.000000e+00
    outer loop
      vertex  -2.195800e+01  3.883997e+00  8.692001e+00
      vertex  -2.195800e+01  3.883997e+00  8.694004e+00
      vertex  -1.853400e+01  3.913996e+00  9.048004e+00
    endloop
  endfacet
  facet normal -1.653773e-02  9.265302e-01  3.758566e-01
    outer loop
      vertex  -1.535001e+01  3.939997e+00  9.124004e+00
      vertex  -1.853400e+01  4.343997e+00  7.988003e+00
      vertex  -1.853400e+01  3.913996e+00  9.048004e+00
    endloop
  endfacet
  facet normal -1.031873e-02  5.942765e-01  8.041946e-01
    outer loop
      vertex  -1.853400e+01  3.201994e+00  9.970001e+00
      vertex  -1.523600e+01  2.311995e+00  1.067000e+01
      vertex  -1.528800e+01  3.233996e+00  9.988003e+00
    endloop
  endfacet
  facet normal -3.205339e-02  9.754800e-01  2.177413e-01
    outer loop
      vertex  -1.853400e+01  4.593997e+00  6.868004e+00
      vertex  -2.209200e+01  4.331995e+00  7.518002e+00
      vertex  -1.853400e+01  4.343997e+00  7.988003e+00
    endloop
  endfacet
  facet normal -3.871005e-02  9.824936e-01  1.822303e-01
    outer loop
      vertex  -1.853400e+01  4.593997e+00  6.868004e+00
      vertex  -2.209400e+01  4.337996e+00  7.492004e+00
      vertex  -2.209200e+01  4.333994e+00  7.514004e+00
    endloop
  endfacet
  facet normal  1.583430e-02  8.943136e-01  4.471605e-01
    outer loop
      vertex  -1.853400e+01  4.593997e+00  6.868004e+00
      vertex  -2.209200e+01  4.333994e+00  7.514004e+00
      vertex  -2.209200e+01  4.331995e+00  7.518002e+00
    endloop
  endfacet
  facet normal -3.151101e-02  9.939765e-01  1.049650e-01
    outer loop
      vertex  -2.225800e+01  4.589994e+00  6.210003e+00
      vertex  -1.853400e+01  4.755995e+00  5.756004e+00
      vertex  -2.241200e+01  4.695993e+00  5.160004e+00
    endloop
  endfacet
  facet normal -3.057435e-02  9.946371e-01  9.880392e-02
    outer loop
      vertex  -2.245200e+01  4.719995e+00  4.906002e+00
      vertex  -2.241200e+01  4.695993e+00  5.160004e+00
      vertex  -1.853400e+01  4.755995e+00  5.756004e+00
    endloop
  endfacet
  facet normal -6.355567e-02  6.137692e-01  7.869232e-01
    outer loop
      vertex  -1.853400e+01  3.201994e+00  9.970001e+00
      vertex  -2.177801e+01  2.283995e+00  1.042400e+01
      vertex  -1.853400e+01  2.283995e+00  1.068600e+01
    endloop
  endfacet
  facet normal -2.722939e-01  9.622141e-01  0.000000e+00
    outer loop
      vertex  -1.853400e+01  3.201994e+00  9.970001e+00
      vertex  -2.177801e+01  2.283995e+00  1.042200e+01
      vertex  -2.177801e+01  2.283995e+00  1.042400e+01
    endloop
  endfacet
  facet normal -5.010572e-02  5.780741e-01  8.144445e-01
    outer loop
      vertex  -1.853400e+01  3.201994e+00  9.970001e+00
      vertex  -2.178001e+01  2.311995e+00  1.040200e+01
      vertex  -2.177801e+01  2.283995e+00  1.042200e+01
    endloop
  endfacet
  facet normal -2.714468e-02  9.154006e-01  4.016278e-01
    outer loop
      vertex  -1.535001e+01  3.939997e+00  9.124004e+00
      vertex  -1.542001e+01  4.359995e+00  8.162003e+00
      vertex  -1.853400e+01  4.343997e+00  7.988003e+00
    endloop
  endfacet
  facet normal  1.292265e-01  5.999262e-01  7.895499e-01
    outer loop
      vertex  -1.245400e+01  3.279998e+00  9.660004e+00
      vertex  -1.225401e+01  2.391997e+00  1.030200e+01
      vertex  -9.962006e+00  2.479995e+00  9.860004e+00
    endloop
  endfacet
  facet normal  1.353271e-01  6.156250e-01  7.763327e-01
    outer loop
      vertex  -1.245400e+01  3.279998e+00  9.660004e+00
      vertex  -9.962006e+00  2.479995e+00  9.860004e+00
      vertex  -1.034800e+01  3.323997e+00  9.258003e+00
    endloop
  endfacet
  facet normal  1.741742e-01  3.481146e-01  9.211295e-01
    outer loop
      vertex  -1.225401e+01  2.391997e+00  1.030200e+01
      vertex  -1.213800e+01  1.301997e+00  1.069200e+01
      vertex  -9.730003e+00  1.361995e+00  1.021400e+01
    endloop
  endfacet
  facet normal  1.260121e-01  1.254086e-01  9.840699e-01
    outer loop
      vertex  -1.520800e+01  1.247996e+00  1.109200e+01
      vertex  -1.520000e+01  1.099993e-01  1.123600e+01
      vertex  -1.213800e+01  1.301997e+00  1.069200e+01
    endloop
  endfacet
  facet normal -6.697873e-05  9.999845e-01  5.562421e-03
    outer loop
      vertex  -1.549400e+01  4.803996e+00  6.040001e+00
      vertex  -1.836800e+01  4.807997e+00  5.286003e+00
      vertex  -1.853400e+01  4.807997e+00  5.284004e+00
    endloop
  endfacet
  facet normal -4.156298e-04  9.999868e-01  5.125483e-03
    outer loop
      vertex  -1.596001e+01  4.805995e+00  5.872002e+00
      vertex  -1.829401e+01  4.807997e+00  5.292004e+00
      vertex  -1.836800e+01  4.807997e+00  5.286003e+00
    endloop
  endfacet
  facet normal  2.696963e-02  9.938471e-01 -1.074276e-01
    outer loop
      vertex  -1.548200e+01  4.805995e+00  5.992004e+00
      vertex  -1.596001e+01  4.805995e+00  5.872002e+00
      vertex  -1.836800e+01  4.807997e+00  5.286003e+00
    endloop
  endfacet
  facet normal -8.939546e-03  9.991844e-01  3.937759e-02
    outer loop
      vertex  -1.549400e+01  4.803996e+00  6.040001e+00
      vertex  -1.548200e+01  4.805995e+00  5.992004e+00
      vertex  -1.836800e+01  4.807997e+00  5.286003e+00
    endloop
  endfacet
  facet normal  5.326373e-02  9.635707e-01  2.620963e-01
    outer loop
      vertex  -1.299200e+01  4.357997e+00  7.926003e+00
      vertex  -1.185001e+01  4.555995e+00  6.966003e+00
      vertex  -1.339800e+01  4.615996e+00  7.060001e+00
    endloop
  endfacet
  facet normal  3.976297e-02  9.150664e-01  4.013382e-01
    outer loop
      vertex  -1.271001e+01  3.943995e+00  8.842003e+00
      vertex  -1.299200e+01  4.357997e+00  7.926003e+00
      vertex  -1.542001e+01  4.359995e+00  8.162003e+00
    endloop
  endfacet
  facet normal  1.327395e-01  6.171732e-01  7.755498e-01
    outer loop
      vertex  -1.034800e+01  3.323997e+00  9.258003e+00
      vertex  -9.838005e+00  2.869998e+00  9.532001e+00
      vertex  -1.005801e+01  3.331996e+00  9.202003e+00
    endloop
  endfacet
  facet normal -1.803704e-02  9.995460e-01  2.413431e-02
    outer loop
      vertex  -1.556800e+01  4.795996e+00  6.316002e+00
      vertex  -1.549400e+01  4.803996e+00  6.040001e+00
      vertex  -1.853400e+01  4.755995e+00  5.756004e+00
    endloop
  endfacet
  facet normal  5.270236e-03  3.687935e-01  9.294965e-01
    outer loop
      vertex  -1.853400e+01  1.229994e+00  1.111800e+01
      vertex  -1.520800e+01  1.247996e+00  1.109200e+01
      vertex  -1.523600e+01  2.311995e+00  1.067000e+01
    endloop
  endfacet
  facet normal  1.912865e-01  1.010246e-01  9.763215e-01
    outer loop
      vertex  -1.213800e+01  1.301997e+00  1.069200e+01
      vertex  -9.620003e+00  1.099998e-01  1.032200e+01
      vertex  -9.730003e+00  1.361995e+00  1.021400e+01
    endloop
  endfacet
  facet normal  1.965263e-01  1.128182e-01  9.739864e-01
    outer loop
      vertex  -1.213800e+01  1.301997e+00  1.069200e+01
      vertex  -1.209801e+01  1.099996e-01  1.082200e+01
      vertex  -9.620003e+00  1.099998e-01  1.032200e+01
    endloop
  endfacet
  facet normal -1.884381e-02  9.982190e-01  5.660336e-02
    outer loop
      vertex  -1.526400e+01  4.807997e+00  6.046001e+00
      vertex  -1.527000e+01  4.807997e+00  6.044003e+00
      vertex  -1.549400e+01  4.803996e+00  6.040001e+00
    endloop
  endfacet
  facet normal -2.038187e-02  9.926526e-01  1.192703e-01
    outer loop
      vertex  -1.380000e+01  4.789996e+00  6.446003e+00
      vertex  -1.526400e+01  4.807997e+00  6.046001e+00
      vertex  -1.549400e+01  4.803996e+00  6.040001e+00
    endloop
  endfacet
  facet normal -1.814425e-01  6.953699e-01  6.953699e-01
    outer loop
      vertex  -1.526400e+01  4.809996e+00  6.044003e+00
      vertex  -1.526400e+01  4.807997e+00  6.046001e+00
      vertex  -1.380000e+01  4.789996e+00  6.446003e+00
    endloop
  endfacet
  facet normal -9.324742e-03  9.966664e-01  8.105033e-02
    outer loop
      vertex  -1.375800e+01  4.793997e+00  6.414001e+00
      vertex  -1.389201e+01  4.795996e+00  6.374004e+00
      vertex  -1.526400e+01  4.809996e+00  6.044003e+00
    endloop
  endfacet
  facet normal -1.511268e-02  9.944088e-01  1.045112e-01
    outer loop
      vertex  -1.380000e+01  4.789996e+00  6.446003e+00
      vertex  -1.375800e+01  4.793997e+00  6.414001e+00
      vertex  -1.526400e+01  4.809996e+00  6.044003e+00
    endloop
  endfacet
  facet normal  5.698649e-01  2.580329e-01  7.801751e-01
    outer loop
      vertex  -1.380000e+01  4.789996e+00  6.446003e+00
      vertex  -1.374800e+01  4.783995e+00  6.410004e+00
      vertex  -1.375800e+01  4.793997e+00  6.414001e+00
    endloop
  endfacet
  facet normal -2.104778e-02  7.912967e-01  6.110699e-01
    outer loop
      vertex  -1.853400e+01  3.201994e+00  9.970001e+00
      vertex  -1.535001e+01  3.939997e+00  9.124004e+00
      vertex  -1.853400e+01  3.913996e+00  9.048004e+00
    endloop
  endfacet
  facet normal  8.919924e-03  1.309983e-01  9.913424e-01
    outer loop
      vertex  -1.853400e+01  1.099990e-01  1.126600e+01
      vertex  -1.520000e+01  1.099993e-01  1.123600e+01
      vertex  -1.853400e+01  1.229994e+00  1.111800e+01
    endloop
  endfacet
  facet normal -7.452345e-02  3.781927e-01  9.227224e-01
    outer loop
      vertex  -2.177801e+01  2.283995e+00  1.042400e+01
      vertex  -1.853400e+01  1.229994e+00  1.111800e+01
      vertex  -1.853400e+01  2.283995e+00  1.068600e+01
    endloop
  endfacet
  facet normal -6.467609e-02  4.022579e-01  9.132391e-01
    outer loop
      vertex  -1.853400e+01  1.229994e+00  1.111800e+01
      vertex  -2.177801e+01  2.283995e+00  1.042400e+01
      vertex  -2.177600e+01  2.247995e+00  1.044000e+01
    endloop
  endfacet
  facet normal -1.906279e-02  9.674872e-01  2.522004e-01
    outer loop
      vertex  -1.542001e+01  4.359995e+00  8.162003e+00
      vertex  -1.551200e+01  4.609995e+00  7.196003e+00
      vertex  -1.853400e+01  4.343997e+00  7.988003e+00
    endloop
  endfacet
  facet normal -2.591641e-02  9.936516e-01  1.094742e-01
    outer loop
      vertex  -1.549400e+01  4.803996e+00  6.040001e+00
      vertex  -1.853400e+01  4.807997e+00  5.284004e+00
      vertex  -1.853400e+01  4.755995e+00  5.756004e+00
    endloop
  endfacet
  facet normal  1.521868e-02  9.601920e-01  2.789260e-01
    outer loop
      vertex  -1.299200e+01  4.357997e+00  7.926003e+00
      vertex  -1.339800e+01  4.615996e+00  7.060001e+00
      vertex  -1.551200e+01  4.609995e+00  7.196003e+00
    endloop
  endfacet
  facet normal  1.314600e-01  1.118355e-01  9.849929e-01
    outer loop
      vertex  -1.520000e+01  1.099993e-01  1.123600e+01
      vertex  -1.209801e+01  1.099996e-01  1.082200e+01
      vertex  -1.213800e+01  1.301997e+00  1.069200e+01
    endloop
  endfacet
  facet normal -1.506423e-03  9.991562e-01  4.104448e-02
    outer loop
      vertex  -2.254000e+01  4.751997e+00  4.220001e+00
      vertex  -2.252400e+01  4.747995e+00  4.318001e+00
      vertex  -2.188800e+01  4.745996e+00  4.390003e+00
    endloop
  endfacet
  facet normal -2.661987e-03  9.986829e-01  5.123853e-02
    outer loop
      vertex  -2.246201e+01  4.721994e+00  4.828003e+00
      vertex  -2.188800e+01  4.745996e+00  4.390003e+00
      vertex  -2.252400e+01  4.747995e+00  4.318001e+00
    endloop
  endfacet
  facet normal -3.833764e-02  9.992546e-01  4.516379e-03
    outer loop
      vertex  -2.188800e+01  4.745996e+00  4.390003e+00
      vertex  -2.246201e+01  4.721994e+00  4.828003e+00
      vertex  -2.245800e+01  4.721994e+00  4.862003e+00
    endloop
  endfacet
  facet normal -4.207164e-02  9.991146e-01  0.000000e+00
    outer loop
      vertex  -2.188800e+01  4.745996e+00  4.390003e+00
      vertex  -2.245800e+01  4.721994e+00  4.862003e+00
      vertex  -2.245800e+01  4.721994e+00  4.872002e+00
    endloop
  endfacet
  facet normal -2.981674e-02  9.994501e-01  1.450907e-02
    outer loop
      vertex  -2.188800e+01  4.745996e+00  4.390003e+00
      vertex  -2.245800e+01  4.721994e+00  4.872002e+00
      vertex  -2.057800e+01  4.779997e+00  4.740002e+00
    endloop
  endfacet
  facet normal -2.230157e-02  9.997444e-01  3.714565e-03
    outer loop
      vertex  -2.245800e+01  4.721994e+00  4.872002e+00
      vertex  -2.245400e+01  4.721994e+00  4.896004e+00
      vertex  -1.853400e+01  4.807997e+00  5.284004e+00
    endloop
  endfacet
  facet normal -4.163851e-02  9.781116e-01  2.038722e-01
    outer loop
      vertex  -2.245400e+01  4.721994e+00  4.896004e+00
      vertex  -2.245200e+01  4.719995e+00  4.906002e+00
      vertex  -1.853400e+01  4.807997e+00  5.284004e+00
    endloop
  endfacet
  facet normal -3.287346e-02  9.934484e-01  1.094518e-01
    outer loop
      vertex  -1.853400e+01  4.755995e+00  5.756004e+00
      vertex  -1.853400e+01  4.807997e+00  5.284004e+00
      vertex  -2.245200e+01  4.719995e+00  4.906002e+00
    endloop
  endfacet
  facet normal -6.567537e-02  8.075011e-01  5.861986e-01
    outer loop
      vertex  -1.853400e+01  3.913996e+00  9.048004e+00
      vertex  -2.184801e+01  3.205996e+00  9.652004e+00
      vertex  -2.184400e+01  3.185995e+00  9.680004e+00
    endloop
  endfacet
  facet normal -5.728065e-02  7.901726e-01  6.102018e-01
    outer loop
      vertex  -1.853400e+01  3.913996e+00  9.048004e+00
      vertex  -2.184400e+01  3.185995e+00  9.680004e+00
      vertex  -1.853400e+01  3.201994e+00  9.970001e+00
    endloop
  endfacet
  facet normal -4.833505e-03  9.999883e-01  0.000000e+00
    outer loop
      vertex  -2.184400e+01  3.185995e+00  9.680004e+00
      vertex  -2.184400e+01  3.185995e+00  9.682003e+00
      vertex  -1.853400e+01  3.201994e+00  9.970001e+00
    endloop
  endfacet
  facet normal  1.137073e-01  3.688717e-01  9.224990e-01
    outer loop
      vertex  -1.523600e+01  2.311995e+00  1.067000e+01
      vertex  -1.520800e+01  1.247996e+00  1.109200e+01
      vertex  -1.213800e+01  1.301997e+00  1.069200e+01
    endloop
  endfacet
  facet normal -7.001052e-02  4.457759e-01  8.924026e-01
    outer loop
      vertex  -2.170800e+01  1.235994e+00  1.086600e+01
      vertex  -1.853400e+01  1.229994e+00  1.111800e+01
      vertex  -2.170800e+01  1.239996e+00  1.086400e+01
    endloop
  endfacet
  facet normal -7.249290e-02  3.828878e-01  9.209461e-01
    outer loop
      vertex  -1.853400e+01  1.229994e+00  1.111800e+01
      vertex  -2.176200e+01  2.061995e+00  1.051800e+01
      vertex  -2.170800e+01  1.239996e+00  1.086400e+01
    endloop
  endfacet
  facet normal -7.311540e-02  3.810014e-01  9.216790e-01
    outer loop
      vertex  -1.853400e+01  1.229994e+00  1.111800e+01
      vertex  -2.177600e+01  2.247995e+00  1.044000e+01
      vertex  -2.176200e+01  2.061995e+00  1.051800e+01
    endloop
  endfacet
  facet normal -7.043997e-02  6.316553e-01  7.720426e-01
    outer loop
      vertex  -1.853400e+01  3.201994e+00  9.970001e+00
      vertex  -2.182800e+01  2.995996e+00  9.838001e+00
      vertex  -2.178001e+01  2.311995e+00  1.040200e+01
    endloop
  endfacet
  facet normal -7.037422e-02  6.294447e-01  7.738520e-01
    outer loop
      vertex  -1.853400e+01  3.201994e+00  9.970001e+00
      vertex  -2.184400e+01  3.185995e+00  9.682003e+00
      vertex  -2.182800e+01  2.995996e+00  9.838001e+00
    endloop
  endfacet
  facet normal -6.759668e-02  8.079604e-01  5.853466e-01
    outer loop
      vertex  -2.195800e+01  3.883997e+00  8.694004e+00
      vertex  -2.193000e+01  3.739996e+00  8.896004e+00
      vertex  -1.853400e+01  3.913996e+00  9.048004e+00
    endloop
  endfacet
  facet normal -6.755867e-02  8.114545e-01  5.804975e-01
    outer loop
      vertex  -2.184801e+01  3.205996e+00  9.652004e+00
      vertex  -1.853400e+01  3.913996e+00  9.048004e+00
      vertex  -2.193000e+01  3.739996e+00  8.896004e+00
    endloop
  endfacet
  facet normal  7.075675e-03  1.255838e-01  9.920578e-01
    outer loop
      vertex  -1.853400e+01  1.229994e+00  1.111800e+01
      vertex  -1.520000e+01  1.099993e-01  1.123600e+01
      vertex  -1.520800e+01  1.247996e+00  1.109200e+01
    endloop
  endfacet
  facet normal  1.249971e-01  6.150265e-01  7.785358e-01
    outer loop
      vertex  -9.962006e+00  2.479995e+00  9.860004e+00
      vertex  -9.768005e+00  2.713996e+00  9.644001e+00
      vertex  -9.838005e+00  2.869998e+00  9.532001e+00
    endloop
  endfacet
  facet normal  1.288360e-01  6.128500e-01  7.796257e-01
    outer loop
      vertex  -9.962006e+00  2.479995e+00  9.860004e+00
      vertex  -9.656006e+00  2.491996e+00  9.800003e+00
      vertex  -9.768005e+00  2.713996e+00  9.644001e+00
    endloop
  endfacet
  facet normal  1.283209e-01  6.141182e-01  7.787123e-01
    outer loop
      vertex  -9.838005e+00  2.869998e+00  9.532001e+00
      vertex  -1.034800e+01  3.323997e+00  9.258003e+00
      vertex  -9.962006e+00  2.479995e+00  9.860004e+00
    endloop
  endfacet
  facet normal -1.042553e-03  9.962444e-01  8.657966e-02
    outer loop
      vertex  -1.853400e+01  4.811995e+00  5.238003e+00
      vertex  -1.853400e+01  4.807997e+00  5.284004e+00
      vertex  -1.836800e+01  4.807997e+00  5.286003e+00
    endloop
  endfacet
  facet normal  6.763193e-02  9.576712e-01  2.798064e-01
    outer loop
      vertex  -1.143800e+01  4.351996e+00  7.596004e+00
      vertex  -1.117800e+01  4.349998e+00  7.540001e+00
      vertex  -1.125401e+01  4.383998e+00  7.442001e+00
    endloop
  endfacet
  facet normal  6.211838e-02  9.598171e-01  2.736648e-01
    outer loop
      vertex  -1.143800e+01  4.351996e+00  7.596004e+00
      vertex  -1.125401e+01  4.383998e+00  7.442001e+00
      vertex  -1.146001e+01  4.487998e+00  7.124004e+00
    endloop
  endfacet
  facet normal -7.822372e-02  1.306022e-01  9.883441e-01
    outer loop
      vertex  -2.170800e+01  1.235994e+00  1.086600e+01
      vertex  -1.853400e+01  1.099990e-01  1.126600e+01
      vertex  -1.853400e+01  1.229994e+00  1.111800e+01
    endloop
  endfacet
  facet normal -7.437666e-02  1.410420e-01  9.872059e-01
    outer loop
      vertex  -1.853400e+01  1.099990e-01  1.126600e+01
      vertex  -2.170800e+01  1.235994e+00  1.086600e+01
      vertex  -2.170800e+01  1.193995e+00  1.087200e+01
    endloop
  endfacet
  facet normal  5.210387e-02  9.543012e-01  2.942693e-01
    outer loop
      vertex  -1.181001e+01  4.567996e+00  6.920002e+00
      vertex  -1.185001e+01  4.555995e+00  6.966003e+00
      vertex  -1.154601e+01  4.531997e+00  6.990002e+00
    endloop
  endfacet
  facet normal  5.352827e-02  9.584091e-01  2.803333e-01
    outer loop
      vertex  -1.146001e+01  4.487998e+00  7.124004e+00
      vertex  -1.154601e+01  4.531997e+00  6.990002e+00
      vertex  -1.185001e+01  4.555995e+00  6.966003e+00
    endloop
  endfacet
  facet normal  5.638179e-02  9.600738e-01  2.740062e-01
    outer loop
      vertex  -1.143800e+01  4.351996e+00  7.596004e+00
      vertex  -1.146001e+01  4.487998e+00  7.124004e+00
      vertex  -1.185001e+01  4.555995e+00  6.966003e+00
    endloop
  endfacet
  facet normal  6.467985e-02  7.845888e-01  6.166336e-01
    outer loop
      vertex  -1.245400e+01  3.279998e+00  9.660004e+00
      vertex  -1.271001e+01  3.943995e+00  8.842003e+00
      vertex  -1.535001e+01  3.939997e+00  9.124004e+00
    endloop
  endfacet
  facet normal  1.785568e-01  3.331537e-01  9.258111e-01
    outer loop
      vertex  -9.516006e+00  1.841994e+00  1.000000e+01
      vertex  -9.730003e+00  1.361995e+00  1.021400e+01
      vertex  -9.416000e+00  1.365996e+00  1.015200e+01
    endloop
  endfacet
  facet normal  1.830517e-01  3.310887e-01  9.256740e-01
    outer loop
      vertex  -9.730003e+00  1.361995e+00  1.021400e+01
      vertex  -9.516006e+00  1.841994e+00  1.000000e+01
      vertex  -9.962006e+00  2.479995e+00  9.860004e+00
    endloop
  endfacet
  facet normal  1.048456e-02  9.784653e-01  2.061454e-01
    outer loop
      vertex  -1.551200e+01  4.609995e+00  7.196003e+00
      vertex  -1.339800e+01  4.615996e+00  7.060001e+00
      vertex  -1.556800e+01  4.795996e+00  6.316002e+00
    endloop
  endfacet
  facet normal  1.269924e-03  3.792469e-01  9.252946e-01
    outer loop
      vertex  -1.853400e+01  1.229994e+00  1.111800e+01
      vertex  -1.523600e+01  2.311995e+00  1.067000e+01
      vertex  -1.853400e+01  2.283995e+00  1.068600e+01
    endloop
  endfacet
  facet normal  8.257487e-02  5.960352e-01  7.987010e-01
    outer loop
      vertex  -1.523600e+01  2.311995e+00  1.067000e+01
      vertex  -1.225401e+01  2.391997e+00  1.030200e+01
      vertex  -1.245400e+01  3.279998e+00  9.660004e+00
    endloop
  endfacet
  facet normal -2.088102e-02  9.893386e-01  1.441292e-01
    outer loop
      vertex  -1.551200e+01  4.609995e+00  7.196003e+00
      vertex  -1.853400e+01  4.755995e+00  5.756004e+00
      vertex  -1.853400e+01  4.593997e+00  6.868004e+00
    endloop
  endfacet
  facet normal  7.909130e-02  9.173082e-01  3.902439e-01
    outer loop
      vertex  -1.271001e+01  3.943995e+00  8.842003e+00
      vertex  -1.087400e+01  3.937995e+00  8.484001e+00
      vertex  -1.299200e+01  4.357997e+00  7.926003e+00
    endloop
  endfacet
  facet normal  1.237871e-03  9.995698e-01  2.930272e-02
    outer loop
      vertex  -1.380000e+01  4.789996e+00  6.446003e+00
      vertex  -1.549400e+01  4.803996e+00  6.040001e+00
      vertex  -1.556800e+01  4.795996e+00  6.316002e+00
    endloop
  endfacet
  facet normal  8.280063e-02  5.956566e-01  7.989600e-01
    outer loop
      vertex  -1.528800e+01  3.233996e+00  9.988003e+00
      vertex  -1.523600e+01  2.311995e+00  1.067000e+01
      vertex  -1.245400e+01  3.279998e+00  9.660004e+00
    endloop
  endfacet
  facet normal -8.056238e-02  1.227079e-01  9.891676e-01
    outer loop
      vertex  -1.853400e+01  1.099990e-01  1.126600e+01
      vertex  -2.170800e+01  1.169996e+00  1.087600e+01
      vertex  -1.981400e+01  1.079924e-01  1.116200e+01
    endloop
  endfacet
  facet normal -6.612664e-02  1.641161e-01  9.842222e-01
    outer loop
      vertex  -1.853400e+01  1.099990e-01  1.126600e+01
      vertex  -2.170800e+01  1.193995e+00  1.087200e+01
      vertex  -2.170800e+01  1.169996e+00  1.087600e+01
    endloop
  endfacet
  facet normal -8.093040e-02  0.000000e+00  9.967198e-01
    outer loop
      vertex  -2.168600e+01  1.079922e-01  1.101000e+01
      vertex  -1.981400e+01  1.079924e-01  1.116200e+01
      vertex  -2.168600e+01  1.099987e-01  1.101000e+01
    endloop
  endfacet
  facet normal -8.016202e-02  1.250463e-01  9.889072e-01
    outer loop
      vertex  -1.981400e+01  1.079924e-01  1.116200e+01
      vertex  -2.170400e+01  9.999981e-01  1.089600e+01
      vertex  -2.168600e+01  1.099987e-01  1.101000e+01
    endloop
  endfacet
  facet normal -8.528773e-02  1.144409e-01  9.897622e-01
    outer loop
      vertex  -1.981400e+01  1.079924e-01  1.116200e+01
      vertex  -2.170800e+01  1.169996e+00  1.087600e+01
      vertex  -2.170400e+01  9.999981e-01  1.089600e+01
    endloop
  endfacet
  facet normal  2.492596e-02  9.683774e-01  2.482416e-01
    outer loop
      vertex  -1.542001e+01  4.359995e+00  8.162003e+00
      vertex  -1.299200e+01  4.357997e+00  7.926003e+00
      vertex  -1.551200e+01  4.609995e+00  7.196003e+00
    endloop
  endfacet
  facet normal  9.962533e-02  7.875708e-01  6.081176e-01
    outer loop
      vertex  -1.245400e+01  3.279998e+00  9.660004e+00
      vertex  -1.034800e+01  3.323997e+00  9.258003e+00
      vertex  -1.271001e+01  3.943995e+00  8.842003e+00
    endloop
  endfacet
  facet normal  8.526583e-02  9.279841e-01  3.627331e-01
    outer loop
      vertex  -1.143800e+01  4.351996e+00  7.596004e+00
      vertex  -1.113800e+01  4.325995e+00  7.592003e+00
      vertex  -1.117800e+01  4.349998e+00  7.540001e+00
    endloop
  endfacet
  facet normal  8.508868e-02  9.246312e-01  3.712374e-01
    outer loop
      vertex  -1.113800e+01  4.325995e+00  7.592003e+00
      vertex  -1.143800e+01  4.351996e+00  7.596004e+00
      vertex  -1.088800e+01  4.143996e+00  7.988003e+00
    endloop
  endfacet
  facet normal -3.540457e-02  9.800229e-01  1.957082e-01
    outer loop
      vertex  -2.226000e+01  4.587996e+00  6.224003e+00
      vertex  -2.221800e+01  4.535994e+00  6.492004e+00
      vertex  -1.853400e+01  4.593997e+00  6.868004e+00
    endloop
  endfacet
  facet normal -3.566647e-02  9.794805e-01  1.983579e-01
    outer loop
      vertex  -2.209400e+01  4.337996e+00  7.492004e+00
      vertex  -1.853400e+01  4.593997e+00  6.868004e+00
      vertex  -2.221800e+01  4.535994e+00  6.492004e+00
    endloop
  endfacet
  facet normal  1.058390e-01  3.449575e-01  9.326320e-01
    outer loop
      vertex  -1.523600e+01  2.311995e+00  1.067000e+01
      vertex  -1.213800e+01  1.301997e+00  1.069200e+01
      vertex  -1.225401e+01  2.391997e+00  1.030200e+01
    endloop
  endfacet
  facet normal -1.885190e-02  9.991412e-01  3.689731e-02
    outer loop
      vertex  -1.548200e+01  4.805995e+00  5.992004e+00
      vertex  -1.549400e+01  4.803996e+00  6.040001e+00
      vertex  -1.527800e+01  4.807997e+00  6.042004e+00
    endloop
  endfacet
  facet normal -1.917899e-02  9.968685e-01  7.671595e-02
    outer loop
      vertex  -1.527000e+01  4.807997e+00  6.044003e+00
      vertex  -1.527800e+01  4.807997e+00  6.042004e+00
      vertex  -1.549400e+01  4.803996e+00  6.040001e+00
    endloop
  endfacet
  facet normal -2.880014e-02  9.755766e-01  2.177629e-01
    outer loop
      vertex  -1.853400e+01  4.343997e+00  7.988003e+00
      vertex  -1.551200e+01  4.609995e+00  7.196003e+00
      vertex  -1.853400e+01  4.593997e+00  6.868004e+00
    endloop
  endfacet
  facet normal -1.114142e-02  7.739154e-01  6.331910e-01
    outer loop
      vertex  -1.528800e+01  3.233996e+00  9.988003e+00
      vertex  -1.535001e+01  3.939997e+00  9.124004e+00
      vertex  -1.853400e+01  3.201994e+00  9.970001e+00
    endloop
  endfacet
  facet normal  1.698849e-01  3.230547e-01  9.310074e-01
    outer loop
      vertex  -9.962006e+00  2.479995e+00  9.860004e+00
      vertex  -9.516006e+00  1.841994e+00  1.000000e+01
      vertex  -9.656006e+00  2.491996e+00  9.800003e+00
    endloop
  endfacet
  facet normal  8.361058e-02  9.224485e-01  3.769591e-01
    outer loop
      vertex  -1.087400e+01  3.937995e+00  8.484001e+00
      vertex  -1.143800e+01  4.351996e+00  7.596004e+00
      vertex  -1.299200e+01  4.357997e+00  7.926003e+00
    endloop
  endfacet
  facet normal  6.021871e-02  7.750632e-01  6.290078e-01
    outer loop
      vertex  -1.528800e+01  3.233996e+00  9.988003e+00
      vertex  -1.245400e+01  3.279998e+00  9.660004e+00
      vertex  -1.535001e+01  3.939997e+00  9.124004e+00
    endloop
  endfacet
  facet normal -5.992266e-02  9.627146e-01  2.637992e-01
    outer loop
      vertex  -2.188800e+01  4.745996e+00  4.390003e+00
      vertex  -2.226801e+01  4.763994e+00  4.238003e+00
      vertex  -2.254000e+01  4.751997e+00  4.220001e+00
    endloop
  endfacet
  facet normal -6.312992e-02  9.436067e-01  3.249940e-01
    outer loop
      vertex  -2.254201e+01  4.755995e+00  4.208004e+00
      vertex  -2.254000e+01  4.751997e+00  4.220001e+00
      vertex  -2.226801e+01  4.763994e+00  4.238003e+00
    endloop
  endfacet
  facet normal -5.386608e-02  9.669629e-01  2.491606e-01
    outer loop
      vertex  -2.226801e+01  4.763994e+00  4.238003e+00
      vertex  -2.188800e+01  4.745996e+00  4.390003e+00
      vertex  -2.161600e+01  4.755995e+00  4.410004e+00
    endloop
  endfacet
  facet normal -4.060462e-02  9.977461e-01  5.342313e-02
    outer loop
      vertex  -2.040601e+01  4.787996e+00  4.732002e+00
      vertex  -2.161600e+01  4.755995e+00  4.410004e+00
      vertex  -2.188800e+01  4.745996e+00  4.390003e+00
    endloop
  endfacet
  facet normal -4.332776e-02  9.969230e-01  6.532452e-02
    outer loop
      vertex  -2.057800e+01  4.779997e+00  4.740002e+00
      vertex  -2.040601e+01  4.787996e+00  4.732002e+00
      vertex  -2.188800e+01  4.745996e+00  4.390003e+00
    endloop
  endfacet
  facet normal -4.141668e-02  9.937895e-01  1.032815e-01
    outer loop
      vertex  -2.040601e+01  4.787996e+00  4.732002e+00
      vertex  -2.057800e+01  4.779997e+00  4.740002e+00
      vertex  -1.927400e+01  4.803995e+00  5.032001e+00
    endloop
  endfacet
  facet normal -4.909175e-02  9.892244e-01  1.379317e-01
    outer loop
      vertex  -1.853400e+01  4.811995e+00  5.238003e+00
      vertex  -1.927400e+01  4.803995e+00  5.032001e+00
      vertex  -2.057800e+01  4.779997e+00  4.740002e+00
    endloop
  endfacet
  facet normal -3.666556e-02  9.955751e-01  8.652149e-02
    outer loop
      vertex  -1.853400e+01  4.807997e+00  5.284004e+00
      vertex  -1.853400e+01  4.811995e+00  5.238003e+00
      vertex  -2.057800e+01  4.779997e+00  4.740002e+00
    endloop
  endfacet
  facet normal  1.096889e-01  8.235150e-01  5.565891e-01
    outer loop
      vertex  -1.087400e+01  3.937995e+00  8.484001e+00
      vertex  -1.056800e+01  3.903995e+00  8.474003e+00
      vertex  -1.060001e+01  3.937995e+00  8.430004e+00
    endloop
  endfacet
  facet normal  1.095404e-01  8.211411e-01  5.601144e-01
    outer loop
      vertex  -1.056800e+01  3.903995e+00  8.474003e+00
      vertex  -1.087400e+01  3.937995e+00  8.484001e+00
      vertex  -1.031600e+01  3.617995e+00  8.844002e+00
    endloop
  endfacet
  facet normal -2.650115e-02  9.892068e-01  1.441100e-01
    outer loop
      vertex  -1.853400e+01  4.593997e+00  6.868004e+00
      vertex  -1.853400e+01  4.755995e+00  5.756004e+00
      vertex  -2.226000e+01  4.587996e+00  6.224003e+00
    endloop
  endfacet
  facet normal  4.104747e-02  9.167835e-01  3.972696e-01
    outer loop
      vertex  -1.535001e+01  3.939997e+00  9.124004e+00
      vertex  -1.271001e+01  3.943995e+00  8.842003e+00
      vertex  -1.542001e+01  4.359995e+00  8.162003e+00
    endloop
  endfacet
  facet normal -2.932802e-02  9.995689e-01  1.332283e-03
    outer loop
      vertex  -2.254401e+01  4.755995e+00  4.164001e+00
      vertex  -2.254201e+01  4.755995e+00  4.208004e+00
      vertex  -2.226801e+01  4.763994e+00  4.238003e+00
    endloop
  endfacet
  facet normal  8.922599e-02  8.090823e-01  5.808827e-01
    outer loop
      vertex  -1.019000e+01  3.471995e+00  9.028004e+00
      vertex  -1.031600e+01  3.617995e+00  8.844002e+00
      vertex  -1.087400e+01  3.937995e+00  8.484001e+00
    endloop
  endfacet
  facet normal  8.412197e-02  8.065585e-01  5.851383e-01
    outer loop
      vertex  -1.005801e+01  3.331996e+00  9.202003e+00
      vertex  -1.019000e+01  3.471995e+00  9.028004e+00
      vertex  -1.087400e+01  3.937995e+00  8.484001e+00
    endloop
  endfacet
  facet normal  8.983437e-02  8.090879e-01  5.807810e-01
    outer loop
      vertex  -1.034800e+01  3.323997e+00  9.258003e+00
      vertex  -1.005801e+01  3.331996e+00  9.202003e+00
      vertex  -1.087400e+01  3.937995e+00  8.484001e+00
    endloop
  endfacet
  facet normal -1.757236e-02  9.588876e-01  2.832415e-01
    outer loop
      vertex  -1.339800e+01  4.615996e+00  7.060001e+00
      vertex  -1.380000e+01  4.789996e+00  6.446003e+00
      vertex  -1.556800e+01  4.795996e+00  6.316002e+00
    endloop
  endfacet
  facet normal  2.562960e-02  8.282182e-01  5.598194e-01
    outer loop
      vertex  -1.364800e+01  4.787997e+00  6.442001e+00
      vertex  -1.380000e+01  4.789996e+00  6.446003e+00
      vertex  -1.356600e+01  4.775996e+00  6.456001e+00
    endloop
  endfacet
  facet normal -1.194959e-01  7.020401e-01  7.020401e-01
    outer loop
      vertex  -1.354200e+01  4.775996e+00  6.458004e+00
      vertex  -1.354200e+01  4.773997e+00  6.460003e+00
      vertex  -1.185001e+01  4.555995e+00  6.966003e+00
    endloop
  endfacet
  facet normal  5.077708e-02  9.813086e-01  1.856209e-01
    outer loop
      vertex  -1.354200e+01  4.773997e+00  6.460003e+00
      vertex  -1.356600e+01  4.775996e+00  6.456001e+00
      vertex  -1.380000e+01  4.789996e+00  6.446003e+00
    endloop
  endfacet
  facet normal  4.547978e-02  9.636922e-01  2.631136e-01
    outer loop
      vertex  -1.185001e+01  4.555995e+00  6.966003e+00
      vertex  -1.354200e+01  4.773997e+00  6.460003e+00
      vertex  -1.380000e+01  4.789996e+00  6.446003e+00
    endloop
  endfacet
  facet normal  3.879964e-02  9.581282e-01  2.836988e-01
    outer loop
      vertex  -1.185001e+01  4.555995e+00  6.966003e+00
      vertex  -1.181001e+01  4.567996e+00  6.920002e+00
      vertex  -1.202800e+01  4.593997e+00  6.862003e+00
    endloop
  endfacet
  facet normal  4.006392e-02  9.586574e-01  2.817284e-01
    outer loop
      vertex  -1.185001e+01  4.555995e+00  6.966003e+00
      vertex  -1.202800e+01  4.593997e+00  6.862003e+00
      vertex  -1.354200e+01  4.775996e+00  6.458004e+00
    endloop
  endfacet
  facet normal  1.135969e-01  8.145036e-01  5.689285e-01
    outer loop
      vertex  -1.034800e+01  3.323997e+00  9.258003e+00
      vertex  -1.087400e+01  3.937995e+00  8.484001e+00
      vertex  -1.271001e+01  3.943995e+00  8.842003e+00
    endloop
  endfacet
  facet normal  9.002987e-03  9.883791e-01 -1.517422e-01
    outer loop
      vertex  -1.380000e+01  4.789996e+00  6.446003e+00
      vertex  -1.364800e+01  4.787997e+00  6.442001e+00
      vertex  -1.374800e+01  4.783995e+00  6.410004e+00
    endloop
  endfacet
  facet normal  5.217296e-02  9.692430e-01  2.405121e-01
    outer loop
      vertex  -1.339800e+01  4.615996e+00  7.060001e+00
      vertex  -1.185001e+01  4.555995e+00  6.966003e+00
      vertex  -1.380000e+01  4.789996e+00  6.446003e+00
    endloop
  endfacet
  facet normal  7.472345e-02  9.204804e-01  3.835781e-01
    outer loop
      vertex  -1.072800e+01  4.025996e+00  8.240002e+00
      vertex  -1.088800e+01  4.143996e+00  7.988003e+00
      vertex  -1.143800e+01  4.351996e+00  7.596004e+00
    endloop
  endfacet
  facet normal  9.296177e-02  9.258795e-01  3.662038e-01
    outer loop
      vertex  -1.060001e+01  3.937995e+00  8.430004e+00
      vertex  -1.072800e+01  4.025996e+00  8.240002e+00
      vertex  -1.143800e+01  4.351996e+00  7.596004e+00
    endloop
  endfacet
  facet normal  7.522500e-02  9.212157e-01  3.817104e-01
    outer loop
      vertex  -1.087400e+01  3.937995e+00  8.484001e+00
      vertex  -1.060001e+01  3.937995e+00  8.430004e+00
      vertex  -1.143800e+01  4.351996e+00  7.596004e+00
    endloop
  endfacet
  facet normal -2.703375e-02 -9.981768e-01  5.396647e-02
    outer loop
      vertex  -1.853400e+01 -4.590005e+00  5.284004e+00
      vertex  -2.245800e+01 -4.506006e+00  4.872002e+00
      vertex  -2.058000e+01 -4.564005e+00  4.740002e+00
    endloop
  endfacet
  facet normal -2.267643e-01  6.477068e-01  7.273608e-01
    outer loop
      vertex  -1.526400e+01 -4.692003e+00  6.046001e+00
      vertex  -1.375800e+01 -4.578004e+00  6.414001e+00
      vertex  -1.389201e+01 -4.580003e+00  6.374004e+00
    endloop
  endfacet
  facet normal -1.391205e-01  9.514391e-01  2.746074e-01
    outer loop
      vertex  -1.526400e+01 -4.692003e+00  6.046001e+00
      vertex  -1.364800e+01 -4.570001e+00  6.442001e+00
      vertex  -1.375800e+01 -4.578004e+00  6.414001e+00
    endloop
  endfacet
  facet normal -1.711909e-02 -9.265213e-01  3.758526e-01
    outer loop
      vertex  -1.535001e+01 -3.724008e+00  9.124004e+00
      vertex  -1.853400e+01 -3.696008e+00  9.048004e+00
      vertex  -1.853400e+01 -4.126009e+00  7.988003e+00
    endloop
  endfacet
  facet normal -5.242204e-02 -9.767889e-01  2.076908e-01
    outer loop
      vertex  -1.551200e+01 -4.396005e+00  7.196003e+00
      vertex  -1.853400e+01 -4.540002e+00  5.756004e+00
      vertex  -1.557001e+01 -4.580003e+00  6.316002e+00
    endloop
  endfacet
  facet normal -5.082073e-02 -9.302534e-01  3.633813e-01
    outer loop
      vertex  -2.209200e+01 -4.116007e+00  7.516003e+00
      vertex  -1.853400e+01 -4.126009e+00  7.988003e+00
      vertex  -2.206001e+01 -4.024004e+00  7.756004e+00
    endloop
  endfacet
  facet normal -5.059791e-02 -9.318526e-01  3.592916e-01
    outer loop
      vertex  -2.196201e+01 -3.680002e+00  8.662003e+00
      vertex  -2.206001e+01 -4.024004e+00  7.756004e+00
      vertex  -1.853400e+01 -4.126009e+00  7.988003e+00
    endloop
  endfacet
  facet normal  1.292266e-01 -5.999260e-01  7.895501e-01
    outer loop
      vertex  -1.245400e+01 -3.064004e+00  9.660004e+00
      vertex  -9.962006e+00 -2.264001e+00  9.860004e+00
      vertex  -1.225401e+01 -2.176003e+00  1.030200e+01
    endloop
  endfacet
  facet normal -4.146519e-02 -9.849927e-01  1.675412e-01
    outer loop
      vertex  -1.853400e+01 -4.376009e+00  6.868004e+00
      vertex  -2.209200e+01 -4.116007e+00  7.516003e+00
      vertex  -2.209400e+01 -4.120005e+00  7.492004e+00
    endloop
  endfacet
  facet normal -3.162785e-02 -9.754933e-01  2.177442e-01
    outer loop
      vertex  -2.209200e+01 -4.116007e+00  7.516003e+00
      vertex  -1.853400e+01 -4.376009e+00  6.868004e+00
      vertex  -1.853400e+01 -4.126009e+00  7.988003e+00
    endloop
  endfacet
  facet normal -1.385069e-03 -6.141769e-01  7.891671e-01
    outer loop
      vertex  -1.853400e+01 -2.068002e+00  1.068600e+01
      vertex  -1.853400e+01 -2.988008e+00  9.970001e+00
      vertex  -1.523600e+01 -2.096002e+00  1.067000e+01
    endloop
  endfacet
  facet normal -3.249008e-02 -9.936544e-01  1.076815e-01
    outer loop
      vertex  -2.245200e+01 -4.504007e+00  4.906002e+00
      vertex  -1.853400e+01 -4.540002e+00  5.756004e+00
      vertex  -2.241200e+01 -4.478006e+00  5.158001e+00
    endloop
  endfacet
  facet normal -3.174838e-02 -9.941937e-01  1.028157e-01
    outer loop
      vertex  -2.226200e+01 -4.374002e+00  6.210003e+00
      vertex  -2.241200e+01 -4.478006e+00  5.158001e+00
      vertex  -1.853400e+01 -4.540002e+00  5.756004e+00
    endloop
  endfacet
  facet normal -2.638499e-02 -9.890816e-01  1.449874e-01
    outer loop
      vertex  -1.853400e+01 -4.540002e+00  5.756004e+00
      vertex  -2.226000e+01 -4.372004e+00  6.224003e+00
      vertex  -2.226200e+01 -4.374002e+00  6.210003e+00
    endloop
  endfacet
  facet normal  1.349315e-01 -6.146106e-01  7.772048e-01
    outer loop
      vertex  -1.245400e+01 -3.064004e+00  9.660004e+00
      vertex  -1.034800e+01 -3.110002e+00  9.258003e+00
      vertex  -9.962006e+00 -2.264001e+00  9.860004e+00
    endloop
  endfacet
  facet normal -4.643865e-02 -9.253874e-01  3.761670e-01
    outer loop
      vertex  -1.853400e+01 -4.126009e+00  7.988003e+00
      vertex  -2.195800e+01 -3.668009e+00  8.692001e+00
      vertex  -2.196201e+01 -3.680002e+00  8.662003e+00
    endloop
  endfacet
  facet normal -4.661120e-02 -9.256500e-01  3.754991e-01
    outer loop
      vertex  -1.853400e+01 -4.126009e+00  7.988003e+00
      vertex  -1.853400e+01 -3.696008e+00  9.048004e+00
      vertex  -2.195800e+01 -3.668009e+00  8.692001e+00
    endloop
  endfacet
  facet normal -8.177201e-03 -9.999666e-01  0.000000e+00
    outer loop
      vertex  -2.195800e+01 -3.668009e+00  8.692001e+00
      vertex  -1.853400e+01 -3.696008e+00  9.048004e+00
      vertex  -2.195800e+01 -3.668009e+00  8.694004e+00
    endloop
  endfacet
  facet normal  6.339227e-02 -9.592783e-01  2.752571e-01
    outer loop
      vertex  -1.299200e+01 -4.142007e+00  7.926003e+00
      vertex  -1.185001e+01 -4.342004e+00  6.966003e+00
      vertex  -1.143800e+01 -4.134004e+00  7.596004e+00
    endloop
  endfacet
  facet normal  1.666563e-01 -3.286433e-01  9.296339e-01
    outer loop
      vertex  -1.225401e+01 -2.176003e+00  1.030200e+01
      vertex  -9.962006e+00 -2.264001e+00  9.860004e+00
      vertex  -9.732002e+00 -1.146005e+00  1.021400e+01
    endloop
  endfacet
  facet normal  1.965305e-01 -1.126314e-01  9.740071e-01
    outer loop
      vertex  -1.213800e+01 -1.084001e+00  1.069200e+01
      vertex  -9.620003e+00  1.099998e-01  1.032200e+01
      vertex  -1.209801e+01  1.099996e-01  1.082200e+01
    endloop
  endfacet
  facet normal  1.502262e-02 -9.998872e-01  0.000000e+00
    outer loop
      vertex  -1.526400e+01 -4.594003e+00  6.044003e+00
      vertex  -1.380000e+01 -4.572008e+00  6.446003e+00
      vertex  -1.526400e+01 -4.594003e+00  6.046001e+00
    endloop
  endfacet
  facet normal -1.865066e-02 -9.982553e-01  5.602317e-02
    outer loop
      vertex  -1.526400e+01 -4.594003e+00  6.046001e+00
      vertex  -1.549600e+01 -4.590005e+00  6.040001e+00
      vertex  -1.527000e+01 -4.594003e+00  6.044003e+00
    endloop
  endfacet
  facet normal -2.042719e-02 -9.913979e-01  1.292787e-01
    outer loop
      vertex  -1.380000e+01 -4.572008e+00  6.446003e+00
      vertex  -1.549600e+01 -4.590005e+00  6.040001e+00
      vertex  -1.526400e+01 -4.594003e+00  6.046001e+00
    endloop
  endfacet
  facet normal -9.324742e-03 -9.966664e-01  8.105033e-02
    outer loop
      vertex  -1.375800e+01 -4.578004e+00  6.414001e+00
      vertex  -1.526400e+01 -4.594003e+00  6.044003e+00
      vertex  -1.389201e+01 -4.580003e+00  6.374004e+00
    endloop
  endfacet
  facet normal -2.646552e-02 -9.882626e-01  1.504546e-01
    outer loop
      vertex  -1.380000e+01 -4.572008e+00  6.446003e+00
      vertex  -1.526400e+01 -4.594003e+00  6.044003e+00
      vertex  -1.375800e+01 -4.578004e+00  6.414001e+00
    endloop
  endfacet
  facet normal  5.641052e-01 -2.495036e-01  7.871043e-01
    outer loop
      vertex  -1.374800e+01 -4.568002e+00  6.410004e+00
      vertex  -1.380000e+01 -4.572008e+00  6.446003e+00
      vertex  -1.375800e+01 -4.578004e+00  6.414001e+00
    endloop
  endfacet
  facet normal -2.150734e-02 -7.929509e-01  6.089059e-01
    outer loop
      vertex  -1.853400e+01 -2.988008e+00  9.970001e+00
      vertex  -1.853400e+01 -3.696008e+00  9.048004e+00
      vertex  -1.535001e+01 -3.724008e+00  9.124004e+00
    endloop
  endfacet
  facet normal  8.920765e-03 -1.303108e-01  9.914331e-01
    outer loop
      vertex  -1.853400e+01 -1.016008e+00  1.111800e+01
      vertex  -1.520000e+01  1.099993e-01  1.123600e+01
      vertex  -1.853400e+01  1.099990e-01  1.126600e+01
    endloop
  endfacet
  facet normal -2.032136e-02 -9.674442e-01  2.522671e-01
    outer loop
      vertex  -1.542200e+01 -4.146005e+00  8.162003e+00
      vertex  -1.853400e+01 -4.126009e+00  7.988003e+00
      vertex  -1.551200e+01 -4.396005e+00  7.196003e+00
    endloop
  endfacet
  facet normal  1.740888e-01 -3.475492e-01  9.213592e-01
    outer loop
      vertex  -1.225401e+01 -2.176003e+00  1.030200e+01
      vertex  -9.732002e+00 -1.146005e+00  1.021400e+01
      vertex  -1.213800e+01 -1.084001e+00  1.069200e+01
    endloop
  endfacet
  facet normal  1.913589e-01 -1.010119e-01  9.763085e-01
    outer loop
      vertex  -1.213800e+01 -1.084001e+00  1.069200e+01
      vertex  -9.732002e+00 -1.146005e+00  1.021400e+01
      vertex  -9.620003e+00  1.099998e-01  1.032200e+01
    endloop
  endfacet
  facet normal -7.262577e-02 -3.831963e-01  9.208073e-01
    outer loop
      vertex  -2.176200e+01 -1.846003e+00  1.051800e+01
      vertex  -1.853400e+01 -1.016008e+00  1.111800e+01
      vertex  -2.170800e+01 -1.020006e+00  1.086600e+01
    endloop
  endfacet
  facet normal -7.335833e-02 -3.809721e-01  9.216717e-01
    outer loop
      vertex  -2.177600e+01 -2.032007e+00  1.044000e+01
      vertex  -1.853400e+01 -1.016008e+00  1.111800e+01
      vertex  -2.176200e+01 -1.846003e+00  1.051800e+01
    endloop
  endfacet
  facet normal -2.620677e-02 -9.940937e-01  1.053129e-01
    outer loop
      vertex  -1.549600e+01 -4.590005e+00  6.040001e+00
      vertex  -1.853400e+01 -4.540002e+00  5.756004e+00
      vertex  -1.853400e+01 -4.590005e+00  5.284004e+00
    endloop
  endfacet
  facet normal -1.720593e-03 -9.991236e-01  4.182208e-02
    outer loop
      vertex  -2.253800e+01 -4.536005e+00  4.220001e+00
      vertex  -2.188800e+01 -4.530008e+00  4.390003e+00
      vertex  -2.252600e+01 -4.532007e+00  4.316002e+00
    endloop
  endfacet
  facet normal -2.792842e-03 -9.986919e-01  5.105479e-02
    outer loop
      vertex  -2.246400e+01 -4.506006e+00  4.828003e+00
      vertex  -2.252600e+01 -4.532007e+00  4.316002e+00
      vertex  -2.188800e+01 -4.530008e+00  4.390003e+00
    endloop
  endfacet
  facet normal -3.772503e-02 -9.992749e-01  5.148193e-03
    outer loop
      vertex  -2.188800e+01 -4.530008e+00  4.390003e+00
      vertex  -2.245800e+01 -4.506006e+00  4.872002e+00
      vertex  -2.246400e+01 -4.506006e+00  4.828003e+00
    endloop
  endfacet
  facet normal -2.984912e-02 -9.994496e-01  1.447074e-02
    outer loop
      vertex  -2.245800e+01 -4.506006e+00  4.872002e+00
      vertex  -2.188800e+01 -4.530008e+00  4.390003e+00
      vertex  -2.058000e+01 -4.564005e+00  4.740002e+00
    endloop
  endfacet
  facet normal  5.718294e-03 -3.682061e-01  9.297266e-01
    outer loop
      vertex  -1.853400e+01 -1.016008e+00  1.111800e+01
      vertex  -1.523600e+01 -2.096002e+00  1.067000e+01
      vertex  -1.520800e+01 -1.030008e+00  1.109200e+01
    endloop
  endfacet
  facet normal -5.423006e-02 -5.881456e-01  8.069348e-01
    outer loop
      vertex  -2.178001e+01 -2.096003e+00  1.040200e+01
      vertex  -1.853400e+01 -2.988008e+00  9.970001e+00
      vertex  -2.177801e+01 -2.066004e+00  1.042400e+01
    endloop
  endfacet
  facet normal -6.398395e-02 -6.129190e-01  7.875508e-01
    outer loop
      vertex  -2.177801e+01 -2.066004e+00  1.042400e+01
      vertex  -1.853400e+01 -2.988008e+00  9.970001e+00
      vertex  -1.853400e+01 -2.068002e+00  1.068600e+01
    endloop
  endfacet
  facet normal  0.000000e+00 -1.000000e+00  0.000000e+00
    outer loop
      vertex  -1.836800e+01 -4.590005e+00  5.284004e+00
      vertex  -1.549600e+01 -4.590005e+00  6.040001e+00
      vertex  -1.853400e+01 -4.590005e+00  5.284004e+00
    endloop
  endfacet
  facet normal -4.726447e-02 -9.799494e-01  1.935599e-01
    outer loop
      vertex  -1.596001e+01 -4.590005e+00  5.872002e+00
      vertex  -1.836800e+01 -4.590005e+00  5.284004e+00
      vertex  -1.830200e+01 -4.592004e+00  5.290001e+00
    endloop
  endfacet
  facet normal  0.000000e+00 -1.000000e+00  0.000000e+00
    outer loop
      vertex  -1.548200e+01 -4.590005e+00  5.990002e+00
      vertex  -1.836800e+01 -4.590005e+00  5.284004e+00
      vertex  -1.596001e+01 -4.590005e+00  5.872002e+00
    endloop
  endfacet
  facet normal  0.000000e+00 -1.000000e+00 -0.000000e+00
    outer loop
      vertex  -1.549600e+01 -4.590005e+00  6.040001e+00
      vertex  -1.836800e+01 -4.590005e+00  5.284004e+00
      vertex  -1.548200e+01 -4.590005e+00  5.990002e+00
    endloop
  endfacet
  facet normal -7.420443e-02 -3.788190e-01  9.224911e-01
    outer loop
      vertex  -1.853400e+01 -1.016008e+00  1.111800e+01
      vertex  -2.177600e+01 -2.032007e+00  1.044000e+01
      vertex  -1.853400e+01 -2.068002e+00  1.068600e+01
    endloop
  endfacet
  facet normal -7.327408e-02 -4.211183e-01  9.040411e-01
    outer loop
      vertex  -2.177801e+01 -2.066004e+00  1.042400e+01
      vertex  -1.853400e+01 -2.068002e+00  1.068600e+01
      vertex  -2.177600e+01 -2.032007e+00  1.044000e+01
    endloop
  endfacet
  facet normal -6.518169e-02 -8.075100e-01  5.862414e-01
    outer loop
      vertex  -1.853400e+01 -3.696008e+00  9.048004e+00
      vertex  -2.184400e+01 -2.970003e+00  9.680004e+00
      vertex  -2.184801e+01 -2.990007e+00  9.652004e+00
    endloop
  endfacet
  facet normal -5.757876e-02 -7.918186e-01  6.080363e-01
    outer loop
      vertex  -1.853400e+01 -3.696008e+00  9.048004e+00
      vertex  -1.853400e+01 -2.988008e+00  9.970001e+00
      vertex  -2.184400e+01 -2.970003e+00  9.680004e+00
    endloop
  endfacet
  facet normal -6.565581e-02 -7.055811e-01  7.055811e-01
    outer loop
      vertex  -2.184400e+01 -2.970003e+00  9.680004e+00
      vertex  -1.853400e+01 -2.988008e+00  9.970001e+00
      vertex  -2.184400e+01 -2.968004e+00  9.682003e+00
    endloop
  endfacet
  facet normal -3.055382e-02 -9.956511e-01  8.800723e-02
    outer loop
      vertex  -2.245800e+01 -4.506006e+00  4.872002e+00
      vertex  -1.853400e+01 -4.590005e+00  5.284004e+00
      vertex  -2.245400e+01 -4.504007e+00  4.896004e+00
    endloop
  endfacet
  facet normal -2.237535e-02 -9.997396e-01  4.473363e-03
    outer loop
      vertex  -2.245400e+01 -4.504007e+00  4.896004e+00
      vertex  -1.853400e+01 -4.590005e+00  5.284004e+00
      vertex  -2.245200e+01 -4.504007e+00  4.906002e+00
    endloop
  endfacet
  facet normal -3.197490e-02 -9.939268e-01  1.052953e-01
    outer loop
      vertex  -1.853400e+01 -4.540002e+00  5.756004e+00
      vertex  -2.245200e+01 -4.504007e+00  4.906002e+00
      vertex  -1.853400e+01 -4.590005e+00  5.284004e+00
    endloop
  endfacet
  facet normal  1.556966e-02 -9.598117e-01  2.802126e-01
    outer loop
      vertex  -1.299200e+01 -4.142007e+00  7.926003e+00
      vertex  -1.551200e+01 -4.396005e+00  7.196003e+00
      vertex  -1.339800e+01 -4.402001e+00  7.058002e+00
    endloop
  endfacet
  facet normal -7.082143e-02 -6.316200e-01  7.720365e-01
    outer loop
      vertex  -2.182800e+01 -2.780008e+00  9.838001e+00
      vertex  -1.853400e+01 -2.988008e+00  9.970001e+00
      vertex  -2.178001e+01 -2.096003e+00  1.040200e+01
    endloop
  endfacet
  facet normal -7.087489e-02 -6.333916e-01  7.705788e-01
    outer loop
      vertex  -2.184400e+01 -2.968004e+00  9.682003e+00
      vertex  -1.853400e+01 -2.988008e+00  9.970001e+00
      vertex  -2.182800e+01 -2.780008e+00  9.838001e+00
    endloop
  endfacet
  facet normal -9.952087e-03 -5.942905e-01  8.041888e-01
    outer loop
      vertex  -1.853400e+01 -2.988008e+00  9.970001e+00
      vertex  -1.528800e+01 -3.018007e+00  9.988003e+00
      vertex  -1.523600e+01 -2.096002e+00  1.067000e+01
    endloop
  endfacet
  facet normal  1.137492e-01 -3.682747e-01  9.227323e-01
    outer loop
      vertex  -1.523600e+01 -2.096002e+00  1.067000e+01
      vertex  -1.213800e+01 -1.084001e+00  1.069200e+01
      vertex  -1.520800e+01 -1.030008e+00  1.109200e+01
    endloop
  endfacet
  facet normal  1.314628e-01 -1.116503e-01  9.850136e-01
    outer loop
      vertex  -1.520000e+01  1.099993e-01  1.123600e+01
      vertex  -1.213800e+01 -1.084001e+00  1.069200e+01
      vertex  -1.209801e+01  1.099996e-01  1.082200e+01
    endloop
  endfacet
  facet normal -2.842850e-02 -9.146104e-01  4.033358e-01
    outer loop
      vertex  -1.535001e+01 -3.724008e+00  9.124004e+00
      vertex  -1.853400e+01 -4.126009e+00  7.988003e+00
      vertex  -1.542200e+01 -4.146005e+00  8.162003e+00
    endloop
  endfacet
  facet normal -6.707960e-02 -8.118506e-01  5.799991e-01
    outer loop
      vertex  -2.195800e+01 -3.666002e+00  8.694004e+00
      vertex  -1.853400e+01 -3.696008e+00  9.048004e+00
      vertex  -2.193000e+01 -3.524004e+00  8.896004e+00
    endloop
  endfacet
  facet normal -1.028398e-01  0.000000e+00  9.946979e-01
    outer loop
      vertex  -2.195800e+01 -3.668009e+00  8.694004e+00
      vertex  -1.853400e+01 -3.696008e+00  9.048004e+00
      vertex  -2.195800e+01 -3.666002e+00  8.694004e+00
    endloop
  endfacet
  facet normal -6.708369e-02 -8.115072e-01  5.804790e-01
    outer loop
      vertex  -2.184801e+01 -2.990007e+00  9.652004e+00
      vertex  -2.193000e+01 -3.524004e+00  8.896004e+00
      vertex  -1.853400e+01 -3.696008e+00  9.048004e+00
    endloop
  endfacet
  facet normal  1.263491e-03 -3.798660e-01  9.250407e-01
    outer loop
      vertex  -1.853400e+01 -2.068002e+00  1.068600e+01
      vertex  -1.523600e+01 -2.096002e+00  1.067000e+01
      vertex  -1.853400e+01 -1.016008e+00  1.111800e+01
    endloop
  endfacet
  facet normal  1.260198e-01 -1.251909e-01  9.840966e-01
    outer loop
      vertex  -1.520800e+01 -1.030008e+00  1.109200e+01
      vertex  -1.213800e+01 -1.084001e+00  1.069200e+01
      vertex  -1.520000e+01  1.099993e-01  1.123600e+01
    endloop
  endfacet
  facet normal  9.891421e-02 -7.875184e-01  6.083013e-01
    outer loop
      vertex  -1.245400e+01 -3.064004e+00  9.660004e+00
      vertex  -1.271001e+01 -3.728006e+00  8.842003e+00
      vertex  -1.034800e+01 -3.110002e+00  9.258003e+00
    endloop
  endfacet
  facet normal  6.021988e-02 -7.750632e-01  6.290077e-01
    outer loop
      vertex  -1.528800e+01 -3.018007e+00  9.988003e+00
      vertex  -1.535001e+01 -3.724008e+00  9.124004e+00
      vertex  -1.245400e+01 -3.064004e+00  9.660004e+00
    endloop
  endfacet
  facet normal  1.818540e-03 -9.993246e-01  3.670263e-02
    outer loop
      vertex  -1.380000e+01 -4.572008e+00  6.446003e+00
      vertex  -1.557001e+01 -4.580003e+00  6.316002e+00
      vertex  -1.549600e+01 -4.590005e+00  6.040001e+00
    endloop
  endfacet
  facet normal -3.008958e-02 -9.755396e-01  2.177546e-01
    outer loop
      vertex  -1.853400e+01 -4.126009e+00  7.988003e+00
      vertex  -1.853400e+01 -4.376009e+00  6.868004e+00
      vertex  -1.551200e+01 -4.396005e+00  7.196003e+00
    endloop
  endfacet
  facet normal -2.237599e-02 -9.890519e-01  1.458620e-01
    outer loop
      vertex  -1.551200e+01 -4.396005e+00  7.196003e+00
      vertex  -1.853400e+01 -4.376009e+00  6.868004e+00
      vertex  -1.853400e+01 -4.540002e+00  5.756004e+00
    endloop
  endfacet
  facet normal -3.486619e-02 -9.800577e-01  1.956305e-01
    outer loop
      vertex  -2.226000e+01 -4.372004e+00  6.224003e+00
      vertex  -1.853400e+01 -4.376009e+00  6.868004e+00
      vertex  -2.221800e+01 -4.320002e+00  6.492004e+00
    endloop
  endfacet
  facet normal -3.531830e-02 -9.791183e-01  2.002002e-01
    outer loop
      vertex  -2.209400e+01 -4.120005e+00  7.492004e+00
      vertex  -2.221800e+01 -4.320002e+00  6.492004e+00
      vertex  -1.853400e+01 -4.376009e+00  6.868004e+00
    endloop
  endfacet
  facet normal  6.468023e-02 -7.845870e-01  6.166357e-01
    outer loop
      vertex  -1.245400e+01 -3.064004e+00  9.660004e+00
      vertex  -1.535001e+01 -3.724008e+00  9.124004e+00
      vertex  -1.271001e+01 -3.728006e+00  8.842003e+00
    endloop
  endfacet
  facet normal  1.366976e-01 -6.180610e-01  7.741540e-01
    outer loop
      vertex  -9.838005e+00 -2.654008e+00  9.532001e+00
      vertex  -1.034800e+01 -3.110002e+00  9.258003e+00
      vertex  -1.005801e+01 -3.116006e+00  9.202003e+00
    endloop
  endfacet
  facet normal  0.000000e+00 -9.916101e-01  1.292654e-01
    outer loop
      vertex  -1.853400e+01 -4.590005e+00  5.284004e+00
      vertex  -1.853400e+01 -4.596002e+00  5.238003e+00
      vertex  -1.836800e+01 -4.590005e+00  5.284004e+00
    endloop
  endfacet
  facet normal -7.816496e-02 -1.299173e-01  9.884390e-01
    outer loop
      vertex  -1.853400e+01  1.099990e-01  1.126600e+01
      vertex  -2.170800e+01 -9.780064e-01  1.087200e+01
      vertex  -1.853400e+01 -1.016008e+00  1.111800e+01
    endloop
  endfacet
  facet normal -7.818433e-02 -1.554902e-01  9.847385e-01
    outer loop
      vertex  -2.170800e+01 -1.016008e+00  1.086600e+01
      vertex  -1.853400e+01 -1.016008e+00  1.111800e+01
      vertex  -2.170800e+01 -9.780064e-01  1.087200e+01
    endloop
  endfacet
  facet normal -7.914697e-02  0.000000e+00  9.968629e-01
    outer loop
      vertex  -1.853400e+01 -1.016008e+00  1.111800e+01
      vertex  -2.170800e+01 -1.016008e+00  1.086600e+01
      vertex  -2.170800e+01 -1.020006e+00  1.086600e+01
    endloop
  endfacet
  facet normal  5.852857e-02 -9.611821e-01  2.696357e-01
    outer loop
      vertex  -1.143800e+01 -4.134004e+00  7.596004e+00
      vertex  -1.125401e+01 -4.166001e+00  7.442001e+00
      vertex  -1.118000e+01 -4.134004e+00  7.540001e+00
    endloop
  endfacet
  facet normal  6.532785e-02 -9.585832e-01  2.772193e-01
    outer loop
      vertex  -1.143800e+01 -4.134004e+00  7.596004e+00
      vertex  -1.146001e+01 -4.272004e+00  7.124004e+00
      vertex  -1.125401e+01 -4.166001e+00  7.442001e+00
    endloop
  endfacet
  facet normal -1.828800e-02 -9.998196e-01 -5.120696e-03
    outer loop
      vertex  -1.548200e+01 -4.590005e+00  5.990002e+00
      vertex  -1.527800e+01 -4.594003e+00  6.042004e+00
      vertex  -1.549600e+01 -4.590005e+00  6.040001e+00
    endloop
  endfacet
  facet normal -1.897955e-02 -9.969334e-01  7.591820e-02
    outer loop
      vertex  -1.527000e+01 -4.594003e+00  6.044003e+00
      vertex  -1.549600e+01 -4.590005e+00  6.040001e+00
      vertex  -1.527800e+01 -4.594003e+00  6.042004e+00
    endloop
  endfacet
  facet normal  8.280169e-02 -5.956550e-01  7.989612e-01
    outer loop
      vertex  -1.528800e+01 -3.018007e+00  9.988003e+00
      vertex  -1.245400e+01 -3.064004e+00  9.660004e+00
      vertex  -1.523600e+01 -2.096002e+00  1.067000e+01
    endloop
  endfacet
  facet normal  1.229364e-01 -6.155823e-01  7.784247e-01
    outer loop
      vertex  -9.766006e+00 -2.498002e+00  9.644001e+00
      vertex  -9.962006e+00 -2.264001e+00  9.860004e+00
      vertex  -9.838005e+00 -2.654008e+00  9.532001e+00
    endloop
  endfacet
  facet normal  1.289697e-01 -6.121352e-01  7.801650e-01
    outer loop
      vertex  -9.656006e+00 -2.276002e+00  9.800003e+00
      vertex  -9.962006e+00 -2.264001e+00  9.860004e+00
      vertex  -9.766006e+00 -2.498002e+00  9.644001e+00
    endloop
  endfacet
  facet normal  1.302038e-01 -6.135964e-01  7.788109e-01
    outer loop
      vertex  -1.034800e+01 -3.110002e+00  9.258003e+00
      vertex  -9.838005e+00 -2.654008e+00  9.532001e+00
      vertex  -9.962006e+00 -2.264001e+00  9.860004e+00
    endloop
  endfacet
  facet normal  4.046475e-02 -9.151199e-01  4.011459e-01
    outer loop
      vertex  -1.271001e+01 -3.728006e+00  8.842003e+00
      vertex  -1.542200e+01 -4.146005e+00  8.162003e+00
      vertex  -1.299200e+01 -4.142007e+00  7.926003e+00
    endloop
  endfacet
  facet normal  1.053941e-02 -9.789172e-01  2.039856e-01
    outer loop
      vertex  -1.551200e+01 -4.396005e+00  7.196003e+00
      vertex  -1.557001e+01 -4.580003e+00  6.316002e+00
      vertex  -1.339800e+01 -4.402001e+00  7.058002e+00
    endloop
  endfacet
  facet normal  5.300198e-02 -9.631467e-01  2.637030e-01
    outer loop
      vertex  -1.299200e+01 -4.142007e+00  7.926003e+00
      vertex  -1.339800e+01 -4.402001e+00  7.058002e+00
      vertex  -1.185001e+01 -4.342004e+00  6.966003e+00
    endloop
  endfacet
  facet normal  1.697927e-01 -3.239447e-01  9.307150e-01
    outer loop
      vertex  -9.516006e+00 -1.628007e+00  1.000000e+01
      vertex  -9.962006e+00 -2.264001e+00  9.860004e+00
      vertex  -9.656006e+00 -2.276002e+00  9.800003e+00
    endloop
  endfacet
  facet normal  7.909660e-02 -9.278809e-01  3.643907e-01
    outer loop
      vertex  -1.143800e+01 -4.134004e+00  7.596004e+00
      vertex  -1.118000e+01 -4.134004e+00  7.540001e+00
      vertex  -1.113800e+01 -4.110002e+00  7.592003e+00
    endloop
  endfacet
  facet normal  7.890537e-02 -9.237649e-01  3.747428e-01
    outer loop
      vertex  -1.113800e+01 -4.110002e+00  7.592003e+00
      vertex  -1.088800e+01 -3.928002e+00  7.988003e+00
      vertex  -1.143800e+01 -4.134004e+00  7.596004e+00
    endloop
  endfacet
  facet normal  7.909326e-02 -9.173084e-01  3.902430e-01
    outer loop
      vertex  -1.271001e+01 -3.728006e+00  8.842003e+00
      vertex  -1.299200e+01 -4.142007e+00  7.926003e+00
      vertex  -1.087400e+01 -3.722001e+00  8.484001e+00
    endloop
  endfacet
  facet normal  7.227916e-03 -1.253667e-01  9.920841e-01
    outer loop
      vertex  -1.853400e+01 -1.016008e+00  1.111800e+01
      vertex  -1.520800e+01 -1.030008e+00  1.109200e+01
      vertex  -1.520000e+01  1.099993e-01  1.123600e+01
    endloop
  endfacet
  facet normal  8.257508e-02 -5.960351e-01  7.987012e-01
    outer loop
      vertex  -1.523600e+01 -2.096002e+00  1.067000e+01
      vertex  -1.245400e+01 -3.064004e+00  9.660004e+00
      vertex  -1.225401e+01 -2.176003e+00  1.030200e+01
    endloop
  endfacet
  facet normal  2.570004e-02 -9.683633e-01  2.482174e-01
    outer loop
      vertex  -1.542200e+01 -4.146005e+00  8.162003e+00
      vertex  -1.551200e+01 -4.396005e+00  7.196003e+00
      vertex  -1.299200e+01 -4.142007e+00  7.926003e+00
    endloop
  endfacet
  facet normal  8.434400e-02 -9.232632e-01  3.747948e-01
    outer loop
      vertex  -1.087400e+01 -3.722001e+00  8.484001e+00
      vertex  -1.299200e+01 -4.142007e+00  7.926003e+00
      vertex  -1.143800e+01 -4.134004e+00  7.596004e+00
    endloop
  endfacet
  facet normal -8.017226e-02 -1.233902e-01  9.891144e-01
    outer loop
      vertex  -2.170800e+01 -9.540043e-01  1.087600e+01
      vertex  -1.853400e+01  1.099990e-01  1.126600e+01
      vertex  -1.981400e+01  1.079924e-01  1.116200e+01
    endloop
  endfacet
  facet normal -6.592898e-02 -1.640920e-01  9.842393e-01
    outer loop
      vertex  -2.170800e+01 -9.780064e-01  1.087200e+01
      vertex  -1.853400e+01  1.099990e-01  1.126600e+01
      vertex  -2.170800e+01 -9.540043e-01  1.087600e+01
    endloop
  endfacet
  facet normal -8.031008e-02 -1.235726e-01  9.890804e-01
    outer loop
      vertex  -2.170200e+01 -6.500034e-01  1.091400e+01
      vertex  -1.981400e+01  1.079924e-01  1.116200e+01
      vertex  -2.168600e+01  1.079922e-01  1.101000e+01
    endloop
  endfacet
  facet normal -7.698994e-02 -1.315903e-01  9.883099e-01
    outer loop
      vertex  -2.170400e+01 -7.840061e-01  1.089600e+01
      vertex  -1.981400e+01  1.079924e-01  1.116200e+01
      vertex  -2.170200e+01 -6.500034e-01  1.091400e+01
    endloop
  endfacet
  facet normal -8.528813e-02 -1.144408e-01  9.897622e-01
    outer loop
      vertex  -2.170800e+01 -9.540043e-01  1.087600e+01
      vertex  -1.981400e+01  1.079924e-01  1.116200e+01
      vertex  -2.170400e+01 -7.840061e-01  1.089600e+01
    endloop
  endfacet
  facet normal -1.066391e-02 -7.739362e-01  6.331738e-01
    outer loop
      vertex  -1.528800e+01 -3.018007e+00  9.988003e+00
      vertex  -1.853400e+01 -2.988008e+00  9.970001e+00
      vertex  -1.535001e+01 -3.724008e+00  9.124004e+00
    endloop
  endfacet
  facet normal -1.934865e-02 -9.993312e-01  3.102724e-02
    outer loop
      vertex  -1.557001e+01 -4.580003e+00  6.316002e+00
      vertex  -1.853400e+01 -4.540002e+00  5.756004e+00
      vertex  -1.549600e+01 -4.590005e+00  6.040001e+00
    endloop
  endfacet
  facet normal -1.603341e-02 -9.606258e-01  2.773823e-01
    outer loop
      vertex  -1.339800e+01 -4.402001e+00  7.058002e+00
      vertex  -1.557001e+01 -4.580003e+00  6.316002e+00
      vertex  -1.380000e+01 -4.572008e+00  6.446003e+00
    endloop
  endfacet
  facet normal -2.627137e-02 -9.889581e-01  1.458481e-01
    outer loop
      vertex  -1.853400e+01 -4.376009e+00  6.868004e+00
      vertex  -2.226000e+01 -4.372004e+00  6.224003e+00
      vertex  -1.853400e+01 -4.540002e+00  5.756004e+00
    endloop
  endfacet
  facet normal  1.133608e-01 -8.153982e-01  5.676928e-01
    outer loop
      vertex  -1.034800e+01 -3.110002e+00  9.258003e+00
      vertex  -1.271001e+01 -3.728006e+00  8.842003e+00
      vertex  -1.087400e+01 -3.722001e+00  8.484001e+00
    endloop
  endfacet
  facet normal  8.924684e-02 -8.090950e-01  5.808617e-01
    outer loop
      vertex  -1.019000e+01 -3.256005e+00  9.028004e+00
      vertex  -1.087400e+01 -3.722001e+00  8.484001e+00
      vertex  -1.031600e+01 -3.402001e+00  8.844002e+00
    endloop
  endfacet
  facet normal  8.411030e-02 -8.065552e-01  5.851445e-01
    outer loop
      vertex  -1.005801e+01 -3.116006e+00  9.202003e+00
      vertex  -1.087400e+01 -3.722001e+00  8.484001e+00
      vertex  -1.019000e+01 -3.256005e+00  9.028004e+00
    endloop
  endfacet
  facet normal  9.464285e-02 -8.111842e-01  5.770813e-01
    outer loop
      vertex  -1.034800e+01 -3.110002e+00  9.258003e+00
      vertex  -1.087400e+01 -3.722001e+00  8.484001e+00
      vertex  -1.005801e+01 -3.116006e+00  9.202003e+00
    endloop
  endfacet
  facet normal  2.409147e-02 -8.803779e-01  4.736606e-01
    outer loop
      vertex  -1.364800e+01 -4.570001e+00  6.442001e+00
      vertex  -1.355801e+01 -4.560006e+00  6.456001e+00
      vertex  -1.380000e+01 -4.572008e+00  6.446003e+00
    endloop
  endfacet
  facet normal  8.664380e-03 -7.373873e-01  6.754146e-01
    outer loop
      vertex  -1.354401e+01 -4.558007e+00  6.458004e+00
      vertex  -1.380000e+01 -4.572008e+00  6.446003e+00
      vertex  -1.355801e+01 -4.560006e+00  6.456001e+00
    endloop
  endfacet
  facet normal  3.955832e-02 -9.602334e-01  2.763819e-01
    outer loop
      vertex  -1.185001e+01 -4.342004e+00  6.966003e+00
      vertex  -1.380000e+01 -4.572008e+00  6.446003e+00
      vertex  -1.354401e+01 -4.558007e+00  6.458004e+00
    endloop
  endfacet
  facet normal  4.893262e-02 -9.663177e-01  2.526571e-01
    outer loop
      vertex  -1.185001e+01 -4.342004e+00  6.966003e+00
      vertex  -1.202400e+01 -4.378007e+00  6.862003e+00
      vertex  -1.181001e+01 -4.352006e+00  6.920002e+00
    endloop
  endfacet
  facet normal  4.590291e-02 -9.652277e-01  2.573487e-01
    outer loop
      vertex  -1.185001e+01 -4.342004e+00  6.966003e+00
      vertex  -1.354401e+01 -4.558007e+00  6.458004e+00
      vertex  -1.202400e+01 -4.378007e+00  6.862003e+00
    endloop
  endfacet
  facet normal  1.096806e-01 -8.235447e-01  5.565467e-01
    outer loop
      vertex  -1.087400e+01 -3.722001e+00  8.484001e+00
      vertex  -1.060001e+01 -3.722001e+00  8.430004e+00
      vertex  -1.056800e+01 -3.688004e+00  8.474003e+00
    endloop
  endfacet
  facet normal  1.095298e-01 -8.211351e-01  5.601254e-01
    outer loop
      vertex  -1.056800e+01 -3.688004e+00  8.474003e+00
      vertex  -1.031600e+01 -3.402001e+00  8.844002e+00
      vertex  -1.087400e+01 -3.722001e+00  8.484001e+00
    endloop
  endfacet
  facet normal -5.971684e-02 -9.575638e-01  2.819669e-01
    outer loop
      vertex  -2.254000e+01 -4.540003e+00  4.206001e+00
      vertex  -2.227000e+01 -4.548006e+00  4.236004e+00
      vertex  -2.253800e+01 -4.536005e+00  4.220001e+00
    endloop
  endfacet
  facet normal -5.859250e-02 -9.643545e-01  2.580450e-01
    outer loop
      vertex  -2.188800e+01 -4.530008e+00  4.390003e+00
      vertex  -2.253800e+01 -4.536005e+00  4.220001e+00
      vertex  -2.227000e+01 -4.548006e+00  4.236004e+00
    endloop
  endfacet
  facet normal -5.274934e-02 -9.683355e-01  2.440160e-01
    outer loop
      vertex  -2.227000e+01 -4.548006e+00  4.236004e+00
      vertex  -2.161201e+01 -4.540003e+00  4.410004e+00
      vertex  -2.188800e+01 -4.530008e+00  4.390003e+00
    endloop
  endfacet
  facet normal -3.976014e-02 -9.979591e-01  4.996994e-02
    outer loop
      vertex  -2.040401e+01 -4.572008e+00  4.732002e+00
      vertex  -2.188800e+01 -4.530008e+00  4.390003e+00
      vertex  -2.161201e+01 -4.540003e+00  4.410004e+00
    endloop
  endfacet
  facet normal -4.252448e-02 -9.971660e-01  6.206236e-02
    outer loop
      vertex  -2.058000e+01 -4.564005e+00  4.740002e+00
      vertex  -2.188800e+01 -4.530008e+00  4.390003e+00
      vertex  -2.040401e+01 -4.572008e+00  4.732002e+00
    endloop
  endfacet
  facet normal -3.041420e-02 -9.976833e-01  6.085194e-02
    outer loop
      vertex  -1.853400e+01 -4.596002e+00  5.238003e+00
      vertex  -2.058000e+01 -4.564005e+00  4.740002e+00
      vertex  -1.927400e+01 -4.586008e+00  5.032001e+00
    endloop
  endfacet
  facet normal -4.691951e-02 -9.905179e-01  1.291230e-01
    outer loop
      vertex  -1.853400e+01 -4.590005e+00  5.284004e+00
      vertex  -2.058000e+01 -4.564005e+00  4.740002e+00
      vertex  -1.853400e+01 -4.596002e+00  5.238003e+00
    endloop
  endfacet
  facet normal -4.037685e-02 -9.935758e-01  1.057204e-01
    outer loop
      vertex  -2.040401e+01 -4.572008e+00  4.732002e+00
      vertex  -1.927400e+01 -4.586008e+00  5.032001e+00
      vertex  -2.058000e+01 -4.564005e+00  4.740002e+00
    endloop
  endfacet
  facet normal -3.008452e-02 -9.995389e-01  4.105518e-03
    outer loop
      vertex  -2.254601e+01 -4.540003e+00  4.162003e+00
      vertex  -2.227000e+01 -4.548006e+00  4.236004e+00
      vertex  -2.254000e+01 -4.540003e+00  4.206001e+00
    endloop
  endfacet
  facet normal  4.121052e-02 -9.161180e-01  3.987851e-01
    outer loop
      vertex  -1.535001e+01 -3.724008e+00  9.124004e+00
      vertex  -1.542200e+01 -4.146005e+00  8.162003e+00
      vertex  -1.271001e+01 -3.728006e+00  8.842003e+00
    endloop
  endfacet
  facet normal  1.058788e-01 -3.444009e-01  9.328331e-01
    outer loop
      vertex  -1.523600e+01 -2.096002e+00  1.067000e+01
      vertex  -1.225401e+01 -2.176003e+00  1.030200e+01
      vertex  -1.213800e+01 -1.084001e+00  1.069200e+01
    endloop
  endfacet
  facet normal  6.159698e-02 -9.628506e-01  2.629157e-01
    outer loop
      vertex  -1.181001e+01 -4.352006e+00  6.920002e+00
      vertex  -1.154601e+01 -4.316003e+00  6.990002e+00
      vertex  -1.185001e+01 -4.342004e+00  6.966003e+00
    endloop
  endfacet
  facet normal  6.022783e-02 -9.591857e-01  2.762887e-01
    outer loop
      vertex  -1.146001e+01 -4.272004e+00  7.124004e+00
      vertex  -1.185001e+01 -4.342004e+00  6.966003e+00
      vertex  -1.154601e+01 -4.316003e+00  6.990002e+00
    endloop
  endfacet
  facet normal  5.965207e-02 -9.588537e-01  2.775629e-01
    outer loop
      vertex  -1.143800e+01 -4.134004e+00  7.596004e+00
      vertex  -1.185001e+01 -4.342004e+00  6.966003e+00
      vertex  -1.146001e+01 -4.272004e+00  7.124004e+00
    endloop
  endfacet
  facet normal  1.775832e-01 -3.317690e-01  9.264953e-01
    outer loop
      vertex  -9.732002e+00 -1.146005e+00  1.021400e+01
      vertex  -9.516006e+00 -1.628007e+00  1.000000e+01
      vertex  -9.416000e+00 -1.150002e+00  1.015200e+01
    endloop
  endfacet
  facet normal  1.804298e-01 -3.304574e-01  9.264141e-01
    outer loop
      vertex  -9.516006e+00 -1.628007e+00  1.000000e+01
      vertex  -9.732002e+00 -1.146005e+00  1.021400e+01
      vertex  -9.962006e+00 -2.264001e+00  9.860004e+00
    endloop
  endfacet
  facet normal  7.741451e-02 -9.231679e-01  3.765210e-01
    outer loop
      vertex  -1.072601e+01 -3.810006e+00  8.244003e+00
      vertex  -1.143800e+01 -4.134004e+00  7.596004e+00
      vertex  -1.088800e+01 -3.928002e+00  7.988003e+00
    endloop
  endfacet
  facet normal  5.844933e-02 -9.171085e-01  3.943295e-01
    outer loop
      vertex  -1.060001e+01 -3.722001e+00  8.430004e+00
      vertex  -1.143800e+01 -4.134004e+00  7.596004e+00
      vertex  -1.072601e+01 -3.810006e+00  8.244003e+00
    endloop
  endfacet
  facet normal  7.491642e-02 -9.218880e-01  3.801446e-01
    outer loop
      vertex  -1.087400e+01 -3.722001e+00  8.484001e+00
      vertex  -1.143800e+01 -4.134004e+00  7.596004e+00
      vertex  -1.060001e+01 -3.722001e+00  8.430004e+00
    endloop
  endfacet
  facet normal  5.161971e-02 -9.704600e-01  2.356752e-01
    outer loop
      vertex  -1.339800e+01 -4.402001e+00  7.058002e+00
      vertex  -1.380000e+01 -4.572008e+00  6.446003e+00
      vertex  -1.185001e+01 -4.342004e+00  6.966003e+00
    endloop
  endfacet
  facet normal  1.062840e-02 -9.953825e-01 -9.539741e-02
    outer loop
      vertex  -1.380000e+01 -4.572008e+00  6.446003e+00
      vertex  -1.374800e+01 -4.568002e+00  6.410004e+00
      vertex  -1.364800e+01 -4.570001e+00  6.442001e+00
    endloop
  endfacet
endsolid vcg
