solid STL generated by MeshLab
  facet normal  5.342279e-02  9.984318e-01 -1.673253e-02
    outer loop
      vertex   4.888800e+01  4.060025e-01  2.637200e+01
      vertex   4.781800e+01  3.820080e-01  2.152400e+01
      vertex   4.675000e+01  4.399913e-01  2.157401e+01
    endloop
  endfacet
  facet normal  8.290268e-02  9.962637e-01 -2.420273e-02
    outer loop
      vertex   5.042400e+01  3.039976e-01  2.632201e+01
      vertex   5.097200e+01  2.580077e-01  2.630600e+01
      vertex   4.874600e+01  3.260007e-01  2.148000e+01
    endloop
  endfacet
  facet normal  4.683238e-02  9.988196e-01 -1.288550e-02
    outer loop
      vertex   4.473200e+01  4.740029e-01  1.705801e+01
      vertex   4.603200e+01  4.119913e-01  1.697601e+01
      vertex   4.446200e+01  4.340020e-01  1.297600e+01
    endloop
  endfacet
  facet normal  4.046528e-02  9.990977e-01 -1.289583e-02
    outer loop
      vertex   3.896200e+01  5.880008e-01  5.882000e+00
      vertex   4.172400e+01  4.800070e-01  6.181999e+00
      vertex   3.929200e+01  5.720021e-01  5.678001e+00
    endloop
  endfacet
  facet normal  3.869733e-02  9.992450e-01  3.434178e-03
    outer loop
      vertex   4.172400e+01  4.800070e-01  6.181999e+00
      vertex   3.896200e+01  5.880008e-01  5.882000e+00
      vertex   3.863400e+01  6.000019e-01  6.085999e+00
    endloop
  endfacet
  facet normal  4.701834e-02  9.988107e-01 -1.289771e-02
    outer loop
      vertex   4.473200e+01  4.740029e-01  1.705801e+01
      vertex   4.446200e+01  4.340020e-01  1.297600e+01
      vertex   4.296600e+01  5.060005e-01  1.309800e+01
    endloop
  endfacet
  facet normal  4.665214e-02  9.988045e-01 -1.459841e-02
    outer loop
      vertex   4.334600e+01  5.399971e-01  1.714400e+01
      vertex   4.560600e+01  5.000040e-01  2.163000e+01
      vertex   4.473200e+01  4.740029e-01  1.705801e+01
    endloop
  endfacet
  facet normal  4.045653e-02  9.991452e-01 -8.494270e-03
    outer loop
      vertex   4.395200e+01  3.700066e-01  4.764000e+00
      vertex   4.380600e+01  3.760033e-01  4.773998e+00
      vertex   4.354600e+01  3.979912e-01  6.122002e+00
    endloop
  endfacet
  facet normal  4.471529e-02  9.989704e-01 -7.669995e-03
    outer loop
      vertex   4.172400e+01  4.800070e-01  6.181999e+00
      vertex   4.354600e+01  3.979912e-01  6.122002e+00
      vertex   4.380600e+01  3.760033e-01  4.773998e+00
    endloop
  endfacet
  facet normal  3.908122e-02  9.991957e-01 -8.983855e-03
    outer loop
      vertex   4.446200e+01  4.340020e-01  1.297600e+01
      vertex   4.172400e+01  4.800070e-01  6.181999e+00
      vertex   3.863400e+01  6.000019e-01  6.085999e+00
    endloop
  endfacet
  facet normal  1.479510e-01  9.881696e-01 -4.039005e-02
    outer loop
      vertex   4.890200e+01  1.499905e-01  1.680600e+01
      vertex   4.777800e+01  1.520046e-01  1.273800e+01
      vertex   4.676800e+01  3.060038e-01  1.280600e+01
    endloop
  endfacet
  facet normal  1.766959e-01  9.830959e-01 -4.797022e-02
    outer loop
      vertex   5.152000e+01  1.400039e-01  2.628800e+01
      vertex   5.017400e+01  1.440016e-01  2.141200e+01
      vertex   4.946000e+01  2.739911e-01  2.144601e+01
    endloop
  endfacet
  facet normal  5.850963e-02  9.981059e-01 -1.900155e-02
    outer loop
      vertex   4.801000e+01  4.580044e-01  2.640000e+01
      vertex   4.888800e+01  4.060025e-01  2.637200e+01
      vertex   4.675000e+01  4.399913e-01  2.157401e+01
    endloop
  endfacet
  facet normal  6.047913e-02  9.980407e-01 -1.602790e-02
    outer loop
      vertex   4.716200e+01  3.480037e-01  1.690800e+01
      vertex   4.676800e+01  3.060038e-01  1.280600e+01
      vertex   4.576400e+01  3.680002e-01  1.287800e+01
    endloop
  endfacet
  facet normal  6.913173e-02  9.973795e-01 -2.133206e-02
    outer loop
      vertex   4.971000e+01  3.540006e-01  2.634600e+01
      vertex   5.042400e+01  3.039976e-01  2.632201e+01
      vertex   4.781800e+01  3.820080e-01  2.152400e+01
    endloop
  endfacet
  facet normal  4.144128e-02  9.990659e-01 -1.224660e-02
    outer loop
      vertex   3.830800e+01  6.160007e-01  6.287998e+00
      vertex   4.137200e+01  5.740011e-01  1.323000e+01
      vertex   3.863400e+01  6.000019e-01  6.085999e+00
    endloop
  endfacet
  facet normal  4.558353e-02  9.988614e-01 -1.407611e-02
    outer loop
      vertex   4.137200e+01  5.740011e-01  1.323000e+01
      vertex   3.830800e+01  6.160007e-01  6.287998e+00
      vertex   3.967400e+01  6.039997e-01  9.860001e+00
    endloop
  endfacet
  facet normal  4.087290e-02  9.990889e-01 -1.227391e-02
    outer loop
      vertex   3.967400e+01  6.039997e-01  9.860001e+00
      vertex   3.830800e+01  6.160007e-01  6.287998e+00
      vertex   3.797800e+01  6.320071e-01  6.492001e+00
    endloop
  endfacet
  facet normal  4.258576e-02  9.990292e-01 -1.128187e-02
    outer loop
      vertex   4.236000e+01  5.539969e-01  1.518800e+01
      vertex   4.473200e+01  4.740029e-01  1.705801e+01
      vertex   4.137200e+01  5.740011e-01  1.323000e+01
    endloop
  endfacet
  facet normal  4.654468e-02  9.987831e-01 -1.631407e-02
    outer loop
      vertex   4.473200e+01  4.740029e-01  1.705801e+01
      vertex   4.236000e+01  5.539969e-01  1.518800e+01
      vertex   4.334600e+01  5.399971e-01  1.714400e+01
    endloop
  endfacet
  facet normal  5.947576e-02  9.981003e-01 -1.607578e-02
    outer loop
      vertex   5.042400e+01  3.039976e-01  2.632201e+01
      vertex   4.874600e+01  3.260007e-01  2.148000e+01
      vertex   4.781800e+01  3.820080e-01  2.152400e+01
    endloop
  endfacet
  facet normal  4.174764e-02  9.990725e-01 -1.054508e-02
    outer loop
      vertex   4.473200e+01  4.740029e-01  1.705801e+01
      vertex   4.296600e+01  5.060005e-01  1.309800e+01
      vertex   4.137200e+01  5.740011e-01  1.323000e+01
    endloop
  endfacet
  facet normal  6.180969e-02  9.980399e-01 -9.797905e-03
    outer loop
      vertex   4.475200e+01  3.179971e-01  4.714001e+00
      vertex   4.465600e+01  3.240014e-01  4.720001e+00
      vertex   4.476600e+01  3.299905e-01  6.023998e+00
    endloop
  endfacet
  facet normal  5.491129e-02  9.984487e-01 -9.217856e-03
    outer loop
      vertex   4.354600e+01  3.979912e-01  6.122002e+00
      vertex   4.476600e+01  3.299905e-01  6.023998e+00
      vertex   4.465600e+01  3.240014e-01  4.720001e+00
    endloop
  endfacet
  facet normal  4.459748e-02  9.989421e-01 -1.120864e-02
    outer loop
      vertex   4.446200e+01  4.340020e-01  1.297600e+01
      vertex   4.354600e+01  3.979912e-01  6.122002e+00
      vertex   4.172400e+01  4.800070e-01  6.181999e+00
    endloop
  endfacet
  facet normal  4.680276e-02  9.987835e-01 -1.552515e-02
    outer loop
      vertex   4.296600e+01  5.060005e-01  1.309800e+01
      vertex   4.446200e+01  4.340020e-01  1.297600e+01
      vertex   3.863400e+01  6.000019e-01  6.085999e+00
    endloop
  endfacet
  facet normal  7.173540e-02  9.972419e-01 -1.903802e-02
    outer loop
      vertex   5.097200e+01  2.580077e-01  2.630600e+01
      vertex   4.946000e+01  2.739911e-01  2.144601e+01
      vertex   4.874600e+01  3.260007e-01  2.148000e+01
    endloop
  endfacet
  facet normal  7.168666e-02  9.972259e-01 -2.003714e-02
    outer loop
      vertex   4.874600e+01  3.260007e-01  2.148000e+01
      vertex   4.946000e+01  2.739911e-01  2.144601e+01
      vertex   4.716200e+01  3.480037e-01  1.690800e+01
    endloop
  endfacet
  facet normal  1.962593e-01  9.790479e-01 -5.429112e-02
    outer loop
      vertex   4.555400e+01  1.600076e-01  4.680000e+00
      vertex   4.484400e+01  3.039972e-01  4.709999e+00
      vertex   4.590200e+01  1.600077e-01  5.938000e+00
    endloop
  endfacet
  facet normal  1.479658e-01  9.881758e-01 -4.018348e-02
    outer loop
      vertex   4.676800e+01  3.060038e-01  1.280600e+01
      vertex   4.777800e+01  1.520046e-01  1.273800e+01
      vertex   4.476600e+01  3.299905e-01  6.023998e+00
    endloop
  endfacet
  facet normal  2.092709e-01  9.758884e-01 -6.202850e-02
    outer loop
      vertex   5.149200e+01  1.460082e-01  2.628800e+01
      vertex   5.152000e+01  1.400039e-01  2.628800e+01
      vertex   4.946000e+01  2.739911e-01  2.144601e+01
    endloop
  endfacet
  facet normal  4.973098e-02  9.986919e-01 -1.189339e-02
    outer loop
      vertex   4.446200e+01  4.340020e-01  1.297600e+01
      vertex   4.576400e+01  3.680002e-01  1.287800e+01
      vertex   4.354600e+01  3.979912e-01  6.122002e+00
    endloop
  endfacet
  facet normal  6.059995e-02  9.980589e-01 -1.435873e-02
    outer loop
      vertex   4.576400e+01  3.680002e-01  1.287800e+01
      vertex   4.676800e+01  3.060038e-01  1.280600e+01
      vertex   4.476600e+01  3.299905e-01  6.023998e+00
    endloop
  endfacet
  facet normal  1.498624e-01  9.886188e-01 -1.319504e-02
    outer loop
      vertex   4.484400e+01  3.039972e-01  4.709999e+00
      vertex   4.475200e+01  3.179971e-01  4.714001e+00
      vertex   4.590200e+01  1.600077e-01  5.938000e+00
    endloop
  endfacet
  facet normal  1.471897e-01  9.890512e-01 -1.062807e-02
    outer loop
      vertex   4.476600e+01  3.299905e-01  6.023998e+00
      vertex   4.590200e+01  1.600077e-01  5.938000e+00
      vertex   4.475200e+01  3.179971e-01  4.714001e+00
    endloop
  endfacet
  facet normal  5.456707e-02  9.984191e-01 -1.348229e-02
    outer loop
      vertex   4.576400e+01  3.680002e-01  1.287800e+01
      vertex   4.476600e+01  3.299905e-01  6.023998e+00
      vertex   4.354600e+01  3.979912e-01  6.122002e+00
    endloop
  endfacet
  facet normal  6.340057e-02  9.978549e-01 -1.630660e-02
    outer loop
      vertex   4.716200e+01  3.480037e-01  1.690800e+01
      vertex   4.803000e+01  2.920040e-01  1.685600e+01
      vertex   4.676800e+01  3.060038e-01  1.280600e+01
    endloop
  endfacet
  facet normal  5.948872e-02  9.981038e-01 -1.580685e-02
    outer loop
      vertex   4.781800e+01  3.820080e-01  2.152400e+01
      vertex   4.874600e+01  3.260007e-01  2.148000e+01
      vertex   4.716200e+01  3.480037e-01  1.690800e+01
    endloop
  endfacet
  facet normal  1.765217e-01  9.829674e-01 -5.113722e-02
    outer loop
      vertex   4.946000e+01  2.739911e-01  2.144601e+01
      vertex   5.017400e+01  1.440016e-01  2.141200e+01
      vertex   4.803000e+01  2.920040e-01  1.685600e+01
    endloop
  endfacet
  facet normal  5.154024e-02  9.985231e-01 -1.718349e-02
    outer loop
      vertex   4.560600e+01  5.000040e-01  2.163000e+01
      vertex   4.801000e+01  4.580044e-01  2.640000e+01
      vertex   4.675000e+01  4.399913e-01  2.157401e+01
    endloop
  endfacet
  facet normal  5.561356e-02  9.983358e-01 -1.525784e-02
    outer loop
      vertex   4.781800e+01  3.820080e-01  2.152400e+01
      vertex   4.716200e+01  3.480037e-01  1.690800e+01
      vertex   4.603200e+01  4.119913e-01  1.697601e+01
    endloop
  endfacet
  facet normal  5.344049e-02  9.984370e-01 -1.636053e-02
    outer loop
      vertex   4.675000e+01  4.399913e-01  2.157401e+01
      vertex   4.781800e+01  3.820080e-01  2.152400e+01
      vertex   4.473200e+01  4.740029e-01  1.705801e+01
    endloop
  endfacet
  facet normal  5.162152e-02  9.985458e-01 -1.554690e-02
    outer loop
      vertex   4.560600e+01  5.000040e-01  2.163000e+01
      vertex   4.675000e+01  4.399913e-01  2.157401e+01
      vertex   4.473200e+01  4.740029e-01  1.705801e+01
    endloop
  endfacet
  facet normal  2.081200e-01  9.761655e-01 -6.153819e-02
    outer loop
      vertex   5.097200e+01  2.580077e-01  2.630600e+01
      vertex   5.149200e+01  1.460082e-01  2.628800e+01
      vertex   4.946000e+01  2.739911e-01  2.144601e+01
    endloop
  endfacet
  facet normal  1.449969e-01  9.886695e-01 -3.883850e-02
    outer loop
      vertex   4.777800e+01  1.520046e-01  1.273800e+01
      vertex   4.590200e+01  1.600077e-01  5.938000e+00
      vertex   4.476600e+01  3.299905e-01  6.023998e+00
    endloop
  endfacet
  facet normal  1.580120e-01  9.863732e-01 -4.582770e-02
    outer loop
      vertex   4.803000e+01  2.920040e-01  1.685600e+01
      vertex   4.890200e+01  1.499905e-01  1.680600e+01
      vertex   4.676800e+01  3.060038e-01  1.280600e+01
    endloop
  endfacet
  facet normal  5.554950e-02  9.983226e-01 -1.630969e-02
    outer loop
      vertex   4.603200e+01  4.119913e-01  1.697601e+01
      vertex   4.716200e+01  3.480037e-01  1.690800e+01
      vertex   4.446200e+01  4.340020e-01  1.297600e+01
    endloop
  endfacet
  facet normal  3.938799e-02  9.991908e-01 -8.147058e-03
    outer loop
      vertex   4.191600e+01  4.620017e-01  4.902000e+00
      vertex   4.071600e+01  5.099905e-01  4.986000e+00
      vertex   4.172400e+01  4.800070e-01  6.181999e+00
    endloop
  endfacet
  facet normal  4.083110e-02  9.991346e-01 -7.929800e-03
    outer loop
      vertex   4.288200e+01  4.220008e-01  4.835999e+00
      vertex   4.191600e+01  4.620017e-01  4.902000e+00
      vertex   4.172400e+01  4.800070e-01  6.181999e+00
    endloop
  endfacet
  facet normal  4.000810e-02  9.991617e-01 -8.670418e-03
    outer loop
      vertex   4.071600e+01  5.099905e-01  4.986000e+00
      vertex   4.037200e+01  5.239903e-01  5.012001e+00
      vertex   4.172400e+01  4.800070e-01  6.181999e+00
    endloop
  endfacet
  facet normal  4.119237e-02  9.991007e-01 -1.004119e-02
    outer loop
      vertex   4.172400e+01  4.800070e-01  6.181999e+00
      vertex   4.037200e+01  5.239903e-01  5.012001e+00
      vertex   3.995000e+01  5.440022e-01  5.271999e+00
    endloop
  endfacet
  facet normal  3.898483e-02  9.992234e-01 -5.729087e-03
    outer loop
      vertex   4.172400e+01  4.800070e-01  6.181999e+00
      vertex   3.995000e+01  5.440022e-01  5.271999e+00
      vertex   3.929200e+01  5.720021e-01  5.678001e+00
    endloop
  endfacet
  facet normal  1.582271e-01  9.864915e-01 -4.241350e-02
    outer loop
      vertex   5.017400e+01  1.440016e-01  2.141200e+01
      vertex   4.890200e+01  1.499905e-01  1.680600e+01
      vertex   4.803000e+01  2.920040e-01  1.685600e+01
    endloop
  endfacet
  facet normal  4.160107e-02  9.990585e-01 -1.230787e-02
    outer loop
      vertex   4.137200e+01  5.740011e-01  1.323000e+01
      vertex   4.296600e+01  5.060005e-01  1.309800e+01
      vertex   3.863400e+01  6.000019e-01  6.085999e+00
    endloop
  endfacet
  facet normal  6.253497e-02  9.978669e-01 -1.874087e-02
    outer loop
      vertex   4.888800e+01  4.060025e-01  2.637200e+01
      vertex   4.971000e+01  3.540006e-01  2.634600e+01
      vertex   4.781800e+01  3.820080e-01  2.152400e+01
    endloop
  endfacet
  facet normal  4.970035e-02  9.987642e-01 -2.833722e-04
    outer loop
      vertex   4.380600e+01  3.760033e-01  4.773998e+00
      vertex   4.288200e+01  4.220008e-01  4.835999e+00
      vertex   4.172400e+01  4.800070e-01  6.181999e+00
    endloop
  endfacet
  facet normal  6.342859e-02  9.978606e-01 -1.584499e-02
    outer loop
      vertex   4.946000e+01  2.739911e-01  2.144601e+01
      vertex   4.803000e+01  2.920040e-01  1.685600e+01
      vertex   4.716200e+01  3.480037e-01  1.690800e+01
    endloop
  endfacet
  facet normal  6.341310e-02  9.979861e-01 -1.607058e-03
    outer loop
      vertex   4.439200e+01  3.420067e-01  4.737999e+00
      vertex   4.395200e+01  3.700066e-01  4.764000e+00
      vertex   4.354600e+01  3.979912e-01  6.122002e+00
    endloop
  endfacet
  facet normal  6.813145e-02  9.976755e-01  1.289706e-03
    outer loop
      vertex   4.465600e+01  3.240014e-01  4.720001e+00
      vertex   4.439200e+01  3.420067e-01  4.737999e+00
      vertex   4.354600e+01  3.979912e-01  6.122002e+00
    endloop
  endfacet
  facet normal  4.689927e-02  9.988296e-01 -1.183248e-02
    outer loop
      vertex   4.781800e+01  3.820080e-01  2.152400e+01
      vertex   4.603200e+01  4.119913e-01  1.697601e+01
      vertex   4.473200e+01  4.740029e-01  1.705801e+01
    endloop
  endfacet
  facet normal  4.970128e-02  9.986886e-01 -1.228587e-02
    outer loop
      vertex   4.716200e+01  3.480037e-01  1.690800e+01
      vertex   4.576400e+01  3.680002e-01  1.287800e+01
      vertex   4.446200e+01  4.340020e-01  1.297600e+01
    endloop
  endfacet
  facet normal  3.154655e-01 -9.449159e-01 -8.726699e-02
    outer loop
      vertex   4.555400e+01  1.600076e-01  4.680000e+00
      vertex   4.590200e+01  1.600077e-01  5.938000e+00
      vertex   4.544400e+01  1.219904e-01  4.694000e+00
    endloop
  endfacet
  facet normal  1.716815e-01 -9.845957e-01 -3.311776e-02
    outer loop
      vertex   4.544400e+01  1.219904e-01  4.694000e+00
      vertex   4.590200e+01  1.600077e-01  5.938000e+00
      vertex   4.539400e+01  1.060068e-01  4.910000e+00
    endloop
  endfacet
  facet normal  2.415205e-01 -9.680244e-01 -6.779791e-02
    outer loop
      vertex   4.607800e+01  1.060068e-01  7.335999e+00
      vertex   4.567400e+01  1.020014e-01  5.953999e+00
      vertex   4.590200e+01  1.600077e-01  5.938000e+00
    endloop
  endfacet
  facet normal  2.748341e-01 -9.579733e-01 -8.217856e-02
    outer loop
      vertex   5.033400e+01  1.060072e-01  2.239001e+01
      vertex   5.003000e+01  1.020017e-01  2.142001e+01
      vertex   5.017400e+01  1.440016e-01  2.141200e+01
    endloop
  endfacet
  facet normal  2.647925e-01 -9.614440e-01 -7.423255e-02
    outer loop
      vertex   4.873000e+01  1.020016e-01  1.681400e+01
      vertex   4.790800e+01  1.060070e-01  1.383000e+01
      vertex   4.890200e+01  1.499905e-01  1.680600e+01
    endloop
  endfacet
  facet normal  2.864099e-01 -9.547331e-01 -8.033670e-02
    outer loop
      vertex   5.017400e+01  1.440016e-01  2.141200e+01
      vertex   4.901400e+01  1.060071e-01  1.772800e+01
      vertex   4.890200e+01  1.499905e-01  1.680600e+01
    endloop
  endfacet
  facet normal  2.538268e-01 -9.647153e-01 -6.997415e-02
    outer loop
      vertex   4.901400e+01  1.060071e-01  1.772800e+01
      vertex   5.017400e+01  1.440016e-01  2.141200e+01
      vertex   4.911600e+01  1.060071e-01  1.809800e+01
    endloop
  endfacet
  facet normal  2.416921e-01 -9.679803e-01 -6.781780e-02
    outer loop
      vertex   4.777800e+01  1.520046e-01  1.273800e+01
      vertex   4.607800e+01  1.060068e-01  7.335999e+00
      vertex   4.590200e+01  1.600077e-01  5.938000e+00
    endloop
  endfacet
  facet normal  2.341026e-01 -9.700090e-01 -6.541213e-02
    outer loop
      vertex   4.607800e+01  1.060068e-01  7.335999e+00
      vertex   4.777800e+01  1.520046e-01  1.273800e+01
      vertex   4.619200e+01  1.060068e-01  7.743999e+00
    endloop
  endfacet
  facet normal  2.398292e-01 -9.684834e-01 -6.724486e-02
    outer loop
      vertex   4.758000e+01  1.020015e-01  1.275200e+01
      vertex   4.619200e+01  1.060068e-01  7.743999e+00
      vertex   4.777800e+01  1.520046e-01  1.273800e+01
    endloop
  endfacet
  facet normal  2.554072e-01 -9.642196e-01 -7.104714e-02
    outer loop
      vertex   4.890200e+01  1.499905e-01  1.680600e+01
      vertex   4.782800e+01  1.060070e-01  1.354200e+01
      vertex   4.777800e+01  1.520046e-01  1.273800e+01
    endloop
  endfacet
  facet normal  2.536013e-01 -9.647403e-01 -7.044590e-02
    outer loop
      vertex   4.782800e+01  1.060070e-01  1.354200e+01
      vertex   4.890200e+01  1.499905e-01  1.680600e+01
      vertex   4.790800e+01  1.060070e-01  1.383000e+01
    endloop
  endfacet
  facet normal  2.752246e-01 -9.583012e-01 -7.687896e-02
    outer loop
      vertex   5.003000e+01  1.020017e-01  2.142001e+01
      vertex   4.911600e+01  1.060071e-01  1.809800e+01
      vertex   5.017400e+01  1.440016e-01  2.141200e+01
    endloop
  endfacet
  facet normal  2.414645e-01 -9.679908e-01 -6.847419e-02
    outer loop
      vertex   4.567400e+01  1.020014e-01  5.953999e+00
      vertex   4.539400e+01  1.060068e-01  4.910000e+00
      vertex   4.590200e+01  1.600077e-01  5.938000e+00
    endloop
  endfacet
  facet normal  2.645530e-01 -9.612123e-01 -7.799076e-02
    outer loop
      vertex   4.901400e+01  1.060071e-01  1.772800e+01
      vertex   4.873000e+01  1.020016e-01  1.681400e+01
      vertex   4.890200e+01  1.499905e-01  1.680600e+01
    endloop
  endfacet
  facet normal  3.191001e-01 -9.435459e-01 -8.885992e-02
    outer loop
      vertex   5.152000e+01  1.400039e-01  2.628800e+01
      vertex   5.033400e+01  1.060072e-01  2.239001e+01
      vertex   5.017400e+01  1.440016e-01  2.141200e+01
    endloop
  endfacet
  facet normal  3.223445e-01 -9.423479e-01 -8.985753e-02
    outer loop
      vertex   5.033400e+01  1.060072e-01  2.239001e+01
      vertex   5.152000e+01  1.400039e-01  2.628800e+01
      vertex   5.046000e+01  1.060072e-01  2.284200e+01
    endloop
  endfacet
  facet normal  2.395745e-01 -9.683296e-01 -7.029768e-02
    outer loop
      vertex   4.782800e+01  1.060070e-01  1.354200e+01
      vertex   4.758000e+01  1.020015e-01  1.275200e+01
      vertex   4.777800e+01  1.520046e-01  1.273800e+01
    endloop
  endfacet
  facet normal  3.222951e-01 -9.423664e-01 -8.984213e-02
    outer loop
      vertex   5.152000e+01  1.400039e-01  2.628800e+01
      vertex   5.141000e+01  1.020019e-01  2.629200e+01
      vertex   5.046000e+01  1.060072e-01  2.284200e+01
    endloop
  endfacet
  facet normal  2.252446e-01  9.714417e-01 -7.460423e-02
    outer loop
      vertex   5.033400e+01  1.060072e-01  2.239001e+01
      vertex   5.017400e+01  6.799755e-02  2.141200e+01
      vertex   5.003000e+01  1.020017e-01  2.142001e+01
    endloop
  endfacet
  facet normal  2.014841e-01  9.775445e-01 -6.173298e-02
    outer loop
      vertex   4.607800e+01  1.060068e-01  7.335999e+00
      vertex   4.590200e+01  5.399724e-02  5.938000e+00
      vertex   4.567400e+01  1.020014e-01  5.953999e+00
    endloop
  endfacet
  facet normal  3.127391e-01  9.459161e-01 -8.623853e-02
    outer loop
      vertex   4.555400e+01  5.399721e-02  4.675999e+00
      vertex   4.544400e+01  9.200684e-02  4.694000e+00
      vertex   4.590200e+01  5.399724e-02  5.938000e+00
    endloop
  endfacet
  facet normal  1.570081e-01  9.872104e-01 -2.764171e-02
    outer loop
      vertex   4.590200e+01  5.399724e-02  5.938000e+00
      vertex   4.544400e+01  9.200684e-02  4.694000e+00
      vertex   4.539400e+01  1.060068e-01  4.910000e+00
    endloop
  endfacet
  facet normal  2.348409e-01  9.698147e-01 -6.564481e-02
    outer loop
      vertex   4.607800e+01  1.060068e-01  7.335999e+00
      vertex   4.777800e+01  6.000173e-02  1.273800e+01
      vertex   4.590200e+01  5.399724e-02  5.938000e+00
    endloop
  endfacet
  facet normal  2.341391e-01  9.699994e-01 -6.542236e-02
    outer loop
      vertex   4.777800e+01  6.000173e-02  1.273800e+01
      vertex   4.607800e+01  1.060068e-01  7.335999e+00
      vertex   4.619200e+01  1.060068e-01  7.743999e+00
    endloop
  endfacet
  facet normal  2.034208e-01  9.775115e-01 -5.559764e-02
    outer loop
      vertex   4.758000e+01  1.020015e-01  1.275200e+01
      vertex   4.777800e+01  6.000173e-02  1.273800e+01
      vertex   4.619200e+01  1.060068e-01  7.743999e+00
    endloop
  endfacet
  facet normal  2.865402e-01  9.546909e-01 -8.037426e-02
    outer loop
      vertex   4.901400e+01  1.060071e-01  1.772800e+01
      vertex   5.017400e+01  6.799755e-02  2.141200e+01
      vertex   4.890200e+01  6.200074e-02  1.680600e+01
    endloop
  endfacet
  facet normal  2.539215e-01  9.646885e-01 -7.000030e-02
    outer loop
      vertex   5.017400e+01  6.799755e-02  2.141200e+01
      vertex   4.901400e+01  1.060071e-01  1.772800e+01
      vertex   4.911600e+01  1.060071e-01  1.809800e+01
    endloop
  endfacet
  facet normal  2.234455e-01  9.728527e-01 -6.024637e-02
    outer loop
      vertex   4.873000e+01  1.020016e-01  1.681400e+01
      vertex   4.890200e+01  6.200074e-02  1.680600e+01
      vertex   4.790800e+01  1.060070e-01  1.383000e+01
    endloop
  endfacet
  facet normal  3.222728e-01  9.424208e-01 -8.934999e-02
    outer loop
      vertex   5.033400e+01  1.060072e-01  2.239001e+01
      vertex   5.152000e+01  7.000420e-02  2.628800e+01
      vertex   5.017400e+01  6.799755e-02  2.141200e+01
    endloop
  endfacet
  facet normal  3.390690e-01  9.360012e-01 -9.451967e-02
    outer loop
      vertex   5.152000e+01  7.000420e-02  2.628800e+01
      vertex   5.033400e+01  1.060072e-01  2.239001e+01
      vertex   5.046000e+01  1.060072e-01  2.284200e+01
    endloop
  endfacet
  facet normal  2.554626e-01  9.642041e-01 -7.105886e-02
    outer loop
      vertex   4.782800e+01  1.060070e-01  1.354200e+01
      vertex   4.890200e+01  6.200074e-02  1.680600e+01
      vertex   4.777800e+01  6.000173e-02  1.273800e+01
    endloop
  endfacet
  facet normal  2.537234e-01  9.647057e-01 -7.047988e-02
    outer loop
      vertex   4.890200e+01  6.200074e-02  1.680600e+01
      vertex   4.782800e+01  1.060070e-01  1.354200e+01
      vertex   4.790800e+01  1.060070e-01  1.383000e+01
    endloop
  endfacet
  facet normal  2.023679e-01  9.780055e-01 -5.052251e-02
    outer loop
      vertex   4.567400e+01  1.020014e-01  5.953999e+00
      vertex   4.590200e+01  5.399724e-02  5.938000e+00
      vertex   4.539400e+01  1.060068e-01  4.910000e+00
    endloop
  endfacet
  facet normal  2.226621e-01  9.721251e-01 -7.344680e-02
    outer loop
      vertex   4.901400e+01  1.060071e-01  1.772800e+01
      vertex   4.890200e+01  6.200074e-02  1.680600e+01
      vertex   4.873000e+01  1.020016e-01  1.681400e+01
    endloop
  endfacet
  facet normal  2.261709e-01  9.721723e-01 -6.105506e-02
    outer loop
      vertex   5.003000e+01  1.020017e-01  2.142001e+01
      vertex   5.017400e+01  6.799755e-02  2.141200e+01
      vertex   4.911600e+01  1.060071e-01  1.809800e+01
    endloop
  endfacet
  facet normal  2.769531e-01  9.579376e-01 -7.518342e-02
    outer loop
      vertex   5.148600e+01  7.999107e-02  2.629000e+01
      vertex   5.152000e+01  7.000420e-02  2.628800e+01
      vertex   5.046000e+01  1.060072e-01  2.284200e+01
    endloop
  endfacet
  facet normal  2.427838e-01  9.679043e-01 -6.494066e-02
    outer loop
      vertex   5.147000e+01  8.400413e-02  2.629000e+01
      vertex   5.148600e+01  7.999107e-02  2.629000e+01
      vertex   5.046000e+01  1.060072e-01  2.284200e+01
    endloop
  endfacet
  facet normal  2.840950e-01  9.556895e-01 -7.711967e-02
    outer loop
      vertex   5.141000e+01  1.020019e-01  2.629200e+01
      vertex   5.147000e+01  8.400413e-02  2.629000e+01
      vertex   5.046000e+01  1.060072e-01  2.284200e+01
    endloop
  endfacet
  facet normal  2.023818e-01  9.769092e-01 -6.848487e-02
    outer loop
      vertex   4.782800e+01  1.060070e-01  1.354200e+01
      vertex   4.777800e+01  6.000173e-02  1.273800e+01
      vertex   4.758000e+01  1.020015e-01  1.275200e+01
    endloop
  endfacet
  facet normal  5.342304e-02 -9.984318e-01 -1.673097e-02
    outer loop
      vertex   4.888800e+01 -1.939960e-01  2.637200e+01
      vertex   4.675000e+01 -2.279927e-01  2.157401e+01
      vertex   4.781800e+01 -1.700092e-01  2.152400e+01
    endloop
  endfacet
  facet normal  4.682674e-02 -9.988199e-01 -1.288512e-02
    outer loop
      vertex   4.473200e+01 -2.619971e-01  1.705801e+01
      vertex   4.446200e+01 -2.219962e-01  1.297600e+01
      vertex   4.603200e+01 -1.999929e-01  1.697601e+01
    endloop
  endfacet
  facet normal  8.290292e-02 -9.962637e-01 -2.420118e-02
    outer loop
      vertex   5.097200e+01 -4.600842e-02  2.630600e+01
      vertex   5.042400e+01 -9.199846e-02  2.632201e+01
      vertex   4.874600e+01 -1.140094e-01  2.148000e+01
    endloop
  endfacet
  facet normal  4.702356e-02 -9.988105e-01 -1.289805e-02
    outer loop
      vertex   4.473200e+01 -2.619971e-01  1.705801e+01
      vertex   4.296600e+01 -2.940026e-01  1.309800e+01
      vertex   4.446200e+01 -2.219962e-01  1.297600e+01
    endloop
  endfacet
  facet normal  4.665772e-02 -9.988043e-01 -1.459944e-02
    outer loop
      vertex   4.560600e+01 -2.879980e-01  2.163000e+01
      vertex   4.334600e+01 -3.279991e-01  1.714400e+01
      vertex   4.473200e+01 -2.619971e-01  1.705801e+01
    endloop
  endfacet
  facet normal  4.471307e-02 -9.989700e-01 -7.742415e-03
    outer loop
      vertex   4.172400e+01 -2.680094e-01  6.181999e+00
      vertex   4.380400e+01 -1.639976e-01  4.773998e+00
      vertex   4.354600e+01 -1.859932e-01  6.122002e+00
    endloop
  endfacet
  facet normal  5.348594e-02 -9.985502e-01 -6.056468e-03
    outer loop
      vertex   4.395200e+01 -1.560096e-01  4.764000e+00
      vertex   4.354600e+01 -1.859932e-01  6.122002e+00
      vertex   4.380400e+01 -1.639976e-01  4.773998e+00
    endloop
  endfacet
  facet normal  3.907885e-02 -9.991958e-01 -8.981708e-03
    outer loop
      vertex   4.446200e+01 -2.219962e-01  1.297600e+01
      vertex   3.863400e+01 -3.879971e-01  6.085999e+00
      vertex   4.172400e+01 -2.680094e-01  6.181999e+00
    endloop
  endfacet
  facet normal  4.136014e-02 -9.989190e-01 -2.122270e-02
    outer loop
      vertex   4.172400e+01 -2.680094e-01  6.181999e+00
      vertex   3.896200e+01 -3.759961e-01  5.882000e+00
      vertex   3.929200e+01 -3.579983e-01  5.678001e+00
    endloop
  endfacet
  facet normal  3.869515e-02 -9.992452e-01  3.430500e-03
    outer loop
      vertex   3.896200e+01 -3.759961e-01  5.882000e+00
      vertex   4.172400e+01 -2.680094e-01  6.181999e+00
      vertex   3.863400e+01 -3.879971e-01  6.085999e+00
    endloop
  endfacet
  facet normal  6.049433e-02 -9.980398e-01 -1.602933e-02
    outer loop
      vertex   4.716200e+01 -1.359975e-01  1.690800e+01
      vertex   4.576400e+01 -1.560095e-01  1.287800e+01
      vertex   4.676800e+01 -9.399768e-02  1.280600e+01
    endloop
  endfacet
  facet normal  4.259636e-02 -9.990286e-01 -1.129104e-02
    outer loop
      vertex   4.473200e+01 -2.619971e-01  1.705801e+01
      vertex   4.236000e+01 -3.419992e-01  1.518800e+01
      vertex   4.137200e+01 -3.619959e-01  1.323000e+01
    endloop
  endfacet
  facet normal  4.655014e-02 -9.987827e-01 -1.631672e-02
    outer loop
      vertex   4.236000e+01 -3.419992e-01  1.518800e+01
      vertex   4.473200e+01 -2.619971e-01  1.705801e+01
      vertex   4.334600e+01 -3.279991e-01  1.714400e+01
    endloop
  endfacet
  facet normal  1.479509e-01 -9.881694e-01 -4.039368e-02
    outer loop
      vertex   4.890200e+01  6.200074e-02  1.680600e+01
      vertex   4.676800e+01 -9.399768e-02  1.280600e+01
      vertex   4.777800e+01  6.000173e-02  1.273800e+01
    endloop
  endfacet
  facet normal  3.649914e-02 -9.992800e-01 -1.035163e-02
    outer loop
      vertex   4.137200e+01 -3.619959e-01  1.323000e+01
      vertex   3.830800e+01 -4.019971e-01  6.287998e+00
      vertex   3.863400e+01 -3.879971e-01  6.085999e+00
    endloop
  endfacet
  facet normal  4.071462e-02 -9.990962e-01 -1.221329e-02
    outer loop
      vertex   3.830800e+01 -4.019971e-01  6.287998e+00
      vertex   4.137200e+01 -3.619959e-01  1.323000e+01
      vertex   3.967400e+01 -3.899959e-01  9.860001e+00
    endloop
  endfacet
  facet normal  4.087301e-02 -9.990889e-01 -1.227389e-02
    outer loop
      vertex   3.830800e+01 -4.019971e-01  6.287998e+00
      vertex   3.967400e+01 -3.899959e-01  9.860001e+00
      vertex   3.797800e+01 -4.180036e-01  6.492001e+00
    endloop
  endfacet
  facet normal  1.766744e-01 -9.830803e-01 -4.836572e-02
    outer loop
      vertex   5.152000e+01  7.000420e-02  2.628800e+01
      vertex   4.946000e+01 -6.199213e-02  2.144601e+01
      vertex   5.017400e+01  6.799755e-02  2.141200e+01
    endloop
  endfacet
  facet normal  6.074104e-02 -9.979532e-01 -1.999529e-02
    outer loop
      vertex   4.888800e+01 -1.939960e-01  2.637200e+01
      vertex   4.801000e+01 -2.479969e-01  2.640000e+01
      vertex   4.675000e+01 -2.279927e-01  2.157401e+01
    endloop
  endfacet
  facet normal  6.914230e-02 -9.973786e-01 -2.133773e-02
    outer loop
      vertex   5.042400e+01 -9.199846e-02  2.632201e+01
      vertex   4.971000e+01 -1.420092e-01  2.634600e+01
      vertex   4.781800e+01 -1.700092e-01  2.152400e+01
    endloop
  endfacet
  facet normal  5.946797e-02 -9.981008e-01 -1.607144e-02
    outer loop
      vertex   5.042400e+01 -9.199846e-02  2.632201e+01
      vertex   4.781800e+01 -1.700092e-01  2.152400e+01
      vertex   4.874600e+01 -1.140094e-01  2.148000e+01
    endloop
  endfacet
  facet normal  7.174601e-02 -9.972411e-01 -1.904127e-02
    outer loop
      vertex   5.097200e+01 -4.600842e-02  2.630600e+01
      vertex   4.874600e+01 -1.140094e-01  2.148000e+01
      vertex   4.946000e+01 -6.199213e-02  2.144601e+01
    endloop
  endfacet
  facet normal  7.169709e-02 -9.972250e-01 -2.004403e-02
    outer loop
      vertex   4.874600e+01 -1.140094e-01  2.148000e+01
      vertex   4.716200e+01 -1.359975e-01  1.690800e+01
      vertex   4.946000e+01 -6.199213e-02  2.144601e+01
    endloop
  endfacet
  facet normal  4.459772e-02 -9.989421e-01 -1.120754e-02
    outer loop
      vertex   4.446200e+01 -2.219962e-01  1.297600e+01
      vertex   4.172400e+01 -2.680094e-01  6.181999e+00
      vertex   4.354600e+01 -1.859932e-01  6.122002e+00
    endloop
  endfacet
  facet normal  5.666105e-02 -9.983634e-01 -7.741601e-03
    outer loop
      vertex   4.354600e+01 -1.859932e-01  6.122002e+00
      vertex   4.465800e+01 -1.119956e-01  4.717999e+00
      vertex   4.476600e+01 -1.159934e-01  6.023998e+00
    endloop
  endfacet
  facet normal  6.313873e-02 -9.979705e-01 -8.276059e-03
    outer loop
      vertex   4.475200e+01 -1.059989e-01  4.712002e+00
      vertex   4.476600e+01 -1.159934e-01  6.023998e+00
      vertex   4.465800e+01 -1.119956e-01  4.717999e+00
    endloop
  endfacet
  facet normal  4.174336e-02 -9.990727e-01 -1.054117e-02
    outer loop
      vertex   4.473200e+01 -2.619971e-01  1.705801e+01
      vertex   4.137200e+01 -3.619959e-01  1.323000e+01
      vertex   4.296600e+01 -2.940026e-01  1.309800e+01
    endloop
  endfacet
  facet normal  4.680768e-02 -9.987832e-01 -1.552917e-02
    outer loop
      vertex   4.296600e+01 -2.940026e-01  1.309800e+01
      vertex   3.863400e+01 -3.879971e-01  6.085999e+00
      vertex   4.446200e+01 -2.219962e-01  1.297600e+01
    endloop
  endfacet
  facet normal  4.971968e-02 -9.986924e-01 -1.189075e-02
    outer loop
      vertex   4.446200e+01 -2.219962e-01  1.297600e+01
      vertex   4.354600e+01 -1.859932e-01  6.122002e+00
      vertex   4.576400e+01 -1.560095e-01  1.287800e+01
    endloop
  endfacet
  facet normal  5.948070e-02 -9.981043e-01 -1.580734e-02
    outer loop
      vertex   4.781800e+01 -1.700092e-01  2.152400e+01
      vertex   4.716200e+01 -1.359975e-01  1.690800e+01
      vertex   4.874600e+01 -1.140094e-01  2.148000e+01
    endloop
  endfacet
  facet normal  1.479456e-01 -9.881672e-01 -4.046762e-02
    outer loop
      vertex   4.676800e+01 -9.399768e-02  1.280600e+01
      vertex   4.476600e+01 -1.159934e-01  6.023998e+00
      vertex   4.777800e+01  6.000173e-02  1.273800e+01
    endloop
  endfacet
  facet normal  6.340075e-02 -9.978549e-01 -1.630660e-02
    outer loop
      vertex   4.716200e+01 -1.359975e-01  1.690800e+01
      vertex   4.676800e+01 -9.399768e-02  1.280600e+01
      vertex   4.803000e+01 -7.999763e-02  1.685600e+01
    endloop
  endfacet
  facet normal  2.081201e-01 -9.761655e-01 -6.153817e-02
    outer loop
      vertex   5.097200e+01 -4.600842e-02  2.630600e+01
      vertex   4.946000e+01 -6.199213e-02  2.144601e+01
      vertex   5.149200e+01  6.599113e-02  2.628800e+01
    endloop
  endfacet
  facet normal  1.417958e-01 -9.893337e-01 -3.335630e-02
    outer loop
      vertex   5.149200e+01  6.599113e-02  2.628800e+01
      vertex   4.946000e+01 -6.199213e-02  2.144601e+01
      vertex   5.152000e+01  7.000420e-02  2.628800e+01
    endloop
  endfacet
  facet normal  1.473112e-01 -9.890482e-01 -9.106273e-03
    outer loop
      vertex   4.476600e+01 -1.159934e-01  6.023998e+00
      vertex   4.475200e+01 -1.059989e-01  4.712002e+00
      vertex   4.590200e+01  5.399724e-02  5.938000e+00
    endloop
  endfacet
  facet normal  1.499327e-01 -9.886280e-01 -1.162008e-02
    outer loop
      vertex   4.484400e+01 -9.199895e-02  4.708000e+00
      vertex   4.590200e+01  5.399724e-02  5.938000e+00
      vertex   4.475200e+01 -1.059989e-01  4.712002e+00
    endloop
  endfacet
  facet normal  1.765218e-01 -9.829674e-01 -5.113882e-02
    outer loop
      vertex   4.946000e+01 -6.199213e-02  2.144601e+01
      vertex   4.803000e+01 -7.999763e-02  1.685600e+01
      vertex   5.017400e+01  6.799755e-02  2.141200e+01
    endloop
  endfacet
  facet normal  5.562029e-02 -9.983354e-01 -1.526042e-02
    outer loop
      vertex   4.781800e+01 -1.700092e-01  2.152400e+01
      vertex   4.603200e+01 -1.999929e-01  1.697601e+01
      vertex   4.716200e+01 -1.359975e-01  1.690800e+01
    endloop
  endfacet
  facet normal  5.151362e-02 -9.985174e-01 -1.758847e-02
    outer loop
      vertex   4.801000e+01 -2.479969e-01  2.640000e+01
      vertex   4.560600e+01 -2.879980e-01  2.163000e+01
      vertex   4.675000e+01 -2.279927e-01  2.157401e+01
    endloop
  endfacet
  facet normal  1.987413e-01 -9.785185e-01 -5.480333e-02
    outer loop
      vertex   4.555400e+01  5.399721e-02  4.675999e+00
      vertex   4.590200e+01  5.399724e-02  5.938000e+00
      vertex   4.484400e+01 -9.199895e-02  4.708000e+00
    endloop
  endfacet
  facet normal  4.083456e-02 -9.991220e-01 -9.367839e-03
    outer loop
      vertex   4.192000e+01 -2.479974e-01  4.902000e+00
      vertex   4.172400e+01 -2.680094e-01  6.181999e+00
      vertex   4.071600e+01 -2.979930e-01  4.986000e+00
    endloop
  endfacet
  facet normal  3.879945e-02 -9.992001e-01 -9.680685e-03
    outer loop
      vertex   4.288200e+01 -2.100030e-01  4.835999e+00
      vertex   4.172400e+01 -2.680094e-01  6.181999e+00
      vertex   4.192000e+01 -2.479974e-01  4.902000e+00
    endloop
  endfacet
  facet normal  5.615560e-02 -9.983238e-01 -1.400531e-02
    outer loop
      vertex   4.576400e+01 -1.560095e-01  1.287800e+01
      vertex   4.354600e+01 -1.859932e-01  6.122002e+00
      vertex   4.476600e+01 -1.159934e-01  6.023998e+00
    endloop
  endfacet
  facet normal  6.059417e-02 -9.980550e-01 -1.465003e-02
    outer loop
      vertex   4.576400e+01 -1.560095e-01  1.287800e+01
      vertex   4.476600e+01 -1.159934e-01  6.023998e+00
      vertex   4.676800e+01 -9.399768e-02  1.280600e+01
    endloop
  endfacet
  facet normal  5.161509e-02 -9.985460e-01 -1.554563e-02
    outer loop
      vertex   4.560600e+01 -2.879980e-01  2.163000e+01
      vertex   4.473200e+01 -2.619971e-01  1.705801e+01
      vertex   4.675000e+01 -2.279927e-01  2.157401e+01
    endloop
  endfacet
  facet normal  5.555613e-02 -9.983223e-01 -1.631413e-02
    outer loop
      vertex   4.603200e+01 -1.999929e-01  1.697601e+01
      vertex   4.446200e+01 -2.219962e-01  1.297600e+01
      vertex   4.716200e+01 -1.359975e-01  1.690800e+01
    endloop
  endfacet
  facet normal  5.344058e-02 -9.984369e-01 -1.636219e-02
    outer loop
      vertex   4.675000e+01 -2.279927e-01  2.157401e+01
      vertex   4.473200e+01 -2.619971e-01  1.705801e+01
      vertex   4.781800e+01 -1.700092e-01  2.152400e+01
    endloop
  endfacet
  facet normal  1.449808e-01 -9.886606e-01 -3.912463e-02
    outer loop
      vertex   4.777800e+01  6.000173e-02  1.273800e+01
      vertex   4.476600e+01 -1.159934e-01  6.023998e+00
      vertex   4.590200e+01  5.399724e-02  5.938000e+00
    endloop
  endfacet
  facet normal  1.666356e-02 -9.997228e-01  1.663182e-02
    outer loop
      vertex   4.037400e+01 -3.100093e-01  5.009998e+00
      vertex   4.172400e+01 -2.680094e-01  6.181999e+00
      vertex   4.037200e+01 -3.100093e-01  5.012001e+00
    endloop
  endfacet
  facet normal  3.481316e-02 -9.993847e-01 -4.286360e-03
    outer loop
      vertex   4.071600e+01 -2.979930e-01  4.986000e+00
      vertex   4.172400e+01 -2.680094e-01  6.181999e+00
      vertex   4.037400e+01 -3.100093e-01  5.009998e+00
    endloop
  endfacet
  facet normal  4.055187e-02 -9.991170e-01 -1.099418e-02
    outer loop
      vertex   4.037200e+01 -3.100093e-01  5.012001e+00
      vertex   4.172400e+01 -2.680094e-01  6.181999e+00
      vertex   3.995000e+01 -3.299983e-01  5.271999e+00
    endloop
  endfacet
  facet normal  3.836853e-02 -9.992411e-01 -6.729420e-03
    outer loop
      vertex   3.995000e+01 -3.299983e-01  5.271999e+00
      vertex   4.172400e+01 -2.680094e-01  6.181999e+00
      vertex   3.929200e+01 -3.579983e-01  5.678001e+00
    endloop
  endfacet
  facet normal  1.579957e-01 -9.863760e-01 -4.582254e-02
    outer loop
      vertex   4.803000e+01 -7.999763e-02  1.685600e+01
      vertex   4.676800e+01 -9.399768e-02  1.280600e+01
      vertex   4.890200e+01  6.200074e-02  1.680600e+01
    endloop
  endfacet
  facet normal  4.982337e-02 -9.987581e-01 -1.774576e-04
    outer loop
      vertex   4.380400e+01 -1.639976e-01  4.773998e+00
      vertex   4.172400e+01 -2.680094e-01  6.181999e+00
      vertex   4.288200e+01 -2.100030e-01  4.835999e+00
    endloop
  endfacet
  facet normal  6.342866e-02 -9.978605e-01 -1.584662e-02
    outer loop
      vertex   4.946000e+01 -6.199213e-02  2.144601e+01
      vertex   4.716200e+01 -1.359975e-01  1.690800e+01
      vertex   4.803000e+01 -7.999763e-02  1.685600e+01
    endloop
  endfacet
  facet normal  5.846208e-02 -9.982792e-01 -4.562767e-03
    outer loop
      vertex   4.429200e+01 -1.359977e-01  4.742001e+00
      vertex   4.354600e+01 -1.859932e-01  6.122002e+00
      vertex   4.395200e+01 -1.560096e-01  4.764000e+00
    endloop
  endfacet
  facet normal  6.538621e-02 -9.978597e-01 -8.045231e-04
    outer loop
      vertex   4.465800e+01 -1.119956e-01  4.717999e+00
      vertex   4.354600e+01 -1.859932e-01  6.122002e+00
      vertex   4.429200e+01 -1.359977e-01  4.742001e+00
    endloop
  endfacet
  facet normal  1.582108e-01 -9.864944e-01 -4.240732e-02
    outer loop
      vertex   5.017400e+01  6.799755e-02  2.141200e+01
      vertex   4.803000e+01 -7.999763e-02  1.685600e+01
      vertex   4.890200e+01  6.200074e-02  1.680600e+01
    endloop
  endfacet
  facet normal  6.251690e-02 -9.978681e-01 -1.873528e-02
    outer loop
      vertex   4.971000e+01 -1.420092e-01  2.634600e+01
      vertex   4.888800e+01 -1.939960e-01  2.637200e+01
      vertex   4.781800e+01 -1.700092e-01  2.152400e+01
    endloop
  endfacet
  facet normal  4.689375e-02 -9.988298e-01 -1.183024e-02
    outer loop
      vertex   4.781800e+01 -1.700092e-01  2.152400e+01
      vertex   4.473200e+01 -2.619971e-01  1.705801e+01
      vertex   4.603200e+01 -1.999929e-01  1.697601e+01
    endloop
  endfacet
  facet normal  4.159661e-02 -9.990587e-01 -1.230609e-02
    outer loop
      vertex   4.137200e+01 -3.619959e-01  1.323000e+01
      vertex   3.863400e+01 -3.879971e-01  6.085999e+00
      vertex   4.296600e+01 -2.940026e-01  1.309800e+01
    endloop
  endfacet
  facet normal  4.969035e-02 -9.986892e-01 -1.227823e-02
    outer loop
      vertex   4.716200e+01 -1.359975e-01  1.690800e+01
      vertex   4.446200e+01 -2.219962e-01  1.297600e+01
      vertex   4.576400e+01 -1.560095e-01  1.287800e+01
    endloop
  endfacet
endsolid vcg
