solid STL generated by MeshLab
  facet normal  4.778556e-01  5.577439e-03 -8.784207e-01
    outer loop
      vertex   2.291800e+01  2.078600e+01  6.899986e-01
      vertex   2.297200e+01  3.033400e+01  7.799988e-01
      vertex   2.307600e+01  2.079400e+01  7.760010e-01
    endloop
  endfacet
  facet normal  1.564177e-01 -1.308202e-02  9.876043e-01
    outer loop
      vertex   2.063600e+01  3.035400e+01  1.292000e+00
      vertex   1.954600e+01  2.079400e+01  1.338001e+00
      vertex   2.160800e+01  3.035000e+01  1.138000e+00
    endloop
  endfacet
  facet normal  1.547992e-01 -1.289624e-02  9.878617e-01
    outer loop
      vertex   1.954600e+01  2.079400e+01  1.338001e+00
      vertex   2.063600e+01  3.035400e+01  1.292000e+00
      vertex   1.966600e+01  3.035400e+01  1.444000e+00
    endloop
  endfacet
  facet normal  3.196609e-02  1.107824e-02 -9.994275e-01
    outer loop
      vertex   1.960600e+01  2.084800e+01  5.260010e-01
      vertex   2.068800e+01  3.035600e+01  6.660004e-01
      vertex   2.162800e+01  3.035000e+01  6.959991e-01
    endloop
  endfacet
  facet normal  3.416409e-02  1.082708e-02 -9.993576e-01
    outer loop
      vertex   2.068800e+01  3.035600e+01  6.660004e-01
      vertex   1.960600e+01  2.084800e+01  5.260010e-01
      vertex   1.975000e+01  3.036200e+01  6.339989e-01
    endloop
  endfacet
  facet normal  1.487612e-01 -7.328665e-03  9.888460e-01
    outer loop
      vertex   2.210000e+01  3.035600e+01  1.066002e+00
      vertex   2.244000e+01  2.079600e+01  9.440002e-01
      vertex   2.259200e+01  3.035800e+01  9.920006e-01
    endloop
  endfacet
  facet normal  1.448825e-01 -7.473941e-03  9.894206e-01
    outer loop
      vertex   2.244000e+01  2.079600e+01  9.440002e-01
      vertex   2.210000e+01  3.035600e+01  1.066002e+00
      vertex   2.160800e+01  3.035000e+01  1.138000e+00
    endloop
  endfacet
  facet normal  4.508783e-01  6.726853e-03 -8.925601e-01
    outer loop
      vertex   2.287400e+01  1.124600e+01  6.020012e-01
      vertex   2.307600e+01  2.079400e+01  7.760010e-01
      vertex   2.306800e+01  1.124600e+01  7.000008e-01
    endloop
  endfacet
  facet normal  1.256869e-01 -8.814173e-03  9.920307e-01
    outer loop
      vertex   2.120200e+01  1.124600e+01  1.015999e+00
      vertex   2.244000e+01  2.079600e+01  9.440002e-01
      vertex   2.139800e+01  2.079400e+01  1.076000e+00
    endloop
  endfacet
  facet normal  4.778422e-01  5.898824e-03 -8.784260e-01
    outer loop
      vertex   2.287400e+01  1.124600e+01  6.020012e-01
      vertex   2.291800e+01  2.078600e+01  6.899986e-01
      vertex   2.307600e+01  2.079400e+01  7.760010e-01
    endloop
  endfacet
  facet normal  1.442267e-01 -1.674629e-02  9.894030e-01
    outer loop
      vertex   1.725600e+01  3.037600e+01  1.834000e+00
      vertex   1.729800e+01  2.081200e+01  1.666000e+00
      vertex   1.954600e+01  2.079400e+01  1.338001e+00
    endloop
  endfacet
  facet normal  4.496982e-02  1.035886e-02 -9.989346e-01
    outer loop
      vertex   2.121200e+01  1.126800e+01  4.819984e-01
      vertex   2.141400e+01  2.080600e+01  5.900002e-01
      vertex   2.244000e+01  2.078800e+01  6.360016e-01
    endloop
  endfacet
  facet normal  4.496517e-02  1.008634e-02 -9.989377e-01
    outer loop
      vertex   2.141400e+01  2.080600e+01  5.900002e-01
      vertex   2.162800e+01  3.035000e+01  6.959991e-01
      vertex   2.244000e+01  2.078800e+01  6.360016e-01
    endloop
  endfacet
  facet normal  5.003337e-02  9.701913e-03 -9.987004e-01
    outer loop
      vertex   2.244000e+01  2.078800e+01  6.360016e-01
      vertex   2.217400e+01  1.124800e+01  5.299988e-01
      vertex   2.121200e+01  1.126800e+01  4.819984e-01
    endloop
  endfacet
  facet normal  4.697880e-02  9.788721e-03 -9.988479e-01
    outer loop
      vertex   2.217400e+01  1.124800e+01  5.299988e-01
      vertex   2.244000e+01  2.078800e+01  6.360016e-01
      vertex   2.230200e+01  1.124600e+01  5.359993e-01
    endloop
  endfacet
  facet normal  3.407445e-02  1.073196e-02 -9.993616e-01
    outer loop
      vertex   1.960600e+01  2.084800e+01  5.260010e-01
      vertex   1.761800e+01  2.418000e+01  4.939995e-01
      vertex   1.742000e+01  3.039600e+01  5.540009e-01
    endloop
  endfacet
  facet normal  3.087166e-02  8.819877e-03 -9.994845e-01
    outer loop
      vertex   1.761800e+01  2.418000e+01  4.939995e-01
      vertex   1.960600e+01  2.084800e+01  5.260010e-01
      vertex   1.764800e+01  2.090200e+01  4.659996e-01
    endloop
  endfacet
  facet normal  1.146225e-01  8.753026e-03 -9.933706e-01
    outer loop
      vertex   2.230200e+01  1.124600e+01  5.359993e-01
      vertex   2.244000e+01  2.078800e+01  6.360016e-01
      vertex   2.287400e+01  1.124600e+01  6.020012e-01
    endloop
  endfacet
  facet normal  1.400689e-01 -9.097271e-03  9.901000e-01
    outer loop
      vertex   1.954600e+01  2.079400e+01  1.338001e+00
      vertex   2.120200e+01  1.124600e+01  1.015999e+00
      vertex   2.139800e+01  2.079400e+01  1.076000e+00
    endloop
  endfacet
  facet normal  1.212605e-01 -1.244176e-02  9.925427e-01
    outer loop
      vertex   1.943400e+01  1.124600e+01  1.231998e+00
      vertex   2.120200e+01  1.124600e+01  1.015999e+00
      vertex   1.954600e+01  2.079400e+01  1.338001e+00
    endloop
  endfacet
  facet normal  1.650674e-01 -7.117975e-03  9.862565e-01
    outer loop
      vertex   2.244000e+01  2.079600e+01  9.440002e-01
      vertex   2.291800e+01  2.079600e+01  8.639984e-01
      vertex   2.297200e+01  3.036200e+01  9.239998e-01
    endloop
  endfacet
  facet normal  1.442243e-01 -1.698000e-02  9.893993e-01
    outer loop
      vertex   1.729800e+01  2.081200e+01  1.666000e+00
      vertex   1.733800e+01  1.124600e+01  1.495998e+00
      vertex   1.954600e+01  2.079400e+01  1.338001e+00
    endloop
  endfacet
  facet normal  1.617129e-01 -1.297072e-02  9.867526e-01
    outer loop
      vertex   1.845800e+01  3.035600e+01  1.641998e+00
      vertex   1.954600e+01  2.079400e+01  1.338001e+00
      vertex   1.966600e+01  3.035400e+01  1.444000e+00
    endloop
  endfacet
  facet normal  1.575024e-01 -1.347124e-02  9.874267e-01
    outer loop
      vertex   1.954600e+01  2.079400e+01  1.338001e+00
      vertex   1.845800e+01  3.035600e+01  1.641998e+00
      vertex   1.725600e+01  3.037600e+01  1.834000e+00
    endloop
  endfacet
  facet normal  3.089583e-02  9.706203e-03 -9.994755e-01
    outer loop
      vertex   1.761000e+01  1.731600e+01  4.300003e-01
      vertex   1.764800e+01  2.090200e+01  4.659996e-01
      vertex   1.960600e+01  2.084800e+01  5.260010e-01
    endloop
  endfacet
  facet normal  1.990779e-02  1.592160e-02 -9.996750e-01
    outer loop
      vertex   1.960600e+01  2.084800e+01  5.260010e-01
      vertex   1.761800e+01  1.730600e+01  4.300003e-01
      vertex   1.761000e+01  1.731600e+01  4.300003e-01
    endloop
  endfacet
  facet normal  2.684059e-02  1.202712e-02 -9.995673e-01
    outer loop
      vertex   1.741800e+01  1.143600e+01  3.540001e-01
      vertex   1.761800e+01  1.730600e+01  4.300003e-01
      vertex   1.960600e+01  2.084800e+01  5.260010e-01
    endloop
  endfacet
  facet normal  3.561863e-02  1.056115e-02 -9.993097e-01
    outer loop
      vertex   1.960600e+01  2.084800e+01  5.260010e-01
      vertex   2.141400e+01  2.080600e+01  5.900002e-01
      vertex   2.121200e+01  1.126800e+01  4.819984e-01
    endloop
  endfacet
  facet normal  1.761472e-01 -7.738185e-03  9.843335e-01
    outer loop
      vertex   2.278200e+01  3.036200e+01  9.580002e-01
      vertex   2.244000e+01  2.079600e+01  9.440002e-01
      vertex   2.297200e+01  3.036200e+01  9.239998e-01
    endloop
  endfacet
  facet normal  1.763016e-01 -7.743665e-03  9.843057e-01
    outer loop
      vertex   2.244000e+01  2.079600e+01  9.440002e-01
      vertex   2.278200e+01  3.036200e+01  9.580002e-01
      vertex   2.259200e+01  3.035800e+01  9.920006e-01
    endloop
  endfacet
  facet normal  1.122822e-01  8.731068e-03 -9.936380e-01
    outer loop
      vertex   2.244000e+01  2.078800e+01  6.360016e-01
      vertex   2.297200e+01  3.033400e+01  7.799988e-01
      vertex   2.291800e+01  2.078600e+01  6.899986e-01
    endloop
  endfacet
  facet normal  1.249573e-01 -1.248002e-02  9.920837e-01
    outer loop
      vertex   1.733800e+01  1.124600e+01  1.495998e+00
      vertex   1.943400e+01  1.124600e+01  1.231998e+00
      vertex   1.954600e+01  2.079400e+01  1.338001e+00
    endloop
  endfacet
  facet normal  3.417915e-02  1.082685e-02 -9.993572e-01
    outer loop
      vertex   1.960600e+01  2.084800e+01  5.260010e-01
      vertex   1.857800e+01  3.037000e+01  5.940018e-01
      vertex   1.975000e+01  3.036200e+01  6.339989e-01
    endloop
  endfacet
  facet normal  3.476466e-02  1.088991e-02 -9.993361e-01
    outer loop
      vertex   1.857800e+01  3.037000e+01  5.940018e-01
      vertex   1.960600e+01  2.084800e+01  5.260010e-01
      vertex   1.742000e+01  3.039600e+01  5.540009e-01
    endloop
  endfacet
  facet normal  1.253905e-01  7.976969e-03 -9.920754e-01
    outer loop
      vertex   2.244000e+01  2.078800e+01  6.360016e-01
      vertex   2.278200e+01  3.033600e+01  7.560005e-01
      vertex   2.297200e+01  3.033400e+01  7.799988e-01
    endloop
  endfacet
  facet normal  1.046818e-01  8.748798e-03 -9.944673e-01
    outer loop
      vertex   2.278200e+01  3.033600e+01  7.560005e-01
      vertex   2.244000e+01  2.078800e+01  6.360016e-01
      vertex   2.259200e+01  3.033600e+01  7.360001e-01
    endloop
  endfacet
  facet normal  3.258051e-02  1.068993e-02 -9.994120e-01
    outer loop
      vertex   1.741800e+01  1.143600e+01  3.540001e-01
      vertex   1.960600e+01  2.084800e+01  5.260010e-01
      vertex   1.947400e+01  1.134000e+01  4.199982e-01
    endloop
  endfacet
  facet normal  4.157901e-02  9.801756e-03 -9.990872e-01
    outer loop
      vertex   2.244000e+01  2.078800e+01  6.360016e-01
      vertex   2.211000e+01  3.034200e+01  7.159996e-01
      vertex   2.259200e+01  3.033600e+01  7.360001e-01
    endloop
  endfacet
  facet normal  4.161927e-02  9.803132e-03 -9.990855e-01
    outer loop
      vertex   2.211000e+01  3.034200e+01  7.159996e-01
      vertex   2.244000e+01  2.078800e+01  6.360016e-01
      vertex   2.162800e+01  3.035000e+01  6.959991e-01
    endloop
  endfacet
  facet normal  1.120157e-01 -7.029484e-03  9.936816e-01
    outer loop
      vertex   2.120200e+01  1.124600e+01  1.015999e+00
      vertex   2.230200e+01  1.124600e+01  8.919983e-01
      vertex   2.244000e+01  2.079600e+01  9.440002e-01
    endloop
  endfacet
  facet normal  3.608880e-02  1.063989e-02 -9.992920e-01
    outer loop
      vertex   1.947400e+01  1.134000e+01  4.199982e-01
      vertex   1.960600e+01  2.084800e+01  5.260010e-01
      vertex   2.121200e+01  1.126800e+01  4.819984e-01
    endloop
  endfacet
  facet normal  3.561267e-02  1.030020e-02 -9.993125e-01
    outer loop
      vertex   1.960600e+01  2.084800e+01  5.260010e-01
      vertex   2.162800e+01  3.035000e+01  6.959991e-01
      vertex   2.141400e+01  2.080600e+01  5.900002e-01
    endloop
  endfacet
  facet normal  1.122819e-01  8.647526e-03 -9.936388e-01
    outer loop
      vertex   2.244000e+01  2.078800e+01  6.360016e-01
      vertex   2.291800e+01  2.078600e+01  6.899986e-01
      vertex   2.287400e+01  1.124600e+01  6.020012e-01
    endloop
  endfacet
  facet normal  1.650679e-01 -6.750204e-03  9.862592e-01
    outer loop
      vertex   2.244000e+01  2.079600e+01  9.440002e-01
      vertex   2.287400e+01  1.124600e+01  8.059998e-01
      vertex   2.291800e+01  2.079600e+01  8.639984e-01
    endloop
  endfacet
  facet normal  1.256872e-01 -9.198476e-03  9.920273e-01
    outer loop
      vertex   2.139800e+01  2.079400e+01  1.076000e+00
      vertex   2.244000e+01  2.079600e+01  9.440002e-01
      vertex   2.160800e+01  3.035000e+01  1.138000e+00
    endloop
  endfacet
  facet normal  1.486713e-01 -7.532904e-03  9.888579e-01
    outer loop
      vertex   2.230200e+01  1.124600e+01  8.919983e-01
      vertex   2.287400e+01  1.124600e+01  8.059998e-01
      vertex   2.244000e+01  2.079600e+01  9.440002e-01
    endloop
  endfacet
  facet normal  4.864817e-01 -7.547177e-03  8.736581e-01
    outer loop
      vertex   2.287400e+01  1.124600e+01  8.059998e-01
      vertex   2.307600e+01  2.079400e+01  7.760010e-01
      vertex   2.291800e+01  2.079600e+01  8.639984e-01
    endloop
  endfacet
  facet normal  1.400684e-01 -9.501988e-03  9.900963e-01
    outer loop
      vertex   1.954600e+01  2.079400e+01  1.338001e+00
      vertex   2.139800e+01  2.079400e+01  1.076000e+00
      vertex   2.160800e+01  3.035000e+01  1.138000e+00
    endloop
  endfacet
  facet normal  4.794689e-01 -7.386655e-03  8.775279e-01
    outer loop
      vertex   2.287400e+01  1.124600e+01  8.059998e-01
      vertex   2.306800e+01  1.124600e+01  7.000008e-01
      vertex   2.307600e+01  2.079400e+01  7.760010e-01
    endloop
  endfacet
  facet normal  4.864725e-01 -8.226070e-03  8.736572e-01
    outer loop
      vertex   2.291800e+01  2.079600e+01  8.639984e-01
      vertex   2.307600e+01  2.079400e+01  7.760010e-01
      vertex   2.297200e+01  3.036200e+01  9.239998e-01
    endloop
  endfacet
  facet normal  5.015562e-01 -7.674194e-03  8.650910e-01
    outer loop
      vertex   2.303600e+01  3.035400e+01  8.839989e-01
      vertex   2.307600e+01  2.079400e+01  7.760010e-01
      vertex   2.309800e+01  3.034800e+01  8.479996e-01
    endloop
  endfacet
  facet normal  5.293358e-01 -7.369183e-03  8.483805e-01
    outer loop
      vertex   2.307600e+01  2.079400e+01  7.760010e-01
      vertex   2.303600e+01  3.035400e+01  8.839989e-01
      vertex   2.297200e+01  3.036200e+01  9.239998e-01
    endloop
  endfacet
  facet normal  4.804185e-01  5.502979e-03 -8.770221e-01
    outer loop
      vertex   2.307600e+01  2.079400e+01  7.760010e-01
      vertex   2.303600e+01  3.034200e+01  8.139992e-01
      vertex   2.309800e+01  3.034800e+01  8.479996e-01
    endloop
  endfacet
  facet normal  4.686230e-01  5.478870e-03 -8.833812e-01
    outer loop
      vertex   2.303600e+01  3.034200e+01  8.139992e-01
      vertex   2.307600e+01  2.079400e+01  7.760010e-01
      vertex   2.297200e+01  3.033400e+01  7.799988e-01
    endloop
  endfacet
endsolid vcg
