solid STL generated by MeshLab
  facet normal -4.778481e-01 -5.577520e-03 -8.784248e-01
    outer loop
      vertex   3.708200e+01  4.421400e+01  4.869000e+01
      vertex   3.702800e+01  3.466600e+01  4.878000e+01
      vertex   3.692400e+01  4.420600e+01  4.877600e+01
    endloop
  endfacet
  facet normal -1.564215e-01  1.308285e-02  9.876037e-01
    outer loop
      vertex   3.936400e+01  3.464600e+01  4.929200e+01
      vertex   4.045400e+01  4.420600e+01  4.933800e+01
      vertex   3.839200e+01  3.465000e+01  4.913800e+01
    endloop
  endfacet
  facet normal -1.547992e-01  1.289664e-02  9.878617e-01
    outer loop
      vertex   4.045400e+01  4.420600e+01  4.933800e+01
      vertex   3.936400e+01  3.464600e+01  4.929200e+01
      vertex   4.033400e+01  3.464600e+01  4.944400e+01
    endloop
  endfacet
  facet normal -3.196609e-02 -1.107864e-02 -9.994275e-01
    outer loop
      vertex   4.039400e+01  4.415200e+01  4.852600e+01
      vertex   3.931200e+01  3.464400e+01  4.866600e+01
      vertex   3.837200e+01  3.465000e+01  4.869600e+01
    endloop
  endfacet
  facet normal -3.416395e-02 -1.082750e-02 -9.993576e-01
    outer loop
      vertex   3.931200e+01  3.464400e+01  4.866600e+01
      vertex   4.039400e+01  4.415200e+01  4.852600e+01
      vertex   4.025000e+01  3.463800e+01  4.863400e+01
    endloop
  endfacet
  facet normal -1.487611e-01  7.328271e-03  9.888460e-01
    outer loop
      vertex   3.790000e+01  3.464400e+01  4.906600e+01
      vertex   3.756000e+01  4.420400e+01  4.894400e+01
      vertex   3.740800e+01  3.464200e+01  4.899200e+01
    endloop
  endfacet
  facet normal -1.448814e-01  7.473585e-03  9.894208e-01
    outer loop
      vertex   3.756000e+01  4.420400e+01  4.894400e+01
      vertex   3.790000e+01  3.464400e+01  4.906600e+01
      vertex   3.839200e+01  3.465000e+01  4.913800e+01
    endloop
  endfacet
  facet normal -4.508783e-01 -6.726853e-03 -8.925601e-01
    outer loop
      vertex   3.712600e+01  5.375400e+01  4.860200e+01
      vertex   3.692400e+01  4.420600e+01  4.877600e+01
      vertex   3.693200e+01  5.375400e+01  4.870000e+01
    endloop
  endfacet
  facet normal -1.256868e-01  8.814173e-03  9.920309e-01
    outer loop
      vertex   3.879800e+01  5.375400e+01  4.901600e+01
      vertex   3.756000e+01  4.420400e+01  4.894400e+01
      vertex   3.860200e+01  4.420600e+01  4.907600e+01
    endloop
  endfacet
  facet normal -4.778347e-01 -5.899056e-03 -8.784299e-01
    outer loop
      vertex   3.712600e+01  5.375400e+01  4.860200e+01
      vertex   3.708200e+01  4.421400e+01  4.869000e+01
      vertex   3.692400e+01  4.420600e+01  4.877600e+01
    endloop
  endfacet
  facet normal -1.442284e-01  1.674627e-02  9.894027e-01
    outer loop
      vertex   4.274400e+01  3.462400e+01  4.983400e+01
      vertex   4.270200e+01  4.418800e+01  4.966600e+01
      vertex   4.045400e+01  4.420600e+01  4.933800e+01
    endloop
  endfacet
  facet normal -4.496595e-02 -1.035894e-02 -9.989348e-01
    outer loop
      vertex   3.878800e+01  5.373200e+01  4.848200e+01
      vertex   3.858600e+01  4.419400e+01  4.859000e+01
      vertex   3.756000e+01  4.421200e+01  4.863600e+01
    endloop
  endfacet
  facet normal -4.496130e-02 -1.008641e-02 -9.989378e-01
    outer loop
      vertex   3.858600e+01  4.419400e+01  4.859000e+01
      vertex   3.837200e+01  3.465000e+01  4.869600e+01
      vertex   3.756000e+01  4.421200e+01  4.863600e+01
    endloop
  endfacet
  facet normal -5.003317e-02 -9.701516e-03 -9.987004e-01
    outer loop
      vertex   3.756000e+01  4.421200e+01  4.863600e+01
      vertex   3.782600e+01  5.375200e+01  4.853000e+01
      vertex   3.878800e+01  5.373200e+01  4.848200e+01
    endloop
  endfacet
  facet normal -4.697851e-02 -9.788327e-03 -9.988479e-01
    outer loop
      vertex   3.782600e+01  5.375200e+01  4.853000e+01
      vertex   3.756000e+01  4.421200e+01  4.863600e+01
      vertex   3.769800e+01  5.375400e+01  4.853600e+01
    endloop
  endfacet
  facet normal -3.407121e-02 -1.073122e-02 -9.993618e-01
    outer loop
      vertex   4.039400e+01  4.415200e+01  4.852600e+01
      vertex   4.238200e+01  4.082000e+01  4.849400e+01
      vertex   4.258000e+01  3.460400e+01  4.855400e+01
    endloop
  endfacet
  facet normal -3.086970e-02 -8.819895e-03 -9.994845e-01
    outer loop
      vertex   4.238200e+01  4.082000e+01  4.849400e+01
      vertex   4.039400e+01  4.415200e+01  4.852600e+01
      vertex   4.235200e+01  4.409800e+01  4.846600e+01
    endloop
  endfacet
  facet normal -1.146167e-01 -8.752719e-03 -9.933712e-01
    outer loop
      vertex   3.769800e+01  5.375400e+01  4.853600e+01
      vertex   3.756000e+01  4.421200e+01  4.863600e+01
      vertex   3.712600e+01  5.375400e+01  4.860200e+01
    endloop
  endfacet
  facet normal -1.400666e-01  9.097227e-03  9.901003e-01
    outer loop
      vertex   4.045400e+01  4.420600e+01  4.933800e+01
      vertex   3.879800e+01  5.375400e+01  4.901600e+01
      vertex   3.860200e+01  4.420600e+01  4.907600e+01
    endloop
  endfacet
  facet normal -1.212605e-01  1.244131e-02  9.925427e-01
    outer loop
      vertex   4.056600e+01  5.375400e+01  4.923200e+01
      vertex   3.879800e+01  5.375400e+01  4.901600e+01
      vertex   4.045400e+01  4.420600e+01  4.933800e+01
    endloop
  endfacet
  facet normal -1.650674e-01  7.117972e-03  9.862565e-01
    outer loop
      vertex   3.756000e+01  4.420400e+01  4.894400e+01
      vertex   3.708200e+01  4.420400e+01  4.886400e+01
      vertex   3.702800e+01  3.463800e+01  4.892400e+01
    endloop
  endfacet
  facet normal -1.442260e-01  1.698000e-02  9.893990e-01
    outer loop
      vertex   4.270200e+01  4.418800e+01  4.966600e+01
      vertex   4.266200e+01  5.375400e+01  4.949600e+01
      vertex   4.045400e+01  4.420600e+01  4.933800e+01
    endloop
  endfacet
  facet normal -1.617129e-01  1.297112e-02  9.867526e-01
    outer loop
      vertex   4.154200e+01  3.464400e+01  4.964200e+01
      vertex   4.045400e+01  4.420600e+01  4.933800e+01
      vertex   4.033400e+01  3.464600e+01  4.944400e+01
    endloop
  endfacet
  facet normal -1.575024e-01  1.347163e-02  9.874267e-01
    outer loop
      vertex   4.045400e+01  4.420600e+01  4.933800e+01
      vertex   4.154200e+01  3.464400e+01  4.964200e+01
      vertex   4.274400e+01  3.462400e+01  4.983400e+01
    endloop
  endfacet
  facet normal -3.089387e-02 -9.706192e-03 -9.994755e-01
    outer loop
      vertex   4.239000e+01  4.768400e+01  4.843000e+01
      vertex   4.235200e+01  4.409800e+01  4.846600e+01
      vertex   4.039400e+01  4.415200e+01  4.852600e+01
    endloop
  endfacet
  facet normal -1.990655e-02 -1.592067e-02 -9.996751e-01
    outer loop
      vertex   4.039400e+01  4.415200e+01  4.852600e+01
      vertex   4.238200e+01  4.769400e+01  4.843000e+01
      vertex   4.239000e+01  4.768400e+01  4.843000e+01
    endloop
  endfacet
  facet normal -2.683844e-02 -1.202721e-02 -9.995674e-01
    outer loop
      vertex   4.258200e+01  5.356400e+01  4.835400e+01
      vertex   4.238200e+01  4.769400e+01  4.843000e+01
      vertex   4.039400e+01  4.415200e+01  4.852600e+01
    endloop
  endfacet
  facet normal -3.562080e-02 -1.056109e-02 -9.993095e-01
    outer loop
      vertex   4.039400e+01  4.415200e+01  4.852600e+01
      vertex   3.858600e+01  4.419400e+01  4.859000e+01
      vertex   3.878800e+01  5.373200e+01  4.848200e+01
    endloop
  endfacet
  facet normal -1.761438e-01  7.737989e-03  9.843340e-01
    outer loop
      vertex   3.721800e+01  3.463800e+01  4.895800e+01
      vertex   3.756000e+01  4.420400e+01  4.894400e+01
      vertex   3.702800e+01  3.463800e+01  4.892400e+01
    endloop
  endfacet
  facet normal -1.762861e-01  7.743039e-03  9.843085e-01
    outer loop
      vertex   3.756000e+01  4.420400e+01  4.894400e+01
      vertex   3.721800e+01  3.463800e+01  4.895800e+01
      vertex   3.740800e+01  3.464200e+01  4.899200e+01
    endloop
  endfacet
  facet normal -1.122900e-01 -8.731015e-03 -9.936371e-01
    outer loop
      vertex   3.756000e+01  4.421200e+01  4.863600e+01
      vertex   3.702800e+01  3.466600e+01  4.878000e+01
      vertex   3.708200e+01  4.421400e+01  4.869000e+01
    endloop
  endfacet
  facet normal -1.249570e-01  1.247958e-02  9.920837e-01
    outer loop
      vertex   4.266200e+01  5.375400e+01  4.949600e+01
      vertex   4.056600e+01  5.375400e+01  4.923200e+01
      vertex   4.045400e+01  4.420600e+01  4.933800e+01
    endloop
  endfacet
  facet normal -3.418251e-02 -1.082721e-02 -9.993570e-01
    outer loop
      vertex   4.039400e+01  4.415200e+01  4.852600e+01
      vertex   4.142200e+01  3.463000e+01  4.859400e+01
      vertex   4.025000e+01  3.463800e+01  4.863400e+01
    endloop
  endfacet
  facet normal -3.476466e-02 -1.088991e-02 -9.993361e-01
    outer loop
      vertex   4.142200e+01  3.463000e+01  4.859400e+01
      vertex   4.039400e+01  4.415200e+01  4.852600e+01
      vertex   4.258000e+01  3.460400e+01  4.855400e+01
    endloop
  endfacet
  facet normal -1.254077e-01 -7.976378e-03 -9.920732e-01
    outer loop
      vertex   3.756000e+01  4.421200e+01  4.863600e+01
      vertex   3.721800e+01  3.466400e+01  4.875600e+01
      vertex   3.702800e+01  3.466600e+01  4.878000e+01
    endloop
  endfacet
  facet normal -1.046642e-01 -8.749496e-03 -9.944692e-01
    outer loop
      vertex   3.721800e+01  3.466400e+01  4.875600e+01
      vertex   3.756000e+01  4.421200e+01  4.863600e+01
      vertex   3.740800e+01  3.466400e+01  4.873600e+01
    endloop
  endfacet
  facet normal -3.258049e-02 -1.068953e-02 -9.994120e-01
    outer loop
      vertex   4.258200e+01  5.356400e+01  4.835400e+01
      vertex   4.039400e+01  4.415200e+01  4.852600e+01
      vertex   4.052600e+01  5.366000e+01  4.842000e+01
    endloop
  endfacet
  facet normal -4.157868e-02 -9.802160e-03 -9.990872e-01
    outer loop
      vertex   3.756000e+01  4.421200e+01  4.863600e+01
      vertex   3.789000e+01  3.465800e+01  4.871600e+01
      vertex   3.740800e+01  3.466400e+01  4.873600e+01
    endloop
  endfacet
  facet normal -4.161962e-02 -9.803560e-03 -9.990855e-01
    outer loop
      vertex   3.789000e+01  3.465800e+01  4.871600e+01
      vertex   3.756000e+01  4.421200e+01  4.863600e+01
      vertex   3.837200e+01  3.465000e+01  4.869600e+01
    endloop
  endfacet
  facet normal -1.120157e-01  7.029487e-03  9.936816e-01
    outer loop
      vertex   3.879800e+01  5.375400e+01  4.901600e+01
      vertex   3.769800e+01  5.375400e+01  4.889200e+01
      vertex   3.756000e+01  4.420400e+01  4.894400e+01
    endloop
  endfacet
  facet normal -3.608886e-02 -1.063948e-02 -9.992920e-01
    outer loop
      vertex   4.052600e+01  5.366000e+01  4.842000e+01
      vertex   4.039400e+01  4.415200e+01  4.852600e+01
      vertex   3.878800e+01  5.373200e+01  4.848200e+01
    endloop
  endfacet
  facet normal -3.561484e-02 -1.030014e-02 -9.993125e-01
    outer loop
      vertex   4.039400e+01  4.415200e+01  4.852600e+01
      vertex   3.837200e+01  3.465000e+01  4.869600e+01
      vertex   3.858600e+01  4.419400e+01  4.859000e+01
    endloop
  endfacet
  facet normal -1.122898e-01 -8.647834e-03 -9.936378e-01
    outer loop
      vertex   3.756000e+01  4.421200e+01  4.863600e+01
      vertex   3.708200e+01  4.421400e+01  4.869000e+01
      vertex   3.712600e+01  5.375400e+01  4.860200e+01
    endloop
  endfacet
  facet normal -1.650678e-01  6.750273e-03  9.862590e-01
    outer loop
      vertex   3.756000e+01  4.420400e+01  4.894400e+01
      vertex   3.712600e+01  5.375400e+01  4.880600e+01
      vertex   3.708200e+01  4.420400e+01  4.886400e+01
    endloop
  endfacet
  facet normal -1.256871e-01  9.198028e-03  9.920273e-01
    outer loop
      vertex   3.860200e+01  4.420600e+01  4.907600e+01
      vertex   3.756000e+01  4.420400e+01  4.894400e+01
      vertex   3.839200e+01  3.465000e+01  4.913800e+01
    endloop
  endfacet
  facet normal -1.486723e-01  7.532921e-03  9.888578e-01
    outer loop
      vertex   3.769800e+01  5.375400e+01  4.889200e+01
      vertex   3.712600e+01  5.375400e+01  4.880600e+01
      vertex   3.756000e+01  4.420400e+01  4.894400e+01
    endloop
  endfacet
  facet normal -4.865068e-01  7.547406e-03  8.736442e-01
    outer loop
      vertex   3.712600e+01  5.375400e+01  4.880600e+01
      vertex   3.692400e+01  4.420600e+01  4.877600e+01
      vertex   3.708200e+01  4.420400e+01  4.886400e+01
    endloop
  endfacet
  facet normal -1.400661e-01  9.501488e-03  9.900966e-01
    outer loop
      vertex   4.045400e+01  4.420600e+01  4.933800e+01
      vertex   3.860200e+01  4.420600e+01  4.907600e+01
      vertex   3.839200e+01  3.465000e+01  4.913800e+01
    endloop
  endfacet
  facet normal -4.794821e-01  7.386607e-03  8.775206e-01
    outer loop
      vertex   3.712600e+01  5.375400e+01  4.880600e+01
      vertex   3.693200e+01  5.375400e+01  4.870000e+01
      vertex   3.692400e+01  4.420600e+01  4.877600e+01
    endloop
  endfacet
  facet normal -4.864977e-01  8.226121e-03  8.736431e-01
    outer loop
      vertex   3.708200e+01  4.420400e+01  4.886400e+01
      vertex   3.692400e+01  4.420600e+01  4.877600e+01
      vertex   3.702800e+01  3.463800e+01  4.892400e+01
    endloop
  endfacet
  facet normal -5.015562e-01  7.674740e-03  8.650910e-01
    outer loop
      vertex   3.696400e+01  3.464600e+01  4.888400e+01
      vertex   3.692400e+01  4.420600e+01  4.877600e+01
      vertex   3.690200e+01  3.465200e+01  4.884800e+01
    endloop
  endfacet
  facet normal -5.293356e-01  7.369733e-03  8.483805e-01
    outer loop
      vertex   3.692400e+01  4.420600e+01  4.877600e+01
      vertex   3.696400e+01  3.464600e+01  4.888400e+01
      vertex   3.702800e+01  3.463800e+01  4.892400e+01
    endloop
  endfacet
  facet normal -4.804185e-01 -5.503137e-03 -8.770221e-01
    outer loop
      vertex   3.692400e+01  4.420600e+01  4.877600e+01
      vertex   3.696400e+01  3.465800e+01  4.881400e+01
      vertex   3.690200e+01  3.465200e+01  4.884800e+01
    endloop
  endfacet
  facet normal -4.686230e-01 -5.479035e-03 -8.833812e-01
    outer loop
      vertex   3.696400e+01  3.465800e+01  4.881400e+01
      vertex   3.692400e+01  4.420600e+01  4.877600e+01
      vertex   3.702800e+01  3.466600e+01  4.878000e+01
    endloop
  endfacet
endsolid vcg
