solid STL generated by MeshLab
  facet normal -1.213961e-01 -1.241212e-02  9.925265e-01
    outer loop
      vertex   4.056600e+01  7.603001e+01  4.923200e+01
      vertex   4.045600e+01  8.558200e+01  4.933800e+01
      vertex   3.880000e+01  7.603001e+01  4.901600e+01
    endloop
  endfacet
  facet normal -3.087001e-02  8.830631e-03 -9.994844e-01
    outer loop
      vertex   4.039600e+01  8.563600e+01  4.852600e+01
      vertex   4.238400e+01  8.896400e+01  4.849400e+01
      vertex   4.235400e+01  8.569000e+01  4.846600e+01
    endloop
  endfacet
  facet normal -3.401704e-02  1.071169e-02 -9.993638e-01
    outer loop
      vertex   4.238400e+01  8.896400e+01  4.849400e+01
      vertex   4.039600e+01  8.563600e+01  4.852600e+01
      vertex   4.258000e+01  9.518401e+01  4.855400e+01
    endloop
  endfacet
  facet normal -1.454800e-02  1.010282e-02 -9.998431e-01
    outer loop
      vertex   4.238400e+01  8.896400e+01  4.849400e+01
      vertex   4.258000e+01  9.518401e+01  4.855400e+01
      vertex   4.243400e+01  8.903600e+01  4.849400e+01
    endloop
  endfacet
  facet normal  1.161200e-02  8.444908e-03 -9.998969e-01
    outer loop
      vertex   4.243200e+01  8.889800e+01  4.849400e+01
      vertex   4.235400e+01  8.569000e+01  4.846600e+01
      vertex   4.238400e+01  8.896400e+01  4.849400e+01
    endloop
  endfacet
  facet normal -1.433940e-01 -1.677853e-02  9.895235e-01
    outer loop
      vertex   4.270400e+01  8.559600e+01  4.966400e+01
      vertex   4.045600e+01  8.558200e+01  4.933800e+01
      vertex   4.266400e+01  7.603001e+01  4.949600e+01
    endloop
  endfacet
  facet normal  0.000000e+00  0.000000e+00 -1.000000e+00
    outer loop
      vertex   4.247200e+01  8.221600e+01  4.842800e+01
      vertex   4.247000e+01  8.221201e+01  4.842800e+01
      vertex   4.243800e+01  8.216801e+01  4.842800e+01
    endloop
  endfacet
  facet normal  4.074321e-03  1.087263e-02 -9.999326e-01
    outer loop
      vertex   4.247200e+01  8.196600e+01  4.841600e+01
      vertex   4.248800e+01  8.196001e+01  4.841600e+01
      vertex   4.258400e+01  7.622200e+01  4.835400e+01
    endloop
  endfacet
  facet normal -9.327166e-02  8.927706e-03 -9.956006e-01
    outer loop
      vertex   4.245200e+01  8.198000e+01  4.841800e+01
      vertex   4.247200e+01  8.196600e+01  4.841600e+01
      vertex   4.258400e+01  7.622200e+01  4.835400e+01
    endloop
  endfacet
  facet normal -1.610450e-01 -7.100920e-03  9.869215e-01
    outer loop
      vertex   3.756200e+01  8.558200e+01  4.894200e+01
      vertex   3.703000e+01  9.514600e+01  4.892400e+01
      vertex   3.708400e+01  8.558200e+01  4.886400e+01
    endloop
  endfacet
  facet normal -1.400474e-01 -9.096907e-03  9.901031e-01
    outer loop
      vertex   4.045600e+01  8.558200e+01  4.933800e+01
      vertex   3.860400e+01  8.557800e+01  4.907600e+01
      vertex   3.880000e+01  7.603001e+01  4.901600e+01
    endloop
  endfacet
  facet normal -1.111890e-01  8.621501e-03 -9.937619e-01
    outer loop
      vertex   3.769800e+01  7.603001e+01  4.853600e+01
      vertex   3.712600e+01  7.603001e+01  4.860000e+01
      vertex   3.756200e+01  8.557201e+01  4.863400e+01
    endloop
  endfacet
  facet normal -3.560480e-02  1.056365e-02 -9.993101e-01
    outer loop
      vertex   4.039600e+01  8.563600e+01  4.852600e+01
      vertex   3.878800e+01  7.605400e+01  4.848200e+01
      vertex   3.858600e+01  8.559000e+01  4.859000e+01
    endloop
  endfacet
  facet normal -1.614154e-01 -1.276656e-02  9.868039e-01
    outer loop
      vertex   4.045600e+01  8.558200e+01  4.933800e+01
      vertex   4.154600e+01  9.514400e+01  4.964000e+01
      vertex   4.033600e+01  9.513801e+01  4.944200e+01
    endloop
  endfacet
  facet normal -1.577601e-01 -1.320172e-02  9.873891e-01
    outer loop
      vertex   4.154600e+01  9.514400e+01  4.964000e+01
      vertex   4.045600e+01  8.558200e+01  4.933800e+01
      vertex   4.274600e+01  9.516400e+01  4.983200e+01
    endloop
  endfacet
  facet normal -1.122909e-01  8.731013e-03 -9.936370e-01
    outer loop
      vertex   3.756200e+01  8.557201e+01  4.863400e+01
      vertex   3.708400e+01  8.557001e+01  4.868800e+01
      vertex   3.703000e+01  9.511800e+01  4.877800e+01
    endloop
  endfacet
  facet normal -1.135940e-01 -7.025679e-03  9.935024e-01
    outer loop
      vertex   3.880000e+01  7.603001e+01  4.901600e+01
      vertex   3.756200e+01  8.558200e+01  4.894200e+01
      vertex   3.769800e+01  7.603001e+01  4.889000e+01
    endloop
  endfacet
  facet normal -3.429808e-02  1.062267e-02 -9.993552e-01
    outer loop
      vertex   4.142200e+01  9.515800e+01  4.859200e+01
      vertex   4.039600e+01  8.563600e+01  4.852600e+01
      vertex   4.025400e+01  9.515000e+01  4.863200e+01
    endloop
  endfacet
  facet normal -3.303266e-02  1.048662e-02 -9.993993e-01
    outer loop
      vertex   4.039600e+01  8.563600e+01  4.852600e+01
      vertex   4.142200e+01  9.515800e+01  4.859200e+01
      vertex   4.258000e+01  9.518401e+01  4.855400e+01
    endloop
  endfacet
  facet normal -1.660669e-01 -7.381835e-03  9.860868e-01
    outer loop
      vertex   3.756200e+01  8.558200e+01  4.894200e+01
      vertex   3.722000e+01  9.514600e+01  4.895600e+01
      vertex   3.703000e+01  9.514600e+01  4.892400e+01
    endloop
  endfacet
  facet normal -1.780414e-01 -7.806962e-03  9.839920e-01
    outer loop
      vertex   3.722000e+01  9.514600e+01  4.895600e+01
      vertex   3.756200e+01  8.558200e+01  4.894200e+01
      vertex   3.740800e+01  9.514400e+01  4.899000e+01
    endloop
  endfacet
  facet normal -1.703623e-02  1.236811e-02 -9.997784e-01
    outer loop
      vertex   4.238400e+01  8.209000e+01  4.843000e+01
      vertex   4.244200e+01  8.200800e+01  4.842800e+01
      vertex   4.258400e+01  7.622200e+01  4.835400e+01
    endloop
  endfacet
  facet normal -2.680506e-02  1.203244e-02 -9.995683e-01
    outer loop
      vertex   4.039600e+01  8.563600e+01  4.852600e+01
      vertex   4.238400e+01  8.209000e+01  4.843000e+01
      vertex   4.258400e+01  7.622200e+01  4.835400e+01
    endloop
  endfacet
  facet normal -2.331804e-02  1.398905e-02 -9.996303e-01
    outer loop
      vertex   4.239000e+01  8.210001e+01  4.843000e+01
      vertex   4.238400e+01  8.209000e+01  4.843000e+01
      vertex   4.039600e+01  8.563600e+01  4.852600e+01
    endloop
  endfacet
  facet normal -1.400444e-02  9.885766e-03 -9.998531e-01
    outer loop
      vertex   4.241400e+01  8.213400e+01  4.843000e+01
      vertex   4.239000e+01  8.210001e+01  4.843000e+01
      vertex   4.235400e+01  8.569000e+01  4.846600e+01
    endloop
  endfacet
  facet normal  4.804452e-02  1.092186e-02 -9.987855e-01
    outer loop
      vertex   4.242400e+01  8.209000e+01  4.843000e+01
      vertex   4.241400e+01  8.213400e+01  4.843000e+01
      vertex   4.235400e+01  8.569000e+01  4.846600e+01
    endloop
  endfacet
  facet normal -7.191353e-02  8.575236e-03 -9.973740e-01
    outer loop
      vertex   4.244200e+01  8.200800e+01  4.842800e+01
      vertex   4.242400e+01  8.209000e+01  4.843000e+01
      vertex   4.235400e+01  8.569000e+01  4.846600e+01
    endloop
  endfacet
  facet normal -3.089406e-02  9.712615e-03 -9.994755e-01
    outer loop
      vertex   4.039600e+01  8.563600e+01  4.852600e+01
      vertex   4.235400e+01  8.569000e+01  4.846600e+01
      vertex   4.239000e+01  8.210001e+01  4.843000e+01
    endloop
  endfacet
  facet normal -9.864086e-01 -2.527781e-02  1.623552e-01
    outer loop
      vertex   4.235400e+01  8.569000e+01  4.846600e+01
      vertex   4.243800e+01  8.216801e+01  4.842800e+01
      vertex   4.244000e+01  8.209000e+01  4.842800e+01
    endloop
  endfacet
  facet normal -9.986367e-01 -2.434345e-02  4.617747e-02
    outer loop
      vertex   4.235400e+01  8.569000e+01  4.846600e+01
      vertex   4.244000e+01  8.209000e+01  4.842800e+01
      vertex   4.244200e+01  8.200800e+01  4.842800e+01
    endloop
  endfacet
  facet normal -7.191074e-01 -8.762188e-03 -6.948436e-01
    outer loop
      vertex   4.258400e+01  7.622200e+01  4.835400e+01
      vertex   4.244200e+01  8.200800e+01  4.842800e+01
      vertex   4.245200e+01  8.198000e+01  4.841800e+01
    endloop
  endfacet
  facet normal -1.122907e-01  8.671400e-03 -9.936376e-01
    outer loop
      vertex   3.756200e+01  8.557201e+01  4.863400e+01
      vertex   3.712600e+01  7.603001e+01  4.860000e+01
      vertex   3.708400e+01  8.557001e+01  4.868800e+01
    endloop
  endfacet
  facet normal -3.157912e-02  1.092053e-02 -9.994416e-01
    outer loop
      vertex   4.258400e+01  7.622200e+01  4.835400e+01
      vertex   4.052600e+01  7.612801e+01  4.841800e+01
      vertex   4.039600e+01  8.563600e+01  4.852600e+01
    endloop
  endfacet
  facet normal -4.140956e-02  1.000121e-02 -9.990922e-01
    outer loop
      vertex   3.789200e+01  9.513000e+01  4.871600e+01
      vertex   3.756200e+01  8.557201e+01  4.863400e+01
      vertex   3.740800e+01  9.512401e+01  4.873600e+01
    endloop
  endfacet
  facet normal -4.175432e-02  1.001299e-02 -9.990777e-01
    outer loop
      vertex   3.756200e+01  8.557201e+01  4.863400e+01
      vertex   3.789200e+01  9.513000e+01  4.871600e+01
      vertex   3.837200e+01  9.513600e+01  4.869600e+01
    endloop
  endfacet
  facet normal -3.725735e-02  1.084069e-02 -9.992470e-01
    outer loop
      vertex   4.052600e+01  7.612801e+01  4.841800e+01
      vertex   3.878800e+01  7.605400e+01  4.848200e+01
      vertex   4.039600e+01  8.563600e+01  4.852600e+01
    endloop
  endfacet
  facet normal -1.151229e-01  8.568318e-03 -9.933143e-01
    outer loop
      vertex   3.722000e+01  9.512000e+01  4.875600e+01
      vertex   3.756200e+01  8.557201e+01  4.863400e+01
      vertex   3.703000e+01  9.511800e+01  4.877800e+01
    endloop
  endfacet
  facet normal -1.059521e-01  8.909799e-03 -9.943314e-01
    outer loop
      vertex   3.756200e+01  8.557201e+01  4.863400e+01
      vertex   3.722000e+01  9.512000e+01  4.875600e+01
      vertex   3.740800e+01  9.512401e+01  4.873600e+01
    endloop
  endfacet
  facet normal -1.248399e-01 -1.244703e-02  9.920988e-01
    outer loop
      vertex   4.266400e+01  7.603001e+01  4.949600e+01
      vertex   4.045600e+01  8.558200e+01  4.933800e+01
      vertex   4.056600e+01  7.603001e+01  4.923200e+01
    endloop
  endfacet
  facet normal -1.610454e-01 -6.700607e-03  9.869242e-01
    outer loop
      vertex   3.756200e+01  8.558200e+01  4.894200e+01
      vertex   3.708400e+01  8.558200e+01  4.886400e+01
      vertex   3.712600e+01  7.603001e+01  4.880600e+01
    endloop
  endfacet
  facet normal -3.559817e-02  1.029836e-02 -9.993131e-01
    outer loop
      vertex   4.039600e+01  8.563600e+01  4.852600e+01
      vertex   3.858600e+01  8.559000e+01  4.859000e+01
      vertex   3.837200e+01  9.513600e+01  4.869600e+01
    endloop
  endfacet
  facet normal -1.275800e-01 -9.055399e-03  9.917870e-01
    outer loop
      vertex   3.860400e+01  8.557800e+01  4.907600e+01
      vertex   3.839200e+01  9.513600e+01  4.913600e+01
      vertex   3.756200e+01  8.558200e+01  4.894200e+01
    endloop
  endfacet
  facet normal -1.452905e-01 -7.454429e-03  9.893609e-01
    outer loop
      vertex   3.769800e+01  7.603001e+01  4.889000e+01
      vertex   3.756200e+01  8.558200e+01  4.894200e+01
      vertex   3.712600e+01  7.603001e+01  4.880600e+01
    endloop
  endfacet
  facet normal  0.000000e+00 -1.000000e+00  0.000000e+00
    outer loop
      vertex   4.247200e+01  8.883801e+01  4.830000e+01
      vertex   4.247400e+01  8.883801e+01  4.849200e+01
      vertex   4.247200e+01  8.883801e+01  4.849200e+01
    endloop
  endfacet
  facet normal -4.833128e-01 -7.290991e-03  8.754174e-01
    outer loop
      vertex   3.712600e+01  7.603001e+01  4.880600e+01
      vertex   3.692400e+01  8.557800e+01  4.877400e+01
      vertex   3.693400e+01  7.603001e+01  4.870000e+01
    endloop
  endfacet
  facet normal -4.900893e-01 -8.235510e-03  8.716334e-01
    outer loop
      vertex   3.708400e+01  8.558200e+01  4.886400e+01
      vertex   3.703000e+01  9.514600e+01  4.892400e+01
      vertex   3.692400e+01  8.557800e+01  4.877400e+01
    endloop
  endfacet
  facet normal -1.400466e-01 -9.321329e-03  9.901010e-01
    outer loop
      vertex   4.045600e+01  8.558200e+01  4.933800e+01
      vertex   3.839200e+01  9.513600e+01  4.913600e+01
      vertex   3.860400e+01  8.557800e+01  4.907600e+01
    endloop
  endfacet
  facet normal -4.901072e-01 -7.447429e-03  8.716303e-01
    outer loop
      vertex   3.712600e+01  7.603001e+01  4.880600e+01
      vertex   3.708400e+01  8.558200e+01  4.886400e+01
      vertex   3.692400e+01  8.557800e+01  4.877400e+01
    endloop
  endfacet
  facet normal -5.345380e-01 -7.487736e-03  8.451113e-01
    outer loop
      vertex   3.692400e+01  8.557800e+01  4.877400e+01
      vertex   3.696400e+01  9.513801e+01  4.888400e+01
      vertex   3.690400e+01  9.513200e+01  4.884600e+01
    endloop
  endfacet
  facet normal -5.176037e-01 -7.679111e-03  8.555860e-01
    outer loop
      vertex   3.696400e+01  9.513801e+01  4.888400e+01
      vertex   3.692400e+01  8.557800e+01  4.877400e+01
      vertex   3.703000e+01  9.514600e+01  4.892400e+01
    endloop
  endfacet
  facet normal  6.298131e-02  1.431741e-02  9.979120e-01
    outer loop
      vertex   4.243800e+01  8.216801e+01  4.842800e+01
      vertex   4.241400e+01  8.213400e+01  4.843000e+01
      vertex   4.242400e+01  8.209000e+01  4.843000e+01
    endloop
  endfacet
  facet normal  1.242088e-01  3.182972e-03  9.922510e-01
    outer loop
      vertex   4.242400e+01  8.209000e+01  4.843000e+01
      vertex   4.244000e+01  8.209000e+01  4.842800e+01
      vertex   4.243800e+01  8.216801e+01  4.842800e+01
    endloop
  endfacet
  facet normal -4.925644e-01  5.527094e-03 -8.702584e-01
    outer loop
      vertex   3.696400e+01  9.512601e+01  4.881200e+01
      vertex   3.692400e+01  8.557800e+01  4.877400e+01
      vertex   3.690400e+01  9.513200e+01  4.884600e+01
    endloop
  endfacet
  facet normal -4.574207e-01  5.455398e-03 -8.892336e-01
    outer loop
      vertex   3.692400e+01  8.557800e+01  4.877400e+01
      vertex   3.696400e+01  9.512601e+01  4.881200e+01
      vertex   3.703000e+01  9.511800e+01  4.877800e+01
    endloop
  endfacet
  facet normal -1.275794e-01 -8.851558e-03  9.917889e-01
    outer loop
      vertex   3.880000e+01  7.603001e+01  4.901600e+01
      vertex   3.860400e+01  8.557800e+01  4.907600e+01
      vertex   3.756200e+01  8.558200e+01  4.894200e+01
    endloop
  endfacet
  facet normal -4.712488e-02  9.586788e-03 -9.988430e-01
    outer loop
      vertex   3.756200e+01  8.557201e+01  4.863400e+01
      vertex   3.782600e+01  7.603400e+01  4.853000e+01
      vertex   3.769800e+01  7.603001e+01  4.853600e+01
    endloop
  endfacet
  facet normal -5.002914e-02  9.504869e-03 -9.987025e-01
    outer loop
      vertex   3.782600e+01  7.603400e+01  4.853000e+01
      vertex   3.756200e+01  8.557201e+01  4.863400e+01
      vertex   3.878800e+01  7.605400e+01  4.848200e+01
    endloop
  endfacet
  facet normal -4.731942e-01  6.042926e-03 -8.809373e-01
    outer loop
      vertex   3.712600e+01  7.603001e+01  4.860000e+01
      vertex   3.692400e+01  8.557800e+01  4.877400e+01
      vertex   3.708400e+01  8.557001e+01  4.868800e+01
    endloop
  endfacet
  facet normal  1.242089e-01  3.027794e-03  9.922515e-01
    outer loop
      vertex   4.242400e+01  8.209000e+01  4.843000e+01
      vertex   4.244200e+01  8.200800e+01  4.842800e+01
      vertex   4.244000e+01  8.209000e+01  4.842800e+01
    endloop
  endfacet
  facet normal -1.433943e-01 -1.674506e-02  9.895239e-01
    outer loop
      vertex   4.274600e+01  9.516400e+01  4.983200e+01
      vertex   4.045600e+01  8.558200e+01  4.933800e+01
      vertex   4.270400e+01  8.559600e+01  4.966400e+01
    endloop
  endfacet
  facet normal -4.310796e-02  1.040139e-02 -9.990163e-01
    outer loop
      vertex   3.878800e+01  7.605400e+01  4.848200e+01
      vertex   3.756200e+01  8.557201e+01  4.863400e+01
      vertex   3.858600e+01  8.559000e+01  4.859000e+01
    endloop
  endfacet
  facet normal -4.310326e-02  1.012685e-02 -9.990193e-01
    outer loop
      vertex   3.858600e+01  8.559000e+01  4.859000e+01
      vertex   3.756200e+01  8.557201e+01  4.863400e+01
      vertex   3.837200e+01  9.513600e+01  4.869600e+01
    endloop
  endfacet
  facet normal -1.561316e-01 -1.284803e-02  9.876527e-01
    outer loop
      vertex   4.045600e+01  8.558200e+01  4.933800e+01
      vertex   3.936600e+01  9.513801e+01  4.929000e+01
      vertex   3.839200e+01  9.513600e+01  4.913600e+01
    endloop
  endfacet
  facet normal -1.547996e-01 -1.269503e-02  9.878643e-01
    outer loop
      vertex   3.936600e+01  9.513801e+01  4.929000e+01
      vertex   4.045600e+01  8.558200e+01  4.933800e+01
      vertex   4.033600e+01  9.513801e+01  4.944200e+01
    endloop
  endfacet
  facet normal -4.732115e-01  5.627368e-03 -8.809308e-01
    outer loop
      vertex   3.708400e+01  8.557001e+01  4.868800e+01
      vertex   3.692400e+01  8.557800e+01  4.877400e+01
      vertex   3.703000e+01  9.511800e+01  4.877800e+01
    endloop
  endfacet
  facet normal -4.619169e-01  6.390176e-03 -8.869002e-01
    outer loop
      vertex   3.712600e+01  7.603001e+01  4.860000e+01
      vertex   3.693400e+01  7.603001e+01  4.870000e+01
      vertex   3.692400e+01  8.557800e+01  4.877400e+01
    endloop
  endfacet
  facet normal -3.404053e-02  1.063113e-02 -9.993638e-01
    outer loop
      vertex   3.931400e+01  9.514400e+01  4.866400e+01
      vertex   4.039600e+01  8.563600e+01  4.852600e+01
      vertex   3.837200e+01  9.513600e+01  4.869600e+01
    endloop
  endfacet
  facet normal -3.408622e-02  1.062591e-02 -9.993623e-01
    outer loop
      vertex   4.039600e+01  8.563600e+01  4.852600e+01
      vertex   3.931400e+01  9.514400e+01  4.866400e+01
      vertex   4.025400e+01  9.515000e+01  4.863200e+01
    endloop
  endfacet
  facet normal -1.487904e-01 -7.360208e-03  9.888414e-01
    outer loop
      vertex   3.756200e+01  8.558200e+01  4.894200e+01
      vertex   3.790000e+01  9.514001e+01  4.906400e+01
      vertex   3.740800e+01  9.514400e+01  4.899000e+01
    endloop
  endfacet
  facet normal -1.448520e-01 -7.506932e-03  9.894248e-01
    outer loop
      vertex   3.790000e+01  9.514001e+01  4.906400e+01
      vertex   3.756200e+01  8.558200e+01  4.894200e+01
      vertex   3.839200e+01  9.513600e+01  4.913600e+01
    endloop
  endfacet
endsolid vcg
