solid STL generated by MeshLab
  facet normal  1.044748e-01 -9.702656e-01  2.183340e-01
    outer loop
      vertex   9.473000e+01  6.048800e+01  4.914600e+01
      vertex   9.473000e+01  6.050600e+01  4.922600e+01
      vertex   9.389600e+01  6.043600e+01  4.931400e+01
    endloop
  endfacet
  facet normal  1.017939e-01 -9.769556e-01  1.876053e-01
    outer loop
      vertex   9.364001e+01  6.042200e+01  4.938000e+01
      vertex   9.389600e+01  6.043600e+01  4.931400e+01
      vertex   9.473000e+01  6.050600e+01  4.922600e+01
    endloop
  endfacet
  facet normal  1.031568e-01 -9.746559e-01  1.985061e-01
    outer loop
      vertex   9.366801e+01  6.043800e+01  4.944400e+01
      vertex   9.364001e+01  6.042200e+01  4.938000e+01
      vertex   9.473000e+01  6.050600e+01  4.922600e+01
    endloop
  endfacet
  facet normal  4.428775e-01 -7.617605e-02  8.933402e-01
    outer loop
      vertex   1.035680e+02  6.489000e+01  4.957600e+01
      vertex   1.023900e+02  6.489000e+01  5.016000e+01
      vertex   1.035180e+02  6.396600e+01  4.952200e+01
    endloop
  endfacet
  facet normal  4.143425e-01 -5.817721e-01  6.999011e-01
    outer loop
      vertex   9.555400e+01  6.284800e+01  5.374800e+01
      vertex   9.777801e+01  6.224000e+01  5.192600e+01
      vertex   9.556400e+01  6.288400e+01  5.377200e+01
    endloop
  endfacet
  facet normal  4.277923e-01 -5.609356e-01  7.087631e-01
    outer loop
      vertex   9.556400e+01  6.288400e+01  5.377200e+01
      vertex   9.777801e+01  6.224000e+01  5.192600e+01
      vertex   9.777801e+01  6.294000e+01  5.248000e+01
    endloop
  endfacet
  facet normal  2.356131e-01 -8.806415e-01  4.110439e-01
    outer loop
      vertex   1.002160e+02  6.138200e+01  4.906800e+01
      vertex   1.002420e+02  6.124800e+01  4.876600e+01
      vertex   1.016040e+02  6.163200e+01  4.880800e+01
    endloop
  endfacet
  facet normal  1.886536e-01 -9.450926e-01  2.668517e-01
    outer loop
      vertex   9.473601e+01  6.117000e+01  5.193400e+01
      vertex   9.473000e+01  6.090000e+01  5.098200e+01
      vertex   9.777801e+01  6.140000e+01  5.059800e+01
    endloop
  endfacet
  facet normal  1.179037e-01 -9.555405e-01  2.702610e-01
    outer loop
      vertex   9.473000e+01  6.090000e+01  5.098200e+01
      vertex   9.473601e+01  6.117000e+01  5.193400e+01
      vertex   9.463600e+01  6.109600e+01  5.171600e+01
    endloop
  endfacet
  facet normal  2.719708e-01 -8.607112e-01  4.303581e-01
    outer loop
      vertex   9.777801e+01  6.140000e+01  5.059800e+01
      vertex   9.777801e+01  6.173200e+01  5.126200e+01
      vertex   9.505000e+01  6.154600e+01  5.261400e+01
    endloop
  endfacet
  facet normal  2.740169e-01 -8.577794e-01  4.348899e-01
    outer loop
      vertex   9.506200e+01  6.156200e+01  5.263800e+01
      vertex   9.505000e+01  6.154600e+01  5.261400e+01
      vertex   9.777801e+01  6.173200e+01  5.126200e+01
    endloop
  endfacet
  facet normal  6.246905e-02 -9.980469e-01  0.000000e+00
    outer loop
      vertex   9.506200e+01  6.156200e+01  5.264000e+01
      vertex   9.506200e+01  6.156200e+01  5.263800e+01
      vertex   9.777801e+01  6.173200e+01  5.126200e+01
    endloop
  endfacet
  facet normal  2.369216e-01 -8.738537e-01  4.245560e-01
    outer loop
      vertex   1.002160e+02  6.158800e+01  4.949200e+01
      vertex   1.002160e+02  6.138200e+01  4.906800e+01
      vertex   1.016040e+02  6.163200e+01  4.880800e+01
    endloop
  endfacet
  facet normal  3.044769e-01 -7.611920e-01  5.726085e-01
    outer loop
      vertex   1.016040e+02  6.163200e+01  4.880800e+01
      vertex   1.020260e+02  6.170000e+01  4.867400e+01
      vertex   1.020360e+02  6.170400e+01  4.867400e+01
    endloop
  endfacet
  facet normal  2.951365e-01 -7.989156e-01  5.240499e-01
    outer loop
      vertex   1.016900e+02  6.156800e+01  4.866200e+01
      vertex   1.020260e+02  6.170000e+01  4.867400e+01
      vertex   1.016040e+02  6.163200e+01  4.880800e+01
    endloop
  endfacet
  facet normal  2.935094e-01 -8.068165e-01  5.127370e-01
    outer loop
      vertex   1.016040e+02  6.163200e+01  4.880800e+01
      vertex   1.020360e+02  6.170400e+01  4.867400e+01
      vertex   1.022500e+02  6.194200e+01  4.892600e+01
    endloop
  endfacet
  facet normal  5.059271e-01 -2.726145e-01  8.183637e-01
    outer loop
      vertex   9.570400e+01  6.382800e+01  5.405800e+01
      vertex   9.777801e+01  6.294000e+01  5.248000e+01
      vertex   9.570400e+01  6.383400e+01  5.406000e+01
    endloop
  endfacet
  facet normal  4.912708e-01 -3.034342e-01  8.164439e-01
    outer loop
      vertex   9.569801e+01  6.378600e+01  5.404600e+01
      vertex   9.777801e+01  6.294000e+01  5.248000e+01
      vertex   9.570400e+01  6.382800e+01  5.405800e+01
    endloop
  endfacet
  facet normal  4.925464e-01 -3.006958e-01  8.166884e-01
    outer loop
      vertex   9.570400e+01  6.383400e+01  5.406000e+01
      vertex   9.777801e+01  6.294000e+01  5.248000e+01
      vertex   9.777801e+01  6.385800e+01  5.281800e+01
    endloop
  endfacet
  facet normal  2.675596e-01 -8.035598e-01  5.316986e-01
    outer loop
      vertex   1.020360e+02  6.170400e+01  4.867400e+01
      vertex   1.025420e+02  6.193600e+01  4.877000e+01
      vertex   1.022500e+02  6.194200e+01  4.892600e+01
    endloop
  endfacet
  facet normal  2.623310e-01 -8.631015e-01  4.315532e-01
    outer loop
      vertex   9.777801e+01  6.173200e+01  5.126200e+01
      vertex   9.777801e+01  6.140000e+01  5.059800e+01
      vertex   1.002160e+02  6.158800e+01  4.949200e+01
    endloop
  endfacet
  facet normal  1.283560e-01 -9.681539e-01  2.149483e-01
    outer loop
      vertex   9.719801e+01  6.074400e+01  4.882800e+01
      vertex   9.777801e+01  6.082800e+01  4.886000e+01
      vertex   9.555400e+01  6.057000e+01  4.902600e+01
    endloop
  endfacet
  facet normal  1.294981e-01 -9.622335e-01  2.394512e-01
    outer loop
      vertex   9.488600e+01  6.050200e+01  4.911400e+01
      vertex   9.555400e+01  6.057000e+01  4.902600e+01
      vertex   9.777801e+01  6.082800e+01  4.886000e+01
    endloop
  endfacet
  facet normal  1.264822e-01 -9.734669e-01  1.906948e-01
    outer loop
      vertex   9.473000e+01  6.048800e+01  4.914600e+01
      vertex   9.488600e+01  6.050200e+01  4.911400e+01
      vertex   9.777801e+01  6.082800e+01  4.886000e+01
    endloop
  endfacet
  facet normal  1.283562e-01 -9.675345e-01  2.177195e-01
    outer loop
      vertex   9.473000e+01  6.050600e+01  4.922600e+01
      vertex   9.473000e+01  6.048800e+01  4.914600e+01
      vertex   9.777801e+01  6.082800e+01  4.886000e+01
    endloop
  endfacet
  facet normal  4.382760e-01 -7.606006e-02  8.956165e-01
    outer loop
      vertex   1.038320e+02  6.396200e+01  4.936800e+01
      vertex   1.035680e+02  6.489000e+01  4.957600e+01
      vertex   1.035180e+02  6.396600e+01  4.952200e+01
    endloop
  endfacet
  facet normal  4.379334e-01 -7.619259e-02  8.957729e-01
    outer loop
      vertex   1.038400e+02  6.410201e+01  4.937600e+01
      vertex   1.035680e+02  6.489000e+01  4.957600e+01
      vertex   1.038320e+02  6.396200e+01  4.936800e+01
    endloop
  endfacet
  facet normal  4.368628e-01 -7.668411e-02  8.962535e-01
    outer loop
      vertex   1.038520e+02  6.433400e+01  4.939000e+01
      vertex   1.035680e+02  6.489000e+01  4.957600e+01
      vertex   1.038400e+02  6.410201e+01  4.937600e+01
    endloop
  endfacet
  facet normal  3.254342e-01 -7.718526e-01  5.462015e-01
    outer loop
      vertex   9.528201e+01  6.201000e+01  5.314200e+01
      vertex   9.506200e+01  6.156200e+01  5.264000e+01
      vertex   9.777801e+01  6.173200e+01  5.126200e+01
    endloop
  endfacet
  facet normal  3.334761e-01 -7.617967e-01  5.553914e-01
    outer loop
      vertex   9.532600e+01  6.210800e+01  5.325000e+01
      vertex   9.528201e+01  6.201000e+01  5.314200e+01
      vertex   9.777801e+01  6.173200e+01  5.126200e+01
    endloop
  endfacet
  facet normal  2.799791e-01 -7.906903e-01  5.444452e-01
    outer loop
      vertex   1.018660e+02  6.195200e+01  4.913800e+01
      vertex   1.016040e+02  6.163200e+01  4.880800e+01
      vertex   1.022500e+02  6.194200e+01  4.892600e+01
    endloop
  endfacet
  facet normal  4.137692e-01 -5.826632e-01  6.994988e-01
    outer loop
      vertex   9.551801e+01  6.272400e+01  5.366600e+01
      vertex   9.777801e+01  6.224000e+01  5.192600e+01
      vertex   9.555400e+01  6.284800e+01  5.374800e+01
    endloop
  endfacet
  facet normal  4.116632e-01 -5.862334e-01  6.977564e-01
    outer loop
      vertex   9.533601e+01  6.213200e+01  5.327600e+01
      vertex   9.777801e+01  6.224000e+01  5.192600e+01
      vertex   9.551801e+01  6.272400e+01  5.366600e+01
    endloop
  endfacet
  facet normal  1.931616e-01 -9.239469e-01  3.301675e-01
    outer loop
      vertex   9.473000e+01  6.090000e+01  5.098200e+01
      vertex   9.777801e+01  6.115200e+01  4.990400e+01
      vertex   9.777801e+01  6.140000e+01  5.059800e+01
    endloop
  endfacet
  facet normal  3.395796e-01 -6.824189e-01  6.472945e-01
    outer loop
      vertex   1.020940e+02  6.242400e+01  4.951600e+01
      vertex   1.018660e+02  6.195200e+01  4.913800e+01
      vertex   1.022500e+02  6.194200e+01  4.892600e+01
    endloop
  endfacet
  facet normal  4.453825e-01 -5.556378e-01  7.020692e-01
    outer loop
      vertex   1.003780e+02  6.301000e+01  5.088600e+01
      vertex   9.777801e+01  6.294000e+01  5.248000e+01
      vertex   9.777801e+01  6.224000e+01  5.192600e+01
    endloop
  endfacet
  facet normal  2.139861e-01 -8.420407e-01  4.951538e-01
    outer loop
      vertex   1.007900e+02  6.132400e+01  4.863600e+01
      vertex   1.016900e+02  6.156800e+01  4.866200e+01
      vertex   1.016040e+02  6.163200e+01  4.880800e+01
    endloop
  endfacet
  facet normal  2.279613e-01 -8.587376e-01  4.589154e-01
    outer loop
      vertex   1.007900e+02  6.132400e+01  4.863600e+01
      vertex   1.016040e+02  6.163200e+01  4.880800e+01
      vertex   1.002420e+02  6.124800e+01  4.876600e+01
    endloop
  endfacet
  facet normal  1.340426e-01 -9.506053e-01  2.799683e-01
    outer loop
      vertex   9.473000e+01  6.050600e+01  4.922600e+01
      vertex   9.777801e+01  6.082800e+01  4.886000e+01
      vertex   9.777801e+01  6.091400e+01  4.915200e+01
    endloop
  endfacet
  facet normal  3.837454e-01 -5.082844e-01  7.709646e-01
    outer loop
      vertex   1.032020e+02  6.245600e+01  4.899400e+01
      vertex   1.033060e+02  6.312000e+01  4.938000e+01
      vertex   1.028980e+02  6.245400e+01  4.914400e+01
    endloop
  endfacet
  facet normal  3.810850e-01 -5.085375e-01  7.721165e-01
    outer loop
      vertex   1.033060e+02  6.312000e+01  4.938000e+01
      vertex   1.032020e+02  6.245600e+01  4.899400e+01
      vertex   1.032720e+02  6.255400e+01  4.902400e+01
    endloop
  endfacet
  facet normal  3.705314e-01 -5.103682e-01  7.760354e-01
    outer loop
      vertex   1.032720e+02  6.255400e+01  4.902400e+01
      vertex   1.033980e+02  6.275800e+01  4.909800e+01
      vertex   1.033060e+02  6.312000e+01  4.938000e+01
    endloop
  endfacet
  facet normal  1.854549e-01 -8.921822e-01  4.118463e-01
    outer loop
      vertex   9.777801e+01  6.091400e+01  4.915200e+01
      vertex   1.002420e+02  6.124800e+01  4.876600e+01
      vertex   1.002160e+02  6.138200e+01  4.906800e+01
    endloop
  endfacet
  facet normal  1.454275e-01 -9.068559e-01  3.955543e-01
    outer loop
      vertex   1.002420e+02  6.124800e+01  4.876600e+01
      vertex   9.957001e+01  6.109400e+01  4.866000e+01
      vertex   1.002480e+02  6.119400e+01  4.864000e+01
    endloop
  endfacet
  facet normal  4.096937e-01 -5.322726e-01  7.408353e-01
    outer loop
      vertex   1.020940e+02  6.242400e+01  4.951600e+01
      vertex   1.003780e+02  6.301000e+01  5.088600e+01
      vertex   1.003260e+02  6.235200e+01  5.044200e+01
    endloop
  endfacet
  facet normal  3.256536e-01 -6.881967e-01  6.483325e-01
    outer loop
      vertex   1.020940e+02  6.242400e+01  4.951600e+01
      vertex   1.022500e+02  6.194200e+01  4.892600e+01
      vertex   1.028980e+02  6.245400e+01  4.914400e+01
    endloop
  endfacet
  facet normal  1.522221e-01 -9.595814e-01  2.367107e-01
    outer loop
      vertex   9.437000e+01  6.087200e+01  5.110000e+01
      vertex   9.436001e+01  6.086400e+01  5.107400e+01
      vertex   9.473000e+01  6.090000e+01  5.098200e+01
    endloop
  endfacet
  facet normal  1.492832e-01 -9.635018e-01  2.222134e-01
    outer loop
      vertex   9.473000e+01  6.090000e+01  5.098200e+01
      vertex   9.430200e+01  6.082400e+01  5.094000e+01
      vertex   9.473000e+01  6.064400e+01  4.987200e+01
    endloop
  endfacet
  facet normal  1.491773e-01 -9.633375e-01  2.229957e-01
    outer loop
      vertex   9.430200e+01  6.082400e+01  5.094000e+01
      vertex   9.473000e+01  6.090000e+01  5.098200e+01
      vertex   9.436001e+01  6.086400e+01  5.107400e+01
    endloop
  endfacet
  facet normal  3.846890e-01 -5.086179e-01  7.702741e-01
    outer loop
      vertex   1.033060e+02  6.312000e+01  4.938000e+01
      vertex   1.022960e+02  6.308000e+01  4.985800e+01
      vertex   1.028980e+02  6.245400e+01  4.914400e+01
    endloop
  endfacet
  facet normal  4.842021e-01 -8.080705e-02  8.712167e-01
    outer loop
      vertex   1.023900e+02  6.489000e+01  5.016000e+01
      vertex   1.004000e+02  6.489000e+01  5.126600e+01
      vertex   1.023780e+02  6.393400e+01  5.007800e+01
    endloop
  endfacet
  facet normal  3.904070e-01 -5.019794e-01  7.717506e-01
    outer loop
      vertex   1.036120e+02  6.311200e+01  4.922000e+01
      vertex   1.033060e+02  6.312000e+01  4.938000e+01
      vertex   1.033980e+02  6.275800e+01  4.909800e+01
    endloop
  endfacet
  facet normal  3.942199e-01 -4.885951e-01  7.783737e-01
    outer loop
      vertex   1.036220e+02  6.313600e+01  4.923000e+01
      vertex   1.033060e+02  6.312000e+01  4.938000e+01
      vertex   1.036120e+02  6.311200e+01  4.922000e+01
    endloop
  endfacet
  facet normal  3.477132e-01 -7.446643e-01  5.697111e-01
    outer loop
      vertex   9.777801e+01  6.173200e+01  5.126200e+01
      vertex   9.777801e+01  6.224000e+01  5.192600e+01
      vertex   9.532600e+01  6.210800e+01  5.325000e+01
    endloop
  endfacet
  facet normal  3.439961e-01 -7.521515e-01  5.620807e-01
    outer loop
      vertex   9.533601e+01  6.213200e+01  5.327600e+01
      vertex   9.532600e+01  6.210800e+01  5.325000e+01
      vertex   9.777801e+01  6.224000e+01  5.192600e+01
    endloop
  endfacet
  facet normal  5.118952e-01 -1.033140e-01  8.528128e-01
    outer loop
      vertex   9.570400e+01  6.383400e+01  5.406000e+01
      vertex   9.777801e+01  6.385800e+01  5.281800e+01
      vertex   9.576801e+01  6.482800e+01  5.414200e+01
    endloop
  endfacet
  facet normal  2.880414e-01 -8.120106e-01  5.076130e-01
    outer loop
      vertex   1.002560e+02  6.188600e+01  4.994600e+01
      vertex   1.002160e+02  6.158800e+01  4.949200e+01
      vertex   1.018660e+02  6.195200e+01  4.913800e+01
    endloop
  endfacet
  facet normal  2.362715e-01 -8.924459e-01  3.843386e-01
    outer loop
      vertex   9.499600e+01  6.148000e+01  5.249400e+01
      vertex   9.473601e+01  6.117000e+01  5.193400e+01
      vertex   9.777801e+01  6.140000e+01  5.059800e+01
    endloop
  endfacet
  facet normal  2.363442e-01 -8.923818e-01  3.844426e-01
    outer loop
      vertex   9.505000e+01  6.154600e+01  5.261400e+01
      vertex   9.499600e+01  6.148000e+01  5.249400e+01
      vertex   9.777801e+01  6.140000e+01  5.059800e+01
    endloop
  endfacet
  facet normal  3.227843e-01 -6.927053e-01  6.449570e-01
    outer loop
      vertex   1.028440e+02  6.217000e+01  4.886600e+01
      vertex   1.032020e+02  6.245600e+01  4.899400e+01
      vertex   1.028980e+02  6.245400e+01  4.914400e+01
    endloop
  endfacet
  facet normal  5.343534e-01 -9.441655e-02  8.399713e-01
    outer loop
      vertex   1.004000e+02  6.489000e+01  5.126600e+01
      vertex   9.777801e+01  6.489000e+01  5.293400e+01
      vertex   9.777801e+01  6.385800e+01  5.281800e+01
    endloop
  endfacet
  facet normal  2.171863e-01 -8.934273e-01  3.932147e-01
    outer loop
      vertex   1.002420e+02  6.124800e+01  4.876600e+01
      vertex   1.002480e+02  6.119400e+01  4.864000e+01
      vertex   1.007900e+02  6.132400e+01  4.863600e+01
    endloop
  endfacet
  facet normal  1.716577e-01 -9.436972e-01  2.827884e-01
    outer loop
      vertex   1.002420e+02  6.124800e+01  4.876600e+01
      vertex   9.777801e+01  6.079800e+01  4.876000e+01
      vertex   9.957001e+01  6.109400e+01  4.866000e+01
    endloop
  endfacet
  facet normal  1.716417e-01 -9.436136e-01  2.830769e-01
    outer loop
      vertex   9.777801e+01  6.079800e+01  4.876000e+01
      vertex   1.002420e+02  6.124800e+01  4.876600e+01
      vertex   9.777801e+01  6.082800e+01  4.886000e+01
    endloop
  endfacet
  facet normal  4.632551e-01 -2.625365e-01  8.464451e-01
    outer loop
      vertex   1.023780e+02  6.393400e+01  5.007800e+01
      vertex   1.003780e+02  6.301000e+01  5.088600e+01
      vertex   1.022960e+02  6.308000e+01  4.985800e+01
    endloop
  endfacet
  facet normal  1.635273e-01 -9.477205e-01  2.740157e-01
    outer loop
      vertex   9.463600e+01  6.109600e+01  5.171600e+01
      vertex   9.437000e+01  6.087200e+01  5.110000e+01
      vertex   9.473000e+01  6.090000e+01  5.098200e+01
    endloop
  endfacet
  facet normal  4.837042e-01 -3.192406e-01  8.149330e-01
    outer loop
      vertex   9.567400e+01  6.362200e+01  5.399600e+01
      vertex   9.777801e+01  6.294000e+01  5.248000e+01
      vertex   9.569801e+01  6.378600e+01  5.404600e+01
    endloop
  endfacet
  facet normal  4.836247e-01 -3.194277e-01  8.149068e-01
    outer loop
      vertex   9.556400e+01  6.288400e+01  5.377200e+01
      vertex   9.777801e+01  6.294000e+01  5.248000e+01
      vertex   9.567400e+01  6.362200e+01  5.399600e+01
    endloop
  endfacet
  facet normal  5.278187e-01 -6.246185e-02  8.470572e-01
    outer loop
      vertex   9.576801e+01  6.482800e+01  5.414200e+01
      vertex   9.777801e+01  6.385800e+01  5.281800e+01
      vertex   9.577000e+01  6.487200e+01  5.414400e+01
    endloop
  endfacet
  facet normal  5.520245e-01  0.000000e+00  8.338279e-01
    outer loop
      vertex   9.777801e+01  6.385800e+01  5.281800e+01
      vertex   9.577200e+01  6.489201e+01  5.414600e+01
      vertex   9.577200e+01  6.489000e+01  5.414600e+01
    endloop
  endfacet
  facet normal  4.909457e-01 -1.500208e-01  8.581761e-01
    outer loop
      vertex   9.577000e+01  6.487200e+01  5.414400e+01
      vertex   9.777801e+01  6.385800e+01  5.281800e+01
      vertex   9.577200e+01  6.489000e+01  5.414600e+01
    endloop
  endfacet
  facet normal  5.150989e-01 -9.477838e-02  8.518745e-01
    outer loop
      vertex   9.577200e+01  6.489201e+01  5.414600e+01
      vertex   9.777801e+01  6.385800e+01  5.281800e+01
      vertex   9.632401e+01  6.489000e+01  5.381200e+01
    endloop
  endfacet
  facet normal  5.145417e-01 -9.577972e-02  8.520992e-01
    outer loop
      vertex   9.632401e+01  6.489000e+01  5.381200e+01
      vertex   9.777801e+01  6.385800e+01  5.281800e+01
      vertex   9.777801e+01  6.489000e+01  5.293400e+01
    endloop
  endfacet
  facet normal  4.298114e-01 -2.531815e-01  8.666956e-01
    outer loop
      vertex   1.035180e+02  6.396600e+01  4.952200e+01
      vertex   1.023780e+02  6.393400e+01  5.007800e+01
      vertex   1.033060e+02  6.312000e+01  4.938000e+01
    endloop
  endfacet
  facet normal  1.898918e-01 -9.360433e-01  2.962501e-01
    outer loop
      vertex   9.777801e+01  6.115200e+01  4.990400e+01
      vertex   9.777801e+01  6.091400e+01  4.915200e+01
      vertex   1.002160e+02  6.138200e+01  4.906800e+01
    endloop
  endfacet
  facet normal  4.414169e-01 -7.369465e-02  8.942708e-01
    outer loop
      vertex   1.038800e+02  6.489000e+01  4.942200e+01
      vertex   1.035680e+02  6.489000e+01  4.957600e+01
      vertex   1.038520e+02  6.433400e+01  4.939000e+01
    endloop
  endfacet
  facet normal  5.322031e-01 -8.546291e-02  8.422921e-01
    outer loop
      vertex   1.004000e+02  6.489000e+01  5.126600e+01
      vertex   9.777801e+01  6.385800e+01  5.281800e+01
      vertex   1.003980e+02  6.389200e+01  5.116600e+01
    endloop
  endfacet
  facet normal  1.347357e-01 -9.690189e-01  2.069991e-01
    outer loop
      vertex   9.473000e+01  6.064400e+01  4.987200e+01
      vertex   9.473000e+01  6.050600e+01  4.922600e+01
      vertex   9.777801e+01  6.091400e+01  4.915200e+01
    endloop
  endfacet
  facet normal  1.824284e-01 -9.373915e-01  2.966768e-01
    outer loop
      vertex   9.473000e+01  6.090000e+01  5.098200e+01
      vertex   9.777801e+01  6.091400e+01  4.915200e+01
      vertex   9.777801e+01  6.115200e+01  4.990400e+01
    endloop
  endfacet
  facet normal  4.387403e-01 -8.226271e-02  8.948406e-01
    outer loop
      vertex   1.035180e+02  6.396600e+01  4.952200e+01
      vertex   1.023900e+02  6.489000e+01  5.016000e+01
      vertex   1.023780e+02  6.393400e+01  5.007800e+01
    endloop
  endfacet
  facet normal  4.187291e-01 -5.178534e-01  7.459851e-01
    outer loop
      vertex   1.022960e+02  6.308000e+01  4.985800e+01
      vertex   1.003780e+02  6.301000e+01  5.088600e+01
      vertex   1.020940e+02  6.242400e+01  4.951600e+01
    endloop
  endfacet
  facet normal  4.253355e-01 -2.524651e-01  8.691095e-01
    outer loop
      vertex   1.033060e+02  6.312000e+01  4.938000e+01
      vertex   1.036220e+02  6.313600e+01  4.923000e+01
      vertex   1.035180e+02  6.396600e+01  4.952200e+01
    endloop
  endfacet
  facet normal  4.271501e-01 -2.519746e-01  8.683615e-01
    outer loop
      vertex   1.036520e+02  6.324200e+01  4.924600e+01
      vertex   1.035180e+02  6.396600e+01  4.952200e+01
      vertex   1.036220e+02  6.313600e+01  4.923000e+01
    endloop
  endfacet
  facet normal  4.243677e-01 -2.529061e-01  8.694542e-01
    outer loop
      vertex   1.037180e+02  6.350400e+01  4.929000e+01
      vertex   1.035180e+02  6.396600e+01  4.952200e+01
      vertex   1.036520e+02  6.324200e+01  4.924600e+01
    endloop
  endfacet
  facet normal  3.499073e-01 -6.827238e-01  6.414460e-01
    outer loop
      vertex   1.002560e+02  6.188600e+01  4.994600e+01
      vertex   1.018660e+02  6.195200e+01  4.913800e+01
      vertex   1.020940e+02  6.242400e+01  4.951600e+01
    endloop
  endfacet
  facet normal  4.811341e-01 -8.835569e-02  8.721830e-01
    outer loop
      vertex   1.023780e+02  6.393400e+01  5.007800e+01
      vertex   1.004000e+02  6.489000e+01  5.126600e+01
      vertex   1.003980e+02  6.389200e+01  5.116600e+01
    endloop
  endfacet
  facet normal  4.455453e-01 -5.246857e-01  7.253925e-01
    outer loop
      vertex   1.003780e+02  6.301000e+01  5.088600e+01
      vertex   9.777801e+01  6.224000e+01  5.192600e+01
      vertex   1.003260e+02  6.235200e+01  5.044200e+01
    endloop
  endfacet
  facet normal  1.716994e-01 -9.450164e-01  2.783222e-01
    outer loop
      vertex   9.777801e+01  6.091400e+01  4.915200e+01
      vertex   9.777801e+01  6.082800e+01  4.886000e+01
      vertex   1.002420e+02  6.124800e+01  4.876600e+01
    endloop
  endfacet
  facet normal  1.380679e-01 -9.650884e-01  2.225793e-01
    outer loop
      vertex   9.473000e+01  6.090000e+01  5.098200e+01
      vertex   9.473000e+01  6.064400e+01  4.987200e+01
      vertex   9.777801e+01  6.091400e+01  4.915200e+01
    endloop
  endfacet
  facet normal  2.585087e-01 -8.688888e-01  4.221438e-01
    outer loop
      vertex   9.777801e+01  6.140000e+01  5.059800e+01
      vertex   1.002160e+02  6.138200e+01  4.906800e+01
      vertex   1.002160e+02  6.158800e+01  4.949200e+01
    endloop
  endfacet
  facet normal  5.047016e-01 -2.982800e-01  8.101269e-01
    outer loop
      vertex   1.003780e+02  6.301000e+01  5.088600e+01
      vertex   9.777801e+01  6.385800e+01  5.281800e+01
      vertex   9.777801e+01  6.294000e+01  5.248000e+01
    endloop
  endfacet
  facet normal  3.161224e-01 -8.056632e-01  5.009725e-01
    outer loop
      vertex   9.777801e+01  6.173200e+01  5.126200e+01
      vertex   1.002160e+02  6.158800e+01  4.949200e+01
      vertex   1.002560e+02  6.188600e+01  4.994600e+01
    endloop
  endfacet
  facet normal  3.753154e-01 -5.167401e-01  7.694920e-01
    outer loop
      vertex   1.028980e+02  6.245400e+01  4.914400e+01
      vertex   1.022960e+02  6.308000e+01  4.985800e+01
      vertex   1.020940e+02  6.242400e+01  4.951600e+01
    endloop
  endfacet
  facet normal  5.160879e-01 -2.697795e-01  8.129406e-01
    outer loop
      vertex   1.003980e+02  6.389200e+01  5.116600e+01
      vertex   9.777801e+01  6.385800e+01  5.281800e+01
      vertex   1.003780e+02  6.301000e+01  5.088600e+01
    endloop
  endfacet
  facet normal  1.298757e-01 -9.676643e-01  2.162362e-01
    outer loop
      vertex   9.426401e+01  6.080000e+01  5.085000e+01
      vertex   9.393001e+01  6.058400e+01  5.008400e+01
      vertex   9.473000e+01  6.064400e+01  4.987200e+01
    endloop
  endfacet
  facet normal  1.157420e-01 -9.708251e-01  2.100060e-01
    outer loop
      vertex   9.430200e+01  6.082400e+01  5.094000e+01
      vertex   9.426401e+01  6.080000e+01  5.085000e+01
      vertex   9.473000e+01  6.064400e+01  4.987200e+01
    endloop
  endfacet
  facet normal  9.979786e-02 -9.784119e-01  1.809714e-01
    outer loop
      vertex   9.385201e+01  6.054000e+01  4.989400e+01
      vertex   9.366801e+01  6.043800e+01  4.944400e+01
      vertex   9.473000e+01  6.050600e+01  4.922600e+01
    endloop
  endfacet
  facet normal  9.117003e-02 -9.812564e-01  1.697760e-01
    outer loop
      vertex   9.389800e+01  6.056400e+01  5.000800e+01
      vertex   9.385201e+01  6.054000e+01  4.989400e+01
      vertex   9.473000e+01  6.050600e+01  4.922600e+01
    endloop
  endfacet
  facet normal  3.487004e-01 -7.443730e-01  5.694882e-01
    outer loop
      vertex   9.777801e+01  6.224000e+01  5.192600e+01
      vertex   9.777801e+01  6.173200e+01  5.126200e+01
      vertex   1.002560e+02  6.188600e+01  4.994600e+01
    endloop
  endfacet
  facet normal  4.269961e-01 -2.513487e-01  8.686186e-01
    outer loop
      vertex   1.038300e+02  6.395000e+01  4.936400e+01
      vertex   1.035180e+02  6.396600e+01  4.952200e+01
      vertex   1.037180e+02  6.350400e+01  4.929000e+01
    endloop
  endfacet
  facet normal  4.089595e-01 -3.495594e-01  8.429474e-01
    outer loop
      vertex   1.038320e+02  6.396200e+01  4.936800e+01
      vertex   1.035180e+02  6.396600e+01  4.952200e+01
      vertex   1.038300e+02  6.395000e+01  4.936400e+01
    endloop
  endfacet
  facet normal  3.822481e-01 -6.997682e-01  6.034988e-01
    outer loop
      vertex   9.777801e+01  6.224000e+01  5.192600e+01
      vertex   1.002560e+02  6.188600e+01  4.994600e+01
      vertex   1.003260e+02  6.235200e+01  5.044200e+01
    endloop
  endfacet
  facet normal  4.211264e-01 -2.639766e-01  8.677378e-01
    outer loop
      vertex   1.033060e+02  6.312000e+01  4.938000e+01
      vertex   1.023780e+02  6.393400e+01  5.007800e+01
      vertex   1.022960e+02  6.308000e+01  4.985800e+01
    endloop
  endfacet
  facet normal  1.323428e-01 -9.605473e-01  2.446105e-01
    outer loop
      vertex   9.390800e+01  6.057200e+01  5.003400e+01
      vertex   9.389800e+01  6.056400e+01  5.000800e+01
      vertex   9.473000e+01  6.064400e+01  4.987200e+01
    endloop
  endfacet
  facet normal  1.211500e-01 -9.760019e-01  1.809498e-01
    outer loop
      vertex   9.393001e+01  6.058400e+01  5.008400e+01
      vertex   9.390800e+01  6.057200e+01  5.003400e+01
      vertex   9.473000e+01  6.064400e+01  4.987200e+01
    endloop
  endfacet
  facet normal  1.271379e-01 -9.700002e-01  2.072087e-01
    outer loop
      vertex   9.473000e+01  6.050600e+01  4.922600e+01
      vertex   9.473000e+01  6.064400e+01  4.987200e+01
      vertex   9.389800e+01  6.056400e+01  5.000800e+01
    endloop
  endfacet
  facet normal  3.316606e-01 -6.913750e-01  6.418737e-01
    outer loop
      vertex   1.025420e+02  6.193600e+01  4.877000e+01
      vertex   1.028440e+02  6.217000e+01  4.886600e+01
      vertex   1.028980e+02  6.245400e+01  4.914400e+01
    endloop
  endfacet
  facet normal  3.295344e-01 -6.909971e-01  6.433741e-01
    outer loop
      vertex   1.025420e+02  6.193600e+01  4.877000e+01
      vertex   1.028980e+02  6.245400e+01  4.914400e+01
      vertex   1.022500e+02  6.194200e+01  4.892600e+01
    endloop
  endfacet
  facet normal  4.672249e-01 -2.771297e-01  8.395832e-01
    outer loop
      vertex   1.023780e+02  6.393400e+01  5.007800e+01
      vertex   1.003980e+02  6.389200e+01  5.116600e+01
      vertex   1.003780e+02  6.301000e+01  5.088600e+01
    endloop
  endfacet
  facet normal  2.000970e-01 -9.226372e-01  3.296995e-01
    outer loop
      vertex   9.777801e+01  6.140000e+01  5.059800e+01
      vertex   9.777801e+01  6.115200e+01  4.990400e+01
      vertex   1.002160e+02  6.138200e+01  4.906800e+01
    endloop
  endfacet
  facet normal  1.219498e-01 -9.506793e-01  2.851965e-01
    outer loop
      vertex   9.777801e+01  6.082800e+01  4.886000e+01
      vertex   9.719801e+01  6.074400e+01  4.882800e+01
      vertex   9.777801e+01  6.079800e+01  4.876000e+01
    endloop
  endfacet
  facet normal  3.506268e-01 -7.067224e-01  6.144952e-01
    outer loop
      vertex   1.003260e+02  6.235200e+01  5.044200e+01
      vertex   1.002560e+02  6.188600e+01  4.994600e+01
      vertex   1.020940e+02  6.242400e+01  4.951600e+01
    endloop
  endfacet
  facet normal  2.900045e-01 -7.917915e-01  5.375534e-01
    outer loop
      vertex   1.002160e+02  6.158800e+01  4.949200e+01
      vertex   1.016040e+02  6.163200e+01  4.880800e+01
      vertex   1.018660e+02  6.195200e+01  4.913800e+01
    endloop
  endfacet
  facet normal  1.057231e-01  9.733794e-01  2.033597e-01
    outer loop
      vertex   9.364201e+01  6.936200e+01  4.938000e+01
      vertex   9.473000e+01  6.927600e+01  4.922600e+01
      vertex   9.389400e+01  6.934800e+01  4.931600e+01
    endloop
  endfacet
  facet normal  1.065967e-01  9.711663e-01  2.132445e-01
    outer loop
      vertex   9.473000e+01  6.929401e+01  4.914400e+01
      vertex   9.389400e+01  6.934800e+01  4.931600e+01
      vertex   9.473000e+01  6.927600e+01  4.922600e+01
    endloop
  endfacet
  facet normal  1.087408e-01  9.675905e-01  2.279124e-01
    outer loop
      vertex   9.366801e+01  6.934400e+01  4.944400e+01
      vertex   9.473000e+01  6.927600e+01  4.922600e+01
      vertex   9.364201e+01  6.936200e+01  4.938000e+01
    endloop
  endfacet
  facet normal  4.429151e-01  7.506134e-02  8.934160e-01
    outer loop
      vertex   1.035680e+02  6.489000e+01  4.957600e+01
      vertex   1.035200e+02  6.581600e+01  4.952200e+01
      vertex   1.023900e+02  6.489000e+01  5.016000e+01
    endloop
  endfacet
  facet normal  2.348792e-01  8.785668e-01  4.158753e-01
    outer loop
      vertex   1.002160e+02  6.839800e+01  4.906800e+01
      vertex   1.016040e+02  6.815000e+01  4.880800e+01
      vertex   1.002420e+02  6.853400e+01  4.876600e+01
    endloop
  endfacet
  facet normal  4.139993e-01  5.817586e-01  7.001153e-01
    outer loop
      vertex   9.777801e+01  6.754401e+01  5.192600e+01
      vertex   9.555400e+01  6.693401e+01  5.374800e+01
      vertex   9.556400e+01  6.689800e+01  5.377200e+01
    endloop
  endfacet
  facet normal  4.273791e-01  5.610550e-01  7.089179e-01
    outer loop
      vertex   9.777801e+01  6.754401e+01  5.192600e+01
      vertex   9.556400e+01  6.689800e+01  5.377200e+01
      vertex   9.777801e+01  6.684400e+01  5.248000e+01
    endloop
  endfacet
  facet normal  1.892905e-01  9.448299e-01  2.673306e-01
    outer loop
      vertex   9.473000e+01  6.888400e+01  5.098200e+01
      vertex   9.473601e+01  6.861401e+01  5.193200e+01
      vertex   9.777801e+01  6.838200e+01  5.059800e+01
    endloop
  endfacet
  facet normal  1.029337e-01  9.569675e-01  2.713260e-01
    outer loop
      vertex   9.473601e+01  6.861401e+01  5.193200e+01
      vertex   9.473000e+01  6.888400e+01  5.098200e+01
      vertex   9.463600e+01  6.868600e+01  5.171600e+01
    endloop
  endfacet
  facet normal  2.628769e-01  8.614024e-01  4.346052e-01
    outer loop
      vertex   9.777801e+01  6.804800e+01  5.126000e+01
      vertex   1.002160e+02  6.819601e+01  4.949200e+01
      vertex   9.777801e+01  6.838200e+01  5.059800e+01
    endloop
  endfacet
  facet normal  2.820273e-01  7.909245e-01  5.430461e-01
    outer loop
      vertex   1.018660e+02  6.783000e+01  4.913800e+01
      vertex   1.022500e+02  6.784000e+01  4.892400e+01
      vertex   1.016040e+02  6.815000e+01  4.880800e+01
    endloop
  endfacet
  facet normal  3.044769e-01  7.611920e-01  5.726085e-01
    outer loop
      vertex   1.016040e+02  6.815000e+01  4.880800e+01
      vertex   1.020360e+02  6.807800e+01  4.867400e+01
      vertex   1.020260e+02  6.808200e+01  4.867400e+01
    endloop
  endfacet
  facet normal  2.980793e-01  8.053277e-01  5.124413e-01
    outer loop
      vertex   1.020260e+02  6.808200e+01  4.867400e+01
      vertex   1.018860e+02  6.814400e+01  4.865800e+01
      vertex   1.016900e+02  6.821400e+01  4.866200e+01
    endloop
  endfacet
  facet normal  2.951400e-01  7.989029e-01  5.240673e-01
    outer loop
      vertex   1.016900e+02  6.821400e+01  4.866200e+01
      vertex   1.016040e+02  6.815000e+01  4.880800e+01
      vertex   1.020260e+02  6.808200e+01  4.867400e+01
    endloop
  endfacet
  facet normal  2.939382e-01  8.052385e-01  5.149673e-01
    outer loop
      vertex   1.020360e+02  6.807800e+01  4.867400e+01
      vertex   1.016040e+02  6.815000e+01  4.880800e+01
      vertex   1.022500e+02  6.784000e+01  4.892400e+01
    endloop
  endfacet
  facet normal  4.306072e-01  4.306072e-01  7.931928e-01
    outer loop
      vertex   9.506400e+01  6.822000e+01  5.264000e+01
      vertex   9.777801e+01  6.804800e+01  5.126000e+01
      vertex   9.506200e+01  6.822200e+01  5.264000e+01
    endloop
  endfacet
  facet normal  3.266897e-01  7.712018e-01  5.463713e-01
    outer loop
      vertex   9.528201e+01  6.777200e+01  5.314200e+01
      vertex   9.777801e+01  6.804800e+01  5.126000e+01
      vertex   9.506400e+01  6.822000e+01  5.264000e+01
    endloop
  endfacet
  facet normal  3.266894e-01  7.712021e-01  5.463709e-01
    outer loop
      vertex   9.532800e+01  6.767600e+01  5.325000e+01
      vertex   9.777801e+01  6.804800e+01  5.126000e+01
      vertex   9.528201e+01  6.777200e+01  5.314200e+01
    endloop
  endfacet
  facet normal  2.659447e-01  8.015949e-01  5.354615e-01
    outer loop
      vertex   1.025420e+02  6.784600e+01  4.877000e+01
      vertex   1.020360e+02  6.807800e+01  4.867400e+01
      vertex   1.022500e+02  6.784000e+01  4.892400e+01
    endloop
  endfacet
  facet normal  2.350907e-01  8.774832e-01  4.180379e-01
    outer loop
      vertex   1.002160e+02  6.819601e+01  4.949200e+01
      vertex   1.016040e+02  6.815000e+01  4.880800e+01
      vertex   1.002160e+02  6.839800e+01  4.906800e+01
    endloop
  endfacet
  facet normal  4.125860e-01  5.839504e-01  6.991243e-01
    outer loop
      vertex   9.777801e+01  6.754401e+01  5.192600e+01
      vertex   9.551801e+01  6.706001e+01  5.366400e+01
      vertex   9.555400e+01  6.693401e+01  5.374800e+01
    endloop
  endfacet
  facet normal  4.119215e-01  5.850767e-01  6.985742e-01
    outer loop
      vertex   9.777801e+01  6.754401e+01  5.192600e+01
      vertex   9.533801e+01  6.765000e+01  5.327600e+01
      vertex   9.551801e+01  6.706001e+01  5.366400e+01
    endloop
  endfacet
  facet normal  2.747573e-01  8.584420e-01  4.331116e-01
    outer loop
      vertex   9.777801e+01  6.838200e+01  5.059800e+01
      vertex   9.505000e+01  6.823801e+01  5.261400e+01
      vertex   9.777801e+01  6.804800e+01  5.126000e+01
    endloop
  endfacet
  facet normal  2.752974e-01  8.576638e-01  4.343089e-01
    outer loop
      vertex   9.506200e+01  6.822200e+01  5.263800e+01
      vertex   9.777801e+01  6.804800e+01  5.126000e+01
      vertex   9.505000e+01  6.823801e+01  5.261400e+01
    endloop
  endfacet
  facet normal  6.393218e-02  9.979542e-01  0.000000e+00
    outer loop
      vertex   9.506200e+01  6.822200e+01  5.264000e+01
      vertex   9.777801e+01  6.804800e+01  5.126000e+01
      vertex   9.506200e+01  6.822200e+01  5.263800e+01
    endloop
  endfacet
  facet normal  1.716962e-01  9.327859e-01  3.169081e-01
    outer loop
      vertex   9.799200e+01  6.895400e+01  4.873200e+01
      vertex   9.957001e+01  6.868800e+01  4.866000e+01
      vertex   9.854000e+01  6.886401e+01  4.870000e+01
    endloop
  endfacet
  facet normal  1.717562e-01  9.346572e-01  3.113129e-01
    outer loop
      vertex   9.777801e+01  6.898400e+01  4.876000e+01
      vertex   9.957001e+01  6.868800e+01  4.866000e+01
      vertex   9.799200e+01  6.895400e+01  4.873200e+01
    endloop
  endfacet
  facet normal  1.716577e-01  9.436972e-01  2.827884e-01
    outer loop
      vertex   1.002420e+02  6.853400e+01  4.876600e+01
      vertex   9.957001e+01  6.868800e+01  4.866000e+01
      vertex   9.777801e+01  6.898400e+01  4.876000e+01
    endloop
  endfacet
  facet normal  1.716417e-01  9.436136e-01  2.830769e-01
    outer loop
      vertex   9.777801e+01  6.898400e+01  4.876000e+01
      vertex   9.777801e+01  6.895400e+01  4.886000e+01
      vertex   1.002420e+02  6.853400e+01  4.876600e+01
    endloop
  endfacet
  facet normal  4.405831e-01  7.500790e-02  8.945727e-01
    outer loop
      vertex   1.035680e+02  6.489000e+01  4.957600e+01
      vertex   1.038320e+02  6.582000e+01  4.936800e+01
      vertex   1.035200e+02  6.581600e+01  4.952200e+01
    endloop
  endfacet
  facet normal  4.375402e-01  7.618323e-02  8.959658e-01
    outer loop
      vertex   1.035680e+02  6.489000e+01  4.957600e+01
      vertex   1.038400e+02  6.568000e+01  4.937600e+01
      vertex   1.038320e+02  6.582000e+01  4.936800e+01
    endloop
  endfacet
  facet normal  4.378236e-01  7.605350e-02  8.958384e-01
    outer loop
      vertex   1.035680e+02  6.489000e+01  4.957600e+01
      vertex   1.038520e+02  6.544601e+01  4.939000e+01
      vertex   1.038400e+02  6.568000e+01  4.937600e+01
    endloop
  endfacet
  facet normal  1.464315e-01  9.665291e-01  2.106639e-01
    outer loop
      vertex   9.430200e+01  6.895800e+01  5.094000e+01
      vertex   9.436001e+01  6.892001e+01  5.107400e+01
      vertex   9.473000e+01  6.888400e+01  5.098200e+01
    endloop
  endfacet
  facet normal  1.522576e-01  9.595470e-01  2.368273e-01
    outer loop
      vertex   9.437000e+01  6.891200e+01  5.110000e+01
      vertex   9.473000e+01  6.888400e+01  5.098200e+01
      vertex   9.436001e+01  6.892001e+01  5.107400e+01
    endloop
  endfacet
  facet normal  1.448704e-01  9.641404e-01  2.223639e-01
    outer loop
      vertex   9.473000e+01  6.888400e+01  5.098200e+01
      vertex   9.473000e+01  6.914001e+01  4.987200e+01
      vertex   9.430200e+01  6.895800e+01  5.094000e+01
    endloop
  endfacet
  facet normal  5.343627e-01  9.423497e-02  8.399858e-01
    outer loop
      vertex   1.004000e+02  6.489000e+01  5.126600e+01
      vertex   9.777801e+01  6.592400e+01  5.281800e+01
      vertex   9.777801e+01  6.489000e+01  5.293400e+01
    endloop
  endfacet
  facet normal  3.846890e-01  5.086179e-01  7.702741e-01
    outer loop
      vertex   1.033060e+02  6.666200e+01  4.938000e+01
      vertex   1.028980e+02  6.732800e+01  4.914400e+01
      vertex   1.022960e+02  6.670200e+01  4.985800e+01
    endloop
  endfacet
  facet normal  5.104880e-01  1.066061e-01  8.532509e-01
    outer loop
      vertex   9.777801e+01  6.592400e+01  5.281800e+01
      vertex   9.576801e+01  6.496800e+01  5.414000e+01
      vertex   9.576801e+01  6.495200e+01  5.414200e+01
    endloop
  endfacet
  facet normal  5.119891e-01  1.028465e-01  8.528128e-01
    outer loop
      vertex   9.777801e+01  6.592400e+01  5.281800e+01
      vertex   9.570400e+01  6.595000e+01  5.406000e+01
      vertex   9.576801e+01  6.496800e+01  5.414000e+01
    endloop
  endfacet
  facet normal  1.454217e-01  9.068467e-01  3.955775e-01
    outer loop
      vertex   1.002420e+02  6.853400e+01  4.876600e+01
      vertex   1.002480e+02  6.858801e+01  4.864000e+01
      vertex   9.957001e+01  6.868800e+01  4.866000e+01
    endloop
  endfacet
  facet normal  4.457255e-01  5.555300e-01  7.019367e-01
    outer loop
      vertex   1.003780e+02  6.677200e+01  5.088600e+01
      vertex   9.777801e+01  6.754401e+01  5.192600e+01
      vertex   9.777801e+01  6.684400e+01  5.248000e+01
    endloop
  endfacet
  facet normal  4.096921e-01  5.322750e-01  7.408345e-01
    outer loop
      vertex   1.020940e+02  6.735800e+01  4.951600e+01
      vertex   1.003260e+02  6.743000e+01  5.044200e+01
      vertex   1.003780e+02  6.677200e+01  5.088600e+01
    endloop
  endfacet
  facet normal  4.929699e-01  2.998263e-01  8.167526e-01
    outer loop
      vertex   9.777801e+01  6.684400e+01  5.248000e+01
      vertex   9.569801e+01  6.599800e+01  5.404600e+01
      vertex   9.570400e+01  6.595000e+01  5.406000e+01
    endloop
  endfacet
  facet normal  4.928568e-01  3.000597e-01  8.167352e-01
    outer loop
      vertex   9.777801e+01  6.684400e+01  5.248000e+01
      vertex   9.570400e+01  6.595000e+01  5.406000e+01
      vertex   9.777801e+01  6.592400e+01  5.281800e+01
    endloop
  endfacet
  facet normal  1.335157e-01  9.524215e-01  2.739833e-01
    outer loop
      vertex   9.473000e+01  6.927600e+01  4.922600e+01
      vertex   9.777801e+01  6.887000e+01  4.915200e+01
      vertex   9.777801e+01  6.895400e+01  4.886000e+01
    endloop
  endfacet
  facet normal  3.940013e-01  5.032498e-01  7.690920e-01
    outer loop
      vertex   1.033060e+02  6.666200e+01  4.938000e+01
      vertex   1.036120e+02  6.667001e+01  4.921800e+01
      vertex   1.033980e+02  6.702400e+01  4.909600e+01
    endloop
  endfacet
  facet normal  3.840468e-01  5.358676e-01  7.519003e-01
    outer loop
      vertex   1.033060e+02  6.666200e+01  4.938000e+01
      vertex   1.036220e+02  6.664600e+01  4.923000e+01
      vertex   1.036120e+02  6.667001e+01  4.921800e+01
    endloop
  endfacet
  facet normal  3.462373e-01  7.480857e-01  5.661162e-01
    outer loop
      vertex   9.777801e+01  6.804800e+01  5.126000e+01
      vertex   9.532800e+01  6.767600e+01  5.325000e+01
      vertex   9.777801e+01  6.754401e+01  5.192600e+01
    endloop
  endfacet
  facet normal  3.442173e-01  7.521293e-01  5.619751e-01
    outer loop
      vertex   9.533801e+01  6.765200e+01  5.327600e+01
      vertex   9.777801e+01  6.754401e+01  5.192600e+01
      vertex   9.532800e+01  6.767600e+01  5.325000e+01
    endloop
  endfacet
  facet normal  4.841182e-01  0.000000e+00  8.750025e-01
    outer loop
      vertex   9.777801e+01  6.754401e+01  5.192600e+01
      vertex   9.533801e+01  6.765200e+01  5.327600e+01
      vertex   9.533801e+01  6.765000e+01  5.327600e+01
    endloop
  endfacet
  facet normal  1.866007e-01  8.896760e-01  4.167215e-01
    outer loop
      vertex   9.777801e+01  6.887000e+01  4.915200e+01
      vertex   1.002160e+02  6.839800e+01  4.906800e+01
      vertex   1.002420e+02  6.853400e+01  4.876600e+01
    endloop
  endfacet
  facet normal  3.837455e-01  5.082845e-01  7.709646e-01
    outer loop
      vertex   1.033060e+02  6.666200e+01  4.938000e+01
      vertex   1.032020e+02  6.732600e+01  4.899400e+01
      vertex   1.028980e+02  6.732800e+01  4.914400e+01
    endloop
  endfacet
  facet normal  3.810558e-01  5.085402e-01  7.721291e-01
    outer loop
      vertex   1.032020e+02  6.732600e+01  4.899400e+01
      vertex   1.033060e+02  6.666200e+01  4.938000e+01
      vertex   1.032720e+02  6.722800e+01  4.902400e+01
    endloop
  endfacet
  facet normal  3.820808e-01  5.083584e-01  7.717422e-01
    outer loop
      vertex   1.033980e+02  6.702400e+01  4.909600e+01
      vertex   1.032720e+02  6.722800e+01  4.902400e+01
      vertex   1.033060e+02  6.666200e+01  4.938000e+01
    endloop
  endfacet
  facet normal  4.842087e-01  8.063922e-02  8.712286e-01
    outer loop
      vertex   1.023900e+02  6.489000e+01  5.016000e+01
      vertex   1.023780e+02  6.584800e+01  5.007800e+01
      vertex   1.004000e+02  6.489000e+01  5.126600e+01
    endloop
  endfacet
  facet normal  2.139770e-01  8.420348e-01  4.951679e-01
    outer loop
      vertex   1.007900e+02  6.845800e+01  4.863600e+01
      vertex   1.016040e+02  6.815000e+01  4.880800e+01
      vertex   1.016900e+02  6.821400e+01  4.866200e+01
    endloop
  endfacet
  facet normal  2.279643e-01  8.587463e-01  4.588978e-01
    outer loop
      vertex   1.016040e+02  6.815000e+01  4.880800e+01
      vertex   1.007900e+02  6.845800e+01  4.863600e+01
      vertex   1.002420e+02  6.853400e+01  4.876600e+01
    endloop
  endfacet
  facet normal  2.171961e-01  8.934152e-01  3.932370e-01
    outer loop
      vertex   1.002420e+02  6.853400e+01  4.876600e+01
      vertex   1.007900e+02  6.845800e+01  4.863600e+01
      vertex   1.002480e+02  6.858801e+01  4.864000e+01
    endloop
  endfacet
  facet normal  2.167618e-01  8.914614e-01  3.978830e-01
    outer loop
      vertex   1.005040e+02  6.853201e+01  4.862600e+01
      vertex   1.002480e+02  6.858801e+01  4.864000e+01
      vertex   1.007900e+02  6.845800e+01  4.863600e+01
    endloop
  endfacet
  facet normal  3.421438e-01  6.825034e-01  6.458535e-01
    outer loop
      vertex   1.020940e+02  6.735800e+01  4.951600e+01
      vertex   1.022500e+02  6.784000e+01  4.892400e+01
      vertex   1.018660e+02  6.783000e+01  4.913800e+01
    endloop
  endfacet
  facet normal  1.277474e-01  9.677752e-01  2.170062e-01
    outer loop
      vertex   9.719601e+01  6.903800e+01  4.882800e+01
      vertex   9.556001e+01  6.921001e+01  4.902400e+01
      vertex   9.777801e+01  6.895400e+01  4.886000e+01
    endloop
  endfacet
  facet normal  1.268495e-01  9.718599e-01  1.984876e-01
    outer loop
      vertex   9.488600e+01  6.928001e+01  4.911200e+01
      vertex   9.777801e+01  6.895400e+01  4.886000e+01
      vertex   9.556001e+01  6.921001e+01  4.902400e+01
    endloop
  endfacet
  facet normal  1.262879e-01  9.736919e-01  1.896719e-01
    outer loop
      vertex   9.473000e+01  6.929401e+01  4.914400e+01
      vertex   9.777801e+01  6.895400e+01  4.886000e+01
      vertex   9.488600e+01  6.928001e+01  4.911200e+01
    endloop
  endfacet
  facet normal  1.278786e-01  9.687123e-01  2.127057e-01
    outer loop
      vertex   9.473000e+01  6.927600e+01  4.922600e+01
      vertex   9.777801e+01  6.895400e+01  4.886000e+01
      vertex   9.473000e+01  6.929401e+01  4.914400e+01
    endloop
  endfacet
  facet normal  2.891147e-01  8.101941e-01  5.099001e-01
    outer loop
      vertex   1.002560e+02  6.789600e+01  4.994600e+01
      vertex   1.018660e+02  6.783000e+01  4.913800e+01
      vertex   1.002160e+02  6.819601e+01  4.949200e+01
    endloop
  endfacet
  facet normal  1.937452e-01  9.238371e-01  3.301333e-01
    outer loop
      vertex   9.473000e+01  6.888400e+01  5.098200e+01
      vertex   9.777801e+01  6.838200e+01  5.059800e+01
      vertex   9.777801e+01  6.863000e+01  4.990400e+01
    endloop
  endfacet
  facet normal  4.458693e-01  5.246147e-01  7.252449e-01
    outer loop
      vertex   1.003780e+02  6.677200e+01  5.088600e+01
      vertex   1.003260e+02  6.743000e+01  5.044200e+01
      vertex   9.777801e+01  6.754401e+01  5.192600e+01
    endloop
  endfacet
  facet normal  4.811387e-01  8.818027e-02  8.721982e-01
    outer loop
      vertex   1.023780e+02  6.584800e+01  5.007800e+01
      vertex   1.003980e+02  6.589000e+01  5.116600e+01
      vertex   1.004000e+02  6.489000e+01  5.126600e+01
    endloop
  endfacet
  facet normal  3.499073e-01  6.827238e-01  6.414460e-01
    outer loop
      vertex   1.002560e+02  6.789600e+01  4.994600e+01
      vertex   1.020940e+02  6.735800e+01  4.951600e+01
      vertex   1.018660e+02  6.783000e+01  4.913800e+01
    endloop
  endfacet
  facet normal  1.837353e-01  9.364421e-01  2.988608e-01
    outer loop
      vertex   9.473000e+01  6.888400e+01  5.098200e+01
      vertex   9.777801e+01  6.863000e+01  4.990400e+01
      vertex   9.777801e+01  6.887000e+01  4.915200e+01
    endloop
  endfacet
  facet normal  4.819699e-01  3.228065e-01  8.145557e-01
    outer loop
      vertex   9.777801e+01  6.684400e+01  5.248000e+01
      vertex   9.567400e+01  6.616000e+01  5.399600e+01
      vertex   9.569801e+01  6.599800e+01  5.404600e+01
    endloop
  endfacet
  facet normal  4.834096e-01  3.194338e-01  8.150321e-01
    outer loop
      vertex   9.777801e+01  6.684400e+01  5.248000e+01
      vertex   9.556400e+01  6.689800e+01  5.377200e+01
      vertex   9.567400e+01  6.616000e+01  5.399600e+01
    endloop
  endfacet
  facet normal  4.291256e-01  2.540385e-01  8.667846e-01
    outer loop
      vertex   1.035200e+02  6.581600e+01  4.952200e+01
      vertex   1.033060e+02  6.666200e+01  4.938000e+01
      vertex   1.023780e+02  6.584800e+01  5.007800e+01
    endloop
  endfacet
  facet normal  4.211265e-01  2.639755e-01  8.677381e-01
    outer loop
      vertex   1.033060e+02  6.666200e+01  4.938000e+01
      vertex   1.022960e+02  6.670200e+01  4.985800e+01
      vertex   1.023780e+02  6.584800e+01  5.007800e+01
    endloop
  endfacet
  facet normal  3.827006e-01  6.996594e-01  6.033382e-01
    outer loop
      vertex   9.777801e+01  6.754401e+01  5.192600e+01
      vertex   1.003260e+02  6.743000e+01  5.044200e+01
      vertex   1.002560e+02  6.789600e+01  4.994600e+01
    endloop
  endfacet
  facet normal  1.642633e-01  9.468830e-01  2.764601e-01
    outer loop
      vertex   9.463600e+01  6.868600e+01  5.171600e+01
      vertex   9.473000e+01  6.888400e+01  5.098200e+01
      vertex   9.437000e+01  6.891200e+01  5.110000e+01
    endloop
  endfacet
  facet normal  5.049565e-01  2.976576e-01  8.101968e-01
    outer loop
      vertex   1.003780e+02  6.677200e+01  5.088600e+01
      vertex   9.777801e+01  6.684400e+01  5.248000e+01
      vertex   9.777801e+01  6.592400e+01  5.281800e+01
    endloop
  endfacet
  facet normal  2.361803e-01  8.929237e-01  3.832835e-01
    outer loop
      vertex   9.499600e+01  6.830400e+01  5.249400e+01
      vertex   9.777801e+01  6.838200e+01  5.059800e+01
      vertex   9.473601e+01  6.861401e+01  5.193200e+01
    endloop
  endfacet
  facet normal  2.368155e-01  8.923645e-01  3.841926e-01
    outer loop
      vertex   9.505000e+01  6.823801e+01  5.261400e+01
      vertex   9.777801e+01  6.838200e+01  5.059800e+01
      vertex   9.499600e+01  6.830400e+01  5.249400e+01
    endloop
  endfacet
  facet normal  1.274137e-01  9.680525e-01  2.159633e-01
    outer loop
      vertex   9.426601e+01  6.898200e+01  5.085400e+01
      vertex   9.473000e+01  6.914001e+01  4.987200e+01
      vertex   9.393001e+01  6.919801e+01  5.008400e+01
    endloop
  endfacet
  facet normal  1.283815e-01  9.678304e-01  2.163849e-01
    outer loop
      vertex   9.430200e+01  6.895800e+01  5.094000e+01
      vertex   9.473000e+01  6.914001e+01  4.987200e+01
      vertex   9.426601e+01  6.898200e+01  5.085400e+01
    endloop
  endfacet
  facet normal  5.266626e-01  6.540260e-02  8.475547e-01
    outer loop
      vertex   9.777801e+01  6.592400e+01  5.281800e+01
      vertex   9.576801e+01  6.495200e+01  5.414200e+01
      vertex   9.577000e+01  6.491000e+01  5.414400e+01
    endloop
  endfacet
  facet normal  4.909470e-01  1.500190e-01  8.581756e-01
    outer loop
      vertex   9.777801e+01  6.592400e+01  5.281800e+01
      vertex   9.577000e+01  6.491000e+01  5.414400e+01
      vertex   9.577200e+01  6.489201e+01  5.414600e+01
    endloop
  endfacet
  facet normal  5.156576e-01  9.360850e-02  8.516659e-01
    outer loop
      vertex   9.777801e+01  6.592400e+01  5.281800e+01
      vertex   9.577200e+01  6.489201e+01  5.414600e+01
      vertex   9.632401e+01  6.489000e+01  5.381200e+01
    endloop
  endfacet
  facet normal  5.145509e-01  9.559558e-02  8.521144e-01
    outer loop
      vertex   9.777801e+01  6.592400e+01  5.281800e+01
      vertex   9.632401e+01  6.489000e+01  5.381200e+01
      vertex   9.777801e+01  6.489000e+01  5.293400e+01
    endloop
  endfacet
  facet normal  1.341229e-01  9.697101e-01  2.041405e-01
    outer loop
      vertex   9.473000e+01  6.914001e+01  4.987200e+01
      vertex   9.777801e+01  6.887000e+01  4.915200e+01
      vertex   9.473000e+01  6.927600e+01  4.922600e+01
    endloop
  endfacet
  facet normal  1.913119e-01  9.350640e-01  2.984210e-01
    outer loop
      vertex   9.777801e+01  6.863000e+01  4.990400e+01
      vertex   1.002160e+02  6.839800e+01  4.906800e+01
      vertex   9.777801e+01  6.887000e+01  4.915200e+01
    endloop
  endfacet
  facet normal  5.322094e-01  8.529309e-02  8.423054e-01
    outer loop
      vertex   1.004000e+02  6.489000e+01  5.126600e+01
      vertex   1.003980e+02  6.589000e+01  5.116600e+01
      vertex   9.777801e+01  6.592400e+01  5.281800e+01
    endloop
  endfacet
  facet normal  4.187291e-01  5.178534e-01  7.459851e-01
    outer loop
      vertex   1.022960e+02  6.670200e+01  4.985800e+01
      vertex   1.020940e+02  6.735800e+01  4.951600e+01
      vertex   1.003780e+02  6.677200e+01  5.088600e+01
    endloop
  endfacet
  facet normal  4.414169e-01  7.369366e-02  8.942708e-01
    outer loop
      vertex   1.035680e+02  6.489000e+01  4.957600e+01
      vertex   1.038800e+02  6.489000e+01  4.942200e+01
      vertex   1.038520e+02  6.544601e+01  4.939000e+01
    endloop
  endfacet
  facet normal  3.227824e-01  6.927102e-01  6.449528e-01
    outer loop
      vertex   1.028440e+02  6.761200e+01  4.886600e+01
      vertex   1.028980e+02  6.732800e+01  4.914400e+01
      vertex   1.032020e+02  6.732600e+01  4.899400e+01
    endloop
  endfacet
  facet normal  4.381221e-01  8.211012e-02  8.951575e-01
    outer loop
      vertex   1.035200e+02  6.581600e+01  4.952200e+01
      vertex   1.023780e+02  6.584800e+01  5.007800e+01
      vertex   1.023900e+02  6.489000e+01  5.016000e+01
    endloop
  endfacet
  facet normal  3.753154e-01  5.167401e-01  7.694920e-01
    outer loop
      vertex   1.028980e+02  6.732800e+01  4.914400e+01
      vertex   1.020940e+02  6.735800e+01  4.951600e+01
      vertex   1.022960e+02  6.670200e+01  4.985800e+01
    endloop
  endfacet
  facet normal  4.632552e-01  2.625354e-01  8.464454e-01
    outer loop
      vertex   1.023780e+02  6.584800e+01  5.007800e+01
      vertex   1.022960e+02  6.670200e+01  4.985800e+01
      vertex   1.003780e+02  6.677200e+01  5.088600e+01
    endloop
  endfacet
  facet normal  3.162832e-01  8.040545e-01  5.034494e-01
    outer loop
      vertex   9.777801e+01  6.804800e+01  5.126000e+01
      vertex   1.002560e+02  6.789600e+01  4.994600e+01
      vertex   1.002160e+02  6.819601e+01  4.949200e+01
    endloop
  endfacet
  facet normal  4.387356e-01  2.497665e-01  8.632078e-01
    outer loop
      vertex   1.035200e+02  6.581600e+01  4.952200e+01
      vertex   1.036520e+02  6.653800e+01  4.924600e+01
      vertex   1.036220e+02  6.664600e+01  4.923000e+01
    endloop
  endfacet
  facet normal  4.277841e-01  2.534547e-01  8.676183e-01
    outer loop
      vertex   1.035200e+02  6.581600e+01  4.952200e+01
      vertex   1.037180e+02  6.627600e+01  4.929000e+01
      vertex   1.036520e+02  6.653800e+01  4.924600e+01
    endloop
  endfacet
  facet normal  4.252682e-01  2.534123e-01  8.688666e-01
    outer loop
      vertex   1.036220e+02  6.664600e+01  4.923000e+01
      vertex   1.033060e+02  6.666200e+01  4.938000e+01
      vertex   1.035200e+02  6.581600e+01  4.952200e+01
    endloop
  endfacet
  facet normal  3.251472e-01  6.895691e-01  6.471273e-01
    outer loop
      vertex   1.020940e+02  6.735800e+01  4.951600e+01
      vertex   1.028980e+02  6.732800e+01  4.914400e+01
      vertex   1.022500e+02  6.784000e+01  4.892400e+01
    endloop
  endfacet
  facet normal  1.380698e-01  9.650875e-01  2.225824e-01
    outer loop
      vertex   9.473000e+01  6.888400e+01  5.098200e+01
      vertex   9.777801e+01  6.887000e+01  4.915200e+01
      vertex   9.473000e+01  6.914001e+01  4.987200e+01
    endloop
  endfacet
  facet normal  3.460990e-01  7.481264e-01  5.661469e-01
    outer loop
      vertex   9.777801e+01  6.754401e+01  5.192600e+01
      vertex   1.002560e+02  6.789600e+01  4.994600e+01
      vertex   9.777801e+01  6.804800e+01  5.126000e+01
    endloop
  endfacet
  facet normal  1.244327e-01  9.709464e-01  2.044007e-01
    outer loop
      vertex   9.473000e+01  6.927600e+01  4.922600e+01
      vertex   9.389800e+01  6.921800e+01  5.000800e+01
      vertex   9.473000e+01  6.914001e+01  4.987200e+01
    endloop
  endfacet
  facet normal  1.301608e-01  9.606586e-01  2.453431e-01
    outer loop
      vertex   9.390800e+01  6.921001e+01  5.003400e+01
      vertex   9.473000e+01  6.914001e+01  4.987200e+01
      vertex   9.389800e+01  6.921800e+01  5.000800e+01
    endloop
  endfacet
  facet normal  1.189764e-01  9.760877e-01  1.819269e-01
    outer loop
      vertex   9.393001e+01  6.919801e+01  5.008400e+01
      vertex   9.473000e+01  6.914001e+01  4.987200e+01
      vertex   9.390800e+01  6.921001e+01  5.003400e+01
    endloop
  endfacet
  facet normal  3.506268e-01  7.067198e-01  6.144981e-01
    outer loop
      vertex   1.003260e+02  6.743000e+01  5.044200e+01
      vertex   1.020940e+02  6.735800e+01  4.951600e+01
      vertex   1.002560e+02  6.789600e+01  4.994600e+01
    endloop
  endfacet
  facet normal  2.552426e-01  8.728822e-01  4.158459e-01
    outer loop
      vertex   9.777801e+01  6.838200e+01  5.059800e+01
      vertex   1.002160e+02  6.819601e+01  4.949200e+01
      vertex   1.002160e+02  6.839800e+01  4.906800e+01
    endloop
  endfacet
  facet normal  5.160883e-01  2.697784e-01  8.129407e-01
    outer loop
      vertex   1.003980e+02  6.589000e+01  5.116600e+01
      vertex   1.003780e+02  6.677200e+01  5.088600e+01
      vertex   9.777801e+01  6.592400e+01  5.281800e+01
    endloop
  endfacet
  facet normal  1.215371e-01  9.507278e-01  2.852111e-01
    outer loop
      vertex   9.777801e+01  6.895400e+01  4.886000e+01
      vertex   9.777801e+01  6.898400e+01  4.876000e+01
      vertex   9.719601e+01  6.903800e+01  4.882800e+01
    endloop
  endfacet
  facet normal  9.965937e-02  9.785590e-01  1.802508e-01
    outer loop
      vertex   9.385201e+01  6.924200e+01  4.989600e+01
      vertex   9.473000e+01  6.927600e+01  4.922600e+01
      vertex   9.366801e+01  6.934400e+01  4.944400e+01
    endloop
  endfacet
  facet normal  9.319828e-02  9.806973e-01  1.718925e-01
    outer loop
      vertex   9.389800e+01  6.921800e+01  5.000800e+01
      vertex   9.473000e+01  6.927600e+01  4.922600e+01
      vertex   9.385201e+01  6.924200e+01  4.989600e+01
    endloop
  endfacet
  facet normal  2.908581e-01  7.918800e-01  5.369614e-01
    outer loop
      vertex   1.002160e+02  6.819601e+01  4.949200e+01
      vertex   1.018660e+02  6.783000e+01  4.913800e+01
      vertex   1.016040e+02  6.815000e+01  4.880800e+01
    endloop
  endfacet
  facet normal  2.008257e-01  9.224952e-01  3.296538e-01
    outer loop
      vertex   9.777801e+01  6.838200e+01  5.059800e+01
      vertex   1.002160e+02  6.839800e+01  4.906800e+01
      vertex   9.777801e+01  6.863000e+01  4.990400e+01
    endloop
  endfacet
  facet normal  3.316742e-01  6.913775e-01  6.418641e-01
    outer loop
      vertex   1.025420e+02  6.784600e+01  4.877000e+01
      vertex   1.028980e+02  6.732800e+01  4.914400e+01
      vertex   1.028440e+02  6.761200e+01  4.886600e+01
    endloop
  endfacet
  facet normal  3.263289e-01  6.904190e-01  6.456246e-01
    outer loop
      vertex   1.028980e+02  6.732800e+01  4.914400e+01
      vertex   1.025420e+02  6.784600e+01  4.877000e+01
      vertex   1.022500e+02  6.784000e+01  4.892400e+01
    endloop
  endfacet
  facet normal  4.672251e-01  2.771286e-01  8.395835e-01
    outer loop
      vertex   1.023780e+02  6.584800e+01  5.007800e+01
      vertex   1.003780e+02  6.677200e+01  5.088600e+01
      vertex   1.003980e+02  6.589000e+01  5.116600e+01
    endloop
  endfacet
  facet normal  4.253556e-01  2.548901e-01  8.683914e-01
    outer loop
      vertex   1.035200e+02  6.581600e+01  4.952200e+01
      vertex   1.038320e+02  6.582000e+01  4.936800e+01
      vertex   1.037180e+02  6.627600e+01  4.929000e+01
    endloop
  endfacet
  facet normal  1.717659e-01  9.467430e-01  2.723497e-01
    outer loop
      vertex   9.777801e+01  6.887000e+01  4.915200e+01
      vertex   1.002420e+02  6.853400e+01  4.876600e+01
      vertex   9.777801e+01  6.895400e+01  4.886000e+01
    endloop
  endfacet
endsolid vcg
