solid STL generated by MeshLab
  facet normal  6.197603e-01  3.715383e-01  6.912715e-01
    outer loop
      vertex   1.209000e+01  8.896201e+01  4.760800e+01
      vertex   2.165400e+01  6.970400e+01  4.938400e+01
      vertex   1.220600e+01  8.896201e+01  4.750400e+01
    endloop
  endfacet
  facet normal -4.837162e-02  8.387098e-02  9.953019e-01
    outer loop
      vertex   8.460000e+00  8.896201e+01  4.767600e+01
      vertex   7.390000e+00  8.896201e+01  4.762400e+01
      vertex   8.422000e+00  7.752400e+01  4.863800e+01
    endloop
  endfacet
  facet normal -4.830892e-02  8.387102e-02  9.953049e-01
    outer loop
      vertex   8.422000e+00  7.752400e+01  4.863800e+01
      vertex   9.452001e+00  6.608400e+01  4.965200e+01
      vertex   8.460000e+00  8.896201e+01  4.767600e+01
    endloop
  endfacet
  facet normal -6.202554e-02  8.321533e-02  9.945994e-01
    outer loop
      vertex   9.452001e+00  6.608400e+01  4.965200e+01
      vertex   9.990001e+00  6.624600e+01  4.967200e+01
      vertex   8.460000e+00  8.896201e+01  4.767600e+01
    endloop
  endfacet
  facet normal -6.253746e-02  8.317831e-02  9.945705e-01
    outer loop
      vertex   9.990001e+00  6.624600e+01  4.967200e+01
      vertex   1.214800e+01  6.688800e+01  4.975400e+01
      vertex   8.460000e+00  8.896201e+01  4.767600e+01
    endloop
  endfacet
  facet normal -1.576065e-01  7.907666e-02  9.843308e-01
    outer loop
      vertex   6.960001e+00  6.536200e+01  4.949600e+01
      vertex   6.886000e+00  6.820200e+01  4.925600e+01
      vertex   6.932000e+00  6.535600e+01  4.949200e+01
    endloop
  endfacet
  facet normal -2.890966e-02  9.292243e-02  9.952536e-01
    outer loop
      vertex   1.787600e+01  6.855801e+01  4.986800e+01
      vertex   9.718000e+00  8.896201e+01  4.772600e+01
      vertex   1.446400e+01  7.550800e+01  4.912000e+01
    endloop
  endfacet
  facet normal  0.000000e+00  1.044058e-01  9.945347e-01
    outer loop
      vertex   1.787800e+01  6.855801e+01  4.986800e+01
      vertex   9.718000e+00  8.896201e+01  4.772600e+01
      vertex   1.787600e+01  6.855801e+01  4.986800e+01
    endloop
  endfacet
  facet normal -4.514912e-02 -1.287856e-01 -9.906442e-01
    outer loop
      vertex   1.446400e+01  7.550800e+01  4.912000e+01
      vertex   1.671000e+01  7.093600e+01  4.961200e+01
      vertex   1.787600e+01  6.855801e+01  4.986800e+01
    endloop
  endfacet
  facet normal -2.860475e-02  8.265659e-02  9.961675e-01
    outer loop
      vertex   6.550000e+00  7.698000e+01  4.851800e+01
      vertex   6.886000e+00  6.820200e+01  4.925600e+01
      vertex   6.862000e+00  6.966400e+01  4.913400e+01
    endloop
  endfacet
  facet normal -5.177192e-02  8.169784e-02  9.953116e-01
    outer loop
      vertex   6.886000e+00  6.820200e+01  4.925600e+01
      vertex   6.550000e+00  7.698000e+01  4.851800e+01
      vertex   6.932000e+00  6.535600e+01  4.949200e+01
    endloop
  endfacet
  facet normal -2.139819e-02  8.363446e-02  9.962667e-01
    outer loop
      vertex   7.046000e+00  6.538400e+01  4.949600e+01
      vertex   6.886000e+00  6.820200e+01  4.925600e+01
      vertex   6.960001e+00  6.536200e+01  4.949600e+01
    endloop
  endfacet
  facet normal  2.289974e-02  1.144213e-01  9.931684e-01
    outer loop
      vertex   2.009600e+01  6.919400e+01  4.979000e+01
      vertex   1.118600e+01  8.896201e+01  4.771800e+01
      vertex   1.992200e+01  6.914201e+01  4.980000e+01
    endloop
  endfacet
  facet normal -8.937566e-02  7.827961e-02  9.929171e-01
    outer loop
      vertex   7.176000e+00  7.716200e+01  4.856000e+01
      vertex   6.446000e+00  8.896201e+01  4.756400e+01
      vertex   6.550000e+00  7.698000e+01  4.851800e+01
    endloop
  endfacet
  facet normal -1.755121e-01  7.690652e-02  9.814687e-01
    outer loop
      vertex   6.550000e+00  7.698000e+01  4.851800e+01
      vertex   6.130000e+00  8.896201e+01  4.750400e+01
      vertex   6.130000e+00  6.956400e+01  4.902400e+01
    endloop
  endfacet
  facet normal  7.191615e-02 -5.273368e-02 -9.960157e-01
    outer loop
      vertex   1.118600e+01  8.896201e+01  4.728800e+01
      vertex   1.174000e+01  8.896201e+01  4.732800e+01
      vertex   1.880400e+01  6.894200e+01  4.889800e+01
    endloop
  endfacet
  facet normal -0.000000e+00 -7.818151e-02 -9.969392e-01
    outer loop
      vertex   1.880800e+01  6.894200e+01  4.889800e+01
      vertex   1.880400e+01  6.894200e+01  4.889800e+01
      vertex   1.174000e+01  8.896201e+01  4.732800e+01
    endloop
  endfacet
  facet normal  7.832604e-02 -5.042778e-02 -9.956516e-01
    outer loop
      vertex   1.896600e+01  6.899001e+01  4.890800e+01
      vertex   1.880800e+01  6.894200e+01  4.889800e+01
      vertex   1.174000e+01  8.896201e+01  4.732800e+01
    endloop
  endfacet
  facet normal  7.942799e-02 -5.002379e-02 -9.955846e-01
    outer loop
      vertex   1.992200e+01  6.927400e+01  4.897000e+01
      vertex   1.896600e+01  6.899001e+01  4.890800e+01
      vertex   1.174000e+01  8.896201e+01  4.732800e+01
    endloop
  endfacet
  facet normal  2.122567e-02 -7.433037e-02 -9.970078e-01
    outer loop
      vertex   1.993600e+01  6.927800e+01  4.897000e+01
      vertex   1.992200e+01  6.927400e+01  4.897000e+01
      vertex   1.174000e+01  8.896201e+01  4.732800e+01
    endloop
  endfacet
  facet normal  7.902503e-02 -5.014740e-02 -9.956105e-01
    outer loop
      vertex   2.048600e+01  6.943000e+01  4.900600e+01
      vertex   1.993600e+01  6.927800e+01  4.897000e+01
      vertex   1.174000e+01  8.896201e+01  4.732800e+01
    endloop
  endfacet
  facet normal -8.793550e-02  7.320722e-02  9.934325e-01
    outer loop
      vertex   7.852000e+00  6.559800e+01  4.947200e+01
      vertex   7.176000e+00  7.716200e+01  4.856000e+01
      vertex   6.550000e+00  7.698000e+01  4.851800e+01
    endloop
  endfacet
  facet normal -1.707980e-01  7.669738e-02  9.823164e-01
    outer loop
      vertex   6.932000e+00  6.535600e+01  4.949200e+01
      vertex   6.550000e+00  7.698000e+01  4.851800e+01
      vertex   6.130000e+00  6.956400e+01  4.902400e+01
    endloop
  endfacet
  facet normal -4.649162e-02  8.740678e-02  9.950873e-01
    outer loop
      vertex   1.653600e+01  6.818000e+01  4.987000e+01
      vertex   9.718000e+00  8.896201e+01  4.772600e+01
      vertex   1.607000e+01  6.804601e+01  4.986000e+01
    endloop
  endfacet
  facet normal  2.548018e-02 -7.618620e-02 -9.967681e-01
    outer loop
      vertex   9.458000e+00  6.608601e+01  4.910200e+01
      vertex   9.452001e+00  6.608400e+01  4.910200e+01
      vertex   8.460000e+00  8.896201e+01  4.732800e+01
    endloop
  endfacet
  facet normal -5.024489e-02 -7.937736e-02 -9.955776e-01
    outer loop
      vertex   7.390000e+00  8.896201e+01  4.738200e+01
      vertex   8.460000e+00  8.896201e+01  4.732800e+01
      vertex   9.452001e+00  6.608400e+01  4.910200e+01
    endloop
  endfacet
  facet normal  6.530393e-01  2.506160e-01 -7.146546e-01
    outer loop
      vertex   1.209000e+01  8.896201e+01  4.739800e+01
      vertex   1.220600e+01  8.896201e+01  4.750400e+01
      vertex   2.165400e+01  6.970400e+01  4.938400e+01
    endloop
  endfacet
  facet normal  1.568528e-01  1.738462e-01  9.722010e-01
    outer loop
      vertex   2.137800e+01  6.959600e+01  4.958600e+01
      vertex   1.174000e+01  8.896201e+01  4.767800e+01
      vertex   2.117400e+01  6.953400e+01  4.963000e+01
    endloop
  endfacet
  facet normal  1.490359e-01  1.702269e-01  9.740694e-01
    outer loop
      vertex   2.116400e+01  6.953001e+01  4.963200e+01
      vertex   1.174000e+01  8.896201e+01  4.767800e+01
      vertex   2.053200e+01  6.932800e+01  4.976400e+01
    endloop
  endfacet
  facet normal  1.311306e-01  1.619434e-01  9.780486e-01
    outer loop
      vertex   2.117400e+01  6.953400e+01  4.963000e+01
      vertex   1.174000e+01  8.896201e+01  4.767800e+01
      vertex   2.116400e+01  6.953001e+01  4.963200e+01
    endloop
  endfacet
  facet normal -3.020984e-02  9.240072e-02  9.952635e-01
    outer loop
      vertex   1.875600e+01  6.880200e+01  4.987200e+01
      vertex   9.718000e+00  8.896201e+01  4.772600e+01
      vertex   1.787800e+01  6.855801e+01  4.986800e+01
    endloop
  endfacet
  facet normal -2.976400e-02  9.248105e-02  9.952695e-01
    outer loop
      vertex   1.700200e+01  6.831800e+01  4.986400e+01
      vertex   1.671000e+01  7.093600e+01  4.961200e+01
      vertex   1.446400e+01  7.550800e+01  4.912000e+01
    endloop
  endfacet
  facet normal  2.865591e-02  1.173577e-01  9.926762e-01
    outer loop
      vertex   1.978800e+01  6.910600e+01  4.981000e+01
      vertex   1.045400e+01  8.896201e+01  4.773200e+01
      vertex   1.884800e+01  6.882800e+01  4.987000e+01
    endloop
  endfacet
  facet normal  1.899970e-02  1.128968e-01  9.934251e-01
    outer loop
      vertex   1.978800e+01  6.910600e+01  4.981000e+01
      vertex   1.118600e+01  8.896201e+01  4.771800e+01
      vertex   1.045400e+01  8.896201e+01  4.773200e+01
    endloop
  endfacet
  facet normal  4.113138e-02  1.222970e-01  9.916409e-01
    outer loop
      vertex   1.118600e+01  8.896201e+01  4.771800e+01
      vertex   1.978800e+01  6.910600e+01  4.981000e+01
      vertex   1.992200e+01  6.914201e+01  4.980000e+01
    endloop
  endfacet
  facet normal -3.111991e-02 -8.666258e-02 -9.957516e-01
    outer loop
      vertex   9.142000e+00  8.896201e+01  4.729800e+01
      vertex   9.718000e+00  8.896201e+01  4.728000e+01
      vertex   1.605400e+01  6.809600e+01  4.889800e+01
    endloop
  endfacet
  facet normal -0.000000e+00 -7.731032e-02 -9.970071e-01
    outer loop
      vertex   1.605600e+01  6.809600e+01  4.889800e+01
      vertex   1.605400e+01  6.809600e+01  4.889800e+01
      vertex   9.718000e+00  8.896201e+01  4.728000e+01
    endloop
  endfacet
  facet normal  1.147010e-04  1.031007e-01  9.946709e-01
    outer loop
      vertex   1.664800e+01  6.821201e+01  4.987600e+01
      vertex   1.446400e+01  7.550800e+01  4.912000e+01
      vertex   9.718000e+00  8.896201e+01  4.772600e+01
    endloop
  endfacet
  facet normal  2.624844e-03  1.038437e-01  9.945902e-01
    outer loop
      vertex   1.446400e+01  7.550800e+01  4.912000e+01
      vertex   1.664800e+01  6.821201e+01  4.987600e+01
      vertex   1.700200e+01  6.831800e+01  4.986400e+01
    endloop
  endfacet
  facet normal  7.135016e-02  1.357356e-01  9.881726e-01
    outer loop
      vertex   2.009600e+01  6.919400e+01  4.979000e+01
      vertex   1.174000e+01  8.896201e+01  4.767800e+01
      vertex   1.118600e+01  8.896201e+01  4.771800e+01
    endloop
  endfacet
  facet normal  2.354258e-02  1.160392e-01  9.929656e-01
    outer loop
      vertex   1.174000e+01  8.896201e+01  4.767800e+01
      vertex   2.009600e+01  6.919400e+01  4.979000e+01
      vertex   2.053200e+01  6.932800e+01  4.976400e+01
    endloop
  endfacet
  facet normal  2.174623e-02 -7.072447e-02 -9.972588e-01
    outer loop
      vertex   1.675200e+01  6.831001e+01  4.889800e+01
      vertex   1.605600e+01  6.809600e+01  4.889800e+01
      vertex   9.718000e+00  8.896201e+01  4.728000e+01
    endloop
  endfacet
  facet normal  2.146108e-02 -7.082154e-02 -9.972581e-01
    outer loop
      vertex   1.840200e+01  6.881001e+01  4.889800e+01
      vertex   1.675200e+01  6.831001e+01  4.889800e+01
      vertex   9.718000e+00  8.896201e+01  4.728000e+01
    endloop
  endfacet
  facet normal  2.310518e-02 -7.011413e-02 -9.972714e-01
    outer loop
      vertex   1.875400e+01  6.892600e+01  4.889800e+01
      vertex   1.840200e+01  6.881001e+01  4.889800e+01
      vertex   9.718000e+00  8.896201e+01  4.728000e+01
    endloop
  endfacet
  facet normal  2.240929e-02 -7.042746e-02 -9.972652e-01
    outer loop
      vertex   1.879800e+01  6.894000e+01  4.889800e+01
      vertex   1.875400e+01  6.892600e+01  4.889800e+01
      vertex   9.718000e+00  8.896201e+01  4.728000e+01
    endloop
  endfacet
  facet normal  5.801645e-02 -5.807181e-02 -9.966252e-01
    outer loop
      vertex   1.880400e+01  6.894200e+01  4.889800e+01
      vertex   1.880200e+01  6.894000e+01  4.889800e+01
      vertex   1.118600e+01  8.896201e+01  4.728800e+01
    endloop
  endfacet
  facet normal  1.907117e-02 -7.292846e-02 -9.971548e-01
    outer loop
      vertex   1.045400e+01  8.896201e+01  4.727400e+01
      vertex   1.118600e+01  8.896201e+01  4.728800e+01
      vertex   1.880200e+01  6.894000e+01  4.889800e+01
    endloop
  endfacet
  facet normal -6.322519e-02  8.005491e-02  9.947833e-01
    outer loop
      vertex   7.390000e+00  8.896201e+01  4.762400e+01
      vertex   6.446000e+00  8.896201e+01  4.756400e+01
      vertex   7.176000e+00  7.716200e+01  4.856000e+01
    endloop
  endfacet
  facet normal  1.961144e-01  3.574363e-03 -9.805745e-01
    outer loop
      vertex   1.174000e+01  8.896201e+01  4.732800e+01
      vertex   1.209000e+01  8.896201e+01  4.739800e+01
      vertex   2.048600e+01  6.943000e+01  4.900600e+01
    endloop
  endfacet
  facet normal -0.000000e+00 -8.204873e-02 -9.966283e-01
    outer loop
      vertex   2.048800e+01  6.943000e+01  4.900600e+01
      vertex   2.048600e+01  6.943000e+01  4.900600e+01
      vertex   1.209000e+01  8.896201e+01  4.739800e+01
    endloop
  endfacet
  facet normal  1.970478e-01  4.011321e-03 -9.803857e-01
    outer loop
      vertex   2.107200e+01  6.958200e+01  4.912400e+01
      vertex   2.048800e+01  6.943000e+01  4.900600e+01
      vertex   1.209000e+01  8.896201e+01  4.739800e+01
    endloop
  endfacet
  facet normal  1.953579e-01  3.197770e-03 -9.807268e-01
    outer loop
      vertex   2.135200e+01  6.965200e+01  4.918000e+01
      vertex   2.107200e+01  6.958200e+01  4.912400e+01
      vertex   1.209000e+01  8.896201e+01  4.739800e+01
    endloop
  endfacet
  facet normal  5.304296e-01  1.779303e-01 -8.288457e-01
    outer loop
      vertex   2.160600e+01  6.969601e+01  4.935200e+01
      vertex   2.135200e+01  6.965200e+01  4.918000e+01
      vertex   1.209000e+01  8.896201e+01  4.739800e+01
    endloop
  endfacet
  facet normal  5.257526e-01  1.752611e-01 -8.323867e-01
    outer loop
      vertex   2.165400e+01  6.970400e+01  4.938400e+01
      vertex   2.160600e+01  6.969601e+01  4.935200e+01
      vertex   1.209000e+01  8.896201e+01  4.739800e+01
    endloop
  endfacet
  facet normal -7.549065e-02  7.779191e-02  9.941074e-01
    outer loop
      vertex   1.664800e+01  6.821201e+01  4.987600e+01
      vertex   9.718000e+00  8.896201e+01  4.772600e+01
      vertex   1.653600e+01  6.818000e+01  4.987000e+01
    endloop
  endfacet
  facet normal -1.703784e-02 -7.804393e-02 -9.968043e-01
    outer loop
      vertex   9.704000e+00  6.616000e+01  4.909200e+01
      vertex   9.458000e+00  6.608601e+01  4.910200e+01
      vertex   8.460000e+00  8.896201e+01  4.732800e+01
    endloop
  endfacet
  facet normal -1.458271e-02 -7.791378e-02 -9.968535e-01
    outer loop
      vertex   1.211400e+01  6.688600e+01  4.900000e+01
      vertex   9.704000e+00  6.616000e+01  4.909200e+01
      vertex   8.460000e+00  8.896201e+01  4.732800e+01
    endloop
  endfacet
  facet normal -1.583713e-02 -7.811875e-02 -9.968182e-01
    outer loop
      vertex   1.276400e+01  6.708601e+01  4.897400e+01
      vertex   1.211400e+01  6.688600e+01  4.900000e+01
      vertex   8.460000e+00  8.896201e+01  4.732800e+01
    endloop
  endfacet
  facet normal -4.246556e-02  8.238962e-02  9.956951e-01
    outer loop
      vertex   7.046000e+00  6.538400e+01  4.949600e+01
      vertex   6.862000e+00  6.966400e+01  4.913400e+01
      vertex   6.886000e+00  6.820200e+01  4.925600e+01
    endloop
  endfacet
  facet normal  1.925185e-01  1.906498e-01  9.625951e-01
    outer loop
      vertex   1.174000e+01  8.896201e+01  4.767800e+01
      vertex   2.137800e+01  6.959600e+01  4.958600e+01
      vertex   1.209000e+01  8.896201e+01  4.760800e+01
    endloop
  endfacet
  facet normal -2.082920e-01  0.000000e+00  9.780667e-01
    outer loop
      vertex   2.137800e+01  6.959800e+01  4.958600e+01
      vertex   1.209000e+01  8.896201e+01  4.760800e+01
      vertex   2.137800e+01  6.959600e+01  4.958600e+01
    endloop
  endfacet
  facet normal -7.377986e-03  1.025763e-01  9.946977e-01
    outer loop
      vertex   1.884800e+01  6.882800e+01  4.987000e+01
      vertex   9.718000e+00  8.896201e+01  4.772600e+01
      vertex   1.875600e+01  6.880200e+01  4.987200e+01
    endloop
  endfacet
  facet normal -1.272100e-01 -7.763377e-02 -9.888329e-01
    outer loop
      vertex   6.820000e+00  6.927400e+01  4.895800e+01
      vertex   6.118001e+00  6.530400e+01  4.936000e+01
      vertex   6.130000e+00  6.956400e+01  4.902400e+01
    endloop
  endfacet
  facet normal  4.814319e-01  3.144897e-01  8.181195e-01
    outer loop
      vertex   2.160600e+01  6.968600e+01  4.941800e+01
      vertex   1.209000e+01  8.896201e+01  4.760800e+01
      vertex   2.137800e+01  6.959800e+01  4.958600e+01
    endloop
  endfacet
  facet normal  4.696372e-01  3.094856e-01  8.268370e-01
    outer loop
      vertex   2.165400e+01  6.970400e+01  4.938400e+01
      vertex   1.209000e+01  8.896201e+01  4.760800e+01
      vertex   2.160600e+01  6.968600e+01  4.941800e+01
    endloop
  endfacet
  facet normal  5.311220e-03  8.412600e-02  9.964409e-01
    outer loop
      vertex   6.862000e+00  6.966400e+01  4.913400e+01
      vertex   7.852000e+00  6.559800e+01  4.947200e+01
      vertex   6.550000e+00  7.698000e+01  4.851800e+01
    endloop
  endfacet
  facet normal  7.209582e-03  8.458398e-02  9.963902e-01
    outer loop
      vertex   7.852000e+00  6.559800e+01  4.947200e+01
      vertex   6.862000e+00  6.966400e+01  4.913400e+01
      vertex   7.046000e+00  6.538400e+01  4.949600e+01
    endloop
  endfacet
  facet normal -4.379043e-02 -8.352250e-02 -9.955432e-01
    outer loop
      vertex   8.460000e+00  8.896201e+01  4.732800e+01
      vertex   9.142000e+00  8.896201e+01  4.729800e+01
      vertex   1.276400e+01  6.708601e+01  4.897400e+01
    endloop
  endfacet
  facet normal  3.525233e-02 -7.053830e-02 -9.968860e-01
    outer loop
      vertex   1.276800e+01  6.708801e+01  4.897400e+01
      vertex   1.276400e+01  6.708601e+01  4.897400e+01
      vertex   9.142000e+00  8.896201e+01  4.729800e+01
    endloop
  endfacet
  facet normal -0.000000e+00 -8.084529e-02 -9.967266e-01
    outer loop
      vertex   1.880200e+01  6.894000e+01  4.889800e+01
      vertex   1.879800e+01  6.894000e+01  4.889800e+01
      vertex   1.045400e+01  8.896201e+01  4.727400e+01
    endloop
  endfacet
  facet normal -8.123653e-03 -8.420550e-02 -9.964153e-01
    outer loop
      vertex   9.718000e+00  8.896201e+01  4.728000e+01
      vertex   1.045400e+01  8.896201e+01  4.727400e+01
      vertex   1.879800e+01  6.894000e+01  4.889800e+01
    endloop
  endfacet
  facet normal -0.000000e+00 -7.244906e-02 -9.973720e-01
    outer loop
      vertex   9.448001e+00  6.608200e+01  4.910400e+01
      vertex   9.446000e+00  6.608200e+01  4.910400e+01
      vertex   6.446000e+00  8.896201e+01  4.744200e+01
    endloop
  endfacet
  facet normal -1.916419e-01 -9.607900e-02 -9.767509e-01
    outer loop
      vertex   6.130000e+00  8.896201e+01  4.750400e+01
      vertex   6.446000e+00  8.896201e+01  4.744200e+01
      vertex   9.446000e+00  6.608200e+01  4.910400e+01
    endloop
  endfacet
  facet normal -3.563223e-02 -7.484681e-02 -9.965582e-01
    outer loop
      vertex   9.376000e+00  6.606001e+01  4.910800e+01
      vertex   6.820000e+00  6.927400e+01  4.895800e+01
      vertex   6.130000e+00  8.896201e+01  4.750400e+01
    endloop
  endfacet
  facet normal -3.349509e-02 -7.455065e-02 -9.966546e-01
    outer loop
      vertex   9.446000e+00  6.608200e+01  4.910400e+01
      vertex   9.376000e+00  6.606001e+01  4.910800e+01
      vertex   6.130000e+00  8.896201e+01  4.750400e+01
    endloop
  endfacet
  facet normal -3.827425e-02 -7.513943e-02 -9.964382e-01
    outer loop
      vertex   7.302001e+00  6.544801e+01  4.922800e+01
      vertex   6.958000e+00  6.535800e+01  4.924800e+01
      vertex   6.820000e+00  6.927400e+01  4.895800e+01
    endloop
  endfacet
  facet normal -3.568699e-02 -7.482195e-02 -9.965582e-01
    outer loop
      vertex   7.842000e+00  6.559000e+01  4.919800e+01
      vertex   7.302001e+00  6.544801e+01  4.922800e+01
      vertex   6.820000e+00  6.927400e+01  4.895800e+01
    endloop
  endfacet
  facet normal -3.555514e-02 -7.478585e-02 -9.965655e-01
    outer loop
      vertex   9.376000e+00  6.606001e+01  4.910800e+01
      vertex   7.842000e+00  6.559000e+01  4.919800e+01
      vertex   6.820000e+00  6.927400e+01  4.895800e+01
    endloop
  endfacet
  facet normal -2.994695e-02  9.246031e-02  9.952659e-01
    outer loop
      vertex   1.787600e+01  6.855801e+01  4.986800e+01
      vertex   1.671000e+01  7.093600e+01  4.961200e+01
      vertex   1.700200e+01  6.831800e+01  4.986400e+01
    endloop
  endfacet
  facet normal -4.029473e-01 -1.046739e-01 -9.092178e-01
    outer loop
      vertex   9.452001e+00  6.608400e+01  4.910200e+01
      vertex   9.448001e+00  6.608200e+01  4.910400e+01
      vertex   7.390000e+00  8.896201e+01  4.738200e+01
    endloop
  endfacet
  facet normal -6.322265e-02 -8.055332e-02 -9.947432e-01
    outer loop
      vertex   6.446000e+00  8.896201e+01  4.744200e+01
      vertex   7.390000e+00  8.896201e+01  4.738200e+01
      vertex   9.448001e+00  6.608200e+01  4.910400e+01
    endloop
  endfacet
  facet normal -1.284437e-01 -7.740133e-02 -9.886917e-01
    outer loop
      vertex   6.820000e+00  6.927400e+01  4.895800e+01
      vertex   6.552001e+00  6.524800e+01  4.930800e+01
      vertex   6.118001e+00  6.530400e+01  4.936000e+01
    endloop
  endfacet
  facet normal -1.267049e-01 -7.753566e-02 -9.889055e-01
    outer loop
      vertex   6.820000e+00  6.927400e+01  4.895800e+01
      vertex   6.698000e+00  6.529000e+01  4.928600e+01
      vertex   6.552001e+00  6.524800e+01  4.930800e+01
    endloop
  endfacet
  facet normal -1.242791e-01 -7.763464e-02 -9.892055e-01
    outer loop
      vertex   6.698000e+00  6.529000e+01  4.928600e+01
      vertex   6.820000e+00  6.927400e+01  4.895800e+01
      vertex   6.958000e+00  6.535800e+01  4.924800e+01
    endloop
  endfacet
  facet normal -1.070920e-01 -7.470824e-02 -9.914384e-01
    outer loop
      vertex   6.118001e+00  6.501200e+01  4.938200e+01
      vertex   6.118001e+00  6.530400e+01  4.936000e+01
      vertex   6.160000e+00  6.505801e+01  4.937400e+01
    endloop
  endfacet
  facet normal -1.242029e-01 -7.750364e-02 -9.892253e-01
    outer loop
      vertex   6.280000e+00  6.517200e+01  4.935000e+01
      vertex   6.160000e+00  6.505801e+01  4.937400e+01
      vertex   6.118001e+00  6.530400e+01  4.936000e+01
    endloop
  endfacet
  facet normal -1.291838e-01 -8.370334e-02 -9.880816e-01
    outer loop
      vertex   6.552001e+00  6.524800e+01  4.930800e+01
      vertex   6.280000e+00  6.517200e+01  4.935000e+01
      vertex   6.118001e+00  6.530400e+01  4.936000e+01
    endloop
  endfacet
  facet normal  3.036661e-04 -7.634661e-02 -9.970813e-01
    outer loop
      vertex   1.388200e+01  6.743201e+01  4.894800e+01
      vertex   1.276800e+01  6.708801e+01  4.897400e+01
      vertex   9.142000e+00  8.896201e+01  4.729800e+01
    endloop
  endfacet
  facet normal  3.816653e-04 -7.632953e-02 -9.970825e-01
    outer loop
      vertex   1.605400e+01  6.809600e+01  4.889800e+01
      vertex   1.388200e+01  6.743201e+01  4.894800e+01
      vertex   9.142000e+00  8.896201e+01  4.729800e+01
    endloop
  endfacet
  facet normal -1.271494e-01 -7.748509e-02 -9.888524e-01
    outer loop
      vertex   6.820000e+00  6.927400e+01  4.895800e+01
      vertex   6.130000e+00  6.956400e+01  4.902400e+01
      vertex   6.130000e+00  8.896201e+01  4.750400e+01
    endloop
  endfacet
  facet normal  0.000000e+00  1.000000e+00  0.000000e+00
    outer loop
      vertex   7.390000e+00  8.896201e+01  4.750400e+01
      vertex   8.460000e+00  8.896201e+01  4.732800e+01
      vertex   7.390000e+00  8.896201e+01  4.738200e+01
    endloop
  endfacet
  facet normal  0.000000e+00  1.000000e+00  0.000000e+00
    outer loop
      vertex   9.142000e+00  8.896201e+01  4.750400e+01
      vertex   9.142000e+00  8.896201e+01  4.729800e+01
      vertex   8.460000e+00  8.896201e+01  4.732800e+01
    endloop
  endfacet
  facet normal  0.000000e+00  1.000000e+00  0.000000e+00
    outer loop
      vertex   1.118600e+01  8.896201e+01  4.750400e+01
      vertex   1.118600e+01  8.896201e+01  4.728800e+01
      vertex   1.045400e+01  8.896201e+01  4.750400e+01
    endloop
  endfacet
  facet normal  0.000000e+00  1.000000e+00  0.000000e+00
    outer loop
      vertex   1.118600e+01  8.896201e+01  4.750400e+01
      vertex   1.118600e+01  8.896201e+01  4.771800e+01
      vertex   1.174000e+01  8.896201e+01  4.750400e+01
    endloop
  endfacet
  facet normal  0.000000e+00  1.000000e+00  0.000000e+00
    outer loop
      vertex   1.045400e+01  8.896201e+01  4.750400e+01
      vertex   1.045400e+01  8.896201e+01  4.773200e+01
      vertex   1.118600e+01  8.896201e+01  4.771800e+01
    endloop
  endfacet
  facet normal  0.000000e+00  1.000000e+00  0.000000e+00
    outer loop
      vertex   6.130000e+00  8.896201e+01  4.750400e+01
      vertex   6.446000e+00  8.896201e+01  4.756400e+01
      vertex   7.390000e+00  8.896201e+01  4.750400e+01
    endloop
  endfacet
  facet normal  0.000000e+00  1.000000e+00  0.000000e+00
    outer loop
      vertex   1.045400e+01  8.896201e+01  4.750400e+01
      vertex   1.045400e+01  8.896201e+01  4.727400e+01
      vertex   1.020400e+01  8.896201e+01  4.742600e+01
    endloop
  endfacet
  facet normal  0.000000e+00  1.000000e+00  0.000000e+00
    outer loop
      vertex   9.718000e+00  8.896201e+01  4.772600e+01
      vertex   9.142000e+00  8.896201e+01  4.750400e+01
      vertex   9.142000e+00  8.896201e+01  4.770800e+01
    endloop
  endfacet
  facet normal  0.000000e+00  1.000000e+00  0.000000e+00
    outer loop
      vertex   7.390000e+00  8.896201e+01  4.750400e+01
      vertex   7.390000e+00  8.896201e+01  4.738200e+01
      vertex   6.446000e+00  8.896201e+01  4.744200e+01
    endloop
  endfacet
  facet normal  0.000000e+00  1.000000e+00  0.000000e+00
    outer loop
      vertex   1.045400e+01  8.896201e+01  4.750400e+01
      vertex   1.020400e+01  8.896201e+01  4.742600e+01
      vertex   1.008000e+01  8.896201e+01  4.750400e+01
    endloop
  endfacet
  facet normal  0.000000e+00  1.000000e+00  0.000000e+00
    outer loop
      vertex   9.718000e+00  8.896201e+01  4.750400e+01
      vertex   9.718000e+00  8.896201e+01  4.772600e+01
      vertex   1.008000e+01  8.896201e+01  4.750400e+01
    endloop
  endfacet
  facet normal  0.000000e+00  1.000000e+00  0.000000e+00
    outer loop
      vertex   7.390000e+00  8.896201e+01  4.750400e+01
      vertex   8.460000e+00  8.896201e+01  4.767600e+01
      vertex   8.460000e+00  8.896201e+01  4.750400e+01
    endloop
  endfacet
  facet normal  0.000000e+00  1.000000e+00  0.000000e+00
    outer loop
      vertex   1.045400e+01  8.896201e+01  4.750400e+01
      vertex   1.118600e+01  8.896201e+01  4.771800e+01
      vertex   1.118600e+01  8.896201e+01  4.750400e+01
    endloop
  endfacet
  facet normal  0.000000e+00  1.000000e+00  0.000000e+00
    outer loop
      vertex   9.718000e+00  8.896201e+01  4.728000e+01
      vertex   9.718000e+00  8.896201e+01  4.750400e+01
      vertex   1.008000e+01  8.896201e+01  4.739000e+01
    endloop
  endfacet
  facet normal  0.000000e+00  1.000000e+00  0.000000e+00
    outer loop
      vertex   9.142000e+00  8.896201e+01  4.750400e+01
      vertex   9.718000e+00  8.896201e+01  4.772600e+01
      vertex   9.718000e+00  8.896201e+01  4.750400e+01
    endloop
  endfacet
  facet normal  0.000000e+00  1.000000e+00  0.000000e+00
    outer loop
      vertex   1.174000e+01  8.896201e+01  4.750400e+01
      vertex   1.209000e+01  8.896201e+01  4.760800e+01
      vertex   1.220600e+01  8.896201e+01  4.750400e+01
    endloop
  endfacet
  facet normal  0.000000e+00  1.000000e+00  0.000000e+00
    outer loop
      vertex   1.174000e+01  8.896201e+01  4.750400e+01
      vertex   1.174000e+01  8.896201e+01  4.767800e+01
      vertex   1.209000e+01  8.896201e+01  4.760800e+01
    endloop
  endfacet
  facet normal  0.000000e+00  1.000000e+00  0.000000e+00
    outer loop
      vertex   9.142000e+00  8.896201e+01  4.770800e+01
      vertex   9.142000e+00  8.896201e+01  4.750400e+01
      vertex   8.460000e+00  8.896201e+01  4.767600e+01
    endloop
  endfacet
  facet normal  0.000000e+00  1.000000e+00  0.000000e+00
    outer loop
      vertex   1.020400e+01  8.896201e+01  4.742600e+01
      vertex   1.045400e+01  8.896201e+01  4.727400e+01
      vertex   1.008000e+01  8.896201e+01  4.739000e+01
    endloop
  endfacet
  facet normal  0.000000e+00  1.000000e+00  0.000000e+00
    outer loop
      vertex   7.390000e+00  8.896201e+01  4.762400e+01
      vertex   7.390000e+00  8.896201e+01  4.750400e+01
      vertex   6.446000e+00  8.896201e+01  4.756400e+01
    endloop
  endfacet
  facet normal  0.000000e+00  1.000000e+00  0.000000e+00
    outer loop
      vertex   8.460000e+00  8.896201e+01  4.750400e+01
      vertex   8.460000e+00  8.896201e+01  4.732800e+01
      vertex   7.390000e+00  8.896201e+01  4.750400e+01
    endloop
  endfacet
  facet normal  0.000000e+00  1.000000e+00  0.000000e+00
    outer loop
      vertex   1.008000e+01  8.896201e+01  4.739000e+01
      vertex   1.045400e+01  8.896201e+01  4.727400e+01
      vertex   9.718000e+00  8.896201e+01  4.728000e+01
    endloop
  endfacet
  facet normal  0.000000e+00  1.000000e+00  0.000000e+00
    outer loop
      vertex   1.045400e+01  8.896201e+01  4.773200e+01
      vertex   1.045400e+01  8.896201e+01  4.750400e+01
      vertex   9.718000e+00  8.896201e+01  4.772600e+01
    endloop
  endfacet
  facet normal  0.000000e+00  1.000000e+00  0.000000e+00
    outer loop
      vertex   8.460000e+00  8.896201e+01  4.750400e+01
      vertex   8.460000e+00  8.896201e+01  4.767600e+01
      vertex   9.142000e+00  8.896201e+01  4.750400e+01
    endloop
  endfacet
  facet normal  0.000000e+00  1.000000e+00 -0.000000e+00
    outer loop
      vertex   1.008000e+01  8.896201e+01  4.739000e+01
      vertex   9.718000e+00  8.896201e+01  4.750400e+01
      vertex   1.020400e+01  8.896201e+01  4.742600e+01
    endloop
  endfacet
  facet normal  0.000000e+00  1.000000e+00  0.000000e+00
    outer loop
      vertex   9.718000e+00  8.896201e+01  4.750400e+01
      vertex   9.718000e+00  8.896201e+01  4.728000e+01
      vertex   9.142000e+00  8.896201e+01  4.750400e+01
    endloop
  endfacet
  facet normal  0.000000e+00  1.000000e+00  0.000000e+00
    outer loop
      vertex   9.142000e+00  8.896201e+01  4.750400e+01
      vertex   8.460000e+00  8.896201e+01  4.732800e+01
      vertex   8.460000e+00  8.896201e+01  4.750400e+01
    endloop
  endfacet
  facet normal  0.000000e+00  1.000000e+00 -0.000000e+00
    outer loop
      vertex   1.174000e+01  8.896201e+01  4.750400e+01
      vertex   1.118600e+01  8.896201e+01  4.771800e+01
      vertex   1.174000e+01  8.896201e+01  4.767800e+01
    endloop
  endfacet
  facet normal  0.000000e+00  1.000000e+00 -0.000000e+00
    outer loop
      vertex   1.008000e+01  8.896201e+01  4.750400e+01
      vertex   9.718000e+00  8.896201e+01  4.772600e+01
      vertex   1.045400e+01  8.896201e+01  4.750400e+01
    endloop
  endfacet
  facet normal  0.000000e+00  1.000000e+00  0.000000e+00
    outer loop
      vertex   1.008000e+01  8.896201e+01  4.750400e+01
      vertex   1.020400e+01  8.896201e+01  4.742600e+01
      vertex   9.718000e+00  8.896201e+01  4.750400e+01
    endloop
  endfacet
  facet normal  0.000000e+00  1.000000e+00  0.000000e+00
    outer loop
      vertex   9.142000e+00  8.896201e+01  4.750400e+01
      vertex   9.718000e+00  8.896201e+01  4.728000e+01
      vertex   9.142000e+00  8.896201e+01  4.729800e+01
    endloop
  endfacet
  facet normal  0.000000e+00  1.000000e+00  0.000000e+00
    outer loop
      vertex   1.174000e+01  8.896201e+01  4.750400e+01
      vertex   1.118600e+01  8.896201e+01  4.728800e+01
      vertex   1.118600e+01  8.896201e+01  4.750400e+01
    endloop
  endfacet
  facet normal  0.000000e+00  1.000000e+00  0.000000e+00
    outer loop
      vertex   1.174000e+01  8.896201e+01  4.732800e+01
      vertex   1.174000e+01  8.896201e+01  4.750400e+01
      vertex   1.209000e+01  8.896201e+01  4.739800e+01
    endloop
  endfacet
  facet normal  0.000000e+00  1.000000e+00  0.000000e+00
    outer loop
      vertex   7.390000e+00  8.896201e+01  4.750400e+01
      vertex   6.446000e+00  8.896201e+01  4.744200e+01
      vertex   6.130000e+00  8.896201e+01  4.750400e+01
    endloop
  endfacet
  facet normal  0.000000e+00  1.000000e+00  0.000000e+00
    outer loop
      vertex   8.460000e+00  8.896201e+01  4.767600e+01
      vertex   7.390000e+00  8.896201e+01  4.750400e+01
      vertex   7.390000e+00  8.896201e+01  4.762400e+01
    endloop
  endfacet
  facet normal  0.000000e+00  1.000000e+00  0.000000e+00
    outer loop
      vertex   1.220600e+01  8.896201e+01  4.750400e+01
      vertex   1.209000e+01  8.896201e+01  4.739800e+01
      vertex   1.174000e+01  8.896201e+01  4.750400e+01
    endloop
  endfacet
  facet normal  0.000000e+00  1.000000e+00  0.000000e+00
    outer loop
      vertex   1.045400e+01  8.896201e+01  4.727400e+01
      vertex   1.045400e+01  8.896201e+01  4.750400e+01
      vertex   1.118600e+01  8.896201e+01  4.728800e+01
    endloop
  endfacet
  facet normal  0.000000e+00  1.000000e+00  0.000000e+00
    outer loop
      vertex   1.118600e+01  8.896201e+01  4.728800e+01
      vertex   1.174000e+01  8.896201e+01  4.750400e+01
      vertex   1.174000e+01  8.896201e+01  4.732800e+01
    endloop
  endfacet
  facet normal -8.109880e-03  1.022474e-01  9.947259e-01
    outer loop
      vertex   9.718000e+00  8.896201e+01  4.772600e+01
      vertex   1.884800e+01  6.882800e+01  4.987000e+01
      vertex   1.045400e+01  8.896201e+01  4.773200e+01
    endloop
  endfacet
  facet normal -8.550412e-02  8.032500e-02  9.930947e-01
    outer loop
      vertex   8.422000e+00  7.752400e+01  4.863800e+01
      vertex   7.390000e+00  8.896201e+01  4.762400e+01
      vertex   7.176000e+00  7.716200e+01  4.856000e+01
    endloop
  endfacet
  facet normal -6.620076e-02  8.254887e-02  9.943858e-01
    outer loop
      vertex   1.276800e+01  6.707201e+01  4.978000e+01
      vertex   8.460000e+00  8.896201e+01  4.767600e+01
      vertex   1.214800e+01  6.688800e+01  4.975400e+01
    endloop
  endfacet
  facet normal -1.859999e-01  7.637877e-02  9.795766e-01
    outer loop
      vertex   6.550000e+00  7.698000e+01  4.851800e+01
      vertex   6.446000e+00  8.896201e+01  4.756400e+01
      vertex   6.130000e+00  8.896201e+01  4.750400e+01
    endloop
  endfacet
  facet normal -4.669584e-02  8.646191e-02  9.951602e-01
    outer loop
      vertex   1.276800e+01  6.707201e+01  4.978000e+01
      vertex   9.142000e+00  8.896201e+01  4.770800e+01
      vertex   8.460000e+00  8.896201e+01  4.767600e+01
    endloop
  endfacet
  facet normal -3.109818e-02  9.209971e-02  9.952641e-01
    outer loop
      vertex   1.607000e+01  6.804601e+01  4.986000e+01
      vertex   9.718000e+00  8.896201e+01  4.772600e+01
      vertex   9.142000e+00  8.896201e+01  4.770800e+01
    endloop
  endfacet
  facet normal -4.947317e-02  8.599301e-02  9.950666e-01
    outer loop
      vertex   1.607000e+01  6.804601e+01  4.986000e+01
      vertex   9.142000e+00  8.896201e+01  4.770800e+01
      vertex   1.276800e+01  6.707201e+01  4.978000e+01
    endloop
  endfacet
  facet normal -8.550449e-02  8.032620e-02  9.930945e-01
    outer loop
      vertex   9.452001e+00  6.608400e+01  4.965200e+01
      vertex   8.422000e+00  7.752400e+01  4.863800e+01
      vertex   7.176000e+00  7.716200e+01  4.856000e+01
    endloop
  endfacet
  facet normal -1.884748e-01  7.379369e-02  9.793017e-01
    outer loop
      vertex   6.118001e+00  6.501200e+01  4.938200e+01
      vertex   6.156000e+00  6.505600e+01  4.938600e+01
      vertex   6.118001e+00  6.530400e+01  4.936000e+01
    endloop
  endfacet
  facet normal -1.550641e-01  7.947912e-02  9.847021e-01
    outer loop
      vertex   6.280000e+00  6.517400e+01  4.939600e+01
      vertex   6.118001e+00  6.530400e+01  4.936000e+01
      vertex   6.156000e+00  6.505600e+01  4.938600e+01
    endloop
  endfacet
  facet normal -1.641288e-01  6.801394e-02  9.840914e-01
    outer loop
      vertex   6.402000e+00  6.520800e+01  4.941400e+01
      vertex   6.118001e+00  6.530400e+01  4.936000e+01
      vertex   6.280000e+00  6.517400e+01  4.939600e+01
    endloop
  endfacet
  facet normal -1.632459e-01  7.060539e-02  9.840557e-01
    outer loop
      vertex   6.676000e+00  6.528400e+01  4.945400e+01
      vertex   6.118001e+00  6.530400e+01  4.936000e+01
      vertex   6.402000e+00  6.520800e+01  4.941400e+01
    endloop
  endfacet
  facet normal -1.628881e-01  7.817873e-02  9.835424e-01
    outer loop
      vertex   6.704000e+00  6.529200e+01  4.945800e+01
      vertex   6.118001e+00  6.530400e+01  4.936000e+01
      vertex   6.676000e+00  6.528400e+01  4.945400e+01
    endloop
  endfacet
  facet normal -1.634378e-01  6.067562e-02  9.846860e-01
    outer loop
      vertex   6.892000e+00  6.534400e+01  4.948600e+01
      vertex   6.118001e+00  6.530400e+01  4.936000e+01
      vertex   6.704000e+00  6.529200e+01  4.945800e+01
    endloop
  endfacet
  facet normal -1.630417e-01  5.109006e-02  9.852955e-01
    outer loop
      vertex   6.932000e+00  6.535600e+01  4.949200e+01
      vertex   6.118001e+00  6.530400e+01  4.936000e+01
      vertex   6.892000e+00  6.534400e+01  4.948600e+01
    endloop
  endfacet
  facet normal -1.644379e-01  7.801862e-02  9.832972e-01
    outer loop
      vertex   6.118001e+00  6.530400e+01  4.936000e+01
      vertex   6.932000e+00  6.535600e+01  4.949200e+01
      vertex   6.130000e+00  6.956400e+01  4.902400e+01
    endloop
  endfacet
  facet normal -1.325578e-01  7.022427e-02  9.886845e-01
    outer loop
      vertex   9.452001e+00  6.608400e+01  4.965200e+01
      vertex   7.176000e+00  7.716200e+01  4.856000e+01
      vertex   7.852000e+00  6.559800e+01  4.947200e+01
    endloop
  endfacet
endsolid vcg
