solid STL generated by MeshLab
  facet normal  0.000000e+00 -1.000000e+00  0.000000e+00
    outer loop
      vertex   1.118400e+01  4.082600e+01  4.750400e+01
      vertex   1.173800e+01  4.082600e+01  4.750400e+01
      vertex   1.118400e+01  4.082600e+01  4.771800e+01
    endloop
  endfacet
  facet normal  0.000000e+00 -1.000000e+00  0.000000e+00
    outer loop
      vertex   9.716001e+00  4.082600e+01  4.772600e+01
      vertex   9.142000e+00  4.082600e+01  4.770800e+01
      vertex   9.142000e+00  4.082600e+01  4.750400e+01
    endloop
  endfacet
  facet normal -0.000000e+00 -1.000000e+00  0.000000e+00
    outer loop
      vertex   1.173800e+01  4.082600e+01  4.750400e+01
      vertex   1.118400e+01  4.082600e+01  4.750400e+01
      vertex   1.118400e+01  4.082600e+01  4.728800e+01
    endloop
  endfacet
  facet normal  0.000000e+00 -1.000000e+00  0.000000e+00
    outer loop
      vertex   8.458000e+00  4.082600e+01  4.750400e+01
      vertex   9.142000e+00  4.082600e+01  4.750400e+01
      vertex   8.458000e+00  4.082600e+01  4.767800e+01
    endloop
  endfacet
  facet normal  0.000000e+00 -1.000000e+00  0.000000e+00
    outer loop
      vertex   9.716001e+00  4.082600e+01  4.750400e+01
      vertex   1.007800e+01  4.082600e+01  4.761800e+01
      vertex   9.716001e+00  4.082600e+01  4.772600e+01
    endloop
  endfacet
  facet normal  0.000000e+00 -1.000000e+00 -0.000000e+00
    outer loop
      vertex   9.142000e+00  4.082600e+01  4.750400e+01
      vertex   8.458000e+00  4.082600e+01  4.733000e+01
      vertex   9.142000e+00  4.082600e+01  4.730000e+01
    endloop
  endfacet
  facet normal -0.000000e+00 -1.000000e+00 -0.000000e+00
    outer loop
      vertex   1.118400e+01  4.082600e+01  4.750400e+01
      vertex   1.045200e+01  4.082600e+01  4.750400e+01
      vertex   1.118400e+01  4.082600e+01  4.728800e+01
    endloop
  endfacet
  facet normal  0.000000e+00 -1.000000e+00  0.000000e+00
    outer loop
      vertex   1.173800e+01  4.082600e+01  4.750400e+01
      vertex   1.173800e+01  4.082600e+01  4.767800e+01
      vertex   1.118400e+01  4.082600e+01  4.771800e+01
    endloop
  endfacet
  facet normal  0.000000e+00 -1.000000e+00  0.000000e+00
    outer loop
      vertex   9.142000e+00  4.082600e+01  4.750400e+01
      vertex   9.716001e+00  4.082600e+01  4.750400e+01
      vertex   9.716001e+00  4.082600e+01  4.772600e+01
    endloop
  endfacet
  facet normal  0.000000e+00 -1.000000e+00 -0.000000e+00
    outer loop
      vertex   1.045200e+01  4.082600e+01  4.773200e+01
      vertex   1.007800e+01  4.082600e+01  4.761800e+01
      vertex   1.045200e+01  4.082600e+01  4.750400e+01
    endloop
  endfacet
  facet normal  0.000000e+00 -1.000000e+00  0.000000e+00
    outer loop
      vertex   1.173800e+01  4.082600e+01  4.732800e+01
      vertex   1.208800e+01  4.082600e+01  4.739800e+01
      vertex   1.173800e+01  4.082600e+01  4.750400e+01
    endloop
  endfacet
  facet normal -0.000000e+00 -1.000000e+00  0.000000e+00
    outer loop
      vertex   9.142000e+00  4.082600e+01  4.750400e+01
      vertex   8.458000e+00  4.082600e+01  4.750400e+01
      vertex   8.458000e+00  4.082600e+01  4.733000e+01
    endloop
  endfacet
  facet normal  0.000000e+00 -1.000000e+00  0.000000e+00
    outer loop
      vertex   7.390000e+00  4.082600e+01  4.750400e+01
      vertex   7.390000e+00  4.082600e+01  4.738200e+01
      vertex   8.458000e+00  4.082600e+01  4.733000e+01
    endloop
  endfacet
  facet normal -0.000000e+00 -1.000000e+00 -0.000000e+00
    outer loop
      vertex   8.458000e+00  4.082600e+01  4.750400e+01
      vertex   7.390000e+00  4.082600e+01  4.750400e+01
      vertex   8.458000e+00  4.082600e+01  4.733000e+01
    endloop
  endfacet
  facet normal -0.000000e+00 -1.000000e+00 -0.000000e+00
    outer loop
      vertex   9.716001e+00  4.082600e+01  4.750400e+01
      vertex   9.142000e+00  4.082600e+01  4.750400e+01
      vertex   9.716001e+00  4.082600e+01  4.728200e+01
    endloop
  endfacet
  facet normal -0.000000e+00 -1.000000e+00  0.000000e+00
    outer loop
      vertex   1.220600e+01  4.082600e+01  4.750400e+01
      vertex   1.173800e+01  4.082600e+01  4.750400e+01
      vertex   1.208800e+01  4.082600e+01  4.739800e+01
    endloop
  endfacet
  facet normal -0.000000e+00 -1.000000e+00  0.000000e+00
    outer loop
      vertex   1.045200e+01  4.082600e+01  4.750400e+01
      vertex   9.716001e+00  4.082600e+01  4.750400e+01
      vertex   1.008000e+01  4.082600e+01  4.739200e+01
    endloop
  endfacet
  facet normal  0.000000e+00 -1.000000e+00  0.000000e+00
    outer loop
      vertex   1.045200e+01  4.082600e+01  4.750400e+01
      vertex   1.118400e+01  4.082600e+01  4.750400e+01
      vertex   1.118400e+01  4.082600e+01  4.771800e+01
    endloop
  endfacet
  facet normal  0.000000e+00 -1.000000e+00  0.000000e+00
    outer loop
      vertex   7.390000e+00  4.082600e+01  4.750400e+01
      vertex   8.458000e+00  4.082600e+01  4.750400e+01
      vertex   8.458000e+00  4.082600e+01  4.767800e+01
    endloop
  endfacet
  facet normal  0.000000e+00 -1.000000e+00  0.000000e+00
    outer loop
      vertex   1.173800e+01  4.082600e+01  4.750400e+01
      vertex   1.208800e+01  4.082600e+01  4.761000e+01
      vertex   1.173800e+01  4.082600e+01  4.767800e+01
    endloop
  endfacet
  facet normal  0.000000e+00 -1.000000e+00  0.000000e+00
    outer loop
      vertex   1.045200e+01  4.082600e+01  4.750400e+01
      vertex   1.118400e+01  4.082600e+01  4.771800e+01
      vertex   1.045200e+01  4.082600e+01  4.773200e+01
    endloop
  endfacet
  facet normal  0.000000e+00 -1.000000e+00  0.000000e+00
    outer loop
      vertex   9.142000e+00  4.082600e+01  4.750400e+01
      vertex   9.142000e+00  4.082600e+01  4.730000e+01
      vertex   9.716001e+00  4.082600e+01  4.728200e+01
    endloop
  endfacet
  facet normal  0.000000e+00 -1.000000e+00 -0.000000e+00
    outer loop
      vertex   1.045200e+01  4.082600e+01  4.750400e+01
      vertex   1.008000e+01  4.082600e+01  4.739200e+01
      vertex   1.045200e+01  4.082600e+01  4.727400e+01
    endloop
  endfacet
  facet normal  0.000000e+00 -1.000000e+00  0.000000e+00
    outer loop
      vertex   1.045200e+01  4.082600e+01  4.727400e+01
      vertex   1.118400e+01  4.082600e+01  4.728800e+01
      vertex   1.045200e+01  4.082600e+01  4.750400e+01
    endloop
  endfacet
  facet normal  0.000000e+00 -1.000000e+00  0.000000e+00
    outer loop
      vertex   1.118400e+01  4.082600e+01  4.728800e+01
      vertex   1.173800e+01  4.082600e+01  4.732800e+01
      vertex   1.173800e+01  4.082600e+01  4.750400e+01
    endloop
  endfacet
  facet normal  0.000000e+00 -1.000000e+00 -0.000000e+00
    outer loop
      vertex   9.142000e+00  4.082600e+01  4.770800e+01
      vertex   8.458000e+00  4.082600e+01  4.767800e+01
      vertex   9.142000e+00  4.082600e+01  4.750400e+01
    endloop
  endfacet
  facet normal  0.000000e+00 -1.000000e+00 -0.000000e+00
    outer loop
      vertex   7.390000e+00  4.082600e+01  4.750400e+01
      vertex   6.444000e+00  4.082600e+01  4.744200e+01
      vertex   7.390000e+00  4.082600e+01  4.738200e+01
    endloop
  endfacet
  facet normal  0.000000e+00 -1.000000e+00  0.000000e+00
    outer loop
      vertex   9.716001e+00  4.082600e+01  4.750400e+01
      vertex   1.045200e+01  4.082600e+01  4.750400e+01
      vertex   1.007800e+01  4.082600e+01  4.761800e+01
    endloop
  endfacet
  facet normal  0.000000e+00 -1.000000e+00  0.000000e+00
    outer loop
      vertex   8.458000e+00  4.082600e+01  4.767800e+01
      vertex   7.390000e+00  4.082600e+01  4.762400e+01
      vertex   7.390000e+00  4.082600e+01  4.750400e+01
    endloop
  endfacet
  facet normal  0.000000e+00 -1.000000e+00 -0.000000e+00
    outer loop
      vertex   1.008000e+01  4.082600e+01  4.739200e+01
      vertex   9.716001e+00  4.082600e+01  4.728200e+01
      vertex   1.045200e+01  4.082600e+01  4.727400e+01
    endloop
  endfacet
  facet normal  0.000000e+00 -1.000000e+00 -0.000000e+00
    outer loop
      vertex   7.390000e+00  4.082600e+01  4.762400e+01
      vertex   6.444000e+00  4.082600e+01  4.756400e+01
      vertex   7.390000e+00  4.082600e+01  4.750400e+01
    endloop
  endfacet
  facet normal  0.000000e+00 -1.000000e+00  0.000000e+00
    outer loop
      vertex   1.173800e+01  4.082600e+01  4.750400e+01
      vertex   1.220600e+01  4.082600e+01  4.750400e+01
      vertex   1.208800e+01  4.082600e+01  4.761000e+01
    endloop
  endfacet
  facet normal  0.000000e+00 -1.000000e+00  0.000000e+00
    outer loop
      vertex   1.045200e+01  4.082600e+01  4.773200e+01
      vertex   9.716001e+00  4.082600e+01  4.772600e+01
      vertex   1.007800e+01  4.082600e+01  4.761800e+01
    endloop
  endfacet
  facet normal  0.000000e+00 -1.000000e+00  0.000000e+00
    outer loop
      vertex   6.128000e+00  4.082600e+01  4.750400e+01
      vertex   7.390000e+00  4.082600e+01  4.750400e+01
      vertex   6.444000e+00  4.082600e+01  4.756400e+01
    endloop
  endfacet
  facet normal -0.000000e+00 -1.000000e+00  0.000000e+00
    outer loop
      vertex   7.390000e+00  4.082600e+01  4.750400e+01
      vertex   6.128000e+00  4.082600e+01  4.750400e+01
      vertex   6.444000e+00  4.082600e+01  4.744200e+01
    endloop
  endfacet
  facet normal  0.000000e+00 -1.000000e+00  0.000000e+00
    outer loop
      vertex   9.716001e+00  4.082600e+01  4.728200e+01
      vertex   1.008000e+01  4.082600e+01  4.739200e+01
      vertex   9.716001e+00  4.082600e+01  4.750400e+01
    endloop
  endfacet
  facet normal -1.576275e-01 -7.907595e-02  9.843276e-01
    outer loop
      vertex   6.960001e+00  6.442600e+01  4.949600e+01
      vertex   6.932000e+00  6.443201e+01  4.949200e+01
      vertex   6.886000e+00  6.158600e+01  4.925600e+01
    endloop
  endfacet
  facet normal  6.203565e-01 -3.718032e-01  6.905941e-01
    outer loop
      vertex   2.165400e+01  6.008200e+01  4.938400e+01
      vertex   1.208800e+01  4.082600e+01  4.761000e+01
      vertex   1.220600e+01  4.082600e+01  4.750400e+01
    endloop
  endfacet
  facet normal -5.032092e-02 -8.368789e-02  9.952206e-01
    outer loop
      vertex   7.390000e+00  4.082600e+01  4.762400e+01
      vertex   8.458000e+00  4.082600e+01  4.767800e+01
      vertex   8.422000e+00  5.226400e+01  4.863800e+01
    endloop
  endfacet
  facet normal -5.041899e-02 -8.368780e-02  9.952157e-01
    outer loop
      vertex   9.452001e+00  6.370200e+01  4.965200e+01
      vertex   8.422000e+00  5.226400e+01  4.863800e+01
      vertex   8.458000e+00  4.082600e+01  4.767800e+01
    endloop
  endfacet
  facet normal -6.200020e-02 -8.313211e-02  9.946079e-01
    outer loop
      vertex   8.458000e+00  4.082600e+01  4.767800e+01
      vertex   9.990001e+00  6.354000e+01  4.967200e+01
      vertex   9.452001e+00  6.370200e+01  4.965200e+01
    endloop
  endfacet
  facet normal -6.243791e-02 -8.310042e-02  9.945832e-01
    outer loop
      vertex   8.458000e+00  4.082600e+01  4.767800e+01
      vertex   1.214800e+01  6.290000e+01  4.975400e+01
      vertex   9.990001e+00  6.354000e+01  4.967200e+01
    endloop
  endfacet
  facet normal -1.680038e-01 -7.681557e-02  9.827889e-01
    outer loop
      vertex   6.932000e+00  6.443201e+01  4.949200e+01
      vertex   6.130000e+00  6.022400e+01  4.902600e+01
      vertex   6.550000e+00  5.280600e+01  4.851800e+01
    endloop
  endfacet
  facet normal -8.912779e-02 -7.828169e-02  9.929392e-01
    outer loop
      vertex   7.176000e+00  5.262600e+01  4.856000e+01
      vertex   6.550000e+00  5.280600e+01  4.851800e+01
      vertex   6.444000e+00  4.082600e+01  4.756400e+01
    endloop
  endfacet
  facet normal -2.884045e-02 -9.295639e-02  9.952524e-01
    outer loop
      vertex   9.716001e+00  4.082600e+01  4.772600e+01
      vertex   1.787600e+01  6.122800e+01  4.986800e+01
      vertex   1.446400e+01  5.427800e+01  4.912000e+01
    endloop
  endfacet
  facet normal  0.000000e+00 -1.044499e-01  9.945301e-01
    outer loop
      vertex   9.716001e+00  4.082600e+01  4.772600e+01
      vertex   1.787800e+01  6.122800e+01  4.986800e+01
      vertex   1.787600e+01  6.122800e+01  4.986800e+01
    endloop
  endfacet
  facet normal -1.169191e-01 -4.933866e-02  9.919151e-01
    outer loop
      vertex   1.446400e+01  5.427800e+01  4.912000e+01
      vertex   1.787600e+01  6.122800e+01  4.986800e+01
      vertex   1.670800e+01  5.885000e+01  4.961200e+01
    endloop
  endfacet
  facet normal  0.000000e+00  7.819749e-02 -9.969379e-01
    outer loop
      vertex   1.173800e+01  4.082600e+01  4.732800e+01
      vertex   1.880400e+01  6.084400e+01  4.889800e+01
      vertex   1.880800e+01  6.084400e+01  4.889800e+01
    endloop
  endfacet
  facet normal  7.191627e-02  5.273174e-02 -9.960157e-01
    outer loop
      vertex   1.880400e+01  6.084400e+01  4.889800e+01
      vertex   1.173800e+01  4.082600e+01  4.732800e+01
      vertex   1.118400e+01  4.082600e+01  4.728800e+01
    endloop
  endfacet
  facet normal  7.832415e-02  5.042553e-02 -9.956518e-01
    outer loop
      vertex   1.173800e+01  4.082600e+01  4.732800e+01
      vertex   1.880800e+01  6.084400e+01  4.889800e+01
      vertex   1.896600e+01  6.079600e+01  4.890800e+01
    endloop
  endfacet
  facet normal  7.933312e-02  5.005565e-02 -9.955907e-01
    outer loop
      vertex   1.173800e+01  4.082600e+01  4.732800e+01
      vertex   1.896600e+01  6.079600e+01  4.890800e+01
      vertex   1.992200e+01  6.051400e+01  4.897000e+01
    endloop
  endfacet
  facet normal  2.434891e-02  7.302905e-02 -9.970326e-01
    outer loop
      vertex   1.173800e+01  4.082600e+01  4.732800e+01
      vertex   1.992200e+01  6.051400e+01  4.897000e+01
      vertex   1.993400e+01  6.051000e+01  4.897000e+01
    endloop
  endfacet
  facet normal  7.902487e-02  5.014753e-02 -9.956105e-01
    outer loop
      vertex   1.173800e+01  4.082600e+01  4.732800e+01
      vertex   1.993400e+01  6.051000e+01  4.897000e+01
      vertex   2.048400e+01  6.035800e+01  4.900600e+01
    endloop
  endfacet
  facet normal -1.727629e-01 -7.702736e-02  9.819469e-01
    outer loop
      vertex   6.550000e+00  5.280600e+01  4.851800e+01
      vertex   6.130000e+00  6.022400e+01  4.902600e+01
      vertex   6.128000e+00  4.082600e+01  4.750400e+01
    endloop
  endfacet
  facet normal -8.771142e-02 -7.323691e-02  9.934501e-01
    outer loop
      vertex   7.850000e+00  6.419000e+01  4.947200e+01
      vertex   6.550000e+00  5.280600e+01  4.851800e+01
      vertex   7.176000e+00  5.262600e+01  4.856000e+01
    endloop
  endfacet
  facet normal -1.298368e-01  7.713872e-02 -9.885302e-01
    outer loop
      vertex   6.820000e+00  6.051400e+01  4.895800e+01
      vertex   6.130000e+00  6.022400e+01  4.902600e+01
      vertex   6.118001e+00  6.448400e+01  4.936000e+01
    endloop
  endfacet
  facet normal -3.004456e-02 -9.235671e-02  9.952726e-01
    outer loop
      vertex   1.700200e+01  6.147000e+01  4.986400e+01
      vertex   1.446400e+01  5.427800e+01  4.912000e+01
      vertex   1.670800e+01  5.885000e+01  4.961200e+01
    endloop
  endfacet
  facet normal -2.139822e-02 -8.363457e-02  9.962667e-01
    outer loop
      vertex   7.046000e+00  6.440400e+01  4.949600e+01
      vertex   6.960001e+00  6.442600e+01  4.949600e+01
      vertex   6.886000e+00  6.158600e+01  4.925600e+01
    endloop
  endfacet
  facet normal  7.134978e-02 -1.357426e-01  9.881716e-01
    outer loop
      vertex   1.173800e+01  4.082600e+01  4.767800e+01
      vertex   2.009600e+01  6.059400e+01  4.979000e+01
      vertex   1.118400e+01  4.082600e+01  4.771800e+01
    endloop
  endfacet
  facet normal  2.363893e-02 -1.160816e-01  9.929584e-01
    outer loop
      vertex   2.009600e+01  6.059400e+01  4.979000e+01
      vertex   1.173800e+01  4.082600e+01  4.767800e+01
      vertex   2.053000e+01  6.046000e+01  4.976400e+01
    endloop
  endfacet
  facet normal  5.209179e-03 -8.409889e-02  9.964437e-01
    outer loop
      vertex   7.850000e+00  6.419000e+01  4.947200e+01
      vertex   6.862000e+00  6.012400e+01  4.913400e+01
      vertex   6.550000e+00  5.280600e+01  4.851800e+01
    endloop
  endfacet
  facet normal  7.227294e-03 -8.458481e-02  9.963901e-01
    outer loop
      vertex   6.862000e+00  6.012400e+01  4.913400e+01
      vertex   7.850000e+00  6.419000e+01  4.947200e+01
      vertex   7.046000e+00  6.440400e+01  4.949600e+01
    endloop
  endfacet
  facet normal  6.475015e-01 -2.473242e-01 -7.208139e-01
    outer loop
      vertex   2.165400e+01  6.008200e+01  4.938400e+01
      vertex   1.220600e+01  4.082600e+01  4.750400e+01
      vertex   1.208800e+01  4.082600e+01  4.739800e+01
    endloop
  endfacet
  facet normal -4.058864e-02 -8.209195e-02  9.957979e-01
    outer loop
      vertex   6.862000e+00  6.012400e+01  4.913400e+01
      vertex   6.932000e+00  6.443201e+01  4.949200e+01
      vertex   6.550000e+00  5.280600e+01  4.851800e+01
    endloop
  endfacet
  facet normal -8.998870e-01 -2.157552e-02  4.355891e-01
    outer loop
      vertex   6.932000e+00  6.443201e+01  4.949200e+01
      vertex   6.862000e+00  6.012400e+01  4.913400e+01
      vertex   6.886000e+00  6.158600e+01  4.925600e+01
    endloop
  endfacet
  facet normal  0.000000e+00  7.723118e-02 -9.970132e-01
    outer loop
      vertex   9.716001e+00  4.082600e+01  4.728200e+01
      vertex   1.605200e+01  6.169200e+01  4.889800e+01
      vertex   1.605400e+01  6.169200e+01  4.889800e+01
    endloop
  endfacet
  facet normal -3.122850e-02  8.660028e-02 -9.957536e-01
    outer loop
      vertex   1.605200e+01  6.169200e+01  4.889800e+01
      vertex   9.716001e+00  4.082600e+01  4.728200e+01
      vertex   9.142000e+00  4.082600e+01  4.730000e+01
    endloop
  endfacet
  facet normal -4.246767e-02 -8.238956e-02  9.956950e-01
    outer loop
      vertex   7.046000e+00  6.440400e+01  4.949600e+01
      vertex   6.886000e+00  6.158600e+01  4.925600e+01
      vertex   6.862000e+00  6.012400e+01  4.913400e+01
    endloop
  endfacet
  facet normal -7.674398e-02 -7.736688e-02  9.940446e-01
    outer loop
      vertex   1.664800e+01  6.157400e+01  4.987600e+01
      vertex   1.653600e+01  6.160800e+01  4.987000e+01
      vertex   9.716001e+00  4.082600e+01  4.772600e+01
    endloop
  endfacet
  facet normal  1.873124e-01 -1.882455e-01  9.640942e-01
    outer loop
      vertex   2.137800e+01  6.019000e+01  4.958600e+01
      vertex   1.173800e+01  4.082600e+01  4.767800e+01
      vertex   1.208800e+01  4.082600e+01  4.761000e+01
    endloop
  endfacet
  facet normal  1.899984e-02 -1.128988e-01  9.934248e-01
    outer loop
      vertex   1.118400e+01  4.082600e+01  4.771800e+01
      vertex   1.978800e+01  6.068200e+01  4.981000e+01
      vertex   1.045200e+01  4.082600e+01  4.773200e+01
    endloop
  endfacet
  facet normal  2.636575e-02 -1.160348e-01  9.928951e-01
    outer loop
      vertex   1.978800e+01  6.068200e+01  4.981000e+01
      vertex   1.118400e+01  4.082600e+01  4.771800e+01
      vertex   1.992200e+01  6.064400e+01  4.980200e+01
    endloop
  endfacet
  facet normal -1.643771e-02  7.793350e-02 -9.968231e-01
    outer loop
      vertex   8.458000e+00  4.082600e+01  4.733000e+01
      vertex   9.458000e+00  6.370200e+01  4.910200e+01
      vertex   9.704000e+00  6.362600e+01  4.909200e+01
    endloop
  endfacet
  facet normal -1.466979e-02  7.783961e-02 -9.968579e-01
    outer loop
      vertex   8.458000e+00  4.082600e+01  4.733000e+01
      vertex   9.704000e+00  6.362600e+01  4.909200e+01
      vertex   1.211400e+01  6.290200e+01  4.900000e+01
    endloop
  endfacet
  facet normal -1.563568e-02  7.799747e-02 -9.968309e-01
    outer loop
      vertex   8.458000e+00  4.082600e+01  4.733000e+01
      vertex   1.211400e+01  6.290200e+01  4.900000e+01
      vertex   1.276400e+01  6.270000e+01  4.897400e+01
    endloop
  endfacet
  facet normal  1.481860e-01 -1.698668e-01  9.742619e-01
    outer loop
      vertex   1.173800e+01  4.082600e+01  4.767800e+01
      vertex   2.116400e+01  6.025600e+01  4.963200e+01
      vertex   2.053000e+01  6.046000e+01  4.976400e+01
    endloop
  endfacet
  facet normal  1.310690e-01 -1.619429e-01  9.780570e-01
    outer loop
      vertex   1.173800e+01  4.082600e+01  4.767800e+01
      vertex   2.117400e+01  6.025200e+01  4.963000e+01
      vertex   2.116400e+01  6.025600e+01  4.963200e+01
    endloop
  endfacet
  facet normal  1.568407e-01 -1.738740e-01  9.721979e-01
    outer loop
      vertex   1.173800e+01  4.082600e+01  4.767800e+01
      vertex   2.137800e+01  6.019000e+01  4.958600e+01
      vertex   2.117400e+01  6.025200e+01  4.963000e+01
    endloop
  endfacet
  facet normal -1.712528e-04 -1.030159e-01  9.946797e-01
    outer loop
      vertex   1.446400e+01  5.427800e+01  4.912000e+01
      vertex   1.664800e+01  6.157400e+01  4.987600e+01
      vertex   9.716001e+00  4.082600e+01  4.772600e+01
    endloop
  endfacet
  facet normal  3.162695e-03 -1.040028e-01  9.945720e-01
    outer loop
      vertex   1.664800e+01  6.157400e+01  4.987600e+01
      vertex   1.446400e+01  5.427800e+01  4.912000e+01
      vertex   1.700200e+01  6.147000e+01  4.986400e+01
    endloop
  endfacet
  facet normal -6.309205e-02 -8.005318e-02  9.947919e-01
    outer loop
      vertex   7.390000e+00  4.082600e+01  4.762400e+01
      vertex   7.176000e+00  5.262600e+01  4.856000e+01
      vertex   6.444000e+00  4.082600e+01  4.756400e+01
    endloop
  endfacet
  facet normal -4.614837e-02 -8.751561e-02  9.950936e-01
    outer loop
      vertex   1.653600e+01  6.160800e+01  4.987000e+01
      vertex   1.607000e+01  6.174000e+01  4.986000e+01
      vertex   9.716001e+00  4.082600e+01  4.772600e+01
    endloop
  endfacet
  facet normal  3.413033e-02 -1.193915e-01  9.922605e-01
    outer loop
      vertex   2.009600e+01  6.059400e+01  4.979000e+01
      vertex   1.992200e+01  6.064400e+01  4.980200e+01
      vertex   1.118400e+01  4.082600e+01  4.771800e+01
    endloop
  endfacet
  facet normal -1.082851e-02  8.533239e-02 -9.962937e-01
    outer loop
      vertex   1.879800e+01  6.084600e+01  4.889800e+01
      vertex   1.045200e+01  4.082600e+01  4.727400e+01
      vertex   9.716001e+00  4.082600e+01  4.728200e+01
    endloop
  endfacet
  facet normal  0.000000e+00  8.085346e-02 -9.967260e-01
    outer loop
      vertex   1.045200e+01  4.082600e+01  4.727400e+01
      vertex   1.879800e+01  6.084600e+01  4.889800e+01
      vertex   1.880000e+01  6.084600e+01  4.889800e+01
    endloop
  endfacet
  facet normal  0.000000e+00  7.244289e-02 -9.973726e-01
    outer loop
      vertex   6.444000e+00  4.082600e+01  4.744200e+01
      vertex   9.446000e+00  6.370600e+01  4.910400e+01
      vertex   9.448001e+00  6.370600e+01  4.910400e+01
    endloop
  endfacet
  facet normal -1.916412e-01  9.609561e-02 -9.767493e-01
    outer loop
      vertex   9.446000e+00  6.370600e+01  4.910400e+01
      vertex   6.444000e+00  4.082600e+01  4.744200e+01
      vertex   6.128000e+00  4.082600e+01  4.750400e+01
    endloop
  endfacet
  facet normal -3.566623e-02  7.485151e-02 -9.965567e-01
    outer loop
      vertex   6.128000e+00  4.082600e+01  4.750400e+01
      vertex   6.820000e+00  6.051400e+01  4.895800e+01
      vertex   9.374001e+00  6.372800e+01  4.910800e+01
    endloop
  endfacet
  facet normal -3.259606e-02  7.442599e-02 -9.966937e-01
    outer loop
      vertex   6.128000e+00  4.082600e+01  4.750400e+01
      vertex   9.374001e+00  6.372800e+01  4.910800e+01
      vertex   9.446000e+00  6.370600e+01  4.910400e+01
    endloop
  endfacet
  facet normal -3.806299e-02  7.513270e-02 -9.964468e-01
    outer loop
      vertex   6.820000e+00  6.051400e+01  4.895800e+01
      vertex   6.958000e+00  6.443000e+01  4.924800e+01
      vertex   7.300000e+00  6.433801e+01  4.922800e+01
    endloop
  endfacet
  facet normal -3.582129e-02  7.485864e-02 -9.965506e-01
    outer loop
      vertex   6.820000e+00  6.051400e+01  4.895800e+01
      vertex   7.300000e+00  6.433801e+01  4.922800e+01
      vertex   7.842000e+00  6.419801e+01  4.919800e+01
    endloop
  endfacet
  facet normal -3.559785e-02  7.479747e-02 -9.965632e-01
    outer loop
      vertex   6.820000e+00  6.051400e+01  4.895800e+01
      vertex   7.842000e+00  6.419801e+01  4.919800e+01
      vertex   9.374001e+00  6.372800e+01  4.910800e+01
    endloop
  endfacet
  facet normal  4.798329e-01 -3.138105e-01  8.193188e-01
    outer loop
      vertex   1.208800e+01  4.082600e+01  4.761000e+01
      vertex   2.160600e+01  6.010000e+01  4.941800e+01
      vertex   2.137800e+01  6.019000e+01  4.958600e+01
    endloop
  endfacet
  facet normal  4.696376e-01 -3.094806e-01  8.268388e-01
    outer loop
      vertex   1.208800e+01  4.082600e+01  4.761000e+01
      vertex   2.165400e+01  6.008200e+01  4.938400e+01
      vertex   2.160600e+01  6.010000e+01  4.941800e+01
    endloop
  endfacet
  facet normal -4.029449e-01  1.046691e-01 -9.092193e-01
    outer loop
      vertex   7.390000e+00  4.082600e+01  4.738200e+01
      vertex   9.448001e+00  6.370600e+01  4.910400e+01
      vertex   9.452001e+00  6.370400e+01  4.910200e+01
    endloop
  endfacet
  facet normal -6.308961e-02  8.054204e-02 -9.947525e-01
    outer loop
      vertex   9.448001e+00  6.370600e+01  4.910400e+01
      vertex   7.390000e+00  4.082600e+01  4.738200e+01
      vertex   6.444000e+00  4.082600e+01  4.744200e+01
    endloop
  endfacet
  facet normal  0.000000e+00  8.208619e-02 -9.966252e-01
    outer loop
      vertex   1.208800e+01  4.082600e+01  4.739800e+01
      vertex   2.048400e+01  6.035800e+01  4.900600e+01
      vertex   2.048600e+01  6.035800e+01  4.900600e+01
    endloop
  endfacet
  facet normal  1.961145e-01 -3.574427e-03 -9.805745e-01
    outer loop
      vertex   2.048400e+01  6.035800e+01  4.900600e+01
      vertex   1.208800e+01  4.082600e+01  4.739800e+01
      vertex   1.173800e+01  4.082600e+01  4.732800e+01
    endloop
  endfacet
  facet normal  1.964660e-01 -3.751493e-03 -9.805035e-01
    outer loop
      vertex   1.208800e+01  4.082600e+01  4.739800e+01
      vertex   2.048600e+01  6.035800e+01  4.900600e+01
      vertex   2.107200e+01  6.020600e+01  4.912400e+01
    endloop
  endfacet
  facet normal  2.013747e-01 -6.116770e-03 -9.794952e-01
    outer loop
      vertex   1.208800e+01  4.082600e+01  4.739800e+01
      vertex   2.107200e+01  6.020600e+01  4.912400e+01
      vertex   2.135200e+01  6.013600e+01  4.918200e+01
    endloop
  endfacet
  facet normal  2.787413e-04  7.626706e-02 -9.970874e-01
    outer loop
      vertex   9.142000e+00  4.082600e+01  4.730000e+01
      vertex   1.276800e+01  6.269800e+01  4.897400e+01
      vertex   1.388200e+01  6.235400e+01  4.894800e+01
    endloop
  endfacet
  facet normal  2.919050e-04  7.626418e-02 -9.970876e-01
    outer loop
      vertex   9.142000e+00  4.082600e+01  4.730000e+01
      vertex   1.388200e+01  6.235400e+01  4.894800e+01
      vertex   1.605200e+01  6.169200e+01  4.889800e+01
    endloop
  endfacet
  facet normal -3.012637e-02 -9.234738e-02  9.952710e-01
    outer loop
      vertex   1.670800e+01  5.885000e+01  4.961200e+01
      vertex   1.787600e+01  6.122800e+01  4.986800e+01
      vertex   1.700200e+01  6.147000e+01  4.986400e+01
    endloop
  endfacet
  facet normal -3.002223e-02 -9.248174e-02  9.952616e-01
    outer loop
      vertex   9.716001e+00  4.082600e+01  4.772600e+01
      vertex   1.875600e+01  6.098600e+01  4.987200e+01
      vertex   1.787800e+01  6.122800e+01  4.986800e+01
    endloop
  endfacet
  facet normal  3.524206e-02  7.044899e-02 -9.968927e-01
    outer loop
      vertex   9.142000e+00  4.082600e+01  4.730000e+01
      vertex   1.276400e+01  6.270000e+01  4.897400e+01
      vertex   1.276800e+01  6.269800e+01  4.897400e+01
    endloop
  endfacet
  facet normal -4.366300e-02  8.341917e-02 -9.955575e-01
    outer loop
      vertex   1.276400e+01  6.270000e+01  4.897400e+01
      vertex   9.142000e+00  4.082600e+01  4.730000e+01
      vertex   8.458000e+00  4.082600e+01  4.733000e+01
    endloop
  endfacet
  facet normal  2.166199e-02  7.065506e-02 -9.972656e-01
    outer loop
      vertex   9.716001e+00  4.082600e+01  4.728200e+01
      vertex   1.605400e+01  6.169200e+01  4.889800e+01
      vertex   1.675200e+01  6.147800e+01  4.889800e+01
    endloop
  endfacet
  facet normal  2.153558e-02  7.069813e-02 -9.972653e-01
    outer loop
      vertex   9.716001e+00  4.082600e+01  4.728200e+01
      vertex   1.675200e+01  6.147800e+01  4.889800e+01
      vertex   1.840000e+01  6.097600e+01  4.889800e+01
    endloop
  endfacet
  facet normal  2.307870e-02  7.003383e-02 -9.972776e-01
    outer loop
      vertex   9.716001e+00  4.082600e+01  4.728200e+01
      vertex   1.840000e+01  6.097600e+01  4.889800e+01
      vertex   1.875200e+01  6.086000e+01  4.889800e+01
    endloop
  endfacet
  facet normal  2.152828e-02  7.073280e-02 -9.972629e-01
    outer loop
      vertex   9.716001e+00  4.082600e+01  4.728200e+01
      vertex   1.875200e+01  6.086000e+01  4.889800e+01
      vertex   1.879800e+01  6.084600e+01  4.889800e+01
    endloop
  endfacet
  facet normal  3.372013e-02  6.737042e-02 -9.971581e-01
    outer loop
      vertex   1.118400e+01  4.082600e+01  4.728800e+01
      vertex   1.880000e+01  6.084600e+01  4.889800e+01
      vertex   1.880400e+01  6.084400e+01  4.889800e+01
    endloop
  endfacet
  facet normal  1.907106e-02  7.293572e-02 -9.971543e-01
    outer loop
      vertex   1.880000e+01  6.084600e+01  4.889800e+01
      vertex   1.118400e+01  4.082600e+01  4.728800e+01
      vertex   1.045200e+01  4.082600e+01  4.727400e+01
    endloop
  endfacet
  facet normal -8.109683e-03 -1.022468e-01  9.947260e-01
    outer loop
      vertex   1.884800e+01  6.096000e+01  4.987000e+01
      vertex   9.716001e+00  4.082600e+01  4.772600e+01
      vertex   1.045200e+01  4.082600e+01  4.773200e+01
    endloop
  endfacet
  facet normal -7.377292e-03 -1.025758e-01  9.946979e-01
    outer loop
      vertex   9.716001e+00  4.082600e+01  4.772600e+01
      vertex   1.884800e+01  6.096000e+01  4.987000e+01
      vertex   1.875600e+01  6.098600e+01  4.987200e+01
    endloop
  endfacet
  facet normal -1.071054e-01  7.470813e-02 -9.914369e-01
    outer loop
      vertex   6.118001e+00  6.448400e+01  4.936000e+01
      vertex   6.118001e+00  6.477600e+01  4.938200e+01
      vertex   6.160000e+00  6.473000e+01  4.937400e+01
    endloop
  endfacet
  facet normal -1.242049e-01  7.750157e-02 -9.892253e-01
    outer loop
      vertex   6.118001e+00  6.448400e+01  4.936000e+01
      vertex   6.160000e+00  6.473000e+01  4.937400e+01
      vertex   6.280000e+00  6.461600e+01  4.935000e+01
    endloop
  endfacet
  facet normal -1.291831e-01  8.369762e-02 -9.880822e-01
    outer loop
      vertex   6.118001e+00  6.448400e+01  4.936000e+01
      vertex   6.280000e+00  6.461600e+01  4.935000e+01
      vertex   6.552001e+00  6.454000e+01  4.930800e+01
    endloop
  endfacet
  facet normal  5.254969e-01 -1.751893e-01 -8.325634e-01
    outer loop
      vertex   1.208800e+01  4.082600e+01  4.739800e+01
      vertex   2.135200e+01  6.013600e+01  4.918200e+01
      vertex   2.160600e+01  6.009000e+01  4.935200e+01
    endloop
  endfacet
  facet normal  5.257264e-01 -1.753220e-01 -8.323904e-01
    outer loop
      vertex   1.208800e+01  4.082600e+01  4.739800e+01
      vertex   2.160600e+01  6.009000e+01  4.935200e+01
      vertex   2.165400e+01  6.008200e+01  4.938400e+01
    endloop
  endfacet
  facet normal -1.300127e-01  7.757065e-02 -9.884733e-01
    outer loop
      vertex   6.820000e+00  6.051400e+01  4.895800e+01
      vertex   6.128000e+00  4.082600e+01  4.750400e+01
      vertex   6.130000e+00  6.022400e+01  4.902600e+01
    endloop
  endfacet
  facet normal  2.865518e-02 -1.173602e-01  9.926760e-01
    outer loop
      vertex   1.045200e+01  4.082600e+01  4.773200e+01
      vertex   1.978800e+01  6.068200e+01  4.981000e+01
      vertex   1.884800e+01  6.096000e+01  4.987000e+01
    endloop
  endfacet
  facet normal  2.536864e-02  7.610335e-02 -9.967772e-01
    outer loop
      vertex   8.458000e+00  4.082600e+01  4.733000e+01
      vertex   9.452001e+00  6.370400e+01  4.910200e+01
      vertex   9.458000e+00  6.370200e+01  4.910200e+01
    endloop
  endfacet
  facet normal -4.848048e-02  7.922583e-02 -9.956771e-01
    outer loop
      vertex   9.452001e+00  6.370400e+01  4.910200e+01
      vertex   8.458000e+00  4.082600e+01  4.733000e+01
      vertex   7.390000e+00  4.082600e+01  4.738200e+01
    endloop
  endfacet
  facet normal -1.284437e-01  7.740138e-02 -9.886917e-01
    outer loop
      vertex   6.552001e+00  6.454000e+01  4.930800e+01
      vertex   6.820000e+00  6.051400e+01  4.895800e+01
      vertex   6.118001e+00  6.448400e+01  4.936000e+01
    endloop
  endfacet
  facet normal -1.267050e-01  7.753571e-02 -9.889054e-01
    outer loop
      vertex   6.552001e+00  6.454000e+01  4.930800e+01
      vertex   6.698000e+00  6.449800e+01  4.928600e+01
      vertex   6.820000e+00  6.051400e+01  4.895800e+01
    endloop
  endfacet
  facet normal -1.242790e-01  7.763470e-02 -9.892055e-01
    outer loop
      vertex   6.958000e+00  6.443000e+01  4.924800e+01
      vertex   6.820000e+00  6.051400e+01  4.895800e+01
      vertex   6.698000e+00  6.449800e+01  4.928600e+01
    endloop
  endfacet
  facet normal -1.324891e-01 -7.025179e-02  9.886917e-01
    outer loop
      vertex   9.452001e+00  6.370200e+01  4.965200e+01
      vertex   7.850000e+00  6.419000e+01  4.947200e+01
      vertex   7.176000e+00  5.262600e+01  4.856000e+01
    endloop
  endfacet
  facet normal -8.550834e-02 -8.033979e-02  9.930930e-01
    outer loop
      vertex   9.452001e+00  6.370200e+01  4.965200e+01
      vertex   7.176000e+00  5.262600e+01  4.856000e+01
      vertex   8.422000e+00  5.226400e+01  4.863800e+01
    endloop
  endfacet
  facet normal -8.550412e-02 -8.032500e-02  9.930947e-01
    outer loop
      vertex   8.422000e+00  5.226400e+01  4.863800e+01
      vertex   7.176000e+00  5.262600e+01  4.856000e+01
      vertex   7.390000e+00  4.082600e+01  4.762400e+01
    endloop
  endfacet
  facet normal -1.884748e-01 -7.379369e-02  9.793017e-01
    outer loop
      vertex   6.118001e+00  6.448400e+01  4.936000e+01
      vertex   6.156000e+00  6.473200e+01  4.938600e+01
      vertex   6.118001e+00  6.477600e+01  4.938200e+01
    endloop
  endfacet
  facet normal -1.550600e-01 -7.947982e-02  9.847026e-01
    outer loop
      vertex   6.118001e+00  6.448400e+01  4.936000e+01
      vertex   6.280000e+00  6.461401e+01  4.939600e+01
      vertex   6.156000e+00  6.473200e+01  4.938600e+01
    endloop
  endfacet
  facet normal -1.641311e-01 -6.800707e-02  9.840915e-01
    outer loop
      vertex   6.118001e+00  6.448400e+01  4.936000e+01
      vertex   6.402000e+00  6.458000e+01  4.941400e+01
      vertex   6.280000e+00  6.461401e+01  4.939600e+01
    endloop
  endfacet
  facet normal -1.632449e-01 -7.060853e-02  9.840556e-01
    outer loop
      vertex   6.118001e+00  6.448400e+01  4.936000e+01
      vertex   6.676000e+00  6.450401e+01  4.945400e+01
      vertex   6.402000e+00  6.458000e+01  4.941400e+01
    endloop
  endfacet
  facet normal -1.628904e-01 -7.810955e-02  9.835474e-01
    outer loop
      vertex   6.118001e+00  6.448400e+01  4.936000e+01
      vertex   6.704000e+00  6.449600e+01  4.945800e+01
      vertex   6.676000e+00  6.450401e+01  4.945400e+01
    endloop
  endfacet
  facet normal -1.634378e-01 -6.067579e-02  9.846860e-01
    outer loop
      vertex   6.118001e+00  6.448400e+01  4.936000e+01
      vertex   6.892000e+00  6.444400e+01  4.948600e+01
      vertex   6.704000e+00  6.449600e+01  4.945800e+01
    endloop
  endfacet
  facet normal -1.630433e-01 -5.112909e-02  9.852932e-01
    outer loop
      vertex   6.118001e+00  6.448400e+01  4.936000e+01
      vertex   6.932000e+00  6.443201e+01  4.949200e+01
      vertex   6.892000e+00  6.444400e+01  4.948600e+01
    endloop
  endfacet
  facet normal -1.644144e-01 -7.756040e-02  9.833373e-01
    outer loop
      vertex   6.932000e+00  6.443201e+01  4.949200e+01
      vertex   6.118001e+00  6.448400e+01  4.936000e+01
      vertex   6.130000e+00  6.022400e+01  4.902600e+01
    endloop
  endfacet
  facet normal -1.859999e-01 -7.636058e-02  9.795780e-01
    outer loop
      vertex   6.550000e+00  5.280600e+01  4.851800e+01
      vertex   6.128000e+00  4.082600e+01  4.750400e+01
      vertex   6.444000e+00  4.082600e+01  4.756400e+01
    endloop
  endfacet
  facet normal -4.952281e-02 -8.598461e-02  9.950649e-01
    outer loop
      vertex   1.607000e+01  6.174000e+01  4.986000e+01
      vertex   1.276800e+01  6.271600e+01  4.978000e+01
      vertex   9.142000e+00  4.082600e+01  4.770800e+01
    endloop
  endfacet
  facet normal -3.120634e-02 -9.207258e-02  9.952632e-01
    outer loop
      vertex   1.607000e+01  6.174000e+01  4.986000e+01
      vertex   9.142000e+00  4.082600e+01  4.770800e+01
      vertex   9.716001e+00  4.082600e+01  4.772600e+01
    endloop
  endfacet
  facet normal -4.365528e-02 -8.697442e-02  9.952536e-01
    outer loop
      vertex   1.276800e+01  6.271600e+01  4.978000e+01
      vertex   8.458000e+00  4.082600e+01  4.767800e+01
      vertex   9.142000e+00  4.082600e+01  4.770800e+01
    endloop
  endfacet
  facet normal -6.617328e-02 -8.245833e-02  9.943952e-01
    outer loop
      vertex   1.276800e+01  6.271600e+01  4.978000e+01
      vertex   1.214800e+01  6.290000e+01  4.975400e+01
      vertex   8.458000e+00  4.082600e+01  4.767800e+01
    endloop
  endfacet
endsolid vcg
