solid STL generated by MeshLab
  facet normal  1.238002e-01 -8.306658e-02  9.888242e-01
    outer loop
      vertex   6.053800e+01  4.333200e+01  5.028400e+01
      vertex   5.937200e+01  4.335600e+01  5.043200e+01
      vertex   5.591800e+01  3.451800e+01  5.012200e+01
    endloop
  endfacet
  facet normal  2.778333e-01 -6.860901e-02  9.581762e-01
    outer loop
      vertex   5.602600e+01  3.369800e+01  4.995400e+01
      vertex   5.548800e+01  3.369800e+01  5.011000e+01
      vertex   5.528600e+01  3.288000e+01  5.011000e+01
    endloop
  endfacet
  facet normal  2.255592e-01 -1.358313e-01  9.647139e-01
    outer loop
      vertex   6.516400e+01  5.213600e+01  5.044200e+01
      vertex   6.053800e+01  4.333200e+01  5.028400e+01
      vertex   6.131800e+01  4.329200e+01  5.009600e+01
    endloop
  endfacet
  facet normal  1.238084e-01 -8.280009e-02  9.888456e-01
    outer loop
      vertex   6.516400e+01  5.213600e+01  5.044200e+01
      vertex   5.937200e+01  4.335600e+01  5.043200e+01
      vertex   6.053800e+01  4.333200e+01  5.028400e+01
    endloop
  endfacet
  facet normal  5.649199e-01 -3.230055e-01  7.592977e-01
    outer loop
      vertex   6.131800e+01  4.329200e+01  5.009600e+01
      vertex   5.647600e+01  3.451800e+01  4.996600e+01
      vertex   5.672600e+01  3.451800e+01  4.978000e+01
    endloop
  endfacet
  facet normal  5.758051e-01 -3.331059e-01  7.466518e-01
    outer loop
      vertex   5.672600e+01  3.451800e+01  4.978000e+01
      vertex   5.602600e+01  3.369800e+01  4.995400e+01
      vertex   5.626200e+01  3.369800e+01  4.977200e+01
    endloop
  endfacet
  facet normal  5.758850e-01 -3.327356e-01  7.467554e-01
    outer loop
      vertex   5.579600e+01  3.287800e+01  4.976600e+01
      vertex   5.626200e+01  3.369800e+01  4.977200e+01
      vertex   5.602600e+01  3.369800e+01  4.995400e+01
    endloop
  endfacet
  facet normal  6.511540e-02 -5.404049e-02  9.964134e-01
    outer loop
      vertex   5.937200e+01  4.335600e+01  5.043200e+01
      vertex   5.346400e+01  3.450400e+01  5.033800e+01
      vertex   5.491400e+01  3.451800e+01  5.024400e+01
    endloop
  endfacet
  facet normal  7.685166e-01 -4.486615e-01  4.561635e-01
    outer loop
      vertex   6.678600e+01  5.198200e+01  4.994600e+01
      vertex   6.190200e+01  4.324200e+01  4.957800e+01
      vertex   6.699400e+01  5.195600e+01  4.957000e+01
    endloop
  endfacet
  facet normal  1.183035e-01 -2.921423e-02  9.925476e-01
    outer loop
      vertex   5.548800e+01  3.369800e+01  5.011000e+01
      vertex   5.449800e+01  3.369800e+01  5.022800e+01
      vertex   5.528600e+01  3.288000e+01  5.011000e+01
    endloop
  endfacet
  facet normal  2.892001e-01 -1.050775e-01 -9.514841e-01
    outer loop
      vertex   5.578800e+01  3.369800e+01  4.917200e+01
      vertex   5.478600e+01  3.287800e+01  4.895800e+01
      vertex   5.513000e+01  3.369800e+01  4.897200e+01
    endloop
  endfacet
  facet normal  2.006506e-01 -1.252695e-01  9.716207e-01
    outer loop
      vertex   6.616000e+01  5.205600e+01  5.022600e+01
      vertex   6.516400e+01  5.213600e+01  5.044200e+01
      vertex   6.131800e+01  4.329200e+01  5.009600e+01
    endloop
  endfacet
  facet normal  4.382278e-01 -2.603382e-01  8.603373e-01
    outer loop
      vertex   6.175600e+01  4.325600e+01  4.986200e+01
      vertex   6.131800e+01  4.329200e+01  5.009600e+01
      vertex   5.672600e+01  3.451800e+01  4.978000e+01
    endloop
  endfacet
  facet normal  1.239001e-01 -7.044376e-02  9.897912e-01
    outer loop
      vertex   5.937200e+01  4.335600e+01  5.043200e+01
      vertex   6.189200e+01  5.214400e+01  5.074200e+01
      vertex   6.187600e+01  5.214400e+01  5.074400e+01
    endloop
  endfacet
  facet normal  6.478221e-02 -5.383550e-02  9.964463e-01
    outer loop
      vertex   6.187600e+01  5.214400e+01  5.074400e+01
      vertex   5.769000e+01  4.336800e+01  5.054200e+01
      vertex   5.937200e+01  4.335600e+01  5.043200e+01
    endloop
  endfacet
  facet normal  8.100783e-01 -4.662893e-01  3.554538e-01
    outer loop
      vertex   5.672600e+01  3.451800e+01  4.978000e+01
      vertex   5.634000e+01  3.369800e+01  4.958400e+01
      vertex   5.681200e+01  3.451800e+01  4.958400e+01
    endloop
  endfacet
  facet normal  3.774373e-01 -2.271471e-01 -8.977445e-01
    outer loop
      vertex   6.173000e+01  4.325000e+01  4.929400e+01
      vertex   5.667000e+01  3.451800e+01  4.937600e+01
      vertex   6.121400e+01  4.327000e+01  4.907200e+01
    endloop
  endfacet
  facet normal  2.084223e-01 -1.226641e-01 -9.703163e-01
    outer loop
      vertex   6.519200e+01  5.207000e+01  4.881400e+01
      vertex   6.121400e+01  4.327000e+01  4.907200e+01
      vertex   6.038200e+01  4.329600e+01  4.889000e+01
    endloop
  endfacet
  facet normal  4.381321e-01 -2.608369e-01  8.602350e-01
    outer loop
      vertex   6.678600e+01  5.198200e+01  4.994600e+01
      vertex   6.131800e+01  4.329200e+01  5.009600e+01
      vertex   6.175600e+01  4.325600e+01  4.986200e+01
    endloop
  endfacet
  facet normal  2.657427e-01 -1.607358e-01  9.505498e-01
    outer loop
      vertex   6.131800e+01  4.329200e+01  5.009600e+01
      vertex   5.591800e+01  3.451800e+01  5.012200e+01
      vertex   5.647600e+01  3.451800e+01  4.996600e+01
    endloop
  endfacet
  facet normal  2.749878e-01 -1.580808e-01  9.483629e-01
    outer loop
      vertex   5.602600e+01  3.369800e+01  4.995400e+01
      vertex   5.591800e+01  3.451800e+01  5.012200e+01
      vertex   5.548800e+01  3.369800e+01  5.011000e+01
    endloop
  endfacet
  facet normal  6.478238e-02 -5.381858e-02  9.964471e-01
    outer loop
      vertex   5.937200e+01  4.335600e+01  5.043200e+01
      vertex   5.769000e+01  4.336800e+01  5.054200e+01
      vertex   5.346400e+01  3.450400e+01  5.033800e+01
    endloop
  endfacet
  facet normal  8.643942e-02 -5.381770e-02 -9.948024e-01
    outer loop
      vertex   5.926800e+01  4.331800e+01  4.872800e+01
      vertex   5.341400e+01  3.454400e+01  4.869400e+01
      vertex   5.766800e+01  4.333600e+01  4.858800e+01
    endloop
  endfacet
  facet normal  6.510577e-02 -5.247640e-02  9.964976e-01
    outer loop
      vertex   5.491400e+01  3.451800e+01  5.024400e+01
      vertex   5.346400e+01  3.450400e+01  5.033800e+01
      vertex   5.449800e+01  3.369800e+01  5.022800e+01
    endloop
  endfacet
  facet normal  1.696574e-01 -5.437300e-02 -9.840020e-01
    outer loop
      vertex   5.513000e+01  3.369800e+01  4.897200e+01
      vertex   5.478600e+01  3.287800e+01  4.895800e+01
      vertex   5.426000e+01  3.369800e+01  4.882200e+01
    endloop
  endfacet
  facet normal  1.330655e-01 -7.863443e-02 -9.879829e-01
    outer loop
      vertex   5.426000e+01  3.369800e+01  4.882200e+01
      vertex   5.431000e+01  3.287800e+01  4.889400e+01
      vertex   5.383600e+01  3.288000e+01  4.883000e+01
    endloop
  endfacet
  facet normal  1.328475e-01 -7.865018e-02 -9.880109e-01
    outer loop
      vertex   5.431000e+01  3.287800e+01  4.889400e+01
      vertex   5.426000e+01  3.369800e+01  4.882200e+01
      vertex   5.478600e+01  3.287800e+01  4.895800e+01
    endloop
  endfacet
  facet normal  9.398375e-02 -6.313778e-02 -9.935697e-01
    outer loop
      vertex   5.468400e+01  3.451800e+01  4.881000e+01
      vertex   5.426000e+01  3.369800e+01  4.882200e+01
      vertex   5.340600e+01  3.450400e+01  4.869000e+01
    endloop
  endfacet
  facet normal  6.341641e-02 -5.464261e-02  9.964901e-01
    outer loop
      vertex   5.449800e+01  3.369800e+01  5.022800e+01
      vertex   5.346400e+01  3.450400e+01  5.033800e+01
      vertex   5.307000e+01  3.368200e+01  5.031800e+01
    endloop
  endfacet
  facet normal  4.770594e-01 -2.722029e-01  8.356553e-01
    outer loop
      vertex   5.543200e+01  3.287800e+01  5.002600e+01
      vertex   5.602600e+01  3.369800e+01  4.995400e+01
      vertex   5.528600e+01  3.288000e+01  5.011000e+01
    endloop
  endfacet
  facet normal  4.961645e-01 -2.874827e-01  8.192524e-01
    outer loop
      vertex   5.602600e+01  3.369800e+01  4.995400e+01
      vertex   5.543200e+01  3.287800e+01  5.002600e+01
      vertex   5.557400e+01  3.287800e+01  4.994000e+01
    endloop
  endfacet
  facet normal  2.805023e-01 -1.665763e-01 -9.452887e-01
    outer loop
      vertex   5.624800e+01  3.451800e+01  4.916400e+01
      vertex   5.578800e+01  3.369800e+01  4.917200e+01
      vertex   5.557400e+01  3.451800e+01  4.896400e+01
    endloop
  endfacet
  facet normal  1.202384e-01 -8.030944e-02  9.894913e-01
    outer loop
      vertex   5.591800e+01  3.451800e+01  5.012200e+01
      vertex   5.491400e+01  3.451800e+01  5.024400e+01
      vertex   5.449800e+01  3.369800e+01  5.022800e+01
    endloop
  endfacet
  facet normal  3.333472e-01 -1.988951e-01 -9.215858e-01
    outer loop
      vertex   6.679200e+01  5.197000e+01  4.921200e+01
      vertex   6.121400e+01  4.327000e+01  4.907200e+01
      vertex   6.618000e+01  5.201000e+01  4.898200e+01
    endloop
  endfacet
  facet normal  9.270203e-02  5.772130e-02 -9.940194e-01
    outer loop
      vertex   5.340600e+01  3.450400e+01  4.869000e+01
      vertex   5.342400e+01  3.454400e+01  4.869400e+01
      vertex   5.468400e+01  3.451800e+01  4.881000e+01
    endloop
  endfacet
  facet normal  9.037523e-02 -5.634255e-02 -9.943127e-01
    outer loop
      vertex   5.926800e+01  4.331800e+01  4.872800e+01
      vertex   5.468400e+01  3.451800e+01  4.881000e+01
      vertex   5.342400e+01  3.454400e+01  4.869400e+01
    endloop
  endfacet
  facet normal  7.959267e-02 -6.197795e-02  9.948989e-01
    outer loop
      vertex   5.468600e+01  3.288000e+01  5.016200e+01
      vertex   5.449800e+01  3.369800e+01  5.022800e+01
      vertex   5.408600e+01  3.288000e+01  5.021000e+01
    endloop
  endfacet
  facet normal  8.618812e-02 -6.042549e-02  9.944448e-01
    outer loop
      vertex   5.449800e+01  3.369800e+01  5.022800e+01
      vertex   5.468600e+01  3.288000e+01  5.016200e+01
      vertex   5.528600e+01  3.288000e+01  5.011000e+01
    endloop
  endfacet
  facet normal  7.600893e-01 -4.456822e-01 -4.728970e-01
    outer loop
      vertex   6.679200e+01  5.197000e+01  4.921200e+01
      vertex   6.190200e+01  4.324200e+01  4.957800e+01
      vertex   6.173000e+01  4.325000e+01  4.929400e+01
    endloop
  endfacet
  facet normal  7.458931e-01 -4.293436e-01 -5.092226e-01
    outer loop
      vertex   5.681200e+01  3.451800e+01  4.958400e+01
      vertex   5.634000e+01  3.369800e+01  4.958400e+01
      vertex   5.667000e+01  3.451800e+01  4.937600e+01
    endloop
  endfacet
  facet normal  8.173310e-01 -4.657989e-01  3.391186e-01
    outer loop
      vertex   5.634000e+01  3.369800e+01  4.958400e+01
      vertex   5.672600e+01  3.451800e+01  4.978000e+01
      vertex   5.626200e+01  3.369800e+01  4.977200e+01
    endloop
  endfacet
  facet normal  8.168870e-01 -4.667109e-01  3.389344e-01
    outer loop
      vertex   5.626200e+01  3.369800e+01  4.977200e+01
      vertex   5.579600e+01  3.287800e+01  4.976600e+01
      vertex   5.634000e+01  3.369800e+01  4.958400e+01
    endloop
  endfacet
  facet normal  2.868470e-01 -1.645282e-01 -9.437422e-01
    outer loop
      vertex   5.578800e+01  3.369800e+01  4.917200e+01
      vertex   5.513000e+01  3.369800e+01  4.897200e+01
      vertex   5.557400e+01  3.451800e+01  4.896400e+01
    endloop
  endfacet
  facet normal  7.441647e-01 -4.333083e-01 -5.083923e-01
    outer loop
      vertex   5.634000e+01  3.369800e+01  4.958400e+01
      vertex   5.573000e+01  3.287800e+01  4.939000e+01
      vertex   5.620200e+01  3.369800e+01  4.938200e+01
    endloop
  endfacet
  facet normal  2.084399e-01 -1.223494e-01 -9.703522e-01
    outer loop
      vertex   6.121400e+01  4.327000e+01  4.907200e+01
      vertex   5.557400e+01  3.451800e+01  4.896400e+01
      vertex   6.038200e+01  4.329600e+01  4.889000e+01
    endloop
  endfacet
  facet normal  1.202249e-01 -8.168881e-02  9.893801e-01
    outer loop
      vertex   5.937200e+01  4.335600e+01  5.043200e+01
      vertex   5.491400e+01  3.451800e+01  5.024400e+01
      vertex   5.591800e+01  3.451800e+01  5.012200e+01
    endloop
  endfacet
  facet normal  2.657848e-01 -1.597717e-01  9.507005e-01
    outer loop
      vertex   5.647600e+01  3.451800e+01  4.996600e+01
      vertex   5.591800e+01  3.451800e+01  5.012200e+01
      vertex   5.602600e+01  3.369800e+01  4.995400e+01
    endloop
  endfacet
  facet normal  4.344067e-01 -2.521268e-01 -8.647097e-01
    outer loop
      vertex   5.667000e+01  3.451800e+01  4.937600e+01
      vertex   5.578800e+01  3.369800e+01  4.917200e+01
      vertex   5.624800e+01  3.451800e+01  4.916400e+01
    endloop
  endfacet
  facet normal  3.773907e-01 -2.275184e-01 -8.976701e-01
    outer loop
      vertex   6.679200e+01  5.197000e+01  4.921200e+01
      vertex   6.173000e+01  4.325000e+01  4.929400e+01
      vertex   6.121400e+01  4.327000e+01  4.907200e+01
    endloop
  endfacet
  facet normal  4.373172e-01 -2.558989e-01 -8.621308e-01
    outer loop
      vertex   5.667000e+01  3.451800e+01  4.937600e+01
      vertex   5.620200e+01  3.369800e+01  4.938200e+01
      vertex   5.578800e+01  3.369800e+01  4.917200e+01
    endloop
  endfacet
  facet normal  7.825608e-01 -4.551864e-01  4.247397e-01
    outer loop
      vertex   6.678600e+01  5.198200e+01  4.994600e+01
      vertex   6.175600e+01  4.325600e+01  4.986200e+01
      vertex   6.190200e+01  4.324200e+01  4.957800e+01
    endloop
  endfacet
  facet normal  9.951786e-02 -6.242133e-02 -9.930758e-01
    outer loop
      vertex   5.426000e+01  3.369800e+01  4.882200e+01
      vertex   5.322800e+01  3.288000e+01  4.877000e+01
      vertex   5.261800e+01  3.286200e+01  4.871000e+01
    endloop
  endfacet
  facet normal  9.802907e-02 -6.052617e-02 -9.933413e-01
    outer loop
      vertex   5.322800e+01  3.288000e+01  4.877000e+01
      vertex   5.426000e+01  3.369800e+01  4.882200e+01
      vertex   5.383600e+01  3.288000e+01  4.883000e+01
    endloop
  endfacet
  facet normal  1.612457e-01 -1.017271e-01 -9.816574e-01
    outer loop
      vertex   6.121400e+01  4.327000e+01  4.907200e+01
      vertex   6.527400e+01  5.206000e+01  4.882800e+01
      vertex   6.618000e+01  5.201000e+01  4.898200e+01
    endloop
  endfacet
  facet normal  1.556954e-01 -9.919551e-02 -9.828119e-01
    outer loop
      vertex   6.527400e+01  5.206000e+01  4.882800e+01
      vertex   6.121400e+01  4.327000e+01  4.907200e+01
      vertex   6.519200e+01  5.207000e+01  4.881400e+01
    endloop
  endfacet
  facet normal  5.869484e-02 -5.199751e-02  9.969209e-01
    outer loop
      vertex   5.937200e+01  4.335600e+01  5.043200e+01
      vertex   6.209400e+01  5.214200e+01  5.073000e+01
      vertex   6.189200e+01  5.214400e+01  5.074200e+01
    endloop
  endfacet
  facet normal  6.616343e-02 -5.429135e-02  9.963307e-01
    outer loop
      vertex   5.937200e+01  4.335600e+01  5.043200e+01
      vertex   6.381400e+01  5.214600e+01  5.061600e+01
      vertex   6.209400e+01  5.214200e+01  5.073000e+01
    endloop
  endfacet
  facet normal  5.749648e-01 -3.297161e-01  7.488009e-01
    outer loop
      vertex   5.568600e+01  3.287800e+01  4.985400e+01
      vertex   5.602600e+01  3.369800e+01  4.995400e+01
      vertex   5.557400e+01  3.287800e+01  4.994000e+01
    endloop
  endfacet
  facet normal  5.888427e-01 -3.339150e-01  7.360469e-01
    outer loop
      vertex   5.602600e+01  3.369800e+01  4.995400e+01
      vertex   5.568600e+01  3.287800e+01  4.985400e+01
      vertex   5.579600e+01  3.287800e+01  4.976600e+01
    endloop
  endfacet
  facet normal  5.652614e-01 -3.213244e-01  7.597567e-01
    outer loop
      vertex   5.672600e+01  3.451800e+01  4.978000e+01
      vertex   5.647600e+01  3.451800e+01  4.996600e+01
      vertex   5.602600e+01  3.369800e+01  4.995400e+01
    endloop
  endfacet
  facet normal  4.368401e-01 -2.598508e-01 -8.611901e-01
    outer loop
      vertex   5.620200e+01  3.369800e+01  4.938200e+01
      vertex   5.573000e+01  3.287800e+01  4.939000e+01
      vertex   5.578800e+01  3.369800e+01  4.917200e+01
    endloop
  endfacet
  facet normal  7.699583e-01 -4.503377e-01 -4.520620e-01
    outer loop
      vertex   6.679200e+01  5.197000e+01  4.921200e+01
      vertex   6.699400e+01  5.195600e+01  4.957000e+01
      vertex   6.190200e+01  4.324200e+01  4.957800e+01
    endloop
  endfacet
  facet normal  8.159655e-01 -4.696780e-01  3.370505e-01
    outer loop
      vertex   5.634000e+01  3.369800e+01  4.958400e+01
      vertex   5.583000e+01  3.287800e+01  4.967600e+01
      vertex   5.586800e+01  3.287800e+01  4.958400e+01
    endloop
  endfacet
  facet normal  7.210720e-01 -3.837512e-01  5.768796e-01
    outer loop
      vertex   5.583000e+01  3.287800e+01  4.967600e+01
      vertex   5.634000e+01  3.369800e+01  4.958400e+01
      vertex   5.579000e+01  3.287800e+01  4.972600e+01
    endloop
  endfacet
  facet normal  8.143518e-01 -5.673692e-01 -1.221605e-01
    outer loop
      vertex   5.579000e+01  3.287800e+01  4.972600e+01
      vertex   5.634000e+01  3.369800e+01  4.958400e+01
      vertex   5.579600e+01  3.287800e+01  4.976600e+01
    endloop
  endfacet
  facet normal  1.696094e-01 -1.020463e-01 -9.802138e-01
    outer loop
      vertex   5.557400e+01  3.451800e+01  4.896400e+01
      vertex   5.426000e+01  3.369800e+01  4.882200e+01
      vertex   5.468400e+01  3.451800e+01  4.881000e+01
    endloop
  endfacet
  facet normal  7.457314e-01 -4.293395e-01 -5.094628e-01
    outer loop
      vertex   5.667000e+01  3.451800e+01  4.937600e+01
      vertex   5.634000e+01  3.369800e+01  4.958400e+01
      vertex   5.620200e+01  3.369800e+01  4.938200e+01
    endloop
  endfacet
  facet normal  1.267402e-01 -8.473575e-02  9.883101e-01
    outer loop
      vertex   5.937200e+01  4.335600e+01  5.043200e+01
      vertex   6.476801e+01  5.215000e+01  5.049400e+01
      vertex   6.381400e+01  5.214600e+01  5.061600e+01
    endloop
  endfacet
  facet normal  1.267865e-01 -8.476412e-02  9.883017e-01
    outer loop
      vertex   5.937200e+01  4.335600e+01  5.043200e+01
      vertex   6.516400e+01  5.213600e+01  5.044200e+01
      vertex   6.476801e+01  5.215000e+01  5.049400e+01
    endloop
  endfacet
  facet normal  1.180083e-01 -7.637260e-02  9.900714e-01
    outer loop
      vertex   5.591800e+01  3.451800e+01  5.012200e+01
      vertex   5.449800e+01  3.369800e+01  5.022800e+01
      vertex   5.548800e+01  3.369800e+01  5.011000e+01
    endloop
  endfacet
  facet normal  7.828297e-01 -4.546205e-01  4.248505e-01
    outer loop
      vertex   6.175600e+01  4.325600e+01  4.986200e+01
      vertex   5.672600e+01  3.451800e+01  4.978000e+01
      vertex   6.190200e+01  4.324200e+01  4.957800e+01
    endloop
  endfacet
  facet normal  3.736380e-01 -2.214993e-01 -9.007401e-01
    outer loop
      vertex   5.578800e+01  3.369800e+01  4.917200e+01
      vertex   5.505600e+01  3.287800e+01  4.907000e+01
      vertex   5.478600e+01  3.287800e+01  4.895800e+01
    endloop
  endfacet
  facet normal  3.683610e-01 -2.163637e-01 -9.041554e-01
    outer loop
      vertex   5.505600e+01  3.287800e+01  4.907000e+01
      vertex   5.578800e+01  3.369800e+01  4.917200e+01
      vertex   5.532600e+01  3.287800e+01  4.918000e+01
    endloop
  endfacet
  facet normal  1.690383e-01 -1.010970e-01 -9.804109e-01
    outer loop
      vertex   5.557400e+01  3.451800e+01  4.896400e+01
      vertex   5.513000e+01  3.369800e+01  4.897200e+01
      vertex   5.426000e+01  3.369800e+01  4.882200e+01
    endloop
  endfacet
  facet normal  1.234538e-01 -7.383826e-02 -9.895995e-01
    outer loop
      vertex   6.519200e+01  5.207000e+01  4.881400e+01
      vertex   5.926800e+01  4.331800e+01  4.872800e+01
      vertex   6.385200e+01  5.210800e+01  4.864400e+01
    endloop
  endfacet
  facet normal  8.077669e-01 -4.710462e-01  3.544404e-01
    outer loop
      vertex   6.190200e+01  4.324200e+01  4.957800e+01
      vertex   5.672600e+01  3.451800e+01  4.978000e+01
      vertex   5.681200e+01  3.451800e+01  4.958400e+01
    endloop
  endfacet
  facet normal  2.255491e-01 -1.359565e-01  9.646986e-01
    outer loop
      vertex   6.131800e+01  4.329200e+01  5.009600e+01
      vertex   6.053800e+01  4.333200e+01  5.028400e+01
      vertex   5.591800e+01  3.451800e+01  5.012200e+01
    endloop
  endfacet
  facet normal  6.368949e-02 -5.506270e-02  9.964496e-01
    outer loop
      vertex   5.338400e+01  3.288000e+01  5.025400e+01
      vertex   5.449800e+01  3.369800e+01  5.022800e+01
      vertex   5.268000e+01  3.286200e+01  5.029800e+01
    endloop
  endfacet
  facet normal  6.246430e-02 -5.338882e-02  9.966182e-01
    outer loop
      vertex   5.449800e+01  3.369800e+01  5.022800e+01
      vertex   5.338400e+01  3.288000e+01  5.025400e+01
      vertex   5.408600e+01  3.288000e+01  5.021000e+01
    endloop
  endfacet
  facet normal  7.439022e-01 -4.343776e-01 -5.078636e-01
    outer loop
      vertex   6.190200e+01  4.324200e+01  4.957800e+01
      vertex   5.681200e+01  3.451800e+01  4.958400e+01
      vertex   5.667000e+01  3.451800e+01  4.937600e+01
    endloop
  endfacet
  facet normal  9.611544e-02 -5.537285e-02 -9.938288e-01
    outer loop
      vertex   5.324400e+01  3.416000e+01  4.869800e+01
      vertex   5.426000e+01  3.369800e+01  4.882200e+01
      vertex   5.301000e+01  3.368200e+01  4.870200e+01
    endloop
  endfacet
  facet normal  9.122866e-02 -6.606781e-02 -9.936360e-01
    outer loop
      vertex   5.426000e+01  3.369800e+01  4.882200e+01
      vertex   5.324400e+01  3.416000e+01  4.869800e+01
      vertex   5.340600e+01  3.450400e+01  4.869000e+01
    endloop
  endfacet
  facet normal  4.340266e-01 -2.553543e-01 -8.639532e-01
    outer loop
      vertex   6.121400e+01  4.327000e+01  4.907200e+01
      vertex   5.667000e+01  3.451800e+01  4.937600e+01
      vertex   5.624800e+01  3.451800e+01  4.916400e+01
    endloop
  endfacet
  facet normal  3.762719e-01 -2.212313e-01  8.997089e-01
    outer loop
      vertex   6.678600e+01  5.198200e+01  4.994600e+01
      vertex   6.616000e+01  5.205600e+01  5.022600e+01
      vertex   6.131800e+01  4.329200e+01  5.009600e+01
    endloop
  endfacet
  facet normal  1.417157e-01 -8.593569e-02 -9.861702e-01
    outer loop
      vertex   6.038200e+01  4.329600e+01  4.889000e+01
      vertex   5.557400e+01  3.451800e+01  4.896400e+01
      vertex   5.926800e+01  4.331800e+01  4.872800e+01
    endloop
  endfacet
  facet normal  1.417064e-01 -8.622686e-02 -9.861461e-01
    outer loop
      vertex   6.519200e+01  5.207000e+01  4.881400e+01
      vertex   6.038200e+01  4.329600e+01  4.889000e+01
      vertex   5.926800e+01  4.331800e+01  4.872800e+01
    endloop
  endfacet
  facet normal  8.643997e-02 -5.378303e-02 -9.948043e-01
    outer loop
      vertex   5.786400e+01  4.376200e+01  4.858200e+01
      vertex   5.926800e+01  4.331800e+01  4.872800e+01
      vertex   5.766800e+01  4.333600e+01  4.858800e+01
    endloop
  endfacet
  facet normal  8.625182e-02 -5.437279e-02 -9.947885e-01
    outer loop
      vertex   5.926800e+01  4.331800e+01  4.872800e+01
      vertex   5.786400e+01  4.376200e+01  4.858200e+01
      vertex   5.828200e+01  4.460800e+01  4.857200e+01
    endloop
  endfacet
  facet normal  8.720741e-02 -5.363716e-02 -9.947451e-01
    outer loop
      vertex   5.926800e+01  4.331800e+01  4.872800e+01
      vertex   5.828200e+01  4.460800e+01  4.857200e+01
      vertex   6.192800e+01  5.216800e+01  4.848400e+01
    endloop
  endfacet
  facet normal  1.696867e-01 -9.752939e-02 -9.806602e-01
    outer loop
      vertex   5.926800e+01  4.331800e+01  4.872800e+01
      vertex   5.557400e+01  3.451800e+01  4.896400e+01
      vertex   5.468400e+01  3.451800e+01  4.881000e+01
    endloop
  endfacet
  facet normal  6.341501e-02 -5.446158e-02  9.965001e-01
    outer loop
      vertex   5.449800e+01  3.369800e+01  5.022800e+01
      vertex   5.307000e+01  3.368200e+01  5.031800e+01
      vertex   5.268000e+01  3.286200e+01  5.029800e+01
    endloop
  endfacet
  facet normal  2.803836e-01 -1.690260e-01 -9.448890e-01
    outer loop
      vertex   6.121400e+01  4.327000e+01  4.907200e+01
      vertex   5.624800e+01  3.451800e+01  4.916400e+01
      vertex   5.557400e+01  3.451800e+01  4.896400e+01
    endloop
  endfacet
  facet normal  8.115701e-02 -5.183537e-02 -9.953525e-01
    outer loop
      vertex   6.385200e+01  5.210800e+01  4.864400e+01
      vertex   5.926800e+01  4.331800e+01  4.872800e+01
      vertex   6.192800e+01  5.216800e+01  4.848400e+01
    endloop
  endfacet
  facet normal  4.485461e-01 -2.610592e-01 -8.547833e-01
    outer loop
      vertex   5.578800e+01  3.369800e+01  4.917200e+01
      vertex   5.552800e+01  3.287800e+01  4.928600e+01
      vertex   5.532600e+01  3.287800e+01  4.918000e+01
    endloop
  endfacet
  facet normal  4.420613e-01 -2.595360e-01 -8.586169e-01
    outer loop
      vertex   5.552800e+01  3.287800e+01  4.928600e+01
      vertex   5.578800e+01  3.369800e+01  4.917200e+01
      vertex   5.573000e+01  3.287800e+01  4.939000e+01
    endloop
  endfacet
  facet normal  9.611743e-02 -5.564368e-02 -9.938135e-01
    outer loop
      vertex   5.426000e+01  3.369800e+01  4.882200e+01
      vertex   5.261800e+01  3.286200e+01  4.871000e+01
      vertex   5.301000e+01  3.368200e+01  4.870200e+01
    endloop
  endfacet
  facet normal  7.448723e-01 -4.342760e-01 -5.065269e-01
    outer loop
      vertex   5.634000e+01  3.369800e+01  4.958400e+01
      vertex   5.579800e+01  3.287800e+01  4.949000e+01
      vertex   5.573000e+01  3.287800e+01  4.939000e+01
    endloop
  endfacet
  facet normal  7.281927e-01 -4.191551e-01 -5.422586e-01
    outer loop
      vertex   5.579800e+01  3.287800e+01  4.949000e+01
      vertex   5.634000e+01  3.369800e+01  4.958400e+01
      vertex   5.586800e+01  3.287800e+01  4.958400e+01
    endloop
  endfacet
  facet normal  7.603637e-01 -4.450562e-01 -4.730456e-01
    outer loop
      vertex   6.173000e+01  4.325000e+01  4.929400e+01
      vertex   6.190200e+01  4.324200e+01  4.957800e+01
      vertex   5.667000e+01  3.451800e+01  4.937600e+01
    endloop
  endfacet
endsolid vcg
