solid STL generated by MeshLab
  facet normal  1.722529e-01  5.251746e-02 -9.836518e-01
    outer loop
      vertex   5.513000e+01  9.608601e+01  4.897200e+01
      vertex   5.426200e+01  9.608601e+01  4.882000e+01
      vertex   5.478800e+01  9.690800e+01  4.895600e+01
    endloop
  endfacet
  facet normal  1.281581e-01  7.609906e-02 -9.888299e-01
    outer loop
      vertex   5.431400e+01  9.690800e+01  4.889000e+01
      vertex   5.426200e+01  9.608601e+01  4.882000e+01
      vertex   5.383800e+01  9.690401e+01  4.882800e+01
    endloop
  endfacet
  facet normal  1.375138e-01  7.540463e-02 -9.876255e-01
    outer loop
      vertex   5.426200e+01  9.608601e+01  4.882000e+01
      vertex   5.431400e+01  9.690800e+01  4.889000e+01
      vertex   5.478800e+01  9.690800e+01  4.895600e+01
    endloop
  endfacet
  facet normal  9.536756e-02  6.143099e-02 -9.935449e-01
    outer loop
      vertex   5.468600e+01  9.526601e+01  4.881000e+01
      vertex   5.340600e+01  9.528001e+01  4.868800e+01
      vertex   5.426200e+01  9.608601e+01  4.882000e+01
    endloop
  endfacet
  facet normal  6.479057e-02  5.272111e-02  9.965053e-01
    outer loop
      vertex   5.450200e+01  9.608601e+01  5.022600e+01
      vertex   5.307400e+01  9.610201e+01  5.031800e+01
      vertex   5.346600e+01  9.528001e+01  5.033600e+01
    endloop
  endfacet
  facet normal  4.360422e-01  2.519737e-01 -8.639308e-01
    outer loop
      vertex   5.667200e+01  9.526601e+01  4.937600e+01
      vertex   5.624800e+01  9.526601e+01  4.916200e+01
      vertex   5.579000e+01  9.608601e+01  4.917000e+01
    endloop
  endfacet
  facet normal  3.333618e-01  1.987818e-01 -9.216049e-01
    outer loop
      vertex   6.679200e+01  7.781200e+01  4.921200e+01
      vertex   6.618000e+01  7.777200e+01  4.898200e+01
      vertex   6.121600e+01  8.651401e+01  4.907200e+01
    endloop
  endfacet
  facet normal  5.723913e-01  3.304034e-01  7.504676e-01
    outer loop
      vertex   5.626200e+01  9.608601e+01  4.977200e+01
      vertex   5.579800e+01  9.690800e+01  4.976400e+01
      vertex   5.602600e+01  9.608601e+01  4.995200e+01
    endloop
  endfacet
  facet normal  7.436113e-01  4.292821e-01 -5.126004e-01
    outer loop
      vertex   5.634200e+01  9.608601e+01  4.958400e+01
      vertex   5.681400e+01  9.526601e+01  4.958200e+01
      vertex   5.667200e+01  9.526601e+01  4.937600e+01
    endloop
  endfacet
  facet normal  8.133630e-01  4.675911e-01  3.461203e-01
    outer loop
      vertex   5.626200e+01  9.608601e+01  4.977200e+01
      vertex   5.673000e+01  9.526601e+01  4.978000e+01
      vertex   5.634200e+01  9.608601e+01  4.958400e+01
    endloop
  endfacet
  facet normal  1.204533e-01  8.253230e-02  9.892823e-01
    outer loop
      vertex   5.591800e+01  9.526601e+01  5.012200e+01
      vertex   5.450200e+01  9.608601e+01  5.022600e+01
      vertex   5.491600e+01  9.526601e+01  5.024400e+01
    endloop
  endfacet
  facet normal  2.780200e-01  1.645168e-01 -9.463821e-01
    outer loop
      vertex   5.624800e+01  9.526601e+01  4.916200e+01
      vertex   5.557400e+01  9.526601e+01  4.896400e+01
      vertex   5.579000e+01  9.608601e+01  4.917000e+01
    endloop
  endfacet
  facet normal  4.781051e-01  2.711565e-01  8.353980e-01
    outer loop
      vertex   5.602600e+01  9.608601e+01  4.995200e+01
      vertex   5.543400e+01  9.690800e+01  5.002400e+01
      vertex   5.528600e+01  9.690401e+01  5.011000e+01
    endloop
  endfacet
  facet normal  4.964269e-01  2.857261e-01  8.197078e-01
    outer loop
      vertex   5.543400e+01  9.690800e+01  5.002400e+01
      vertex   5.602600e+01  9.608601e+01  4.995200e+01
      vertex   5.557600e+01  9.690800e+01  4.993800e+01
    endloop
  endfacet
  facet normal  2.679732e-01  1.616092e-01  9.497752e-01
    outer loop
      vertex   5.647800e+01  9.526601e+01  4.996400e+01
      vertex   5.602600e+01  9.608601e+01  4.995200e+01
      vertex   5.591800e+01  9.526601e+01  5.012200e+01
    endloop
  endfacet
  facet normal  9.378701e-02 -7.576239e-02 -9.927055e-01
    outer loop
      vertex   5.468600e+01  9.526601e+01  4.881000e+01
      vertex   5.341600e+01  9.524001e+01  4.869200e+01
      vertex   5.340600e+01  9.528001e+01  4.868800e+01
    endloop
  endfacet
  facet normal  9.121340e-02  5.677823e-02 -9.942114e-01
    outer loop
      vertex   5.341600e+01  9.524001e+01  4.869200e+01
      vertex   5.468600e+01  9.526601e+01  4.881000e+01
      vertex   5.927000e+01  8.646600e+01  4.872800e+01
    endloop
  endfacet
  facet normal  7.959074e-02  6.236580e-02  9.948748e-01
    outer loop
      vertex   5.450200e+01  9.608601e+01  5.022600e+01
      vertex   5.468600e+01  9.690401e+01  5.016000e+01
      vertex   5.408600e+01  9.690401e+01  5.020800e+01
    endloop
  endfacet
  facet normal  8.289246e-02  6.160520e-02  9.946525e-01
    outer loop
      vertex   5.468600e+01  9.690401e+01  5.016000e+01
      vertex   5.450200e+01  9.608601e+01  5.022600e+01
      vertex   5.528600e+01  9.690401e+01  5.011000e+01
    endloop
  endfacet
  facet normal  1.236665e-01  7.396562e-02 -9.895634e-01
    outer loop
      vertex   6.519400e+01  7.771201e+01  4.881400e+01
      vertex   6.385400e+01  7.767800e+01  4.864400e+01
      vertex   5.927000e+01  8.646600e+01  4.872800e+01
    endloop
  endfacet
  facet normal  1.204628e-01  8.157574e-02  9.893605e-01
    outer loop
      vertex   5.937200e+01  8.643000e+01  5.043000e+01
      vertex   5.591800e+01  9.526601e+01  5.012200e+01
      vertex   5.491600e+01  9.526601e+01  5.024400e+01
    endloop
  endfacet
  facet normal  3.785549e-01  2.281358e-01 -8.970230e-01
    outer loop
      vertex   6.679200e+01  7.781200e+01  4.921200e+01
      vertex   6.121600e+01  8.651401e+01  4.907200e+01
      vertex   6.173000e+01  8.653400e+01  4.929400e+01
    endloop
  endfacet
  facet normal  7.817582e-01  4.546393e-01  4.267989e-01
    outer loop
      vertex   6.190400e+01  8.654201e+01  4.957600e+01
      vertex   6.175600e+01  8.652801e+01  4.986200e+01
      vertex   6.678600e+01  7.780000e+01  4.994600e+01
    endloop
  endfacet
  facet normal  5.753959e-01  3.277584e-01  7.493290e-01
    outer loop
      vertex   5.602600e+01  9.608601e+01  4.995200e+01
      vertex   5.568800e+01  9.690800e+01  4.985200e+01
      vertex   5.557600e+01  9.690800e+01  4.993800e+01
    endloop
  endfacet
  facet normal  5.892681e-01  3.319153e-01  7.366107e-01
    outer loop
      vertex   5.568800e+01  9.690800e+01  4.985200e+01
      vertex   5.602600e+01  9.608601e+01  4.995200e+01
      vertex   5.579800e+01  9.690800e+01  4.976400e+01
    endloop
  endfacet
  facet normal  2.835149e-01  1.627369e-01 -9.450588e-01
    outer loop
      vertex   5.579000e+01  9.608601e+01  4.917000e+01
      vertex   5.557400e+01  9.526601e+01  4.896400e+01
      vertex   5.513000e+01  9.608601e+01  4.897200e+01
    endloop
  endfacet
  facet normal  7.569456e-01  4.438187e-01 -4.796441e-01
    outer loop
      vertex   6.190400e+01  8.654201e+01  4.957600e+01
      vertex   6.679200e+01  7.781200e+01  4.921200e+01
      vertex   6.173000e+01  8.653400e+01  4.929400e+01
    endloop
  endfacet
  facet normal  2.079768e-01  1.220969e-01 -9.704834e-01
    outer loop
      vertex   6.121600e+01  8.651401e+01  4.907200e+01
      vertex   6.038200e+01  8.648801e+01  4.889000e+01
      vertex   5.557400e+01  9.526601e+01  4.896400e+01
    endloop
  endfacet
  facet normal  1.700178e-01  9.986988e-02 -9.803673e-01
    outer loop
      vertex   5.557400e+01  9.526601e+01  4.896400e+01
      vertex   5.468600e+01  9.526601e+01  4.881000e+01
      vertex   5.426200e+01  9.608601e+01  4.882000e+01
    endloop
  endfacet
  facet normal  5.818055e-02  5.206592e-02  9.969474e-01
    outer loop
      vertex   6.209400e+01  7.764400e+01  5.073000e+01
      vertex   5.937200e+01  8.643000e+01  5.043000e+01
      vertex   6.189200e+01  7.764001e+01  5.074200e+01
    endloop
  endfacet
  facet normal  6.737892e-02  5.489071e-02  9.962164e-01
    outer loop
      vertex   6.381400e+01  7.763800e+01  5.061400e+01
      vertex   5.937200e+01  8.643000e+01  5.043000e+01
      vertex   6.209400e+01  7.764400e+01  5.073000e+01
    endloop
  endfacet
  facet normal  4.418642e-01  2.595461e-01 -8.587152e-01
    outer loop
      vertex   5.667200e+01  9.526601e+01  4.937600e+01
      vertex   5.579000e+01  9.608601e+01  4.917000e+01
      vertex   5.620200e+01  9.608601e+01  4.938200e+01
    endloop
  endfacet
  facet normal  7.432365e-01  4.269173e-01 -5.151129e-01
    outer loop
      vertex   5.573400e+01  9.690800e+01  4.938800e+01
      vertex   5.634200e+01  9.608601e+01  4.958400e+01
      vertex   5.620200e+01  9.608601e+01  4.938200e+01
    endloop
  endfacet
  facet normal  9.951721e-02  6.242003e-02 -9.930760e-01
    outer loop
      vertex   5.323000e+01  9.690401e+01  4.876800e+01
      vertex   5.426200e+01  9.608601e+01  4.882000e+01
      vertex   5.262000e+01  9.692200e+01  4.870800e+01
    endloop
  endfacet
  facet normal  9.802967e-02  6.052648e-02 -9.933411e-01
    outer loop
      vertex   5.426200e+01  9.608601e+01  4.882000e+01
      vertex   5.323000e+01  9.690401e+01  4.876800e+01
      vertex   5.383800e+01  9.690401e+01  4.882800e+01
    endloop
  endfacet
  facet normal  1.715829e-01  1.024691e-01 -9.798262e-01
    outer loop
      vertex   5.557400e+01  9.526601e+01  4.896400e+01
      vertex   5.426200e+01  9.608601e+01  4.882000e+01
      vertex   5.513000e+01  9.608601e+01  4.897200e+01
    endloop
  endfacet
  facet normal  1.184560e-01  7.901639e-02  9.898104e-01
    outer loop
      vertex   5.591800e+01  9.526601e+01  5.012200e+01
      vertex   5.548800e+01  9.608601e+01  5.010800e+01
      vertex   5.450200e+01  9.608601e+01  5.022600e+01
    endloop
  endfacet
  facet normal  6.934705e-02  6.540166e-02  9.954464e-01
    outer loop
      vertex   5.450200e+01  9.608601e+01  5.022600e+01
      vertex   5.338600e+01  9.690401e+01  5.025000e+01
      vertex   5.268000e+01  9.692200e+01  5.029800e+01
    endloop
  endfacet
  facet normal  5.980984e-02  5.234924e-02  9.968362e-01
    outer loop
      vertex   5.338600e+01  9.690401e+01  5.025000e+01
      vertex   5.450200e+01  9.608601e+01  5.022600e+01
      vertex   5.408600e+01  9.690401e+01  5.020800e+01
    endloop
  endfacet
  facet normal  7.423303e-01  4.292447e-01 -5.144849e-01
    outer loop
      vertex   5.634200e+01  9.608601e+01  4.958400e+01
      vertex   5.667200e+01  9.526601e+01  4.937600e+01
      vertex   5.620200e+01  9.608601e+01  4.938200e+01
    endloop
  endfacet
  facet normal  1.255169e-01  8.410282e-02  9.885201e-01
    outer loop
      vertex   6.474600e+01  7.763400e+01  5.049600e+01
      vertex   5.937200e+01  8.643000e+01  5.043000e+01
      vertex   6.381400e+01  7.763800e+01  5.061400e+01
    endloop
  endfacet
  facet normal  1.245324e-01  8.350267e-02  9.886956e-01
    outer loop
      vertex   6.516400e+01  7.765000e+01  5.044200e+01
      vertex   5.937200e+01  8.643000e+01  5.043000e+01
      vertex   6.474600e+01  7.763400e+01  5.049600e+01
    endloop
  endfacet
  facet normal  8.110419e-02  5.181966e-02 -9.953576e-01
    outer loop
      vertex   6.385400e+01  7.767800e+01  4.864400e+01
      vertex   6.193000e+01  7.761600e+01  4.848400e+01
      vertex   5.927000e+01  8.646600e+01  4.872800e+01
    endloop
  endfacet
  facet normal  3.757935e-01  2.239772e-01 -8.992293e-01
    outer loop
      vertex   5.505600e+01  9.690800e+01  4.906800e+01
      vertex   5.579000e+01  9.608601e+01  4.917000e+01
      vertex   5.478800e+01  9.690800e+01  4.895600e+01
    endloop
  endfacet
  facet normal  3.640490e-01  2.125504e-01 -9.068024e-01
    outer loop
      vertex   5.579000e+01  9.608601e+01  4.917000e+01
      vertex   5.505600e+01  9.690800e+01  4.906800e+01
      vertex   5.533000e+01  9.690800e+01  4.917800e+01
    endloop
  endfacet
  facet normal  7.821210e-01  4.538741e-01  4.269486e-01
    outer loop
      vertex   5.673000e+01  9.526601e+01  4.978000e+01
      vertex   6.175600e+01  8.652801e+01  4.986200e+01
      vertex   6.190400e+01  8.654201e+01  4.957600e+01
    endloop
  endfacet
  facet normal  7.700964e-01  4.500347e-01 -4.521285e-01
    outer loop
      vertex   6.190400e+01  8.654201e+01  4.957600e+01
      vertex   6.699400e+01  7.782600e+01  4.957000e+01
      vertex   6.679200e+01  7.781200e+01  4.921200e+01
    endloop
  endfacet
  facet normal  8.110943e-01  4.729949e-01  3.440959e-01
    outer loop
      vertex   5.673000e+01  9.526601e+01  4.978000e+01
      vertex   6.190400e+01  8.654201e+01  4.957600e+01
      vertex   5.681400e+01  9.526601e+01  4.958200e+01
    endloop
  endfacet
  facet normal  5.588362e-01  3.192418e-01  7.653671e-01
    outer loop
      vertex   5.673000e+01  9.526601e+01  4.978000e+01
      vertex   5.602600e+01  9.608601e+01  4.995200e+01
      vertex   5.647800e+01  9.526601e+01  4.996400e+01
    endloop
  endfacet
  facet normal  4.420595e-01  2.579525e-01 -8.590948e-01
    outer loop
      vertex   5.620200e+01  9.608601e+01  4.938200e+01
      vertex   5.579000e+01  9.608601e+01  4.917000e+01
      vertex   5.573400e+01  9.690800e+01  4.938800e+01
    endloop
  endfacet
  facet normal  1.419514e-01  8.637346e-02 -9.860981e-01
    outer loop
      vertex   6.519400e+01  7.771201e+01  4.881400e+01
      vertex   5.927000e+01  8.646600e+01  4.872800e+01
      vertex   6.038200e+01  8.648801e+01  4.889000e+01
    endloop
  endfacet
  facet normal  1.534998e-01  9.819369e-02 -9.832577e-01
    outer loop
      vertex   6.121600e+01  8.651401e+01  4.907200e+01
      vertex   6.527600e+01  7.772401e+01  4.882800e+01
      vertex   6.519400e+01  7.771201e+01  4.881400e+01
    endloop
  endfacet
  facet normal  1.617945e-01  1.019773e-01 -9.815412e-01
    outer loop
      vertex   6.527600e+01  7.772401e+01  4.882800e+01
      vertex   6.121600e+01  8.651401e+01  4.907200e+01
      vertex   6.618000e+01  7.777200e+01  4.898200e+01
    endloop
  endfacet
  facet normal  8.143356e-01  4.676000e-01  3.438137e-01
    outer loop
      vertex   5.587000e+01  9.690800e+01  4.958400e+01
      vertex   5.583200e+01  9.690800e+01  4.967400e+01
      vertex   5.634200e+01  9.608601e+01  4.958400e+01
    endloop
  endfacet
  facet normal  8.225382e-01  4.763104e-01  3.107398e-01
    outer loop
      vertex   5.583200e+01  9.690800e+01  4.967400e+01
      vertex   5.579800e+01  9.690800e+01  4.976400e+01
      vertex   5.634200e+01  9.608601e+01  4.958400e+01
    endloop
  endfacet
  facet normal  2.233123e-01  1.345778e-01  9.654120e-01
    outer loop
      vertex   6.131800e+01  8.649200e+01  5.009600e+01
      vertex   5.591800e+01  9.526601e+01  5.012200e+01
      vertex   6.053800e+01  8.645200e+01  5.028200e+01
    endloop
  endfacet
  facet normal  1.419611e-01  8.606973e-02 -9.861233e-01
    outer loop
      vertex   6.038200e+01  8.648801e+01  4.889000e+01
      vertex   5.927000e+01  8.646600e+01  4.872800e+01
      vertex   5.557400e+01  9.526601e+01  4.896400e+01
    endloop
  endfacet
  facet normal  4.487599e-01  2.594529e-01 -8.551600e-01
    outer loop
      vertex   5.553200e+01  9.690800e+01  4.928400e+01
      vertex   5.579000e+01  9.608601e+01  4.917000e+01
      vertex   5.533000e+01  9.690800e+01  4.917800e+01
    endloop
  endfacet
  facet normal  4.422441e-01  2.579408e-01 -8.590033e-01
    outer loop
      vertex   5.579000e+01  9.608601e+01  4.917000e+01
      vertex   5.553200e+01  9.690800e+01  4.928400e+01
      vertex   5.573400e+01  9.690800e+01  4.938800e+01
    endloop
  endfacet
  facet normal  8.773111e-02  5.437455e-02 -9.946591e-01
    outer loop
      vertex   5.927000e+01  8.646600e+01  4.872800e+01
      vertex   5.786600e+01  8.602400e+01  4.858000e+01
      vertex   5.767000e+01  8.645000e+01  4.858600e+01
    endloop
  endfacet
  facet normal  8.758818e-02  5.482445e-02 -9.946470e-01
    outer loop
      vertex   5.786600e+01  8.602400e+01  4.858000e+01
      vertex   5.927000e+01  8.646600e+01  4.872800e+01
      vertex   5.828200e+01  8.517800e+01  4.857000e+01
    endloop
  endfacet
  facet normal  8.859143e-02  5.404918e-02 -9.946005e-01
    outer loop
      vertex   5.828200e+01  8.517800e+01  4.857000e+01
      vertex   5.927000e+01  8.646600e+01  4.872800e+01
      vertex   6.193000e+01  7.761600e+01  4.848400e+01
    endloop
  endfacet
  facet normal  7.420339e-01  4.332898e-01 -5.115130e-01
    outer loop
      vertex   5.681400e+01  9.526601e+01  4.958200e+01
      vertex   6.190400e+01  8.654201e+01  4.957600e+01
      vertex   5.667200e+01  9.526601e+01  4.937600e+01
    endloop
  endfacet
  facet normal  3.768123e-01  2.215255e-01  8.994104e-01
    outer loop
      vertex   6.678600e+01  7.780000e+01  4.994600e+01
      vertex   6.131800e+01  8.649200e+01  5.009600e+01
      vertex   6.616000e+01  7.772800e+01  5.022600e+01
    endloop
  endfacet
  facet normal  8.137583e-01  4.675644e-01  3.452260e-01
    outer loop
      vertex   5.634200e+01  9.608601e+01  4.958400e+01
      vertex   5.673000e+01  9.526601e+01  4.978000e+01
      vertex   5.681400e+01  9.526601e+01  4.958200e+01
    endloop
  endfacet
  facet normal  9.627558e-02  5.595872e-02 -9.937805e-01
    outer loop
      vertex   5.426200e+01  9.608601e+01  4.882000e+01
      vertex   5.301400e+01  9.610201e+01  4.870000e+01
      vertex   5.262000e+01  9.692200e+01  4.870800e+01
    endloop
  endfacet
  facet normal  1.700543e-01  9.772013e-02 -9.805775e-01
    outer loop
      vertex   5.927000e+01  8.646600e+01  4.872800e+01
      vertex   5.468600e+01  9.526601e+01  4.881000e+01
      vertex   5.557400e+01  9.526601e+01  4.896400e+01
    endloop
  endfacet
  facet normal  6.481142e-02  5.543819e-02  9.963564e-01
    outer loop
      vertex   5.450200e+01  9.608601e+01  5.022600e+01
      vertex   5.268000e+01  9.692200e+01  5.029800e+01
      vertex   5.307400e+01  9.610201e+01  5.031800e+01
    endloop
  endfacet
  facet normal  7.572412e-01  4.431369e-01 -4.798077e-01
    outer loop
      vertex   5.667200e+01  9.526601e+01  4.937600e+01
      vertex   6.190400e+01  8.654201e+01  4.957600e+01
      vertex   6.173000e+01  8.653400e+01  4.929400e+01
    endloop
  endfacet
  facet normal  9.626878e-02  5.503666e-02 -9.938326e-01
    outer loop
      vertex   5.426200e+01  9.608601e+01  4.882000e+01
      vertex   5.324600e+01  9.562401e+01  4.869600e+01
      vertex   5.301400e+01  9.610201e+01  4.870000e+01
    endloop
  endfacet
  facet normal  9.142860e-02  6.563094e-02 -9.936465e-01
    outer loop
      vertex   5.324600e+01  9.562401e+01  4.869600e+01
      vertex   5.426200e+01  9.608601e+01  4.882000e+01
      vertex   5.340600e+01  9.528001e+01  4.868800e+01
    endloop
  endfacet
  facet normal  6.477793e-02  5.404826e-02  9.964350e-01
    outer loop
      vertex   5.769000e+01  8.641801e+01  5.054000e+01
      vertex   6.187600e+01  7.764001e+01  5.074400e+01
      vertex   5.937200e+01  8.643000e+01  5.043000e+01
    endloop
  endfacet
  facet normal  2.778802e-01  1.674636e-01 -9.459062e-01
    outer loop
      vertex   6.121600e+01  8.651401e+01  4.907200e+01
      vertex   5.557400e+01  9.526601e+01  4.896400e+01
      vertex   5.624800e+01  9.526601e+01  4.916200e+01
    endloop
  endfacet
  facet normal  4.355524e-01  2.561120e-01 -8.629604e-01
    outer loop
      vertex   6.121600e+01  8.651401e+01  4.907200e+01
      vertex   5.624800e+01  9.526601e+01  4.916200e+01
      vertex   5.667200e+01  9.526601e+01  4.937600e+01
    endloop
  endfacet
  facet normal  4.381425e-01  2.607831e-01  8.602461e-01
    outer loop
      vertex   6.678600e+01  7.780000e+01  4.994600e+01
      vertex   6.175600e+01  8.652801e+01  4.986200e+01
      vertex   6.131800e+01  8.649200e+01  5.009600e+01
    endloop
  endfacet
  facet normal  8.152992e-01  4.635916e-01  3.469442e-01
    outer loop
      vertex   5.579800e+01  9.690800e+01  4.976400e+01
      vertex   5.626200e+01  9.608601e+01  4.977200e+01
      vertex   5.634200e+01  9.608601e+01  4.958400e+01
    endloop
  endfacet
  facet normal  7.389269e-01  4.242995e-01 -5.234089e-01
    outer loop
      vertex   5.634200e+01  9.608601e+01  4.958400e+01
      vertex   5.580200e+01  9.690800e+01  4.948800e+01
      vertex   5.587000e+01  9.690800e+01  4.958400e+01
    endloop
  endfacet
  facet normal  7.462022e-01  4.309472e-01 -5.074118e-01
    outer loop
      vertex   5.580200e+01  9.690800e+01  4.948800e+01
      vertex   5.634200e+01  9.608601e+01  4.958400e+01
      vertex   5.573400e+01  9.690800e+01  4.938800e+01
    endloop
  endfacet
  facet normal  6.374754e-02  5.406116e-02  9.965007e-01
    outer loop
      vertex   5.491600e+01  9.526601e+01  5.024400e+01
      vertex   5.450200e+01  9.608601e+01  5.022600e+01
      vertex   5.346600e+01  9.528001e+01  5.033600e+01
    endloop
  endfacet
  facet normal  3.786058e-01  2.277316e-01 -8.971043e-01
    outer loop
      vertex   6.173000e+01  8.653400e+01  4.929400e+01
      vertex   6.121600e+01  8.651401e+01  4.907200e+01
      vertex   5.667200e+01  9.526601e+01  4.937600e+01
    endloop
  endfacet
  facet normal  2.008780e-01  1.253942e-01  9.715577e-01
    outer loop
      vertex   6.616000e+01  7.772800e+01  5.022600e+01
      vertex   6.131800e+01  8.649200e+01  5.009600e+01
      vertex   6.516400e+01  7.765000e+01  5.044200e+01
    endloop
  endfacet
  facet normal  1.187845e-01  2.690757e-02  9.925553e-01
    outer loop
      vertex   5.548800e+01  9.608601e+01  5.010800e+01
      vertex   5.528600e+01  9.690401e+01  5.011000e+01
      vertex   5.450200e+01  9.608601e+01  5.022600e+01
    endloop
  endfacet
  facet normal  2.858936e-01  1.003955e-01 -9.529877e-01
    outer loop
      vertex   5.579000e+01  9.608601e+01  4.917000e+01
      vertex   5.513000e+01  9.608601e+01  4.897200e+01
      vertex   5.478800e+01  9.690800e+01  4.895600e+01
    endloop
  endfacet
  facet normal  5.717078e-01  3.336059e-01  7.495714e-01
    outer loop
      vertex   5.673000e+01  9.526601e+01  4.978000e+01
      vertex   5.626200e+01  9.608601e+01  4.977200e+01
      vertex   5.602600e+01  9.608601e+01  4.995200e+01
    endloop
  endfacet
  facet normal  2.079581e-01  1.224302e-01 -9.704454e-01
    outer loop
      vertex   6.519400e+01  7.771201e+01  4.881400e+01
      vertex   6.038200e+01  8.648801e+01  4.889000e+01
      vertex   6.121600e+01  8.651401e+01  4.907200e+01
    endloop
  endfacet
  facet normal  8.772995e-02  5.445226e-02 -9.946549e-01
    outer loop
      vertex   5.927000e+01  8.646600e+01  4.872800e+01
      vertex   5.767000e+01  8.645000e+01  4.858600e+01
      vertex   5.341600e+01  9.524001e+01  4.869200e+01
    endloop
  endfacet
  facet normal  2.748866e-01  1.603336e-01  9.480140e-01
    outer loop
      vertex   5.602600e+01  9.608601e+01  4.995200e+01
      vertex   5.548800e+01  9.608601e+01  5.010800e+01
      vertex   5.591800e+01  9.526601e+01  5.012200e+01
    endloop
  endfacet
  facet normal  6.478041e-02  5.381474e-02  9.964474e-01
    outer loop
      vertex   5.937200e+01  8.643000e+01  5.043000e+01
      vertex   5.346600e+01  9.528001e+01  5.033600e+01
      vertex   5.769000e+01  8.641801e+01  5.054000e+01
    endloop
  endfacet
  facet normal  2.778771e-01  6.627804e-02  9.583275e-01
    outer loop
      vertex   5.602600e+01  9.608601e+01  4.995200e+01
      vertex   5.528600e+01  9.690401e+01  5.011000e+01
      vertex   5.548800e+01  9.608601e+01  5.010800e+01
    endloop
  endfacet
  facet normal  2.679515e-01  1.620977e-01  9.496980e-01
    outer loop
      vertex   6.131800e+01  8.649200e+01  5.009600e+01
      vertex   5.647800e+01  9.526601e+01  4.996400e+01
      vertex   5.591800e+01  9.526601e+01  5.012200e+01
    endloop
  endfacet
  facet normal  7.685812e-01  4.485244e-01  4.561895e-01
    outer loop
      vertex   6.190400e+01  8.654201e+01  4.957600e+01
      vertex   6.678600e+01  7.780000e+01  4.994600e+01
      vertex   6.699400e+01  7.782600e+01  4.957000e+01
    endloop
  endfacet
  facet normal  4.382624e-01  2.601578e-01  8.603743e-01
    outer loop
      vertex   6.175600e+01  8.652801e+01  4.986200e+01
      vertex   5.673000e+01  9.526601e+01  4.978000e+01
      vertex   6.131800e+01  8.649200e+01  5.009600e+01
    endloop
  endfacet
  facet normal  1.239421e-01  8.311342e-02  9.888025e-01
    outer loop
      vertex   6.516400e+01  7.765000e+01  5.044200e+01
      vertex   6.053800e+01  8.645200e+01  5.028200e+01
      vertex   5.937200e+01  8.643000e+01  5.043000e+01
    endloop
  endfacet
  facet normal  5.587389e-01  3.197295e-01  7.652345e-01
    outer loop
      vertex   6.131800e+01  8.649200e+01  5.009600e+01
      vertex   5.673000e+01  9.526601e+01  4.978000e+01
      vertex   5.647800e+01  9.526601e+01  4.996400e+01
    endloop
  endfacet
  facet normal  2.232866e-01  1.348992e-01  9.653732e-01
    outer loop
      vertex   6.516400e+01  7.765000e+01  5.044200e+01
      vertex   6.131800e+01  8.649200e+01  5.009600e+01
      vertex   6.053800e+01  8.645200e+01  5.028200e+01
    endloop
  endfacet
  facet normal  1.239478e-01  8.291914e-02  9.888182e-01
    outer loop
      vertex   6.053800e+01  8.645200e+01  5.028200e+01
      vertex   5.591800e+01  9.526601e+01  5.012200e+01
      vertex   5.937200e+01  8.643000e+01  5.043000e+01
    endloop
  endfacet
  facet normal  6.374169e-02  5.312267e-02  9.965515e-01
    outer loop
      vertex   5.937200e+01  8.643000e+01  5.043000e+01
      vertex   5.491600e+01  9.526601e+01  5.024400e+01
      vertex   5.346600e+01  9.528001e+01  5.033600e+01
    endloop
  endfacet
endsolid vcg
