solid STL generated by MeshLab
  facet normal -5.343698e-02 -9.984309e-01 -1.673721e-02
    outer loop
      vertex   1.111200e+01  6.459400e+01  7.437200e+01
      vertex   1.218200e+01  6.461800e+01  6.952400e+01
      vertex   1.325000e+01  6.456001e+01  6.957401e+01
    endloop
  endfacet
  facet normal -8.291657e-02 -9.962624e-01 -2.420756e-02
    outer loop
      vertex   9.576000e+00  6.469601e+01  7.432201e+01
      vertex   9.028001e+00  6.474200e+01  7.430600e+01
      vertex   1.125400e+01  6.467400e+01  6.948000e+01
    endloop
  endfacet
  facet normal -4.682640e-02 -9.988199e-01 -1.288506e-02
    outer loop
      vertex   1.526800e+01  6.452600e+01  6.505801e+01
      vertex   1.396800e+01  6.458801e+01  6.497601e+01
      vertex   1.553800e+01  6.456600e+01  6.097600e+01
    endloop
  endfacet
  facet normal -4.046776e-02 -9.990976e-01 -1.289223e-02
    outer loop
      vertex   2.103800e+01  6.441200e+01  5.388200e+01
      vertex   1.827600e+01  6.452000e+01  5.418200e+01
      vertex   2.070800e+01  6.442800e+01  5.367800e+01
    endloop
  endfacet
  facet normal -3.869968e-02 -9.992450e-01  3.439031e-03
    outer loop
      vertex   1.827600e+01  6.452000e+01  5.418200e+01
      vertex   2.103800e+01  6.441200e+01  5.388200e+01
      vertex   2.136600e+01  6.440000e+01  5.408600e+01
    endloop
  endfacet
  facet normal -4.701836e-02 -9.988107e-01 -1.289766e-02
    outer loop
      vertex   1.526800e+01  6.452600e+01  6.505801e+01
      vertex   1.553800e+01  6.456600e+01  6.097600e+01
      vertex   1.703400e+01  6.449400e+01  6.109800e+01
    endloop
  endfacet
  facet normal -4.665216e-02 -9.988045e-01 -1.459840e-02
    outer loop
      vertex   1.665400e+01  6.446001e+01  6.514400e+01
      vertex   1.439400e+01  6.450000e+01  6.963000e+01
      vertex   1.526800e+01  6.452600e+01  6.505801e+01
    endloop
  endfacet
  facet normal -4.050896e-02 -9.991431e-01 -8.489883e-03
    outer loop
      vertex   1.604800e+01  6.463000e+01  5.276400e+01
      vertex   1.619400e+01  6.462400e+01  5.277400e+01
      vertex   1.645400e+01  6.460201e+01  5.412200e+01
    endloop
  endfacet
  facet normal -4.470672e-02 -9.989706e-01 -7.677412e-03
    outer loop
      vertex   1.827600e+01  6.452000e+01  5.418200e+01
      vertex   1.645400e+01  6.460201e+01  5.412200e+01
      vertex   1.619400e+01  6.462400e+01  5.277400e+01
    endloop
  endfacet
  facet normal -3.908378e-02 -9.991955e-01 -8.985983e-03
    outer loop
      vertex   1.553800e+01  6.456600e+01  6.097600e+01
      vertex   1.827600e+01  6.452000e+01  5.418200e+01
      vertex   2.136600e+01  6.440000e+01  5.408600e+01
    endloop
  endfacet
  facet normal -1.479512e-01 -9.881696e-01 -4.039194e-02
    outer loop
      vertex   1.109800e+01  6.485001e+01  6.480600e+01
      vertex   1.222200e+01  6.484800e+01  6.073800e+01
      vertex   1.323200e+01  6.469400e+01  6.080600e+01
    endloop
  endfacet
  facet normal -1.767060e-01 -9.830939e-01 -4.797298e-02
    outer loop
      vertex   8.480000e+00  6.486000e+01  7.428800e+01
      vertex   9.826000e+00  6.485600e+01  6.941200e+01
      vertex   1.054000e+01  6.472601e+01  6.944601e+01
    endloop
  endfacet
  facet normal -5.850964e-02 -9.981061e-01 -1.899990e-02
    outer loop
      vertex   1.199000e+01  6.454200e+01  7.440000e+01
      vertex   1.111200e+01  6.459400e+01  7.437200e+01
      vertex   1.325000e+01  6.456001e+01  6.957401e+01
    endloop
  endfacet
  facet normal -6.047906e-02 -9.980407e-01 -1.602785e-02
    outer loop
      vertex   1.283800e+01  6.465200e+01  6.490800e+01
      vertex   1.323200e+01  6.469400e+01  6.080600e+01
      vertex   1.423600e+01  6.463200e+01  6.087800e+01
    endloop
  endfacet
  facet normal -6.913176e-02 -9.973795e-01 -2.133363e-02
    outer loop
      vertex   1.029000e+01  6.464600e+01  7.434600e+01
      vertex   9.576000e+00  6.469601e+01  7.432201e+01
      vertex   1.218200e+01  6.461800e+01  6.952400e+01
    endloop
  endfacet
  facet normal -4.144183e-02 -9.990658e-01 -1.224679e-02
    outer loop
      vertex   2.169200e+01  6.438400e+01  5.428800e+01
      vertex   1.862800e+01  6.442600e+01  6.123000e+01
      vertex   2.136600e+01  6.440000e+01  5.408600e+01
    endloop
  endfacet
  facet normal -4.558393e-02 -9.988614e-01 -1.407623e-02
    outer loop
      vertex   1.862800e+01  6.442600e+01  6.123000e+01
      vertex   2.169200e+01  6.438400e+01  5.428800e+01
      vertex   2.032600e+01  6.439600e+01  5.786000e+01
    endloop
  endfacet
  facet normal -4.085409e-02 -9.990898e-01 -1.226668e-02
    outer loop
      vertex   2.032600e+01  6.439600e+01  5.786000e+01
      vertex   2.169200e+01  6.438400e+01  5.428800e+01
      vertex   2.202200e+01  6.436800e+01  5.449200e+01
    endloop
  endfacet
  facet normal -4.258587e-02 -9.990292e-01 -1.128189e-02
    outer loop
      vertex   1.764000e+01  6.444601e+01  6.318800e+01
      vertex   1.526800e+01  6.452600e+01  6.505801e+01
      vertex   1.862800e+01  6.442600e+01  6.123000e+01
    endloop
  endfacet
  facet normal -4.654469e-02 -9.987829e-01 -1.631398e-02
    outer loop
      vertex   1.526800e+01  6.452600e+01  6.505801e+01
      vertex   1.764000e+01  6.444601e+01  6.318800e+01
      vertex   1.665400e+01  6.446001e+01  6.514400e+01
    endloop
  endfacet
  facet normal -5.946792e-02 -9.981008e-01 -1.607306e-02
    outer loop
      vertex   9.576000e+00  6.469601e+01  7.432201e+01
      vertex   1.125400e+01  6.467400e+01  6.948000e+01
      vertex   1.218200e+01  6.461800e+01  6.952400e+01
    endloop
  endfacet
  facet normal -4.174767e-02 -9.990725e-01 -1.054503e-02
    outer loop
      vertex   1.526800e+01  6.452600e+01  6.505801e+01
      vertex   1.703400e+01  6.449400e+01  6.109800e+01
      vertex   1.862800e+01  6.442600e+01  6.123000e+01
    endloop
  endfacet
  facet normal -6.180993e-02 -9.980398e-01 -9.803690e-03
    outer loop
      vertex   1.524800e+01  6.468201e+01  5.271400e+01
      vertex   1.534400e+01  6.467600e+01  5.272000e+01
      vertex   1.523400e+01  6.467001e+01  5.402400e+01
    endloop
  endfacet
  facet normal -5.491101e-02 -9.984486e-01 -9.223610e-03
    outer loop
      vertex   1.645400e+01  6.460201e+01  5.412200e+01
      vertex   1.523400e+01  6.467001e+01  5.402400e+01
      vertex   1.534400e+01  6.467600e+01  5.272000e+01
    endloop
  endfacet
  facet normal -4.458924e-02 -9.989425e-01 -1.120641e-02
    outer loop
      vertex   1.553800e+01  6.456600e+01  6.097600e+01
      vertex   1.645400e+01  6.460201e+01  5.412200e+01
      vertex   1.827600e+01  6.452000e+01  5.418200e+01
    endloop
  endfacet
  facet normal -4.680277e-02 -9.987835e-01 -1.552513e-02
    outer loop
      vertex   1.703400e+01  6.449400e+01  6.109800e+01
      vertex   1.553800e+01  6.456600e+01  6.097600e+01
      vertex   2.136600e+01  6.440000e+01  5.408600e+01
    endloop
  endfacet
  facet normal -7.172492e-02 -9.972429e-01 -1.903158e-02
    outer loop
      vertex   9.028001e+00  6.474200e+01  7.430600e+01
      vertex   1.054000e+01  6.472601e+01  6.944601e+01
      vertex   1.125400e+01  6.467400e+01  6.948000e+01
    endloop
  endfacet
  facet normal -7.167604e-02 -9.972267e-01 -2.003339e-02
    outer loop
      vertex   1.125400e+01  6.467400e+01  6.948000e+01
      vertex   1.054000e+01  6.472601e+01  6.944601e+01
      vertex   1.283800e+01  6.465200e+01  6.490800e+01
    endloop
  endfacet
  facet normal -1.962691e-01 -9.790457e-01 -5.429395e-02
    outer loop
      vertex   1.444600e+01  6.484000e+01  5.268000e+01
      vertex   1.515600e+01  6.469601e+01  5.271000e+01
      vertex   1.409800e+01  6.484000e+01  5.393800e+01
    endloop
  endfacet
  facet normal -1.479663e-01 -9.881758e-01 -4.018252e-02
    outer loop
      vertex   1.323200e+01  6.469400e+01  6.080600e+01
      vertex   1.222200e+01  6.484800e+01  6.073800e+01
      vertex   1.523400e+01  6.467001e+01  5.402400e+01
    endloop
  endfacet
  facet normal -2.090113e-01 -9.759513e-01 -6.191476e-02
    outer loop
      vertex   8.508000e+00  6.485400e+01  7.428800e+01
      vertex   8.480000e+00  6.486000e+01  7.428800e+01
      vertex   1.054000e+01  6.472601e+01  6.944601e+01
    endloop
  endfacet
  facet normal -4.973127e-02 -9.986919e-01 -1.189230e-02
    outer loop
      vertex   1.553800e+01  6.456600e+01  6.097600e+01
      vertex   1.423600e+01  6.463200e+01  6.087800e+01
      vertex   1.645400e+01  6.460201e+01  5.412200e+01
    endloop
  endfacet
  facet normal -6.059995e-02 -9.980589e-01 -1.435760e-02
    outer loop
      vertex   1.423600e+01  6.463200e+01  6.087800e+01
      vertex   1.323200e+01  6.469400e+01  6.080600e+01
      vertex   1.523400e+01  6.467001e+01  5.402400e+01
    endloop
  endfacet
  facet normal -1.498679e-01 -9.886180e-01 -1.319386e-02
    outer loop
      vertex   1.515600e+01  6.469601e+01  5.271000e+01
      vertex   1.524800e+01  6.468201e+01  5.271400e+01
      vertex   1.409800e+01  6.484000e+01  5.393800e+01
    endloop
  endfacet
  facet normal -1.472024e-01 -9.890492e-01 -1.063391e-02
    outer loop
      vertex   1.523400e+01  6.467001e+01  5.402400e+01
      vertex   1.409800e+01  6.484000e+01  5.393800e+01
      vertex   1.524800e+01  6.468201e+01  5.271400e+01
    endloop
  endfacet
  facet normal -5.456736e-02 -9.984190e-01 -1.348120e-02
    outer loop
      vertex   1.423600e+01  6.463200e+01  6.087800e+01
      vertex   1.523400e+01  6.467001e+01  5.402400e+01
      vertex   1.645400e+01  6.460201e+01  5.412200e+01
    endloop
  endfacet
  facet normal -6.340053e-02 -9.978549e-01 -1.630656e-02
    outer loop
      vertex   1.283800e+01  6.465200e+01  6.490800e+01
      vertex   1.197000e+01  6.470800e+01  6.485600e+01
      vertex   1.323200e+01  6.469400e+01  6.080600e+01
    endloop
  endfacet
  facet normal -5.948090e-02 -9.981043e-01 -1.580409e-02
    outer loop
      vertex   1.218200e+01  6.461800e+01  6.952400e+01
      vertex   1.125400e+01  6.467400e+01  6.948000e+01
      vertex   1.283800e+01  6.465200e+01  6.490800e+01
    endloop
  endfacet
  facet normal -1.765317e-01 -9.829654e-01 -5.114191e-02
    outer loop
      vertex   1.054000e+01  6.472601e+01  6.944601e+01
      vertex   9.826000e+00  6.485600e+01  6.941200e+01
      vertex   1.197000e+01  6.470800e+01  6.485600e+01
    endloop
  endfacet
  facet normal -5.153365e-02 -9.985235e-01 -1.718012e-02
    outer loop
      vertex   1.439400e+01  6.450000e+01  6.963000e+01
      vertex   1.199000e+01  6.454200e+01  7.440000e+01
      vertex   1.325000e+01  6.456001e+01  6.957401e+01
    endloop
  endfacet
  facet normal -5.562065e-02 -9.983354e-01 -1.525719e-02
    outer loop
      vertex   1.218200e+01  6.461800e+01  6.952400e+01
      vertex   1.283800e+01  6.465200e+01  6.490800e+01
      vertex   1.396800e+01  6.458801e+01  6.497601e+01
    endloop
  endfacet
  facet normal -5.345452e-02 -9.984361e-01 -1.636851e-02
    outer loop
      vertex   1.325000e+01  6.456001e+01  6.957401e+01
      vertex   1.218200e+01  6.461800e+01  6.952400e+01
      vertex   1.526800e+01  6.452600e+01  6.505801e+01
    endloop
  endfacet
  facet normal -5.161485e-02 -9.985461e-01 -1.554561e-02
    outer loop
      vertex   1.439400e+01  6.450000e+01  6.963000e+01
      vertex   1.325000e+01  6.456001e+01  6.957401e+01
      vertex   1.526800e+01  6.452600e+01  6.505801e+01
    endloop
  endfacet
  facet normal -2.081202e-01 -9.761657e-01 -6.153511e-02
    outer loop
      vertex   9.028001e+00  6.474200e+01  7.430600e+01
      vertex   8.508000e+00  6.485400e+01  7.428800e+01
      vertex   1.054000e+01  6.472601e+01  6.944601e+01
    endloop
  endfacet
  facet normal -1.450098e-01 -9.886674e-01 -3.884315e-02
    outer loop
      vertex   1.222200e+01  6.484800e+01  6.073800e+01
      vertex   1.409800e+01  6.484000e+01  5.393800e+01
      vertex   1.523400e+01  6.467001e+01  5.402400e+01
    endloop
  endfacet
  facet normal -1.580042e-01 -9.863745e-01 -4.582522e-02
    outer loop
      vertex   1.197000e+01  6.470800e+01  6.485600e+01
      vertex   1.109800e+01  6.485001e+01  6.480600e+01
      vertex   1.323200e+01  6.469400e+01  6.080600e+01
    endloop
  endfacet
  facet normal -5.555629e-02 -9.983223e-01 -1.631427e-02
    outer loop
      vertex   1.396800e+01  6.458801e+01  6.497601e+01
      vertex   1.283800e+01  6.465200e+01  6.490800e+01
      vertex   1.553800e+01  6.456600e+01  6.097600e+01
    endloop
  endfacet
  facet normal -3.939496e-02 -9.991906e-01 -8.140136e-03
    outer loop
      vertex   1.808400e+01  6.453800e+01  5.290200e+01
      vertex   1.928400e+01  6.449001e+01  5.298600e+01
      vertex   1.827600e+01  6.452000e+01  5.418200e+01
    endloop
  endfacet
  facet normal -4.083151e-02 -9.991346e-01 -7.923865e-03
    outer loop
      vertex   1.711800e+01  6.457800e+01  5.283600e+01
      vertex   1.808400e+01  6.453800e+01  5.290200e+01
      vertex   1.827600e+01  6.452000e+01  5.418200e+01
    endloop
  endfacet
  facet normal -4.000906e-02 -9.991618e-01 -8.658428e-03
    outer loop
      vertex   1.928400e+01  6.449001e+01  5.298600e+01
      vertex   1.962800e+01  6.447601e+01  5.301200e+01
      vertex   1.827600e+01  6.452000e+01  5.418200e+01
    endloop
  endfacet
  facet normal -4.118649e-02 -9.991012e-01 -1.002129e-02
    outer loop
      vertex   1.827600e+01  6.452000e+01  5.418200e+01
      vertex   1.962800e+01  6.447601e+01  5.301200e+01
      vertex   2.005000e+01  6.445600e+01  5.327200e+01
    endloop
  endfacet
  facet normal -3.898730e-02 -9.992234e-01 -5.725475e-03
    outer loop
      vertex   1.827600e+01  6.452000e+01  5.418200e+01
      vertex   2.005000e+01  6.445600e+01  5.327200e+01
      vertex   2.070800e+01  6.442800e+01  5.367800e+01
    endloop
  endfacet
  facet normal -1.582194e-01 -9.864928e-01 -4.240973e-02
    outer loop
      vertex   9.826000e+00  6.485600e+01  6.941200e+01
      vertex   1.109800e+01  6.485001e+01  6.480600e+01
      vertex   1.197000e+01  6.470800e+01  6.485600e+01
    endloop
  endfacet
  facet normal -4.160109e-02 -9.990585e-01 -1.230785e-02
    outer loop
      vertex   1.862800e+01  6.442600e+01  6.123000e+01
      vertex   1.703400e+01  6.449400e+01  6.109800e+01
      vertex   2.136600e+01  6.440000e+01  5.408600e+01
    endloop
  endfacet
  facet normal -6.253495e-02 -9.978669e-01 -1.874242e-02
    outer loop
      vertex   1.111200e+01  6.459400e+01  7.437200e+01
      vertex   1.029000e+01  6.464600e+01  7.434600e+01
      vertex   1.218200e+01  6.461800e+01  6.952400e+01
    endloop
  endfacet
  facet normal -4.970085e-02 -9.987642e-01 -2.773716e-04
    outer loop
      vertex   1.619400e+01  6.462400e+01  5.277400e+01
      vertex   1.711800e+01  6.457800e+01  5.283600e+01
      vertex   1.827600e+01  6.452000e+01  5.418200e+01
    endloop
  endfacet
  facet normal -6.342846e-02 -9.978606e-01 -1.584657e-02
    outer loop
      vertex   1.054000e+01  6.472601e+01  6.944601e+01
      vertex   1.197000e+01  6.470800e+01  6.485600e+01
      vertex   1.283800e+01  6.465200e+01  6.490800e+01
    endloop
  endfacet
  facet normal -6.341234e-02 -9.979861e-01 -1.618612e-03
    outer loop
      vertex   1.560800e+01  6.465800e+01  5.273800e+01
      vertex   1.604800e+01  6.463000e+01  5.276400e+01
      vertex   1.645400e+01  6.460201e+01  5.412200e+01
    endloop
  endfacet
  facet normal -6.810085e-02 -9.976776e-01  1.259833e-03
    outer loop
      vertex   1.534400e+01  6.467600e+01  5.272000e+01
      vertex   1.560800e+01  6.465800e+01  5.273800e+01
      vertex   1.645400e+01  6.460201e+01  5.412200e+01
    endloop
  endfacet
  facet normal -4.689363e-02 -9.988299e-01 -1.182683e-02
    outer loop
      vertex   1.218200e+01  6.461800e+01  6.952400e+01
      vertex   1.396800e+01  6.458801e+01  6.497601e+01
      vertex   1.526800e+01  6.452600e+01  6.505801e+01
    endloop
  endfacet
  facet normal -4.970147e-02 -9.986886e-01 -1.228592e-02
    outer loop
      vertex   1.283800e+01  6.465200e+01  6.490800e+01
      vertex   1.423600e+01  6.463200e+01  6.087800e+01
      vertex   1.553800e+01  6.456600e+01  6.097600e+01
    endloop
  endfacet
  facet normal -3.153548e-01  9.449556e-01 -8.723662e-02
    outer loop
      vertex   1.444600e+01  6.484000e+01  5.268000e+01
      vertex   1.409800e+01  6.484000e+01  5.393800e+01
      vertex   1.455600e+01  6.487801e+01  5.269400e+01
    endloop
  endfacet
  facet normal -1.717730e-01  9.845782e-01 -3.316408e-02
    outer loop
      vertex   1.455600e+01  6.487801e+01  5.269400e+01
      vertex   1.409800e+01  6.484000e+01  5.393800e+01
      vertex   1.460600e+01  6.489400e+01  5.291000e+01
    endloop
  endfacet
  facet normal -2.414912e-01  9.680320e-01 -6.779470e-02
    outer loop
      vertex   1.392200e+01  6.489400e+01  5.533600e+01
      vertex   1.432600e+01  6.489800e+01  5.395400e+01
      vertex   1.409800e+01  6.484000e+01  5.393800e+01
    endloop
  endfacet
  facet normal -2.748392e-01  9.579712e-01 -8.218681e-02
    outer loop
      vertex   9.666000e+00  6.489400e+01  7.039001e+01
      vertex   9.970000e+00  6.489800e+01  6.942001e+01
      vertex   9.826000e+00  6.485600e+01  6.941200e+01
    endloop
  endfacet
  facet normal -2.648328e-01  9.614321e-01 -7.424136e-02
    outer loop
      vertex   1.127000e+01  6.489800e+01  6.481400e+01
      vertex   1.209200e+01  6.489400e+01  6.183000e+01
      vertex   1.109800e+01  6.485001e+01  6.480600e+01
    endloop
  endfacet
  facet normal -2.864911e-01  9.547068e-01 -8.036075e-02
    outer loop
      vertex   9.826000e+00  6.485600e+01  6.941200e+01
      vertex   1.098600e+01  6.489400e+01  6.572800e+01
      vertex   1.109800e+01  6.485001e+01  6.480600e+01
    endloop
  endfacet
  facet normal -2.538738e-01  9.647020e-01 -6.998727e-02
    outer loop
      vertex   1.098600e+01  6.489400e+01  6.572800e+01
      vertex   9.826000e+00  6.485600e+01  6.941200e+01
      vertex   1.088400e+01  6.489400e+01  6.609800e+01
    endloop
  endfacet
  facet normal -2.416997e-01  9.679782e-01 -6.781887e-02
    outer loop
      vertex   1.222200e+01  6.484800e+01  6.073800e+01
      vertex   1.392200e+01  6.489400e+01  5.533600e+01
      vertex   1.409800e+01  6.484000e+01  5.393800e+01
    endloop
  endfacet
  facet normal -2.341097e-01  9.700071e-01 -6.541304e-02
    outer loop
      vertex   1.392200e+01  6.489400e+01  5.533600e+01
      vertex   1.222200e+01  6.484800e+01  6.073800e+01
      vertex   1.380800e+01  6.489400e+01  5.574400e+01
    endloop
  endfacet
  facet normal -2.398261e-01  9.684843e-01 -6.724249e-02
    outer loop
      vertex   1.242000e+01  6.489800e+01  6.075200e+01
      vertex   1.380800e+01  6.489400e+01  5.574400e+01
      vertex   1.222200e+01  6.484800e+01  6.073800e+01
    endloop
  endfacet
  facet normal -2.554548e-01  9.642061e-01 -7.105850e-02
    outer loop
      vertex   1.109800e+01  6.485001e+01  6.480600e+01
      vertex   1.217200e+01  6.489400e+01  6.154200e+01
      vertex   1.222200e+01  6.484800e+01  6.073800e+01
    endloop
  endfacet
  facet normal -2.536695e-01  9.647210e-01 -7.046411e-02
    outer loop
      vertex   1.217200e+01  6.489400e+01  6.154200e+01
      vertex   1.109800e+01  6.485001e+01  6.480600e+01
      vertex   1.209200e+01  6.489400e+01  6.183000e+01
    endloop
  endfacet
  facet normal -2.752300e-01  9.582996e-01 -7.687867e-02
    outer loop
      vertex   9.970000e+00  6.489800e+01  6.942001e+01
      vertex   1.088400e+01  6.489400e+01  6.609800e+01
      vertex   9.826000e+00  6.485600e+01  6.941200e+01
    endloop
  endfacet
  facet normal -2.414361e-01  9.679989e-01 -6.846000e-02
    outer loop
      vertex   1.432600e+01  6.489800e+01  5.395400e+01
      vertex   1.460600e+01  6.489400e+01  5.291000e+01
      vertex   1.409800e+01  6.484000e+01  5.393800e+01
    endloop
  endfacet
  facet normal -2.645926e-01  9.611998e-01 -7.801051e-02
    outer loop
      vertex   1.098600e+01  6.489400e+01  6.572800e+01
      vertex   1.127000e+01  6.489800e+01  6.481400e+01
      vertex   1.109800e+01  6.485001e+01  6.480600e+01
    endloop
  endfacet
  facet normal -3.191584e-01  9.435248e-01 -8.887602e-02
    outer loop
      vertex   8.480000e+00  6.486000e+01  7.428800e+01
      vertex   9.666000e+00  6.489400e+01  7.039001e+01
      vertex   9.826000e+00  6.485600e+01  6.941200e+01
    endloop
  endfacet
  facet normal -3.224085e-01  9.423243e-01 -8.987537e-02
    outer loop
      vertex   9.666000e+00  6.489400e+01  7.039001e+01
      vertex   8.480000e+00  6.486000e+01  7.428800e+01
      vertex   9.540001e+00  6.489400e+01  7.084200e+01
    endloop
  endfacet
  facet normal -2.395704e-01  9.683300e-01 -7.030664e-02
    outer loop
      vertex   1.217200e+01  6.489400e+01  6.154200e+01
      vertex   1.242000e+01  6.489800e+01  6.075200e+01
      vertex   1.222200e+01  6.484800e+01  6.073800e+01
    endloop
  endfacet
  facet normal -3.222952e-01  9.423665e-01 -8.984008e-02
    outer loop
      vertex   8.480000e+00  6.486000e+01  7.428800e+01
      vertex   8.590000e+00  6.489800e+01  7.429200e+01
      vertex   9.540001e+00  6.489400e+01  7.084200e+01
    endloop
  endfacet
  facet normal -2.252504e-01 -9.714410e-01 -7.459756e-02
    outer loop
      vertex   9.666000e+00  6.489400e+01  7.039001e+01
      vertex   9.826000e+00  6.493201e+01  6.941200e+01
      vertex   9.970000e+00  6.489800e+01  6.942001e+01
    endloop
  endfacet
  facet normal -2.014854e-01 -9.775445e-01 -6.172794e-02
    outer loop
      vertex   1.392200e+01  6.489400e+01  5.533600e+01
      vertex   1.409800e+01  6.494601e+01  5.393800e+01
      vertex   1.432600e+01  6.489800e+01  5.395400e+01
    endloop
  endfacet
  facet normal -3.126853e-01 -9.459352e-01 -8.622390e-02
    outer loop
      vertex   1.444600e+01  6.494601e+01  5.267600e+01
      vertex   1.455600e+01  6.490800e+01  5.269400e+01
      vertex   1.409800e+01  6.494601e+01  5.393800e+01
    endloop
  endfacet
  facet normal -1.569972e-01 -9.872121e-01 -2.764365e-02
    outer loop
      vertex   1.409800e+01  6.494601e+01  5.393800e+01
      vertex   1.455600e+01  6.490800e+01  5.269400e+01
      vertex   1.460600e+01  6.489400e+01  5.291000e+01
    endloop
  endfacet
  facet normal -2.348086e-01 -9.698231e-01 -6.563590e-02
    outer loop
      vertex   1.392200e+01  6.489400e+01  5.533600e+01
      vertex   1.222200e+01  6.494000e+01  6.073800e+01
      vertex   1.409800e+01  6.494601e+01  5.393800e+01
    endloop
  endfacet
  facet normal -2.340732e-01 -9.700166e-01 -6.540280e-02
    outer loop
      vertex   1.222200e+01  6.494000e+01  6.073800e+01
      vertex   1.392200e+01  6.489400e+01  5.533600e+01
      vertex   1.380800e+01  6.489400e+01  5.574400e+01
    endloop
  endfacet
  facet normal -2.034180e-01 -9.775121e-01 -5.559830e-02
    outer loop
      vertex   1.242000e+01  6.489800e+01  6.075200e+01
      vertex   1.222200e+01  6.494000e+01  6.073800e+01
      vertex   1.380800e+01  6.489400e+01  5.574400e+01
    endloop
  endfacet
  facet normal -2.864912e-01 -9.547068e-01 -8.036078e-02
    outer loop
      vertex   1.098600e+01  6.489400e+01  6.572800e+01
      vertex   9.826000e+00  6.493201e+01  6.941200e+01
      vertex   1.109800e+01  6.493800e+01  6.480600e+01
    endloop
  endfacet
  facet normal -2.538736e-01 -9.647020e-01 -6.998726e-02
    outer loop
      vertex   9.826000e+00  6.493201e+01  6.941200e+01
      vertex   1.098600e+01  6.489400e+01  6.572800e+01
      vertex   1.088400e+01  6.489400e+01  6.609800e+01
    endloop
  endfacet
  facet normal -2.234466e-01 -9.728523e-01 -6.024928e-02
    outer loop
      vertex   1.127000e+01  6.489800e+01  6.481400e+01
      vertex   1.109800e+01  6.493800e+01  6.480600e+01
      vertex   1.209200e+01  6.489400e+01  6.183000e+01
    endloop
  endfacet
  facet normal -3.222148e-01 -9.424421e-01 -8.933396e-02
    outer loop
      vertex   9.666000e+00  6.489400e+01  7.039001e+01
      vertex   8.480000e+00  6.493000e+01  7.428800e+01
      vertex   9.826000e+00  6.493201e+01  6.941200e+01
    endloop
  endfacet
  facet normal -3.390063e-01 -9.360257e-01 -9.450219e-02
    outer loop
      vertex   8.480000e+00  6.493000e+01  7.428800e+01
      vertex   9.666000e+00  6.489400e+01  7.039001e+01
      vertex   9.540001e+00  6.489400e+01  7.084200e+01
    endloop
  endfacet
  facet normal -2.554229e-01 -9.642154e-01 -7.104789e-02
    outer loop
      vertex   1.217200e+01  6.489400e+01  6.154200e+01
      vertex   1.109800e+01  6.493800e+01  6.480600e+01
      vertex   1.222200e+01  6.494000e+01  6.073800e+01
    endloop
  endfacet
  facet normal -2.536688e-01 -9.647212e-01 -7.046400e-02
    outer loop
      vertex   1.109800e+01  6.493800e+01  6.480600e+01
      vertex   1.217200e+01  6.489400e+01  6.154200e+01
      vertex   1.209200e+01  6.489400e+01  6.183000e+01
    endloop
  endfacet
  facet normal -2.023681e-01 -9.780050e-01 -5.053009e-02
    outer loop
      vertex   1.432600e+01  6.489800e+01  5.395400e+01
      vertex   1.409800e+01  6.494601e+01  5.393800e+01
      vertex   1.460600e+01  6.489400e+01  5.291000e+01
    endloop
  endfacet
  facet normal -2.226638e-01 -9.721253e-01 -7.343858e-02
    outer loop
      vertex   1.098600e+01  6.489400e+01  6.572800e+01
      vertex   1.109800e+01  6.493800e+01  6.480600e+01
      vertex   1.127000e+01  6.489800e+01  6.481400e+01
    endloop
  endfacet
  facet normal -2.261752e-01 -9.721711e-01 -6.105880e-02
    outer loop
      vertex   9.970000e+00  6.489800e+01  6.942001e+01
      vertex   9.826000e+00  6.493201e+01  6.941200e+01
      vertex   1.088400e+01  6.489400e+01  6.609800e+01
    endloop
  endfacet
  facet normal -2.771467e-01 -9.578767e-01 -7.524570e-02
    outer loop
      vertex   8.514000e+00  6.492001e+01  7.429000e+01
      vertex   8.480000e+00  6.493000e+01  7.428800e+01
      vertex   9.540001e+00  6.489400e+01  7.084200e+01
    endloop
  endfacet
  facet normal -2.423244e-01 -9.680284e-01 -6.480729e-02
    outer loop
      vertex   8.530001e+00  6.491600e+01  7.429000e+01
      vertex   8.514000e+00  6.492001e+01  7.429000e+01
      vertex   9.540001e+00  6.489400e+01  7.084200e+01
    endloop
  endfacet
  facet normal -2.841032e-01 -9.556868e-01 -7.712401e-02
    outer loop
      vertex   8.590000e+00  6.489800e+01  7.429200e+01
      vertex   8.530001e+00  6.491600e+01  7.429000e+01
      vertex   9.540001e+00  6.489400e+01  7.084200e+01
    endloop
  endfacet
  facet normal -2.023799e-01 -9.769102e-01 -6.847553e-02
    outer loop
      vertex   1.217200e+01  6.489400e+01  6.154200e+01
      vertex   1.222200e+01  6.494000e+01  6.073800e+01
      vertex   1.242000e+01  6.489800e+01  6.075200e+01
    endloop
  endfacet
  facet normal -5.343706e-02  9.984310e-01 -1.673565e-02
    outer loop
      vertex   1.111200e+01  6.519400e+01  7.437200e+01
      vertex   1.325000e+01  6.522800e+01  6.957401e+01
      vertex   1.218200e+01  6.517001e+01  6.952400e+01
    endloop
  endfacet
  facet normal -4.682058e-02  9.988202e-01 -1.288468e-02
    outer loop
      vertex   1.526800e+01  6.526200e+01  6.505801e+01
      vertex   1.553800e+01  6.522200e+01  6.097600e+01
      vertex   1.396800e+01  6.520000e+01  6.497601e+01
    endloop
  endfacet
  facet normal -8.291656e-02  9.962624e-01 -2.420756e-02
    outer loop
      vertex   9.028001e+00  6.504601e+01  7.430600e+01
      vertex   9.576000e+00  6.509200e+01  7.432201e+01
      vertex   1.125400e+01  6.511401e+01  6.948000e+01
    endloop
  endfacet
  facet normal -4.702341e-02  9.988105e-01 -1.289800e-02
    outer loop
      vertex   1.526800e+01  6.526200e+01  6.505801e+01
      vertex   1.703400e+01  6.529401e+01  6.109800e+01
      vertex   1.553800e+01  6.522200e+01  6.097600e+01
    endloop
  endfacet
  facet normal -4.665758e-02  9.988042e-01 -1.459943e-02
    outer loop
      vertex   1.439400e+01  6.528800e+01  6.963000e+01
      vertex   1.665400e+01  6.532800e+01  6.514400e+01
      vertex   1.526800e+01  6.526200e+01  6.505801e+01
    endloop
  endfacet
  facet normal -4.470432e-02  9.989703e-01 -7.749876e-03
    outer loop
      vertex   1.827600e+01  6.526801e+01  5.418200e+01
      vertex   1.619600e+01  6.516400e+01  5.277400e+01
      vertex   1.645400e+01  6.518600e+01  5.412200e+01
    endloop
  endfacet
  facet normal -5.353675e-02  9.985476e-01 -6.052499e-03
    outer loop
      vertex   1.604800e+01  6.515601e+01  5.276400e+01
      vertex   1.645400e+01  6.518600e+01  5.412200e+01
      vertex   1.619600e+01  6.516400e+01  5.277400e+01
    endloop
  endfacet
  facet normal -3.908125e-02  9.991957e-01 -8.983842e-03
    outer loop
      vertex   1.553800e+01  6.522200e+01  6.097600e+01
      vertex   2.136600e+01  6.538800e+01  5.408600e+01
      vertex   1.827600e+01  6.526801e+01  5.418200e+01
    endloop
  endfacet
  facet normal -4.136242e-02  9.989188e-01 -2.121883e-02
    outer loop
      vertex   1.827600e+01  6.526801e+01  5.418200e+01
      vertex   2.103800e+01  6.537600e+01  5.388200e+01
      vertex   2.070800e+01  6.535800e+01  5.367800e+01
    endloop
  endfacet
  facet normal -3.869733e-02  9.992450e-01  3.435246e-03
    outer loop
      vertex   2.103800e+01  6.537600e+01  5.388200e+01
      vertex   1.827600e+01  6.526801e+01  5.418200e+01
      vertex   2.136600e+01  6.538800e+01  5.408600e+01
    endloop
  endfacet
  facet normal -6.048657e-02  9.980404e-01 -1.602857e-02
    outer loop
      vertex   1.283800e+01  6.513600e+01  6.490800e+01
      vertex   1.423600e+01  6.515601e+01  6.087800e+01
      vertex   1.323200e+01  6.509400e+01  6.080600e+01
    endloop
  endfacet
  facet normal -4.259626e-02  9.990286e-01 -1.129104e-02
    outer loop
      vertex   1.526800e+01  6.526200e+01  6.505801e+01
      vertex   1.764000e+01  6.534200e+01  6.318800e+01
      vertex   1.862800e+01  6.536200e+01  6.123000e+01
    endloop
  endfacet
  facet normal -4.655001e-02  9.987827e-01 -1.631666e-02
    outer loop
      vertex   1.764000e+01  6.534200e+01  6.318800e+01
      vertex   1.526800e+01  6.526200e+01  6.505801e+01
      vertex   1.665400e+01  6.532800e+01  6.514400e+01
    endloop
  endfacet
  facet normal -1.479511e-01  9.881694e-01 -4.039376e-02
    outer loop
      vertex   1.109800e+01  6.493800e+01  6.480600e+01
      vertex   1.323200e+01  6.509400e+01  6.080600e+01
      vertex   1.222200e+01  6.494000e+01  6.073800e+01
    endloop
  endfacet
  facet normal -3.649938e-02  9.992800e-01 -1.035178e-02
    outer loop
      vertex   1.862800e+01  6.536200e+01  6.123000e+01
      vertex   2.169200e+01  6.540200e+01  5.428800e+01
      vertex   2.136600e+01  6.538800e+01  5.408600e+01
    endloop
  endfacet
  facet normal -4.071471e-02  9.990962e-01 -1.221336e-02
    outer loop
      vertex   2.169200e+01  6.540200e+01  5.428800e+01
      vertex   1.862800e+01  6.536200e+01  6.123000e+01
      vertex   2.032600e+01  6.539000e+01  5.786000e+01
    endloop
  endfacet
  facet normal -4.087273e-02  9.990889e-01 -1.227382e-02
    outer loop
      vertex   2.169200e+01  6.540200e+01  5.428800e+01
      vertex   2.032600e+01  6.539000e+01  5.786000e+01
      vertex   2.202200e+01  6.541801e+01  5.449200e+01
    endloop
  endfacet
  facet normal -1.766844e-01  9.830784e-01 -4.836849e-02
    outer loop
      vertex   8.480000e+00  6.493000e+01  7.428800e+01
      vertex   1.054000e+01  6.506200e+01  6.944601e+01
      vertex   9.826000e+00  6.493201e+01  6.941200e+01
    endloop
  endfacet
  facet normal -6.074089e-02  9.979534e-01 -1.999364e-02
    outer loop
      vertex   1.111200e+01  6.519400e+01  7.437200e+01
      vertex   1.199000e+01  6.524800e+01  7.440000e+01
      vertex   1.325000e+01  6.522800e+01  6.957401e+01
    endloop
  endfacet
  facet normal -6.913176e-02  9.973795e-01 -2.133363e-02
    outer loop
      vertex   9.576000e+00  6.509200e+01  7.432201e+01
      vertex   1.029000e+01  6.514201e+01  7.434600e+01
      vertex   1.218200e+01  6.517001e+01  6.952400e+01
    endloop
  endfacet
  facet normal -5.946792e-02  9.981008e-01 -1.607306e-02
    outer loop
      vertex   9.576000e+00  6.509200e+01  7.432201e+01
      vertex   1.218200e+01  6.517001e+01  6.952400e+01
      vertex   1.125400e+01  6.511401e+01  6.948000e+01
    endloop
  endfacet
  facet normal -7.172492e-02  9.972429e-01 -1.903158e-02
    outer loop
      vertex   9.028001e+00  6.504601e+01  7.430600e+01
      vertex   1.125400e+01  6.511401e+01  6.948000e+01
      vertex   1.054000e+01  6.506200e+01  6.944601e+01
    endloop
  endfacet
  facet normal -7.167596e-02  9.972267e-01 -2.003503e-02
    outer loop
      vertex   1.125400e+01  6.511401e+01  6.948000e+01
      vertex   1.283800e+01  6.513600e+01  6.490800e+01
      vertex   1.054000e+01  6.506200e+01  6.944601e+01
    endloop
  endfacet
  facet normal -4.458928e-02  9.989426e-01 -1.120531e-02
    outer loop
      vertex   1.553800e+01  6.522200e+01  6.097600e+01
      vertex   1.827600e+01  6.526801e+01  5.418200e+01
      vertex   1.645400e+01  6.518600e+01  5.412200e+01
    endloop
  endfacet
  facet normal -5.666060e-02  9.983634e-01 -7.747481e-03
    outer loop
      vertex   1.645400e+01  6.518600e+01  5.412200e+01
      vertex   1.534200e+01  6.511200e+01  5.271800e+01
      vertex   1.523400e+01  6.511600e+01  5.402400e+01
    endloop
  endfacet
  facet normal -6.313667e-02  9.979705e-01 -8.281817e-03
    outer loop
      vertex   1.524800e+01  6.510600e+01  5.271200e+01
      vertex   1.523400e+01  6.511600e+01  5.402400e+01
      vertex   1.534200e+01  6.511200e+01  5.271800e+01
    endloop
  endfacet
  facet normal -4.174322e-02  9.990727e-01 -1.054113e-02
    outer loop
      vertex   1.526800e+01  6.526200e+01  6.505801e+01
      vertex   1.862800e+01  6.536200e+01  6.123000e+01
      vertex   1.703400e+01  6.529401e+01  6.109800e+01
    endloop
  endfacet
  facet normal -4.680753e-02  9.987832e-01 -1.552916e-02
    outer loop
      vertex   1.703400e+01  6.529401e+01  6.109800e+01
      vertex   2.136600e+01  6.538800e+01  5.408600e+01
      vertex   1.553800e+01  6.522200e+01  6.097600e+01
    endloop
  endfacet
  facet normal -4.972557e-02  9.986921e-01 -1.189043e-02
    outer loop
      vertex   1.553800e+01  6.522200e+01  6.097600e+01
      vertex   1.645400e+01  6.518600e+01  5.412200e+01
      vertex   1.423600e+01  6.515601e+01  6.087800e+01
    endloop
  endfacet
  facet normal -5.948082e-02  9.981043e-01 -1.580572e-02
    outer loop
      vertex   1.218200e+01  6.517001e+01  6.952400e+01
      vertex   1.283800e+01  6.513600e+01  6.490800e+01
      vertex   1.125400e+01  6.511401e+01  6.948000e+01
    endloop
  endfacet
  facet normal -1.479458e-01  9.881672e-01 -4.046665e-02
    outer loop
      vertex   1.323200e+01  6.509400e+01  6.080600e+01
      vertex   1.523400e+01  6.511600e+01  5.402400e+01
      vertex   1.222200e+01  6.494000e+01  6.073800e+01
    endloop
  endfacet
  facet normal -6.340053e-02  9.978549e-01 -1.630656e-02
    outer loop
      vertex   1.283800e+01  6.513600e+01  6.490800e+01
      vertex   1.323200e+01  6.509400e+01  6.080600e+01
      vertex   1.197000e+01  6.508000e+01  6.485600e+01
    endloop
  endfacet
  facet normal -2.081202e-01  9.761657e-01 -6.153511e-02
    outer loop
      vertex   9.028001e+00  6.504601e+01  7.430600e+01
      vertex   1.054000e+01  6.506200e+01  6.944601e+01
      vertex   8.508000e+00  6.493401e+01  7.428800e+01
    endloop
  endfacet
  facet normal -1.415272e-01  9.893762e-01 -3.323936e-02
    outer loop
      vertex   8.508000e+00  6.493401e+01  7.428800e+01
      vertex   1.054000e+01  6.506200e+01  6.944601e+01
      vertex   8.480000e+00  6.493000e+01  7.428800e+01
    endloop
  endfacet
  facet normal -1.473173e-01  9.890473e-01 -9.112056e-03
    outer loop
      vertex   1.523400e+01  6.511600e+01  5.402400e+01
      vertex   1.524800e+01  6.510600e+01  5.271200e+01
      vertex   1.409800e+01  6.494601e+01  5.393800e+01
    endloop
  endfacet
  facet normal -1.499375e-01  9.886272e-01 -1.162456e-02
    outer loop
      vertex   1.515600e+01  6.509200e+01  5.270800e+01
      vertex   1.409800e+01  6.494601e+01  5.393800e+01
      vertex   1.524800e+01  6.510600e+01  5.271200e+01
    endloop
  endfacet
  facet normal -1.765316e-01  9.829654e-01 -5.114352e-02
    outer loop
      vertex   1.054000e+01  6.506200e+01  6.944601e+01
      vertex   1.197000e+01  6.508000e+01  6.485600e+01
      vertex   9.826000e+00  6.493201e+01  6.941200e+01
    endloop
  endfacet
  facet normal -5.562721e-02  9.983349e-01 -1.525977e-02
    outer loop
      vertex   1.218200e+01  6.517001e+01  6.952400e+01
      vertex   1.396800e+01  6.520000e+01  6.497601e+01
      vertex   1.283800e+01  6.513600e+01  6.490800e+01
    endloop
  endfacet
  facet normal -5.150687e-02  9.985178e-01 -1.758511e-02
    outer loop
      vertex   1.199000e+01  6.524800e+01  7.440000e+01
      vertex   1.439400e+01  6.528800e+01  6.963000e+01
      vertex   1.325000e+01  6.522800e+01  6.957401e+01
    endloop
  endfacet
  facet normal -1.987410e-01  9.785186e-01 -5.480341e-02
    outer loop
      vertex   1.444600e+01  6.494601e+01  5.267600e+01
      vertex   1.409800e+01  6.494601e+01  5.393800e+01
      vertex   1.515600e+01  6.509200e+01  5.270800e+01
    endloop
  endfacet
  facet normal -4.084121e-02  9.991218e-01 -9.360777e-03
    outer loop
      vertex   1.808000e+01  6.524800e+01  5.290200e+01
      vertex   1.827600e+01  6.526801e+01  5.418200e+01
      vertex   1.928400e+01  6.529800e+01  5.298600e+01
    endloop
  endfacet
  facet normal -3.879985e-02  9.992002e-01 -9.674586e-03
    outer loop
      vertex   1.711800e+01  6.521001e+01  5.283600e+01
      vertex   1.827600e+01  6.526801e+01  5.418200e+01
      vertex   1.808000e+01  6.524800e+01  5.290200e+01
    endloop
  endfacet
  facet normal -5.615582e-02  9.983238e-01 -1.400312e-02
    outer loop
      vertex   1.423600e+01  6.515601e+01  6.087800e+01
      vertex   1.645400e+01  6.518600e+01  5.412200e+01
      vertex   1.523400e+01  6.511600e+01  5.402400e+01
    endloop
  endfacet
  facet normal -6.058659e-02  9.980555e-01 -1.464671e-02
    outer loop
      vertex   1.423600e+01  6.515601e+01  6.087800e+01
      vertex   1.523400e+01  6.511600e+01  5.402400e+01
      vertex   1.323200e+01  6.509400e+01  6.080600e+01
    endloop
  endfacet
  facet normal -5.160826e-02  9.985464e-01 -1.554436e-02
    outer loop
      vertex   1.439400e+01  6.528800e+01  6.963000e+01
      vertex   1.526800e+01  6.526200e+01  6.505801e+01
      vertex   1.325000e+01  6.522800e+01  6.957401e+01
    endloop
  endfacet
  facet normal -5.556273e-02  9.983218e-01 -1.631871e-02
    outer loop
      vertex   1.396800e+01  6.520000e+01  6.497601e+01
      vertex   1.553800e+01  6.522200e+01  6.097600e+01
      vertex   1.283800e+01  6.513600e+01  6.490800e+01
    endloop
  endfacet
  facet normal -5.345444e-02  9.984361e-01 -1.637016e-02
    outer loop
      vertex   1.325000e+01  6.522800e+01  6.957401e+01
      vertex   1.526800e+01  6.526200e+01  6.505801e+01
      vertex   1.218200e+01  6.517001e+01  6.952400e+01
    endloop
  endfacet
  facet normal -1.449871e-01  9.886596e-01 -3.912643e-02
    outer loop
      vertex   1.222200e+01  6.494000e+01  6.073800e+01
      vertex   1.523400e+01  6.511600e+01  5.402400e+01
      vertex   1.409800e+01  6.494601e+01  5.393800e+01
    endloop
  endfacet
  facet normal -1.664875e-02  9.997228e-01  1.664875e-02
    outer loop
      vertex   1.962600e+01  6.531001e+01  5.301000e+01
      vertex   1.827600e+01  6.526801e+01  5.418200e+01
      vertex   1.962800e+01  6.531001e+01  5.301200e+01
    endloop
  endfacet
  facet normal -3.477169e-02  9.993863e-01 -4.238694e-03
    outer loop
      vertex   1.928400e+01  6.529800e+01  5.298600e+01
      vertex   1.827600e+01  6.526801e+01  5.418200e+01
      vertex   1.962600e+01  6.531001e+01  5.301000e+01
    endloop
  endfacet
  facet normal -4.056225e-02  9.991164e-01 -1.100633e-02
    outer loop
      vertex   1.962800e+01  6.531001e+01  5.301200e+01
      vertex   1.827600e+01  6.526801e+01  5.418200e+01
      vertex   2.005000e+01  6.533000e+01  5.327200e+01
    endloop
  endfacet
  facet normal -3.837083e-02  9.992409e-01 -6.725778e-03
    outer loop
      vertex   2.005000e+01  6.533000e+01  5.327200e+01
      vertex   1.827600e+01  6.526801e+01  5.418200e+01
      vertex   2.070800e+01  6.535800e+01  5.367800e+01
    endloop
  endfacet
  facet normal -1.579960e-01  9.863759e-01 -4.582265e-02
    outer loop
      vertex   1.197000e+01  6.508000e+01  6.485600e+01
      vertex   1.323200e+01  6.509400e+01  6.080600e+01
      vertex   1.109800e+01  6.493800e+01  6.480600e+01
    endloop
  endfacet
  facet normal -4.982380e-02  9.987580e-01 -1.713418e-04
    outer loop
      vertex   1.619600e+01  6.516400e+01  5.277400e+01
      vertex   1.827600e+01  6.526801e+01  5.418200e+01
      vertex   1.711800e+01  6.521001e+01  5.283600e+01
    endloop
  endfacet
  facet normal -6.342836e-02  9.978606e-01 -1.584819e-02
    outer loop
      vertex   1.054000e+01  6.506200e+01  6.944601e+01
      vertex   1.283800e+01  6.513600e+01  6.490800e+01
      vertex   1.197000e+01  6.508000e+01  6.485600e+01
    endloop
  endfacet
  facet normal -5.843865e-02  9.982805e-01 -4.581079e-03
    outer loop
      vertex   1.570800e+01  6.513600e+01  5.274200e+01
      vertex   1.645400e+01  6.518600e+01  5.412200e+01
      vertex   1.604800e+01  6.515601e+01  5.276400e+01
    endloop
  endfacet
  facet normal -6.538592e-02  9.978597e-01 -8.102770e-04
    outer loop
      vertex   1.534200e+01  6.511200e+01  5.271800e+01
      vertex   1.645400e+01  6.518600e+01  5.412200e+01
      vertex   1.570800e+01  6.513600e+01  5.274200e+01
    endloop
  endfacet
  facet normal -1.582111e-01  9.864942e-01 -4.240745e-02
    outer loop
      vertex   9.826000e+00  6.493201e+01  6.941200e+01
      vertex   1.197000e+01  6.508000e+01  6.485600e+01
      vertex   1.109800e+01  6.493800e+01  6.480600e+01
    endloop
  endfacet
  facet normal -6.252584e-02  9.978675e-01 -1.873884e-02
    outer loop
      vertex   1.029000e+01  6.514201e+01  7.434600e+01
      vertex   1.111200e+01  6.519400e+01  7.437200e+01
      vertex   1.218200e+01  6.517001e+01  6.952400e+01
    endloop
  endfacet
  facet normal -4.688792e-02  9.988301e-01 -1.182458e-02
    outer loop
      vertex   1.218200e+01  6.517001e+01  6.952400e+01
      vertex   1.526800e+01  6.526200e+01  6.505801e+01
      vertex   1.396800e+01  6.520000e+01  6.497601e+01
    endloop
  endfacet
  facet normal -4.159646e-02  9.990587e-01 -1.230608e-02
    outer loop
      vertex   1.862800e+01  6.536200e+01  6.123000e+01
      vertex   2.136600e+01  6.538800e+01  5.408600e+01
      vertex   1.703400e+01  6.529401e+01  6.109800e+01
    endloop
  endfacet
  facet normal -4.969592e-02  9.986888e-01 -1.228210e-02
    outer loop
      vertex   1.283800e+01  6.513600e+01  6.490800e+01
      vertex   1.553800e+01  6.522200e+01  6.097600e+01
      vertex   1.423600e+01  6.515601e+01  6.087800e+01
    endloop
  endfacet
endsolid vcg
